<?xml version='1.0' encoding='utf-8'?>
<mlt title="Anonymous Submission" version="6.4.1" root="/mnt/unreal/beasty" producer="main bin" LC_NUMERIC="C">
 <profile width="720" frame_rate_den="1001" height="480" display_aspect_num="4" display_aspect_den="3" frame_rate_num="30000" colorspace="601" sample_aspect_den="9" description="DV/DVD NTSC" progressive="0" sample_aspect_num="8"/>
 <producer id="1" title="Anonymous Submission" out="110" in="0">
  <property name="length">00:00:03;21</property>
  <property name="eof">pause</property>
  <property name="resource">/home/thoth/.cache/kdenlive/proxy/c216dba94397ff88d032e62326184437.mpg</property>
  <property name="meta.media.nb_streams">2</property>
  <property name="meta.media.0.stream.type">video</property>
  <property name="meta.media.0.stream.frame_rate">29.97</property>
  <property name="meta.media.0.stream.sample_aspect_ratio">0</property>
  <property name="meta.media.0.codec.width">640</property>
  <property name="meta.media.0.codec.height">427</property>
  <property name="meta.media.0.codec.rotate">0</property>
  <property name="meta.media.0.codec.frame_rate">29.97</property>
  <property name="meta.media.0.codec.pix_fmt">yuv422p</property>
  <property name="meta.media.0.codec.sample_aspect_ratio">0.889583</property>
  <property name="meta.media.0.codec.colorspace">601</property>
  <property name="meta.media.0.codec.name">mpeg2video</property>
  <property name="meta.media.0.codec.long_name">MPEG-2 video</property>
  <property name="meta.media.0.codec.bit_rate">0</property>
  <property name="meta.media.1.stream.type">audio</property>
  <property name="meta.media.1.codec.sample_fmt">s16p</property>
  <property name="meta.media.1.codec.sample_rate">32000</property>
  <property name="meta.media.1.codec.channels">2</property>
  <property name="meta.media.1.codec.name">mp2</property>
  <property name="meta.media.1.codec.long_name">MP2 (MPEG audio layer 2)</property>
  <property name="meta.media.1.codec.bit_rate">128000</property>
  <property name="seekable">1</property>
  <property name="meta.media.sample_aspect_num">427</property>
  <property name="meta.media.sample_aspect_den">480</property>
  <property name="aspect_ratio">0.889583</property>
  <property name="audio_index">1</property>
  <property name="video_index">0</property>
  <property name="mute_on_pause">1</property>
  <property name="mlt_service">avformat</property>
  <property name="meta.media.2.stream.type">audio</property>
  <property name="meta.media.2.codec.sample_fmt">s16</property>
  <property name="meta.media.2.codec.sample_rate">32000</property>
  <property name="meta.media.2.codec.channels">2</property>
  <property name="meta.media.2.codec.name">pcm_s16le</property>
  <property name="meta.media.2.codec.long_name">PCM signed 16-bit little-endian</property>
  <property name="meta.media.2.codec.bit_rate">1024000</property>
  <property name="meta.attr.timecode.markup">00:02:05;06</property>
  <property name="kdenlive:folderid">-1</property>
  <property name="meta.media.frame_rate_num">30000</property>
  <property name="meta.media.frame_rate_den">1001</property>
  <property name="meta.media.colorspace">601</property>
  <property name="meta.media.color_trc">2</property>
  <property name="meta.media.width">640</property>
  <property name="meta.media.height">427</property>
  <property name="kdenlive:file_size">13320000</property>
  <property name="kdenlive:file_hash">c216dba94397ff88d032e62326184437</property>
  <property name="kdenlive:proxy">/home/thoth/.cache/kdenlive/proxy/c216dba94397ff88d032e62326184437.mpg</property>
  <property name="proxy_out">110</property>
  <property name="kdenlive:originalurl">2001-07-07-beasty/beastiality-001.dv</property>
  <property name="meta.media.top_field_first">0</property>
  <property name="meta.media.progressive">1</property>
  <property name="global_feed">1</property>
  <property name="kdenlive:meta.media.nb_streams">3</property>
  <property name="kdenlive:meta.media.0.stream.type">video</property>
  <property name="kdenlive:meta.media.0.stream.frame_rate">29.97</property>
  <property name="kdenlive:meta.media.0.stream.sample_aspect_ratio">0.888889</property>
  <property name="kdenlive:meta.media.0.codec.width">720</property>
  <property name="kdenlive:meta.media.0.codec.height">480</property>
  <property name="kdenlive:meta.media.0.codec.rotate">0</property>
  <property name="kdenlive:meta.media.0.codec.frame_rate">29.97</property>
  <property name="kdenlive:meta.media.0.codec.pix_fmt">yuv411p</property>
  <property name="kdenlive:meta.media.0.codec.sample_aspect_ratio">0.888889</property>
  <property name="kdenlive:meta.media.0.codec.colorspace">601</property>
  <property name="kdenlive:meta.media.0.codec.name">dvvideo</property>
  <property name="kdenlive:meta.media.0.codec.long_name">DV (Digital Video)</property>
  <property name="kdenlive:meta.media.0.codec.bit_rate">25000000</property>
  <property name="kdenlive:meta.media.1.stream.type">audio</property>
  <property name="kdenlive:meta.media.1.codec.sample_fmt">s16</property>
  <property name="kdenlive:meta.media.1.codec.sample_rate">32000</property>
  <property name="kdenlive:meta.media.1.codec.channels">2</property>
  <property name="kdenlive:meta.media.1.codec.name">pcm_s16le</property>
  <property name="kdenlive:meta.media.1.codec.long_name">PCM signed 16-bit little-endian</property>
  <property name="kdenlive:meta.media.1.codec.bit_rate">1024000</property>
  <property name="kdenlive:meta.media.2.stream.type">audio</property>
  <property name="kdenlive:meta.media.2.codec.sample_fmt">s16</property>
  <property name="kdenlive:meta.media.2.codec.sample_rate">32000</property>
  <property name="kdenlive:meta.media.2.codec.channels">2</property>
  <property name="kdenlive:meta.media.2.codec.name">pcm_s16le</property>
  <property name="kdenlive:meta.media.2.codec.long_name">PCM signed 16-bit little-endian</property>
  <property name="kdenlive:meta.media.2.codec.bit_rate">1024000</property>
  <property name="kdenlive:meta.attr.timecode.markup">00:02:05;06</property>
  <property name="kdenlive:meta.media.sample_aspect_num">8</property>
  <property name="kdenlive:meta.media.sample_aspect_den">9</property>
  <property name="kdenlive:meta.media.frame_rate_num">30000</property>
  <property name="kdenlive:meta.media.frame_rate_den">1001</property>
  <property name="kdenlive:meta.media.colorspace">601</property>
  <property name="kdenlive:meta.media.color_trc">2</property>
  <property name="kdenlive:meta.media.width">720</property>
  <property name="kdenlive:meta.media.height">480</property>
  <property name="kdenlive:meta.media.top_field_first">0</property>
  <property name="kdenlive:meta.media.progressive">0</property>
 </producer>
 <producer id="2" title="Anonymous Submission" out="110" in="0">
  <property name="length">00:00:03;21</property>
  <property name="eof">pause</property>
  <property name="resource">/home/thoth/.cache/kdenlive/proxy/c216dba94397ff88d032e62326184437.mpg</property>
  <property name="meta.media.nb_streams">3</property>
  <property name="meta.media.0.stream.type">video</property>
  <property name="meta.media.0.stream.frame_rate">29.97</property>
  <property name="meta.media.0.stream.sample_aspect_ratio">0.888889</property>
  <property name="meta.media.0.codec.width">720</property>
  <property name="meta.media.0.codec.height">480</property>
  <property name="meta.media.0.codec.rotate">0</property>
  <property name="meta.media.0.codec.frame_rate">29.97</property>
  <property name="meta.media.0.codec.pix_fmt">yuv411p</property>
  <property name="meta.media.0.codec.sample_aspect_ratio">0.888889</property>
  <property name="meta.media.0.codec.colorspace">601</property>
  <property name="meta.media.0.codec.name">dvvideo</property>
  <property name="meta.media.0.codec.long_name">DV (Digital Video)</property>
  <property name="meta.media.0.codec.bit_rate">25000000</property>
  <property name="meta.media.1.stream.type">audio</property>
  <property name="meta.media.1.codec.sample_fmt">s16</property>
  <property name="meta.media.1.codec.sample_rate">32000</property>
  <property name="meta.media.1.codec.channels">2</property>
  <property name="meta.media.1.codec.name">pcm_s16le</property>
  <property name="meta.media.1.codec.long_name">PCM signed 16-bit little-endian</property>
  <property name="meta.media.1.codec.bit_rate">1024000</property>
  <property name="seekable">1</property>
  <property name="meta.media.sample_aspect_num">8</property>
  <property name="meta.media.sample_aspect_den">9</property>
  <property name="aspect_ratio">0.888889</property>
  <property name="audio_index">1</property>
  <property name="video_index">0</property>
  <property name="mute_on_pause">1</property>
  <property name="mlt_service">avformat</property>
  <property name="meta.media.2.stream.type">audio</property>
  <property name="meta.media.2.codec.sample_fmt">s16</property>
  <property name="meta.media.2.codec.sample_rate">32000</property>
  <property name="meta.media.2.codec.channels">2</property>
  <property name="meta.media.2.codec.name">pcm_s16le</property>
  <property name="meta.media.2.codec.long_name">PCM signed 16-bit little-endian</property>
  <property name="meta.media.2.codec.bit_rate">1024000</property>
  <property name="meta.attr.timecode.markup">00:02:05;06</property>
  <property name="kdenlive:folderid">-1</property>
  <property name="meta.media.frame_rate_num">30000</property>
  <property name="meta.media.frame_rate_den">1001</property>
  <property name="meta.media.colorspace">601</property>
  <property name="meta.media.color_trc">2</property>
  <property name="meta.media.width">720</property>
  <property name="meta.media.height">480</property>
  <property name="kdenlive:file_size">13320000</property>
  <property name="kdenlive:file_hash">c216dba94397ff88d032e62326184437</property>
  <property name="kdenlive:proxy">/home/thoth/.cache/kdenlive/proxy/c216dba94397ff88d032e62326184437.mpg</property>
  <property name="proxy_out">110</property>
  <property name="kdenlive:originalurl">2001-07-07-beasty/beastiality-001.dv</property>
  <property name="global_feed">1</property>
  <property name="kdenlive:meta.media.nb_streams">3</property>
  <property name="kdenlive:meta.media.0.stream.type">video</property>
  <property name="kdenlive:meta.media.0.stream.frame_rate">29.97</property>
  <property name="kdenlive:meta.media.0.stream.sample_aspect_ratio">0.888889</property>
  <property name="kdenlive:meta.media.0.codec.width">720</property>
  <property name="kdenlive:meta.media.0.codec.height">480</property>
  <property name="kdenlive:meta.media.0.codec.rotate">0</property>
  <property name="kdenlive:meta.media.0.codec.frame_rate">29.97</property>
  <property name="kdenlive:meta.media.0.codec.pix_fmt">yuv411p</property>
  <property name="kdenlive:meta.media.0.codec.sample_aspect_ratio">0.888889</property>
  <property name="kdenlive:meta.media.0.codec.colorspace">601</property>
  <property name="kdenlive:meta.media.0.codec.name">dvvideo</property>
  <property name="kdenlive:meta.media.0.codec.long_name">DV (Digital Video)</property>
  <property name="kdenlive:meta.media.0.codec.bit_rate">25000000</property>
  <property name="kdenlive:meta.media.1.stream.type">audio</property>
  <property name="kdenlive:meta.media.1.codec.sample_fmt">s16</property>
  <property name="kdenlive:meta.media.1.codec.sample_rate">32000</property>
  <property name="kdenlive:meta.media.1.codec.channels">2</property>
  <property name="kdenlive:meta.media.1.codec.name">pcm_s16le</property>
  <property name="kdenlive:meta.media.1.codec.long_name">PCM signed 16-bit little-endian</property>
  <property name="kdenlive:meta.media.1.codec.bit_rate">1024000</property>
  <property name="kdenlive:meta.media.2.stream.type">audio</property>
  <property name="kdenlive:meta.media.2.codec.sample_fmt">s16</property>
  <property name="kdenlive:meta.media.2.codec.sample_rate">32000</property>
  <property name="kdenlive:meta.media.2.codec.channels">2</property>
  <property name="kdenlive:meta.media.2.codec.name">pcm_s16le</property>
  <property name="kdenlive:meta.media.2.codec.long_name">PCM signed 16-bit little-endian</property>
  <property name="kdenlive:meta.media.2.codec.bit_rate">1024000</property>
  <property name="kdenlive:meta.attr.timecode.markup">00:02:05;06</property>
  <property name="kdenlive:meta.media.sample_aspect_num">8</property>
  <property name="kdenlive:meta.media.sample_aspect_den">9</property>
  <property name="kdenlive:meta.media.frame_rate_num">30000</property>
  <property name="kdenlive:meta.media.frame_rate_den">1001</property>
  <property name="kdenlive:meta.media.colorspace">601</property>
  <property name="kdenlive:meta.media.color_trc">2</property>
  <property name="kdenlive:meta.media.width">720</property>
  <property name="kdenlive:meta.media.height">480</property>
 </producer>
 <producer id="3" title="Anonymous Submission" out="268" in="0">
  <property name="length">00:00:08;29</property>
  <property name="eof">pause</property>
  <property name="resource">/home/thoth/.cache/kdenlive/proxy/f1a947fefa1d81eb9b7c09a79b90873e.mpg</property>
  <property name="meta.media.nb_streams">3</property>
  <property name="meta.media.0.stream.type">video</property>
  <property name="meta.media.0.stream.frame_rate">29.97</property>
  <property name="meta.media.0.stream.sample_aspect_ratio">0.888889</property>
  <property name="meta.media.0.codec.width">720</property>
  <property name="meta.media.0.codec.height">480</property>
  <property name="meta.media.0.codec.rotate">0</property>
  <property name="meta.media.0.codec.frame_rate">29.97</property>
  <property name="meta.media.0.codec.pix_fmt">yuv411p</property>
  <property name="meta.media.0.codec.sample_aspect_ratio">0.888889</property>
  <property name="meta.media.0.codec.colorspace">601</property>
  <property name="meta.media.0.codec.name">dvvideo</property>
  <property name="meta.media.0.codec.long_name">DV (Digital Video)</property>
  <property name="meta.media.0.codec.bit_rate">25000000</property>
  <property name="meta.media.1.stream.type">audio</property>
  <property name="meta.media.1.codec.sample_fmt">s16</property>
  <property name="meta.media.1.codec.sample_rate">32000</property>
  <property name="meta.media.1.codec.channels">2</property>
  <property name="meta.media.1.codec.name">pcm_s16le</property>
  <property name="meta.media.1.codec.long_name">PCM signed 16-bit little-endian</property>
  <property name="meta.media.1.codec.bit_rate">1024000</property>
  <property name="seekable">1</property>
  <property name="meta.media.sample_aspect_num">8</property>
  <property name="meta.media.sample_aspect_den">9</property>
  <property name="aspect_ratio">0.888889</property>
  <property name="audio_index">1</property>
  <property name="video_index">0</property>
  <property name="mute_on_pause">1</property>
  <property name="mlt_service">avformat</property>
  <property name="meta.media.2.stream.type">audio</property>
  <property name="meta.media.2.codec.sample_fmt">s16</property>
  <property name="meta.media.2.codec.sample_rate">32000</property>
  <property name="meta.media.2.codec.channels">2</property>
  <property name="meta.media.2.codec.name">pcm_s16le</property>
  <property name="meta.media.2.codec.long_name">PCM signed 16-bit little-endian</property>
  <property name="meta.media.2.codec.bit_rate">1024000</property>
  <property name="meta.attr.timecode.markup">00:02:08;27</property>
  <property name="kdenlive:folderid">-1</property>
  <property name="meta.media.frame_rate_num">30000</property>
  <property name="meta.media.frame_rate_den">1001</property>
  <property name="meta.media.colorspace">601</property>
  <property name="meta.media.color_trc">2</property>
  <property name="meta.media.width">720</property>
  <property name="meta.media.height">480</property>
  <property name="kdenlive:file_size">32280000</property>
  <property name="kdenlive:file_hash">f1a947fefa1d81eb9b7c09a79b90873e</property>
  <property name="kdenlive:proxy">/home/thoth/.cache/kdenlive/proxy/f1a947fefa1d81eb9b7c09a79b90873e.mpg</property>
  <property name="proxy_out">268</property>
  <property name="kdenlive:originalurl">2001-07-07-beasty/beastiality-002.dv</property>
  <property name="global_feed">1</property>
  <property name="kdenlive:meta.media.nb_streams">3</property>
  <property name="kdenlive:meta.media.0.stream.type">video</property>
  <property name="kdenlive:meta.media.0.stream.frame_rate">29.97</property>
  <property name="kdenlive:meta.media.0.stream.sample_aspect_ratio">0.888889</property>
  <property name="kdenlive:meta.media.0.codec.width">720</property>
  <property name="kdenlive:meta.media.0.codec.height">480</property>
  <property name="kdenlive:meta.media.0.codec.rotate">0</property>
  <property name="kdenlive:meta.media.0.codec.frame_rate">29.97</property>
  <property name="kdenlive:meta.media.0.codec.pix_fmt">yuv411p</property>
  <property name="kdenlive:meta.media.0.codec.sample_aspect_ratio">0.888889</property>
  <property name="kdenlive:meta.media.0.codec.colorspace">601</property>
  <property name="kdenlive:meta.media.0.codec.name">dvvideo</property>
  <property name="kdenlive:meta.media.0.codec.long_name">DV (Digital Video)</property>
  <property name="kdenlive:meta.media.0.codec.bit_rate">25000000</property>
  <property name="kdenlive:meta.media.1.stream.type">audio</property>
  <property name="kdenlive:meta.media.1.codec.sample_fmt">s16</property>
  <property name="kdenlive:meta.media.1.codec.sample_rate">32000</property>
  <property name="kdenlive:meta.media.1.codec.channels">2</property>
  <property name="kdenlive:meta.media.1.codec.name">pcm_s16le</property>
  <property name="kdenlive:meta.media.1.codec.long_name">PCM signed 16-bit little-endian</property>
  <property name="kdenlive:meta.media.1.codec.bit_rate">1024000</property>
  <property name="kdenlive:meta.media.2.stream.type">audio</property>
  <property name="kdenlive:meta.media.2.codec.sample_fmt">s16</property>
  <property name="kdenlive:meta.media.2.codec.sample_rate">32000</property>
  <property name="kdenlive:meta.media.2.codec.channels">2</property>
  <property name="kdenlive:meta.media.2.codec.name">pcm_s16le</property>
  <property name="kdenlive:meta.media.2.codec.long_name">PCM signed 16-bit little-endian</property>
  <property name="kdenlive:meta.media.2.codec.bit_rate">1024000</property>
  <property name="kdenlive:meta.attr.timecode.markup">00:02:08;27</property>
  <property name="kdenlive:meta.media.sample_aspect_num">8</property>
  <property name="kdenlive:meta.media.sample_aspect_den">9</property>
  <property name="kdenlive:meta.media.frame_rate_num">30000</property>
  <property name="kdenlive:meta.media.frame_rate_den">1001</property>
  <property name="kdenlive:meta.media.colorspace">601</property>
  <property name="kdenlive:meta.media.color_trc">2</property>
  <property name="kdenlive:meta.media.width">720</property>
  <property name="kdenlive:meta.media.height">480</property>
 </producer>
 <producer id="4" title="Anonymous Submission" out="1468" in="0">
  <property name="length">00:00:48;29</property>
  <property name="eof">pause</property>
  <property name="resource">/home/thoth/.cache/kdenlive/proxy/fbe1cb59785942873aa839eeaa42d487.mpg</property>
  <property name="meta.media.nb_streams">2</property>
  <property name="meta.media.0.stream.type">video</property>
  <property name="meta.media.0.stream.frame_rate">29.97</property>
  <property name="meta.media.0.stream.sample_aspect_ratio">0</property>
  <property name="meta.media.0.codec.width">640</property>
  <property name="meta.media.0.codec.height">427</property>
  <property name="meta.media.0.codec.rotate">0</property>
  <property name="meta.media.0.codec.frame_rate">29.97</property>
  <property name="meta.media.0.codec.pix_fmt">yuv422p</property>
  <property name="meta.media.0.codec.sample_aspect_ratio">0.889583</property>
  <property name="meta.media.0.codec.colorspace">601</property>
  <property name="meta.media.0.codec.name">mpeg2video</property>
  <property name="meta.media.0.codec.long_name">MPEG-2 video</property>
  <property name="meta.media.0.codec.bit_rate">0</property>
  <property name="meta.media.1.stream.type">audio</property>
  <property name="meta.media.1.codec.sample_fmt">s16p</property>
  <property name="meta.media.1.codec.sample_rate">32000</property>
  <property name="meta.media.1.codec.channels">2</property>
  <property name="meta.media.1.codec.name">mp2</property>
  <property name="meta.media.1.codec.long_name">MP2 (MPEG audio layer 2)</property>
  <property name="meta.media.1.codec.bit_rate">128000</property>
  <property name="seekable">1</property>
  <property name="meta.media.sample_aspect_num">427</property>
  <property name="meta.media.sample_aspect_den">480</property>
  <property name="aspect_ratio">0.889583</property>
  <property name="audio_index">1</property>
  <property name="video_index">0</property>
  <property name="mute_on_pause">1</property>
  <property name="mlt_service">avformat</property>
  <property name="meta.media.2.stream.type">audio</property>
  <property name="meta.media.2.codec.sample_fmt">s16</property>
  <property name="meta.media.2.codec.sample_rate">32000</property>
  <property name="meta.media.2.codec.channels">2</property>
  <property name="meta.media.2.codec.name">pcm_s16le</property>
  <property name="meta.media.2.codec.long_name">PCM signed 16-bit little-endian</property>
  <property name="meta.media.2.codec.bit_rate">1024000</property>
  <property name="meta.attr.timecode.markup">00:02:17;26</property>
  <property name="kdenlive:folderid">-1</property>
  <property name="meta.media.frame_rate_num">30000</property>
  <property name="meta.media.frame_rate_den">1001</property>
  <property name="meta.media.colorspace">601</property>
  <property name="meta.media.color_trc">2</property>
  <property name="meta.media.width">640</property>
  <property name="meta.media.height">427</property>
  <property name="kdenlive:file_size">177720000</property>
  <property name="kdenlive:file_hash">fbe1cb59785942873aa839eeaa42d487</property>
  <property name="kdenlive:proxy">/home/thoth/.cache/kdenlive/proxy/fbe1cb59785942873aa839eeaa42d487.mpg</property>
  <property name="proxy_out">1480</property>
  <property name="kdenlive:originalurl">2001-07-07-beasty/beastiality-003.dv</property>
  <property name="global_feed">1</property>
  <property name="kdenlive:meta.media.nb_streams">3</property>
  <property name="kdenlive:meta.media.0.stream.type">video</property>
  <property name="kdenlive:meta.media.0.stream.frame_rate">29.97</property>
  <property name="kdenlive:meta.media.0.stream.sample_aspect_ratio">0.888889</property>
  <property name="kdenlive:meta.media.0.codec.width">720</property>
  <property name="kdenlive:meta.media.0.codec.height">480</property>
  <property name="kdenlive:meta.media.0.codec.rotate">0</property>
  <property name="kdenlive:meta.media.0.codec.frame_rate">29.97</property>
  <property name="kdenlive:meta.media.0.codec.pix_fmt">yuv411p</property>
  <property name="kdenlive:meta.media.0.codec.sample_aspect_ratio">0.888889</property>
  <property name="kdenlive:meta.media.0.codec.colorspace">601</property>
  <property name="kdenlive:meta.media.0.codec.name">dvvideo</property>
  <property name="kdenlive:meta.media.0.codec.long_name">DV (Digital Video)</property>
  <property name="kdenlive:meta.media.0.codec.bit_rate">25000000</property>
  <property name="kdenlive:meta.media.1.stream.type">audio</property>
  <property name="kdenlive:meta.media.1.codec.sample_fmt">s16</property>
  <property name="kdenlive:meta.media.1.codec.sample_rate">32000</property>
  <property name="kdenlive:meta.media.1.codec.channels">2</property>
  <property name="kdenlive:meta.media.1.codec.name">pcm_s16le</property>
  <property name="kdenlive:meta.media.1.codec.long_name">PCM signed 16-bit little-endian</property>
  <property name="kdenlive:meta.media.1.codec.bit_rate">1024000</property>
  <property name="kdenlive:meta.media.2.stream.type">audio</property>
  <property name="kdenlive:meta.media.2.codec.sample_fmt">s16</property>
  <property name="kdenlive:meta.media.2.codec.sample_rate">32000</property>
  <property name="kdenlive:meta.media.2.codec.channels">2</property>
  <property name="kdenlive:meta.media.2.codec.name">pcm_s16le</property>
  <property name="kdenlive:meta.media.2.codec.long_name">PCM signed 16-bit little-endian</property>
  <property name="kdenlive:meta.media.2.codec.bit_rate">1024000</property>
  <property name="kdenlive:meta.attr.timecode.markup">00:02:17;26</property>
  <property name="kdenlive:meta.media.sample_aspect_num">8</property>
  <property name="kdenlive:meta.media.sample_aspect_den">9</property>
  <property name="kdenlive:meta.media.frame_rate_num">30000</property>
  <property name="kdenlive:meta.media.frame_rate_den">1001</property>
  <property name="kdenlive:meta.media.colorspace">601</property>
  <property name="kdenlive:meta.media.color_trc">2</property>
  <property name="kdenlive:meta.media.width">720</property>
  <property name="kdenlive:meta.media.height">480</property>
  <property name="meta.media.top_field_first">0</property>
  <property name="meta.media.progressive">1</property>
  <property name="kdenlive:zone_in">156</property>
  <property name="kdenlive:zone_out">333</property>
 </producer>
 <producer id="5" title="Anonymous Submission" out="724" in="0">
  <property name="length">00:00:24;05</property>
  <property name="eof">pause</property>
  <property name="resource">/home/thoth/.cache/kdenlive/proxy/558f5afc1a721cc49a1cb640743eb172.mpg</property>
  <property name="meta.media.nb_streams">2</property>
  <property name="meta.media.0.stream.type">video</property>
  <property name="meta.media.0.stream.frame_rate">29.97</property>
  <property name="meta.media.0.stream.sample_aspect_ratio">0</property>
  <property name="meta.media.0.codec.width">640</property>
  <property name="meta.media.0.codec.height">427</property>
  <property name="meta.media.0.codec.rotate">0</property>
  <property name="meta.media.0.codec.frame_rate">29.97</property>
  <property name="meta.media.0.codec.pix_fmt">yuv422p</property>
  <property name="meta.media.0.codec.sample_aspect_ratio">0.889583</property>
  <property name="meta.media.0.codec.colorspace">601</property>
  <property name="meta.media.0.codec.name">mpeg2video</property>
  <property name="meta.media.0.codec.long_name">MPEG-2 video</property>
  <property name="meta.media.0.codec.bit_rate">0</property>
  <property name="meta.media.1.stream.type">audio</property>
  <property name="meta.media.1.codec.sample_fmt">s16p</property>
  <property name="meta.media.1.codec.sample_rate">32000</property>
  <property name="meta.media.1.codec.channels">2</property>
  <property name="meta.media.1.codec.name">mp2</property>
  <property name="meta.media.1.codec.long_name">MP2 (MPEG audio layer 2)</property>
  <property name="meta.media.1.codec.bit_rate">128000</property>
  <property name="seekable">1</property>
  <property name="meta.media.sample_aspect_num">427</property>
  <property name="meta.media.sample_aspect_den">480</property>
  <property name="aspect_ratio">0.889583</property>
  <property name="audio_index">1</property>
  <property name="video_index">0</property>
  <property name="mute_on_pause">1</property>
  <property name="mlt_service">avformat</property>
  <property name="meta.media.2.stream.type">audio</property>
  <property name="meta.media.2.codec.sample_fmt">s16</property>
  <property name="meta.media.2.codec.sample_rate">32000</property>
  <property name="meta.media.2.codec.channels">2</property>
  <property name="meta.media.2.codec.name">pcm_s16le</property>
  <property name="meta.media.2.codec.long_name">PCM signed 16-bit little-endian</property>
  <property name="meta.media.2.codec.bit_rate">1024000</property>
  <property name="meta.attr.timecode.markup">00:03:07;09</property>
  <property name="kdenlive:folderid">-1</property>
  <property name="meta.media.frame_rate_num">30000</property>
  <property name="meta.media.frame_rate_den">1001</property>
  <property name="meta.media.colorspace">601</property>
  <property name="meta.media.color_trc">2</property>
  <property name="meta.media.width">640</property>
  <property name="meta.media.height">427</property>
  <property name="kdenlive:file_size">88440000</property>
  <property name="kdenlive:file_hash">558f5afc1a721cc49a1cb640743eb172</property>
  <property name="kdenlive:proxy">/home/thoth/.cache/kdenlive/proxy/558f5afc1a721cc49a1cb640743eb172.mpg</property>
  <property name="proxy_out">736</property>
  <property name="kdenlive:originalurl">2001-07-07-beasty/beastiality-004.dv</property>
  <property name="global_feed">1</property>
  <property name="kdenlive:meta.media.nb_streams">3</property>
  <property name="kdenlive:meta.media.0.stream.type">video</property>
  <property name="kdenlive:meta.media.0.stream.frame_rate">29.97</property>
  <property name="kdenlive:meta.media.0.stream.sample_aspect_ratio">0.888889</property>
  <property name="kdenlive:meta.media.0.codec.width">720</property>
  <property name="kdenlive:meta.media.0.codec.height">480</property>
  <property name="kdenlive:meta.media.0.codec.rotate">0</property>
  <property name="kdenlive:meta.media.0.codec.frame_rate">29.97</property>
  <property name="kdenlive:meta.media.0.codec.pix_fmt">yuv411p</property>
  <property name="kdenlive:meta.media.0.codec.sample_aspect_ratio">0.888889</property>
  <property name="kdenlive:meta.media.0.codec.colorspace">601</property>
  <property name="kdenlive:meta.media.0.codec.name">dvvideo</property>
  <property name="kdenlive:meta.media.0.codec.long_name">DV (Digital Video)</property>
  <property name="kdenlive:meta.media.0.codec.bit_rate">25000000</property>
  <property name="kdenlive:meta.media.1.stream.type">audio</property>
  <property name="kdenlive:meta.media.1.codec.sample_fmt">s16</property>
  <property name="kdenlive:meta.media.1.codec.sample_rate">32000</property>
  <property name="kdenlive:meta.media.1.codec.channels">2</property>
  <property name="kdenlive:meta.media.1.codec.name">pcm_s16le</property>
  <property name="kdenlive:meta.media.1.codec.long_name">PCM signed 16-bit little-endian</property>
  <property name="kdenlive:meta.media.1.codec.bit_rate">1024000</property>
  <property name="kdenlive:meta.media.2.stream.type">audio</property>
  <property name="kdenlive:meta.media.2.codec.sample_fmt">s16</property>
  <property name="kdenlive:meta.media.2.codec.sample_rate">32000</property>
  <property name="kdenlive:meta.media.2.codec.channels">2</property>
  <property name="kdenlive:meta.media.2.codec.name">pcm_s16le</property>
  <property name="kdenlive:meta.media.2.codec.long_name">PCM signed 16-bit little-endian</property>
  <property name="kdenlive:meta.media.2.codec.bit_rate">1024000</property>
  <property name="kdenlive:meta.attr.timecode.markup">00:03:07;09</property>
  <property name="kdenlive:meta.media.sample_aspect_num">8</property>
  <property name="kdenlive:meta.media.sample_aspect_den">9</property>
  <property name="kdenlive:meta.media.frame_rate_num">30000</property>
  <property name="kdenlive:meta.media.frame_rate_den">1001</property>
  <property name="kdenlive:meta.media.colorspace">601</property>
  <property name="kdenlive:meta.media.color_trc">2</property>
  <property name="kdenlive:meta.media.width">720</property>
  <property name="kdenlive:meta.media.height">480</property>
  <property name="meta.media.top_field_first">0</property>
  <property name="meta.media.progressive">1</property>
 </producer>
 <producer id="6" title="Anonymous Submission" out="1764" in="0">
  <property name="length">00:00:58;25</property>
  <property name="eof">pause</property>
  <property name="resource">/home/thoth/.cache/kdenlive/proxy/b20644ec2fab9c79a21d78a259a98cac.mpg</property>
  <property name="meta.media.nb_streams">2</property>
  <property name="meta.media.0.stream.type">video</property>
  <property name="meta.media.0.stream.frame_rate">29.97</property>
  <property name="meta.media.0.stream.sample_aspect_ratio">0</property>
  <property name="meta.media.0.codec.width">640</property>
  <property name="meta.media.0.codec.height">427</property>
  <property name="meta.media.0.codec.rotate">0</property>
  <property name="meta.media.0.codec.frame_rate">29.97</property>
  <property name="meta.media.0.codec.pix_fmt">yuv422p</property>
  <property name="meta.media.0.codec.sample_aspect_ratio">0.889583</property>
  <property name="meta.media.0.codec.colorspace">601</property>
  <property name="meta.media.0.codec.name">mpeg2video</property>
  <property name="meta.media.0.codec.long_name">MPEG-2 video</property>
  <property name="meta.media.0.codec.bit_rate">0</property>
  <property name="meta.media.1.stream.type">audio</property>
  <property name="meta.media.1.codec.sample_fmt">s16p</property>
  <property name="meta.media.1.codec.sample_rate">32000</property>
  <property name="meta.media.1.codec.channels">2</property>
  <property name="meta.media.1.codec.name">mp2</property>
  <property name="meta.media.1.codec.long_name">MP2 (MPEG audio layer 2)</property>
  <property name="meta.media.1.codec.bit_rate">128000</property>
  <property name="seekable">1</property>
  <property name="meta.media.sample_aspect_num">427</property>
  <property name="meta.media.sample_aspect_den">480</property>
  <property name="aspect_ratio">0.889583</property>
  <property name="audio_index">1</property>
  <property name="video_index">0</property>
  <property name="mute_on_pause">1</property>
  <property name="mlt_service">avformat</property>
  <property name="meta.media.2.stream.type">audio</property>
  <property name="meta.media.2.codec.sample_fmt">s16</property>
  <property name="meta.media.2.codec.sample_rate">32000</property>
  <property name="meta.media.2.codec.channels">2</property>
  <property name="meta.media.2.codec.name">pcm_s16le</property>
  <property name="meta.media.2.codec.long_name">PCM signed 16-bit little-endian</property>
  <property name="meta.media.2.codec.bit_rate">1024000</property>
  <property name="meta.attr.timecode.markup">00:03:31;26</property>
  <property name="kdenlive:folderid">-1</property>
  <property name="meta.media.frame_rate_num">30000</property>
  <property name="meta.media.frame_rate_den">1001</property>
  <property name="meta.media.colorspace">601</property>
  <property name="meta.media.color_trc">2</property>
  <property name="meta.media.width">640</property>
  <property name="meta.media.height">427</property>
  <property name="kdenlive:file_size">214680000</property>
  <property name="kdenlive:file_hash">b20644ec2fab9c79a21d78a259a98cac</property>
  <property name="kdenlive:proxy">/home/thoth/.cache/kdenlive/proxy/b20644ec2fab9c79a21d78a259a98cac.mpg</property>
  <property name="proxy_out">1788</property>
  <property name="kdenlive:originalurl">2001-07-07-beasty/beastiality-005.dv</property>
  <property name="global_feed">1</property>
  <property name="kdenlive:meta.media.nb_streams">3</property>
  <property name="kdenlive:meta.media.0.stream.type">video</property>
  <property name="kdenlive:meta.media.0.stream.frame_rate">29.97</property>
  <property name="kdenlive:meta.media.0.stream.sample_aspect_ratio">0.888889</property>
  <property name="kdenlive:meta.media.0.codec.width">720</property>
  <property name="kdenlive:meta.media.0.codec.height">480</property>
  <property name="kdenlive:meta.media.0.codec.rotate">0</property>
  <property name="kdenlive:meta.media.0.codec.frame_rate">29.97</property>
  <property name="kdenlive:meta.media.0.codec.pix_fmt">yuv411p</property>
  <property name="kdenlive:meta.media.0.codec.sample_aspect_ratio">0.888889</property>
  <property name="kdenlive:meta.media.0.codec.colorspace">601</property>
  <property name="kdenlive:meta.media.0.codec.name">dvvideo</property>
  <property name="kdenlive:meta.media.0.codec.long_name">DV (Digital Video)</property>
  <property name="kdenlive:meta.media.0.codec.bit_rate">25000000</property>
  <property name="kdenlive:meta.media.1.stream.type">audio</property>
  <property name="kdenlive:meta.media.1.codec.sample_fmt">s16</property>
  <property name="kdenlive:meta.media.1.codec.sample_rate">32000</property>
  <property name="kdenlive:meta.media.1.codec.channels">2</property>
  <property name="kdenlive:meta.media.1.codec.name">pcm_s16le</property>
  <property name="kdenlive:meta.media.1.codec.long_name">PCM signed 16-bit little-endian</property>
  <property name="kdenlive:meta.media.1.codec.bit_rate">1024000</property>
  <property name="kdenlive:meta.media.2.stream.type">audio</property>
  <property name="kdenlive:meta.media.2.codec.sample_fmt">s16</property>
  <property name="kdenlive:meta.media.2.codec.sample_rate">32000</property>
  <property name="kdenlive:meta.media.2.codec.channels">2</property>
  <property name="kdenlive:meta.media.2.codec.name">pcm_s16le</property>
  <property name="kdenlive:meta.media.2.codec.long_name">PCM signed 16-bit little-endian</property>
  <property name="kdenlive:meta.media.2.codec.bit_rate">1024000</property>
  <property name="kdenlive:meta.attr.timecode.markup">00:03:31;26</property>
  <property name="kdenlive:meta.media.sample_aspect_num">8</property>
  <property name="kdenlive:meta.media.sample_aspect_den">9</property>
  <property name="kdenlive:meta.media.frame_rate_num">30000</property>
  <property name="kdenlive:meta.media.frame_rate_den">1001</property>
  <property name="kdenlive:meta.media.colorspace">601</property>
  <property name="kdenlive:meta.media.color_trc">2</property>
  <property name="kdenlive:meta.media.width">720</property>
  <property name="kdenlive:meta.media.height">480</property>
  <property name="meta.media.top_field_first">0</property>
  <property name="meta.media.progressive">1</property>
 </producer>
 <producer id="7" title="Anonymous Submission" out="776" in="0">
  <property name="length">00:00:25;27</property>
  <property name="eof">pause</property>
  <property name="resource">/home/thoth/.cache/kdenlive/proxy/90c831858206b068606f47cae5e0bfe8.mpg</property>
  <property name="meta.media.nb_streams">2</property>
  <property name="meta.media.0.stream.type">video</property>
  <property name="meta.media.0.stream.frame_rate">29.97</property>
  <property name="meta.media.0.stream.sample_aspect_ratio">0</property>
  <property name="meta.media.0.codec.width">640</property>
  <property name="meta.media.0.codec.height">427</property>
  <property name="meta.media.0.codec.rotate">0</property>
  <property name="meta.media.0.codec.frame_rate">29.97</property>
  <property name="meta.media.0.codec.pix_fmt">yuv422p</property>
  <property name="meta.media.0.codec.sample_aspect_ratio">0.889583</property>
  <property name="meta.media.0.codec.colorspace">601</property>
  <property name="meta.media.0.codec.name">mpeg2video</property>
  <property name="meta.media.0.codec.long_name">MPEG-2 video</property>
  <property name="meta.media.0.codec.bit_rate">0</property>
  <property name="meta.media.1.stream.type">audio</property>
  <property name="meta.media.1.codec.sample_fmt">s16p</property>
  <property name="meta.media.1.codec.sample_rate">32000</property>
  <property name="meta.media.1.codec.channels">2</property>
  <property name="meta.media.1.codec.name">mp2</property>
  <property name="meta.media.1.codec.long_name">MP2 (MPEG audio layer 2)</property>
  <property name="meta.media.1.codec.bit_rate">128000</property>
  <property name="seekable">1</property>
  <property name="meta.media.sample_aspect_num">427</property>
  <property name="meta.media.sample_aspect_den">480</property>
  <property name="aspect_ratio">0.889583</property>
  <property name="audio_index">1</property>
  <property name="video_index">0</property>
  <property name="mute_on_pause">1</property>
  <property name="mlt_service">avformat</property>
  <property name="meta.media.2.stream.type">audio</property>
  <property name="meta.media.2.codec.sample_fmt">s16</property>
  <property name="meta.media.2.codec.sample_rate">32000</property>
  <property name="meta.media.2.codec.channels">2</property>
  <property name="meta.media.2.codec.name">pcm_s16le</property>
  <property name="meta.media.2.codec.long_name">PCM signed 16-bit little-endian</property>
  <property name="meta.media.2.codec.bit_rate">1024000</property>
  <property name="meta.attr.timecode.markup">00:04:31;17</property>
  <property name="kdenlive:folderid">-1</property>
  <property name="meta.media.frame_rate_num">30000</property>
  <property name="meta.media.frame_rate_den">1001</property>
  <property name="meta.media.colorspace">601</property>
  <property name="meta.media.color_trc">2</property>
  <property name="meta.media.width">640</property>
  <property name="meta.media.height">427</property>
  <property name="kdenlive:file_size">94680000</property>
  <property name="kdenlive:file_hash">90c831858206b068606f47cae5e0bfe8</property>
  <property name="kdenlive:proxy">/home/thoth/.cache/kdenlive/proxy/90c831858206b068606f47cae5e0bfe8.mpg</property>
  <property name="proxy_out">788</property>
  <property name="kdenlive:originalurl">2001-07-07-beasty/beastiality-006.dv</property>
  <property name="global_feed">1</property>
  <property name="kdenlive:meta.media.nb_streams">3</property>
  <property name="kdenlive:meta.media.0.stream.type">video</property>
  <property name="kdenlive:meta.media.0.stream.frame_rate">29.97</property>
  <property name="kdenlive:meta.media.0.stream.sample_aspect_ratio">0.888889</property>
  <property name="kdenlive:meta.media.0.codec.width">720</property>
  <property name="kdenlive:meta.media.0.codec.height">480</property>
  <property name="kdenlive:meta.media.0.codec.rotate">0</property>
  <property name="kdenlive:meta.media.0.codec.frame_rate">29.97</property>
  <property name="kdenlive:meta.media.0.codec.pix_fmt">yuv411p</property>
  <property name="kdenlive:meta.media.0.codec.sample_aspect_ratio">0.888889</property>
  <property name="kdenlive:meta.media.0.codec.colorspace">601</property>
  <property name="kdenlive:meta.media.0.codec.name">dvvideo</property>
  <property name="kdenlive:meta.media.0.codec.long_name">DV (Digital Video)</property>
  <property name="kdenlive:meta.media.0.codec.bit_rate">25000000</property>
  <property name="kdenlive:meta.media.1.stream.type">audio</property>
  <property name="kdenlive:meta.media.1.codec.sample_fmt">s16</property>
  <property name="kdenlive:meta.media.1.codec.sample_rate">32000</property>
  <property name="kdenlive:meta.media.1.codec.channels">2</property>
  <property name="kdenlive:meta.media.1.codec.name">pcm_s16le</property>
  <property name="kdenlive:meta.media.1.codec.long_name">PCM signed 16-bit little-endian</property>
  <property name="kdenlive:meta.media.1.codec.bit_rate">1024000</property>
  <property name="kdenlive:meta.media.2.stream.type">audio</property>
  <property name="kdenlive:meta.media.2.codec.sample_fmt">s16</property>
  <property name="kdenlive:meta.media.2.codec.sample_rate">32000</property>
  <property name="kdenlive:meta.media.2.codec.channels">2</property>
  <property name="kdenlive:meta.media.2.codec.name">pcm_s16le</property>
  <property name="kdenlive:meta.media.2.codec.long_name">PCM signed 16-bit little-endian</property>
  <property name="kdenlive:meta.media.2.codec.bit_rate">1024000</property>
  <property name="kdenlive:meta.attr.timecode.markup">00:04:31;17</property>
  <property name="kdenlive:meta.media.sample_aspect_num">8</property>
  <property name="kdenlive:meta.media.sample_aspect_den">9</property>
  <property name="kdenlive:meta.media.frame_rate_num">30000</property>
  <property name="kdenlive:meta.media.frame_rate_den">1001</property>
  <property name="kdenlive:meta.media.colorspace">601</property>
  <property name="kdenlive:meta.media.color_trc">2</property>
  <property name="kdenlive:meta.media.width">720</property>
  <property name="kdenlive:meta.media.height">480</property>
  <property name="meta.media.top_field_first">0</property>
  <property name="meta.media.progressive">1</property>
  <property name="kdenlive:zone_in">0</property>
  <property name="kdenlive:zone_out">246</property>
 </producer>
 <producer id="9" title="Anonymous Submission" out="183" in="0">
  <property name="length">00:00:06;04</property>
  <property name="eof">pause</property>
  <property name="resource">/home/thoth/.cache/kdenlive/proxy/dc431714368ce9d4bb207aefae7fbd97.mpg</property>
  <property name="meta.media.nb_streams">2</property>
  <property name="meta.media.0.stream.type">video</property>
  <property name="meta.media.0.stream.frame_rate">29.97</property>
  <property name="meta.media.0.stream.sample_aspect_ratio">0</property>
  <property name="meta.media.0.codec.width">640</property>
  <property name="meta.media.0.codec.height">427</property>
  <property name="meta.media.0.codec.rotate">0</property>
  <property name="meta.media.0.codec.frame_rate">29.97</property>
  <property name="meta.media.0.codec.pix_fmt">yuv422p</property>
  <property name="meta.media.0.codec.sample_aspect_ratio">0.889583</property>
  <property name="meta.media.0.codec.colorspace">601</property>
  <property name="meta.media.0.codec.name">mpeg2video</property>
  <property name="meta.media.0.codec.long_name">MPEG-2 video</property>
  <property name="meta.media.0.codec.bit_rate">0</property>
  <property name="meta.media.1.stream.type">audio</property>
  <property name="meta.media.1.codec.sample_fmt">s16p</property>
  <property name="meta.media.1.codec.sample_rate">32000</property>
  <property name="meta.media.1.codec.channels">2</property>
  <property name="meta.media.1.codec.name">mp2</property>
  <property name="meta.media.1.codec.long_name">MP2 (MPEG audio layer 2)</property>
  <property name="meta.media.1.codec.bit_rate">128000</property>
  <property name="seekable">1</property>
  <property name="meta.media.sample_aspect_num">427</property>
  <property name="meta.media.sample_aspect_den">480</property>
  <property name="aspect_ratio">0.889583</property>
  <property name="audio_index">1</property>
  <property name="video_index">0</property>
  <property name="mute_on_pause">1</property>
  <property name="mlt_service">avformat</property>
  <property name="meta.media.2.stream.type">audio</property>
  <property name="meta.media.2.codec.sample_fmt">s16</property>
  <property name="meta.media.2.codec.sample_rate">32000</property>
  <property name="meta.media.2.codec.channels">2</property>
  <property name="meta.media.2.codec.name">pcm_s16le</property>
  <property name="meta.media.2.codec.long_name">PCM signed 16-bit little-endian</property>
  <property name="meta.media.2.codec.bit_rate">1024000</property>
  <property name="meta.attr.timecode.markup">00:05:32;07</property>
  <property name="kdenlive:folderid">-1</property>
  <property name="meta.media.frame_rate_num">30000</property>
  <property name="meta.media.frame_rate_den">1001</property>
  <property name="meta.media.colorspace">601</property>
  <property name="meta.media.color_trc">2</property>
  <property name="meta.media.width">640</property>
  <property name="meta.media.height">427</property>
  <property name="kdenlive:file_size">22080000</property>
  <property name="kdenlive:file_hash">dc431714368ce9d4bb207aefae7fbd97</property>
  <property name="kdenlive:proxy">/home/thoth/.cache/kdenlive/proxy/dc431714368ce9d4bb207aefae7fbd97.mpg</property>
  <property name="proxy_out">183</property>
  <property name="kdenlive:originalurl">2001-07-07-beasty/beastiality-008.dv</property>
  <property name="global_feed">1</property>
  <property name="kdenlive:meta.media.nb_streams">3</property>
  <property name="kdenlive:meta.media.0.stream.type">video</property>
  <property name="kdenlive:meta.media.0.stream.frame_rate">29.97</property>
  <property name="kdenlive:meta.media.0.stream.sample_aspect_ratio">0.888889</property>
  <property name="kdenlive:meta.media.0.codec.width">720</property>
  <property name="kdenlive:meta.media.0.codec.height">480</property>
  <property name="kdenlive:meta.media.0.codec.rotate">0</property>
  <property name="kdenlive:meta.media.0.codec.frame_rate">29.97</property>
  <property name="kdenlive:meta.media.0.codec.pix_fmt">yuv411p</property>
  <property name="kdenlive:meta.media.0.codec.sample_aspect_ratio">0.888889</property>
  <property name="kdenlive:meta.media.0.codec.colorspace">601</property>
  <property name="kdenlive:meta.media.0.codec.name">dvvideo</property>
  <property name="kdenlive:meta.media.0.codec.long_name">DV (Digital Video)</property>
  <property name="kdenlive:meta.media.0.codec.bit_rate">25000000</property>
  <property name="kdenlive:meta.media.1.stream.type">audio</property>
  <property name="kdenlive:meta.media.1.codec.sample_fmt">s16</property>
  <property name="kdenlive:meta.media.1.codec.sample_rate">32000</property>
  <property name="kdenlive:meta.media.1.codec.channels">2</property>
  <property name="kdenlive:meta.media.1.codec.name">pcm_s16le</property>
  <property name="kdenlive:meta.media.1.codec.long_name">PCM signed 16-bit little-endian</property>
  <property name="kdenlive:meta.media.1.codec.bit_rate">1024000</property>
  <property name="kdenlive:meta.media.2.stream.type">audio</property>
  <property name="kdenlive:meta.media.2.codec.sample_fmt">s16</property>
  <property name="kdenlive:meta.media.2.codec.sample_rate">32000</property>
  <property name="kdenlive:meta.media.2.codec.channels">2</property>
  <property name="kdenlive:meta.media.2.codec.name">pcm_s16le</property>
  <property name="kdenlive:meta.media.2.codec.long_name">PCM signed 16-bit little-endian</property>
  <property name="kdenlive:meta.media.2.codec.bit_rate">1024000</property>
  <property name="kdenlive:meta.attr.timecode.markup">00:05:32;07</property>
  <property name="kdenlive:meta.media.sample_aspect_num">8</property>
  <property name="kdenlive:meta.media.sample_aspect_den">9</property>
  <property name="kdenlive:meta.media.frame_rate_num">30000</property>
  <property name="kdenlive:meta.media.frame_rate_den">1001</property>
  <property name="kdenlive:meta.media.colorspace">601</property>
  <property name="kdenlive:meta.media.color_trc">2</property>
  <property name="kdenlive:meta.media.width">720</property>
  <property name="kdenlive:meta.media.height">480</property>
  <property name="meta.media.top_field_first">0</property>
  <property name="meta.media.progressive">1</property>
 </producer>
 <producer id="8" title="Anonymous Submission" out="1016" in="0">
  <property name="length">00:00:33;27</property>
  <property name="eof">pause</property>
  <property name="resource">/home/thoth/.cache/kdenlive/proxy/3dd7d58a974772cf3300b38efbf1faed.mpg</property>
  <property name="meta.media.nb_streams">2</property>
  <property name="meta.media.0.stream.type">video</property>
  <property name="meta.media.0.stream.frame_rate">29.97</property>
  <property name="meta.media.0.stream.sample_aspect_ratio">0</property>
  <property name="meta.media.0.codec.width">640</property>
  <property name="meta.media.0.codec.height">427</property>
  <property name="meta.media.0.codec.rotate">0</property>
  <property name="meta.media.0.codec.frame_rate">29.97</property>
  <property name="meta.media.0.codec.pix_fmt">yuv422p</property>
  <property name="meta.media.0.codec.sample_aspect_ratio">0.889583</property>
  <property name="meta.media.0.codec.colorspace">601</property>
  <property name="meta.media.0.codec.name">mpeg2video</property>
  <property name="meta.media.0.codec.long_name">MPEG-2 video</property>
  <property name="meta.media.0.codec.bit_rate">0</property>
  <property name="meta.media.1.stream.type">audio</property>
  <property name="meta.media.1.codec.sample_fmt">s16p</property>
  <property name="meta.media.1.codec.sample_rate">32000</property>
  <property name="meta.media.1.codec.channels">2</property>
  <property name="meta.media.1.codec.name">mp2</property>
  <property name="meta.media.1.codec.long_name">MP2 (MPEG audio layer 2)</property>
  <property name="meta.media.1.codec.bit_rate">128000</property>
  <property name="seekable">1</property>
  <property name="meta.media.sample_aspect_num">427</property>
  <property name="meta.media.sample_aspect_den">480</property>
  <property name="aspect_ratio">0.889583</property>
  <property name="audio_index">1</property>
  <property name="video_index">0</property>
  <property name="mute_on_pause">1</property>
  <property name="mlt_service">avformat</property>
  <property name="meta.media.2.stream.type">audio</property>
  <property name="meta.media.2.codec.sample_fmt">s16</property>
  <property name="meta.media.2.codec.sample_rate">32000</property>
  <property name="meta.media.2.codec.channels">2</property>
  <property name="meta.media.2.codec.name">pcm_s16le</property>
  <property name="meta.media.2.codec.long_name">PCM signed 16-bit little-endian</property>
  <property name="meta.media.2.codec.bit_rate">1024000</property>
  <property name="meta.attr.timecode.markup">00:04:57;26</property>
  <property name="kdenlive:folderid">-1</property>
  <property name="meta.media.frame_rate_num">30000</property>
  <property name="meta.media.frame_rate_den">1001</property>
  <property name="meta.media.colorspace">601</property>
  <property name="meta.media.color_trc">2</property>
  <property name="meta.media.width">640</property>
  <property name="meta.media.height">427</property>
  <property name="kdenlive:file_size">123480000</property>
  <property name="kdenlive:file_hash">3dd7d58a974772cf3300b38efbf1faed</property>
  <property name="kdenlive:proxy">/home/thoth/.cache/kdenlive/proxy/3dd7d58a974772cf3300b38efbf1faed.mpg</property>
  <property name="proxy_out">1028</property>
  <property name="kdenlive:originalurl">2001-07-07-beasty/beastiality-007.dv</property>
  <property name="global_feed">1</property>
  <property name="kdenlive:meta.media.nb_streams">3</property>
  <property name="kdenlive:meta.media.0.stream.type">video</property>
  <property name="kdenlive:meta.media.0.stream.frame_rate">29.97</property>
  <property name="kdenlive:meta.media.0.stream.sample_aspect_ratio">0.888889</property>
  <property name="kdenlive:meta.media.0.codec.width">720</property>
  <property name="kdenlive:meta.media.0.codec.height">480</property>
  <property name="kdenlive:meta.media.0.codec.rotate">0</property>
  <property name="kdenlive:meta.media.0.codec.frame_rate">29.97</property>
  <property name="kdenlive:meta.media.0.codec.pix_fmt">yuv411p</property>
  <property name="kdenlive:meta.media.0.codec.sample_aspect_ratio">0.888889</property>
  <property name="kdenlive:meta.media.0.codec.colorspace">601</property>
  <property name="kdenlive:meta.media.0.codec.name">dvvideo</property>
  <property name="kdenlive:meta.media.0.codec.long_name">DV (Digital Video)</property>
  <property name="kdenlive:meta.media.0.codec.bit_rate">25000000</property>
  <property name="kdenlive:meta.media.1.stream.type">audio</property>
  <property name="kdenlive:meta.media.1.codec.sample_fmt">s16</property>
  <property name="kdenlive:meta.media.1.codec.sample_rate">32000</property>
  <property name="kdenlive:meta.media.1.codec.channels">2</property>
  <property name="kdenlive:meta.media.1.codec.name">pcm_s16le</property>
  <property name="kdenlive:meta.media.1.codec.long_name">PCM signed 16-bit little-endian</property>
  <property name="kdenlive:meta.media.1.codec.bit_rate">1024000</property>
  <property name="kdenlive:meta.media.2.stream.type">audio</property>
  <property name="kdenlive:meta.media.2.codec.sample_fmt">s16</property>
  <property name="kdenlive:meta.media.2.codec.sample_rate">32000</property>
  <property name="kdenlive:meta.media.2.codec.channels">2</property>
  <property name="kdenlive:meta.media.2.codec.name">pcm_s16le</property>
  <property name="kdenlive:meta.media.2.codec.long_name">PCM signed 16-bit little-endian</property>
  <property name="kdenlive:meta.media.2.codec.bit_rate">1024000</property>
  <property name="kdenlive:meta.attr.timecode.markup">00:04:57;26</property>
  <property name="kdenlive:meta.media.sample_aspect_num">8</property>
  <property name="kdenlive:meta.media.sample_aspect_den">9</property>
  <property name="kdenlive:meta.media.frame_rate_num">30000</property>
  <property name="kdenlive:meta.media.frame_rate_den">1001</property>
  <property name="kdenlive:meta.media.colorspace">601</property>
  <property name="kdenlive:meta.media.color_trc">2</property>
  <property name="kdenlive:meta.media.width">720</property>
  <property name="kdenlive:meta.media.height">480</property>
  <property name="meta.media.top_field_first">0</property>
  <property name="meta.media.progressive">1</property>
 </producer>
 <producer id="11" title="Anonymous Submission" out="362" in="0">
  <property name="length">00:00:12;03</property>
  <property name="eof">pause</property>
  <property name="resource">/home/thoth/.cache/kdenlive/proxy/962b4da4c2b97c59949ed6fbe6c22c39.mpg</property>
  <property name="meta.media.nb_streams">2</property>
  <property name="meta.media.0.stream.type">video</property>
  <property name="meta.media.0.stream.frame_rate">29.97</property>
  <property name="meta.media.0.stream.sample_aspect_ratio">0</property>
  <property name="meta.media.0.codec.width">640</property>
  <property name="meta.media.0.codec.height">427</property>
  <property name="meta.media.0.codec.rotate">0</property>
  <property name="meta.media.0.codec.frame_rate">29.97</property>
  <property name="meta.media.0.codec.pix_fmt">yuv422p</property>
  <property name="meta.media.0.codec.sample_aspect_ratio">0.889583</property>
  <property name="meta.media.0.codec.colorspace">601</property>
  <property name="meta.media.0.codec.name">mpeg2video</property>
  <property name="meta.media.0.codec.long_name">MPEG-2 video</property>
  <property name="meta.media.0.codec.bit_rate">0</property>
  <property name="meta.media.1.stream.type">audio</property>
  <property name="meta.media.1.codec.sample_fmt">s16p</property>
  <property name="meta.media.1.codec.sample_rate">32000</property>
  <property name="meta.media.1.codec.channels">2</property>
  <property name="meta.media.1.codec.name">mp2</property>
  <property name="meta.media.1.codec.long_name">MP2 (MPEG audio layer 2)</property>
  <property name="meta.media.1.codec.bit_rate">128000</property>
  <property name="seekable">1</property>
  <property name="meta.media.sample_aspect_num">427</property>
  <property name="meta.media.sample_aspect_den">480</property>
  <property name="aspect_ratio">0.889583</property>
  <property name="audio_index">1</property>
  <property name="video_index">0</property>
  <property name="mute_on_pause">1</property>
  <property name="mlt_service">avformat</property>
  <property name="meta.media.2.stream.type">audio</property>
  <property name="meta.media.2.codec.sample_fmt">s16</property>
  <property name="meta.media.2.codec.sample_rate">32000</property>
  <property name="meta.media.2.codec.channels">2</property>
  <property name="meta.media.2.codec.name">pcm_s16le</property>
  <property name="meta.media.2.codec.long_name">PCM signed 16-bit little-endian</property>
  <property name="meta.media.2.codec.bit_rate">1024000</property>
  <property name="meta.attr.timecode.markup">00:06:33;28</property>
  <property name="kdenlive:folderid">-1</property>
  <property name="meta.media.frame_rate_num">30000</property>
  <property name="meta.media.frame_rate_den">1001</property>
  <property name="meta.media.colorspace">601</property>
  <property name="meta.media.color_trc">2</property>
  <property name="meta.media.width">640</property>
  <property name="meta.media.height">427</property>
  <property name="kdenlive:file_size">43560000</property>
  <property name="kdenlive:file_hash">962b4da4c2b97c59949ed6fbe6c22c39</property>
  <property name="kdenlive:proxy">/home/thoth/.cache/kdenlive/proxy/962b4da4c2b97c59949ed6fbe6c22c39.mpg</property>
  <property name="proxy_out">362</property>
  <property name="kdenlive:originalurl">2001-07-07-beasty/beastiality-010.dv</property>
  <property name="global_feed">1</property>
  <property name="kdenlive:meta.media.nb_streams">3</property>
  <property name="kdenlive:meta.media.0.stream.type">video</property>
  <property name="kdenlive:meta.media.0.stream.frame_rate">29.97</property>
  <property name="kdenlive:meta.media.0.stream.sample_aspect_ratio">0.888889</property>
  <property name="kdenlive:meta.media.0.codec.width">720</property>
  <property name="kdenlive:meta.media.0.codec.height">480</property>
  <property name="kdenlive:meta.media.0.codec.rotate">0</property>
  <property name="kdenlive:meta.media.0.codec.frame_rate">29.97</property>
  <property name="kdenlive:meta.media.0.codec.pix_fmt">yuv411p</property>
  <property name="kdenlive:meta.media.0.codec.sample_aspect_ratio">0.888889</property>
  <property name="kdenlive:meta.media.0.codec.colorspace">601</property>
  <property name="kdenlive:meta.media.0.codec.name">dvvideo</property>
  <property name="kdenlive:meta.media.0.codec.long_name">DV (Digital Video)</property>
  <property name="kdenlive:meta.media.0.codec.bit_rate">25000000</property>
  <property name="kdenlive:meta.media.1.stream.type">audio</property>
  <property name="kdenlive:meta.media.1.codec.sample_fmt">s16</property>
  <property name="kdenlive:meta.media.1.codec.sample_rate">32000</property>
  <property name="kdenlive:meta.media.1.codec.channels">2</property>
  <property name="kdenlive:meta.media.1.codec.name">pcm_s16le</property>
  <property name="kdenlive:meta.media.1.codec.long_name">PCM signed 16-bit little-endian</property>
  <property name="kdenlive:meta.media.1.codec.bit_rate">1024000</property>
  <property name="kdenlive:meta.media.2.stream.type">audio</property>
  <property name="kdenlive:meta.media.2.codec.sample_fmt">s16</property>
  <property name="kdenlive:meta.media.2.codec.sample_rate">32000</property>
  <property name="kdenlive:meta.media.2.codec.channels">2</property>
  <property name="kdenlive:meta.media.2.codec.name">pcm_s16le</property>
  <property name="kdenlive:meta.media.2.codec.long_name">PCM signed 16-bit little-endian</property>
  <property name="kdenlive:meta.media.2.codec.bit_rate">1024000</property>
  <property name="kdenlive:meta.attr.timecode.markup">00:06:33;28</property>
  <property name="kdenlive:meta.media.sample_aspect_num">8</property>
  <property name="kdenlive:meta.media.sample_aspect_den">9</property>
  <property name="kdenlive:meta.media.frame_rate_num">30000</property>
  <property name="kdenlive:meta.media.frame_rate_den">1001</property>
  <property name="kdenlive:meta.media.colorspace">601</property>
  <property name="kdenlive:meta.media.color_trc">2</property>
  <property name="kdenlive:meta.media.width">720</property>
  <property name="kdenlive:meta.media.height">480</property>
  <property name="meta.media.top_field_first">0</property>
  <property name="meta.media.progressive">1</property>
 </producer>
 <producer id="12" title="Anonymous Submission" out="143" in="0">
  <property name="length">00:00:04;24</property>
  <property name="eof">pause</property>
  <property name="resource">/home/thoth/.cache/kdenlive/proxy/e0a101e697e80f8899cbb41906485a65.mpg</property>
  <property name="meta.media.nb_streams">2</property>
  <property name="meta.media.0.stream.type">video</property>
  <property name="meta.media.0.stream.frame_rate">29.97</property>
  <property name="meta.media.0.stream.sample_aspect_ratio">0</property>
  <property name="meta.media.0.codec.width">640</property>
  <property name="meta.media.0.codec.height">427</property>
  <property name="meta.media.0.codec.rotate">0</property>
  <property name="meta.media.0.codec.frame_rate">29.97</property>
  <property name="meta.media.0.codec.pix_fmt">yuv422p</property>
  <property name="meta.media.0.codec.sample_aspect_ratio">0.889583</property>
  <property name="meta.media.0.codec.colorspace">601</property>
  <property name="meta.media.0.codec.name">mpeg2video</property>
  <property name="meta.media.0.codec.long_name">MPEG-2 video</property>
  <property name="meta.media.0.codec.bit_rate">0</property>
  <property name="meta.media.1.stream.type">audio</property>
  <property name="meta.media.1.codec.sample_fmt">s16p</property>
  <property name="meta.media.1.codec.sample_rate">32000</property>
  <property name="meta.media.1.codec.channels">2</property>
  <property name="meta.media.1.codec.name">mp2</property>
  <property name="meta.media.1.codec.long_name">MP2 (MPEG audio layer 2)</property>
  <property name="meta.media.1.codec.bit_rate">128000</property>
  <property name="seekable">1</property>
  <property name="meta.media.sample_aspect_num">427</property>
  <property name="meta.media.sample_aspect_den">480</property>
  <property name="aspect_ratio">0.889583</property>
  <property name="audio_index">1</property>
  <property name="video_index">0</property>
  <property name="mute_on_pause">1</property>
  <property name="mlt_service">avformat</property>
  <property name="meta.media.2.stream.type">audio</property>
  <property name="meta.media.2.codec.sample_fmt">s16</property>
  <property name="meta.media.2.codec.sample_rate">32000</property>
  <property name="meta.media.2.codec.channels">2</property>
  <property name="meta.media.2.codec.name">pcm_s16le</property>
  <property name="meta.media.2.codec.long_name">PCM signed 16-bit little-endian</property>
  <property name="meta.media.2.codec.bit_rate">1024000</property>
  <property name="meta.attr.timecode.markup">00:06:46;01</property>
  <property name="kdenlive:folderid">-1</property>
  <property name="meta.media.frame_rate_num">30000</property>
  <property name="meta.media.frame_rate_den">1001</property>
  <property name="meta.media.colorspace">601</property>
  <property name="meta.media.color_trc">2</property>
  <property name="meta.media.width">640</property>
  <property name="meta.media.height">427</property>
  <property name="kdenlive:file_size">17280000</property>
  <property name="kdenlive:file_hash">e0a101e697e80f8899cbb41906485a65</property>
  <property name="kdenlive:proxy">/home/thoth/.cache/kdenlive/proxy/e0a101e697e80f8899cbb41906485a65.mpg</property>
  <property name="proxy_out">143</property>
  <property name="kdenlive:originalurl">2001-07-07-beasty/beastiality-011.dv</property>
  <property name="global_feed">1</property>
  <property name="kdenlive:meta.media.nb_streams">3</property>
  <property name="kdenlive:meta.media.0.stream.type">video</property>
  <property name="kdenlive:meta.media.0.stream.frame_rate">29.97</property>
  <property name="kdenlive:meta.media.0.stream.sample_aspect_ratio">0.888889</property>
  <property name="kdenlive:meta.media.0.codec.width">720</property>
  <property name="kdenlive:meta.media.0.codec.height">480</property>
  <property name="kdenlive:meta.media.0.codec.rotate">0</property>
  <property name="kdenlive:meta.media.0.codec.frame_rate">29.97</property>
  <property name="kdenlive:meta.media.0.codec.pix_fmt">yuv411p</property>
  <property name="kdenlive:meta.media.0.codec.sample_aspect_ratio">0.888889</property>
  <property name="kdenlive:meta.media.0.codec.colorspace">601</property>
  <property name="kdenlive:meta.media.0.codec.name">dvvideo</property>
  <property name="kdenlive:meta.media.0.codec.long_name">DV (Digital Video)</property>
  <property name="kdenlive:meta.media.0.codec.bit_rate">25000000</property>
  <property name="kdenlive:meta.media.1.stream.type">audio</property>
  <property name="kdenlive:meta.media.1.codec.sample_fmt">s16</property>
  <property name="kdenlive:meta.media.1.codec.sample_rate">32000</property>
  <property name="kdenlive:meta.media.1.codec.channels">2</property>
  <property name="kdenlive:meta.media.1.codec.name">pcm_s16le</property>
  <property name="kdenlive:meta.media.1.codec.long_name">PCM signed 16-bit little-endian</property>
  <property name="kdenlive:meta.media.1.codec.bit_rate">1024000</property>
  <property name="kdenlive:meta.media.2.stream.type">audio</property>
  <property name="kdenlive:meta.media.2.codec.sample_fmt">s16</property>
  <property name="kdenlive:meta.media.2.codec.sample_rate">32000</property>
  <property name="kdenlive:meta.media.2.codec.channels">2</property>
  <property name="kdenlive:meta.media.2.codec.name">pcm_s16le</property>
  <property name="kdenlive:meta.media.2.codec.long_name">PCM signed 16-bit little-endian</property>
  <property name="kdenlive:meta.media.2.codec.bit_rate">1024000</property>
  <property name="kdenlive:meta.attr.timecode.markup">00:06:46;01</property>
  <property name="kdenlive:meta.media.sample_aspect_num">8</property>
  <property name="kdenlive:meta.media.sample_aspect_den">9</property>
  <property name="kdenlive:meta.media.frame_rate_num">30000</property>
  <property name="kdenlive:meta.media.frame_rate_den">1001</property>
  <property name="kdenlive:meta.media.colorspace">601</property>
  <property name="kdenlive:meta.media.color_trc">2</property>
  <property name="kdenlive:meta.media.width">720</property>
  <property name="kdenlive:meta.media.height">480</property>
  <property name="meta.media.top_field_first">0</property>
  <property name="meta.media.progressive">1</property>
 </producer>
 <producer id="10" title="Anonymous Submission" out="1640" in="0">
  <property name="length">00:00:54;21</property>
  <property name="eof">pause</property>
  <property name="resource">/home/thoth/.cache/kdenlive/proxy/737c5d317941e9f9a5bdc167919dc994.mpg</property>
  <property name="meta.media.nb_streams">2</property>
  <property name="meta.media.0.stream.type">video</property>
  <property name="meta.media.0.stream.frame_rate">29.97</property>
  <property name="meta.media.0.stream.sample_aspect_ratio">0</property>
  <property name="meta.media.0.codec.width">640</property>
  <property name="meta.media.0.codec.height">427</property>
  <property name="meta.media.0.codec.rotate">0</property>
  <property name="meta.media.0.codec.frame_rate">29.97</property>
  <property name="meta.media.0.codec.pix_fmt">yuv422p</property>
  <property name="meta.media.0.codec.sample_aspect_ratio">0.889583</property>
  <property name="meta.media.0.codec.colorspace">601</property>
  <property name="meta.media.0.codec.name">mpeg2video</property>
  <property name="meta.media.0.codec.long_name">MPEG-2 video</property>
  <property name="meta.media.0.codec.bit_rate">0</property>
  <property name="meta.media.1.stream.type">audio</property>
  <property name="meta.media.1.codec.sample_fmt">s16p</property>
  <property name="meta.media.1.codec.sample_rate">32000</property>
  <property name="meta.media.1.codec.channels">2</property>
  <property name="meta.media.1.codec.name">mp2</property>
  <property name="meta.media.1.codec.long_name">MP2 (MPEG audio layer 2)</property>
  <property name="meta.media.1.codec.bit_rate">128000</property>
  <property name="seekable">1</property>
  <property name="meta.media.sample_aspect_num">427</property>
  <property name="meta.media.sample_aspect_den">480</property>
  <property name="aspect_ratio">0.889583</property>
  <property name="audio_index">1</property>
  <property name="video_index">0</property>
  <property name="mute_on_pause">1</property>
  <property name="mlt_service">avformat</property>
  <property name="meta.media.2.stream.type">audio</property>
  <property name="meta.media.2.codec.sample_fmt">s16</property>
  <property name="meta.media.2.codec.sample_rate">32000</property>
  <property name="meta.media.2.codec.channels">2</property>
  <property name="meta.media.2.codec.name">pcm_s16le</property>
  <property name="meta.media.2.codec.long_name">PCM signed 16-bit little-endian</property>
  <property name="meta.media.2.codec.bit_rate">1024000</property>
  <property name="meta.attr.timecode.markup">00:05:38;11</property>
  <property name="kdenlive:folderid">-1</property>
  <property name="meta.media.frame_rate_num">30000</property>
  <property name="meta.media.frame_rate_den">1001</property>
  <property name="meta.media.colorspace">601</property>
  <property name="meta.media.color_trc">2</property>
  <property name="meta.media.width">640</property>
  <property name="meta.media.height">427</property>
  <property name="kdenlive:file_size">199800000</property>
  <property name="kdenlive:file_hash">737c5d317941e9f9a5bdc167919dc994</property>
  <property name="kdenlive:proxy">/home/thoth/.cache/kdenlive/proxy/737c5d317941e9f9a5bdc167919dc994.mpg</property>
  <property name="proxy_out">1664</property>
  <property name="kdenlive:originalurl">2001-07-07-beasty/beastiality-009.dv</property>
  <property name="global_feed">1</property>
  <property name="kdenlive:meta.media.nb_streams">3</property>
  <property name="kdenlive:meta.media.0.stream.type">video</property>
  <property name="kdenlive:meta.media.0.stream.frame_rate">29.97</property>
  <property name="kdenlive:meta.media.0.stream.sample_aspect_ratio">0.888889</property>
  <property name="kdenlive:meta.media.0.codec.width">720</property>
  <property name="kdenlive:meta.media.0.codec.height">480</property>
  <property name="kdenlive:meta.media.0.codec.rotate">0</property>
  <property name="kdenlive:meta.media.0.codec.frame_rate">29.97</property>
  <property name="kdenlive:meta.media.0.codec.pix_fmt">yuv411p</property>
  <property name="kdenlive:meta.media.0.codec.sample_aspect_ratio">0.888889</property>
  <property name="kdenlive:meta.media.0.codec.colorspace">601</property>
  <property name="kdenlive:meta.media.0.codec.name">dvvideo</property>
  <property name="kdenlive:meta.media.0.codec.long_name">DV (Digital Video)</property>
  <property name="kdenlive:meta.media.0.codec.bit_rate">25000000</property>
  <property name="kdenlive:meta.media.1.stream.type">audio</property>
  <property name="kdenlive:meta.media.1.codec.sample_fmt">s16</property>
  <property name="kdenlive:meta.media.1.codec.sample_rate">32000</property>
  <property name="kdenlive:meta.media.1.codec.channels">2</property>
  <property name="kdenlive:meta.media.1.codec.name">pcm_s16le</property>
  <property name="kdenlive:meta.media.1.codec.long_name">PCM signed 16-bit little-endian</property>
  <property name="kdenlive:meta.media.1.codec.bit_rate">1024000</property>
  <property name="kdenlive:meta.media.2.stream.type">audio</property>
  <property name="kdenlive:meta.media.2.codec.sample_fmt">s16</property>
  <property name="kdenlive:meta.media.2.codec.sample_rate">32000</property>
  <property name="kdenlive:meta.media.2.codec.channels">2</property>
  <property name="kdenlive:meta.media.2.codec.name">pcm_s16le</property>
  <property name="kdenlive:meta.media.2.codec.long_name">PCM signed 16-bit little-endian</property>
  <property name="kdenlive:meta.media.2.codec.bit_rate">1024000</property>
  <property name="kdenlive:meta.attr.timecode.markup">00:05:38;11</property>
  <property name="kdenlive:meta.media.sample_aspect_num">8</property>
  <property name="kdenlive:meta.media.sample_aspect_den">9</property>
  <property name="kdenlive:meta.media.frame_rate_num">30000</property>
  <property name="kdenlive:meta.media.frame_rate_den">1001</property>
  <property name="kdenlive:meta.media.colorspace">601</property>
  <property name="kdenlive:meta.media.color_trc">2</property>
  <property name="kdenlive:meta.media.width">720</property>
  <property name="kdenlive:meta.media.height">480</property>
  <property name="meta.media.top_field_first">0</property>
  <property name="meta.media.progressive">1</property>
 </producer>
 <producer id="13" title="Anonymous Submission" out="317" in="0">
  <property name="length">00:00:10;18</property>
  <property name="eof">pause</property>
  <property name="resource">/home/thoth/.cache/kdenlive/proxy/4a30ea24dbf721117223d9eb4e810d75.mpg</property>
  <property name="meta.media.nb_streams">2</property>
  <property name="meta.media.0.stream.type">video</property>
  <property name="meta.media.0.stream.frame_rate">29.97</property>
  <property name="meta.media.0.stream.sample_aspect_ratio">0</property>
  <property name="meta.media.0.codec.width">640</property>
  <property name="meta.media.0.codec.height">427</property>
  <property name="meta.media.0.codec.rotate">0</property>
  <property name="meta.media.0.codec.frame_rate">29.97</property>
  <property name="meta.media.0.codec.pix_fmt">yuv422p</property>
  <property name="meta.media.0.codec.sample_aspect_ratio">0.889583</property>
  <property name="meta.media.0.codec.colorspace">601</property>
  <property name="meta.media.0.codec.name">mpeg2video</property>
  <property name="meta.media.0.codec.long_name">MPEG-2 video</property>
  <property name="meta.media.0.codec.bit_rate">0</property>
  <property name="meta.media.1.stream.type">audio</property>
  <property name="meta.media.1.codec.sample_fmt">s16p</property>
  <property name="meta.media.1.codec.sample_rate">32000</property>
  <property name="meta.media.1.codec.channels">2</property>
  <property name="meta.media.1.codec.name">mp2</property>
  <property name="meta.media.1.codec.long_name">MP2 (MPEG audio layer 2)</property>
  <property name="meta.media.1.codec.bit_rate">128000</property>
  <property name="seekable">1</property>
  <property name="meta.media.sample_aspect_num">427</property>
  <property name="meta.media.sample_aspect_den">480</property>
  <property name="aspect_ratio">0.889583</property>
  <property name="audio_index">1</property>
  <property name="video_index">0</property>
  <property name="mute_on_pause">1</property>
  <property name="mlt_service">avformat</property>
  <property name="meta.media.2.stream.type">audio</property>
  <property name="meta.media.2.codec.sample_fmt">s16</property>
  <property name="meta.media.2.codec.sample_rate">32000</property>
  <property name="meta.media.2.codec.channels">2</property>
  <property name="meta.media.2.codec.name">pcm_s16le</property>
  <property name="meta.media.2.codec.long_name">PCM signed 16-bit little-endian</property>
  <property name="meta.media.2.codec.bit_rate">1024000</property>
  <property name="meta.attr.timecode.markup">00:06:50;25</property>
  <property name="kdenlive:folderid">-1</property>
  <property name="meta.media.frame_rate_num">30000</property>
  <property name="meta.media.frame_rate_den">1001</property>
  <property name="meta.media.colorspace">601</property>
  <property name="meta.media.color_trc">2</property>
  <property name="meta.media.width">640</property>
  <property name="meta.media.height">427</property>
  <property name="kdenlive:file_size">38160000</property>
  <property name="kdenlive:file_hash">4a30ea24dbf721117223d9eb4e810d75</property>
  <property name="kdenlive:proxy">/home/thoth/.cache/kdenlive/proxy/4a30ea24dbf721117223d9eb4e810d75.mpg</property>
  <property name="proxy_out">317</property>
  <property name="kdenlive:originalurl">2001-07-07-beasty/beastiality-012.dv</property>
  <property name="global_feed">1</property>
  <property name="kdenlive:meta.media.nb_streams">3</property>
  <property name="kdenlive:meta.media.0.stream.type">video</property>
  <property name="kdenlive:meta.media.0.stream.frame_rate">29.97</property>
  <property name="kdenlive:meta.media.0.stream.sample_aspect_ratio">0.888889</property>
  <property name="kdenlive:meta.media.0.codec.width">720</property>
  <property name="kdenlive:meta.media.0.codec.height">480</property>
  <property name="kdenlive:meta.media.0.codec.rotate">0</property>
  <property name="kdenlive:meta.media.0.codec.frame_rate">29.97</property>
  <property name="kdenlive:meta.media.0.codec.pix_fmt">yuv411p</property>
  <property name="kdenlive:meta.media.0.codec.sample_aspect_ratio">0.888889</property>
  <property name="kdenlive:meta.media.0.codec.colorspace">601</property>
  <property name="kdenlive:meta.media.0.codec.name">dvvideo</property>
  <property name="kdenlive:meta.media.0.codec.long_name">DV (Digital Video)</property>
  <property name="kdenlive:meta.media.0.codec.bit_rate">25000000</property>
  <property name="kdenlive:meta.media.1.stream.type">audio</property>
  <property name="kdenlive:meta.media.1.codec.sample_fmt">s16</property>
  <property name="kdenlive:meta.media.1.codec.sample_rate">32000</property>
  <property name="kdenlive:meta.media.1.codec.channels">2</property>
  <property name="kdenlive:meta.media.1.codec.name">pcm_s16le</property>
  <property name="kdenlive:meta.media.1.codec.long_name">PCM signed 16-bit little-endian</property>
  <property name="kdenlive:meta.media.1.codec.bit_rate">1024000</property>
  <property name="kdenlive:meta.media.2.stream.type">audio</property>
  <property name="kdenlive:meta.media.2.codec.sample_fmt">s16</property>
  <property name="kdenlive:meta.media.2.codec.sample_rate">32000</property>
  <property name="kdenlive:meta.media.2.codec.channels">2</property>
  <property name="kdenlive:meta.media.2.codec.name">pcm_s16le</property>
  <property name="kdenlive:meta.media.2.codec.long_name">PCM signed 16-bit little-endian</property>
  <property name="kdenlive:meta.media.2.codec.bit_rate">1024000</property>
  <property name="kdenlive:meta.attr.timecode.markup">00:06:50;25</property>
  <property name="kdenlive:meta.media.sample_aspect_num">8</property>
  <property name="kdenlive:meta.media.sample_aspect_den">9</property>
  <property name="kdenlive:meta.media.frame_rate_num">30000</property>
  <property name="kdenlive:meta.media.frame_rate_den">1001</property>
  <property name="kdenlive:meta.media.colorspace">601</property>
  <property name="kdenlive:meta.media.color_trc">2</property>
  <property name="kdenlive:meta.media.width">720</property>
  <property name="kdenlive:meta.media.height">480</property>
  <property name="meta.media.top_field_first">0</property>
  <property name="meta.media.progressive">1</property>
 </producer>
 <producer id="14" title="Anonymous Submission" out="944" in="0">
  <property name="length">00:00:31;15</property>
  <property name="eof">pause</property>
  <property name="resource">/home/thoth/.cache/kdenlive/proxy/a422a97d041a505cceba4895e16ef638.mpg</property>
  <property name="meta.media.nb_streams">2</property>
  <property name="meta.media.0.stream.type">video</property>
  <property name="meta.media.0.stream.frame_rate">29.97</property>
  <property name="meta.media.0.stream.sample_aspect_ratio">0</property>
  <property name="meta.media.0.codec.width">640</property>
  <property name="meta.media.0.codec.height">427</property>
  <property name="meta.media.0.codec.rotate">0</property>
  <property name="meta.media.0.codec.frame_rate">29.97</property>
  <property name="meta.media.0.codec.pix_fmt">yuv422p</property>
  <property name="meta.media.0.codec.sample_aspect_ratio">0.889583</property>
  <property name="meta.media.0.codec.colorspace">601</property>
  <property name="meta.media.0.codec.name">mpeg2video</property>
  <property name="meta.media.0.codec.long_name">MPEG-2 video</property>
  <property name="meta.media.0.codec.bit_rate">0</property>
  <property name="meta.media.1.stream.type">audio</property>
  <property name="meta.media.1.codec.sample_fmt">s16p</property>
  <property name="meta.media.1.codec.sample_rate">32000</property>
  <property name="meta.media.1.codec.channels">2</property>
  <property name="meta.media.1.codec.name">mp2</property>
  <property name="meta.media.1.codec.long_name">MP2 (MPEG audio layer 2)</property>
  <property name="meta.media.1.codec.bit_rate">128000</property>
  <property name="seekable">1</property>
  <property name="meta.media.sample_aspect_num">427</property>
  <property name="meta.media.sample_aspect_den">480</property>
  <property name="aspect_ratio">0.889583</property>
  <property name="audio_index">1</property>
  <property name="video_index">0</property>
  <property name="mute_on_pause">1</property>
  <property name="mlt_service">avformat</property>
  <property name="meta.media.2.stream.type">audio</property>
  <property name="meta.media.2.codec.sample_fmt">s16</property>
  <property name="meta.media.2.codec.sample_rate">32000</property>
  <property name="meta.media.2.codec.channels">2</property>
  <property name="meta.media.2.codec.name">pcm_s16le</property>
  <property name="meta.media.2.codec.long_name">PCM signed 16-bit little-endian</property>
  <property name="meta.media.2.codec.bit_rate">1024000</property>
  <property name="meta.attr.timecode.markup">00:07:01;15</property>
  <property name="kdenlive:folderid">-1</property>
  <property name="meta.media.frame_rate_num">30000</property>
  <property name="meta.media.frame_rate_den">1001</property>
  <property name="meta.media.colorspace">601</property>
  <property name="meta.media.color_trc">2</property>
  <property name="meta.media.width">640</property>
  <property name="meta.media.height">427</property>
  <property name="kdenlive:file_size">114840000</property>
  <property name="kdenlive:file_hash">a422a97d041a505cceba4895e16ef638</property>
  <property name="kdenlive:proxy">/home/thoth/.cache/kdenlive/proxy/a422a97d041a505cceba4895e16ef638.mpg</property>
  <property name="proxy_out">956</property>
  <property name="kdenlive:originalurl">2001-07-07-beasty/beastiality-013.dv</property>
  <property name="global_feed">1</property>
  <property name="kdenlive:meta.media.nb_streams">3</property>
  <property name="kdenlive:meta.media.0.stream.type">video</property>
  <property name="kdenlive:meta.media.0.stream.frame_rate">29.97</property>
  <property name="kdenlive:meta.media.0.stream.sample_aspect_ratio">0.888889</property>
  <property name="kdenlive:meta.media.0.codec.width">720</property>
  <property name="kdenlive:meta.media.0.codec.height">480</property>
  <property name="kdenlive:meta.media.0.codec.rotate">0</property>
  <property name="kdenlive:meta.media.0.codec.frame_rate">29.97</property>
  <property name="kdenlive:meta.media.0.codec.pix_fmt">yuv411p</property>
  <property name="kdenlive:meta.media.0.codec.sample_aspect_ratio">0.888889</property>
  <property name="kdenlive:meta.media.0.codec.colorspace">601</property>
  <property name="kdenlive:meta.media.0.codec.name">dvvideo</property>
  <property name="kdenlive:meta.media.0.codec.long_name">DV (Digital Video)</property>
  <property name="kdenlive:meta.media.0.codec.bit_rate">25000000</property>
  <property name="kdenlive:meta.media.1.stream.type">audio</property>
  <property name="kdenlive:meta.media.1.codec.sample_fmt">s16</property>
  <property name="kdenlive:meta.media.1.codec.sample_rate">32000</property>
  <property name="kdenlive:meta.media.1.codec.channels">2</property>
  <property name="kdenlive:meta.media.1.codec.name">pcm_s16le</property>
  <property name="kdenlive:meta.media.1.codec.long_name">PCM signed 16-bit little-endian</property>
  <property name="kdenlive:meta.media.1.codec.bit_rate">1024000</property>
  <property name="kdenlive:meta.media.2.stream.type">audio</property>
  <property name="kdenlive:meta.media.2.codec.sample_fmt">s16</property>
  <property name="kdenlive:meta.media.2.codec.sample_rate">32000</property>
  <property name="kdenlive:meta.media.2.codec.channels">2</property>
  <property name="kdenlive:meta.media.2.codec.name">pcm_s16le</property>
  <property name="kdenlive:meta.media.2.codec.long_name">PCM signed 16-bit little-endian</property>
  <property name="kdenlive:meta.media.2.codec.bit_rate">1024000</property>
  <property name="kdenlive:meta.attr.timecode.markup">00:07:01;15</property>
  <property name="kdenlive:meta.media.sample_aspect_num">8</property>
  <property name="kdenlive:meta.media.sample_aspect_den">9</property>
  <property name="kdenlive:meta.media.frame_rate_num">30000</property>
  <property name="kdenlive:meta.media.frame_rate_den">1001</property>
  <property name="kdenlive:meta.media.colorspace">601</property>
  <property name="kdenlive:meta.media.color_trc">2</property>
  <property name="kdenlive:meta.media.width">720</property>
  <property name="kdenlive:meta.media.height">480</property>
  <property name="meta.media.top_field_first">0</property>
  <property name="meta.media.progressive">1</property>
 </producer>
 <producer id="15" title="Anonymous Submission" out="605" in="0">
  <property name="length">00:00:20;06</property>
  <property name="eof">pause</property>
  <property name="resource">/home/thoth/.cache/kdenlive/proxy/939058e9ece90ab22825f3bc6ccfe128.mpg</property>
  <property name="meta.media.nb_streams">2</property>
  <property name="meta.media.0.stream.type">video</property>
  <property name="meta.media.0.stream.frame_rate">29.97</property>
  <property name="meta.media.0.stream.sample_aspect_ratio">0</property>
  <property name="meta.media.0.codec.width">640</property>
  <property name="meta.media.0.codec.height">427</property>
  <property name="meta.media.0.codec.rotate">0</property>
  <property name="meta.media.0.codec.frame_rate">29.97</property>
  <property name="meta.media.0.codec.pix_fmt">yuv422p</property>
  <property name="meta.media.0.codec.sample_aspect_ratio">0.889583</property>
  <property name="meta.media.0.codec.colorspace">601</property>
  <property name="meta.media.0.codec.name">mpeg2video</property>
  <property name="meta.media.0.codec.long_name">MPEG-2 video</property>
  <property name="meta.media.0.codec.bit_rate">0</property>
  <property name="meta.media.1.stream.type">audio</property>
  <property name="meta.media.1.codec.sample_fmt">s16p</property>
  <property name="meta.media.1.codec.sample_rate">32000</property>
  <property name="meta.media.1.codec.channels">2</property>
  <property name="meta.media.1.codec.name">mp2</property>
  <property name="meta.media.1.codec.long_name">MP2 (MPEG audio layer 2)</property>
  <property name="meta.media.1.codec.bit_rate">128000</property>
  <property name="seekable">1</property>
  <property name="meta.media.sample_aspect_num">427</property>
  <property name="meta.media.sample_aspect_den">480</property>
  <property name="aspect_ratio">0.889583</property>
  <property name="audio_index">1</property>
  <property name="video_index">0</property>
  <property name="mute_on_pause">1</property>
  <property name="mlt_service">avformat</property>
  <property name="meta.media.2.stream.type">audio</property>
  <property name="meta.media.2.codec.sample_fmt">s16</property>
  <property name="meta.media.2.codec.sample_rate">32000</property>
  <property name="meta.media.2.codec.channels">2</property>
  <property name="meta.media.2.codec.name">pcm_s16le</property>
  <property name="meta.media.2.codec.long_name">PCM signed 16-bit little-endian</property>
  <property name="meta.media.2.codec.bit_rate">1024000</property>
  <property name="meta.attr.timecode.markup">00:00:16;03</property>
  <property name="kdenlive:folderid">-1</property>
  <property name="meta.media.frame_rate_num">30000</property>
  <property name="meta.media.frame_rate_den">1001</property>
  <property name="meta.media.colorspace">601</property>
  <property name="meta.media.color_trc">2</property>
  <property name="meta.media.width">640</property>
  <property name="meta.media.height">427</property>
  <property name="kdenlive:file_size">74160000</property>
  <property name="kdenlive:file_hash">939058e9ece90ab22825f3bc6ccfe128</property>
  <property name="kdenlive:proxy">/home/thoth/.cache/kdenlive/proxy/939058e9ece90ab22825f3bc6ccfe128.mpg</property>
  <property name="proxy_out">617</property>
  <property name="kdenlive:originalurl">2001-07-07-beasty/beastiality-014.dv</property>
  <property name="global_feed">1</property>
  <property name="kdenlive:meta.media.nb_streams">3</property>
  <property name="kdenlive:meta.media.0.stream.type">video</property>
  <property name="kdenlive:meta.media.0.stream.frame_rate">29.97</property>
  <property name="kdenlive:meta.media.0.stream.sample_aspect_ratio">0.888889</property>
  <property name="kdenlive:meta.media.0.codec.width">720</property>
  <property name="kdenlive:meta.media.0.codec.height">480</property>
  <property name="kdenlive:meta.media.0.codec.rotate">0</property>
  <property name="kdenlive:meta.media.0.codec.frame_rate">29.97</property>
  <property name="kdenlive:meta.media.0.codec.pix_fmt">yuv411p</property>
  <property name="kdenlive:meta.media.0.codec.sample_aspect_ratio">0.888889</property>
  <property name="kdenlive:meta.media.0.codec.colorspace">601</property>
  <property name="kdenlive:meta.media.0.codec.name">dvvideo</property>
  <property name="kdenlive:meta.media.0.codec.long_name">DV (Digital Video)</property>
  <property name="kdenlive:meta.media.0.codec.bit_rate">25000000</property>
  <property name="kdenlive:meta.media.1.stream.type">audio</property>
  <property name="kdenlive:meta.media.1.codec.sample_fmt">s16</property>
  <property name="kdenlive:meta.media.1.codec.sample_rate">32000</property>
  <property name="kdenlive:meta.media.1.codec.channels">2</property>
  <property name="kdenlive:meta.media.1.codec.name">pcm_s16le</property>
  <property name="kdenlive:meta.media.1.codec.long_name">PCM signed 16-bit little-endian</property>
  <property name="kdenlive:meta.media.1.codec.bit_rate">1024000</property>
  <property name="kdenlive:meta.media.2.stream.type">audio</property>
  <property name="kdenlive:meta.media.2.codec.sample_fmt">s16</property>
  <property name="kdenlive:meta.media.2.codec.sample_rate">32000</property>
  <property name="kdenlive:meta.media.2.codec.channels">2</property>
  <property name="kdenlive:meta.media.2.codec.name">pcm_s16le</property>
  <property name="kdenlive:meta.media.2.codec.long_name">PCM signed 16-bit little-endian</property>
  <property name="kdenlive:meta.media.2.codec.bit_rate">1024000</property>
  <property name="kdenlive:meta.attr.timecode.markup">00:00:16;03</property>
  <property name="kdenlive:meta.media.sample_aspect_num">8</property>
  <property name="kdenlive:meta.media.sample_aspect_den">9</property>
  <property name="kdenlive:meta.media.frame_rate_num">30000</property>
  <property name="kdenlive:meta.media.frame_rate_den">1001</property>
  <property name="kdenlive:meta.media.colorspace">601</property>
  <property name="kdenlive:meta.media.color_trc">2</property>
  <property name="kdenlive:meta.media.width">720</property>
  <property name="kdenlive:meta.media.height">480</property>
  <property name="meta.media.top_field_first">0</property>
  <property name="meta.media.progressive">1</property>
 </producer>
 <producer id="16" title="Anonymous Submission" out="630" in="0">
  <property name="length">00:00:21;01</property>
  <property name="eof">pause</property>
  <property name="resource">/home/thoth/.cache/kdenlive/proxy/dca8681250870726ee45faaf5bdf89de.mpg</property>
  <property name="meta.media.nb_streams">2</property>
  <property name="meta.media.0.stream.type">video</property>
  <property name="meta.media.0.stream.frame_rate">29.97</property>
  <property name="meta.media.0.stream.sample_aspect_ratio">0</property>
  <property name="meta.media.0.codec.width">640</property>
  <property name="meta.media.0.codec.height">427</property>
  <property name="meta.media.0.codec.rotate">0</property>
  <property name="meta.media.0.codec.frame_rate">29.97</property>
  <property name="meta.media.0.codec.pix_fmt">yuv422p</property>
  <property name="meta.media.0.codec.sample_aspect_ratio">0.889583</property>
  <property name="meta.media.0.codec.colorspace">601</property>
  <property name="meta.media.0.codec.name">mpeg2video</property>
  <property name="meta.media.0.codec.long_name">MPEG-2 video</property>
  <property name="meta.media.0.codec.bit_rate">0</property>
  <property name="meta.media.1.stream.type">audio</property>
  <property name="meta.media.1.codec.sample_fmt">s16p</property>
  <property name="meta.media.1.codec.sample_rate">32000</property>
  <property name="meta.media.1.codec.channels">2</property>
  <property name="meta.media.1.codec.name">mp2</property>
  <property name="meta.media.1.codec.long_name">MP2 (MPEG audio layer 2)</property>
  <property name="meta.media.1.codec.bit_rate">128000</property>
  <property name="seekable">1</property>
  <property name="meta.media.sample_aspect_num">427</property>
  <property name="meta.media.sample_aspect_den">480</property>
  <property name="aspect_ratio">0.889583</property>
  <property name="audio_index">1</property>
  <property name="video_index">0</property>
  <property name="mute_on_pause">1</property>
  <property name="mlt_service">avformat</property>
  <property name="meta.media.2.stream.type">audio</property>
  <property name="meta.media.2.codec.sample_fmt">s16</property>
  <property name="meta.media.2.codec.sample_rate">32000</property>
  <property name="meta.media.2.codec.channels">2</property>
  <property name="meta.media.2.codec.name">pcm_s16le</property>
  <property name="meta.media.2.codec.long_name">PCM signed 16-bit little-endian</property>
  <property name="meta.media.2.codec.bit_rate">1024000</property>
  <property name="meta.attr.timecode.markup">00:00:36;21</property>
  <property name="kdenlive:folderid">-1</property>
  <property name="meta.media.frame_rate_num">30000</property>
  <property name="meta.media.frame_rate_den">1001</property>
  <property name="meta.media.colorspace">601</property>
  <property name="meta.media.color_trc">2</property>
  <property name="meta.media.width">640</property>
  <property name="meta.media.height">427</property>
  <property name="kdenlive:file_size">77160000</property>
  <property name="kdenlive:file_hash">dca8681250870726ee45faaf5bdf89de</property>
  <property name="kdenlive:proxy">/home/thoth/.cache/kdenlive/proxy/dca8681250870726ee45faaf5bdf89de.mpg</property>
  <property name="proxy_out">642</property>
  <property name="kdenlive:originalurl">2001-07-07-beasty/beastiality-015.dv</property>
  <property name="global_feed">1</property>
  <property name="kdenlive:meta.media.nb_streams">3</property>
  <property name="kdenlive:meta.media.0.stream.type">video</property>
  <property name="kdenlive:meta.media.0.stream.frame_rate">29.97</property>
  <property name="kdenlive:meta.media.0.stream.sample_aspect_ratio">0.888889</property>
  <property name="kdenlive:meta.media.0.codec.width">720</property>
  <property name="kdenlive:meta.media.0.codec.height">480</property>
  <property name="kdenlive:meta.media.0.codec.rotate">0</property>
  <property name="kdenlive:meta.media.0.codec.frame_rate">29.97</property>
  <property name="kdenlive:meta.media.0.codec.pix_fmt">yuv411p</property>
  <property name="kdenlive:meta.media.0.codec.sample_aspect_ratio">0.888889</property>
  <property name="kdenlive:meta.media.0.codec.colorspace">601</property>
  <property name="kdenlive:meta.media.0.codec.name">dvvideo</property>
  <property name="kdenlive:meta.media.0.codec.long_name">DV (Digital Video)</property>
  <property name="kdenlive:meta.media.0.codec.bit_rate">25000000</property>
  <property name="kdenlive:meta.media.1.stream.type">audio</property>
  <property name="kdenlive:meta.media.1.codec.sample_fmt">s16</property>
  <property name="kdenlive:meta.media.1.codec.sample_rate">32000</property>
  <property name="kdenlive:meta.media.1.codec.channels">2</property>
  <property name="kdenlive:meta.media.1.codec.name">pcm_s16le</property>
  <property name="kdenlive:meta.media.1.codec.long_name">PCM signed 16-bit little-endian</property>
  <property name="kdenlive:meta.media.1.codec.bit_rate">1024000</property>
  <property name="kdenlive:meta.media.2.stream.type">audio</property>
  <property name="kdenlive:meta.media.2.codec.sample_fmt">s16</property>
  <property name="kdenlive:meta.media.2.codec.sample_rate">32000</property>
  <property name="kdenlive:meta.media.2.codec.channels">2</property>
  <property name="kdenlive:meta.media.2.codec.name">pcm_s16le</property>
  <property name="kdenlive:meta.media.2.codec.long_name">PCM signed 16-bit little-endian</property>
  <property name="kdenlive:meta.media.2.codec.bit_rate">1024000</property>
  <property name="kdenlive:meta.attr.timecode.markup">00:00:36;21</property>
  <property name="kdenlive:meta.media.sample_aspect_num">8</property>
  <property name="kdenlive:meta.media.sample_aspect_den">9</property>
  <property name="kdenlive:meta.media.frame_rate_num">30000</property>
  <property name="kdenlive:meta.media.frame_rate_den">1001</property>
  <property name="kdenlive:meta.media.colorspace">601</property>
  <property name="kdenlive:meta.media.color_trc">2</property>
  <property name="kdenlive:meta.media.width">720</property>
  <property name="kdenlive:meta.media.height">480</property>
  <property name="meta.media.top_field_first">0</property>
  <property name="meta.media.progressive">1</property>
  <property name="kdenlive:zone_in">97</property>
  <property name="kdenlive:zone_out">312</property>
 </producer>
 <producer id="18" title="Anonymous Submission" out="259" in="0">
  <property name="length">00:00:08;20</property>
  <property name="eof">pause</property>
  <property name="resource">/home/thoth/.cache/kdenlive/proxy/66df27a6e8f8d7a7059792bab3e02fc5.mpg</property>
  <property name="meta.media.nb_streams">2</property>
  <property name="meta.media.0.stream.type">video</property>
  <property name="meta.media.0.stream.frame_rate">29.97</property>
  <property name="meta.media.0.stream.sample_aspect_ratio">0</property>
  <property name="meta.media.0.codec.width">640</property>
  <property name="meta.media.0.codec.height">427</property>
  <property name="meta.media.0.codec.rotate">0</property>
  <property name="meta.media.0.codec.frame_rate">29.97</property>
  <property name="meta.media.0.codec.pix_fmt">yuv422p</property>
  <property name="meta.media.0.codec.sample_aspect_ratio">0.889583</property>
  <property name="meta.media.0.codec.colorspace">601</property>
  <property name="meta.media.0.codec.name">mpeg2video</property>
  <property name="meta.media.0.codec.long_name">MPEG-2 video</property>
  <property name="meta.media.0.codec.bit_rate">0</property>
  <property name="meta.media.1.stream.type">audio</property>
  <property name="meta.media.1.codec.sample_fmt">s16p</property>
  <property name="meta.media.1.codec.sample_rate">32000</property>
  <property name="meta.media.1.codec.channels">2</property>
  <property name="meta.media.1.codec.name">mp2</property>
  <property name="meta.media.1.codec.long_name">MP2 (MPEG audio layer 2)</property>
  <property name="meta.media.1.codec.bit_rate">128000</property>
  <property name="seekable">1</property>
  <property name="meta.media.sample_aspect_num">427</property>
  <property name="meta.media.sample_aspect_den">480</property>
  <property name="aspect_ratio">0.889583</property>
  <property name="audio_index">1</property>
  <property name="video_index">0</property>
  <property name="mute_on_pause">1</property>
  <property name="mlt_service">avformat</property>
  <property name="meta.media.2.stream.type">audio</property>
  <property name="meta.media.2.codec.sample_fmt">s16</property>
  <property name="meta.media.2.codec.sample_rate">32000</property>
  <property name="meta.media.2.codec.channels">2</property>
  <property name="meta.media.2.codec.name">pcm_s16le</property>
  <property name="meta.media.2.codec.long_name">PCM signed 16-bit little-endian</property>
  <property name="meta.media.2.codec.bit_rate">1024000</property>
  <property name="meta.attr.timecode.markup">00:00:29;08</property>
  <property name="kdenlive:folderid">-1</property>
  <property name="meta.media.frame_rate_num">30000</property>
  <property name="meta.media.frame_rate_den">1001</property>
  <property name="meta.media.colorspace">601</property>
  <property name="meta.media.color_trc">2</property>
  <property name="meta.media.width">640</property>
  <property name="meta.media.height">427</property>
  <property name="kdenlive:file_size">31200000</property>
  <property name="kdenlive:file_hash">66df27a6e8f8d7a7059792bab3e02fc5</property>
  <property name="kdenlive:proxy">/home/thoth/.cache/kdenlive/proxy/66df27a6e8f8d7a7059792bab3e02fc5.mpg</property>
  <property name="proxy_out">259</property>
  <property name="kdenlive:originalurl">2001-07-07-beasty/beastiality-017.dv</property>
  <property name="global_feed">1</property>
  <property name="kdenlive:meta.media.nb_streams">3</property>
  <property name="kdenlive:meta.media.0.stream.type">video</property>
  <property name="kdenlive:meta.media.0.stream.frame_rate">29.97</property>
  <property name="kdenlive:meta.media.0.stream.sample_aspect_ratio">0.888889</property>
  <property name="kdenlive:meta.media.0.codec.width">720</property>
  <property name="kdenlive:meta.media.0.codec.height">480</property>
  <property name="kdenlive:meta.media.0.codec.rotate">0</property>
  <property name="kdenlive:meta.media.0.codec.frame_rate">29.97</property>
  <property name="kdenlive:meta.media.0.codec.pix_fmt">yuv411p</property>
  <property name="kdenlive:meta.media.0.codec.sample_aspect_ratio">0.888889</property>
  <property name="kdenlive:meta.media.0.codec.colorspace">601</property>
  <property name="kdenlive:meta.media.0.codec.name">dvvideo</property>
  <property name="kdenlive:meta.media.0.codec.long_name">DV (Digital Video)</property>
  <property name="kdenlive:meta.media.0.codec.bit_rate">25000000</property>
  <property name="kdenlive:meta.media.1.stream.type">audio</property>
  <property name="kdenlive:meta.media.1.codec.sample_fmt">s16</property>
  <property name="kdenlive:meta.media.1.codec.sample_rate">32000</property>
  <property name="kdenlive:meta.media.1.codec.channels">2</property>
  <property name="kdenlive:meta.media.1.codec.name">pcm_s16le</property>
  <property name="kdenlive:meta.media.1.codec.long_name">PCM signed 16-bit little-endian</property>
  <property name="kdenlive:meta.media.1.codec.bit_rate">1024000</property>
  <property name="kdenlive:meta.media.2.stream.type">audio</property>
  <property name="kdenlive:meta.media.2.codec.sample_fmt">s16</property>
  <property name="kdenlive:meta.media.2.codec.sample_rate">32000</property>
  <property name="kdenlive:meta.media.2.codec.channels">2</property>
  <property name="kdenlive:meta.media.2.codec.name">pcm_s16le</property>
  <property name="kdenlive:meta.media.2.codec.long_name">PCM signed 16-bit little-endian</property>
  <property name="kdenlive:meta.media.2.codec.bit_rate">1024000</property>
  <property name="kdenlive:meta.attr.timecode.markup">00:00:29;08</property>
  <property name="kdenlive:meta.media.sample_aspect_num">8</property>
  <property name="kdenlive:meta.media.sample_aspect_den">9</property>
  <property name="kdenlive:meta.media.frame_rate_num">30000</property>
  <property name="kdenlive:meta.media.frame_rate_den">1001</property>
  <property name="kdenlive:meta.media.colorspace">601</property>
  <property name="kdenlive:meta.media.color_trc">2</property>
  <property name="kdenlive:meta.media.width">720</property>
  <property name="kdenlive:meta.media.height">480</property>
  <property name="meta.media.top_field_first">0</property>
  <property name="meta.media.progressive">1</property>
  <property name="kdenlive:zone_in">46</property>
  <property name="kdenlive:zone_out">259</property>
 </producer>
 <producer id="17" title="Anonymous Submission" out="864" in="0">
  <property name="length">00:00:28;25</property>
  <property name="eof">pause</property>
  <property name="resource">/home/thoth/.cache/kdenlive/proxy/4d19181ede84fe2995f7ea50b354f310.mpg</property>
  <property name="meta.media.nb_streams">2</property>
  <property name="meta.media.0.stream.type">video</property>
  <property name="meta.media.0.stream.frame_rate">29.97</property>
  <property name="meta.media.0.stream.sample_aspect_ratio">0</property>
  <property name="meta.media.0.codec.width">640</property>
  <property name="meta.media.0.codec.height">427</property>
  <property name="meta.media.0.codec.rotate">0</property>
  <property name="meta.media.0.codec.frame_rate">29.97</property>
  <property name="meta.media.0.codec.pix_fmt">yuv422p</property>
  <property name="meta.media.0.codec.sample_aspect_ratio">0.889583</property>
  <property name="meta.media.0.codec.colorspace">601</property>
  <property name="meta.media.0.codec.name">mpeg2video</property>
  <property name="meta.media.0.codec.long_name">MPEG-2 video</property>
  <property name="meta.media.0.codec.bit_rate">0</property>
  <property name="meta.media.1.stream.type">audio</property>
  <property name="meta.media.1.codec.sample_fmt">s16p</property>
  <property name="meta.media.1.codec.sample_rate">32000</property>
  <property name="meta.media.1.codec.channels">2</property>
  <property name="meta.media.1.codec.name">mp2</property>
  <property name="meta.media.1.codec.long_name">MP2 (MPEG audio layer 2)</property>
  <property name="meta.media.1.codec.bit_rate">128000</property>
  <property name="seekable">1</property>
  <property name="meta.media.sample_aspect_num">427</property>
  <property name="meta.media.sample_aspect_den">480</property>
  <property name="aspect_ratio">0.889583</property>
  <property name="audio_index">1</property>
  <property name="video_index">0</property>
  <property name="mute_on_pause">1</property>
  <property name="mlt_service">avformat</property>
  <property name="meta.media.2.stream.type">audio</property>
  <property name="meta.media.2.codec.sample_fmt">s16</property>
  <property name="meta.media.2.codec.sample_rate">32000</property>
  <property name="meta.media.2.codec.channels">2</property>
  <property name="meta.media.2.codec.name">pcm_s16le</property>
  <property name="meta.media.2.codec.long_name">PCM signed 16-bit little-endian</property>
  <property name="meta.media.2.codec.bit_rate">1024000</property>
  <property name="meta.attr.timecode.markup">00:00:00;01</property>
  <property name="kdenlive:folderid">-1</property>
  <property name="meta.media.frame_rate_num">30000</property>
  <property name="meta.media.frame_rate_den">1001</property>
  <property name="meta.media.colorspace">601</property>
  <property name="meta.media.color_trc">2</property>
  <property name="meta.media.width">640</property>
  <property name="meta.media.height">427</property>
  <property name="kdenlive:file_size">105240000</property>
  <property name="kdenlive:file_hash">4d19181ede84fe2995f7ea50b354f310</property>
  <property name="kdenlive:proxy">/home/thoth/.cache/kdenlive/proxy/4d19181ede84fe2995f7ea50b354f310.mpg</property>
  <property name="proxy_out">876</property>
  <property name="kdenlive:originalurl">2001-07-07-beasty/beastiality-016.dv</property>
  <property name="global_feed">1</property>
  <property name="kdenlive:meta.media.nb_streams">3</property>
  <property name="kdenlive:meta.media.0.stream.type">video</property>
  <property name="kdenlive:meta.media.0.stream.frame_rate">29.97</property>
  <property name="kdenlive:meta.media.0.stream.sample_aspect_ratio">0.888889</property>
  <property name="kdenlive:meta.media.0.codec.width">720</property>
  <property name="kdenlive:meta.media.0.codec.height">480</property>
  <property name="kdenlive:meta.media.0.codec.rotate">0</property>
  <property name="kdenlive:meta.media.0.codec.frame_rate">29.97</property>
  <property name="kdenlive:meta.media.0.codec.pix_fmt">yuv411p</property>
  <property name="kdenlive:meta.media.0.codec.sample_aspect_ratio">0.888889</property>
  <property name="kdenlive:meta.media.0.codec.colorspace">601</property>
  <property name="kdenlive:meta.media.0.codec.name">dvvideo</property>
  <property name="kdenlive:meta.media.0.codec.long_name">DV (Digital Video)</property>
  <property name="kdenlive:meta.media.0.codec.bit_rate">25000000</property>
  <property name="kdenlive:meta.media.1.stream.type">audio</property>
  <property name="kdenlive:meta.media.1.codec.sample_fmt">s16</property>
  <property name="kdenlive:meta.media.1.codec.sample_rate">32000</property>
  <property name="kdenlive:meta.media.1.codec.channels">2</property>
  <property name="kdenlive:meta.media.1.codec.name">pcm_s16le</property>
  <property name="kdenlive:meta.media.1.codec.long_name">PCM signed 16-bit little-endian</property>
  <property name="kdenlive:meta.media.1.codec.bit_rate">1024000</property>
  <property name="kdenlive:meta.media.2.stream.type">audio</property>
  <property name="kdenlive:meta.media.2.codec.sample_fmt">s16</property>
  <property name="kdenlive:meta.media.2.codec.sample_rate">32000</property>
  <property name="kdenlive:meta.media.2.codec.channels">2</property>
  <property name="kdenlive:meta.media.2.codec.name">pcm_s16le</property>
  <property name="kdenlive:meta.media.2.codec.long_name">PCM signed 16-bit little-endian</property>
  <property name="kdenlive:meta.media.2.codec.bit_rate">1024000</property>
  <property name="kdenlive:meta.attr.timecode.markup">00:00:00;01</property>
  <property name="kdenlive:meta.media.sample_aspect_num">8</property>
  <property name="kdenlive:meta.media.sample_aspect_den">9</property>
  <property name="kdenlive:meta.media.frame_rate_num">30000</property>
  <property name="kdenlive:meta.media.frame_rate_den">1001</property>
  <property name="kdenlive:meta.media.colorspace">601</property>
  <property name="kdenlive:meta.media.color_trc">2</property>
  <property name="kdenlive:meta.media.width">720</property>
  <property name="kdenlive:meta.media.height">480</property>
  <property name="meta.media.top_field_first">0</property>
  <property name="meta.media.progressive">1</property>
  <property name="kdenlive:zone_in">272</property>
  <property name="kdenlive:zone_out">341</property>
 </producer>
 <producer id="19" title="Anonymous Submission" out="331" in="0">
  <property name="length">00:00:11;02</property>
  <property name="eof">pause</property>
  <property name="resource">/home/thoth/.cache/kdenlive/proxy/dfb7a151993fde9ef5c28b62f0c79894.mpg</property>
  <property name="meta.media.nb_streams">2</property>
  <property name="meta.media.0.stream.type">video</property>
  <property name="meta.media.0.stream.frame_rate">29.97</property>
  <property name="meta.media.0.stream.sample_aspect_ratio">0</property>
  <property name="meta.media.0.codec.width">640</property>
  <property name="meta.media.0.codec.height">427</property>
  <property name="meta.media.0.codec.rotate">0</property>
  <property name="meta.media.0.codec.frame_rate">29.97</property>
  <property name="meta.media.0.codec.pix_fmt">yuv422p</property>
  <property name="meta.media.0.codec.sample_aspect_ratio">0.889583</property>
  <property name="meta.media.0.codec.colorspace">601</property>
  <property name="meta.media.0.codec.name">mpeg2video</property>
  <property name="meta.media.0.codec.long_name">MPEG-2 video</property>
  <property name="meta.media.0.codec.bit_rate">0</property>
  <property name="meta.media.1.stream.type">audio</property>
  <property name="meta.media.1.codec.sample_fmt">s16p</property>
  <property name="meta.media.1.codec.sample_rate">32000</property>
  <property name="meta.media.1.codec.channels">2</property>
  <property name="meta.media.1.codec.name">mp2</property>
  <property name="meta.media.1.codec.long_name">MP2 (MPEG audio layer 2)</property>
  <property name="meta.media.1.codec.bit_rate">128000</property>
  <property name="seekable">1</property>
  <property name="meta.media.sample_aspect_num">427</property>
  <property name="meta.media.sample_aspect_den">480</property>
  <property name="aspect_ratio">0.889583</property>
  <property name="audio_index">1</property>
  <property name="video_index">0</property>
  <property name="mute_on_pause">1</property>
  <property name="mlt_service">avformat</property>
  <property name="meta.media.2.stream.type">audio</property>
  <property name="meta.media.2.codec.sample_fmt">s16</property>
  <property name="meta.media.2.codec.sample_rate">32000</property>
  <property name="meta.media.2.codec.channels">2</property>
  <property name="meta.media.2.codec.name">pcm_s16le</property>
  <property name="meta.media.2.codec.long_name">PCM signed 16-bit little-endian</property>
  <property name="meta.media.2.codec.bit_rate">1024000</property>
  <property name="meta.attr.timecode.markup">00:00:37;28</property>
  <property name="kdenlive:folderid">-1</property>
  <property name="meta.media.frame_rate_num">30000</property>
  <property name="meta.media.frame_rate_den">1001</property>
  <property name="meta.media.colorspace">601</property>
  <property name="meta.media.color_trc">2</property>
  <property name="meta.media.width">640</property>
  <property name="meta.media.height">427</property>
  <property name="kdenlive:file_size">39840000</property>
  <property name="kdenlive:file_hash">dfb7a151993fde9ef5c28b62f0c79894</property>
  <property name="kdenlive:proxy">/home/thoth/.cache/kdenlive/proxy/dfb7a151993fde9ef5c28b62f0c79894.mpg</property>
  <property name="proxy_out">331</property>
  <property name="kdenlive:originalurl">2001-07-07-beasty/beastiality-018.dv</property>
  <property name="global_feed">1</property>
  <property name="kdenlive:meta.media.nb_streams">3</property>
  <property name="kdenlive:meta.media.0.stream.type">video</property>
  <property name="kdenlive:meta.media.0.stream.frame_rate">29.97</property>
  <property name="kdenlive:meta.media.0.stream.sample_aspect_ratio">0.888889</property>
  <property name="kdenlive:meta.media.0.codec.width">720</property>
  <property name="kdenlive:meta.media.0.codec.height">480</property>
  <property name="kdenlive:meta.media.0.codec.rotate">0</property>
  <property name="kdenlive:meta.media.0.codec.frame_rate">29.97</property>
  <property name="kdenlive:meta.media.0.codec.pix_fmt">yuv411p</property>
  <property name="kdenlive:meta.media.0.codec.sample_aspect_ratio">0.888889</property>
  <property name="kdenlive:meta.media.0.codec.colorspace">601</property>
  <property name="kdenlive:meta.media.0.codec.name">dvvideo</property>
  <property name="kdenlive:meta.media.0.codec.long_name">DV (Digital Video)</property>
  <property name="kdenlive:meta.media.0.codec.bit_rate">25000000</property>
  <property name="kdenlive:meta.media.1.stream.type">audio</property>
  <property name="kdenlive:meta.media.1.codec.sample_fmt">s16</property>
  <property name="kdenlive:meta.media.1.codec.sample_rate">32000</property>
  <property name="kdenlive:meta.media.1.codec.channels">2</property>
  <property name="kdenlive:meta.media.1.codec.name">pcm_s16le</property>
  <property name="kdenlive:meta.media.1.codec.long_name">PCM signed 16-bit little-endian</property>
  <property name="kdenlive:meta.media.1.codec.bit_rate">1024000</property>
  <property name="kdenlive:meta.media.2.stream.type">audio</property>
  <property name="kdenlive:meta.media.2.codec.sample_fmt">s16</property>
  <property name="kdenlive:meta.media.2.codec.sample_rate">32000</property>
  <property name="kdenlive:meta.media.2.codec.channels">2</property>
  <property name="kdenlive:meta.media.2.codec.name">pcm_s16le</property>
  <property name="kdenlive:meta.media.2.codec.long_name">PCM signed 16-bit little-endian</property>
  <property name="kdenlive:meta.media.2.codec.bit_rate">1024000</property>
  <property name="kdenlive:meta.attr.timecode.markup">00:00:37;28</property>
  <property name="kdenlive:meta.media.sample_aspect_num">8</property>
  <property name="kdenlive:meta.media.sample_aspect_den">9</property>
  <property name="kdenlive:meta.media.frame_rate_num">30000</property>
  <property name="kdenlive:meta.media.frame_rate_den">1001</property>
  <property name="kdenlive:meta.media.colorspace">601</property>
  <property name="kdenlive:meta.media.color_trc">2</property>
  <property name="kdenlive:meta.media.width">720</property>
  <property name="kdenlive:meta.media.height">480</property>
  <property name="meta.media.top_field_first">0</property>
  <property name="meta.media.progressive">1</property>
  <property name="kdenlive:zone_in">28</property>
  <property name="kdenlive:zone_out">126</property>
 </producer>
 <producer id="20" title="Anonymous Submission" out="351" in="0">
  <property name="length">00:00:11;22</property>
  <property name="eof">pause</property>
  <property name="resource">/home/thoth/.cache/kdenlive/proxy/967367bf0addf37441445be7a7cb723c.mpg</property>
  <property name="meta.media.nb_streams">2</property>
  <property name="meta.media.0.stream.type">video</property>
  <property name="meta.media.0.stream.frame_rate">29.97</property>
  <property name="meta.media.0.stream.sample_aspect_ratio">0</property>
  <property name="meta.media.0.codec.width">640</property>
  <property name="meta.media.0.codec.height">427</property>
  <property name="meta.media.0.codec.rotate">0</property>
  <property name="meta.media.0.codec.frame_rate">29.97</property>
  <property name="meta.media.0.codec.pix_fmt">yuv422p</property>
  <property name="meta.media.0.codec.sample_aspect_ratio">0.889583</property>
  <property name="meta.media.0.codec.colorspace">601</property>
  <property name="meta.media.0.codec.name">mpeg2video</property>
  <property name="meta.media.0.codec.long_name">MPEG-2 video</property>
  <property name="meta.media.0.codec.bit_rate">0</property>
  <property name="meta.media.1.stream.type">audio</property>
  <property name="meta.media.1.codec.sample_fmt">s16p</property>
  <property name="meta.media.1.codec.sample_rate">32000</property>
  <property name="meta.media.1.codec.channels">2</property>
  <property name="meta.media.1.codec.name">mp2</property>
  <property name="meta.media.1.codec.long_name">MP2 (MPEG audio layer 2)</property>
  <property name="meta.media.1.codec.bit_rate">128000</property>
  <property name="seekable">1</property>
  <property name="meta.media.sample_aspect_num">427</property>
  <property name="meta.media.sample_aspect_den">480</property>
  <property name="aspect_ratio">0.889583</property>
  <property name="audio_index">1</property>
  <property name="video_index">0</property>
  <property name="mute_on_pause">1</property>
  <property name="mlt_service">avformat</property>
  <property name="meta.media.2.stream.type">audio</property>
  <property name="meta.media.2.codec.sample_fmt">s16</property>
  <property name="meta.media.2.codec.sample_rate">32000</property>
  <property name="meta.media.2.codec.channels">2</property>
  <property name="meta.media.2.codec.name">pcm_s16le</property>
  <property name="meta.media.2.codec.long_name">PCM signed 16-bit little-endian</property>
  <property name="meta.media.2.codec.bit_rate">1024000</property>
  <property name="meta.attr.timecode.markup">00:00:49;00</property>
  <property name="kdenlive:folderid">-1</property>
  <property name="meta.media.frame_rate_num">30000</property>
  <property name="meta.media.frame_rate_den">1001</property>
  <property name="meta.media.colorspace">601</property>
  <property name="meta.media.color_trc">2</property>
  <property name="meta.media.width">640</property>
  <property name="meta.media.height">427</property>
  <property name="kdenlive:file_size">42240000</property>
  <property name="kdenlive:file_hash">967367bf0addf37441445be7a7cb723c</property>
  <property name="kdenlive:proxy">/home/thoth/.cache/kdenlive/proxy/967367bf0addf37441445be7a7cb723c.mpg</property>
  <property name="proxy_out">351</property>
  <property name="kdenlive:originalurl">2001-07-07-beasty/beastiality-019.dv</property>
  <property name="global_feed">1</property>
  <property name="kdenlive:meta.media.nb_streams">3</property>
  <property name="kdenlive:meta.media.0.stream.type">video</property>
  <property name="kdenlive:meta.media.0.stream.frame_rate">29.97</property>
  <property name="kdenlive:meta.media.0.stream.sample_aspect_ratio">0.888889</property>
  <property name="kdenlive:meta.media.0.codec.width">720</property>
  <property name="kdenlive:meta.media.0.codec.height">480</property>
  <property name="kdenlive:meta.media.0.codec.rotate">0</property>
  <property name="kdenlive:meta.media.0.codec.frame_rate">29.97</property>
  <property name="kdenlive:meta.media.0.codec.pix_fmt">yuv411p</property>
  <property name="kdenlive:meta.media.0.codec.sample_aspect_ratio">0.888889</property>
  <property name="kdenlive:meta.media.0.codec.colorspace">601</property>
  <property name="kdenlive:meta.media.0.codec.name">dvvideo</property>
  <property name="kdenlive:meta.media.0.codec.long_name">DV (Digital Video)</property>
  <property name="kdenlive:meta.media.0.codec.bit_rate">25000000</property>
  <property name="kdenlive:meta.media.1.stream.type">audio</property>
  <property name="kdenlive:meta.media.1.codec.sample_fmt">s16</property>
  <property name="kdenlive:meta.media.1.codec.sample_rate">32000</property>
  <property name="kdenlive:meta.media.1.codec.channels">2</property>
  <property name="kdenlive:meta.media.1.codec.name">pcm_s16le</property>
  <property name="kdenlive:meta.media.1.codec.long_name">PCM signed 16-bit little-endian</property>
  <property name="kdenlive:meta.media.1.codec.bit_rate">1024000</property>
  <property name="kdenlive:meta.media.2.stream.type">audio</property>
  <property name="kdenlive:meta.media.2.codec.sample_fmt">s16</property>
  <property name="kdenlive:meta.media.2.codec.sample_rate">32000</property>
  <property name="kdenlive:meta.media.2.codec.channels">2</property>
  <property name="kdenlive:meta.media.2.codec.name">pcm_s16le</property>
  <property name="kdenlive:meta.media.2.codec.long_name">PCM signed 16-bit little-endian</property>
  <property name="kdenlive:meta.media.2.codec.bit_rate">1024000</property>
  <property name="kdenlive:meta.attr.timecode.markup">00:00:49;00</property>
  <property name="kdenlive:meta.media.sample_aspect_num">8</property>
  <property name="kdenlive:meta.media.sample_aspect_den">9</property>
  <property name="kdenlive:meta.media.frame_rate_num">30000</property>
  <property name="kdenlive:meta.media.frame_rate_den">1001</property>
  <property name="kdenlive:meta.media.colorspace">601</property>
  <property name="kdenlive:meta.media.color_trc">2</property>
  <property name="kdenlive:meta.media.width">720</property>
  <property name="kdenlive:meta.media.height">480</property>
  <property name="meta.media.top_field_first">0</property>
  <property name="meta.media.progressive">1</property>
 </producer>
 <producer id="21" title="Anonymous Submission" out="428" in="0">
  <property name="length">00:00:14;09</property>
  <property name="eof">pause</property>
  <property name="resource">/home/thoth/.cache/kdenlive/proxy/dc0c48167dcc8c19a73d93fc7154fe00.mpg</property>
  <property name="meta.media.nb_streams">2</property>
  <property name="meta.media.0.stream.type">video</property>
  <property name="meta.media.0.stream.frame_rate">29.97</property>
  <property name="meta.media.0.stream.sample_aspect_ratio">0</property>
  <property name="meta.media.0.codec.width">640</property>
  <property name="meta.media.0.codec.height">427</property>
  <property name="meta.media.0.codec.rotate">0</property>
  <property name="meta.media.0.codec.frame_rate">29.97</property>
  <property name="meta.media.0.codec.pix_fmt">yuv422p</property>
  <property name="meta.media.0.codec.sample_aspect_ratio">0.889583</property>
  <property name="meta.media.0.codec.colorspace">601</property>
  <property name="meta.media.0.codec.name">mpeg2video</property>
  <property name="meta.media.0.codec.long_name">MPEG-2 video</property>
  <property name="meta.media.0.codec.bit_rate">0</property>
  <property name="meta.media.1.stream.type">audio</property>
  <property name="meta.media.1.codec.sample_fmt">s16p</property>
  <property name="meta.media.1.codec.sample_rate">32000</property>
  <property name="meta.media.1.codec.channels">2</property>
  <property name="meta.media.1.codec.name">mp2</property>
  <property name="meta.media.1.codec.long_name">MP2 (MPEG audio layer 2)</property>
  <property name="meta.media.1.codec.bit_rate">128000</property>
  <property name="seekable">1</property>
  <property name="meta.media.sample_aspect_num">427</property>
  <property name="meta.media.sample_aspect_den">480</property>
  <property name="aspect_ratio">0.889583</property>
  <property name="audio_index">1</property>
  <property name="video_index">0</property>
  <property name="mute_on_pause">1</property>
  <property name="mlt_service">avformat</property>
  <property name="meta.media.2.stream.type">audio</property>
  <property name="meta.media.2.codec.sample_fmt">s16</property>
  <property name="meta.media.2.codec.sample_rate">32000</property>
  <property name="meta.media.2.codec.channels">2</property>
  <property name="meta.media.2.codec.name">pcm_s16le</property>
  <property name="meta.media.2.codec.long_name">PCM signed 16-bit little-endian</property>
  <property name="meta.media.2.codec.bit_rate">1024000</property>
  <property name="meta.attr.timecode.markup">00:01:00;24</property>
  <property name="kdenlive:folderid">-1</property>
  <property name="meta.media.frame_rate_num">30000</property>
  <property name="meta.media.frame_rate_den">1001</property>
  <property name="meta.media.colorspace">601</property>
  <property name="meta.media.color_trc">2</property>
  <property name="meta.media.width">640</property>
  <property name="meta.media.height">427</property>
  <property name="kdenlive:file_size">51480000</property>
  <property name="kdenlive:file_hash">dc0c48167dcc8c19a73d93fc7154fe00</property>
  <property name="kdenlive:proxy">/home/thoth/.cache/kdenlive/proxy/dc0c48167dcc8c19a73d93fc7154fe00.mpg</property>
  <property name="proxy_out">428</property>
  <property name="kdenlive:originalurl">2001-07-07-beasty/beastiality-020.dv</property>
  <property name="global_feed">1</property>
  <property name="kdenlive:meta.media.nb_streams">3</property>
  <property name="kdenlive:meta.media.0.stream.type">video</property>
  <property name="kdenlive:meta.media.0.stream.frame_rate">29.97</property>
  <property name="kdenlive:meta.media.0.stream.sample_aspect_ratio">0.888889</property>
  <property name="kdenlive:meta.media.0.codec.width">720</property>
  <property name="kdenlive:meta.media.0.codec.height">480</property>
  <property name="kdenlive:meta.media.0.codec.rotate">0</property>
  <property name="kdenlive:meta.media.0.codec.frame_rate">29.97</property>
  <property name="kdenlive:meta.media.0.codec.pix_fmt">yuv411p</property>
  <property name="kdenlive:meta.media.0.codec.sample_aspect_ratio">0.888889</property>
  <property name="kdenlive:meta.media.0.codec.colorspace">601</property>
  <property name="kdenlive:meta.media.0.codec.name">dvvideo</property>
  <property name="kdenlive:meta.media.0.codec.long_name">DV (Digital Video)</property>
  <property name="kdenlive:meta.media.0.codec.bit_rate">25000000</property>
  <property name="kdenlive:meta.media.1.stream.type">audio</property>
  <property name="kdenlive:meta.media.1.codec.sample_fmt">s16</property>
  <property name="kdenlive:meta.media.1.codec.sample_rate">32000</property>
  <property name="kdenlive:meta.media.1.codec.channels">2</property>
  <property name="kdenlive:meta.media.1.codec.name">pcm_s16le</property>
  <property name="kdenlive:meta.media.1.codec.long_name">PCM signed 16-bit little-endian</property>
  <property name="kdenlive:meta.media.1.codec.bit_rate">1024000</property>
  <property name="kdenlive:meta.media.2.stream.type">audio</property>
  <property name="kdenlive:meta.media.2.codec.sample_fmt">s16</property>
  <property name="kdenlive:meta.media.2.codec.sample_rate">32000</property>
  <property name="kdenlive:meta.media.2.codec.channels">2</property>
  <property name="kdenlive:meta.media.2.codec.name">pcm_s16le</property>
  <property name="kdenlive:meta.media.2.codec.long_name">PCM signed 16-bit little-endian</property>
  <property name="kdenlive:meta.media.2.codec.bit_rate">1024000</property>
  <property name="kdenlive:meta.attr.timecode.markup">00:01:00;24</property>
  <property name="kdenlive:meta.media.sample_aspect_num">8</property>
  <property name="kdenlive:meta.media.sample_aspect_den">9</property>
  <property name="kdenlive:meta.media.frame_rate_num">30000</property>
  <property name="kdenlive:meta.media.frame_rate_den">1001</property>
  <property name="kdenlive:meta.media.colorspace">601</property>
  <property name="kdenlive:meta.media.color_trc">2</property>
  <property name="kdenlive:meta.media.width">720</property>
  <property name="kdenlive:meta.media.height">480</property>
  <property name="meta.media.top_field_first">0</property>
  <property name="meta.media.progressive">1</property>
 </producer>
 <producer id="22" title="Anonymous Submission" out="273" in="0">
  <property name="length">00:00:09;04</property>
  <property name="eof">pause</property>
  <property name="resource">/home/thoth/.cache/kdenlive/proxy/662c55859006b60157216fd97c52b6b9.mpg</property>
  <property name="meta.media.nb_streams">2</property>
  <property name="meta.media.0.stream.type">video</property>
  <property name="meta.media.0.stream.frame_rate">29.97</property>
  <property name="meta.media.0.stream.sample_aspect_ratio">0</property>
  <property name="meta.media.0.codec.width">640</property>
  <property name="meta.media.0.codec.height">427</property>
  <property name="meta.media.0.codec.rotate">0</property>
  <property name="meta.media.0.codec.frame_rate">29.97</property>
  <property name="meta.media.0.codec.pix_fmt">yuv422p</property>
  <property name="meta.media.0.codec.sample_aspect_ratio">0.889583</property>
  <property name="meta.media.0.codec.colorspace">601</property>
  <property name="meta.media.0.codec.name">mpeg2video</property>
  <property name="meta.media.0.codec.long_name">MPEG-2 video</property>
  <property name="meta.media.0.codec.bit_rate">0</property>
  <property name="meta.media.1.stream.type">audio</property>
  <property name="meta.media.1.codec.sample_fmt">s16p</property>
  <property name="meta.media.1.codec.sample_rate">32000</property>
  <property name="meta.media.1.codec.channels">2</property>
  <property name="meta.media.1.codec.name">mp2</property>
  <property name="meta.media.1.codec.long_name">MP2 (MPEG audio layer 2)</property>
  <property name="meta.media.1.codec.bit_rate">128000</property>
  <property name="seekable">1</property>
  <property name="meta.media.sample_aspect_num">427</property>
  <property name="meta.media.sample_aspect_den">480</property>
  <property name="aspect_ratio">0.889583</property>
  <property name="audio_index">1</property>
  <property name="video_index">0</property>
  <property name="mute_on_pause">1</property>
  <property name="mlt_service">avformat</property>
  <property name="meta.media.2.stream.type">audio</property>
  <property name="meta.media.2.codec.sample_fmt">s16</property>
  <property name="meta.media.2.codec.sample_rate">32000</property>
  <property name="meta.media.2.codec.channels">2</property>
  <property name="meta.media.2.codec.name">pcm_s16le</property>
  <property name="meta.media.2.codec.long_name">PCM signed 16-bit little-endian</property>
  <property name="meta.media.2.codec.bit_rate">1024000</property>
  <property name="meta.attr.timecode.markup">00:01:15;03</property>
  <property name="kdenlive:folderid">-1</property>
  <property name="meta.media.frame_rate_num">30000</property>
  <property name="meta.media.frame_rate_den">1001</property>
  <property name="meta.media.colorspace">601</property>
  <property name="meta.media.color_trc">2</property>
  <property name="meta.media.width">640</property>
  <property name="meta.media.height">427</property>
  <property name="kdenlive:file_size">32880000</property>
  <property name="kdenlive:file_hash">662c55859006b60157216fd97c52b6b9</property>
  <property name="kdenlive:proxy">/home/thoth/.cache/kdenlive/proxy/662c55859006b60157216fd97c52b6b9.mpg</property>
  <property name="proxy_out">273</property>
  <property name="kdenlive:originalurl">2001-07-07-beasty/beastiality-021.dv</property>
  <property name="global_feed">1</property>
  <property name="kdenlive:meta.media.nb_streams">3</property>
  <property name="kdenlive:meta.media.0.stream.type">video</property>
  <property name="kdenlive:meta.media.0.stream.frame_rate">29.97</property>
  <property name="kdenlive:meta.media.0.stream.sample_aspect_ratio">0.888889</property>
  <property name="kdenlive:meta.media.0.codec.width">720</property>
  <property name="kdenlive:meta.media.0.codec.height">480</property>
  <property name="kdenlive:meta.media.0.codec.rotate">0</property>
  <property name="kdenlive:meta.media.0.codec.frame_rate">29.97</property>
  <property name="kdenlive:meta.media.0.codec.pix_fmt">yuv411p</property>
  <property name="kdenlive:meta.media.0.codec.sample_aspect_ratio">0.888889</property>
  <property name="kdenlive:meta.media.0.codec.colorspace">601</property>
  <property name="kdenlive:meta.media.0.codec.name">dvvideo</property>
  <property name="kdenlive:meta.media.0.codec.long_name">DV (Digital Video)</property>
  <property name="kdenlive:meta.media.0.codec.bit_rate">25000000</property>
  <property name="kdenlive:meta.media.1.stream.type">audio</property>
  <property name="kdenlive:meta.media.1.codec.sample_fmt">s16</property>
  <property name="kdenlive:meta.media.1.codec.sample_rate">32000</property>
  <property name="kdenlive:meta.media.1.codec.channels">2</property>
  <property name="kdenlive:meta.media.1.codec.name">pcm_s16le</property>
  <property name="kdenlive:meta.media.1.codec.long_name">PCM signed 16-bit little-endian</property>
  <property name="kdenlive:meta.media.1.codec.bit_rate">1024000</property>
  <property name="kdenlive:meta.media.2.stream.type">audio</property>
  <property name="kdenlive:meta.media.2.codec.sample_fmt">s16</property>
  <property name="kdenlive:meta.media.2.codec.sample_rate">32000</property>
  <property name="kdenlive:meta.media.2.codec.channels">2</property>
  <property name="kdenlive:meta.media.2.codec.name">pcm_s16le</property>
  <property name="kdenlive:meta.media.2.codec.long_name">PCM signed 16-bit little-endian</property>
  <property name="kdenlive:meta.media.2.codec.bit_rate">1024000</property>
  <property name="kdenlive:meta.attr.timecode.markup">00:01:15;03</property>
  <property name="kdenlive:meta.media.sample_aspect_num">8</property>
  <property name="kdenlive:meta.media.sample_aspect_den">9</property>
  <property name="kdenlive:meta.media.frame_rate_num">30000</property>
  <property name="kdenlive:meta.media.frame_rate_den">1001</property>
  <property name="kdenlive:meta.media.colorspace">601</property>
  <property name="kdenlive:meta.media.color_trc">2</property>
  <property name="kdenlive:meta.media.width">720</property>
  <property name="kdenlive:meta.media.height">480</property>
  <property name="meta.media.top_field_first">0</property>
  <property name="meta.media.progressive">1</property>
  <property name="kdenlive:zone_in">31</property>
  <property name="kdenlive:zone_out">111</property>
 </producer>
 <producer id="23" title="Anonymous Submission" out="412" in="0">
  <property name="length">00:00:13;23</property>
  <property name="eof">pause</property>
  <property name="resource">/home/thoth/.cache/kdenlive/proxy/799b970efad9feb73445c485cc644134.mpg</property>
  <property name="meta.media.nb_streams">2</property>
  <property name="meta.media.0.stream.type">video</property>
  <property name="meta.media.0.stream.frame_rate">29.97</property>
  <property name="meta.media.0.stream.sample_aspect_ratio">0</property>
  <property name="meta.media.0.codec.width">640</property>
  <property name="meta.media.0.codec.height">427</property>
  <property name="meta.media.0.codec.rotate">0</property>
  <property name="meta.media.0.codec.frame_rate">29.97</property>
  <property name="meta.media.0.codec.pix_fmt">yuv422p</property>
  <property name="meta.media.0.codec.sample_aspect_ratio">0.889583</property>
  <property name="meta.media.0.codec.colorspace">601</property>
  <property name="meta.media.0.codec.name">mpeg2video</property>
  <property name="meta.media.0.codec.long_name">MPEG-2 video</property>
  <property name="meta.media.0.codec.bit_rate">0</property>
  <property name="meta.media.1.stream.type">audio</property>
  <property name="meta.media.1.codec.sample_fmt">s16p</property>
  <property name="meta.media.1.codec.sample_rate">32000</property>
  <property name="meta.media.1.codec.channels">2</property>
  <property name="meta.media.1.codec.name">mp2</property>
  <property name="meta.media.1.codec.long_name">MP2 (MPEG audio layer 2)</property>
  <property name="meta.media.1.codec.bit_rate">128000</property>
  <property name="seekable">1</property>
  <property name="meta.media.sample_aspect_num">427</property>
  <property name="meta.media.sample_aspect_den">480</property>
  <property name="aspect_ratio">0.889583</property>
  <property name="audio_index">1</property>
  <property name="video_index">0</property>
  <property name="mute_on_pause">1</property>
  <property name="mlt_service">avformat</property>
  <property name="meta.media.2.stream.type">audio</property>
  <property name="meta.media.2.codec.sample_fmt">s16</property>
  <property name="meta.media.2.codec.sample_rate">32000</property>
  <property name="meta.media.2.codec.channels">2</property>
  <property name="meta.media.2.codec.name">pcm_s16le</property>
  <property name="meta.media.2.codec.long_name">PCM signed 16-bit little-endian</property>
  <property name="meta.media.2.codec.bit_rate">1024000</property>
  <property name="meta.attr.timecode.markup">00:01:24;07</property>
  <property name="kdenlive:folderid">-1</property>
  <property name="meta.media.frame_rate_num">30000</property>
  <property name="meta.media.frame_rate_den">1001</property>
  <property name="meta.media.colorspace">601</property>
  <property name="meta.media.color_trc">2</property>
  <property name="meta.media.width">640</property>
  <property name="meta.media.height">427</property>
  <property name="kdenlive:file_size">49560000</property>
  <property name="kdenlive:file_hash">799b970efad9feb73445c485cc644134</property>
  <property name="kdenlive:proxy">/home/thoth/.cache/kdenlive/proxy/799b970efad9feb73445c485cc644134.mpg</property>
  <property name="proxy_out">412</property>
  <property name="kdenlive:originalurl">2001-07-07-beasty/beastiality-022.dv</property>
  <property name="global_feed">1</property>
  <property name="kdenlive:meta.media.nb_streams">3</property>
  <property name="kdenlive:meta.media.0.stream.type">video</property>
  <property name="kdenlive:meta.media.0.stream.frame_rate">29.97</property>
  <property name="kdenlive:meta.media.0.stream.sample_aspect_ratio">0.888889</property>
  <property name="kdenlive:meta.media.0.codec.width">720</property>
  <property name="kdenlive:meta.media.0.codec.height">480</property>
  <property name="kdenlive:meta.media.0.codec.rotate">0</property>
  <property name="kdenlive:meta.media.0.codec.frame_rate">29.97</property>
  <property name="kdenlive:meta.media.0.codec.pix_fmt">yuv411p</property>
  <property name="kdenlive:meta.media.0.codec.sample_aspect_ratio">0.888889</property>
  <property name="kdenlive:meta.media.0.codec.colorspace">601</property>
  <property name="kdenlive:meta.media.0.codec.name">dvvideo</property>
  <property name="kdenlive:meta.media.0.codec.long_name">DV (Digital Video)</property>
  <property name="kdenlive:meta.media.0.codec.bit_rate">25000000</property>
  <property name="kdenlive:meta.media.1.stream.type">audio</property>
  <property name="kdenlive:meta.media.1.codec.sample_fmt">s16</property>
  <property name="kdenlive:meta.media.1.codec.sample_rate">32000</property>
  <property name="kdenlive:meta.media.1.codec.channels">2</property>
  <property name="kdenlive:meta.media.1.codec.name">pcm_s16le</property>
  <property name="kdenlive:meta.media.1.codec.long_name">PCM signed 16-bit little-endian</property>
  <property name="kdenlive:meta.media.1.codec.bit_rate">1024000</property>
  <property name="kdenlive:meta.media.2.stream.type">audio</property>
  <property name="kdenlive:meta.media.2.codec.sample_fmt">s16</property>
  <property name="kdenlive:meta.media.2.codec.sample_rate">32000</property>
  <property name="kdenlive:meta.media.2.codec.channels">2</property>
  <property name="kdenlive:meta.media.2.codec.name">pcm_s16le</property>
  <property name="kdenlive:meta.media.2.codec.long_name">PCM signed 16-bit little-endian</property>
  <property name="kdenlive:meta.media.2.codec.bit_rate">1024000</property>
  <property name="kdenlive:meta.attr.timecode.markup">00:01:24;07</property>
  <property name="kdenlive:meta.media.sample_aspect_num">8</property>
  <property name="kdenlive:meta.media.sample_aspect_den">9</property>
  <property name="kdenlive:meta.media.frame_rate_num">30000</property>
  <property name="kdenlive:meta.media.frame_rate_den">1001</property>
  <property name="kdenlive:meta.media.colorspace">601</property>
  <property name="kdenlive:meta.media.color_trc">2</property>
  <property name="kdenlive:meta.media.width">720</property>
  <property name="kdenlive:meta.media.height">480</property>
  <property name="meta.media.top_field_first">0</property>
  <property name="meta.media.progressive">1</property>
  <property name="kdenlive:zone_in">49</property>
  <property name="kdenlive:zone_out">382</property>
 </producer>
 <producer id="25" title="Anonymous Submission" out="185" in="0">
  <property name="length">00:00:06;06</property>
  <property name="eof">pause</property>
  <property name="resource">/home/thoth/.cache/kdenlive/proxy/1b313d1bdbf0bb3a326bd70a6a0f9e00.mpg</property>
  <property name="meta.media.nb_streams">2</property>
  <property name="meta.media.0.stream.type">video</property>
  <property name="meta.media.0.stream.frame_rate">29.97</property>
  <property name="meta.media.0.stream.sample_aspect_ratio">0</property>
  <property name="meta.media.0.codec.width">640</property>
  <property name="meta.media.0.codec.height">427</property>
  <property name="meta.media.0.codec.rotate">0</property>
  <property name="meta.media.0.codec.frame_rate">29.97</property>
  <property name="meta.media.0.codec.pix_fmt">yuv422p</property>
  <property name="meta.media.0.codec.sample_aspect_ratio">0.889583</property>
  <property name="meta.media.0.codec.colorspace">601</property>
  <property name="meta.media.0.codec.name">mpeg2video</property>
  <property name="meta.media.0.codec.long_name">MPEG-2 video</property>
  <property name="meta.media.0.codec.bit_rate">0</property>
  <property name="meta.media.1.stream.type">audio</property>
  <property name="meta.media.1.codec.sample_fmt">s16p</property>
  <property name="meta.media.1.codec.sample_rate">32000</property>
  <property name="meta.media.1.codec.channels">2</property>
  <property name="meta.media.1.codec.name">mp2</property>
  <property name="meta.media.1.codec.long_name">MP2 (MPEG audio layer 2)</property>
  <property name="meta.media.1.codec.bit_rate">128000</property>
  <property name="seekable">1</property>
  <property name="meta.media.sample_aspect_num">427</property>
  <property name="meta.media.sample_aspect_den">480</property>
  <property name="aspect_ratio">0.889583</property>
  <property name="audio_index">1</property>
  <property name="video_index">0</property>
  <property name="mute_on_pause">1</property>
  <property name="mlt_service">avformat</property>
  <property name="meta.media.2.stream.type">audio</property>
  <property name="meta.media.2.codec.sample_fmt">s16</property>
  <property name="meta.media.2.codec.sample_rate">32000</property>
  <property name="meta.media.2.codec.channels">2</property>
  <property name="meta.media.2.codec.name">pcm_s16le</property>
  <property name="meta.media.2.codec.long_name">PCM signed 16-bit little-endian</property>
  <property name="meta.media.2.codec.bit_rate">1024000</property>
  <property name="meta.attr.timecode.markup">00:03:51;05</property>
  <property name="kdenlive:folderid">-1</property>
  <property name="meta.media.frame_rate_num">30000</property>
  <property name="meta.media.frame_rate_den">1001</property>
  <property name="meta.media.colorspace">601</property>
  <property name="meta.media.color_trc">2</property>
  <property name="meta.media.width">640</property>
  <property name="meta.media.height">427</property>
  <property name="kdenlive:file_size">22320000</property>
  <property name="kdenlive:file_hash">1b313d1bdbf0bb3a326bd70a6a0f9e00</property>
  <property name="kdenlive:proxy">/home/thoth/.cache/kdenlive/proxy/1b313d1bdbf0bb3a326bd70a6a0f9e00.mpg</property>
  <property name="proxy_out">185</property>
  <property name="kdenlive:originalurl">2001-07-07-beasty/beastiality-031.dv</property>
  <property name="global_feed">1</property>
  <property name="kdenlive:meta.media.nb_streams">3</property>
  <property name="kdenlive:meta.media.0.stream.type">video</property>
  <property name="kdenlive:meta.media.0.stream.frame_rate">29.97</property>
  <property name="kdenlive:meta.media.0.stream.sample_aspect_ratio">0.888889</property>
  <property name="kdenlive:meta.media.0.codec.width">720</property>
  <property name="kdenlive:meta.media.0.codec.height">480</property>
  <property name="kdenlive:meta.media.0.codec.rotate">0</property>
  <property name="kdenlive:meta.media.0.codec.frame_rate">29.97</property>
  <property name="kdenlive:meta.media.0.codec.pix_fmt">yuv411p</property>
  <property name="kdenlive:meta.media.0.codec.sample_aspect_ratio">0.888889</property>
  <property name="kdenlive:meta.media.0.codec.colorspace">601</property>
  <property name="kdenlive:meta.media.0.codec.name">dvvideo</property>
  <property name="kdenlive:meta.media.0.codec.long_name">DV (Digital Video)</property>
  <property name="kdenlive:meta.media.0.codec.bit_rate">25000000</property>
  <property name="kdenlive:meta.media.1.stream.type">audio</property>
  <property name="kdenlive:meta.media.1.codec.sample_fmt">s16</property>
  <property name="kdenlive:meta.media.1.codec.sample_rate">32000</property>
  <property name="kdenlive:meta.media.1.codec.channels">2</property>
  <property name="kdenlive:meta.media.1.codec.name">pcm_s16le</property>
  <property name="kdenlive:meta.media.1.codec.long_name">PCM signed 16-bit little-endian</property>
  <property name="kdenlive:meta.media.1.codec.bit_rate">1024000</property>
  <property name="kdenlive:meta.media.2.stream.type">audio</property>
  <property name="kdenlive:meta.media.2.codec.sample_fmt">s16</property>
  <property name="kdenlive:meta.media.2.codec.sample_rate">32000</property>
  <property name="kdenlive:meta.media.2.codec.channels">2</property>
  <property name="kdenlive:meta.media.2.codec.name">pcm_s16le</property>
  <property name="kdenlive:meta.media.2.codec.long_name">PCM signed 16-bit little-endian</property>
  <property name="kdenlive:meta.media.2.codec.bit_rate">1024000</property>
  <property name="kdenlive:meta.attr.timecode.markup">00:03:51;05</property>
  <property name="kdenlive:meta.media.sample_aspect_num">8</property>
  <property name="kdenlive:meta.media.sample_aspect_den">9</property>
  <property name="kdenlive:meta.media.frame_rate_num">30000</property>
  <property name="kdenlive:meta.media.frame_rate_den">1001</property>
  <property name="kdenlive:meta.media.colorspace">601</property>
  <property name="kdenlive:meta.media.color_trc">2</property>
  <property name="kdenlive:meta.media.width">720</property>
  <property name="kdenlive:meta.media.height">480</property>
  <property name="meta.media.top_field_first">0</property>
  <property name="meta.media.progressive">1</property>
 </producer>
 <producer id="24" title="Anonymous Submission" out="649" in="0">
  <property name="length">00:00:21;20</property>
  <property name="eof">pause</property>
  <property name="resource">/home/thoth/.cache/kdenlive/proxy/ea17850f2ffb694f06ff1385a14d190b.mpg</property>
  <property name="meta.media.nb_streams">2</property>
  <property name="meta.media.0.stream.type">video</property>
  <property name="meta.media.0.stream.frame_rate">29.97</property>
  <property name="meta.media.0.stream.sample_aspect_ratio">0</property>
  <property name="meta.media.0.codec.width">640</property>
  <property name="meta.media.0.codec.height">427</property>
  <property name="meta.media.0.codec.rotate">0</property>
  <property name="meta.media.0.codec.frame_rate">29.97</property>
  <property name="meta.media.0.codec.pix_fmt">yuv422p</property>
  <property name="meta.media.0.codec.sample_aspect_ratio">0.889583</property>
  <property name="meta.media.0.codec.colorspace">601</property>
  <property name="meta.media.0.codec.name">mpeg2video</property>
  <property name="meta.media.0.codec.long_name">MPEG-2 video</property>
  <property name="meta.media.0.codec.bit_rate">0</property>
  <property name="meta.media.1.stream.type">audio</property>
  <property name="meta.media.1.codec.sample_fmt">s16p</property>
  <property name="meta.media.1.codec.sample_rate">32000</property>
  <property name="meta.media.1.codec.channels">2</property>
  <property name="meta.media.1.codec.name">mp2</property>
  <property name="meta.media.1.codec.long_name">MP2 (MPEG audio layer 2)</property>
  <property name="meta.media.1.codec.bit_rate">128000</property>
  <property name="seekable">1</property>
  <property name="meta.media.sample_aspect_num">427</property>
  <property name="meta.media.sample_aspect_den">480</property>
  <property name="aspect_ratio">0.889583</property>
  <property name="audio_index">1</property>
  <property name="video_index">0</property>
  <property name="mute_on_pause">1</property>
  <property name="mlt_service">avformat</property>
  <property name="meta.media.2.stream.type">audio</property>
  <property name="meta.media.2.codec.sample_fmt">s16</property>
  <property name="meta.media.2.codec.sample_rate">32000</property>
  <property name="meta.media.2.codec.channels">2</property>
  <property name="meta.media.2.codec.name">pcm_s16le</property>
  <property name="meta.media.2.codec.long_name">PCM signed 16-bit little-endian</property>
  <property name="meta.media.2.codec.bit_rate">1024000</property>
  <property name="meta.attr.timecode.markup">00:01:38;00</property>
  <property name="kdenlive:folderid">-1</property>
  <property name="meta.media.frame_rate_num">30000</property>
  <property name="meta.media.frame_rate_den">1001</property>
  <property name="meta.media.colorspace">601</property>
  <property name="meta.media.color_trc">2</property>
  <property name="meta.media.width">640</property>
  <property name="meta.media.height">427</property>
  <property name="kdenlive:file_size">79440000</property>
  <property name="kdenlive:file_hash">ea17850f2ffb694f06ff1385a14d190b</property>
  <property name="kdenlive:proxy">/home/thoth/.cache/kdenlive/proxy/ea17850f2ffb694f06ff1385a14d190b.mpg</property>
  <property name="proxy_out">661</property>
  <property name="kdenlive:originalurl">2001-07-07-beasty/beastiality-023.dv</property>
  <property name="global_feed">1</property>
  <property name="kdenlive:meta.media.nb_streams">3</property>
  <property name="kdenlive:meta.media.0.stream.type">video</property>
  <property name="kdenlive:meta.media.0.stream.frame_rate">29.97</property>
  <property name="kdenlive:meta.media.0.stream.sample_aspect_ratio">0.888889</property>
  <property name="kdenlive:meta.media.0.codec.width">720</property>
  <property name="kdenlive:meta.media.0.codec.height">480</property>
  <property name="kdenlive:meta.media.0.codec.rotate">0</property>
  <property name="kdenlive:meta.media.0.codec.frame_rate">29.97</property>
  <property name="kdenlive:meta.media.0.codec.pix_fmt">yuv411p</property>
  <property name="kdenlive:meta.media.0.codec.sample_aspect_ratio">0.888889</property>
  <property name="kdenlive:meta.media.0.codec.colorspace">601</property>
  <property name="kdenlive:meta.media.0.codec.name">dvvideo</property>
  <property name="kdenlive:meta.media.0.codec.long_name">DV (Digital Video)</property>
  <property name="kdenlive:meta.media.0.codec.bit_rate">25000000</property>
  <property name="kdenlive:meta.media.1.stream.type">audio</property>
  <property name="kdenlive:meta.media.1.codec.sample_fmt">s16</property>
  <property name="kdenlive:meta.media.1.codec.sample_rate">32000</property>
  <property name="kdenlive:meta.media.1.codec.channels">2</property>
  <property name="kdenlive:meta.media.1.codec.name">pcm_s16le</property>
  <property name="kdenlive:meta.media.1.codec.long_name">PCM signed 16-bit little-endian</property>
  <property name="kdenlive:meta.media.1.codec.bit_rate">1024000</property>
  <property name="kdenlive:meta.media.2.stream.type">audio</property>
  <property name="kdenlive:meta.media.2.codec.sample_fmt">s16</property>
  <property name="kdenlive:meta.media.2.codec.sample_rate">32000</property>
  <property name="kdenlive:meta.media.2.codec.channels">2</property>
  <property name="kdenlive:meta.media.2.codec.name">pcm_s16le</property>
  <property name="kdenlive:meta.media.2.codec.long_name">PCM signed 16-bit little-endian</property>
  <property name="kdenlive:meta.media.2.codec.bit_rate">1024000</property>
  <property name="kdenlive:meta.attr.timecode.markup">00:01:38;00</property>
  <property name="kdenlive:meta.media.sample_aspect_num">8</property>
  <property name="kdenlive:meta.media.sample_aspect_den">9</property>
  <property name="kdenlive:meta.media.frame_rate_num">30000</property>
  <property name="kdenlive:meta.media.frame_rate_den">1001</property>
  <property name="kdenlive:meta.media.colorspace">601</property>
  <property name="kdenlive:meta.media.color_trc">2</property>
  <property name="kdenlive:meta.media.width">720</property>
  <property name="kdenlive:meta.media.height">480</property>
  <property name="meta.media.top_field_first">0</property>
  <property name="meta.media.progressive">1</property>
  <property name="kdenlive:zone_in">303</property>
  <property name="kdenlive:zone_out">368</property>
 </producer>
 <producer id="26" title="Anonymous Submission" out="163" in="0">
  <property name="length">00:00:05;14</property>
  <property name="eof">pause</property>
  <property name="resource">/home/thoth/.cache/kdenlive/proxy/0c1dc1c099e3a96b622dca97b4aec978.mpg</property>
  <property name="meta.media.nb_streams">2</property>
  <property name="meta.media.0.stream.type">video</property>
  <property name="meta.media.0.stream.frame_rate">29.97</property>
  <property name="meta.media.0.stream.sample_aspect_ratio">0</property>
  <property name="meta.media.0.codec.width">640</property>
  <property name="meta.media.0.codec.height">427</property>
  <property name="meta.media.0.codec.rotate">0</property>
  <property name="meta.media.0.codec.frame_rate">29.97</property>
  <property name="meta.media.0.codec.pix_fmt">yuv422p</property>
  <property name="meta.media.0.codec.sample_aspect_ratio">0.889583</property>
  <property name="meta.media.0.codec.colorspace">601</property>
  <property name="meta.media.0.codec.name">mpeg2video</property>
  <property name="meta.media.0.codec.long_name">MPEG-2 video</property>
  <property name="meta.media.0.codec.bit_rate">0</property>
  <property name="meta.media.1.stream.type">audio</property>
  <property name="meta.media.1.codec.sample_fmt">s16p</property>
  <property name="meta.media.1.codec.sample_rate">32000</property>
  <property name="meta.media.1.codec.channels">2</property>
  <property name="meta.media.1.codec.name">mp2</property>
  <property name="meta.media.1.codec.long_name">MP2 (MPEG audio layer 2)</property>
  <property name="meta.media.1.codec.bit_rate">128000</property>
  <property name="seekable">1</property>
  <property name="meta.media.sample_aspect_num">427</property>
  <property name="meta.media.sample_aspect_den">480</property>
  <property name="aspect_ratio">0.889583</property>
  <property name="audio_index">1</property>
  <property name="video_index">0</property>
  <property name="mute_on_pause">1</property>
  <property name="mlt_service">avformat</property>
  <property name="meta.media.2.stream.type">audio</property>
  <property name="meta.media.2.codec.sample_fmt">s16</property>
  <property name="meta.media.2.codec.sample_rate">32000</property>
  <property name="meta.media.2.codec.channels">2</property>
  <property name="meta.media.2.codec.name">pcm_s16le</property>
  <property name="meta.media.2.codec.long_name">PCM signed 16-bit little-endian</property>
  <property name="meta.media.2.codec.bit_rate">1024000</property>
  <property name="meta.attr.timecode.markup">00:03:57;11</property>
  <property name="kdenlive:folderid">-1</property>
  <property name="meta.media.frame_rate_num">30000</property>
  <property name="meta.media.frame_rate_den">1001</property>
  <property name="meta.media.colorspace">601</property>
  <property name="meta.media.color_trc">2</property>
  <property name="meta.media.width">640</property>
  <property name="meta.media.height">427</property>
  <property name="kdenlive:file_size">19680000</property>
  <property name="kdenlive:file_hash">0c1dc1c099e3a96b622dca97b4aec978</property>
  <property name="kdenlive:proxy">/home/thoth/.cache/kdenlive/proxy/0c1dc1c099e3a96b622dca97b4aec978.mpg</property>
  <property name="proxy_out">163</property>
  <property name="kdenlive:originalurl">2001-07-07-beasty/beastiality-032.dv</property>
  <property name="global_feed">1</property>
  <property name="kdenlive:meta.media.nb_streams">3</property>
  <property name="kdenlive:meta.media.0.stream.type">video</property>
  <property name="kdenlive:meta.media.0.stream.frame_rate">29.97</property>
  <property name="kdenlive:meta.media.0.stream.sample_aspect_ratio">0.888889</property>
  <property name="kdenlive:meta.media.0.codec.width">720</property>
  <property name="kdenlive:meta.media.0.codec.height">480</property>
  <property name="kdenlive:meta.media.0.codec.rotate">0</property>
  <property name="kdenlive:meta.media.0.codec.frame_rate">29.97</property>
  <property name="kdenlive:meta.media.0.codec.pix_fmt">yuv411p</property>
  <property name="kdenlive:meta.media.0.codec.sample_aspect_ratio">0.888889</property>
  <property name="kdenlive:meta.media.0.codec.colorspace">601</property>
  <property name="kdenlive:meta.media.0.codec.name">dvvideo</property>
  <property name="kdenlive:meta.media.0.codec.long_name">DV (Digital Video)</property>
  <property name="kdenlive:meta.media.0.codec.bit_rate">25000000</property>
  <property name="kdenlive:meta.media.1.stream.type">audio</property>
  <property name="kdenlive:meta.media.1.codec.sample_fmt">s16</property>
  <property name="kdenlive:meta.media.1.codec.sample_rate">32000</property>
  <property name="kdenlive:meta.media.1.codec.channels">2</property>
  <property name="kdenlive:meta.media.1.codec.name">pcm_s16le</property>
  <property name="kdenlive:meta.media.1.codec.long_name">PCM signed 16-bit little-endian</property>
  <property name="kdenlive:meta.media.1.codec.bit_rate">1024000</property>
  <property name="kdenlive:meta.media.2.stream.type">audio</property>
  <property name="kdenlive:meta.media.2.codec.sample_fmt">s16</property>
  <property name="kdenlive:meta.media.2.codec.sample_rate">32000</property>
  <property name="kdenlive:meta.media.2.codec.channels">2</property>
  <property name="kdenlive:meta.media.2.codec.name">pcm_s16le</property>
  <property name="kdenlive:meta.media.2.codec.long_name">PCM signed 16-bit little-endian</property>
  <property name="kdenlive:meta.media.2.codec.bit_rate">1024000</property>
  <property name="kdenlive:meta.attr.timecode.markup">00:03:57;11</property>
  <property name="kdenlive:meta.media.sample_aspect_num">8</property>
  <property name="kdenlive:meta.media.sample_aspect_den">9</property>
  <property name="kdenlive:meta.media.frame_rate_num">30000</property>
  <property name="kdenlive:meta.media.frame_rate_den">1001</property>
  <property name="kdenlive:meta.media.colorspace">601</property>
  <property name="kdenlive:meta.media.color_trc">2</property>
  <property name="kdenlive:meta.media.width">720</property>
  <property name="kdenlive:meta.media.height">480</property>
  <property name="meta.media.top_field_first">0</property>
  <property name="meta.media.progressive">1</property>
  <property name="kdenlive:zone_in">78</property>
  <property name="kdenlive:zone_out">163</property>
 </producer>
 <producer id="28" title="Anonymous Submission" out="263" in="0">
  <property name="length">00:00:08;24</property>
  <property name="eof">pause</property>
  <property name="resource">/home/thoth/.cache/kdenlive/proxy/61ac5b82e70946bf5228db1235ecc5c0.mpg</property>
  <property name="meta.media.nb_streams">2</property>
  <property name="meta.media.0.stream.type">video</property>
  <property name="meta.media.0.stream.frame_rate">29.97</property>
  <property name="meta.media.0.stream.sample_aspect_ratio">0</property>
  <property name="meta.media.0.codec.width">640</property>
  <property name="meta.media.0.codec.height">427</property>
  <property name="meta.media.0.codec.rotate">0</property>
  <property name="meta.media.0.codec.frame_rate">29.97</property>
  <property name="meta.media.0.codec.pix_fmt">yuv422p</property>
  <property name="meta.media.0.codec.sample_aspect_ratio">0.889583</property>
  <property name="meta.media.0.codec.colorspace">601</property>
  <property name="meta.media.0.codec.name">mpeg2video</property>
  <property name="meta.media.0.codec.long_name">MPEG-2 video</property>
  <property name="meta.media.0.codec.bit_rate">0</property>
  <property name="meta.media.1.stream.type">audio</property>
  <property name="meta.media.1.codec.sample_fmt">s16p</property>
  <property name="meta.media.1.codec.sample_rate">32000</property>
  <property name="meta.media.1.codec.channels">2</property>
  <property name="meta.media.1.codec.name">mp2</property>
  <property name="meta.media.1.codec.long_name">MP2 (MPEG audio layer 2)</property>
  <property name="meta.media.1.codec.bit_rate">128000</property>
  <property name="seekable">1</property>
  <property name="meta.media.sample_aspect_num">427</property>
  <property name="meta.media.sample_aspect_den">480</property>
  <property name="aspect_ratio">0.889583</property>
  <property name="audio_index">1</property>
  <property name="video_index">0</property>
  <property name="mute_on_pause">1</property>
  <property name="mlt_service">avformat</property>
  <property name="meta.media.2.stream.type">audio</property>
  <property name="meta.media.2.codec.sample_fmt">s16</property>
  <property name="meta.media.2.codec.sample_rate">32000</property>
  <property name="meta.media.2.codec.channels">2</property>
  <property name="meta.media.2.codec.name">pcm_s16le</property>
  <property name="meta.media.2.codec.long_name">PCM signed 16-bit little-endian</property>
  <property name="meta.media.2.codec.bit_rate">1024000</property>
  <property name="meta.attr.timecode.markup">00:00:15;21</property>
  <property name="kdenlive:folderid">-1</property>
  <property name="meta.media.frame_rate_num">30000</property>
  <property name="meta.media.frame_rate_den">1001</property>
  <property name="meta.media.colorspace">601</property>
  <property name="meta.media.color_trc">2</property>
  <property name="meta.media.width">640</property>
  <property name="meta.media.height">427</property>
  <property name="kdenlive:file_size">31680000</property>
  <property name="kdenlive:file_hash">61ac5b82e70946bf5228db1235ecc5c0</property>
  <property name="kdenlive:proxy">/home/thoth/.cache/kdenlive/proxy/61ac5b82e70946bf5228db1235ecc5c0.mpg</property>
  <property name="proxy_out">263</property>
  <property name="kdenlive:originalurl">2001-07-07-beasty/beastiality-034.dv</property>
  <property name="global_feed">1</property>
  <property name="kdenlive:meta.media.nb_streams">3</property>
  <property name="kdenlive:meta.media.0.stream.type">video</property>
  <property name="kdenlive:meta.media.0.stream.frame_rate">29.97</property>
  <property name="kdenlive:meta.media.0.stream.sample_aspect_ratio">0.888889</property>
  <property name="kdenlive:meta.media.0.codec.width">720</property>
  <property name="kdenlive:meta.media.0.codec.height">480</property>
  <property name="kdenlive:meta.media.0.codec.rotate">0</property>
  <property name="kdenlive:meta.media.0.codec.frame_rate">29.97</property>
  <property name="kdenlive:meta.media.0.codec.pix_fmt">yuv411p</property>
  <property name="kdenlive:meta.media.0.codec.sample_aspect_ratio">0.888889</property>
  <property name="kdenlive:meta.media.0.codec.colorspace">601</property>
  <property name="kdenlive:meta.media.0.codec.name">dvvideo</property>
  <property name="kdenlive:meta.media.0.codec.long_name">DV (Digital Video)</property>
  <property name="kdenlive:meta.media.0.codec.bit_rate">25000000</property>
  <property name="kdenlive:meta.media.1.stream.type">audio</property>
  <property name="kdenlive:meta.media.1.codec.sample_fmt">s16</property>
  <property name="kdenlive:meta.media.1.codec.sample_rate">32000</property>
  <property name="kdenlive:meta.media.1.codec.channels">2</property>
  <property name="kdenlive:meta.media.1.codec.name">pcm_s16le</property>
  <property name="kdenlive:meta.media.1.codec.long_name">PCM signed 16-bit little-endian</property>
  <property name="kdenlive:meta.media.1.codec.bit_rate">1024000</property>
  <property name="kdenlive:meta.media.2.stream.type">audio</property>
  <property name="kdenlive:meta.media.2.codec.sample_fmt">s16</property>
  <property name="kdenlive:meta.media.2.codec.sample_rate">32000</property>
  <property name="kdenlive:meta.media.2.codec.channels">2</property>
  <property name="kdenlive:meta.media.2.codec.name">pcm_s16le</property>
  <property name="kdenlive:meta.media.2.codec.long_name">PCM signed 16-bit little-endian</property>
  <property name="kdenlive:meta.media.2.codec.bit_rate">1024000</property>
  <property name="kdenlive:meta.attr.timecode.markup">00:00:15;21</property>
  <property name="kdenlive:meta.media.sample_aspect_num">8</property>
  <property name="kdenlive:meta.media.sample_aspect_den">9</property>
  <property name="kdenlive:meta.media.frame_rate_num">30000</property>
  <property name="kdenlive:meta.media.frame_rate_den">1001</property>
  <property name="kdenlive:meta.media.colorspace">601</property>
  <property name="kdenlive:meta.media.color_trc">2</property>
  <property name="kdenlive:meta.media.width">720</property>
  <property name="kdenlive:meta.media.height">480</property>
  <property name="meta.media.top_field_first">0</property>
  <property name="meta.media.progressive">1</property>
  <property name="kdenlive:zone_in">60</property>
  <property name="kdenlive:zone_out">168</property>
 </producer>
 <producer id="27" title="Anonymous Submission" out="665" in="0">
  <property name="length">00:00:22;06</property>
  <property name="eof">pause</property>
  <property name="resource">/home/thoth/.cache/kdenlive/proxy/f2b7bd9d788ecd8e30b1bc5c4940afa0.mpg</property>
  <property name="meta.media.nb_streams">2</property>
  <property name="meta.media.0.stream.type">video</property>
  <property name="meta.media.0.stream.frame_rate">29.97</property>
  <property name="meta.media.0.stream.sample_aspect_ratio">0</property>
  <property name="meta.media.0.codec.width">640</property>
  <property name="meta.media.0.codec.height">427</property>
  <property name="meta.media.0.codec.rotate">0</property>
  <property name="meta.media.0.codec.frame_rate">29.97</property>
  <property name="meta.media.0.codec.pix_fmt">yuv422p</property>
  <property name="meta.media.0.codec.sample_aspect_ratio">0.889583</property>
  <property name="meta.media.0.codec.colorspace">601</property>
  <property name="meta.media.0.codec.name">mpeg2video</property>
  <property name="meta.media.0.codec.long_name">MPEG-2 video</property>
  <property name="meta.media.0.codec.bit_rate">0</property>
  <property name="meta.media.1.stream.type">audio</property>
  <property name="meta.media.1.codec.sample_fmt">s16p</property>
  <property name="meta.media.1.codec.sample_rate">32000</property>
  <property name="meta.media.1.codec.channels">2</property>
  <property name="meta.media.1.codec.name">mp2</property>
  <property name="meta.media.1.codec.long_name">MP2 (MPEG audio layer 2)</property>
  <property name="meta.media.1.codec.bit_rate">128000</property>
  <property name="seekable">1</property>
  <property name="meta.media.sample_aspect_num">427</property>
  <property name="meta.media.sample_aspect_den">480</property>
  <property name="aspect_ratio">0.889583</property>
  <property name="audio_index">1</property>
  <property name="video_index">0</property>
  <property name="mute_on_pause">1</property>
  <property name="mlt_service">avformat</property>
  <property name="meta.media.2.stream.type">audio</property>
  <property name="meta.media.2.codec.sample_fmt">s16</property>
  <property name="meta.media.2.codec.sample_rate">32000</property>
  <property name="meta.media.2.codec.channels">2</property>
  <property name="meta.media.2.codec.name">pcm_s16le</property>
  <property name="meta.media.2.codec.long_name">PCM signed 16-bit little-endian</property>
  <property name="meta.media.2.codec.bit_rate">1024000</property>
  <property name="meta.attr.timecode.markup">00:04:02;27</property>
  <property name="kdenlive:folderid">-1</property>
  <property name="meta.media.frame_rate_num">30000</property>
  <property name="meta.media.frame_rate_den">1001</property>
  <property name="meta.media.colorspace">601</property>
  <property name="meta.media.color_trc">2</property>
  <property name="meta.media.width">640</property>
  <property name="meta.media.height">427</property>
  <property name="kdenlive:file_size">81360000</property>
  <property name="kdenlive:file_hash">f2b7bd9d788ecd8e30b1bc5c4940afa0</property>
  <property name="kdenlive:proxy">/home/thoth/.cache/kdenlive/proxy/f2b7bd9d788ecd8e30b1bc5c4940afa0.mpg</property>
  <property name="proxy_out">677</property>
  <property name="kdenlive:originalurl">2001-07-07-beasty/beastiality-033.dv</property>
  <property name="global_feed">1</property>
  <property name="kdenlive:meta.media.nb_streams">3</property>
  <property name="kdenlive:meta.media.0.stream.type">video</property>
  <property name="kdenlive:meta.media.0.stream.frame_rate">29.97</property>
  <property name="kdenlive:meta.media.0.stream.sample_aspect_ratio">0.888889</property>
  <property name="kdenlive:meta.media.0.codec.width">720</property>
  <property name="kdenlive:meta.media.0.codec.height">480</property>
  <property name="kdenlive:meta.media.0.codec.rotate">0</property>
  <property name="kdenlive:meta.media.0.codec.frame_rate">29.97</property>
  <property name="kdenlive:meta.media.0.codec.pix_fmt">yuv411p</property>
  <property name="kdenlive:meta.media.0.codec.sample_aspect_ratio">0.888889</property>
  <property name="kdenlive:meta.media.0.codec.colorspace">601</property>
  <property name="kdenlive:meta.media.0.codec.name">dvvideo</property>
  <property name="kdenlive:meta.media.0.codec.long_name">DV (Digital Video)</property>
  <property name="kdenlive:meta.media.0.codec.bit_rate">25000000</property>
  <property name="kdenlive:meta.media.1.stream.type">audio</property>
  <property name="kdenlive:meta.media.1.codec.sample_fmt">s16</property>
  <property name="kdenlive:meta.media.1.codec.sample_rate">32000</property>
  <property name="kdenlive:meta.media.1.codec.channels">2</property>
  <property name="kdenlive:meta.media.1.codec.name">pcm_s16le</property>
  <property name="kdenlive:meta.media.1.codec.long_name">PCM signed 16-bit little-endian</property>
  <property name="kdenlive:meta.media.1.codec.bit_rate">1024000</property>
  <property name="kdenlive:meta.media.2.stream.type">audio</property>
  <property name="kdenlive:meta.media.2.codec.sample_fmt">s16</property>
  <property name="kdenlive:meta.media.2.codec.sample_rate">32000</property>
  <property name="kdenlive:meta.media.2.codec.channels">2</property>
  <property name="kdenlive:meta.media.2.codec.name">pcm_s16le</property>
  <property name="kdenlive:meta.media.2.codec.long_name">PCM signed 16-bit little-endian</property>
  <property name="kdenlive:meta.media.2.codec.bit_rate">1024000</property>
  <property name="kdenlive:meta.attr.timecode.markup">00:04:02;27</property>
  <property name="kdenlive:meta.media.sample_aspect_num">8</property>
  <property name="kdenlive:meta.media.sample_aspect_den">9</property>
  <property name="kdenlive:meta.media.frame_rate_num">30000</property>
  <property name="kdenlive:meta.media.frame_rate_den">1001</property>
  <property name="kdenlive:meta.media.colorspace">601</property>
  <property name="kdenlive:meta.media.color_trc">2</property>
  <property name="kdenlive:meta.media.width">720</property>
  <property name="kdenlive:meta.media.height">480</property>
  <property name="meta.media.top_field_first">0</property>
  <property name="meta.media.progressive">1</property>
  <property name="kdenlive:zone_in">263</property>
  <property name="kdenlive:zone_out">625</property>
 </producer>
 <producer id="29" title="Anonymous Submission" out="577" in="0">
  <property name="length">00:00:19;08</property>
  <property name="eof">pause</property>
  <property name="resource">/home/thoth/.cache/kdenlive/proxy/2daef063f3bd965be0dc9dab9225975a.mpg</property>
  <property name="meta.media.nb_streams">2</property>
  <property name="meta.media.0.stream.type">video</property>
  <property name="meta.media.0.stream.frame_rate">29.97</property>
  <property name="meta.media.0.stream.sample_aspect_ratio">0</property>
  <property name="meta.media.0.codec.width">640</property>
  <property name="meta.media.0.codec.height">427</property>
  <property name="meta.media.0.codec.rotate">0</property>
  <property name="meta.media.0.codec.frame_rate">29.97</property>
  <property name="meta.media.0.codec.pix_fmt">yuv422p</property>
  <property name="meta.media.0.codec.sample_aspect_ratio">0.889583</property>
  <property name="meta.media.0.codec.colorspace">601</property>
  <property name="meta.media.0.codec.name">mpeg2video</property>
  <property name="meta.media.0.codec.long_name">MPEG-2 video</property>
  <property name="meta.media.0.codec.bit_rate">0</property>
  <property name="meta.media.1.stream.type">audio</property>
  <property name="meta.media.1.codec.sample_fmt">s16p</property>
  <property name="meta.media.1.codec.sample_rate">32000</property>
  <property name="meta.media.1.codec.channels">2</property>
  <property name="meta.media.1.codec.name">mp2</property>
  <property name="meta.media.1.codec.long_name">MP2 (MPEG audio layer 2)</property>
  <property name="meta.media.1.codec.bit_rate">128000</property>
  <property name="seekable">1</property>
  <property name="meta.media.sample_aspect_num">427</property>
  <property name="meta.media.sample_aspect_den">480</property>
  <property name="aspect_ratio">0.889583</property>
  <property name="audio_index">1</property>
  <property name="video_index">0</property>
  <property name="mute_on_pause">1</property>
  <property name="mlt_service">avformat</property>
  <property name="meta.media.2.stream.type">audio</property>
  <property name="meta.media.2.codec.sample_fmt">s16</property>
  <property name="meta.media.2.codec.sample_rate">32000</property>
  <property name="meta.media.2.codec.channels">2</property>
  <property name="meta.media.2.codec.name">pcm_s16le</property>
  <property name="meta.media.2.codec.long_name">PCM signed 16-bit little-endian</property>
  <property name="meta.media.2.codec.bit_rate">1024000</property>
  <property name="meta.attr.timecode.markup">00:00:07;19</property>
  <property name="kdenlive:folderid">-1</property>
  <property name="meta.media.frame_rate_num">30000</property>
  <property name="meta.media.frame_rate_den">1001</property>
  <property name="meta.media.colorspace">601</property>
  <property name="meta.media.color_trc">2</property>
  <property name="meta.media.width">640</property>
  <property name="meta.media.height">427</property>
  <property name="kdenlive:file_size">70800000</property>
  <property name="kdenlive:file_hash">2daef063f3bd965be0dc9dab9225975a</property>
  <property name="kdenlive:proxy">/home/thoth/.cache/kdenlive/proxy/2daef063f3bd965be0dc9dab9225975a.mpg</property>
  <property name="proxy_out">589</property>
  <property name="kdenlive:originalurl">2001-07-07-beasty/beastiality-046.dv</property>
  <property name="global_feed">1</property>
  <property name="kdenlive:meta.media.nb_streams">3</property>
  <property name="kdenlive:meta.media.0.stream.type">video</property>
  <property name="kdenlive:meta.media.0.stream.frame_rate">29.97</property>
  <property name="kdenlive:meta.media.0.stream.sample_aspect_ratio">0.888889</property>
  <property name="kdenlive:meta.media.0.codec.width">720</property>
  <property name="kdenlive:meta.media.0.codec.height">480</property>
  <property name="kdenlive:meta.media.0.codec.rotate">0</property>
  <property name="kdenlive:meta.media.0.codec.frame_rate">29.97</property>
  <property name="kdenlive:meta.media.0.codec.pix_fmt">yuv411p</property>
  <property name="kdenlive:meta.media.0.codec.sample_aspect_ratio">0.888889</property>
  <property name="kdenlive:meta.media.0.codec.colorspace">601</property>
  <property name="kdenlive:meta.media.0.codec.name">dvvideo</property>
  <property name="kdenlive:meta.media.0.codec.long_name">DV (Digital Video)</property>
  <property name="kdenlive:meta.media.0.codec.bit_rate">25000000</property>
  <property name="kdenlive:meta.media.1.stream.type">audio</property>
  <property name="kdenlive:meta.media.1.codec.sample_fmt">s16</property>
  <property name="kdenlive:meta.media.1.codec.sample_rate">32000</property>
  <property name="kdenlive:meta.media.1.codec.channels">2</property>
  <property name="kdenlive:meta.media.1.codec.name">pcm_s16le</property>
  <property name="kdenlive:meta.media.1.codec.long_name">PCM signed 16-bit little-endian</property>
  <property name="kdenlive:meta.media.1.codec.bit_rate">1024000</property>
  <property name="kdenlive:meta.media.2.stream.type">audio</property>
  <property name="kdenlive:meta.media.2.codec.sample_fmt">s16</property>
  <property name="kdenlive:meta.media.2.codec.sample_rate">32000</property>
  <property name="kdenlive:meta.media.2.codec.channels">2</property>
  <property name="kdenlive:meta.media.2.codec.name">pcm_s16le</property>
  <property name="kdenlive:meta.media.2.codec.long_name">PCM signed 16-bit little-endian</property>
  <property name="kdenlive:meta.media.2.codec.bit_rate">1024000</property>
  <property name="kdenlive:meta.attr.timecode.markup">00:00:07;19</property>
  <property name="kdenlive:meta.media.sample_aspect_num">8</property>
  <property name="kdenlive:meta.media.sample_aspect_den">9</property>
  <property name="kdenlive:meta.media.frame_rate_num">30000</property>
  <property name="kdenlive:meta.media.frame_rate_den">1001</property>
  <property name="kdenlive:meta.media.colorspace">601</property>
  <property name="kdenlive:meta.media.color_trc">2</property>
  <property name="kdenlive:meta.media.width">720</property>
  <property name="kdenlive:meta.media.height">480</property>
  <property name="meta.media.top_field_first">0</property>
  <property name="meta.media.progressive">1</property>
  <property name="kdenlive:zone_in">115</property>
  <property name="kdenlive:zone_out">496</property>
 </producer>
 <producer id="30" title="Anonymous Submission" out="668" in="0">
  <property name="length">00:00:22;09</property>
  <property name="eof">pause</property>
  <property name="resource">/home/thoth/.cache/kdenlive/proxy/e95cbe0f89c6428749f25bdfb4d5966f.mpg</property>
  <property name="meta.media.nb_streams">2</property>
  <property name="meta.media.0.stream.type">video</property>
  <property name="meta.media.0.stream.frame_rate">29.97</property>
  <property name="meta.media.0.stream.sample_aspect_ratio">0</property>
  <property name="meta.media.0.codec.width">640</property>
  <property name="meta.media.0.codec.height">427</property>
  <property name="meta.media.0.codec.rotate">0</property>
  <property name="meta.media.0.codec.frame_rate">29.97</property>
  <property name="meta.media.0.codec.pix_fmt">yuv422p</property>
  <property name="meta.media.0.codec.sample_aspect_ratio">0.889583</property>
  <property name="meta.media.0.codec.colorspace">601</property>
  <property name="meta.media.0.codec.name">mpeg2video</property>
  <property name="meta.media.0.codec.long_name">MPEG-2 video</property>
  <property name="meta.media.0.codec.bit_rate">0</property>
  <property name="meta.media.1.stream.type">audio</property>
  <property name="meta.media.1.codec.sample_fmt">s16p</property>
  <property name="meta.media.1.codec.sample_rate">32000</property>
  <property name="meta.media.1.codec.channels">2</property>
  <property name="meta.media.1.codec.name">mp2</property>
  <property name="meta.media.1.codec.long_name">MP2 (MPEG audio layer 2)</property>
  <property name="meta.media.1.codec.bit_rate">128000</property>
  <property name="seekable">1</property>
  <property name="meta.media.sample_aspect_num">427</property>
  <property name="meta.media.sample_aspect_den">480</property>
  <property name="aspect_ratio">0.889583</property>
  <property name="audio_index">1</property>
  <property name="video_index">0</property>
  <property name="mute_on_pause">1</property>
  <property name="mlt_service">avformat</property>
  <property name="meta.media.2.stream.type">audio</property>
  <property name="meta.media.2.codec.sample_fmt">s16</property>
  <property name="meta.media.2.codec.sample_rate">32000</property>
  <property name="meta.media.2.codec.channels">2</property>
  <property name="meta.media.2.codec.name">pcm_s16le</property>
  <property name="meta.media.2.codec.long_name">PCM signed 16-bit little-endian</property>
  <property name="meta.media.2.codec.bit_rate">1024000</property>
  <property name="meta.attr.timecode.markup">00:00:27;09</property>
  <property name="kdenlive:folderid">-1</property>
  <property name="meta.media.frame_rate_num">30000</property>
  <property name="meta.media.frame_rate_den">1001</property>
  <property name="meta.media.colorspace">601</property>
  <property name="meta.media.color_trc">2</property>
  <property name="meta.media.width">640</property>
  <property name="meta.media.height">427</property>
  <property name="kdenlive:file_size">81720000</property>
  <property name="kdenlive:file_hash">e95cbe0f89c6428749f25bdfb4d5966f</property>
  <property name="kdenlive:proxy">/home/thoth/.cache/kdenlive/proxy/e95cbe0f89c6428749f25bdfb4d5966f.mpg</property>
  <property name="proxy_out">680</property>
  <property name="kdenlive:originalurl">2001-07-07-beasty/beastiality-047.dv</property>
  <property name="global_feed">1</property>
  <property name="kdenlive:meta.media.nb_streams">3</property>
  <property name="kdenlive:meta.media.0.stream.type">video</property>
  <property name="kdenlive:meta.media.0.stream.frame_rate">29.97</property>
  <property name="kdenlive:meta.media.0.stream.sample_aspect_ratio">0.888889</property>
  <property name="kdenlive:meta.media.0.codec.width">720</property>
  <property name="kdenlive:meta.media.0.codec.height">480</property>
  <property name="kdenlive:meta.media.0.codec.rotate">0</property>
  <property name="kdenlive:meta.media.0.codec.frame_rate">29.97</property>
  <property name="kdenlive:meta.media.0.codec.pix_fmt">yuv411p</property>
  <property name="kdenlive:meta.media.0.codec.sample_aspect_ratio">0.888889</property>
  <property name="kdenlive:meta.media.0.codec.colorspace">601</property>
  <property name="kdenlive:meta.media.0.codec.name">dvvideo</property>
  <property name="kdenlive:meta.media.0.codec.long_name">DV (Digital Video)</property>
  <property name="kdenlive:meta.media.0.codec.bit_rate">25000000</property>
  <property name="kdenlive:meta.media.1.stream.type">audio</property>
  <property name="kdenlive:meta.media.1.codec.sample_fmt">s16</property>
  <property name="kdenlive:meta.media.1.codec.sample_rate">32000</property>
  <property name="kdenlive:meta.media.1.codec.channels">2</property>
  <property name="kdenlive:meta.media.1.codec.name">pcm_s16le</property>
  <property name="kdenlive:meta.media.1.codec.long_name">PCM signed 16-bit little-endian</property>
  <property name="kdenlive:meta.media.1.codec.bit_rate">1024000</property>
  <property name="kdenlive:meta.media.2.stream.type">audio</property>
  <property name="kdenlive:meta.media.2.codec.sample_fmt">s16</property>
  <property name="kdenlive:meta.media.2.codec.sample_rate">32000</property>
  <property name="kdenlive:meta.media.2.codec.channels">2</property>
  <property name="kdenlive:meta.media.2.codec.name">pcm_s16le</property>
  <property name="kdenlive:meta.media.2.codec.long_name">PCM signed 16-bit little-endian</property>
  <property name="kdenlive:meta.media.2.codec.bit_rate">1024000</property>
  <property name="kdenlive:meta.attr.timecode.markup">00:00:27;09</property>
  <property name="kdenlive:meta.media.sample_aspect_num">8</property>
  <property name="kdenlive:meta.media.sample_aspect_den">9</property>
  <property name="kdenlive:meta.media.frame_rate_num">30000</property>
  <property name="kdenlive:meta.media.frame_rate_den">1001</property>
  <property name="kdenlive:meta.media.colorspace">601</property>
  <property name="kdenlive:meta.media.color_trc">2</property>
  <property name="kdenlive:meta.media.width">720</property>
  <property name="kdenlive:meta.media.height">480</property>
  <property name="meta.media.top_field_first">0</property>
  <property name="meta.media.progressive">1</property>
  <property name="kdenlive:zone_in">242</property>
  <property name="kdenlive:zone_out">469</property>
 </producer>
 <producer id="31" title="Anonymous Submission" out="743" in="0">
  <property name="length">00:00:24;24</property>
  <property name="eof">pause</property>
  <property name="resource">/home/thoth/.cache/kdenlive/proxy/3e8a96f0497fce4f365a64a06b3b3784.mpg</property>
  <property name="meta.media.nb_streams">2</property>
  <property name="meta.media.0.stream.type">video</property>
  <property name="meta.media.0.stream.frame_rate">29.97</property>
  <property name="meta.media.0.stream.sample_aspect_ratio">0</property>
  <property name="meta.media.0.codec.width">640</property>
  <property name="meta.media.0.codec.height">427</property>
  <property name="meta.media.0.codec.rotate">0</property>
  <property name="meta.media.0.codec.frame_rate">29.97</property>
  <property name="meta.media.0.codec.pix_fmt">yuv422p</property>
  <property name="meta.media.0.codec.sample_aspect_ratio">0.889583</property>
  <property name="meta.media.0.codec.colorspace">601</property>
  <property name="meta.media.0.codec.name">mpeg2video</property>
  <property name="meta.media.0.codec.long_name">MPEG-2 video</property>
  <property name="meta.media.0.codec.bit_rate">0</property>
  <property name="meta.media.1.stream.type">audio</property>
  <property name="meta.media.1.codec.sample_fmt">s16p</property>
  <property name="meta.media.1.codec.sample_rate">32000</property>
  <property name="meta.media.1.codec.channels">2</property>
  <property name="meta.media.1.codec.name">mp2</property>
  <property name="meta.media.1.codec.long_name">MP2 (MPEG audio layer 2)</property>
  <property name="meta.media.1.codec.bit_rate">128000</property>
  <property name="seekable">1</property>
  <property name="meta.media.sample_aspect_num">427</property>
  <property name="meta.media.sample_aspect_den">480</property>
  <property name="aspect_ratio">0.889583</property>
  <property name="audio_index">1</property>
  <property name="video_index">0</property>
  <property name="mute_on_pause">1</property>
  <property name="mlt_service">avformat</property>
  <property name="meta.media.2.stream.type">audio</property>
  <property name="meta.media.2.codec.sample_fmt">s16</property>
  <property name="meta.media.2.codec.sample_rate">32000</property>
  <property name="meta.media.2.codec.channels">2</property>
  <property name="meta.media.2.codec.name">pcm_s16le</property>
  <property name="meta.media.2.codec.long_name">PCM signed 16-bit little-endian</property>
  <property name="meta.media.2.codec.bit_rate">1024000</property>
  <property name="meta.attr.timecode.markup">00:00:50;00</property>
  <property name="kdenlive:folderid">-1</property>
  <property name="meta.media.frame_rate_num">30000</property>
  <property name="meta.media.frame_rate_den">1001</property>
  <property name="meta.media.colorspace">601</property>
  <property name="meta.media.color_trc">2</property>
  <property name="meta.media.width">640</property>
  <property name="meta.media.height">427</property>
  <property name="kdenlive:file_size">90720000</property>
  <property name="kdenlive:file_hash">3e8a96f0497fce4f365a64a06b3b3784</property>
  <property name="kdenlive:proxy">/home/thoth/.cache/kdenlive/proxy/3e8a96f0497fce4f365a64a06b3b3784.mpg</property>
  <property name="proxy_out">755</property>
  <property name="kdenlive:originalurl">2001-07-07-beasty/beastiality-048.dv</property>
  <property name="global_feed">1</property>
  <property name="kdenlive:meta.media.nb_streams">3</property>
  <property name="kdenlive:meta.media.0.stream.type">video</property>
  <property name="kdenlive:meta.media.0.stream.frame_rate">29.97</property>
  <property name="kdenlive:meta.media.0.stream.sample_aspect_ratio">0.888889</property>
  <property name="kdenlive:meta.media.0.codec.width">720</property>
  <property name="kdenlive:meta.media.0.codec.height">480</property>
  <property name="kdenlive:meta.media.0.codec.rotate">0</property>
  <property name="kdenlive:meta.media.0.codec.frame_rate">29.97</property>
  <property name="kdenlive:meta.media.0.codec.pix_fmt">yuv411p</property>
  <property name="kdenlive:meta.media.0.codec.sample_aspect_ratio">0.888889</property>
  <property name="kdenlive:meta.media.0.codec.colorspace">601</property>
  <property name="kdenlive:meta.media.0.codec.name">dvvideo</property>
  <property name="kdenlive:meta.media.0.codec.long_name">DV (Digital Video)</property>
  <property name="kdenlive:meta.media.0.codec.bit_rate">25000000</property>
  <property name="kdenlive:meta.media.1.stream.type">audio</property>
  <property name="kdenlive:meta.media.1.codec.sample_fmt">s16</property>
  <property name="kdenlive:meta.media.1.codec.sample_rate">32000</property>
  <property name="kdenlive:meta.media.1.codec.channels">2</property>
  <property name="kdenlive:meta.media.1.codec.name">pcm_s16le</property>
  <property name="kdenlive:meta.media.1.codec.long_name">PCM signed 16-bit little-endian</property>
  <property name="kdenlive:meta.media.1.codec.bit_rate">1024000</property>
  <property name="kdenlive:meta.media.2.stream.type">audio</property>
  <property name="kdenlive:meta.media.2.codec.sample_fmt">s16</property>
  <property name="kdenlive:meta.media.2.codec.sample_rate">32000</property>
  <property name="kdenlive:meta.media.2.codec.channels">2</property>
  <property name="kdenlive:meta.media.2.codec.name">pcm_s16le</property>
  <property name="kdenlive:meta.media.2.codec.long_name">PCM signed 16-bit little-endian</property>
  <property name="kdenlive:meta.media.2.codec.bit_rate">1024000</property>
  <property name="kdenlive:meta.attr.timecode.markup">00:00:50;00</property>
  <property name="kdenlive:meta.media.sample_aspect_num">8</property>
  <property name="kdenlive:meta.media.sample_aspect_den">9</property>
  <property name="kdenlive:meta.media.frame_rate_num">30000</property>
  <property name="kdenlive:meta.media.frame_rate_den">1001</property>
  <property name="kdenlive:meta.media.colorspace">601</property>
  <property name="kdenlive:meta.media.color_trc">2</property>
  <property name="kdenlive:meta.media.width">720</property>
  <property name="kdenlive:meta.media.height">480</property>
  <property name="meta.media.top_field_first">0</property>
  <property name="meta.media.progressive">1</property>
  <property name="kdenlive:zone_in">0</property>
  <property name="kdenlive:zone_out">667</property>
 </producer>
 <producer id="33" title="Anonymous Submission" out="268" in="0">
  <property name="length">00:00:08;29</property>
  <property name="eof">pause</property>
  <property name="resource">/home/thoth/.cache/kdenlive/proxy/8071d1d0f0e590faa7cfa353189f609f.mpg</property>
  <property name="meta.media.nb_streams">2</property>
  <property name="meta.media.0.stream.type">video</property>
  <property name="meta.media.0.stream.frame_rate">29.97</property>
  <property name="meta.media.0.stream.sample_aspect_ratio">0</property>
  <property name="meta.media.0.codec.width">640</property>
  <property name="meta.media.0.codec.height">427</property>
  <property name="meta.media.0.codec.rotate">0</property>
  <property name="meta.media.0.codec.frame_rate">29.97</property>
  <property name="meta.media.0.codec.pix_fmt">yuv422p</property>
  <property name="meta.media.0.codec.sample_aspect_ratio">0.889583</property>
  <property name="meta.media.0.codec.colorspace">601</property>
  <property name="meta.media.0.codec.name">mpeg2video</property>
  <property name="meta.media.0.codec.long_name">MPEG-2 video</property>
  <property name="meta.media.0.codec.bit_rate">0</property>
  <property name="meta.media.1.stream.type">audio</property>
  <property name="meta.media.1.codec.sample_fmt">s16p</property>
  <property name="meta.media.1.codec.sample_rate">32000</property>
  <property name="meta.media.1.codec.channels">2</property>
  <property name="meta.media.1.codec.name">mp2</property>
  <property name="meta.media.1.codec.long_name">MP2 (MPEG audio layer 2)</property>
  <property name="meta.media.1.codec.bit_rate">128000</property>
  <property name="seekable">1</property>
  <property name="meta.media.sample_aspect_num">427</property>
  <property name="meta.media.sample_aspect_den">480</property>
  <property name="aspect_ratio">0.889583</property>
  <property name="audio_index">1</property>
  <property name="video_index">0</property>
  <property name="mute_on_pause">1</property>
  <property name="mlt_service">avformat</property>
  <property name="meta.media.2.stream.type">audio</property>
  <property name="meta.media.2.codec.sample_fmt">s16</property>
  <property name="meta.media.2.codec.sample_rate">32000</property>
  <property name="meta.media.2.codec.channels">2</property>
  <property name="meta.media.2.codec.name">pcm_s16le</property>
  <property name="meta.media.2.codec.long_name">PCM signed 16-bit little-endian</property>
  <property name="meta.media.2.codec.bit_rate">1024000</property>
  <property name="meta.attr.timecode.markup">00:00:24;15</property>
  <property name="kdenlive:folderid">-1</property>
  <property name="meta.media.frame_rate_num">30000</property>
  <property name="meta.media.frame_rate_den">1001</property>
  <property name="meta.media.colorspace">601</property>
  <property name="meta.media.color_trc">2</property>
  <property name="meta.media.width">640</property>
  <property name="meta.media.height">427</property>
  <property name="kdenlive:file_size">32280000</property>
  <property name="kdenlive:file_hash">8071d1d0f0e590faa7cfa353189f609f</property>
  <property name="kdenlive:proxy">/home/thoth/.cache/kdenlive/proxy/8071d1d0f0e590faa7cfa353189f609f.mpg</property>
  <property name="proxy_out">268</property>
  <property name="kdenlive:originalurl">2001-07-07-beasty/beastiality-035.dv</property>
  <property name="global_feed">1</property>
  <property name="kdenlive:meta.media.nb_streams">3</property>
  <property name="kdenlive:meta.media.0.stream.type">video</property>
  <property name="kdenlive:meta.media.0.stream.frame_rate">29.97</property>
  <property name="kdenlive:meta.media.0.stream.sample_aspect_ratio">0.888889</property>
  <property name="kdenlive:meta.media.0.codec.width">720</property>
  <property name="kdenlive:meta.media.0.codec.height">480</property>
  <property name="kdenlive:meta.media.0.codec.rotate">0</property>
  <property name="kdenlive:meta.media.0.codec.frame_rate">29.97</property>
  <property name="kdenlive:meta.media.0.codec.pix_fmt">yuv411p</property>
  <property name="kdenlive:meta.media.0.codec.sample_aspect_ratio">0.888889</property>
  <property name="kdenlive:meta.media.0.codec.colorspace">601</property>
  <property name="kdenlive:meta.media.0.codec.name">dvvideo</property>
  <property name="kdenlive:meta.media.0.codec.long_name">DV (Digital Video)</property>
  <property name="kdenlive:meta.media.0.codec.bit_rate">25000000</property>
  <property name="kdenlive:meta.media.1.stream.type">audio</property>
  <property name="kdenlive:meta.media.1.codec.sample_fmt">s16</property>
  <property name="kdenlive:meta.media.1.codec.sample_rate">32000</property>
  <property name="kdenlive:meta.media.1.codec.channels">2</property>
  <property name="kdenlive:meta.media.1.codec.name">pcm_s16le</property>
  <property name="kdenlive:meta.media.1.codec.long_name">PCM signed 16-bit little-endian</property>
  <property name="kdenlive:meta.media.1.codec.bit_rate">1024000</property>
  <property name="kdenlive:meta.media.2.stream.type">audio</property>
  <property name="kdenlive:meta.media.2.codec.sample_fmt">s16</property>
  <property name="kdenlive:meta.media.2.codec.sample_rate">32000</property>
  <property name="kdenlive:meta.media.2.codec.channels">2</property>
  <property name="kdenlive:meta.media.2.codec.name">pcm_s16le</property>
  <property name="kdenlive:meta.media.2.codec.long_name">PCM signed 16-bit little-endian</property>
  <property name="kdenlive:meta.media.2.codec.bit_rate">1024000</property>
  <property name="kdenlive:meta.attr.timecode.markup">00:00:24;15</property>
  <property name="kdenlive:meta.media.sample_aspect_num">8</property>
  <property name="kdenlive:meta.media.sample_aspect_den">9</property>
  <property name="kdenlive:meta.media.frame_rate_num">30000</property>
  <property name="kdenlive:meta.media.frame_rate_den">1001</property>
  <property name="kdenlive:meta.media.colorspace">601</property>
  <property name="kdenlive:meta.media.color_trc">2</property>
  <property name="kdenlive:meta.media.width">720</property>
  <property name="kdenlive:meta.media.height">480</property>
  <property name="meta.media.top_field_first">0</property>
  <property name="meta.media.progressive">1</property>
  <property name="kdenlive:zone_in">64</property>
  <property name="kdenlive:zone_out">227</property>
 </producer>
 <producer id="34" title="Anonymous Submission" out="300" in="0">
  <property name="length">00:00:10;01</property>
  <property name="eof">pause</property>
  <property name="resource">/home/thoth/.cache/kdenlive/proxy/74a68ddbb94279ffccf914435063a5cb.mpg</property>
  <property name="meta.media.nb_streams">2</property>
  <property name="meta.media.0.stream.type">video</property>
  <property name="meta.media.0.stream.frame_rate">29.97</property>
  <property name="meta.media.0.stream.sample_aspect_ratio">0</property>
  <property name="meta.media.0.codec.width">640</property>
  <property name="meta.media.0.codec.height">427</property>
  <property name="meta.media.0.codec.rotate">0</property>
  <property name="meta.media.0.codec.frame_rate">29.97</property>
  <property name="meta.media.0.codec.pix_fmt">yuv422p</property>
  <property name="meta.media.0.codec.sample_aspect_ratio">0.889583</property>
  <property name="meta.media.0.codec.colorspace">601</property>
  <property name="meta.media.0.codec.name">mpeg2video</property>
  <property name="meta.media.0.codec.long_name">MPEG-2 video</property>
  <property name="meta.media.0.codec.bit_rate">0</property>
  <property name="meta.media.1.stream.type">audio</property>
  <property name="meta.media.1.codec.sample_fmt">s16p</property>
  <property name="meta.media.1.codec.sample_rate">32000</property>
  <property name="meta.media.1.codec.channels">2</property>
  <property name="meta.media.1.codec.name">mp2</property>
  <property name="meta.media.1.codec.long_name">MP2 (MPEG audio layer 2)</property>
  <property name="meta.media.1.codec.bit_rate">128000</property>
  <property name="seekable">1</property>
  <property name="meta.media.sample_aspect_num">427</property>
  <property name="meta.media.sample_aspect_den">480</property>
  <property name="aspect_ratio">0.889583</property>
  <property name="audio_index">1</property>
  <property name="video_index">0</property>
  <property name="mute_on_pause">1</property>
  <property name="mlt_service">avformat</property>
  <property name="meta.media.2.stream.type">audio</property>
  <property name="meta.media.2.codec.sample_fmt">s16</property>
  <property name="meta.media.2.codec.sample_rate">32000</property>
  <property name="meta.media.2.codec.channels">2</property>
  <property name="meta.media.2.codec.name">pcm_s16le</property>
  <property name="meta.media.2.codec.long_name">PCM signed 16-bit little-endian</property>
  <property name="meta.media.2.codec.bit_rate">1024000</property>
  <property name="meta.attr.timecode.markup">00:00:33;14</property>
  <property name="kdenlive:folderid">-1</property>
  <property name="meta.media.frame_rate_num">30000</property>
  <property name="meta.media.frame_rate_den">1001</property>
  <property name="meta.media.colorspace">601</property>
  <property name="meta.media.color_trc">2</property>
  <property name="meta.media.width">640</property>
  <property name="meta.media.height">427</property>
  <property name="kdenlive:file_size">36120000</property>
  <property name="kdenlive:file_hash">74a68ddbb94279ffccf914435063a5cb</property>
  <property name="kdenlive:proxy">/home/thoth/.cache/kdenlive/proxy/74a68ddbb94279ffccf914435063a5cb.mpg</property>
  <property name="proxy_out">300</property>
  <property name="kdenlive:originalurl">2001-07-07-beasty/beastiality-036.dv</property>
  <property name="global_feed">1</property>
  <property name="kdenlive:meta.media.nb_streams">3</property>
  <property name="kdenlive:meta.media.0.stream.type">video</property>
  <property name="kdenlive:meta.media.0.stream.frame_rate">29.97</property>
  <property name="kdenlive:meta.media.0.stream.sample_aspect_ratio">0.888889</property>
  <property name="kdenlive:meta.media.0.codec.width">720</property>
  <property name="kdenlive:meta.media.0.codec.height">480</property>
  <property name="kdenlive:meta.media.0.codec.rotate">0</property>
  <property name="kdenlive:meta.media.0.codec.frame_rate">29.97</property>
  <property name="kdenlive:meta.media.0.codec.pix_fmt">yuv411p</property>
  <property name="kdenlive:meta.media.0.codec.sample_aspect_ratio">0.888889</property>
  <property name="kdenlive:meta.media.0.codec.colorspace">601</property>
  <property name="kdenlive:meta.media.0.codec.name">dvvideo</property>
  <property name="kdenlive:meta.media.0.codec.long_name">DV (Digital Video)</property>
  <property name="kdenlive:meta.media.0.codec.bit_rate">25000000</property>
  <property name="kdenlive:meta.media.1.stream.type">audio</property>
  <property name="kdenlive:meta.media.1.codec.sample_fmt">s16</property>
  <property name="kdenlive:meta.media.1.codec.sample_rate">32000</property>
  <property name="kdenlive:meta.media.1.codec.channels">2</property>
  <property name="kdenlive:meta.media.1.codec.name">pcm_s16le</property>
  <property name="kdenlive:meta.media.1.codec.long_name">PCM signed 16-bit little-endian</property>
  <property name="kdenlive:meta.media.1.codec.bit_rate">1024000</property>
  <property name="kdenlive:meta.media.2.stream.type">audio</property>
  <property name="kdenlive:meta.media.2.codec.sample_fmt">s16</property>
  <property name="kdenlive:meta.media.2.codec.sample_rate">32000</property>
  <property name="kdenlive:meta.media.2.codec.channels">2</property>
  <property name="kdenlive:meta.media.2.codec.name">pcm_s16le</property>
  <property name="kdenlive:meta.media.2.codec.long_name">PCM signed 16-bit little-endian</property>
  <property name="kdenlive:meta.media.2.codec.bit_rate">1024000</property>
  <property name="kdenlive:meta.attr.timecode.markup">00:00:33;14</property>
  <property name="kdenlive:meta.media.sample_aspect_num">8</property>
  <property name="kdenlive:meta.media.sample_aspect_den">9</property>
  <property name="kdenlive:meta.media.frame_rate_num">30000</property>
  <property name="kdenlive:meta.media.frame_rate_den">1001</property>
  <property name="kdenlive:meta.media.colorspace">601</property>
  <property name="kdenlive:meta.media.color_trc">2</property>
  <property name="kdenlive:meta.media.width">720</property>
  <property name="kdenlive:meta.media.height">480</property>
  <property name="meta.media.top_field_first">0</property>
  <property name="meta.media.progressive">1</property>
  <property name="kdenlive:zone_in">0</property>
  <property name="kdenlive:zone_out">265</property>
 </producer>
 <producer id="32" title="Anonymous Submission" out="2128" in="0">
  <property name="length">00:01:11;01</property>
  <property name="eof">pause</property>
  <property name="resource">/home/thoth/.cache/kdenlive/proxy/ea2e46e63f0ea7d0afc0b309d587f5f3.mpg</property>
  <property name="meta.media.nb_streams">2</property>
  <property name="meta.media.0.stream.type">video</property>
  <property name="meta.media.0.stream.frame_rate">29.97</property>
  <property name="meta.media.0.stream.sample_aspect_ratio">0</property>
  <property name="meta.media.0.codec.width">640</property>
  <property name="meta.media.0.codec.height">427</property>
  <property name="meta.media.0.codec.rotate">0</property>
  <property name="meta.media.0.codec.frame_rate">29.97</property>
  <property name="meta.media.0.codec.pix_fmt">yuv422p</property>
  <property name="meta.media.0.codec.sample_aspect_ratio">0.889583</property>
  <property name="meta.media.0.codec.colorspace">601</property>
  <property name="meta.media.0.codec.name">mpeg2video</property>
  <property name="meta.media.0.codec.long_name">MPEG-2 video</property>
  <property name="meta.media.0.codec.bit_rate">0</property>
  <property name="meta.media.1.stream.type">audio</property>
  <property name="meta.media.1.codec.sample_fmt">s16p</property>
  <property name="meta.media.1.codec.sample_rate">32000</property>
  <property name="meta.media.1.codec.channels">2</property>
  <property name="meta.media.1.codec.name">mp2</property>
  <property name="meta.media.1.codec.long_name">MP2 (MPEG audio layer 2)</property>
  <property name="meta.media.1.codec.bit_rate">128000</property>
  <property name="seekable">1</property>
  <property name="meta.media.sample_aspect_num">427</property>
  <property name="meta.media.sample_aspect_den">480</property>
  <property name="aspect_ratio">0.889583</property>
  <property name="audio_index">1</property>
  <property name="video_index">0</property>
  <property name="mute_on_pause">1</property>
  <property name="mlt_service">avformat</property>
  <property name="meta.media.2.stream.type">audio</property>
  <property name="meta.media.2.codec.sample_fmt">s16</property>
  <property name="meta.media.2.codec.sample_rate">32000</property>
  <property name="meta.media.2.codec.channels">2</property>
  <property name="meta.media.2.codec.name">pcm_s16le</property>
  <property name="meta.media.2.codec.long_name">PCM signed 16-bit little-endian</property>
  <property name="meta.media.2.codec.bit_rate">1024000</property>
  <property name="meta.attr.timecode.markup">00:01:15;08</property>
  <property name="kdenlive:folderid">-1</property>
  <property name="meta.media.frame_rate_num">30000</property>
  <property name="meta.media.frame_rate_den">1001</property>
  <property name="meta.media.colorspace">601</property>
  <property name="meta.media.color_trc">2</property>
  <property name="meta.media.width">640</property>
  <property name="meta.media.height">427</property>
  <property name="kdenlive:file_size">255480000</property>
  <property name="kdenlive:file_hash">ea2e46e63f0ea7d0afc0b309d587f5f3</property>
  <property name="kdenlive:proxy">/home/thoth/.cache/kdenlive/proxy/ea2e46e63f0ea7d0afc0b309d587f5f3.mpg</property>
  <property name="proxy_out">2128</property>
  <property name="kdenlive:originalurl">2001-07-07-beasty/beastiality-049.dv</property>
  <property name="global_feed">1</property>
  <property name="kdenlive:meta.media.nb_streams">3</property>
  <property name="kdenlive:meta.media.0.stream.type">video</property>
  <property name="kdenlive:meta.media.0.stream.frame_rate">29.97</property>
  <property name="kdenlive:meta.media.0.stream.sample_aspect_ratio">0.888889</property>
  <property name="kdenlive:meta.media.0.codec.width">720</property>
  <property name="kdenlive:meta.media.0.codec.height">480</property>
  <property name="kdenlive:meta.media.0.codec.rotate">0</property>
  <property name="kdenlive:meta.media.0.codec.frame_rate">29.97</property>
  <property name="kdenlive:meta.media.0.codec.pix_fmt">yuv411p</property>
  <property name="kdenlive:meta.media.0.codec.sample_aspect_ratio">0.888889</property>
  <property name="kdenlive:meta.media.0.codec.colorspace">601</property>
  <property name="kdenlive:meta.media.0.codec.name">dvvideo</property>
  <property name="kdenlive:meta.media.0.codec.long_name">DV (Digital Video)</property>
  <property name="kdenlive:meta.media.0.codec.bit_rate">25000000</property>
  <property name="kdenlive:meta.media.1.stream.type">audio</property>
  <property name="kdenlive:meta.media.1.codec.sample_fmt">s16</property>
  <property name="kdenlive:meta.media.1.codec.sample_rate">32000</property>
  <property name="kdenlive:meta.media.1.codec.channels">2</property>
  <property name="kdenlive:meta.media.1.codec.name">pcm_s16le</property>
  <property name="kdenlive:meta.media.1.codec.long_name">PCM signed 16-bit little-endian</property>
  <property name="kdenlive:meta.media.1.codec.bit_rate">1024000</property>
  <property name="kdenlive:meta.media.2.stream.type">audio</property>
  <property name="kdenlive:meta.media.2.codec.sample_fmt">s16</property>
  <property name="kdenlive:meta.media.2.codec.sample_rate">32000</property>
  <property name="kdenlive:meta.media.2.codec.channels">2</property>
  <property name="kdenlive:meta.media.2.codec.name">pcm_s16le</property>
  <property name="kdenlive:meta.media.2.codec.long_name">PCM signed 16-bit little-endian</property>
  <property name="kdenlive:meta.media.2.codec.bit_rate">1024000</property>
  <property name="kdenlive:meta.attr.timecode.markup">00:01:15;08</property>
  <property name="kdenlive:meta.media.sample_aspect_num">8</property>
  <property name="kdenlive:meta.media.sample_aspect_den">9</property>
  <property name="kdenlive:meta.media.frame_rate_num">30000</property>
  <property name="kdenlive:meta.media.frame_rate_den">1001</property>
  <property name="kdenlive:meta.media.colorspace">601</property>
  <property name="kdenlive:meta.media.color_trc">2</property>
  <property name="kdenlive:meta.media.width">720</property>
  <property name="kdenlive:meta.media.height">480</property>
  <property name="meta.media.top_field_first">0</property>
  <property name="meta.media.progressive">1</property>
  <property name="kdenlive:zone_in">334</property>
  <property name="kdenlive:zone_out">2126</property>
 </producer>
 <producer id="35" title="Anonymous Submission" out="429" in="0">
  <property name="length">00:00:14;10</property>
  <property name="eof">pause</property>
  <property name="resource">/home/thoth/.cache/kdenlive/proxy/584f57d072a4b53ab049bbb67def6c30.mpg</property>
  <property name="meta.media.nb_streams">2</property>
  <property name="meta.media.0.stream.type">video</property>
  <property name="meta.media.0.stream.frame_rate">29.97</property>
  <property name="meta.media.0.stream.sample_aspect_ratio">0</property>
  <property name="meta.media.0.codec.width">640</property>
  <property name="meta.media.0.codec.height">427</property>
  <property name="meta.media.0.codec.rotate">0</property>
  <property name="meta.media.0.codec.frame_rate">29.97</property>
  <property name="meta.media.0.codec.pix_fmt">yuv422p</property>
  <property name="meta.media.0.codec.sample_aspect_ratio">0.889583</property>
  <property name="meta.media.0.codec.colorspace">601</property>
  <property name="meta.media.0.codec.name">mpeg2video</property>
  <property name="meta.media.0.codec.long_name">MPEG-2 video</property>
  <property name="meta.media.0.codec.bit_rate">0</property>
  <property name="meta.media.1.stream.type">audio</property>
  <property name="meta.media.1.codec.sample_fmt">s16p</property>
  <property name="meta.media.1.codec.sample_rate">32000</property>
  <property name="meta.media.1.codec.channels">2</property>
  <property name="meta.media.1.codec.name">mp2</property>
  <property name="meta.media.1.codec.long_name">MP2 (MPEG audio layer 2)</property>
  <property name="meta.media.1.codec.bit_rate">128000</property>
  <property name="seekable">1</property>
  <property name="meta.media.sample_aspect_num">427</property>
  <property name="meta.media.sample_aspect_den">480</property>
  <property name="aspect_ratio">0.889583</property>
  <property name="audio_index">1</property>
  <property name="video_index">0</property>
  <property name="mute_on_pause">1</property>
  <property name="mlt_service">avformat</property>
  <property name="meta.media.2.stream.type">audio</property>
  <property name="meta.media.2.codec.sample_fmt">s16</property>
  <property name="meta.media.2.codec.sample_rate">32000</property>
  <property name="meta.media.2.codec.channels">2</property>
  <property name="meta.media.2.codec.name">pcm_s16le</property>
  <property name="meta.media.2.codec.long_name">PCM signed 16-bit little-endian</property>
  <property name="meta.media.2.codec.bit_rate">1024000</property>
  <property name="meta.attr.timecode.markup">00:00:43;15</property>
  <property name="kdenlive:folderid">-1</property>
  <property name="meta.media.frame_rate_num">30000</property>
  <property name="meta.media.frame_rate_den">1001</property>
  <property name="meta.media.colorspace">601</property>
  <property name="meta.media.color_trc">2</property>
  <property name="meta.media.width">640</property>
  <property name="meta.media.height">427</property>
  <property name="kdenlive:file_size">51600000</property>
  <property name="kdenlive:file_hash">584f57d072a4b53ab049bbb67def6c30</property>
  <property name="kdenlive:proxy">/home/thoth/.cache/kdenlive/proxy/584f57d072a4b53ab049bbb67def6c30.mpg</property>
  <property name="proxy_out">429</property>
  <property name="kdenlive:originalurl">2001-07-07-beasty/beastiality-037.dv</property>
  <property name="global_feed">1</property>
  <property name="kdenlive:meta.media.nb_streams">3</property>
  <property name="kdenlive:meta.media.0.stream.type">video</property>
  <property name="kdenlive:meta.media.0.stream.frame_rate">29.97</property>
  <property name="kdenlive:meta.media.0.stream.sample_aspect_ratio">0.888889</property>
  <property name="kdenlive:meta.media.0.codec.width">720</property>
  <property name="kdenlive:meta.media.0.codec.height">480</property>
  <property name="kdenlive:meta.media.0.codec.rotate">0</property>
  <property name="kdenlive:meta.media.0.codec.frame_rate">29.97</property>
  <property name="kdenlive:meta.media.0.codec.pix_fmt">yuv411p</property>
  <property name="kdenlive:meta.media.0.codec.sample_aspect_ratio">0.888889</property>
  <property name="kdenlive:meta.media.0.codec.colorspace">601</property>
  <property name="kdenlive:meta.media.0.codec.name">dvvideo</property>
  <property name="kdenlive:meta.media.0.codec.long_name">DV (Digital Video)</property>
  <property name="kdenlive:meta.media.0.codec.bit_rate">25000000</property>
  <property name="kdenlive:meta.media.1.stream.type">audio</property>
  <property name="kdenlive:meta.media.1.codec.sample_fmt">s16</property>
  <property name="kdenlive:meta.media.1.codec.sample_rate">32000</property>
  <property name="kdenlive:meta.media.1.codec.channels">2</property>
  <property name="kdenlive:meta.media.1.codec.name">pcm_s16le</property>
  <property name="kdenlive:meta.media.1.codec.long_name">PCM signed 16-bit little-endian</property>
  <property name="kdenlive:meta.media.1.codec.bit_rate">1024000</property>
  <property name="kdenlive:meta.media.2.stream.type">audio</property>
  <property name="kdenlive:meta.media.2.codec.sample_fmt">s16</property>
  <property name="kdenlive:meta.media.2.codec.sample_rate">32000</property>
  <property name="kdenlive:meta.media.2.codec.channels">2</property>
  <property name="kdenlive:meta.media.2.codec.name">pcm_s16le</property>
  <property name="kdenlive:meta.media.2.codec.long_name">PCM signed 16-bit little-endian</property>
  <property name="kdenlive:meta.media.2.codec.bit_rate">1024000</property>
  <property name="kdenlive:meta.attr.timecode.markup">00:00:43;15</property>
  <property name="kdenlive:meta.media.sample_aspect_num">8</property>
  <property name="kdenlive:meta.media.sample_aspect_den">9</property>
  <property name="kdenlive:meta.media.frame_rate_num">30000</property>
  <property name="kdenlive:meta.media.frame_rate_den">1001</property>
  <property name="kdenlive:meta.media.colorspace">601</property>
  <property name="kdenlive:meta.media.color_trc">2</property>
  <property name="kdenlive:meta.media.width">720</property>
  <property name="kdenlive:meta.media.height">480</property>
  <property name="meta.media.top_field_first">0</property>
  <property name="meta.media.progressive">1</property>
  <property name="kdenlive:zone_in">63</property>
  <property name="kdenlive:zone_out">362</property>
 </producer>
 <producer id="36" title="Anonymous Submission" out="432" in="0">
  <property name="length">00:00:14;13</property>
  <property name="eof">pause</property>
  <property name="resource">/home/thoth/.cache/kdenlive/proxy/ac0abce9f10d7aabfb2d3c321ecdcbda.mpg</property>
  <property name="meta.media.nb_streams">2</property>
  <property name="meta.media.0.stream.type">video</property>
  <property name="meta.media.0.stream.frame_rate">29.97</property>
  <property name="meta.media.0.stream.sample_aspect_ratio">0</property>
  <property name="meta.media.0.codec.width">640</property>
  <property name="meta.media.0.codec.height">427</property>
  <property name="meta.media.0.codec.rotate">0</property>
  <property name="meta.media.0.codec.frame_rate">29.97</property>
  <property name="meta.media.0.codec.pix_fmt">yuv422p</property>
  <property name="meta.media.0.codec.sample_aspect_ratio">0.889583</property>
  <property name="meta.media.0.codec.colorspace">601</property>
  <property name="meta.media.0.codec.name">mpeg2video</property>
  <property name="meta.media.0.codec.long_name">MPEG-2 video</property>
  <property name="meta.media.0.codec.bit_rate">0</property>
  <property name="meta.media.1.stream.type">audio</property>
  <property name="meta.media.1.codec.sample_fmt">s16p</property>
  <property name="meta.media.1.codec.sample_rate">32000</property>
  <property name="meta.media.1.codec.channels">2</property>
  <property name="meta.media.1.codec.name">mp2</property>
  <property name="meta.media.1.codec.long_name">MP2 (MPEG audio layer 2)</property>
  <property name="meta.media.1.codec.bit_rate">128000</property>
  <property name="seekable">1</property>
  <property name="meta.media.sample_aspect_num">427</property>
  <property name="meta.media.sample_aspect_den">480</property>
  <property name="aspect_ratio">0.889583</property>
  <property name="audio_index">1</property>
  <property name="video_index">0</property>
  <property name="mute_on_pause">1</property>
  <property name="mlt_service">avformat</property>
  <property name="meta.media.2.stream.type">audio</property>
  <property name="meta.media.2.codec.sample_fmt">s16</property>
  <property name="meta.media.2.codec.sample_rate">32000</property>
  <property name="meta.media.2.codec.channels">2</property>
  <property name="meta.media.2.codec.name">pcm_s16le</property>
  <property name="meta.media.2.codec.long_name">PCM signed 16-bit little-endian</property>
  <property name="meta.media.2.codec.bit_rate">1024000</property>
  <property name="kdenlive:folderid">-1</property>
  <property name="meta.media.frame_rate_num">30000</property>
  <property name="meta.media.frame_rate_den">1001</property>
  <property name="meta.media.colorspace">601</property>
  <property name="meta.media.color_trc">2</property>
  <property name="meta.media.width">640</property>
  <property name="meta.media.height">427</property>
  <property name="kdenlive:file_size">51960000</property>
  <property name="kdenlive:file_hash">ac0abce9f10d7aabfb2d3c321ecdcbda</property>
  <property name="kdenlive:proxy">/home/thoth/.cache/kdenlive/proxy/ac0abce9f10d7aabfb2d3c321ecdcbda.mpg</property>
  <property name="proxy_out">432</property>
  <property name="kdenlive:originalurl">2001-07-07-beasty/beastiality-038.dv</property>
  <property name="global_feed">1</property>
  <property name="kdenlive:meta.media.nb_streams">3</property>
  <property name="kdenlive:meta.media.0.stream.type">video</property>
  <property name="kdenlive:meta.media.0.stream.frame_rate">29.97</property>
  <property name="kdenlive:meta.media.0.stream.sample_aspect_ratio">0.888889</property>
  <property name="kdenlive:meta.media.0.codec.width">720</property>
  <property name="kdenlive:meta.media.0.codec.height">480</property>
  <property name="kdenlive:meta.media.0.codec.rotate">0</property>
  <property name="kdenlive:meta.media.0.codec.frame_rate">29.97</property>
  <property name="kdenlive:meta.media.0.codec.pix_fmt">yuv411p</property>
  <property name="kdenlive:meta.media.0.codec.sample_aspect_ratio">0.888889</property>
  <property name="kdenlive:meta.media.0.codec.colorspace">601</property>
  <property name="kdenlive:meta.media.0.codec.name">dvvideo</property>
  <property name="kdenlive:meta.media.0.codec.long_name">DV (Digital Video)</property>
  <property name="kdenlive:meta.media.0.codec.bit_rate">25000000</property>
  <property name="kdenlive:meta.media.1.stream.type">audio</property>
  <property name="kdenlive:meta.media.1.codec.sample_fmt">s16</property>
  <property name="kdenlive:meta.media.1.codec.sample_rate">32000</property>
  <property name="kdenlive:meta.media.1.codec.channels">2</property>
  <property name="kdenlive:meta.media.1.codec.name">pcm_s16le</property>
  <property name="kdenlive:meta.media.1.codec.long_name">PCM signed 16-bit little-endian</property>
  <property name="kdenlive:meta.media.1.codec.bit_rate">1024000</property>
  <property name="kdenlive:meta.media.2.stream.type">audio</property>
  <property name="kdenlive:meta.media.2.codec.sample_fmt">s16</property>
  <property name="kdenlive:meta.media.2.codec.sample_rate">32000</property>
  <property name="kdenlive:meta.media.2.codec.channels">2</property>
  <property name="kdenlive:meta.media.2.codec.name">pcm_s16le</property>
  <property name="kdenlive:meta.media.2.codec.long_name">PCM signed 16-bit little-endian</property>
  <property name="kdenlive:meta.media.2.codec.bit_rate">1024000</property>
  <property name="kdenlive:meta.media.sample_aspect_num">8</property>
  <property name="kdenlive:meta.media.sample_aspect_den">9</property>
  <property name="kdenlive:meta.media.frame_rate_num">30000</property>
  <property name="kdenlive:meta.media.frame_rate_den">1001</property>
  <property name="kdenlive:meta.media.colorspace">601</property>
  <property name="kdenlive:meta.media.color_trc">2</property>
  <property name="kdenlive:meta.media.width">720</property>
  <property name="kdenlive:meta.media.height">480</property>
  <property name="meta.media.top_field_first">0</property>
  <property name="meta.media.progressive">1</property>
  <property name="kdenlive:zone_in">37</property>
  <property name="kdenlive:zone_out">432</property>
 </producer>
 <producer id="38" title="Anonymous Submission" out="813" in="0">
  <property name="length">00:00:27;04</property>
  <property name="eof">pause</property>
  <property name="resource">/home/thoth/.cache/kdenlive/proxy/c9569318960f231206885dcfc873080e.mpg</property>
  <property name="meta.media.nb_streams">2</property>
  <property name="meta.media.0.stream.type">video</property>
  <property name="meta.media.0.stream.frame_rate">29.97</property>
  <property name="meta.media.0.stream.sample_aspect_ratio">0</property>
  <property name="meta.media.0.codec.width">640</property>
  <property name="meta.media.0.codec.height">427</property>
  <property name="meta.media.0.codec.rotate">0</property>
  <property name="meta.media.0.codec.frame_rate">29.97</property>
  <property name="meta.media.0.codec.pix_fmt">yuv422p</property>
  <property name="meta.media.0.codec.sample_aspect_ratio">0.889583</property>
  <property name="meta.media.0.codec.colorspace">601</property>
  <property name="meta.media.0.codec.name">mpeg2video</property>
  <property name="meta.media.0.codec.long_name">MPEG-2 video</property>
  <property name="meta.media.0.codec.bit_rate">0</property>
  <property name="meta.media.1.stream.type">audio</property>
  <property name="meta.media.1.codec.sample_fmt">s16p</property>
  <property name="meta.media.1.codec.sample_rate">32000</property>
  <property name="meta.media.1.codec.channels">2</property>
  <property name="meta.media.1.codec.name">mp2</property>
  <property name="meta.media.1.codec.long_name">MP2 (MPEG audio layer 2)</property>
  <property name="meta.media.1.codec.bit_rate">128000</property>
  <property name="seekable">1</property>
  <property name="meta.media.sample_aspect_num">427</property>
  <property name="meta.media.sample_aspect_den">480</property>
  <property name="aspect_ratio">0.889583</property>
  <property name="audio_index">1</property>
  <property name="video_index">0</property>
  <property name="mute_on_pause">1</property>
  <property name="mlt_service">avformat</property>
  <property name="meta.media.2.stream.type">audio</property>
  <property name="meta.media.2.codec.sample_fmt">s16</property>
  <property name="meta.media.2.codec.sample_rate">32000</property>
  <property name="meta.media.2.codec.channels">2</property>
  <property name="meta.media.2.codec.name">pcm_s16le</property>
  <property name="meta.media.2.codec.long_name">PCM signed 16-bit little-endian</property>
  <property name="meta.media.2.codec.bit_rate">1024000</property>
  <property name="meta.attr.timecode.markup">00:00:57;05</property>
  <property name="kdenlive:folderid">-1</property>
  <property name="meta.media.frame_rate_num">30000</property>
  <property name="meta.media.frame_rate_den">1001</property>
  <property name="meta.media.colorspace">601</property>
  <property name="meta.media.color_trc">2</property>
  <property name="meta.media.width">640</property>
  <property name="meta.media.height">427</property>
  <property name="kdenlive:file_size">99120000</property>
  <property name="kdenlive:file_hash">c9569318960f231206885dcfc873080e</property>
  <property name="kdenlive:proxy">/home/thoth/.cache/kdenlive/proxy/c9569318960f231206885dcfc873080e.mpg</property>
  <property name="proxy_out">825</property>
  <property name="kdenlive:originalurl">2001-07-07-beasty/beastiality-051.dv</property>
  <property name="global_feed">1</property>
  <property name="kdenlive:meta.media.nb_streams">3</property>
  <property name="kdenlive:meta.media.0.stream.type">video</property>
  <property name="kdenlive:meta.media.0.stream.frame_rate">29.97</property>
  <property name="kdenlive:meta.media.0.stream.sample_aspect_ratio">0.888889</property>
  <property name="kdenlive:meta.media.0.codec.width">720</property>
  <property name="kdenlive:meta.media.0.codec.height">480</property>
  <property name="kdenlive:meta.media.0.codec.rotate">0</property>
  <property name="kdenlive:meta.media.0.codec.frame_rate">29.97</property>
  <property name="kdenlive:meta.media.0.codec.pix_fmt">yuv411p</property>
  <property name="kdenlive:meta.media.0.codec.sample_aspect_ratio">0.888889</property>
  <property name="kdenlive:meta.media.0.codec.colorspace">601</property>
  <property name="kdenlive:meta.media.0.codec.name">dvvideo</property>
  <property name="kdenlive:meta.media.0.codec.long_name">DV (Digital Video)</property>
  <property name="kdenlive:meta.media.0.codec.bit_rate">25000000</property>
  <property name="kdenlive:meta.media.1.stream.type">audio</property>
  <property name="kdenlive:meta.media.1.codec.sample_fmt">s16</property>
  <property name="kdenlive:meta.media.1.codec.sample_rate">32000</property>
  <property name="kdenlive:meta.media.1.codec.channels">2</property>
  <property name="kdenlive:meta.media.1.codec.name">pcm_s16le</property>
  <property name="kdenlive:meta.media.1.codec.long_name">PCM signed 16-bit little-endian</property>
  <property name="kdenlive:meta.media.1.codec.bit_rate">1024000</property>
  <property name="kdenlive:meta.media.2.stream.type">audio</property>
  <property name="kdenlive:meta.media.2.codec.sample_fmt">s16</property>
  <property name="kdenlive:meta.media.2.codec.sample_rate">32000</property>
  <property name="kdenlive:meta.media.2.codec.channels">2</property>
  <property name="kdenlive:meta.media.2.codec.name">pcm_s16le</property>
  <property name="kdenlive:meta.media.2.codec.long_name">PCM signed 16-bit little-endian</property>
  <property name="kdenlive:meta.media.2.codec.bit_rate">1024000</property>
  <property name="kdenlive:meta.attr.timecode.markup">00:00:57;05</property>
  <property name="kdenlive:meta.media.sample_aspect_num">8</property>
  <property name="kdenlive:meta.media.sample_aspect_den">9</property>
  <property name="kdenlive:meta.media.frame_rate_num">30000</property>
  <property name="kdenlive:meta.media.frame_rate_den">1001</property>
  <property name="kdenlive:meta.media.colorspace">601</property>
  <property name="kdenlive:meta.media.color_trc">2</property>
  <property name="kdenlive:meta.media.width">720</property>
  <property name="kdenlive:meta.media.height">480</property>
  <property name="meta.media.top_field_first">0</property>
  <property name="meta.media.progressive">1</property>
  <property name="kdenlive:zone_in">0</property>
  <property name="kdenlive:zone_out">126</property>
 </producer>
 <producer id="39" title="Anonymous Submission" out="312" in="0">
  <property name="length">00:00:10;13</property>
  <property name="eof">pause</property>
  <property name="resource">/home/thoth/.cache/kdenlive/proxy/ab60cca5571b57feacb79f43a07fa38f.mpg</property>
  <property name="meta.media.nb_streams">2</property>
  <property name="meta.media.0.stream.type">video</property>
  <property name="meta.media.0.stream.frame_rate">29.97</property>
  <property name="meta.media.0.stream.sample_aspect_ratio">0</property>
  <property name="meta.media.0.codec.width">640</property>
  <property name="meta.media.0.codec.height">427</property>
  <property name="meta.media.0.codec.rotate">0</property>
  <property name="meta.media.0.codec.frame_rate">29.97</property>
  <property name="meta.media.0.codec.pix_fmt">yuv422p</property>
  <property name="meta.media.0.codec.sample_aspect_ratio">0.889583</property>
  <property name="meta.media.0.codec.colorspace">601</property>
  <property name="meta.media.0.codec.name">mpeg2video</property>
  <property name="meta.media.0.codec.long_name">MPEG-2 video</property>
  <property name="meta.media.0.codec.bit_rate">0</property>
  <property name="meta.media.1.stream.type">audio</property>
  <property name="meta.media.1.codec.sample_fmt">s16p</property>
  <property name="meta.media.1.codec.sample_rate">32000</property>
  <property name="meta.media.1.codec.channels">2</property>
  <property name="meta.media.1.codec.name">mp2</property>
  <property name="meta.media.1.codec.long_name">MP2 (MPEG audio layer 2)</property>
  <property name="meta.media.1.codec.bit_rate">128000</property>
  <property name="seekable">1</property>
  <property name="meta.media.sample_aspect_num">427</property>
  <property name="meta.media.sample_aspect_den">480</property>
  <property name="aspect_ratio">0.889583</property>
  <property name="audio_index">1</property>
  <property name="video_index">0</property>
  <property name="mute_on_pause">1</property>
  <property name="mlt_service">avformat</property>
  <property name="meta.media.2.stream.type">audio</property>
  <property name="meta.media.2.codec.sample_fmt">s16</property>
  <property name="meta.media.2.codec.sample_rate">32000</property>
  <property name="meta.media.2.codec.channels">2</property>
  <property name="meta.media.2.codec.name">pcm_s16le</property>
  <property name="meta.media.2.codec.long_name">PCM signed 16-bit little-endian</property>
  <property name="meta.media.2.codec.bit_rate">1024000</property>
  <property name="meta.attr.timecode.markup">00:01:24;23</property>
  <property name="kdenlive:folderid">-1</property>
  <property name="meta.media.frame_rate_num">30000</property>
  <property name="meta.media.frame_rate_den">1001</property>
  <property name="meta.media.colorspace">601</property>
  <property name="meta.media.color_trc">2</property>
  <property name="meta.media.width">640</property>
  <property name="meta.media.height">427</property>
  <property name="kdenlive:file_size">37560000</property>
  <property name="kdenlive:file_hash">ab60cca5571b57feacb79f43a07fa38f</property>
  <property name="kdenlive:proxy">/home/thoth/.cache/kdenlive/proxy/ab60cca5571b57feacb79f43a07fa38f.mpg</property>
  <property name="proxy_out">312</property>
  <property name="kdenlive:originalurl">2001-07-07-beasty/beastiality-052.dv</property>
  <property name="global_feed">1</property>
  <property name="kdenlive:meta.media.nb_streams">3</property>
  <property name="kdenlive:meta.media.0.stream.type">video</property>
  <property name="kdenlive:meta.media.0.stream.frame_rate">29.97</property>
  <property name="kdenlive:meta.media.0.stream.sample_aspect_ratio">0.888889</property>
  <property name="kdenlive:meta.media.0.codec.width">720</property>
  <property name="kdenlive:meta.media.0.codec.height">480</property>
  <property name="kdenlive:meta.media.0.codec.rotate">0</property>
  <property name="kdenlive:meta.media.0.codec.frame_rate">29.97</property>
  <property name="kdenlive:meta.media.0.codec.pix_fmt">yuv411p</property>
  <property name="kdenlive:meta.media.0.codec.sample_aspect_ratio">0.888889</property>
  <property name="kdenlive:meta.media.0.codec.colorspace">601</property>
  <property name="kdenlive:meta.media.0.codec.name">dvvideo</property>
  <property name="kdenlive:meta.media.0.codec.long_name">DV (Digital Video)</property>
  <property name="kdenlive:meta.media.0.codec.bit_rate">25000000</property>
  <property name="kdenlive:meta.media.1.stream.type">audio</property>
  <property name="kdenlive:meta.media.1.codec.sample_fmt">s16</property>
  <property name="kdenlive:meta.media.1.codec.sample_rate">32000</property>
  <property name="kdenlive:meta.media.1.codec.channels">2</property>
  <property name="kdenlive:meta.media.1.codec.name">pcm_s16le</property>
  <property name="kdenlive:meta.media.1.codec.long_name">PCM signed 16-bit little-endian</property>
  <property name="kdenlive:meta.media.1.codec.bit_rate">1024000</property>
  <property name="kdenlive:meta.media.2.stream.type">audio</property>
  <property name="kdenlive:meta.media.2.codec.sample_fmt">s16</property>
  <property name="kdenlive:meta.media.2.codec.sample_rate">32000</property>
  <property name="kdenlive:meta.media.2.codec.channels">2</property>
  <property name="kdenlive:meta.media.2.codec.name">pcm_s16le</property>
  <property name="kdenlive:meta.media.2.codec.long_name">PCM signed 16-bit little-endian</property>
  <property name="kdenlive:meta.media.2.codec.bit_rate">1024000</property>
  <property name="kdenlive:meta.attr.timecode.markup">00:01:24;23</property>
  <property name="kdenlive:meta.media.sample_aspect_num">8</property>
  <property name="kdenlive:meta.media.sample_aspect_den">9</property>
  <property name="kdenlive:meta.media.frame_rate_num">30000</property>
  <property name="kdenlive:meta.media.frame_rate_den">1001</property>
  <property name="kdenlive:meta.media.colorspace">601</property>
  <property name="kdenlive:meta.media.color_trc">2</property>
  <property name="kdenlive:meta.media.width">720</property>
  <property name="kdenlive:meta.media.height">480</property>
  <property name="meta.media.top_field_first">0</property>
  <property name="meta.media.progressive">1</property>
  <property name="kdenlive:zone_in">11</property>
  <property name="kdenlive:zone_out">197</property>
 </producer>
 <producer id="37" title="Anonymous Submission" out="3019" in="0">
  <property name="length">00:01:40;22</property>
  <property name="eof">pause</property>
  <property name="resource">/home/thoth/.cache/kdenlive/proxy/b41e37119c20e5f71afc0df657fe641c.mpg</property>
  <property name="meta.media.nb_streams">2</property>
  <property name="meta.media.0.stream.type">video</property>
  <property name="meta.media.0.stream.frame_rate">29.97</property>
  <property name="meta.media.0.stream.sample_aspect_ratio">0</property>
  <property name="meta.media.0.codec.width">640</property>
  <property name="meta.media.0.codec.height">427</property>
  <property name="meta.media.0.codec.rotate">0</property>
  <property name="meta.media.0.codec.frame_rate">29.97</property>
  <property name="meta.media.0.codec.pix_fmt">yuv422p</property>
  <property name="meta.media.0.codec.sample_aspect_ratio">0.889583</property>
  <property name="meta.media.0.codec.colorspace">601</property>
  <property name="meta.media.0.codec.name">mpeg2video</property>
  <property name="meta.media.0.codec.long_name">MPEG-2 video</property>
  <property name="meta.media.0.codec.bit_rate">0</property>
  <property name="meta.media.1.stream.type">audio</property>
  <property name="meta.media.1.codec.sample_fmt">s16p</property>
  <property name="meta.media.1.codec.sample_rate">32000</property>
  <property name="meta.media.1.codec.channels">2</property>
  <property name="meta.media.1.codec.name">mp2</property>
  <property name="meta.media.1.codec.long_name">MP2 (MPEG audio layer 2)</property>
  <property name="meta.media.1.codec.bit_rate">128000</property>
  <property name="seekable">1</property>
  <property name="meta.media.sample_aspect_num">427</property>
  <property name="meta.media.sample_aspect_den">480</property>
  <property name="aspect_ratio">0.889583</property>
  <property name="audio_index">1</property>
  <property name="video_index">0</property>
  <property name="mute_on_pause">1</property>
  <property name="mlt_service">avformat</property>
  <property name="meta.media.2.stream.type">audio</property>
  <property name="meta.media.2.codec.sample_fmt">s16</property>
  <property name="meta.media.2.codec.sample_rate">32000</property>
  <property name="meta.media.2.codec.channels">2</property>
  <property name="meta.media.2.codec.name">pcm_s16le</property>
  <property name="meta.media.2.codec.long_name">PCM signed 16-bit little-endian</property>
  <property name="meta.media.2.codec.bit_rate">1024000</property>
  <property name="kdenlive:folderid">-1</property>
  <property name="meta.media.frame_rate_num">30000</property>
  <property name="meta.media.frame_rate_den">1001</property>
  <property name="meta.media.colorspace">601</property>
  <property name="meta.media.color_trc">2</property>
  <property name="meta.media.width">640</property>
  <property name="meta.media.height">427</property>
  <property name="kdenlive:file_size">363840000</property>
  <property name="kdenlive:file_hash">b41e37119c20e5f71afc0df657fe641c</property>
  <property name="kdenlive:proxy">/home/thoth/.cache/kdenlive/proxy/b41e37119c20e5f71afc0df657fe641c.mpg</property>
  <property name="proxy_out">3031</property>
  <property name="kdenlive:originalurl">2001-07-07-beasty/beastiality-050.dv</property>
  <property name="global_feed">1</property>
  <property name="kdenlive:meta.media.nb_streams">3</property>
  <property name="kdenlive:meta.media.0.stream.type">video</property>
  <property name="kdenlive:meta.media.0.stream.frame_rate">29.97</property>
  <property name="kdenlive:meta.media.0.stream.sample_aspect_ratio">0.888889</property>
  <property name="kdenlive:meta.media.0.codec.width">720</property>
  <property name="kdenlive:meta.media.0.codec.height">480</property>
  <property name="kdenlive:meta.media.0.codec.rotate">0</property>
  <property name="kdenlive:meta.media.0.codec.frame_rate">29.97</property>
  <property name="kdenlive:meta.media.0.codec.pix_fmt">yuv411p</property>
  <property name="kdenlive:meta.media.0.codec.sample_aspect_ratio">0.888889</property>
  <property name="kdenlive:meta.media.0.codec.colorspace">601</property>
  <property name="kdenlive:meta.media.0.codec.name">dvvideo</property>
  <property name="kdenlive:meta.media.0.codec.long_name">DV (Digital Video)</property>
  <property name="kdenlive:meta.media.0.codec.bit_rate">25000000</property>
  <property name="kdenlive:meta.media.1.stream.type">audio</property>
  <property name="kdenlive:meta.media.1.codec.sample_fmt">s16</property>
  <property name="kdenlive:meta.media.1.codec.sample_rate">32000</property>
  <property name="kdenlive:meta.media.1.codec.channels">2</property>
  <property name="kdenlive:meta.media.1.codec.name">pcm_s16le</property>
  <property name="kdenlive:meta.media.1.codec.long_name">PCM signed 16-bit little-endian</property>
  <property name="kdenlive:meta.media.1.codec.bit_rate">1024000</property>
  <property name="kdenlive:meta.media.2.stream.type">audio</property>
  <property name="kdenlive:meta.media.2.codec.sample_fmt">s16</property>
  <property name="kdenlive:meta.media.2.codec.sample_rate">32000</property>
  <property name="kdenlive:meta.media.2.codec.channels">2</property>
  <property name="kdenlive:meta.media.2.codec.name">pcm_s16le</property>
  <property name="kdenlive:meta.media.2.codec.long_name">PCM signed 16-bit little-endian</property>
  <property name="kdenlive:meta.media.2.codec.bit_rate">1024000</property>
  <property name="kdenlive:meta.media.sample_aspect_num">8</property>
  <property name="kdenlive:meta.media.sample_aspect_den">9</property>
  <property name="kdenlive:meta.media.frame_rate_num">30000</property>
  <property name="kdenlive:meta.media.frame_rate_den">1001</property>
  <property name="kdenlive:meta.media.colorspace">601</property>
  <property name="kdenlive:meta.media.color_trc">2</property>
  <property name="kdenlive:meta.media.width">720</property>
  <property name="kdenlive:meta.media.height">480</property>
  <property name="meta.media.top_field_first">0</property>
  <property name="meta.media.progressive">1</property>
  <property name="kdenlive:zone_in">2845</property>
  <property name="kdenlive:zone_out">2997</property>
 </producer>
 <producer id="41" title="Anonymous Submission" out="429" in="0">
  <property name="length">00:00:14;10</property>
  <property name="eof">pause</property>
  <property name="resource">/home/thoth/.cache/kdenlive/proxy/9395827deea820ec3ef2dd6672ed5cf7.mpg</property>
  <property name="meta.media.nb_streams">2</property>
  <property name="meta.media.0.stream.type">video</property>
  <property name="meta.media.0.stream.frame_rate">29.97</property>
  <property name="meta.media.0.stream.sample_aspect_ratio">0</property>
  <property name="meta.media.0.codec.width">640</property>
  <property name="meta.media.0.codec.height">427</property>
  <property name="meta.media.0.codec.rotate">0</property>
  <property name="meta.media.0.codec.frame_rate">29.97</property>
  <property name="meta.media.0.codec.pix_fmt">yuv422p</property>
  <property name="meta.media.0.codec.sample_aspect_ratio">0.889583</property>
  <property name="meta.media.0.codec.colorspace">601</property>
  <property name="meta.media.0.codec.name">mpeg2video</property>
  <property name="meta.media.0.codec.long_name">MPEG-2 video</property>
  <property name="meta.media.0.codec.bit_rate">0</property>
  <property name="meta.media.1.stream.type">audio</property>
  <property name="meta.media.1.codec.sample_fmt">s16p</property>
  <property name="meta.media.1.codec.sample_rate">32000</property>
  <property name="meta.media.1.codec.channels">2</property>
  <property name="meta.media.1.codec.name">mp2</property>
  <property name="meta.media.1.codec.long_name">MP2 (MPEG audio layer 2)</property>
  <property name="meta.media.1.codec.bit_rate">128000</property>
  <property name="seekable">1</property>
  <property name="meta.media.sample_aspect_num">427</property>
  <property name="meta.media.sample_aspect_den">480</property>
  <property name="aspect_ratio">0.889583</property>
  <property name="audio_index">1</property>
  <property name="video_index">0</property>
  <property name="mute_on_pause">1</property>
  <property name="mlt_service">avformat</property>
  <property name="meta.media.2.stream.type">audio</property>
  <property name="meta.media.2.codec.sample_fmt">s16</property>
  <property name="meta.media.2.codec.sample_rate">32000</property>
  <property name="meta.media.2.codec.channels">2</property>
  <property name="meta.media.2.codec.name">pcm_s16le</property>
  <property name="meta.media.2.codec.long_name">PCM signed 16-bit little-endian</property>
  <property name="meta.media.2.codec.bit_rate">1024000</property>
  <property name="meta.attr.timecode.markup">00:02:00;04</property>
  <property name="kdenlive:folderid">-1</property>
  <property name="meta.media.frame_rate_num">30000</property>
  <property name="meta.media.frame_rate_den">1001</property>
  <property name="meta.media.colorspace">601</property>
  <property name="meta.media.color_trc">2</property>
  <property name="meta.media.width">640</property>
  <property name="meta.media.height">427</property>
  <property name="kdenlive:file_size">51600000</property>
  <property name="kdenlive:file_hash">9395827deea820ec3ef2dd6672ed5cf7</property>
  <property name="kdenlive:proxy">/home/thoth/.cache/kdenlive/proxy/9395827deea820ec3ef2dd6672ed5cf7.mpg</property>
  <property name="proxy_out">429</property>
  <property name="kdenlive:originalurl">2001-07-07-beasty/beastiality-024.dv</property>
  <property name="global_feed">1</property>
  <property name="kdenlive:meta.media.nb_streams">3</property>
  <property name="kdenlive:meta.media.0.stream.type">video</property>
  <property name="kdenlive:meta.media.0.stream.frame_rate">29.97</property>
  <property name="kdenlive:meta.media.0.stream.sample_aspect_ratio">0.888889</property>
  <property name="kdenlive:meta.media.0.codec.width">720</property>
  <property name="kdenlive:meta.media.0.codec.height">480</property>
  <property name="kdenlive:meta.media.0.codec.rotate">0</property>
  <property name="kdenlive:meta.media.0.codec.frame_rate">29.97</property>
  <property name="kdenlive:meta.media.0.codec.pix_fmt">yuv411p</property>
  <property name="kdenlive:meta.media.0.codec.sample_aspect_ratio">0.888889</property>
  <property name="kdenlive:meta.media.0.codec.colorspace">601</property>
  <property name="kdenlive:meta.media.0.codec.name">dvvideo</property>
  <property name="kdenlive:meta.media.0.codec.long_name">DV (Digital Video)</property>
  <property name="kdenlive:meta.media.0.codec.bit_rate">25000000</property>
  <property name="kdenlive:meta.media.1.stream.type">audio</property>
  <property name="kdenlive:meta.media.1.codec.sample_fmt">s16</property>
  <property name="kdenlive:meta.media.1.codec.sample_rate">32000</property>
  <property name="kdenlive:meta.media.1.codec.channels">2</property>
  <property name="kdenlive:meta.media.1.codec.name">pcm_s16le</property>
  <property name="kdenlive:meta.media.1.codec.long_name">PCM signed 16-bit little-endian</property>
  <property name="kdenlive:meta.media.1.codec.bit_rate">1024000</property>
  <property name="kdenlive:meta.media.2.stream.type">audio</property>
  <property name="kdenlive:meta.media.2.codec.sample_fmt">s16</property>
  <property name="kdenlive:meta.media.2.codec.sample_rate">32000</property>
  <property name="kdenlive:meta.media.2.codec.channels">2</property>
  <property name="kdenlive:meta.media.2.codec.name">pcm_s16le</property>
  <property name="kdenlive:meta.media.2.codec.long_name">PCM signed 16-bit little-endian</property>
  <property name="kdenlive:meta.media.2.codec.bit_rate">1024000</property>
  <property name="kdenlive:meta.attr.timecode.markup">00:02:00;04</property>
  <property name="kdenlive:meta.media.sample_aspect_num">8</property>
  <property name="kdenlive:meta.media.sample_aspect_den">9</property>
  <property name="kdenlive:meta.media.frame_rate_num">30000</property>
  <property name="kdenlive:meta.media.frame_rate_den">1001</property>
  <property name="kdenlive:meta.media.colorspace">601</property>
  <property name="kdenlive:meta.media.color_trc">2</property>
  <property name="kdenlive:meta.media.width">720</property>
  <property name="kdenlive:meta.media.height">480</property>
  <property name="meta.media.top_field_first">0</property>
  <property name="meta.media.progressive">1</property>
  <property name="kdenlive:zone_in">57</property>
  <property name="kdenlive:zone_out">372</property>
 </producer>
 <producer id="40" title="Anonymous Submission" out="1034" in="0">
  <property name="length">00:00:34;15</property>
  <property name="eof">pause</property>
  <property name="resource">/home/thoth/.cache/kdenlive/proxy/b90441e52b65266c39eba5434152283d.mpg</property>
  <property name="meta.media.nb_streams">2</property>
  <property name="meta.media.0.stream.type">video</property>
  <property name="meta.media.0.stream.frame_rate">29.97</property>
  <property name="meta.media.0.stream.sample_aspect_ratio">0</property>
  <property name="meta.media.0.codec.width">640</property>
  <property name="meta.media.0.codec.height">427</property>
  <property name="meta.media.0.codec.rotate">0</property>
  <property name="meta.media.0.codec.frame_rate">29.97</property>
  <property name="meta.media.0.codec.pix_fmt">yuv422p</property>
  <property name="meta.media.0.codec.sample_aspect_ratio">0.889583</property>
  <property name="meta.media.0.codec.colorspace">601</property>
  <property name="meta.media.0.codec.name">mpeg2video</property>
  <property name="meta.media.0.codec.long_name">MPEG-2 video</property>
  <property name="meta.media.0.codec.bit_rate">0</property>
  <property name="meta.media.1.stream.type">audio</property>
  <property name="meta.media.1.codec.sample_fmt">s16p</property>
  <property name="meta.media.1.codec.sample_rate">32000</property>
  <property name="meta.media.1.codec.channels">2</property>
  <property name="meta.media.1.codec.name">mp2</property>
  <property name="meta.media.1.codec.long_name">MP2 (MPEG audio layer 2)</property>
  <property name="meta.media.1.codec.bit_rate">128000</property>
  <property name="seekable">1</property>
  <property name="meta.media.sample_aspect_num">427</property>
  <property name="meta.media.sample_aspect_den">480</property>
  <property name="aspect_ratio">0.889583</property>
  <property name="audio_index">1</property>
  <property name="video_index">0</property>
  <property name="mute_on_pause">1</property>
  <property name="mlt_service">avformat</property>
  <property name="meta.media.2.stream.type">audio</property>
  <property name="meta.media.2.codec.sample_fmt">s16</property>
  <property name="meta.media.2.codec.sample_rate">32000</property>
  <property name="meta.media.2.codec.channels">2</property>
  <property name="meta.media.2.codec.name">pcm_s16le</property>
  <property name="meta.media.2.codec.long_name">PCM signed 16-bit little-endian</property>
  <property name="meta.media.2.codec.bit_rate">1024000</property>
  <property name="meta.attr.timecode.markup">00:01:35;06</property>
  <property name="kdenlive:folderid">-1</property>
  <property name="meta.media.frame_rate_num">30000</property>
  <property name="meta.media.frame_rate_den">1001</property>
  <property name="meta.media.colorspace">601</property>
  <property name="meta.media.color_trc">2</property>
  <property name="meta.media.width">640</property>
  <property name="meta.media.height">427</property>
  <property name="kdenlive:file_size">125640000</property>
  <property name="kdenlive:file_hash">b90441e52b65266c39eba5434152283d</property>
  <property name="kdenlive:proxy">/home/thoth/.cache/kdenlive/proxy/b90441e52b65266c39eba5434152283d.mpg</property>
  <property name="proxy_out">1046</property>
  <property name="kdenlive:originalurl">2001-07-07-beasty/beastiality-053.dv</property>
  <property name="global_feed">1</property>
  <property name="kdenlive:meta.media.nb_streams">3</property>
  <property name="kdenlive:meta.media.0.stream.type">video</property>
  <property name="kdenlive:meta.media.0.stream.frame_rate">29.97</property>
  <property name="kdenlive:meta.media.0.stream.sample_aspect_ratio">0.888889</property>
  <property name="kdenlive:meta.media.0.codec.width">720</property>
  <property name="kdenlive:meta.media.0.codec.height">480</property>
  <property name="kdenlive:meta.media.0.codec.rotate">0</property>
  <property name="kdenlive:meta.media.0.codec.frame_rate">29.97</property>
  <property name="kdenlive:meta.media.0.codec.pix_fmt">yuv411p</property>
  <property name="kdenlive:meta.media.0.codec.sample_aspect_ratio">0.888889</property>
  <property name="kdenlive:meta.media.0.codec.colorspace">601</property>
  <property name="kdenlive:meta.media.0.codec.name">dvvideo</property>
  <property name="kdenlive:meta.media.0.codec.long_name">DV (Digital Video)</property>
  <property name="kdenlive:meta.media.0.codec.bit_rate">25000000</property>
  <property name="kdenlive:meta.media.1.stream.type">audio</property>
  <property name="kdenlive:meta.media.1.codec.sample_fmt">s16</property>
  <property name="kdenlive:meta.media.1.codec.sample_rate">32000</property>
  <property name="kdenlive:meta.media.1.codec.channels">2</property>
  <property name="kdenlive:meta.media.1.codec.name">pcm_s16le</property>
  <property name="kdenlive:meta.media.1.codec.long_name">PCM signed 16-bit little-endian</property>
  <property name="kdenlive:meta.media.1.codec.bit_rate">1024000</property>
  <property name="kdenlive:meta.media.2.stream.type">audio</property>
  <property name="kdenlive:meta.media.2.codec.sample_fmt">s16</property>
  <property name="kdenlive:meta.media.2.codec.sample_rate">32000</property>
  <property name="kdenlive:meta.media.2.codec.channels">2</property>
  <property name="kdenlive:meta.media.2.codec.name">pcm_s16le</property>
  <property name="kdenlive:meta.media.2.codec.long_name">PCM signed 16-bit little-endian</property>
  <property name="kdenlive:meta.media.2.codec.bit_rate">1024000</property>
  <property name="kdenlive:meta.attr.timecode.markup">00:01:35;06</property>
  <property name="kdenlive:meta.media.sample_aspect_num">8</property>
  <property name="kdenlive:meta.media.sample_aspect_den">9</property>
  <property name="kdenlive:meta.media.frame_rate_num">30000</property>
  <property name="kdenlive:meta.media.frame_rate_den">1001</property>
  <property name="kdenlive:meta.media.colorspace">601</property>
  <property name="kdenlive:meta.media.color_trc">2</property>
  <property name="kdenlive:meta.media.width">720</property>
  <property name="kdenlive:meta.media.height">480</property>
  <property name="meta.media.top_field_first">0</property>
  <property name="meta.media.progressive">1</property>
  <property name="kdenlive:zone_in">0</property>
  <property name="kdenlive:zone_out">160</property>
 </producer>
 <producer id="43" title="Anonymous Submission" out="301" in="0">
  <property name="length">00:00:10;02</property>
  <property name="eof">pause</property>
  <property name="resource">/home/thoth/.cache/kdenlive/proxy/e3260923695ef569089fddfadf32167d.mpg</property>
  <property name="meta.media.nb_streams">2</property>
  <property name="meta.media.0.stream.type">video</property>
  <property name="meta.media.0.stream.frame_rate">29.97</property>
  <property name="meta.media.0.stream.sample_aspect_ratio">0</property>
  <property name="meta.media.0.codec.width">640</property>
  <property name="meta.media.0.codec.height">427</property>
  <property name="meta.media.0.codec.rotate">0</property>
  <property name="meta.media.0.codec.frame_rate">29.97</property>
  <property name="meta.media.0.codec.pix_fmt">yuv422p</property>
  <property name="meta.media.0.codec.sample_aspect_ratio">0.889583</property>
  <property name="meta.media.0.codec.colorspace">601</property>
  <property name="meta.media.0.codec.name">mpeg2video</property>
  <property name="meta.media.0.codec.long_name">MPEG-2 video</property>
  <property name="meta.media.0.codec.bit_rate">0</property>
  <property name="meta.media.1.stream.type">audio</property>
  <property name="meta.media.1.codec.sample_fmt">s16p</property>
  <property name="meta.media.1.codec.sample_rate">32000</property>
  <property name="meta.media.1.codec.channels">2</property>
  <property name="meta.media.1.codec.name">mp2</property>
  <property name="meta.media.1.codec.long_name">MP2 (MPEG audio layer 2)</property>
  <property name="meta.media.1.codec.bit_rate">128000</property>
  <property name="seekable">1</property>
  <property name="meta.media.sample_aspect_num">427</property>
  <property name="meta.media.sample_aspect_den">480</property>
  <property name="aspect_ratio">0.889583</property>
  <property name="audio_index">1</property>
  <property name="video_index">0</property>
  <property name="mute_on_pause">1</property>
  <property name="mlt_service">avformat</property>
  <property name="meta.media.2.stream.type">audio</property>
  <property name="meta.media.2.codec.sample_fmt">s16</property>
  <property name="meta.media.2.codec.sample_rate">32000</property>
  <property name="meta.media.2.codec.channels">2</property>
  <property name="meta.media.2.codec.name">pcm_s16le</property>
  <property name="meta.media.2.codec.long_name">PCM signed 16-bit little-endian</property>
  <property name="meta.media.2.codec.bit_rate">1024000</property>
  <property name="meta.attr.timecode.markup">00:02:41;20</property>
  <property name="kdenlive:folderid">-1</property>
  <property name="meta.media.frame_rate_num">30000</property>
  <property name="meta.media.frame_rate_den">1001</property>
  <property name="meta.media.colorspace">601</property>
  <property name="meta.media.color_trc">2</property>
  <property name="meta.media.width">640</property>
  <property name="meta.media.height">427</property>
  <property name="kdenlive:file_size">36240000</property>
  <property name="kdenlive:file_hash">e3260923695ef569089fddfadf32167d</property>
  <property name="kdenlive:proxy">/home/thoth/.cache/kdenlive/proxy/e3260923695ef569089fddfadf32167d.mpg</property>
  <property name="proxy_out">301</property>
  <property name="kdenlive:originalurl">2001-07-07-beasty/beastiality-026.dv</property>
  <property name="global_feed">1</property>
  <property name="kdenlive:meta.media.nb_streams">3</property>
  <property name="kdenlive:meta.media.0.stream.type">video</property>
  <property name="kdenlive:meta.media.0.stream.frame_rate">29.97</property>
  <property name="kdenlive:meta.media.0.stream.sample_aspect_ratio">0.888889</property>
  <property name="kdenlive:meta.media.0.codec.width">720</property>
  <property name="kdenlive:meta.media.0.codec.height">480</property>
  <property name="kdenlive:meta.media.0.codec.rotate">0</property>
  <property name="kdenlive:meta.media.0.codec.frame_rate">29.97</property>
  <property name="kdenlive:meta.media.0.codec.pix_fmt">yuv411p</property>
  <property name="kdenlive:meta.media.0.codec.sample_aspect_ratio">0.888889</property>
  <property name="kdenlive:meta.media.0.codec.colorspace">601</property>
  <property name="kdenlive:meta.media.0.codec.name">dvvideo</property>
  <property name="kdenlive:meta.media.0.codec.long_name">DV (Digital Video)</property>
  <property name="kdenlive:meta.media.0.codec.bit_rate">25000000</property>
  <property name="kdenlive:meta.media.1.stream.type">audio</property>
  <property name="kdenlive:meta.media.1.codec.sample_fmt">s16</property>
  <property name="kdenlive:meta.media.1.codec.sample_rate">32000</property>
  <property name="kdenlive:meta.media.1.codec.channels">2</property>
  <property name="kdenlive:meta.media.1.codec.name">pcm_s16le</property>
  <property name="kdenlive:meta.media.1.codec.long_name">PCM signed 16-bit little-endian</property>
  <property name="kdenlive:meta.media.1.codec.bit_rate">1024000</property>
  <property name="kdenlive:meta.media.2.stream.type">audio</property>
  <property name="kdenlive:meta.media.2.codec.sample_fmt">s16</property>
  <property name="kdenlive:meta.media.2.codec.sample_rate">32000</property>
  <property name="kdenlive:meta.media.2.codec.channels">2</property>
  <property name="kdenlive:meta.media.2.codec.name">pcm_s16le</property>
  <property name="kdenlive:meta.media.2.codec.long_name">PCM signed 16-bit little-endian</property>
  <property name="kdenlive:meta.media.2.codec.bit_rate">1024000</property>
  <property name="kdenlive:meta.attr.timecode.markup">00:02:41;20</property>
  <property name="kdenlive:meta.media.sample_aspect_num">8</property>
  <property name="kdenlive:meta.media.sample_aspect_den">9</property>
  <property name="kdenlive:meta.media.frame_rate_num">30000</property>
  <property name="kdenlive:meta.media.frame_rate_den">1001</property>
  <property name="kdenlive:meta.media.colorspace">601</property>
  <property name="kdenlive:meta.media.color_trc">2</property>
  <property name="kdenlive:meta.media.width">720</property>
  <property name="kdenlive:meta.media.height">480</property>
  <property name="meta.media.top_field_first">0</property>
  <property name="meta.media.progressive">1</property>
  <property name="kdenlive:zone_in">92</property>
  <property name="kdenlive:zone_out">231</property>
 </producer>
 <producer id="44" title="Anonymous Submission" out="34" in="0">
  <property name="length">00:00:01;05</property>
  <property name="eof">pause</property>
  <property name="resource">/home/thoth/.cache/kdenlive/proxy/68e9fd7e15d7cf5fe11d8a87ebb2d650.mpg</property>
  <property name="meta.media.nb_streams">2</property>
  <property name="meta.media.0.stream.type">video</property>
  <property name="meta.media.0.stream.frame_rate">29.97</property>
  <property name="meta.media.0.stream.sample_aspect_ratio">0</property>
  <property name="meta.media.0.codec.width">640</property>
  <property name="meta.media.0.codec.height">427</property>
  <property name="meta.media.0.codec.rotate">0</property>
  <property name="meta.media.0.codec.frame_rate">29.97</property>
  <property name="meta.media.0.codec.pix_fmt">yuv422p</property>
  <property name="meta.media.0.codec.sample_aspect_ratio">0.889583</property>
  <property name="meta.media.0.codec.colorspace">601</property>
  <property name="meta.media.0.codec.name">mpeg2video</property>
  <property name="meta.media.0.codec.long_name">MPEG-2 video</property>
  <property name="meta.media.0.codec.bit_rate">0</property>
  <property name="meta.media.1.stream.type">audio</property>
  <property name="meta.media.1.codec.sample_fmt">s16p</property>
  <property name="meta.media.1.codec.sample_rate">32000</property>
  <property name="meta.media.1.codec.channels">2</property>
  <property name="meta.media.1.codec.name">mp2</property>
  <property name="meta.media.1.codec.long_name">MP2 (MPEG audio layer 2)</property>
  <property name="meta.media.1.codec.bit_rate">128000</property>
  <property name="seekable">1</property>
  <property name="meta.media.sample_aspect_num">427</property>
  <property name="meta.media.sample_aspect_den">480</property>
  <property name="aspect_ratio">0.889583</property>
  <property name="audio_index">1</property>
  <property name="video_index">0</property>
  <property name="mute_on_pause">1</property>
  <property name="mlt_service">avformat</property>
  <property name="meta.media.2.stream.type">audio</property>
  <property name="meta.media.2.codec.sample_fmt">s16</property>
  <property name="meta.media.2.codec.sample_rate">32000</property>
  <property name="meta.media.2.codec.channels">2</property>
  <property name="meta.media.2.codec.name">pcm_s16le</property>
  <property name="meta.media.2.codec.long_name">PCM signed 16-bit little-endian</property>
  <property name="meta.media.2.codec.bit_rate">1024000</property>
  <property name="meta.attr.timecode.markup">00:02:51;22</property>
  <property name="kdenlive:folderid">-1</property>
  <property name="meta.media.frame_rate_num">30000</property>
  <property name="meta.media.frame_rate_den">1001</property>
  <property name="meta.media.colorspace">601</property>
  <property name="meta.media.color_trc">2</property>
  <property name="meta.media.width">640</property>
  <property name="meta.media.height">427</property>
  <property name="kdenlive:file_size">4200000</property>
  <property name="kdenlive:file_hash">68e9fd7e15d7cf5fe11d8a87ebb2d650</property>
  <property name="kdenlive:proxy">/home/thoth/.cache/kdenlive/proxy/68e9fd7e15d7cf5fe11d8a87ebb2d650.mpg</property>
  <property name="proxy_out">34</property>
  <property name="kdenlive:originalurl">2001-07-07-beasty/beastiality-027.dv</property>
  <property name="global_feed">1</property>
  <property name="kdenlive:meta.media.nb_streams">3</property>
  <property name="kdenlive:meta.media.0.stream.type">video</property>
  <property name="kdenlive:meta.media.0.stream.frame_rate">29.97</property>
  <property name="kdenlive:meta.media.0.stream.sample_aspect_ratio">0.888889</property>
  <property name="kdenlive:meta.media.0.codec.width">720</property>
  <property name="kdenlive:meta.media.0.codec.height">480</property>
  <property name="kdenlive:meta.media.0.codec.rotate">0</property>
  <property name="kdenlive:meta.media.0.codec.frame_rate">29.97</property>
  <property name="kdenlive:meta.media.0.codec.pix_fmt">yuv411p</property>
  <property name="kdenlive:meta.media.0.codec.sample_aspect_ratio">0.888889</property>
  <property name="kdenlive:meta.media.0.codec.colorspace">601</property>
  <property name="kdenlive:meta.media.0.codec.name">dvvideo</property>
  <property name="kdenlive:meta.media.0.codec.long_name">DV (Digital Video)</property>
  <property name="kdenlive:meta.media.0.codec.bit_rate">25000000</property>
  <property name="kdenlive:meta.media.1.stream.type">audio</property>
  <property name="kdenlive:meta.media.1.codec.sample_fmt">s16</property>
  <property name="kdenlive:meta.media.1.codec.sample_rate">32000</property>
  <property name="kdenlive:meta.media.1.codec.channels">2</property>
  <property name="kdenlive:meta.media.1.codec.name">pcm_s16le</property>
  <property name="kdenlive:meta.media.1.codec.long_name">PCM signed 16-bit little-endian</property>
  <property name="kdenlive:meta.media.1.codec.bit_rate">1024000</property>
  <property name="kdenlive:meta.media.2.stream.type">audio</property>
  <property name="kdenlive:meta.media.2.codec.sample_fmt">s16</property>
  <property name="kdenlive:meta.media.2.codec.sample_rate">32000</property>
  <property name="kdenlive:meta.media.2.codec.channels">2</property>
  <property name="kdenlive:meta.media.2.codec.name">pcm_s16le</property>
  <property name="kdenlive:meta.media.2.codec.long_name">PCM signed 16-bit little-endian</property>
  <property name="kdenlive:meta.media.2.codec.bit_rate">1024000</property>
  <property name="kdenlive:meta.attr.timecode.markup">00:02:51;22</property>
  <property name="kdenlive:meta.media.sample_aspect_num">8</property>
  <property name="kdenlive:meta.media.sample_aspect_den">9</property>
  <property name="kdenlive:meta.media.frame_rate_num">30000</property>
  <property name="kdenlive:meta.media.frame_rate_den">1001</property>
  <property name="kdenlive:meta.media.colorspace">601</property>
  <property name="kdenlive:meta.media.color_trc">2</property>
  <property name="kdenlive:meta.media.width">720</property>
  <property name="kdenlive:meta.media.height">480</property>
  <property name="meta.media.top_field_first">0</property>
  <property name="meta.media.progressive">1</property>
 </producer>
 <producer id="42" title="Anonymous Submission" out="803" in="0">
  <property name="length">00:00:26;24</property>
  <property name="eof">pause</property>
  <property name="resource">/home/thoth/.cache/kdenlive/proxy/6ac32dfeb53cad68fee1db27074df36b.mpg</property>
  <property name="meta.media.nb_streams">2</property>
  <property name="meta.media.0.stream.type">video</property>
  <property name="meta.media.0.stream.frame_rate">29.97</property>
  <property name="meta.media.0.stream.sample_aspect_ratio">0</property>
  <property name="meta.media.0.codec.width">640</property>
  <property name="meta.media.0.codec.height">427</property>
  <property name="meta.media.0.codec.rotate">0</property>
  <property name="meta.media.0.codec.frame_rate">29.97</property>
  <property name="meta.media.0.codec.pix_fmt">yuv422p</property>
  <property name="meta.media.0.codec.sample_aspect_ratio">0.889583</property>
  <property name="meta.media.0.codec.colorspace">601</property>
  <property name="meta.media.0.codec.name">mpeg2video</property>
  <property name="meta.media.0.codec.long_name">MPEG-2 video</property>
  <property name="meta.media.0.codec.bit_rate">0</property>
  <property name="meta.media.1.stream.type">audio</property>
  <property name="meta.media.1.codec.sample_fmt">s16p</property>
  <property name="meta.media.1.codec.sample_rate">32000</property>
  <property name="meta.media.1.codec.channels">2</property>
  <property name="meta.media.1.codec.name">mp2</property>
  <property name="meta.media.1.codec.long_name">MP2 (MPEG audio layer 2)</property>
  <property name="meta.media.1.codec.bit_rate">128000</property>
  <property name="seekable">1</property>
  <property name="meta.media.sample_aspect_num">427</property>
  <property name="meta.media.sample_aspect_den">480</property>
  <property name="aspect_ratio">0.889583</property>
  <property name="audio_index">1</property>
  <property name="video_index">0</property>
  <property name="mute_on_pause">1</property>
  <property name="mlt_service">avformat</property>
  <property name="meta.media.2.stream.type">audio</property>
  <property name="meta.media.2.codec.sample_fmt">s16</property>
  <property name="meta.media.2.codec.sample_rate">32000</property>
  <property name="meta.media.2.codec.channels">2</property>
  <property name="meta.media.2.codec.name">pcm_s16le</property>
  <property name="meta.media.2.codec.long_name">PCM signed 16-bit little-endian</property>
  <property name="meta.media.2.codec.bit_rate">1024000</property>
  <property name="meta.attr.timecode.markup">00:02:14;14</property>
  <property name="kdenlive:folderid">-1</property>
  <property name="meta.media.frame_rate_num">30000</property>
  <property name="meta.media.frame_rate_den">1001</property>
  <property name="meta.media.colorspace">601</property>
  <property name="meta.media.color_trc">2</property>
  <property name="meta.media.width">640</property>
  <property name="meta.media.height">427</property>
  <property name="kdenlive:file_size">97920000</property>
  <property name="kdenlive:file_hash">6ac32dfeb53cad68fee1db27074df36b</property>
  <property name="kdenlive:proxy">/home/thoth/.cache/kdenlive/proxy/6ac32dfeb53cad68fee1db27074df36b.mpg</property>
  <property name="proxy_out">815</property>
  <property name="kdenlive:originalurl">2001-07-07-beasty/beastiality-025.dv</property>
  <property name="global_feed">1</property>
  <property name="kdenlive:meta.media.nb_streams">3</property>
  <property name="kdenlive:meta.media.0.stream.type">video</property>
  <property name="kdenlive:meta.media.0.stream.frame_rate">29.97</property>
  <property name="kdenlive:meta.media.0.stream.sample_aspect_ratio">0.888889</property>
  <property name="kdenlive:meta.media.0.codec.width">720</property>
  <property name="kdenlive:meta.media.0.codec.height">480</property>
  <property name="kdenlive:meta.media.0.codec.rotate">0</property>
  <property name="kdenlive:meta.media.0.codec.frame_rate">29.97</property>
  <property name="kdenlive:meta.media.0.codec.pix_fmt">yuv411p</property>
  <property name="kdenlive:meta.media.0.codec.sample_aspect_ratio">0.888889</property>
  <property name="kdenlive:meta.media.0.codec.colorspace">601</property>
  <property name="kdenlive:meta.media.0.codec.name">dvvideo</property>
  <property name="kdenlive:meta.media.0.codec.long_name">DV (Digital Video)</property>
  <property name="kdenlive:meta.media.0.codec.bit_rate">25000000</property>
  <property name="kdenlive:meta.media.1.stream.type">audio</property>
  <property name="kdenlive:meta.media.1.codec.sample_fmt">s16</property>
  <property name="kdenlive:meta.media.1.codec.sample_rate">32000</property>
  <property name="kdenlive:meta.media.1.codec.channels">2</property>
  <property name="kdenlive:meta.media.1.codec.name">pcm_s16le</property>
  <property name="kdenlive:meta.media.1.codec.long_name">PCM signed 16-bit little-endian</property>
  <property name="kdenlive:meta.media.1.codec.bit_rate">1024000</property>
  <property name="kdenlive:meta.media.2.stream.type">audio</property>
  <property name="kdenlive:meta.media.2.codec.sample_fmt">s16</property>
  <property name="kdenlive:meta.media.2.codec.sample_rate">32000</property>
  <property name="kdenlive:meta.media.2.codec.channels">2</property>
  <property name="kdenlive:meta.media.2.codec.name">pcm_s16le</property>
  <property name="kdenlive:meta.media.2.codec.long_name">PCM signed 16-bit little-endian</property>
  <property name="kdenlive:meta.media.2.codec.bit_rate">1024000</property>
  <property name="kdenlive:meta.attr.timecode.markup">00:02:14;14</property>
  <property name="kdenlive:meta.media.sample_aspect_num">8</property>
  <property name="kdenlive:meta.media.sample_aspect_den">9</property>
  <property name="kdenlive:meta.media.frame_rate_num">30000</property>
  <property name="kdenlive:meta.media.frame_rate_den">1001</property>
  <property name="kdenlive:meta.media.colorspace">601</property>
  <property name="kdenlive:meta.media.color_trc">2</property>
  <property name="kdenlive:meta.media.width">720</property>
  <property name="kdenlive:meta.media.height">480</property>
  <property name="meta.media.top_field_first">0</property>
  <property name="meta.media.progressive">1</property>
  <property name="kdenlive:zone_in">0</property>
  <property name="kdenlive:zone_out">512</property>
 </producer>
 <producer id="45" title="Anonymous Submission" out="442" in="0">
  <property name="length">00:00:14;23</property>
  <property name="eof">pause</property>
  <property name="resource">/home/thoth/.cache/kdenlive/proxy/0fb1dcd5f30cf447750e82eb13b5c67f.mpg</property>
  <property name="meta.media.nb_streams">2</property>
  <property name="meta.media.0.stream.type">video</property>
  <property name="meta.media.0.stream.frame_rate">29.97</property>
  <property name="meta.media.0.stream.sample_aspect_ratio">0</property>
  <property name="meta.media.0.codec.width">640</property>
  <property name="meta.media.0.codec.height">427</property>
  <property name="meta.media.0.codec.rotate">0</property>
  <property name="meta.media.0.codec.frame_rate">29.97</property>
  <property name="meta.media.0.codec.pix_fmt">yuv422p</property>
  <property name="meta.media.0.codec.sample_aspect_ratio">0.889583</property>
  <property name="meta.media.0.codec.colorspace">601</property>
  <property name="meta.media.0.codec.name">mpeg2video</property>
  <property name="meta.media.0.codec.long_name">MPEG-2 video</property>
  <property name="meta.media.0.codec.bit_rate">0</property>
  <property name="meta.media.1.stream.type">audio</property>
  <property name="meta.media.1.codec.sample_fmt">s16p</property>
  <property name="meta.media.1.codec.sample_rate">32000</property>
  <property name="meta.media.1.codec.channels">2</property>
  <property name="meta.media.1.codec.name">mp2</property>
  <property name="meta.media.1.codec.long_name">MP2 (MPEG audio layer 2)</property>
  <property name="meta.media.1.codec.bit_rate">128000</property>
  <property name="seekable">1</property>
  <property name="meta.media.sample_aspect_num">427</property>
  <property name="meta.media.sample_aspect_den">480</property>
  <property name="aspect_ratio">0.889583</property>
  <property name="audio_index">1</property>
  <property name="video_index">0</property>
  <property name="mute_on_pause">1</property>
  <property name="mlt_service">avformat</property>
  <property name="meta.media.2.stream.type">audio</property>
  <property name="meta.media.2.codec.sample_fmt">s16</property>
  <property name="meta.media.2.codec.sample_rate">32000</property>
  <property name="meta.media.2.codec.channels">2</property>
  <property name="meta.media.2.codec.name">pcm_s16le</property>
  <property name="meta.media.2.codec.long_name">PCM signed 16-bit little-endian</property>
  <property name="meta.media.2.codec.bit_rate">1024000</property>
  <property name="meta.attr.timecode.markup">00:02:52;27</property>
  <property name="kdenlive:folderid">-1</property>
  <property name="meta.media.frame_rate_num">30000</property>
  <property name="meta.media.frame_rate_den">1001</property>
  <property name="meta.media.colorspace">601</property>
  <property name="meta.media.color_trc">2</property>
  <property name="meta.media.width">640</property>
  <property name="meta.media.height">427</property>
  <property name="kdenlive:file_size">53160000</property>
  <property name="kdenlive:file_hash">0fb1dcd5f30cf447750e82eb13b5c67f</property>
  <property name="kdenlive:proxy">/home/thoth/.cache/kdenlive/proxy/0fb1dcd5f30cf447750e82eb13b5c67f.mpg</property>
  <property name="proxy_out">442</property>
  <property name="kdenlive:originalurl">2001-07-07-beasty/beastiality-028.dv</property>
  <property name="global_feed">1</property>
  <property name="kdenlive:meta.media.nb_streams">3</property>
  <property name="kdenlive:meta.media.0.stream.type">video</property>
  <property name="kdenlive:meta.media.0.stream.frame_rate">29.97</property>
  <property name="kdenlive:meta.media.0.stream.sample_aspect_ratio">0.888889</property>
  <property name="kdenlive:meta.media.0.codec.width">720</property>
  <property name="kdenlive:meta.media.0.codec.height">480</property>
  <property name="kdenlive:meta.media.0.codec.rotate">0</property>
  <property name="kdenlive:meta.media.0.codec.frame_rate">29.97</property>
  <property name="kdenlive:meta.media.0.codec.pix_fmt">yuv411p</property>
  <property name="kdenlive:meta.media.0.codec.sample_aspect_ratio">0.888889</property>
  <property name="kdenlive:meta.media.0.codec.colorspace">601</property>
  <property name="kdenlive:meta.media.0.codec.name">dvvideo</property>
  <property name="kdenlive:meta.media.0.codec.long_name">DV (Digital Video)</property>
  <property name="kdenlive:meta.media.0.codec.bit_rate">25000000</property>
  <property name="kdenlive:meta.media.1.stream.type">audio</property>
  <property name="kdenlive:meta.media.1.codec.sample_fmt">s16</property>
  <property name="kdenlive:meta.media.1.codec.sample_rate">32000</property>
  <property name="kdenlive:meta.media.1.codec.channels">2</property>
  <property name="kdenlive:meta.media.1.codec.name">pcm_s16le</property>
  <property name="kdenlive:meta.media.1.codec.long_name">PCM signed 16-bit little-endian</property>
  <property name="kdenlive:meta.media.1.codec.bit_rate">1024000</property>
  <property name="kdenlive:meta.media.2.stream.type">audio</property>
  <property name="kdenlive:meta.media.2.codec.sample_fmt">s16</property>
  <property name="kdenlive:meta.media.2.codec.sample_rate">32000</property>
  <property name="kdenlive:meta.media.2.codec.channels">2</property>
  <property name="kdenlive:meta.media.2.codec.name">pcm_s16le</property>
  <property name="kdenlive:meta.media.2.codec.long_name">PCM signed 16-bit little-endian</property>
  <property name="kdenlive:meta.media.2.codec.bit_rate">1024000</property>
  <property name="kdenlive:meta.attr.timecode.markup">00:02:52;27</property>
  <property name="kdenlive:meta.media.sample_aspect_num">8</property>
  <property name="kdenlive:meta.media.sample_aspect_den">9</property>
  <property name="kdenlive:meta.media.frame_rate_num">30000</property>
  <property name="kdenlive:meta.media.frame_rate_den">1001</property>
  <property name="kdenlive:meta.media.colorspace">601</property>
  <property name="kdenlive:meta.media.color_trc">2</property>
  <property name="kdenlive:meta.media.width">720</property>
  <property name="kdenlive:meta.media.height">480</property>
  <property name="meta.media.top_field_first">0</property>
  <property name="meta.media.progressive">1</property>
  <property name="kdenlive:zone_in">0</property>
  <property name="kdenlive:zone_out">442</property>
 </producer>
 <producer id="46" title="Anonymous Submission" out="509" in="0">
  <property name="length">00:00:17;00</property>
  <property name="eof">pause</property>
  <property name="resource">/home/thoth/.cache/kdenlive/proxy/ee1e5305a973b6add458f27de7e7a0a8.mpg</property>
  <property name="meta.media.nb_streams">2</property>
  <property name="meta.media.0.stream.type">video</property>
  <property name="meta.media.0.stream.frame_rate">29.97</property>
  <property name="meta.media.0.stream.sample_aspect_ratio">0</property>
  <property name="meta.media.0.codec.width">640</property>
  <property name="meta.media.0.codec.height">427</property>
  <property name="meta.media.0.codec.rotate">0</property>
  <property name="meta.media.0.codec.frame_rate">29.97</property>
  <property name="meta.media.0.codec.pix_fmt">yuv422p</property>
  <property name="meta.media.0.codec.sample_aspect_ratio">0.889583</property>
  <property name="meta.media.0.codec.colorspace">601</property>
  <property name="meta.media.0.codec.name">mpeg2video</property>
  <property name="meta.media.0.codec.long_name">MPEG-2 video</property>
  <property name="meta.media.0.codec.bit_rate">0</property>
  <property name="meta.media.1.stream.type">audio</property>
  <property name="meta.media.1.codec.sample_fmt">s16p</property>
  <property name="meta.media.1.codec.sample_rate">32000</property>
  <property name="meta.media.1.codec.channels">2</property>
  <property name="meta.media.1.codec.name">mp2</property>
  <property name="meta.media.1.codec.long_name">MP2 (MPEG audio layer 2)</property>
  <property name="meta.media.1.codec.bit_rate">128000</property>
  <property name="seekable">1</property>
  <property name="meta.media.sample_aspect_num">427</property>
  <property name="meta.media.sample_aspect_den">480</property>
  <property name="aspect_ratio">0.889583</property>
  <property name="audio_index">1</property>
  <property name="video_index">0</property>
  <property name="mute_on_pause">1</property>
  <property name="mlt_service">avformat</property>
  <property name="meta.media.2.stream.type">audio</property>
  <property name="meta.media.2.codec.sample_fmt">s16</property>
  <property name="meta.media.2.codec.sample_rate">32000</property>
  <property name="meta.media.2.codec.channels">2</property>
  <property name="meta.media.2.codec.name">pcm_s16le</property>
  <property name="meta.media.2.codec.long_name">PCM signed 16-bit little-endian</property>
  <property name="meta.media.2.codec.bit_rate">1024000</property>
  <property name="meta.attr.timecode.markup">00:03:07;22</property>
  <property name="kdenlive:folderid">-1</property>
  <property name="meta.media.frame_rate_num">30000</property>
  <property name="meta.media.frame_rate_den">1001</property>
  <property name="meta.media.colorspace">601</property>
  <property name="meta.media.color_trc">2</property>
  <property name="meta.media.width">640</property>
  <property name="meta.media.height">427</property>
  <property name="kdenlive:file_size">62640000</property>
  <property name="kdenlive:file_hash">ee1e5305a973b6add458f27de7e7a0a8</property>
  <property name="kdenlive:proxy">/home/thoth/.cache/kdenlive/proxy/ee1e5305a973b6add458f27de7e7a0a8.mpg</property>
  <property name="proxy_out">521</property>
  <property name="kdenlive:originalurl">2001-07-07-beasty/beastiality-029.dv</property>
  <property name="global_feed">1</property>
  <property name="kdenlive:meta.media.nb_streams">3</property>
  <property name="kdenlive:meta.media.0.stream.type">video</property>
  <property name="kdenlive:meta.media.0.stream.frame_rate">29.97</property>
  <property name="kdenlive:meta.media.0.stream.sample_aspect_ratio">0.888889</property>
  <property name="kdenlive:meta.media.0.codec.width">720</property>
  <property name="kdenlive:meta.media.0.codec.height">480</property>
  <property name="kdenlive:meta.media.0.codec.rotate">0</property>
  <property name="kdenlive:meta.media.0.codec.frame_rate">29.97</property>
  <property name="kdenlive:meta.media.0.codec.pix_fmt">yuv411p</property>
  <property name="kdenlive:meta.media.0.codec.sample_aspect_ratio">0.888889</property>
  <property name="kdenlive:meta.media.0.codec.colorspace">601</property>
  <property name="kdenlive:meta.media.0.codec.name">dvvideo</property>
  <property name="kdenlive:meta.media.0.codec.long_name">DV (Digital Video)</property>
  <property name="kdenlive:meta.media.0.codec.bit_rate">25000000</property>
  <property name="kdenlive:meta.media.1.stream.type">audio</property>
  <property name="kdenlive:meta.media.1.codec.sample_fmt">s16</property>
  <property name="kdenlive:meta.media.1.codec.sample_rate">32000</property>
  <property name="kdenlive:meta.media.1.codec.channels">2</property>
  <property name="kdenlive:meta.media.1.codec.name">pcm_s16le</property>
  <property name="kdenlive:meta.media.1.codec.long_name">PCM signed 16-bit little-endian</property>
  <property name="kdenlive:meta.media.1.codec.bit_rate">1024000</property>
  <property name="kdenlive:meta.media.2.stream.type">audio</property>
  <property name="kdenlive:meta.media.2.codec.sample_fmt">s16</property>
  <property name="kdenlive:meta.media.2.codec.sample_rate">32000</property>
  <property name="kdenlive:meta.media.2.codec.channels">2</property>
  <property name="kdenlive:meta.media.2.codec.name">pcm_s16le</property>
  <property name="kdenlive:meta.media.2.codec.long_name">PCM signed 16-bit little-endian</property>
  <property name="kdenlive:meta.media.2.codec.bit_rate">1024000</property>
  <property name="kdenlive:meta.attr.timecode.markup">00:03:07;22</property>
  <property name="kdenlive:meta.media.sample_aspect_num">8</property>
  <property name="kdenlive:meta.media.sample_aspect_den">9</property>
  <property name="kdenlive:meta.media.frame_rate_num">30000</property>
  <property name="kdenlive:meta.media.frame_rate_den">1001</property>
  <property name="kdenlive:meta.media.colorspace">601</property>
  <property name="kdenlive:meta.media.color_trc">2</property>
  <property name="kdenlive:meta.media.width">720</property>
  <property name="kdenlive:meta.media.height">480</property>
  <property name="meta.media.top_field_first">0</property>
  <property name="meta.media.progressive">1</property>
  <property name="kdenlive:zone_in">140</property>
  <property name="kdenlive:zone_out">371</property>
 </producer>
 <producer id="47" title="Anonymous Submission" out="768" in="0">
  <property name="length">00:00:25;19</property>
  <property name="eof">pause</property>
  <property name="resource">/home/thoth/.cache/kdenlive/proxy/98e1356d30b63915a1e12420c11b21e2.mpg</property>
  <property name="meta.media.nb_streams">2</property>
  <property name="meta.media.0.stream.type">video</property>
  <property name="meta.media.0.stream.frame_rate">29.97</property>
  <property name="meta.media.0.stream.sample_aspect_ratio">0</property>
  <property name="meta.media.0.codec.width">640</property>
  <property name="meta.media.0.codec.height">427</property>
  <property name="meta.media.0.codec.rotate">0</property>
  <property name="meta.media.0.codec.frame_rate">29.97</property>
  <property name="meta.media.0.codec.pix_fmt">yuv422p</property>
  <property name="meta.media.0.codec.sample_aspect_ratio">0.889583</property>
  <property name="meta.media.0.codec.colorspace">601</property>
  <property name="meta.media.0.codec.name">mpeg2video</property>
  <property name="meta.media.0.codec.long_name">MPEG-2 video</property>
  <property name="meta.media.0.codec.bit_rate">0</property>
  <property name="meta.media.1.stream.type">audio</property>
  <property name="meta.media.1.codec.sample_fmt">s16p</property>
  <property name="meta.media.1.codec.sample_rate">32000</property>
  <property name="meta.media.1.codec.channels">2</property>
  <property name="meta.media.1.codec.name">mp2</property>
  <property name="meta.media.1.codec.long_name">MP2 (MPEG audio layer 2)</property>
  <property name="meta.media.1.codec.bit_rate">128000</property>
  <property name="seekable">1</property>
  <property name="meta.media.sample_aspect_num">427</property>
  <property name="meta.media.sample_aspect_den">480</property>
  <property name="aspect_ratio">0.889583</property>
  <property name="audio_index">1</property>
  <property name="video_index">0</property>
  <property name="mute_on_pause">1</property>
  <property name="mlt_service">avformat</property>
  <property name="meta.media.2.stream.type">audio</property>
  <property name="meta.media.2.codec.sample_fmt">s16</property>
  <property name="meta.media.2.codec.sample_rate">32000</property>
  <property name="meta.media.2.codec.channels">2</property>
  <property name="meta.media.2.codec.name">pcm_s16le</property>
  <property name="meta.media.2.codec.long_name">PCM signed 16-bit little-endian</property>
  <property name="meta.media.2.codec.bit_rate">1024000</property>
  <property name="kdenlive:folderid">-1</property>
  <property name="meta.media.frame_rate_num">30000</property>
  <property name="meta.media.frame_rate_den">1001</property>
  <property name="meta.media.colorspace">601</property>
  <property name="meta.media.color_trc">2</property>
  <property name="meta.media.width">640</property>
  <property name="meta.media.height">427</property>
  <property name="kdenlive:file_size">93720000</property>
  <property name="kdenlive:file_hash">98e1356d30b63915a1e12420c11b21e2</property>
  <property name="kdenlive:proxy">/home/thoth/.cache/kdenlive/proxy/98e1356d30b63915a1e12420c11b21e2.mpg</property>
  <property name="proxy_out">780</property>
  <property name="kdenlive:originalurl">2001-07-07-beasty/beastiality-030.dv</property>
  <property name="global_feed">1</property>
  <property name="kdenlive:meta.media.nb_streams">3</property>
  <property name="kdenlive:meta.media.0.stream.type">video</property>
  <property name="kdenlive:meta.media.0.stream.frame_rate">29.97</property>
  <property name="kdenlive:meta.media.0.stream.sample_aspect_ratio">0.888889</property>
  <property name="kdenlive:meta.media.0.codec.width">720</property>
  <property name="kdenlive:meta.media.0.codec.height">480</property>
  <property name="kdenlive:meta.media.0.codec.rotate">0</property>
  <property name="kdenlive:meta.media.0.codec.frame_rate">29.97</property>
  <property name="kdenlive:meta.media.0.codec.pix_fmt">yuv411p</property>
  <property name="kdenlive:meta.media.0.codec.sample_aspect_ratio">0.888889</property>
  <property name="kdenlive:meta.media.0.codec.colorspace">601</property>
  <property name="kdenlive:meta.media.0.codec.name">dvvideo</property>
  <property name="kdenlive:meta.media.0.codec.long_name">DV (Digital Video)</property>
  <property name="kdenlive:meta.media.0.codec.bit_rate">25000000</property>
  <property name="kdenlive:meta.media.1.stream.type">audio</property>
  <property name="kdenlive:meta.media.1.codec.sample_fmt">s16</property>
  <property name="kdenlive:meta.media.1.codec.sample_rate">32000</property>
  <property name="kdenlive:meta.media.1.codec.channels">2</property>
  <property name="kdenlive:meta.media.1.codec.name">pcm_s16le</property>
  <property name="kdenlive:meta.media.1.codec.long_name">PCM signed 16-bit little-endian</property>
  <property name="kdenlive:meta.media.1.codec.bit_rate">1024000</property>
  <property name="kdenlive:meta.media.2.stream.type">audio</property>
  <property name="kdenlive:meta.media.2.codec.sample_fmt">s16</property>
  <property name="kdenlive:meta.media.2.codec.sample_rate">32000</property>
  <property name="kdenlive:meta.media.2.codec.channels">2</property>
  <property name="kdenlive:meta.media.2.codec.name">pcm_s16le</property>
  <property name="kdenlive:meta.media.2.codec.long_name">PCM signed 16-bit little-endian</property>
  <property name="kdenlive:meta.media.2.codec.bit_rate">1024000</property>
  <property name="kdenlive:meta.media.sample_aspect_num">8</property>
  <property name="kdenlive:meta.media.sample_aspect_den">9</property>
  <property name="kdenlive:meta.media.frame_rate_num">30000</property>
  <property name="kdenlive:meta.media.frame_rate_den">1001</property>
  <property name="kdenlive:meta.media.colorspace">601</property>
  <property name="kdenlive:meta.media.color_trc">2</property>
  <property name="kdenlive:meta.media.width">720</property>
  <property name="kdenlive:meta.media.height">480</property>
  <property name="meta.media.top_field_first">0</property>
  <property name="meta.media.progressive">1</property>
  <property name="kdenlive:zone_in">54</property>
  <property name="kdenlive:zone_out">722</property>
 </producer>
 <producer id="48" title="Anonymous Submission" out="636" in="0">
  <property name="length">00:00:21;07</property>
  <property name="eof">pause</property>
  <property name="resource">/home/thoth/.cache/kdenlive/proxy/ee982c035828d614c73504d40df4f32b.mpg</property>
  <property name="meta.media.nb_streams">2</property>
  <property name="meta.media.0.stream.type">video</property>
  <property name="meta.media.0.stream.frame_rate">29.97</property>
  <property name="meta.media.0.stream.sample_aspect_ratio">0</property>
  <property name="meta.media.0.codec.width">640</property>
  <property name="meta.media.0.codec.height">427</property>
  <property name="meta.media.0.codec.rotate">0</property>
  <property name="meta.media.0.codec.frame_rate">29.97</property>
  <property name="meta.media.0.codec.pix_fmt">yuv422p</property>
  <property name="meta.media.0.codec.sample_aspect_ratio">0.889583</property>
  <property name="meta.media.0.codec.colorspace">601</property>
  <property name="meta.media.0.codec.name">mpeg2video</property>
  <property name="meta.media.0.codec.long_name">MPEG-2 video</property>
  <property name="meta.media.0.codec.bit_rate">0</property>
  <property name="meta.media.1.stream.type">audio</property>
  <property name="meta.media.1.codec.sample_fmt">s16p</property>
  <property name="meta.media.1.codec.sample_rate">32000</property>
  <property name="meta.media.1.codec.channels">2</property>
  <property name="meta.media.1.codec.name">mp2</property>
  <property name="meta.media.1.codec.long_name">MP2 (MPEG audio layer 2)</property>
  <property name="meta.media.1.codec.bit_rate">128000</property>
  <property name="seekable">1</property>
  <property name="meta.media.sample_aspect_num">427</property>
  <property name="meta.media.sample_aspect_den">480</property>
  <property name="aspect_ratio">0.889583</property>
  <property name="audio_index">1</property>
  <property name="video_index">0</property>
  <property name="mute_on_pause">1</property>
  <property name="mlt_service">avformat</property>
  <property name="meta.media.2.stream.type">audio</property>
  <property name="meta.media.2.codec.sample_fmt">s16</property>
  <property name="meta.media.2.codec.sample_rate">32000</property>
  <property name="meta.media.2.codec.channels">2</property>
  <property name="meta.media.2.codec.name">pcm_s16le</property>
  <property name="meta.media.2.codec.long_name">PCM signed 16-bit little-endian</property>
  <property name="meta.media.2.codec.bit_rate">1024000</property>
  <property name="meta.attr.timecode.markup">00:01:12;10</property>
  <property name="kdenlive:folderid">-1</property>
  <property name="meta.media.frame_rate_num">30000</property>
  <property name="meta.media.frame_rate_den">1001</property>
  <property name="meta.media.colorspace">601</property>
  <property name="meta.media.color_trc">2</property>
  <property name="meta.media.width">640</property>
  <property name="meta.media.height">427</property>
  <property name="kdenlive:file_size">77880000</property>
  <property name="kdenlive:file_hash">ee982c035828d614c73504d40df4f32b</property>
  <property name="kdenlive:proxy">/home/thoth/.cache/kdenlive/proxy/ee982c035828d614c73504d40df4f32b.mpg</property>
  <property name="proxy_out">648</property>
  <property name="kdenlive:originalurl">2001-07-07-beasty/beastiality-039.dv</property>
  <property name="global_feed">1</property>
  <property name="kdenlive:meta.media.nb_streams">3</property>
  <property name="kdenlive:meta.media.0.stream.type">video</property>
  <property name="kdenlive:meta.media.0.stream.frame_rate">29.97</property>
  <property name="kdenlive:meta.media.0.stream.sample_aspect_ratio">0.888889</property>
  <property name="kdenlive:meta.media.0.codec.width">720</property>
  <property name="kdenlive:meta.media.0.codec.height">480</property>
  <property name="kdenlive:meta.media.0.codec.rotate">0</property>
  <property name="kdenlive:meta.media.0.codec.frame_rate">29.97</property>
  <property name="kdenlive:meta.media.0.codec.pix_fmt">yuv411p</property>
  <property name="kdenlive:meta.media.0.codec.sample_aspect_ratio">0.888889</property>
  <property name="kdenlive:meta.media.0.codec.colorspace">601</property>
  <property name="kdenlive:meta.media.0.codec.name">dvvideo</property>
  <property name="kdenlive:meta.media.0.codec.long_name">DV (Digital Video)</property>
  <property name="kdenlive:meta.media.0.codec.bit_rate">25000000</property>
  <property name="kdenlive:meta.media.1.stream.type">audio</property>
  <property name="kdenlive:meta.media.1.codec.sample_fmt">s16</property>
  <property name="kdenlive:meta.media.1.codec.sample_rate">32000</property>
  <property name="kdenlive:meta.media.1.codec.channels">2</property>
  <property name="kdenlive:meta.media.1.codec.name">pcm_s16le</property>
  <property name="kdenlive:meta.media.1.codec.long_name">PCM signed 16-bit little-endian</property>
  <property name="kdenlive:meta.media.1.codec.bit_rate">1024000</property>
  <property name="kdenlive:meta.media.2.stream.type">audio</property>
  <property name="kdenlive:meta.media.2.codec.sample_fmt">s16</property>
  <property name="kdenlive:meta.media.2.codec.sample_rate">32000</property>
  <property name="kdenlive:meta.media.2.codec.channels">2</property>
  <property name="kdenlive:meta.media.2.codec.name">pcm_s16le</property>
  <property name="kdenlive:meta.media.2.codec.long_name">PCM signed 16-bit little-endian</property>
  <property name="kdenlive:meta.media.2.codec.bit_rate">1024000</property>
  <property name="kdenlive:meta.attr.timecode.markup">00:01:12;10</property>
  <property name="kdenlive:meta.media.sample_aspect_num">8</property>
  <property name="kdenlive:meta.media.sample_aspect_den">9</property>
  <property name="kdenlive:meta.media.frame_rate_num">30000</property>
  <property name="kdenlive:meta.media.frame_rate_den">1001</property>
  <property name="kdenlive:meta.media.colorspace">601</property>
  <property name="kdenlive:meta.media.color_trc">2</property>
  <property name="kdenlive:meta.media.width">720</property>
  <property name="kdenlive:meta.media.height">480</property>
  <property name="meta.media.top_field_first">0</property>
  <property name="meta.media.progressive">1</property>
  <property name="kdenlive:zone_in">424</property>
  <property name="kdenlive:zone_out">539</property>
 </producer>
 <producer id="49" title="Anonymous Submission" out="292" in="0">
  <property name="length">00:00:09;23</property>
  <property name="eof">pause</property>
  <property name="resource">/home/thoth/.cache/kdenlive/proxy/1b381b7ecf3b51629d2c06a8870a04a4.mpg</property>
  <property name="meta.media.nb_streams">2</property>
  <property name="meta.media.0.stream.type">video</property>
  <property name="meta.media.0.stream.frame_rate">29.97</property>
  <property name="meta.media.0.stream.sample_aspect_ratio">0</property>
  <property name="meta.media.0.codec.width">640</property>
  <property name="meta.media.0.codec.height">427</property>
  <property name="meta.media.0.codec.rotate">0</property>
  <property name="meta.media.0.codec.frame_rate">29.97</property>
  <property name="meta.media.0.codec.pix_fmt">yuv422p</property>
  <property name="meta.media.0.codec.sample_aspect_ratio">0.889583</property>
  <property name="meta.media.0.codec.colorspace">601</property>
  <property name="meta.media.0.codec.name">mpeg2video</property>
  <property name="meta.media.0.codec.long_name">MPEG-2 video</property>
  <property name="meta.media.0.codec.bit_rate">0</property>
  <property name="meta.media.1.stream.type">audio</property>
  <property name="meta.media.1.codec.sample_fmt">s16p</property>
  <property name="meta.media.1.codec.sample_rate">32000</property>
  <property name="meta.media.1.codec.channels">2</property>
  <property name="meta.media.1.codec.name">mp2</property>
  <property name="meta.media.1.codec.long_name">MP2 (MPEG audio layer 2)</property>
  <property name="meta.media.1.codec.bit_rate">128000</property>
  <property name="seekable">1</property>
  <property name="meta.media.sample_aspect_num">427</property>
  <property name="meta.media.sample_aspect_den">480</property>
  <property name="aspect_ratio">0.889583</property>
  <property name="audio_index">1</property>
  <property name="video_index">0</property>
  <property name="mute_on_pause">1</property>
  <property name="mlt_service">avformat</property>
  <property name="meta.media.2.stream.type">audio</property>
  <property name="meta.media.2.codec.sample_fmt">s16</property>
  <property name="meta.media.2.codec.sample_rate">32000</property>
  <property name="meta.media.2.codec.channels">2</property>
  <property name="meta.media.2.codec.name">pcm_s16le</property>
  <property name="meta.media.2.codec.long_name">PCM signed 16-bit little-endian</property>
  <property name="meta.media.2.codec.bit_rate">1024000</property>
  <property name="meta.attr.timecode.markup">00:01:33;29</property>
  <property name="kdenlive:folderid">-1</property>
  <property name="meta.media.frame_rate_num">30000</property>
  <property name="meta.media.frame_rate_den">1001</property>
  <property name="meta.media.colorspace">601</property>
  <property name="meta.media.color_trc">2</property>
  <property name="meta.media.width">640</property>
  <property name="meta.media.height">427</property>
  <property name="kdenlive:file_size">35160000</property>
  <property name="kdenlive:file_hash">1b381b7ecf3b51629d2c06a8870a04a4</property>
  <property name="kdenlive:proxy">/home/thoth/.cache/kdenlive/proxy/1b381b7ecf3b51629d2c06a8870a04a4.mpg</property>
  <property name="proxy_out">292</property>
  <property name="kdenlive:originalurl">2001-07-07-beasty/beastiality-040.dv</property>
  <property name="global_feed">1</property>
  <property name="kdenlive:meta.media.nb_streams">3</property>
  <property name="kdenlive:meta.media.0.stream.type">video</property>
  <property name="kdenlive:meta.media.0.stream.frame_rate">29.97</property>
  <property name="kdenlive:meta.media.0.stream.sample_aspect_ratio">0.888889</property>
  <property name="kdenlive:meta.media.0.codec.width">720</property>
  <property name="kdenlive:meta.media.0.codec.height">480</property>
  <property name="kdenlive:meta.media.0.codec.rotate">0</property>
  <property name="kdenlive:meta.media.0.codec.frame_rate">29.97</property>
  <property name="kdenlive:meta.media.0.codec.pix_fmt">yuv411p</property>
  <property name="kdenlive:meta.media.0.codec.sample_aspect_ratio">0.888889</property>
  <property name="kdenlive:meta.media.0.codec.colorspace">601</property>
  <property name="kdenlive:meta.media.0.codec.name">dvvideo</property>
  <property name="kdenlive:meta.media.0.codec.long_name">DV (Digital Video)</property>
  <property name="kdenlive:meta.media.0.codec.bit_rate">25000000</property>
  <property name="kdenlive:meta.media.1.stream.type">audio</property>
  <property name="kdenlive:meta.media.1.codec.sample_fmt">s16</property>
  <property name="kdenlive:meta.media.1.codec.sample_rate">32000</property>
  <property name="kdenlive:meta.media.1.codec.channels">2</property>
  <property name="kdenlive:meta.media.1.codec.name">pcm_s16le</property>
  <property name="kdenlive:meta.media.1.codec.long_name">PCM signed 16-bit little-endian</property>
  <property name="kdenlive:meta.media.1.codec.bit_rate">1024000</property>
  <property name="kdenlive:meta.media.2.stream.type">audio</property>
  <property name="kdenlive:meta.media.2.codec.sample_fmt">s16</property>
  <property name="kdenlive:meta.media.2.codec.sample_rate">32000</property>
  <property name="kdenlive:meta.media.2.codec.channels">2</property>
  <property name="kdenlive:meta.media.2.codec.name">pcm_s16le</property>
  <property name="kdenlive:meta.media.2.codec.long_name">PCM signed 16-bit little-endian</property>
  <property name="kdenlive:meta.media.2.codec.bit_rate">1024000</property>
  <property name="kdenlive:meta.attr.timecode.markup">00:01:33;29</property>
  <property name="kdenlive:meta.media.sample_aspect_num">8</property>
  <property name="kdenlive:meta.media.sample_aspect_den">9</property>
  <property name="kdenlive:meta.media.frame_rate_num">30000</property>
  <property name="kdenlive:meta.media.frame_rate_den">1001</property>
  <property name="kdenlive:meta.media.colorspace">601</property>
  <property name="kdenlive:meta.media.color_trc">2</property>
  <property name="kdenlive:meta.media.width">720</property>
  <property name="kdenlive:meta.media.height">480</property>
  <property name="meta.media.top_field_first">0</property>
  <property name="meta.media.progressive">1</property>
  <property name="kdenlive:zone_in">0</property>
  <property name="kdenlive:zone_out">63</property>
 </producer>
 <producer id="51" title="Anonymous Submission" out="177" in="0">
  <property name="length">00:00:05;28</property>
  <property name="eof">pause</property>
  <property name="resource">/home/thoth/.cache/kdenlive/proxy/e6653abd77448d6d723e605b30621441.mpg</property>
  <property name="meta.media.nb_streams">2</property>
  <property name="meta.media.0.stream.type">video</property>
  <property name="meta.media.0.stream.frame_rate">29.97</property>
  <property name="meta.media.0.stream.sample_aspect_ratio">0</property>
  <property name="meta.media.0.codec.width">640</property>
  <property name="meta.media.0.codec.height">427</property>
  <property name="meta.media.0.codec.rotate">0</property>
  <property name="meta.media.0.codec.frame_rate">29.97</property>
  <property name="meta.media.0.codec.pix_fmt">yuv422p</property>
  <property name="meta.media.0.codec.sample_aspect_ratio">0.889583</property>
  <property name="meta.media.0.codec.colorspace">601</property>
  <property name="meta.media.0.codec.name">mpeg2video</property>
  <property name="meta.media.0.codec.long_name">MPEG-2 video</property>
  <property name="meta.media.0.codec.bit_rate">0</property>
  <property name="meta.media.1.stream.type">audio</property>
  <property name="meta.media.1.codec.sample_fmt">s16p</property>
  <property name="meta.media.1.codec.sample_rate">32000</property>
  <property name="meta.media.1.codec.channels">2</property>
  <property name="meta.media.1.codec.name">mp2</property>
  <property name="meta.media.1.codec.long_name">MP2 (MPEG audio layer 2)</property>
  <property name="meta.media.1.codec.bit_rate">128000</property>
  <property name="seekable">1</property>
  <property name="meta.media.sample_aspect_num">427</property>
  <property name="meta.media.sample_aspect_den">480</property>
  <property name="aspect_ratio">0.889583</property>
  <property name="audio_index">1</property>
  <property name="video_index">0</property>
  <property name="mute_on_pause">1</property>
  <property name="mlt_service">avformat</property>
  <property name="meta.media.2.stream.type">audio</property>
  <property name="meta.media.2.codec.sample_fmt">s16</property>
  <property name="meta.media.2.codec.sample_rate">32000</property>
  <property name="meta.media.2.codec.channels">2</property>
  <property name="meta.media.2.codec.name">pcm_s16le</property>
  <property name="meta.media.2.codec.long_name">PCM signed 16-bit little-endian</property>
  <property name="meta.media.2.codec.bit_rate">1024000</property>
  <property name="meta.attr.timecode.markup">00:02:05;09</property>
  <property name="kdenlive:folderid">-1</property>
  <property name="meta.media.frame_rate_num">30000</property>
  <property name="meta.media.frame_rate_den">1001</property>
  <property name="meta.media.colorspace">601</property>
  <property name="meta.media.color_trc">2</property>
  <property name="meta.media.width">640</property>
  <property name="meta.media.height">427</property>
  <property name="kdenlive:file_size">21360000</property>
  <property name="kdenlive:file_hash">e6653abd77448d6d723e605b30621441</property>
  <property name="kdenlive:proxy">/home/thoth/.cache/kdenlive/proxy/e6653abd77448d6d723e605b30621441.mpg</property>
  <property name="proxy_out">177</property>
  <property name="kdenlive:originalurl">2001-07-07-beasty/beastiality-042.dv</property>
  <property name="global_feed">1</property>
  <property name="kdenlive:meta.media.nb_streams">3</property>
  <property name="kdenlive:meta.media.0.stream.type">video</property>
  <property name="kdenlive:meta.media.0.stream.frame_rate">29.97</property>
  <property name="kdenlive:meta.media.0.stream.sample_aspect_ratio">0.888889</property>
  <property name="kdenlive:meta.media.0.codec.width">720</property>
  <property name="kdenlive:meta.media.0.codec.height">480</property>
  <property name="kdenlive:meta.media.0.codec.rotate">0</property>
  <property name="kdenlive:meta.media.0.codec.frame_rate">29.97</property>
  <property name="kdenlive:meta.media.0.codec.pix_fmt">yuv411p</property>
  <property name="kdenlive:meta.media.0.codec.sample_aspect_ratio">0.888889</property>
  <property name="kdenlive:meta.media.0.codec.colorspace">601</property>
  <property name="kdenlive:meta.media.0.codec.name">dvvideo</property>
  <property name="kdenlive:meta.media.0.codec.long_name">DV (Digital Video)</property>
  <property name="kdenlive:meta.media.0.codec.bit_rate">25000000</property>
  <property name="kdenlive:meta.media.1.stream.type">audio</property>
  <property name="kdenlive:meta.media.1.codec.sample_fmt">s16</property>
  <property name="kdenlive:meta.media.1.codec.sample_rate">32000</property>
  <property name="kdenlive:meta.media.1.codec.channels">2</property>
  <property name="kdenlive:meta.media.1.codec.name">pcm_s16le</property>
  <property name="kdenlive:meta.media.1.codec.long_name">PCM signed 16-bit little-endian</property>
  <property name="kdenlive:meta.media.1.codec.bit_rate">1024000</property>
  <property name="kdenlive:meta.media.2.stream.type">audio</property>
  <property name="kdenlive:meta.media.2.codec.sample_fmt">s16</property>
  <property name="kdenlive:meta.media.2.codec.sample_rate">32000</property>
  <property name="kdenlive:meta.media.2.codec.channels">2</property>
  <property name="kdenlive:meta.media.2.codec.name">pcm_s16le</property>
  <property name="kdenlive:meta.media.2.codec.long_name">PCM signed 16-bit little-endian</property>
  <property name="kdenlive:meta.media.2.codec.bit_rate">1024000</property>
  <property name="kdenlive:meta.attr.timecode.markup">00:02:05;09</property>
  <property name="kdenlive:meta.media.sample_aspect_num">8</property>
  <property name="kdenlive:meta.media.sample_aspect_den">9</property>
  <property name="kdenlive:meta.media.frame_rate_num">30000</property>
  <property name="kdenlive:meta.media.frame_rate_den">1001</property>
  <property name="kdenlive:meta.media.colorspace">601</property>
  <property name="kdenlive:meta.media.color_trc">2</property>
  <property name="kdenlive:meta.media.width">720</property>
  <property name="kdenlive:meta.media.height">480</property>
  <property name="meta.media.top_field_first">0</property>
  <property name="meta.media.progressive">1</property>
  <property name="kdenlive:zone_in">0</property>
  <property name="kdenlive:zone_out">136</property>
 </producer>
 <producer id="52" title="Anonymous Submission" out="213" in="0">
  <property name="length">00:00:07;04</property>
  <property name="eof">pause</property>
  <property name="resource">/home/thoth/.cache/kdenlive/proxy/215d0e2b3e77daa336ba2228f1f67e6a.mpg</property>
  <property name="meta.media.nb_streams">2</property>
  <property name="meta.media.0.stream.type">video</property>
  <property name="meta.media.0.stream.frame_rate">29.97</property>
  <property name="meta.media.0.stream.sample_aspect_ratio">0</property>
  <property name="meta.media.0.codec.width">640</property>
  <property name="meta.media.0.codec.height">427</property>
  <property name="meta.media.0.codec.rotate">0</property>
  <property name="meta.media.0.codec.frame_rate">29.97</property>
  <property name="meta.media.0.codec.pix_fmt">yuv422p</property>
  <property name="meta.media.0.codec.sample_aspect_ratio">0.889583</property>
  <property name="meta.media.0.codec.colorspace">601</property>
  <property name="meta.media.0.codec.name">mpeg2video</property>
  <property name="meta.media.0.codec.long_name">MPEG-2 video</property>
  <property name="meta.media.0.codec.bit_rate">0</property>
  <property name="meta.media.1.stream.type">audio</property>
  <property name="meta.media.1.codec.sample_fmt">s16p</property>
  <property name="meta.media.1.codec.sample_rate">32000</property>
  <property name="meta.media.1.codec.channels">2</property>
  <property name="meta.media.1.codec.name">mp2</property>
  <property name="meta.media.1.codec.long_name">MP2 (MPEG audio layer 2)</property>
  <property name="meta.media.1.codec.bit_rate">128000</property>
  <property name="seekable">1</property>
  <property name="meta.media.sample_aspect_num">427</property>
  <property name="meta.media.sample_aspect_den">480</property>
  <property name="aspect_ratio">0.889583</property>
  <property name="audio_index">1</property>
  <property name="video_index">0</property>
  <property name="mute_on_pause">1</property>
  <property name="mlt_service">avformat</property>
  <property name="meta.media.2.stream.type">audio</property>
  <property name="meta.media.2.codec.sample_fmt">s16</property>
  <property name="meta.media.2.codec.sample_rate">32000</property>
  <property name="meta.media.2.codec.channels">2</property>
  <property name="meta.media.2.codec.name">pcm_s16le</property>
  <property name="meta.media.2.codec.long_name">PCM signed 16-bit little-endian</property>
  <property name="meta.media.2.codec.bit_rate">1024000</property>
  <property name="meta.attr.timecode.markup">00:02:10;05</property>
  <property name="kdenlive:folderid">-1</property>
  <property name="meta.media.frame_rate_num">30000</property>
  <property name="meta.media.frame_rate_den">1001</property>
  <property name="meta.media.colorspace">601</property>
  <property name="meta.media.color_trc">2</property>
  <property name="meta.media.width">640</property>
  <property name="meta.media.height">427</property>
  <property name="kdenlive:file_size">25680000</property>
  <property name="kdenlive:file_hash">215d0e2b3e77daa336ba2228f1f67e6a</property>
  <property name="kdenlive:proxy">/home/thoth/.cache/kdenlive/proxy/215d0e2b3e77daa336ba2228f1f67e6a.mpg</property>
  <property name="proxy_out">213</property>
  <property name="kdenlive:originalurl">2001-07-07-beasty/beastiality-054.dv</property>
  <property name="global_feed">1</property>
  <property name="kdenlive:meta.media.nb_streams">3</property>
  <property name="kdenlive:meta.media.0.stream.type">video</property>
  <property name="kdenlive:meta.media.0.stream.frame_rate">29.97</property>
  <property name="kdenlive:meta.media.0.stream.sample_aspect_ratio">0.888889</property>
  <property name="kdenlive:meta.media.0.codec.width">720</property>
  <property name="kdenlive:meta.media.0.codec.height">480</property>
  <property name="kdenlive:meta.media.0.codec.rotate">0</property>
  <property name="kdenlive:meta.media.0.codec.frame_rate">29.97</property>
  <property name="kdenlive:meta.media.0.codec.pix_fmt">yuv411p</property>
  <property name="kdenlive:meta.media.0.codec.sample_aspect_ratio">0.888889</property>
  <property name="kdenlive:meta.media.0.codec.colorspace">601</property>
  <property name="kdenlive:meta.media.0.codec.name">dvvideo</property>
  <property name="kdenlive:meta.media.0.codec.long_name">DV (Digital Video)</property>
  <property name="kdenlive:meta.media.0.codec.bit_rate">25000000</property>
  <property name="kdenlive:meta.media.1.stream.type">audio</property>
  <property name="kdenlive:meta.media.1.codec.sample_fmt">s16</property>
  <property name="kdenlive:meta.media.1.codec.sample_rate">32000</property>
  <property name="kdenlive:meta.media.1.codec.channels">2</property>
  <property name="kdenlive:meta.media.1.codec.name">pcm_s16le</property>
  <property name="kdenlive:meta.media.1.codec.long_name">PCM signed 16-bit little-endian</property>
  <property name="kdenlive:meta.media.1.codec.bit_rate">1024000</property>
  <property name="kdenlive:meta.media.2.stream.type">audio</property>
  <property name="kdenlive:meta.media.2.codec.sample_fmt">s16</property>
  <property name="kdenlive:meta.media.2.codec.sample_rate">32000</property>
  <property name="kdenlive:meta.media.2.codec.channels">2</property>
  <property name="kdenlive:meta.media.2.codec.name">pcm_s16le</property>
  <property name="kdenlive:meta.media.2.codec.long_name">PCM signed 16-bit little-endian</property>
  <property name="kdenlive:meta.media.2.codec.bit_rate">1024000</property>
  <property name="kdenlive:meta.attr.timecode.markup">00:02:10;05</property>
  <property name="kdenlive:meta.media.sample_aspect_num">8</property>
  <property name="kdenlive:meta.media.sample_aspect_den">9</property>
  <property name="kdenlive:meta.media.frame_rate_num">30000</property>
  <property name="kdenlive:meta.media.frame_rate_den">1001</property>
  <property name="kdenlive:meta.media.colorspace">601</property>
  <property name="kdenlive:meta.media.color_trc">2</property>
  <property name="kdenlive:meta.media.width">720</property>
  <property name="kdenlive:meta.media.height">480</property>
  <property name="meta.media.top_field_first">0</property>
  <property name="meta.media.progressive">1</property>
 </producer>
 <producer id="50" title="Anonymous Submission" out="632" in="0">
  <property name="length">00:00:21;03</property>
  <property name="eof">pause</property>
  <property name="resource">/home/thoth/.cache/kdenlive/proxy/cdc1ba5a6074de5d8df57cfcd6568c3d.mpg</property>
  <property name="meta.media.nb_streams">2</property>
  <property name="meta.media.0.stream.type">video</property>
  <property name="meta.media.0.stream.frame_rate">29.97</property>
  <property name="meta.media.0.stream.sample_aspect_ratio">0</property>
  <property name="meta.media.0.codec.width">640</property>
  <property name="meta.media.0.codec.height">427</property>
  <property name="meta.media.0.codec.rotate">0</property>
  <property name="meta.media.0.codec.frame_rate">29.97</property>
  <property name="meta.media.0.codec.pix_fmt">yuv422p</property>
  <property name="meta.media.0.codec.sample_aspect_ratio">0.889583</property>
  <property name="meta.media.0.codec.colorspace">601</property>
  <property name="meta.media.0.codec.name">mpeg2video</property>
  <property name="meta.media.0.codec.long_name">MPEG-2 video</property>
  <property name="meta.media.0.codec.bit_rate">0</property>
  <property name="meta.media.1.stream.type">audio</property>
  <property name="meta.media.1.codec.sample_fmt">s16p</property>
  <property name="meta.media.1.codec.sample_rate">32000</property>
  <property name="meta.media.1.codec.channels">2</property>
  <property name="meta.media.1.codec.name">mp2</property>
  <property name="meta.media.1.codec.long_name">MP2 (MPEG audio layer 2)</property>
  <property name="meta.media.1.codec.bit_rate">128000</property>
  <property name="seekable">1</property>
  <property name="meta.media.sample_aspect_num">427</property>
  <property name="meta.media.sample_aspect_den">480</property>
  <property name="aspect_ratio">0.889583</property>
  <property name="audio_index">1</property>
  <property name="video_index">0</property>
  <property name="mute_on_pause">1</property>
  <property name="mlt_service">avformat</property>
  <property name="meta.media.2.stream.type">audio</property>
  <property name="meta.media.2.codec.sample_fmt">s16</property>
  <property name="meta.media.2.codec.sample_rate">32000</property>
  <property name="meta.media.2.codec.channels">2</property>
  <property name="meta.media.2.codec.name">pcm_s16le</property>
  <property name="meta.media.2.codec.long_name">PCM signed 16-bit little-endian</property>
  <property name="meta.media.2.codec.bit_rate">1024000</property>
  <property name="meta.attr.timecode.markup">00:01:43;22</property>
  <property name="kdenlive:folderid">-1</property>
  <property name="meta.media.frame_rate_num">30000</property>
  <property name="meta.media.frame_rate_den">1001</property>
  <property name="meta.media.colorspace">601</property>
  <property name="meta.media.color_trc">2</property>
  <property name="meta.media.width">640</property>
  <property name="meta.media.height">427</property>
  <property name="kdenlive:file_size">77400000</property>
  <property name="kdenlive:file_hash">cdc1ba5a6074de5d8df57cfcd6568c3d</property>
  <property name="kdenlive:proxy">/home/thoth/.cache/kdenlive/proxy/cdc1ba5a6074de5d8df57cfcd6568c3d.mpg</property>
  <property name="proxy_out">644</property>
  <property name="kdenlive:originalurl">2001-07-07-beasty/beastiality-041.dv</property>
  <property name="global_feed">1</property>
  <property name="kdenlive:meta.media.nb_streams">3</property>
  <property name="kdenlive:meta.media.0.stream.type">video</property>
  <property name="kdenlive:meta.media.0.stream.frame_rate">29.97</property>
  <property name="kdenlive:meta.media.0.stream.sample_aspect_ratio">0.888889</property>
  <property name="kdenlive:meta.media.0.codec.width">720</property>
  <property name="kdenlive:meta.media.0.codec.height">480</property>
  <property name="kdenlive:meta.media.0.codec.rotate">0</property>
  <property name="kdenlive:meta.media.0.codec.frame_rate">29.97</property>
  <property name="kdenlive:meta.media.0.codec.pix_fmt">yuv411p</property>
  <property name="kdenlive:meta.media.0.codec.sample_aspect_ratio">0.888889</property>
  <property name="kdenlive:meta.media.0.codec.colorspace">601</property>
  <property name="kdenlive:meta.media.0.codec.name">dvvideo</property>
  <property name="kdenlive:meta.media.0.codec.long_name">DV (Digital Video)</property>
  <property name="kdenlive:meta.media.0.codec.bit_rate">25000000</property>
  <property name="kdenlive:meta.media.1.stream.type">audio</property>
  <property name="kdenlive:meta.media.1.codec.sample_fmt">s16</property>
  <property name="kdenlive:meta.media.1.codec.sample_rate">32000</property>
  <property name="kdenlive:meta.media.1.codec.channels">2</property>
  <property name="kdenlive:meta.media.1.codec.name">pcm_s16le</property>
  <property name="kdenlive:meta.media.1.codec.long_name">PCM signed 16-bit little-endian</property>
  <property name="kdenlive:meta.media.1.codec.bit_rate">1024000</property>
  <property name="kdenlive:meta.media.2.stream.type">audio</property>
  <property name="kdenlive:meta.media.2.codec.sample_fmt">s16</property>
  <property name="kdenlive:meta.media.2.codec.sample_rate">32000</property>
  <property name="kdenlive:meta.media.2.codec.channels">2</property>
  <property name="kdenlive:meta.media.2.codec.name">pcm_s16le</property>
  <property name="kdenlive:meta.media.2.codec.long_name">PCM signed 16-bit little-endian</property>
  <property name="kdenlive:meta.media.2.codec.bit_rate">1024000</property>
  <property name="kdenlive:meta.attr.timecode.markup">00:01:43;22</property>
  <property name="kdenlive:meta.media.sample_aspect_num">8</property>
  <property name="kdenlive:meta.media.sample_aspect_den">9</property>
  <property name="kdenlive:meta.media.frame_rate_num">30000</property>
  <property name="kdenlive:meta.media.frame_rate_den">1001</property>
  <property name="kdenlive:meta.media.colorspace">601</property>
  <property name="kdenlive:meta.media.color_trc">2</property>
  <property name="kdenlive:meta.media.width">720</property>
  <property name="kdenlive:meta.media.height">480</property>
  <property name="meta.media.top_field_first">0</property>
  <property name="meta.media.progressive">1</property>
  <property name="kdenlive:zone_in">69</property>
  <property name="kdenlive:zone_out">640</property>
 </producer>
 <producer id="53" title="Anonymous Submission" out="74" in="0">
  <property name="length">00:00:02;15</property>
  <property name="eof">pause</property>
  <property name="resource">/home/thoth/.cache/kdenlive/proxy/2380c5b66e662316ad330cd09f2bc444.mpg</property>
  <property name="meta.media.nb_streams">2</property>
  <property name="meta.media.0.stream.type">video</property>
  <property name="meta.media.0.stream.frame_rate">29.97</property>
  <property name="meta.media.0.stream.sample_aspect_ratio">0</property>
  <property name="meta.media.0.codec.width">640</property>
  <property name="meta.media.0.codec.height">427</property>
  <property name="meta.media.0.codec.rotate">0</property>
  <property name="meta.media.0.codec.frame_rate">29.97</property>
  <property name="meta.media.0.codec.pix_fmt">yuv422p</property>
  <property name="meta.media.0.codec.sample_aspect_ratio">0.889583</property>
  <property name="meta.media.0.codec.colorspace">601</property>
  <property name="meta.media.0.codec.name">mpeg2video</property>
  <property name="meta.media.0.codec.long_name">MPEG-2 video</property>
  <property name="meta.media.0.codec.bit_rate">0</property>
  <property name="meta.media.1.stream.type">audio</property>
  <property name="meta.media.1.codec.sample_fmt">s16p</property>
  <property name="meta.media.1.codec.sample_rate">32000</property>
  <property name="meta.media.1.codec.channels">2</property>
  <property name="meta.media.1.codec.name">mp2</property>
  <property name="meta.media.1.codec.long_name">MP2 (MPEG audio layer 2)</property>
  <property name="meta.media.1.codec.bit_rate">128000</property>
  <property name="seekable">1</property>
  <property name="meta.media.sample_aspect_num">427</property>
  <property name="meta.media.sample_aspect_den">480</property>
  <property name="aspect_ratio">0.889583</property>
  <property name="audio_index">1</property>
  <property name="video_index">0</property>
  <property name="mute_on_pause">1</property>
  <property name="mlt_service">avformat</property>
  <property name="meta.media.2.stream.type">audio</property>
  <property name="meta.media.2.codec.sample_fmt">s16</property>
  <property name="meta.media.2.codec.sample_rate">32000</property>
  <property name="meta.media.2.codec.channels">2</property>
  <property name="meta.media.2.codec.name">pcm_s16le</property>
  <property name="meta.media.2.codec.long_name">PCM signed 16-bit little-endian</property>
  <property name="meta.media.2.codec.bit_rate">1024000</property>
  <property name="meta.attr.timecode.markup">00:02:17;09</property>
  <property name="kdenlive:folderid">-1</property>
  <property name="meta.media.frame_rate_num">30000</property>
  <property name="meta.media.frame_rate_den">1001</property>
  <property name="meta.media.colorspace">601</property>
  <property name="meta.media.color_trc">2</property>
  <property name="meta.media.width">640</property>
  <property name="meta.media.height">427</property>
  <property name="kdenlive:file_size">9000000</property>
  <property name="kdenlive:file_hash">2380c5b66e662316ad330cd09f2bc444</property>
  <property name="kdenlive:proxy">/home/thoth/.cache/kdenlive/proxy/2380c5b66e662316ad330cd09f2bc444.mpg</property>
  <property name="proxy_out">74</property>
  <property name="kdenlive:originalurl">2001-07-07-beasty/beastiality-055.dv</property>
  <property name="global_feed">1</property>
  <property name="kdenlive:meta.media.nb_streams">3</property>
  <property name="kdenlive:meta.media.0.stream.type">video</property>
  <property name="kdenlive:meta.media.0.stream.frame_rate">29.97</property>
  <property name="kdenlive:meta.media.0.stream.sample_aspect_ratio">0.888889</property>
  <property name="kdenlive:meta.media.0.codec.width">720</property>
  <property name="kdenlive:meta.media.0.codec.height">480</property>
  <property name="kdenlive:meta.media.0.codec.rotate">0</property>
  <property name="kdenlive:meta.media.0.codec.frame_rate">29.97</property>
  <property name="kdenlive:meta.media.0.codec.pix_fmt">yuv411p</property>
  <property name="kdenlive:meta.media.0.codec.sample_aspect_ratio">0.888889</property>
  <property name="kdenlive:meta.media.0.codec.colorspace">601</property>
  <property name="kdenlive:meta.media.0.codec.name">dvvideo</property>
  <property name="kdenlive:meta.media.0.codec.long_name">DV (Digital Video)</property>
  <property name="kdenlive:meta.media.0.codec.bit_rate">25000000</property>
  <property name="kdenlive:meta.media.1.stream.type">audio</property>
  <property name="kdenlive:meta.media.1.codec.sample_fmt">s16</property>
  <property name="kdenlive:meta.media.1.codec.sample_rate">32000</property>
  <property name="kdenlive:meta.media.1.codec.channels">2</property>
  <property name="kdenlive:meta.media.1.codec.name">pcm_s16le</property>
  <property name="kdenlive:meta.media.1.codec.long_name">PCM signed 16-bit little-endian</property>
  <property name="kdenlive:meta.media.1.codec.bit_rate">1024000</property>
  <property name="kdenlive:meta.media.2.stream.type">audio</property>
  <property name="kdenlive:meta.media.2.codec.sample_fmt">s16</property>
  <property name="kdenlive:meta.media.2.codec.sample_rate">32000</property>
  <property name="kdenlive:meta.media.2.codec.channels">2</property>
  <property name="kdenlive:meta.media.2.codec.name">pcm_s16le</property>
  <property name="kdenlive:meta.media.2.codec.long_name">PCM signed 16-bit little-endian</property>
  <property name="kdenlive:meta.media.2.codec.bit_rate">1024000</property>
  <property name="kdenlive:meta.attr.timecode.markup">00:02:17;09</property>
  <property name="kdenlive:meta.media.sample_aspect_num">8</property>
  <property name="kdenlive:meta.media.sample_aspect_den">9</property>
  <property name="kdenlive:meta.media.frame_rate_num">30000</property>
  <property name="kdenlive:meta.media.frame_rate_den">1001</property>
  <property name="kdenlive:meta.media.colorspace">601</property>
  <property name="kdenlive:meta.media.color_trc">2</property>
  <property name="kdenlive:meta.media.width">720</property>
  <property name="kdenlive:meta.media.height">480</property>
  <property name="meta.media.top_field_first">0</property>
  <property name="meta.media.progressive">1</property>
  <property name="kdenlive:zone_in">1</property>
  <property name="kdenlive:zone_out">14</property>
 </producer>
 <producer id="54" title="Anonymous Submission" out="46" in="0">
  <property name="length">00:00:01;17</property>
  <property name="eof">pause</property>
  <property name="resource">/home/thoth/.cache/kdenlive/proxy/c29c0ffddce83eea45117c47bf9902d6.mpg</property>
  <property name="meta.media.nb_streams">2</property>
  <property name="meta.media.0.stream.type">video</property>
  <property name="meta.media.0.stream.frame_rate">29.97</property>
  <property name="meta.media.0.stream.sample_aspect_ratio">0</property>
  <property name="meta.media.0.codec.width">640</property>
  <property name="meta.media.0.codec.height">427</property>
  <property name="meta.media.0.codec.rotate">0</property>
  <property name="meta.media.0.codec.frame_rate">29.97</property>
  <property name="meta.media.0.codec.pix_fmt">yuv422p</property>
  <property name="meta.media.0.codec.sample_aspect_ratio">0.889583</property>
  <property name="meta.media.0.codec.colorspace">601</property>
  <property name="meta.media.0.codec.name">mpeg2video</property>
  <property name="meta.media.0.codec.long_name">MPEG-2 video</property>
  <property name="meta.media.0.codec.bit_rate">0</property>
  <property name="meta.media.1.stream.type">audio</property>
  <property name="meta.media.1.codec.sample_fmt">s16p</property>
  <property name="meta.media.1.codec.sample_rate">32000</property>
  <property name="meta.media.1.codec.channels">2</property>
  <property name="meta.media.1.codec.name">mp2</property>
  <property name="meta.media.1.codec.long_name">MP2 (MPEG audio layer 2)</property>
  <property name="meta.media.1.codec.bit_rate">128000</property>
  <property name="seekable">1</property>
  <property name="meta.media.sample_aspect_num">427</property>
  <property name="meta.media.sample_aspect_den">480</property>
  <property name="aspect_ratio">0.889583</property>
  <property name="audio_index">1</property>
  <property name="video_index">0</property>
  <property name="mute_on_pause">1</property>
  <property name="mlt_service">avformat</property>
  <property name="meta.media.2.stream.type">audio</property>
  <property name="meta.media.2.codec.sample_fmt">s16</property>
  <property name="meta.media.2.codec.sample_rate">32000</property>
  <property name="meta.media.2.codec.channels">2</property>
  <property name="meta.media.2.codec.name">pcm_s16le</property>
  <property name="meta.media.2.codec.long_name">PCM signed 16-bit little-endian</property>
  <property name="meta.media.2.codec.bit_rate">1024000</property>
  <property name="meta.attr.timecode.markup">00:02:19;24</property>
  <property name="kdenlive:folderid">-1</property>
  <property name="meta.media.frame_rate_num">30000</property>
  <property name="meta.media.frame_rate_den">1001</property>
  <property name="meta.media.colorspace">601</property>
  <property name="meta.media.color_trc">2</property>
  <property name="meta.media.width">640</property>
  <property name="meta.media.height">427</property>
  <property name="kdenlive:file_size">5640000</property>
  <property name="kdenlive:file_hash">c29c0ffddce83eea45117c47bf9902d6</property>
  <property name="kdenlive:proxy">/home/thoth/.cache/kdenlive/proxy/c29c0ffddce83eea45117c47bf9902d6.mpg</property>
  <property name="proxy_out">46</property>
  <property name="kdenlive:originalurl">2001-07-07-beasty/beastiality-056.dv</property>
  <property name="global_feed">1</property>
  <property name="kdenlive:meta.media.nb_streams">3</property>
  <property name="kdenlive:meta.media.0.stream.type">video</property>
  <property name="kdenlive:meta.media.0.stream.frame_rate">29.97</property>
  <property name="kdenlive:meta.media.0.stream.sample_aspect_ratio">0.888889</property>
  <property name="kdenlive:meta.media.0.codec.width">720</property>
  <property name="kdenlive:meta.media.0.codec.height">480</property>
  <property name="kdenlive:meta.media.0.codec.rotate">0</property>
  <property name="kdenlive:meta.media.0.codec.frame_rate">29.97</property>
  <property name="kdenlive:meta.media.0.codec.pix_fmt">yuv411p</property>
  <property name="kdenlive:meta.media.0.codec.sample_aspect_ratio">0.888889</property>
  <property name="kdenlive:meta.media.0.codec.colorspace">601</property>
  <property name="kdenlive:meta.media.0.codec.name">dvvideo</property>
  <property name="kdenlive:meta.media.0.codec.long_name">DV (Digital Video)</property>
  <property name="kdenlive:meta.media.0.codec.bit_rate">25000000</property>
  <property name="kdenlive:meta.media.1.stream.type">audio</property>
  <property name="kdenlive:meta.media.1.codec.sample_fmt">s16</property>
  <property name="kdenlive:meta.media.1.codec.sample_rate">32000</property>
  <property name="kdenlive:meta.media.1.codec.channels">2</property>
  <property name="kdenlive:meta.media.1.codec.name">pcm_s16le</property>
  <property name="kdenlive:meta.media.1.codec.long_name">PCM signed 16-bit little-endian</property>
  <property name="kdenlive:meta.media.1.codec.bit_rate">1024000</property>
  <property name="kdenlive:meta.media.2.stream.type">audio</property>
  <property name="kdenlive:meta.media.2.codec.sample_fmt">s16</property>
  <property name="kdenlive:meta.media.2.codec.sample_rate">32000</property>
  <property name="kdenlive:meta.media.2.codec.channels">2</property>
  <property name="kdenlive:meta.media.2.codec.name">pcm_s16le</property>
  <property name="kdenlive:meta.media.2.codec.long_name">PCM signed 16-bit little-endian</property>
  <property name="kdenlive:meta.media.2.codec.bit_rate">1024000</property>
  <property name="kdenlive:meta.attr.timecode.markup">00:02:19;24</property>
  <property name="kdenlive:meta.media.sample_aspect_num">8</property>
  <property name="kdenlive:meta.media.sample_aspect_den">9</property>
  <property name="kdenlive:meta.media.frame_rate_num">30000</property>
  <property name="kdenlive:meta.media.frame_rate_den">1001</property>
  <property name="kdenlive:meta.media.colorspace">601</property>
  <property name="kdenlive:meta.media.color_trc">2</property>
  <property name="kdenlive:meta.media.width">720</property>
  <property name="kdenlive:meta.media.height">480</property>
  <property name="meta.media.top_field_first">0</property>
  <property name="meta.media.progressive">1</property>
  <property name="kdenlive:zone_in">1</property>
  <property name="kdenlive:zone_out">28</property>
 </producer>
 <producer id="55" title="Anonymous Submission" out="70" in="0">
  <property name="length">00:00:02;11</property>
  <property name="eof">pause</property>
  <property name="resource">/home/thoth/.cache/kdenlive/proxy/c37abf73f4a874fde5772a2cefcbcbf0.mpg</property>
  <property name="meta.media.nb_streams">2</property>
  <property name="meta.media.0.stream.type">video</property>
  <property name="meta.media.0.stream.frame_rate">29.97</property>
  <property name="meta.media.0.stream.sample_aspect_ratio">0</property>
  <property name="meta.media.0.codec.width">640</property>
  <property name="meta.media.0.codec.height">427</property>
  <property name="meta.media.0.codec.rotate">0</property>
  <property name="meta.media.0.codec.frame_rate">29.97</property>
  <property name="meta.media.0.codec.pix_fmt">yuv422p</property>
  <property name="meta.media.0.codec.sample_aspect_ratio">0.889583</property>
  <property name="meta.media.0.codec.colorspace">601</property>
  <property name="meta.media.0.codec.name">mpeg2video</property>
  <property name="meta.media.0.codec.long_name">MPEG-2 video</property>
  <property name="meta.media.0.codec.bit_rate">0</property>
  <property name="meta.media.1.stream.type">audio</property>
  <property name="meta.media.1.codec.sample_fmt">s16p</property>
  <property name="meta.media.1.codec.sample_rate">32000</property>
  <property name="meta.media.1.codec.channels">2</property>
  <property name="meta.media.1.codec.name">mp2</property>
  <property name="meta.media.1.codec.long_name">MP2 (MPEG audio layer 2)</property>
  <property name="meta.media.1.codec.bit_rate">128000</property>
  <property name="seekable">1</property>
  <property name="meta.media.sample_aspect_num">427</property>
  <property name="meta.media.sample_aspect_den">480</property>
  <property name="aspect_ratio">0.889583</property>
  <property name="audio_index">1</property>
  <property name="video_index">0</property>
  <property name="mute_on_pause">1</property>
  <property name="mlt_service">avformat</property>
  <property name="meta.media.2.stream.type">audio</property>
  <property name="meta.media.2.codec.sample_fmt">s16</property>
  <property name="meta.media.2.codec.sample_rate">32000</property>
  <property name="meta.media.2.codec.channels">2</property>
  <property name="meta.media.2.codec.name">pcm_s16le</property>
  <property name="meta.media.2.codec.long_name">PCM signed 16-bit little-endian</property>
  <property name="meta.media.2.codec.bit_rate">1024000</property>
  <property name="meta.attr.timecode.markup">00:02:21;11</property>
  <property name="kdenlive:folderid">-1</property>
  <property name="meta.media.frame_rate_num">30000</property>
  <property name="meta.media.frame_rate_den">1001</property>
  <property name="meta.media.colorspace">601</property>
  <property name="meta.media.color_trc">2</property>
  <property name="meta.media.width">640</property>
  <property name="meta.media.height">427</property>
  <property name="kdenlive:file_size">8520000</property>
  <property name="kdenlive:file_hash">c37abf73f4a874fde5772a2cefcbcbf0</property>
  <property name="kdenlive:proxy">/home/thoth/.cache/kdenlive/proxy/c37abf73f4a874fde5772a2cefcbcbf0.mpg</property>
  <property name="proxy_out">70</property>
  <property name="kdenlive:originalurl">2001-07-07-beasty/beastiality-057.dv</property>
  <property name="global_feed">1</property>
  <property name="kdenlive:meta.media.nb_streams">3</property>
  <property name="kdenlive:meta.media.0.stream.type">video</property>
  <property name="kdenlive:meta.media.0.stream.frame_rate">29.97</property>
  <property name="kdenlive:meta.media.0.stream.sample_aspect_ratio">0.888889</property>
  <property name="kdenlive:meta.media.0.codec.width">720</property>
  <property name="kdenlive:meta.media.0.codec.height">480</property>
  <property name="kdenlive:meta.media.0.codec.rotate">0</property>
  <property name="kdenlive:meta.media.0.codec.frame_rate">29.97</property>
  <property name="kdenlive:meta.media.0.codec.pix_fmt">yuv411p</property>
  <property name="kdenlive:meta.media.0.codec.sample_aspect_ratio">0.888889</property>
  <property name="kdenlive:meta.media.0.codec.colorspace">601</property>
  <property name="kdenlive:meta.media.0.codec.name">dvvideo</property>
  <property name="kdenlive:meta.media.0.codec.long_name">DV (Digital Video)</property>
  <property name="kdenlive:meta.media.0.codec.bit_rate">25000000</property>
  <property name="kdenlive:meta.media.1.stream.type">audio</property>
  <property name="kdenlive:meta.media.1.codec.sample_fmt">s16</property>
  <property name="kdenlive:meta.media.1.codec.sample_rate">32000</property>
  <property name="kdenlive:meta.media.1.codec.channels">2</property>
  <property name="kdenlive:meta.media.1.codec.name">pcm_s16le</property>
  <property name="kdenlive:meta.media.1.codec.long_name">PCM signed 16-bit little-endian</property>
  <property name="kdenlive:meta.media.1.codec.bit_rate">1024000</property>
  <property name="kdenlive:meta.media.2.stream.type">audio</property>
  <property name="kdenlive:meta.media.2.codec.sample_fmt">s16</property>
  <property name="kdenlive:meta.media.2.codec.sample_rate">32000</property>
  <property name="kdenlive:meta.media.2.codec.channels">2</property>
  <property name="kdenlive:meta.media.2.codec.name">pcm_s16le</property>
  <property name="kdenlive:meta.media.2.codec.long_name">PCM signed 16-bit little-endian</property>
  <property name="kdenlive:meta.media.2.codec.bit_rate">1024000</property>
  <property name="kdenlive:meta.attr.timecode.markup">00:02:21;11</property>
  <property name="kdenlive:meta.media.sample_aspect_num">8</property>
  <property name="kdenlive:meta.media.sample_aspect_den">9</property>
  <property name="kdenlive:meta.media.frame_rate_num">30000</property>
  <property name="kdenlive:meta.media.frame_rate_den">1001</property>
  <property name="kdenlive:meta.media.colorspace">601</property>
  <property name="kdenlive:meta.media.color_trc">2</property>
  <property name="kdenlive:meta.media.width">720</property>
  <property name="kdenlive:meta.media.height">480</property>
  <property name="meta.media.top_field_first">0</property>
  <property name="meta.media.progressive">1</property>
  <property name="kdenlive:zone_in">0</property>
  <property name="kdenlive:zone_out">27</property>
 </producer>
 <producer id="56" title="Anonymous Submission" out="560" in="0">
  <property name="length">00:00:18;21</property>
  <property name="eof">pause</property>
  <property name="resource">/home/thoth/.cache/kdenlive/proxy/a447e008df1cc1544bff0cde207f27d5.mpg</property>
  <property name="meta.media.nb_streams">2</property>
  <property name="meta.media.0.stream.type">video</property>
  <property name="meta.media.0.stream.frame_rate">29.97</property>
  <property name="meta.media.0.stream.sample_aspect_ratio">0</property>
  <property name="meta.media.0.codec.width">640</property>
  <property name="meta.media.0.codec.height">427</property>
  <property name="meta.media.0.codec.rotate">0</property>
  <property name="meta.media.0.codec.frame_rate">29.97</property>
  <property name="meta.media.0.codec.pix_fmt">yuv422p</property>
  <property name="meta.media.0.codec.sample_aspect_ratio">0.889583</property>
  <property name="meta.media.0.codec.colorspace">601</property>
  <property name="meta.media.0.codec.name">mpeg2video</property>
  <property name="meta.media.0.codec.long_name">MPEG-2 video</property>
  <property name="meta.media.0.codec.bit_rate">0</property>
  <property name="meta.media.1.stream.type">audio</property>
  <property name="meta.media.1.codec.sample_fmt">s16p</property>
  <property name="meta.media.1.codec.sample_rate">32000</property>
  <property name="meta.media.1.codec.channels">2</property>
  <property name="meta.media.1.codec.name">mp2</property>
  <property name="meta.media.1.codec.long_name">MP2 (MPEG audio layer 2)</property>
  <property name="meta.media.1.codec.bit_rate">128000</property>
  <property name="seekable">1</property>
  <property name="meta.media.sample_aspect_num">427</property>
  <property name="meta.media.sample_aspect_den">480</property>
  <property name="aspect_ratio">0.889583</property>
  <property name="audio_index">1</property>
  <property name="video_index">0</property>
  <property name="mute_on_pause">1</property>
  <property name="mlt_service">avformat</property>
  <property name="meta.media.2.stream.type">audio</property>
  <property name="meta.media.2.codec.sample_fmt">s16</property>
  <property name="meta.media.2.codec.sample_rate">32000</property>
  <property name="meta.media.2.codec.channels">2</property>
  <property name="meta.media.2.codec.name">pcm_s16le</property>
  <property name="meta.media.2.codec.long_name">PCM signed 16-bit little-endian</property>
  <property name="meta.media.2.codec.bit_rate">1024000</property>
  <property name="meta.attr.timecode.markup">00:02:11;00</property>
  <property name="kdenlive:folderid">-1</property>
  <property name="meta.media.frame_rate_num">30000</property>
  <property name="meta.media.frame_rate_den">1001</property>
  <property name="meta.media.colorspace">601</property>
  <property name="meta.media.color_trc">2</property>
  <property name="meta.media.width">640</property>
  <property name="meta.media.height">427</property>
  <property name="kdenlive:file_size">68760000</property>
  <property name="kdenlive:file_hash">a447e008df1cc1544bff0cde207f27d5</property>
  <property name="kdenlive:proxy">/home/thoth/.cache/kdenlive/proxy/a447e008df1cc1544bff0cde207f27d5.mpg</property>
  <property name="proxy_out">572</property>
  <property name="kdenlive:originalurl">2001-07-07-beasty/beastiality-043.dv</property>
  <property name="global_feed">1</property>
  <property name="kdenlive:meta.media.nb_streams">3</property>
  <property name="kdenlive:meta.media.0.stream.type">video</property>
  <property name="kdenlive:meta.media.0.stream.frame_rate">29.97</property>
  <property name="kdenlive:meta.media.0.stream.sample_aspect_ratio">0.888889</property>
  <property name="kdenlive:meta.media.0.codec.width">720</property>
  <property name="kdenlive:meta.media.0.codec.height">480</property>
  <property name="kdenlive:meta.media.0.codec.rotate">0</property>
  <property name="kdenlive:meta.media.0.codec.frame_rate">29.97</property>
  <property name="kdenlive:meta.media.0.codec.pix_fmt">yuv411p</property>
  <property name="kdenlive:meta.media.0.codec.sample_aspect_ratio">0.888889</property>
  <property name="kdenlive:meta.media.0.codec.colorspace">601</property>
  <property name="kdenlive:meta.media.0.codec.name">dvvideo</property>
  <property name="kdenlive:meta.media.0.codec.long_name">DV (Digital Video)</property>
  <property name="kdenlive:meta.media.0.codec.bit_rate">25000000</property>
  <property name="kdenlive:meta.media.1.stream.type">audio</property>
  <property name="kdenlive:meta.media.1.codec.sample_fmt">s16</property>
  <property name="kdenlive:meta.media.1.codec.sample_rate">32000</property>
  <property name="kdenlive:meta.media.1.codec.channels">2</property>
  <property name="kdenlive:meta.media.1.codec.name">pcm_s16le</property>
  <property name="kdenlive:meta.media.1.codec.long_name">PCM signed 16-bit little-endian</property>
  <property name="kdenlive:meta.media.1.codec.bit_rate">1024000</property>
  <property name="kdenlive:meta.media.2.stream.type">audio</property>
  <property name="kdenlive:meta.media.2.codec.sample_fmt">s16</property>
  <property name="kdenlive:meta.media.2.codec.sample_rate">32000</property>
  <property name="kdenlive:meta.media.2.codec.channels">2</property>
  <property name="kdenlive:meta.media.2.codec.name">pcm_s16le</property>
  <property name="kdenlive:meta.media.2.codec.long_name">PCM signed 16-bit little-endian</property>
  <property name="kdenlive:meta.media.2.codec.bit_rate">1024000</property>
  <property name="kdenlive:meta.attr.timecode.markup">00:02:11;00</property>
  <property name="kdenlive:meta.media.sample_aspect_num">8</property>
  <property name="kdenlive:meta.media.sample_aspect_den">9</property>
  <property name="kdenlive:meta.media.frame_rate_num">30000</property>
  <property name="kdenlive:meta.media.frame_rate_den">1001</property>
  <property name="kdenlive:meta.media.colorspace">601</property>
  <property name="kdenlive:meta.media.color_trc">2</property>
  <property name="kdenlive:meta.media.width">720</property>
  <property name="kdenlive:meta.media.height">480</property>
  <property name="meta.media.top_field_first">0</property>
  <property name="meta.media.progressive">1</property>
  <property name="kdenlive:zone_in">137</property>
  <property name="kdenlive:zone_out">568</property>
 </producer>
 <producer id="57" title="Anonymous Submission" out="666" in="0">
  <property name="length">00:00:22;07</property>
  <property name="eof">pause</property>
  <property name="resource">/home/thoth/.cache/kdenlive/proxy/3ef1751279e5db73d05d2f3981c95864.mpg</property>
  <property name="meta.media.nb_streams">2</property>
  <property name="meta.media.0.stream.type">video</property>
  <property name="meta.media.0.stream.frame_rate">29.97</property>
  <property name="meta.media.0.stream.sample_aspect_ratio">0</property>
  <property name="meta.media.0.codec.width">640</property>
  <property name="meta.media.0.codec.height">427</property>
  <property name="meta.media.0.codec.rotate">0</property>
  <property name="meta.media.0.codec.frame_rate">29.97</property>
  <property name="meta.media.0.codec.pix_fmt">yuv422p</property>
  <property name="meta.media.0.codec.sample_aspect_ratio">0.889583</property>
  <property name="meta.media.0.codec.colorspace">601</property>
  <property name="meta.media.0.codec.name">mpeg2video</property>
  <property name="meta.media.0.codec.long_name">MPEG-2 video</property>
  <property name="meta.media.0.codec.bit_rate">0</property>
  <property name="meta.media.1.stream.type">audio</property>
  <property name="meta.media.1.codec.sample_fmt">s16p</property>
  <property name="meta.media.1.codec.sample_rate">32000</property>
  <property name="meta.media.1.codec.channels">2</property>
  <property name="meta.media.1.codec.name">mp2</property>
  <property name="meta.media.1.codec.long_name">MP2 (MPEG audio layer 2)</property>
  <property name="meta.media.1.codec.bit_rate">128000</property>
  <property name="seekable">1</property>
  <property name="meta.media.sample_aspect_num">427</property>
  <property name="meta.media.sample_aspect_den">480</property>
  <property name="aspect_ratio">0.889583</property>
  <property name="audio_index">1</property>
  <property name="video_index">0</property>
  <property name="mute_on_pause">1</property>
  <property name="mlt_service">avformat</property>
  <property name="meta.media.2.stream.type">audio</property>
  <property name="meta.media.2.codec.sample_fmt">s16</property>
  <property name="meta.media.2.codec.sample_rate">32000</property>
  <property name="meta.media.2.codec.channels">2</property>
  <property name="meta.media.2.codec.name">pcm_s16le</property>
  <property name="meta.media.2.codec.long_name">PCM signed 16-bit little-endian</property>
  <property name="meta.media.2.codec.bit_rate">1024000</property>
  <property name="meta.attr.timecode.markup">00:02:30;10</property>
  <property name="kdenlive:folderid">-1</property>
  <property name="meta.media.frame_rate_num">30000</property>
  <property name="meta.media.frame_rate_den">1001</property>
  <property name="meta.media.colorspace">601</property>
  <property name="meta.media.color_trc">2</property>
  <property name="meta.media.width">640</property>
  <property name="meta.media.height">427</property>
  <property name="kdenlive:file_size">81480000</property>
  <property name="kdenlive:file_hash">3ef1751279e5db73d05d2f3981c95864</property>
  <property name="kdenlive:proxy">/home/thoth/.cache/kdenlive/proxy/3ef1751279e5db73d05d2f3981c95864.mpg</property>
  <property name="proxy_out">678</property>
  <property name="kdenlive:originalurl">2001-07-07-beasty/beastiality-044.dv</property>
  <property name="global_feed">1</property>
  <property name="kdenlive:meta.media.nb_streams">3</property>
  <property name="kdenlive:meta.media.0.stream.type">video</property>
  <property name="kdenlive:meta.media.0.stream.frame_rate">29.97</property>
  <property name="kdenlive:meta.media.0.stream.sample_aspect_ratio">0.888889</property>
  <property name="kdenlive:meta.media.0.codec.width">720</property>
  <property name="kdenlive:meta.media.0.codec.height">480</property>
  <property name="kdenlive:meta.media.0.codec.rotate">0</property>
  <property name="kdenlive:meta.media.0.codec.frame_rate">29.97</property>
  <property name="kdenlive:meta.media.0.codec.pix_fmt">yuv411p</property>
  <property name="kdenlive:meta.media.0.codec.sample_aspect_ratio">0.888889</property>
  <property name="kdenlive:meta.media.0.codec.colorspace">601</property>
  <property name="kdenlive:meta.media.0.codec.name">dvvideo</property>
  <property name="kdenlive:meta.media.0.codec.long_name">DV (Digital Video)</property>
  <property name="kdenlive:meta.media.0.codec.bit_rate">25000000</property>
  <property name="kdenlive:meta.media.1.stream.type">audio</property>
  <property name="kdenlive:meta.media.1.codec.sample_fmt">s16</property>
  <property name="kdenlive:meta.media.1.codec.sample_rate">32000</property>
  <property name="kdenlive:meta.media.1.codec.channels">2</property>
  <property name="kdenlive:meta.media.1.codec.name">pcm_s16le</property>
  <property name="kdenlive:meta.media.1.codec.long_name">PCM signed 16-bit little-endian</property>
  <property name="kdenlive:meta.media.1.codec.bit_rate">1024000</property>
  <property name="kdenlive:meta.media.2.stream.type">audio</property>
  <property name="kdenlive:meta.media.2.codec.sample_fmt">s16</property>
  <property name="kdenlive:meta.media.2.codec.sample_rate">32000</property>
  <property name="kdenlive:meta.media.2.codec.channels">2</property>
  <property name="kdenlive:meta.media.2.codec.name">pcm_s16le</property>
  <property name="kdenlive:meta.media.2.codec.long_name">PCM signed 16-bit little-endian</property>
  <property name="kdenlive:meta.media.2.codec.bit_rate">1024000</property>
  <property name="kdenlive:meta.attr.timecode.markup">00:02:30;10</property>
  <property name="kdenlive:meta.media.sample_aspect_num">8</property>
  <property name="kdenlive:meta.media.sample_aspect_den">9</property>
  <property name="kdenlive:meta.media.frame_rate_num">30000</property>
  <property name="kdenlive:meta.media.frame_rate_den">1001</property>
  <property name="kdenlive:meta.media.colorspace">601</property>
  <property name="kdenlive:meta.media.color_trc">2</property>
  <property name="kdenlive:meta.media.width">720</property>
  <property name="kdenlive:meta.media.height">480</property>
  <property name="meta.media.top_field_first">0</property>
  <property name="meta.media.progressive">1</property>
  <property name="kdenlive:zone_in">423</property>
  <property name="kdenlive:zone_out">495</property>
 </producer>
 <producer id="58" title="Anonymous Submission" out="798" in="0">
  <property name="length">00:00:26;19</property>
  <property name="eof">pause</property>
  <property name="resource">/home/thoth/.cache/kdenlive/proxy/05b1d4c4e1b8e60e754e8e7a4226b740.mpg</property>
  <property name="meta.media.nb_streams">2</property>
  <property name="meta.media.0.stream.type">video</property>
  <property name="meta.media.0.stream.frame_rate">29.97</property>
  <property name="meta.media.0.stream.sample_aspect_ratio">0</property>
  <property name="meta.media.0.codec.width">640</property>
  <property name="meta.media.0.codec.height">427</property>
  <property name="meta.media.0.codec.rotate">0</property>
  <property name="meta.media.0.codec.frame_rate">29.97</property>
  <property name="meta.media.0.codec.pix_fmt">yuv422p</property>
  <property name="meta.media.0.codec.sample_aspect_ratio">0.889583</property>
  <property name="meta.media.0.codec.colorspace">601</property>
  <property name="meta.media.0.codec.name">mpeg2video</property>
  <property name="meta.media.0.codec.long_name">MPEG-2 video</property>
  <property name="meta.media.0.codec.bit_rate">0</property>
  <property name="meta.media.1.stream.type">audio</property>
  <property name="meta.media.1.codec.sample_fmt">s16p</property>
  <property name="meta.media.1.codec.sample_rate">32000</property>
  <property name="meta.media.1.codec.channels">2</property>
  <property name="meta.media.1.codec.name">mp2</property>
  <property name="meta.media.1.codec.long_name">MP2 (MPEG audio layer 2)</property>
  <property name="meta.media.1.codec.bit_rate">128000</property>
  <property name="seekable">1</property>
  <property name="meta.media.sample_aspect_num">427</property>
  <property name="meta.media.sample_aspect_den">480</property>
  <property name="aspect_ratio">0.889583</property>
  <property name="audio_index">1</property>
  <property name="video_index">0</property>
  <property name="mute_on_pause">1</property>
  <property name="mlt_service">avformat</property>
  <property name="meta.media.2.stream.type">audio</property>
  <property name="meta.media.2.codec.sample_fmt">s16</property>
  <property name="meta.media.2.codec.sample_rate">32000</property>
  <property name="meta.media.2.codec.channels">2</property>
  <property name="meta.media.2.codec.name">pcm_s16le</property>
  <property name="meta.media.2.codec.long_name">PCM signed 16-bit little-endian</property>
  <property name="meta.media.2.codec.bit_rate">1024000</property>
  <property name="meta.attr.timecode.markup">00:02:52;29</property>
  <property name="kdenlive:folderid">-1</property>
  <property name="meta.media.frame_rate_num">30000</property>
  <property name="meta.media.frame_rate_den">1001</property>
  <property name="meta.media.colorspace">601</property>
  <property name="meta.media.color_trc">2</property>
  <property name="meta.media.width">640</property>
  <property name="meta.media.height">427</property>
  <property name="kdenlive:file_size">97320000</property>
  <property name="kdenlive:file_hash">05b1d4c4e1b8e60e754e8e7a4226b740</property>
  <property name="kdenlive:proxy">/home/thoth/.cache/kdenlive/proxy/05b1d4c4e1b8e60e754e8e7a4226b740.mpg</property>
  <property name="proxy_out">810</property>
  <property name="kdenlive:originalurl">2001-07-07-beasty/beastiality-045.dv</property>
  <property name="global_feed">1</property>
  <property name="kdenlive:meta.media.nb_streams">3</property>
  <property name="kdenlive:meta.media.0.stream.type">video</property>
  <property name="kdenlive:meta.media.0.stream.frame_rate">29.97</property>
  <property name="kdenlive:meta.media.0.stream.sample_aspect_ratio">0.888889</property>
  <property name="kdenlive:meta.media.0.codec.width">720</property>
  <property name="kdenlive:meta.media.0.codec.height">480</property>
  <property name="kdenlive:meta.media.0.codec.rotate">0</property>
  <property name="kdenlive:meta.media.0.codec.frame_rate">29.97</property>
  <property name="kdenlive:meta.media.0.codec.pix_fmt">yuv411p</property>
  <property name="kdenlive:meta.media.0.codec.sample_aspect_ratio">0.888889</property>
  <property name="kdenlive:meta.media.0.codec.colorspace">601</property>
  <property name="kdenlive:meta.media.0.codec.name">dvvideo</property>
  <property name="kdenlive:meta.media.0.codec.long_name">DV (Digital Video)</property>
  <property name="kdenlive:meta.media.0.codec.bit_rate">25000000</property>
  <property name="kdenlive:meta.media.1.stream.type">audio</property>
  <property name="kdenlive:meta.media.1.codec.sample_fmt">s16</property>
  <property name="kdenlive:meta.media.1.codec.sample_rate">32000</property>
  <property name="kdenlive:meta.media.1.codec.channels">2</property>
  <property name="kdenlive:meta.media.1.codec.name">pcm_s16le</property>
  <property name="kdenlive:meta.media.1.codec.long_name">PCM signed 16-bit little-endian</property>
  <property name="kdenlive:meta.media.1.codec.bit_rate">1024000</property>
  <property name="kdenlive:meta.media.2.stream.type">audio</property>
  <property name="kdenlive:meta.media.2.codec.sample_fmt">s16</property>
  <property name="kdenlive:meta.media.2.codec.sample_rate">32000</property>
  <property name="kdenlive:meta.media.2.codec.channels">2</property>
  <property name="kdenlive:meta.media.2.codec.name">pcm_s16le</property>
  <property name="kdenlive:meta.media.2.codec.long_name">PCM signed 16-bit little-endian</property>
  <property name="kdenlive:meta.media.2.codec.bit_rate">1024000</property>
  <property name="kdenlive:meta.attr.timecode.markup">00:02:52;29</property>
  <property name="kdenlive:meta.media.sample_aspect_num">8</property>
  <property name="kdenlive:meta.media.sample_aspect_den">9</property>
  <property name="kdenlive:meta.media.frame_rate_num">30000</property>
  <property name="kdenlive:meta.media.frame_rate_den">1001</property>
  <property name="kdenlive:meta.media.colorspace">601</property>
  <property name="kdenlive:meta.media.color_trc">2</property>
  <property name="kdenlive:meta.media.width">720</property>
  <property name="kdenlive:meta.media.height">480</property>
  <property name="meta.media.top_field_first">0</property>
  <property name="meta.media.progressive">1</property>
  <property name="kdenlive:zone_in">585</property>
  <property name="kdenlive:zone_out">773</property>
 </producer>
 <producer id="59" title="Anonymous Submission" out="847" in="0">
  <property name="length">00:00:28;08</property>
  <property name="eof">pause</property>
  <property name="resource">/home/thoth/.cache/kdenlive/proxy/a30bf50fadbcb53eaade6e05f123e8b2.mpg</property>
  <property name="meta.media.nb_streams">2</property>
  <property name="meta.media.0.stream.type">video</property>
  <property name="meta.media.0.stream.frame_rate">29.97</property>
  <property name="meta.media.0.stream.sample_aspect_ratio">0</property>
  <property name="meta.media.0.codec.width">640</property>
  <property name="meta.media.0.codec.height">427</property>
  <property name="meta.media.0.codec.rotate">0</property>
  <property name="meta.media.0.codec.frame_rate">29.97</property>
  <property name="meta.media.0.codec.pix_fmt">yuv422p</property>
  <property name="meta.media.0.codec.sample_aspect_ratio">0.889583</property>
  <property name="meta.media.0.codec.colorspace">601</property>
  <property name="meta.media.0.codec.name">mpeg2video</property>
  <property name="meta.media.0.codec.long_name">MPEG-2 video</property>
  <property name="meta.media.0.codec.bit_rate">0</property>
  <property name="meta.media.1.stream.type">audio</property>
  <property name="meta.media.1.codec.sample_fmt">s16p</property>
  <property name="meta.media.1.codec.sample_rate">32000</property>
  <property name="meta.media.1.codec.channels">2</property>
  <property name="meta.media.1.codec.name">mp2</property>
  <property name="meta.media.1.codec.long_name">MP2 (MPEG audio layer 2)</property>
  <property name="meta.media.1.codec.bit_rate">128000</property>
  <property name="seekable">1</property>
  <property name="meta.media.sample_aspect_num">427</property>
  <property name="meta.media.sample_aspect_den">480</property>
  <property name="aspect_ratio">0.889583</property>
  <property name="audio_index">1</property>
  <property name="video_index">0</property>
  <property name="mute_on_pause">1</property>
  <property name="mlt_service">avformat</property>
  <property name="meta.media.2.stream.type">audio</property>
  <property name="meta.media.2.codec.sample_fmt">s16</property>
  <property name="meta.media.2.codec.sample_rate">32000</property>
  <property name="meta.media.2.codec.channels">2</property>
  <property name="meta.media.2.codec.name">pcm_s16le</property>
  <property name="meta.media.2.codec.long_name">PCM signed 16-bit little-endian</property>
  <property name="meta.media.2.codec.bit_rate">1024000</property>
  <property name="kdenlive:folderid">-1</property>
  <property name="meta.media.frame_rate_num">30000</property>
  <property name="meta.media.frame_rate_den">1001</property>
  <property name="meta.media.colorspace">601</property>
  <property name="meta.media.color_trc">2</property>
  <property name="meta.media.width">640</property>
  <property name="meta.media.height">427</property>
  <property name="kdenlive:file_size">103200000</property>
  <property name="kdenlive:file_hash">a30bf50fadbcb53eaade6e05f123e8b2</property>
  <property name="kdenlive:proxy">/home/thoth/.cache/kdenlive/proxy/a30bf50fadbcb53eaade6e05f123e8b2.mpg</property>
  <property name="proxy_out">859</property>
  <property name="kdenlive:originalurl">2001-07-07-beasty/beastiality-058.dv</property>
  <property name="global_feed">1</property>
  <property name="kdenlive:meta.media.nb_streams">3</property>
  <property name="kdenlive:meta.media.0.stream.type">video</property>
  <property name="kdenlive:meta.media.0.stream.frame_rate">29.97</property>
  <property name="kdenlive:meta.media.0.stream.sample_aspect_ratio">0.888889</property>
  <property name="kdenlive:meta.media.0.codec.width">720</property>
  <property name="kdenlive:meta.media.0.codec.height">480</property>
  <property name="kdenlive:meta.media.0.codec.rotate">0</property>
  <property name="kdenlive:meta.media.0.codec.frame_rate">29.97</property>
  <property name="kdenlive:meta.media.0.codec.pix_fmt">yuv411p</property>
  <property name="kdenlive:meta.media.0.codec.sample_aspect_ratio">0.888889</property>
  <property name="kdenlive:meta.media.0.codec.colorspace">601</property>
  <property name="kdenlive:meta.media.0.codec.name">dvvideo</property>
  <property name="kdenlive:meta.media.0.codec.long_name">DV (Digital Video)</property>
  <property name="kdenlive:meta.media.0.codec.bit_rate">25000000</property>
  <property name="kdenlive:meta.media.1.stream.type">audio</property>
  <property name="kdenlive:meta.media.1.codec.sample_fmt">s16</property>
  <property name="kdenlive:meta.media.1.codec.sample_rate">32000</property>
  <property name="kdenlive:meta.media.1.codec.channels">2</property>
  <property name="kdenlive:meta.media.1.codec.name">pcm_s16le</property>
  <property name="kdenlive:meta.media.1.codec.long_name">PCM signed 16-bit little-endian</property>
  <property name="kdenlive:meta.media.1.codec.bit_rate">1024000</property>
  <property name="kdenlive:meta.media.2.stream.type">audio</property>
  <property name="kdenlive:meta.media.2.codec.sample_fmt">s16</property>
  <property name="kdenlive:meta.media.2.codec.sample_rate">32000</property>
  <property name="kdenlive:meta.media.2.codec.channels">2</property>
  <property name="kdenlive:meta.media.2.codec.name">pcm_s16le</property>
  <property name="kdenlive:meta.media.2.codec.long_name">PCM signed 16-bit little-endian</property>
  <property name="kdenlive:meta.media.2.codec.bit_rate">1024000</property>
  <property name="kdenlive:meta.media.sample_aspect_num">8</property>
  <property name="kdenlive:meta.media.sample_aspect_den">9</property>
  <property name="kdenlive:meta.media.frame_rate_num">30000</property>
  <property name="kdenlive:meta.media.frame_rate_den">1001</property>
  <property name="kdenlive:meta.media.colorspace">601</property>
  <property name="kdenlive:meta.media.color_trc">2</property>
  <property name="kdenlive:meta.media.width">720</property>
  <property name="kdenlive:meta.media.height">480</property>
  <property name="meta.media.top_field_first">0</property>
  <property name="meta.media.progressive">1</property>
  <property name="kdenlive:zone_in">206</property>
  <property name="kdenlive:zone_out">665</property>
 </producer>
 <producer id="60" title="Anonymous Submission" out="863" in="0">
  <property name="length">00:00:28;24</property>
  <property name="eof">pause</property>
  <property name="resource">/home/thoth/.cache/kdenlive/proxy/f12441b2a8c3467d4c0a9dda68a436b9.mpg</property>
  <property name="meta.media.nb_streams">2</property>
  <property name="meta.media.0.stream.type">video</property>
  <property name="meta.media.0.stream.frame_rate">29.97</property>
  <property name="meta.media.0.stream.sample_aspect_ratio">0</property>
  <property name="meta.media.0.codec.width">640</property>
  <property name="meta.media.0.codec.height">427</property>
  <property name="meta.media.0.codec.rotate">0</property>
  <property name="meta.media.0.codec.frame_rate">29.97</property>
  <property name="meta.media.0.codec.pix_fmt">yuv422p</property>
  <property name="meta.media.0.codec.sample_aspect_ratio">0.889583</property>
  <property name="meta.media.0.codec.colorspace">601</property>
  <property name="meta.media.0.codec.name">mpeg2video</property>
  <property name="meta.media.0.codec.long_name">MPEG-2 video</property>
  <property name="meta.media.0.codec.bit_rate">0</property>
  <property name="meta.media.1.stream.type">audio</property>
  <property name="meta.media.1.codec.sample_fmt">s16p</property>
  <property name="meta.media.1.codec.sample_rate">32000</property>
  <property name="meta.media.1.codec.channels">2</property>
  <property name="meta.media.1.codec.name">mp2</property>
  <property name="meta.media.1.codec.long_name">MP2 (MPEG audio layer 2)</property>
  <property name="meta.media.1.codec.bit_rate">128000</property>
  <property name="seekable">1</property>
  <property name="meta.media.sample_aspect_num">427</property>
  <property name="meta.media.sample_aspect_den">480</property>
  <property name="aspect_ratio">0.889583</property>
  <property name="audio_index">1</property>
  <property name="video_index">0</property>
  <property name="mute_on_pause">1</property>
  <property name="mlt_service">avformat</property>
  <property name="meta.media.2.stream.type">audio</property>
  <property name="meta.media.2.codec.sample_fmt">s16</property>
  <property name="meta.media.2.codec.sample_rate">32000</property>
  <property name="meta.media.2.codec.channels">2</property>
  <property name="meta.media.2.codec.name">pcm_s16le</property>
  <property name="meta.media.2.codec.long_name">PCM signed 16-bit little-endian</property>
  <property name="meta.media.2.codec.bit_rate">1024000</property>
  <property name="meta.attr.timecode.markup">00:00:24;27</property>
  <property name="kdenlive:folderid">-1</property>
  <property name="meta.media.frame_rate_num">30000</property>
  <property name="meta.media.frame_rate_den">1001</property>
  <property name="meta.media.colorspace">601</property>
  <property name="meta.media.color_trc">2</property>
  <property name="meta.media.width">640</property>
  <property name="meta.media.height">427</property>
  <property name="kdenlive:file_size">105120000</property>
  <property name="kdenlive:file_hash">f12441b2a8c3467d4c0a9dda68a436b9</property>
  <property name="kdenlive:proxy">/home/thoth/.cache/kdenlive/proxy/f12441b2a8c3467d4c0a9dda68a436b9.mpg</property>
  <property name="proxy_out">875</property>
  <property name="kdenlive:originalurl">2001-07-07-beasty/beastiality-059.dv</property>
  <property name="global_feed">1</property>
  <property name="kdenlive:meta.media.nb_streams">3</property>
  <property name="kdenlive:meta.media.0.stream.type">video</property>
  <property name="kdenlive:meta.media.0.stream.frame_rate">29.97</property>
  <property name="kdenlive:meta.media.0.stream.sample_aspect_ratio">0.888889</property>
  <property name="kdenlive:meta.media.0.codec.width">720</property>
  <property name="kdenlive:meta.media.0.codec.height">480</property>
  <property name="kdenlive:meta.media.0.codec.rotate">0</property>
  <property name="kdenlive:meta.media.0.codec.frame_rate">29.97</property>
  <property name="kdenlive:meta.media.0.codec.pix_fmt">yuv411p</property>
  <property name="kdenlive:meta.media.0.codec.sample_aspect_ratio">0.888889</property>
  <property name="kdenlive:meta.media.0.codec.colorspace">601</property>
  <property name="kdenlive:meta.media.0.codec.name">dvvideo</property>
  <property name="kdenlive:meta.media.0.codec.long_name">DV (Digital Video)</property>
  <property name="kdenlive:meta.media.0.codec.bit_rate">25000000</property>
  <property name="kdenlive:meta.media.1.stream.type">audio</property>
  <property name="kdenlive:meta.media.1.codec.sample_fmt">s16</property>
  <property name="kdenlive:meta.media.1.codec.sample_rate">32000</property>
  <property name="kdenlive:meta.media.1.codec.channels">2</property>
  <property name="kdenlive:meta.media.1.codec.name">pcm_s16le</property>
  <property name="kdenlive:meta.media.1.codec.long_name">PCM signed 16-bit little-endian</property>
  <property name="kdenlive:meta.media.1.codec.bit_rate">1024000</property>
  <property name="kdenlive:meta.media.2.stream.type">audio</property>
  <property name="kdenlive:meta.media.2.codec.sample_fmt">s16</property>
  <property name="kdenlive:meta.media.2.codec.sample_rate">32000</property>
  <property name="kdenlive:meta.media.2.codec.channels">2</property>
  <property name="kdenlive:meta.media.2.codec.name">pcm_s16le</property>
  <property name="kdenlive:meta.media.2.codec.long_name">PCM signed 16-bit little-endian</property>
  <property name="kdenlive:meta.media.2.codec.bit_rate">1024000</property>
  <property name="kdenlive:meta.attr.timecode.markup">00:00:24;27</property>
  <property name="kdenlive:meta.media.sample_aspect_num">8</property>
  <property name="kdenlive:meta.media.sample_aspect_den">9</property>
  <property name="kdenlive:meta.media.frame_rate_num">30000</property>
  <property name="kdenlive:meta.media.frame_rate_den">1001</property>
  <property name="kdenlive:meta.media.colorspace">601</property>
  <property name="kdenlive:meta.media.color_trc">2</property>
  <property name="kdenlive:meta.media.width">720</property>
  <property name="kdenlive:meta.media.height">480</property>
  <property name="meta.media.top_field_first">0</property>
  <property name="meta.media.progressive">1</property>
  <property name="kdenlive:zone_in">0</property>
  <property name="kdenlive:zone_out">158</property>
 </producer>
 <producer id="61" title="Anonymous Submission" out="849" in="0">
  <property name="length">00:00:28;10</property>
  <property name="eof">pause</property>
  <property name="resource">/home/thoth/.cache/kdenlive/proxy/32ebe8589b3546ff0256ed75a9cf3a99.mpg</property>
  <property name="meta.media.nb_streams">2</property>
  <property name="meta.media.0.stream.type">video</property>
  <property name="meta.media.0.stream.frame_rate">29.97</property>
  <property name="meta.media.0.stream.sample_aspect_ratio">0</property>
  <property name="meta.media.0.codec.width">640</property>
  <property name="meta.media.0.codec.height">427</property>
  <property name="meta.media.0.codec.rotate">0</property>
  <property name="meta.media.0.codec.frame_rate">29.97</property>
  <property name="meta.media.0.codec.pix_fmt">yuv422p</property>
  <property name="meta.media.0.codec.sample_aspect_ratio">0.889583</property>
  <property name="meta.media.0.codec.colorspace">601</property>
  <property name="meta.media.0.codec.name">mpeg2video</property>
  <property name="meta.media.0.codec.long_name">MPEG-2 video</property>
  <property name="meta.media.0.codec.bit_rate">0</property>
  <property name="meta.media.1.stream.type">audio</property>
  <property name="meta.media.1.codec.sample_fmt">s16p</property>
  <property name="meta.media.1.codec.sample_rate">32000</property>
  <property name="meta.media.1.codec.channels">2</property>
  <property name="meta.media.1.codec.name">mp2</property>
  <property name="meta.media.1.codec.long_name">MP2 (MPEG audio layer 2)</property>
  <property name="meta.media.1.codec.bit_rate">128000</property>
  <property name="seekable">1</property>
  <property name="meta.media.sample_aspect_num">427</property>
  <property name="meta.media.sample_aspect_den">480</property>
  <property name="aspect_ratio">0.889583</property>
  <property name="audio_index">1</property>
  <property name="video_index">0</property>
  <property name="mute_on_pause">1</property>
  <property name="mlt_service">avformat</property>
  <property name="meta.media.2.stream.type">audio</property>
  <property name="meta.media.2.codec.sample_fmt">s16</property>
  <property name="meta.media.2.codec.sample_rate">32000</property>
  <property name="meta.media.2.codec.channels">2</property>
  <property name="meta.media.2.codec.name">pcm_s16le</property>
  <property name="meta.media.2.codec.long_name">PCM signed 16-bit little-endian</property>
  <property name="meta.media.2.codec.bit_rate">1024000</property>
  <property name="kdenlive:folderid">-1</property>
  <property name="meta.media.frame_rate_num">30000</property>
  <property name="meta.media.frame_rate_den">1001</property>
  <property name="meta.media.colorspace">601</property>
  <property name="meta.media.color_trc">2</property>
  <property name="meta.media.width">640</property>
  <property name="meta.media.height">427</property>
  <property name="kdenlive:file_size">103440000</property>
  <property name="kdenlive:file_hash">32ebe8589b3546ff0256ed75a9cf3a99</property>
  <property name="kdenlive:proxy">/home/thoth/.cache/kdenlive/proxy/32ebe8589b3546ff0256ed75a9cf3a99.mpg</property>
  <property name="proxy_out">861</property>
  <property name="kdenlive:originalurl">2001-07-07-beasty/beastiality-060.dv</property>
  <property name="global_feed">1</property>
  <property name="kdenlive:meta.media.nb_streams">3</property>
  <property name="kdenlive:meta.media.0.stream.type">video</property>
  <property name="kdenlive:meta.media.0.stream.frame_rate">29.97</property>
  <property name="kdenlive:meta.media.0.stream.sample_aspect_ratio">0.888889</property>
  <property name="kdenlive:meta.media.0.codec.width">720</property>
  <property name="kdenlive:meta.media.0.codec.height">480</property>
  <property name="kdenlive:meta.media.0.codec.rotate">0</property>
  <property name="kdenlive:meta.media.0.codec.frame_rate">29.97</property>
  <property name="kdenlive:meta.media.0.codec.pix_fmt">yuv411p</property>
  <property name="kdenlive:meta.media.0.codec.sample_aspect_ratio">0.888889</property>
  <property name="kdenlive:meta.media.0.codec.colorspace">601</property>
  <property name="kdenlive:meta.media.0.codec.name">dvvideo</property>
  <property name="kdenlive:meta.media.0.codec.long_name">DV (Digital Video)</property>
  <property name="kdenlive:meta.media.0.codec.bit_rate">25000000</property>
  <property name="kdenlive:meta.media.1.stream.type">audio</property>
  <property name="kdenlive:meta.media.1.codec.sample_fmt">s16</property>
  <property name="kdenlive:meta.media.1.codec.sample_rate">32000</property>
  <property name="kdenlive:meta.media.1.codec.channels">2</property>
  <property name="kdenlive:meta.media.1.codec.name">pcm_s16le</property>
  <property name="kdenlive:meta.media.1.codec.long_name">PCM signed 16-bit little-endian</property>
  <property name="kdenlive:meta.media.1.codec.bit_rate">1024000</property>
  <property name="kdenlive:meta.media.2.stream.type">audio</property>
  <property name="kdenlive:meta.media.2.codec.sample_fmt">s16</property>
  <property name="kdenlive:meta.media.2.codec.sample_rate">32000</property>
  <property name="kdenlive:meta.media.2.codec.channels">2</property>
  <property name="kdenlive:meta.media.2.codec.name">pcm_s16le</property>
  <property name="kdenlive:meta.media.2.codec.long_name">PCM signed 16-bit little-endian</property>
  <property name="kdenlive:meta.media.2.codec.bit_rate">1024000</property>
  <property name="kdenlive:meta.media.sample_aspect_num">8</property>
  <property name="kdenlive:meta.media.sample_aspect_den">9</property>
  <property name="kdenlive:meta.media.frame_rate_num">30000</property>
  <property name="kdenlive:meta.media.frame_rate_den">1001</property>
  <property name="kdenlive:meta.media.colorspace">601</property>
  <property name="kdenlive:meta.media.color_trc">2</property>
  <property name="kdenlive:meta.media.width">720</property>
  <property name="kdenlive:meta.media.height">480</property>
  <property name="meta.media.top_field_first">0</property>
  <property name="meta.media.progressive">1</property>
  <property name="kdenlive:zone_in">82</property>
  <property name="kdenlive:zone_out">207</property>
 </producer>
 <producer id="63" title="Anonymous Submission" out="79" in="0">
  <property name="length">00:00:02;20</property>
  <property name="eof">pause</property>
  <property name="resource">/home/thoth/.cache/kdenlive/proxy/995fcfd29c4ccd4f00c2a0a381aead58.mpg</property>
  <property name="meta.media.nb_streams">2</property>
  <property name="meta.media.0.stream.type">video</property>
  <property name="meta.media.0.stream.frame_rate">29.97</property>
  <property name="meta.media.0.stream.sample_aspect_ratio">0</property>
  <property name="meta.media.0.codec.width">640</property>
  <property name="meta.media.0.codec.height">427</property>
  <property name="meta.media.0.codec.rotate">0</property>
  <property name="meta.media.0.codec.frame_rate">29.97</property>
  <property name="meta.media.0.codec.pix_fmt">yuv422p</property>
  <property name="meta.media.0.codec.sample_aspect_ratio">0.889583</property>
  <property name="meta.media.0.codec.colorspace">601</property>
  <property name="meta.media.0.codec.name">mpeg2video</property>
  <property name="meta.media.0.codec.long_name">MPEG-2 video</property>
  <property name="meta.media.0.codec.bit_rate">0</property>
  <property name="meta.media.1.stream.type">audio</property>
  <property name="meta.media.1.codec.sample_fmt">s16p</property>
  <property name="meta.media.1.codec.sample_rate">32000</property>
  <property name="meta.media.1.codec.channels">2</property>
  <property name="meta.media.1.codec.name">mp2</property>
  <property name="meta.media.1.codec.long_name">MP2 (MPEG audio layer 2)</property>
  <property name="meta.media.1.codec.bit_rate">128000</property>
  <property name="seekable">1</property>
  <property name="meta.media.sample_aspect_num">427</property>
  <property name="meta.media.sample_aspect_den">480</property>
  <property name="aspect_ratio">0.889583</property>
  <property name="audio_index">1</property>
  <property name="video_index">0</property>
  <property name="mute_on_pause">1</property>
  <property name="mlt_service">avformat</property>
  <property name="meta.media.2.stream.type">audio</property>
  <property name="meta.media.2.codec.sample_fmt">s16</property>
  <property name="meta.media.2.codec.sample_rate">32000</property>
  <property name="meta.media.2.codec.channels">2</property>
  <property name="meta.media.2.codec.name">pcm_s16le</property>
  <property name="meta.media.2.codec.long_name">PCM signed 16-bit little-endian</property>
  <property name="meta.media.2.codec.bit_rate">1024000</property>
  <property name="meta.attr.timecode.markup">00:01:45;23</property>
  <property name="kdenlive:folderid">-1</property>
  <property name="meta.media.frame_rate_num">30000</property>
  <property name="meta.media.frame_rate_den">1001</property>
  <property name="meta.media.colorspace">601</property>
  <property name="meta.media.color_trc">2</property>
  <property name="meta.media.width">640</property>
  <property name="meta.media.height">427</property>
  <property name="kdenlive:file_size">9600000</property>
  <property name="kdenlive:file_hash">995fcfd29c4ccd4f00c2a0a381aead58</property>
  <property name="kdenlive:proxy">/home/thoth/.cache/kdenlive/proxy/995fcfd29c4ccd4f00c2a0a381aead58.mpg</property>
  <property name="proxy_out">79</property>
  <property name="kdenlive:originalurl">2001-07-07-beasty/beastiality-062.dv</property>
  <property name="global_feed">1</property>
  <property name="kdenlive:meta.media.nb_streams">3</property>
  <property name="kdenlive:meta.media.0.stream.type">video</property>
  <property name="kdenlive:meta.media.0.stream.frame_rate">29.97</property>
  <property name="kdenlive:meta.media.0.stream.sample_aspect_ratio">0.888889</property>
  <property name="kdenlive:meta.media.0.codec.width">720</property>
  <property name="kdenlive:meta.media.0.codec.height">480</property>
  <property name="kdenlive:meta.media.0.codec.rotate">0</property>
  <property name="kdenlive:meta.media.0.codec.frame_rate">29.97</property>
  <property name="kdenlive:meta.media.0.codec.pix_fmt">yuv411p</property>
  <property name="kdenlive:meta.media.0.codec.sample_aspect_ratio">0.888889</property>
  <property name="kdenlive:meta.media.0.codec.colorspace">601</property>
  <property name="kdenlive:meta.media.0.codec.name">dvvideo</property>
  <property name="kdenlive:meta.media.0.codec.long_name">DV (Digital Video)</property>
  <property name="kdenlive:meta.media.0.codec.bit_rate">25000000</property>
  <property name="kdenlive:meta.media.1.stream.type">audio</property>
  <property name="kdenlive:meta.media.1.codec.sample_fmt">s16</property>
  <property name="kdenlive:meta.media.1.codec.sample_rate">32000</property>
  <property name="kdenlive:meta.media.1.codec.channels">2</property>
  <property name="kdenlive:meta.media.1.codec.name">pcm_s16le</property>
  <property name="kdenlive:meta.media.1.codec.long_name">PCM signed 16-bit little-endian</property>
  <property name="kdenlive:meta.media.1.codec.bit_rate">1024000</property>
  <property name="kdenlive:meta.media.2.stream.type">audio</property>
  <property name="kdenlive:meta.media.2.codec.sample_fmt">s16</property>
  <property name="kdenlive:meta.media.2.codec.sample_rate">32000</property>
  <property name="kdenlive:meta.media.2.codec.channels">2</property>
  <property name="kdenlive:meta.media.2.codec.name">pcm_s16le</property>
  <property name="kdenlive:meta.media.2.codec.long_name">PCM signed 16-bit little-endian</property>
  <property name="kdenlive:meta.media.2.codec.bit_rate">1024000</property>
  <property name="kdenlive:meta.attr.timecode.markup">00:01:45;23</property>
  <property name="kdenlive:meta.media.sample_aspect_num">8</property>
  <property name="kdenlive:meta.media.sample_aspect_den">9</property>
  <property name="kdenlive:meta.media.frame_rate_num">30000</property>
  <property name="kdenlive:meta.media.frame_rate_den">1001</property>
  <property name="kdenlive:meta.media.colorspace">601</property>
  <property name="kdenlive:meta.media.color_trc">2</property>
  <property name="kdenlive:meta.media.width">720</property>
  <property name="kdenlive:meta.media.height">480</property>
  <property name="meta.media.top_field_first">0</property>
  <property name="meta.media.progressive">1</property>
 </producer>
 <producer id="64" title="Anonymous Submission" out="244" in="0">
  <property name="length">00:00:08;05</property>
  <property name="eof">pause</property>
  <property name="resource">/home/thoth/.cache/kdenlive/proxy/291f63a7c05301a3b78d30a9cbac600d.mpg</property>
  <property name="meta.media.nb_streams">2</property>
  <property name="meta.media.0.stream.type">video</property>
  <property name="meta.media.0.stream.frame_rate">29.97</property>
  <property name="meta.media.0.stream.sample_aspect_ratio">0</property>
  <property name="meta.media.0.codec.width">640</property>
  <property name="meta.media.0.codec.height">427</property>
  <property name="meta.media.0.codec.rotate">0</property>
  <property name="meta.media.0.codec.frame_rate">29.97</property>
  <property name="meta.media.0.codec.pix_fmt">yuv422p</property>
  <property name="meta.media.0.codec.sample_aspect_ratio">0.889583</property>
  <property name="meta.media.0.codec.colorspace">601</property>
  <property name="meta.media.0.codec.name">mpeg2video</property>
  <property name="meta.media.0.codec.long_name">MPEG-2 video</property>
  <property name="meta.media.0.codec.bit_rate">0</property>
  <property name="meta.media.1.stream.type">audio</property>
  <property name="meta.media.1.codec.sample_fmt">s16p</property>
  <property name="meta.media.1.codec.sample_rate">32000</property>
  <property name="meta.media.1.codec.channels">2</property>
  <property name="meta.media.1.codec.name">mp2</property>
  <property name="meta.media.1.codec.long_name">MP2 (MPEG audio layer 2)</property>
  <property name="meta.media.1.codec.bit_rate">128000</property>
  <property name="seekable">1</property>
  <property name="meta.media.sample_aspect_num">427</property>
  <property name="meta.media.sample_aspect_den">480</property>
  <property name="aspect_ratio">0.889583</property>
  <property name="audio_index">1</property>
  <property name="video_index">0</property>
  <property name="mute_on_pause">1</property>
  <property name="mlt_service">avformat</property>
  <property name="meta.media.2.stream.type">audio</property>
  <property name="meta.media.2.codec.sample_fmt">s16</property>
  <property name="meta.media.2.codec.sample_rate">32000</property>
  <property name="meta.media.2.codec.channels">2</property>
  <property name="meta.media.2.codec.name">pcm_s16le</property>
  <property name="meta.media.2.codec.long_name">PCM signed 16-bit little-endian</property>
  <property name="meta.media.2.codec.bit_rate">1024000</property>
  <property name="meta.attr.timecode.markup">00:01:48;13</property>
  <property name="kdenlive:folderid">-1</property>
  <property name="meta.media.frame_rate_num">30000</property>
  <property name="meta.media.frame_rate_den">1001</property>
  <property name="meta.media.colorspace">601</property>
  <property name="meta.media.color_trc">2</property>
  <property name="meta.media.width">640</property>
  <property name="meta.media.height">427</property>
  <property name="kdenlive:file_size">29400000</property>
  <property name="kdenlive:file_hash">291f63a7c05301a3b78d30a9cbac600d</property>
  <property name="kdenlive:proxy">/home/thoth/.cache/kdenlive/proxy/291f63a7c05301a3b78d30a9cbac600d.mpg</property>
  <property name="proxy_out">244</property>
  <property name="kdenlive:originalurl">2001-07-07-beasty/beastiality-063.dv</property>
  <property name="global_feed">1</property>
  <property name="kdenlive:meta.media.nb_streams">3</property>
  <property name="kdenlive:meta.media.0.stream.type">video</property>
  <property name="kdenlive:meta.media.0.stream.frame_rate">29.97</property>
  <property name="kdenlive:meta.media.0.stream.sample_aspect_ratio">0.888889</property>
  <property name="kdenlive:meta.media.0.codec.width">720</property>
  <property name="kdenlive:meta.media.0.codec.height">480</property>
  <property name="kdenlive:meta.media.0.codec.rotate">0</property>
  <property name="kdenlive:meta.media.0.codec.frame_rate">29.97</property>
  <property name="kdenlive:meta.media.0.codec.pix_fmt">yuv411p</property>
  <property name="kdenlive:meta.media.0.codec.sample_aspect_ratio">0.888889</property>
  <property name="kdenlive:meta.media.0.codec.colorspace">601</property>
  <property name="kdenlive:meta.media.0.codec.name">dvvideo</property>
  <property name="kdenlive:meta.media.0.codec.long_name">DV (Digital Video)</property>
  <property name="kdenlive:meta.media.0.codec.bit_rate">25000000</property>
  <property name="kdenlive:meta.media.1.stream.type">audio</property>
  <property name="kdenlive:meta.media.1.codec.sample_fmt">s16</property>
  <property name="kdenlive:meta.media.1.codec.sample_rate">32000</property>
  <property name="kdenlive:meta.media.1.codec.channels">2</property>
  <property name="kdenlive:meta.media.1.codec.name">pcm_s16le</property>
  <property name="kdenlive:meta.media.1.codec.long_name">PCM signed 16-bit little-endian</property>
  <property name="kdenlive:meta.media.1.codec.bit_rate">1024000</property>
  <property name="kdenlive:meta.media.2.stream.type">audio</property>
  <property name="kdenlive:meta.media.2.codec.sample_fmt">s16</property>
  <property name="kdenlive:meta.media.2.codec.sample_rate">32000</property>
  <property name="kdenlive:meta.media.2.codec.channels">2</property>
  <property name="kdenlive:meta.media.2.codec.name">pcm_s16le</property>
  <property name="kdenlive:meta.media.2.codec.long_name">PCM signed 16-bit little-endian</property>
  <property name="kdenlive:meta.media.2.codec.bit_rate">1024000</property>
  <property name="kdenlive:meta.attr.timecode.markup">00:01:48;13</property>
  <property name="kdenlive:meta.media.sample_aspect_num">8</property>
  <property name="kdenlive:meta.media.sample_aspect_den">9</property>
  <property name="kdenlive:meta.media.frame_rate_num">30000</property>
  <property name="kdenlive:meta.media.frame_rate_den">1001</property>
  <property name="kdenlive:meta.media.colorspace">601</property>
  <property name="kdenlive:meta.media.color_trc">2</property>
  <property name="kdenlive:meta.media.width">720</property>
  <property name="kdenlive:meta.media.height">480</property>
  <property name="meta.media.top_field_first">0</property>
  <property name="meta.media.progressive">1</property>
  <property name="kdenlive:zone_in">104</property>
  <property name="kdenlive:zone_out">147</property>
 </producer>
 <producer id="62" title="Anonymous Submission" out="673" in="0">
  <property name="length">00:00:22;14</property>
  <property name="eof">pause</property>
  <property name="resource">/home/thoth/.cache/kdenlive/proxy/40d3c7c3c5f202ec44192604fb10e3f5.mpg</property>
  <property name="meta.media.nb_streams">2</property>
  <property name="meta.media.0.stream.type">video</property>
  <property name="meta.media.0.stream.frame_rate">29.97</property>
  <property name="meta.media.0.stream.sample_aspect_ratio">0</property>
  <property name="meta.media.0.codec.width">640</property>
  <property name="meta.media.0.codec.height">427</property>
  <property name="meta.media.0.codec.rotate">0</property>
  <property name="meta.media.0.codec.frame_rate">29.97</property>
  <property name="meta.media.0.codec.pix_fmt">yuv422p</property>
  <property name="meta.media.0.codec.sample_aspect_ratio">0.889583</property>
  <property name="meta.media.0.codec.colorspace">601</property>
  <property name="meta.media.0.codec.name">mpeg2video</property>
  <property name="meta.media.0.codec.long_name">MPEG-2 video</property>
  <property name="meta.media.0.codec.bit_rate">0</property>
  <property name="meta.media.1.stream.type">audio</property>
  <property name="meta.media.1.codec.sample_fmt">s16p</property>
  <property name="meta.media.1.codec.sample_rate">32000</property>
  <property name="meta.media.1.codec.channels">2</property>
  <property name="meta.media.1.codec.name">mp2</property>
  <property name="meta.media.1.codec.long_name">MP2 (MPEG audio layer 2)</property>
  <property name="meta.media.1.codec.bit_rate">128000</property>
  <property name="seekable">1</property>
  <property name="meta.media.sample_aspect_num">427</property>
  <property name="meta.media.sample_aspect_den">480</property>
  <property name="aspect_ratio">0.889583</property>
  <property name="audio_index">1</property>
  <property name="video_index">0</property>
  <property name="mute_on_pause">1</property>
  <property name="mlt_service">avformat</property>
  <property name="meta.media.2.stream.type">audio</property>
  <property name="meta.media.2.codec.sample_fmt">s16</property>
  <property name="meta.media.2.codec.sample_rate">32000</property>
  <property name="meta.media.2.codec.channels">2</property>
  <property name="meta.media.2.codec.name">pcm_s16le</property>
  <property name="meta.media.2.codec.long_name">PCM signed 16-bit little-endian</property>
  <property name="meta.media.2.codec.bit_rate">1024000</property>
  <property name="kdenlive:folderid">-1</property>
  <property name="meta.media.frame_rate_num">30000</property>
  <property name="meta.media.frame_rate_den">1001</property>
  <property name="meta.media.colorspace">601</property>
  <property name="meta.media.color_trc">2</property>
  <property name="meta.media.width">640</property>
  <property name="meta.media.height">427</property>
  <property name="kdenlive:file_size">82320000</property>
  <property name="kdenlive:file_hash">40d3c7c3c5f202ec44192604fb10e3f5</property>
  <property name="kdenlive:proxy">/home/thoth/.cache/kdenlive/proxy/40d3c7c3c5f202ec44192604fb10e3f5.mpg</property>
  <property name="proxy_out">685</property>
  <property name="kdenlive:originalurl">2001-07-07-beasty/beastiality-061.dv</property>
  <property name="global_feed">1</property>
  <property name="kdenlive:meta.media.nb_streams">3</property>
  <property name="kdenlive:meta.media.0.stream.type">video</property>
  <property name="kdenlive:meta.media.0.stream.frame_rate">29.97</property>
  <property name="kdenlive:meta.media.0.stream.sample_aspect_ratio">0.888889</property>
  <property name="kdenlive:meta.media.0.codec.width">720</property>
  <property name="kdenlive:meta.media.0.codec.height">480</property>
  <property name="kdenlive:meta.media.0.codec.rotate">0</property>
  <property name="kdenlive:meta.media.0.codec.frame_rate">29.97</property>
  <property name="kdenlive:meta.media.0.codec.pix_fmt">yuv411p</property>
  <property name="kdenlive:meta.media.0.codec.sample_aspect_ratio">0.888889</property>
  <property name="kdenlive:meta.media.0.codec.colorspace">601</property>
  <property name="kdenlive:meta.media.0.codec.name">dvvideo</property>
  <property name="kdenlive:meta.media.0.codec.long_name">DV (Digital Video)</property>
  <property name="kdenlive:meta.media.0.codec.bit_rate">25000000</property>
  <property name="kdenlive:meta.media.1.stream.type">audio</property>
  <property name="kdenlive:meta.media.1.codec.sample_fmt">s16</property>
  <property name="kdenlive:meta.media.1.codec.sample_rate">32000</property>
  <property name="kdenlive:meta.media.1.codec.channels">2</property>
  <property name="kdenlive:meta.media.1.codec.name">pcm_s16le</property>
  <property name="kdenlive:meta.media.1.codec.long_name">PCM signed 16-bit little-endian</property>
  <property name="kdenlive:meta.media.1.codec.bit_rate">1024000</property>
  <property name="kdenlive:meta.media.2.stream.type">audio</property>
  <property name="kdenlive:meta.media.2.codec.sample_fmt">s16</property>
  <property name="kdenlive:meta.media.2.codec.sample_rate">32000</property>
  <property name="kdenlive:meta.media.2.codec.channels">2</property>
  <property name="kdenlive:meta.media.2.codec.name">pcm_s16le</property>
  <property name="kdenlive:meta.media.2.codec.long_name">PCM signed 16-bit little-endian</property>
  <property name="kdenlive:meta.media.2.codec.bit_rate">1024000</property>
  <property name="kdenlive:meta.media.sample_aspect_num">8</property>
  <property name="kdenlive:meta.media.sample_aspect_den">9</property>
  <property name="kdenlive:meta.media.frame_rate_num">30000</property>
  <property name="kdenlive:meta.media.frame_rate_den">1001</property>
  <property name="kdenlive:meta.media.colorspace">601</property>
  <property name="kdenlive:meta.media.color_trc">2</property>
  <property name="kdenlive:meta.media.width">720</property>
  <property name="kdenlive:meta.media.height">480</property>
  <property name="meta.media.top_field_first">0</property>
  <property name="meta.media.progressive">1</property>
  <property name="kdenlive:zone_in">335</property>
  <property name="kdenlive:zone_out">516</property>
 </producer>
 <producer id="65" title="Anonymous Submission" out="282" in="0">
  <property name="length">00:00:09;13</property>
  <property name="eof">pause</property>
  <property name="resource">/home/thoth/.cache/kdenlive/proxy/5dc099cf38727d03747a81b12ef4286a.mpg</property>
  <property name="meta.media.nb_streams">2</property>
  <property name="meta.media.0.stream.type">video</property>
  <property name="meta.media.0.stream.frame_rate">29.97</property>
  <property name="meta.media.0.stream.sample_aspect_ratio">0</property>
  <property name="meta.media.0.codec.width">640</property>
  <property name="meta.media.0.codec.height">427</property>
  <property name="meta.media.0.codec.rotate">0</property>
  <property name="meta.media.0.codec.frame_rate">29.97</property>
  <property name="meta.media.0.codec.pix_fmt">yuv422p</property>
  <property name="meta.media.0.codec.sample_aspect_ratio">0.889583</property>
  <property name="meta.media.0.codec.colorspace">601</property>
  <property name="meta.media.0.codec.name">mpeg2video</property>
  <property name="meta.media.0.codec.long_name">MPEG-2 video</property>
  <property name="meta.media.0.codec.bit_rate">0</property>
  <property name="meta.media.1.stream.type">audio</property>
  <property name="meta.media.1.codec.sample_fmt">s16p</property>
  <property name="meta.media.1.codec.sample_rate">32000</property>
  <property name="meta.media.1.codec.channels">2</property>
  <property name="meta.media.1.codec.name">mp2</property>
  <property name="meta.media.1.codec.long_name">MP2 (MPEG audio layer 2)</property>
  <property name="meta.media.1.codec.bit_rate">128000</property>
  <property name="seekable">1</property>
  <property name="meta.media.sample_aspect_num">427</property>
  <property name="meta.media.sample_aspect_den">480</property>
  <property name="aspect_ratio">0.889583</property>
  <property name="audio_index">1</property>
  <property name="video_index">0</property>
  <property name="mute_on_pause">1</property>
  <property name="mlt_service">avformat</property>
  <property name="meta.media.2.stream.type">audio</property>
  <property name="meta.media.2.codec.sample_fmt">s16</property>
  <property name="meta.media.2.codec.sample_rate">32000</property>
  <property name="meta.media.2.codec.channels">2</property>
  <property name="meta.media.2.codec.name">pcm_s16le</property>
  <property name="meta.media.2.codec.long_name">PCM signed 16-bit little-endian</property>
  <property name="meta.media.2.codec.bit_rate">1024000</property>
  <property name="meta.attr.timecode.markup">00:01:56;18</property>
  <property name="kdenlive:folderid">-1</property>
  <property name="meta.media.frame_rate_num">30000</property>
  <property name="meta.media.frame_rate_den">1001</property>
  <property name="meta.media.colorspace">601</property>
  <property name="meta.media.color_trc">2</property>
  <property name="meta.media.width">640</property>
  <property name="meta.media.height">427</property>
  <property name="kdenlive:file_size">33960000</property>
  <property name="kdenlive:file_hash">5dc099cf38727d03747a81b12ef4286a</property>
  <property name="kdenlive:proxy">/home/thoth/.cache/kdenlive/proxy/5dc099cf38727d03747a81b12ef4286a.mpg</property>
  <property name="proxy_out">282</property>
  <property name="kdenlive:originalurl">2001-07-07-beasty/beastiality-064.dv</property>
  <property name="global_feed">1</property>
  <property name="kdenlive:meta.media.nb_streams">3</property>
  <property name="kdenlive:meta.media.0.stream.type">video</property>
  <property name="kdenlive:meta.media.0.stream.frame_rate">29.97</property>
  <property name="kdenlive:meta.media.0.stream.sample_aspect_ratio">0.888889</property>
  <property name="kdenlive:meta.media.0.codec.width">720</property>
  <property name="kdenlive:meta.media.0.codec.height">480</property>
  <property name="kdenlive:meta.media.0.codec.rotate">0</property>
  <property name="kdenlive:meta.media.0.codec.frame_rate">29.97</property>
  <property name="kdenlive:meta.media.0.codec.pix_fmt">yuv411p</property>
  <property name="kdenlive:meta.media.0.codec.sample_aspect_ratio">0.888889</property>
  <property name="kdenlive:meta.media.0.codec.colorspace">601</property>
  <property name="kdenlive:meta.media.0.codec.name">dvvideo</property>
  <property name="kdenlive:meta.media.0.codec.long_name">DV (Digital Video)</property>
  <property name="kdenlive:meta.media.0.codec.bit_rate">25000000</property>
  <property name="kdenlive:meta.media.1.stream.type">audio</property>
  <property name="kdenlive:meta.media.1.codec.sample_fmt">s16</property>
  <property name="kdenlive:meta.media.1.codec.sample_rate">32000</property>
  <property name="kdenlive:meta.media.1.codec.channels">2</property>
  <property name="kdenlive:meta.media.1.codec.name">pcm_s16le</property>
  <property name="kdenlive:meta.media.1.codec.long_name">PCM signed 16-bit little-endian</property>
  <property name="kdenlive:meta.media.1.codec.bit_rate">1024000</property>
  <property name="kdenlive:meta.media.2.stream.type">audio</property>
  <property name="kdenlive:meta.media.2.codec.sample_fmt">s16</property>
  <property name="kdenlive:meta.media.2.codec.sample_rate">32000</property>
  <property name="kdenlive:meta.media.2.codec.channels">2</property>
  <property name="kdenlive:meta.media.2.codec.name">pcm_s16le</property>
  <property name="kdenlive:meta.media.2.codec.long_name">PCM signed 16-bit little-endian</property>
  <property name="kdenlive:meta.media.2.codec.bit_rate">1024000</property>
  <property name="kdenlive:meta.attr.timecode.markup">00:01:56;18</property>
  <property name="kdenlive:meta.media.sample_aspect_num">8</property>
  <property name="kdenlive:meta.media.sample_aspect_den">9</property>
  <property name="kdenlive:meta.media.frame_rate_num">30000</property>
  <property name="kdenlive:meta.media.frame_rate_den">1001</property>
  <property name="kdenlive:meta.media.colorspace">601</property>
  <property name="kdenlive:meta.media.color_trc">2</property>
  <property name="kdenlive:meta.media.width">720</property>
  <property name="kdenlive:meta.media.height">480</property>
  <property name="meta.media.top_field_first">0</property>
  <property name="meta.media.progressive">1</property>
 </producer>
 <producer id="67" title="Anonymous Submission" out="111" in="0">
  <property name="length">00:00:03;22</property>
  <property name="eof">pause</property>
  <property name="resource">/home/thoth/.cache/kdenlive/proxy/06a34b2e95789240f8066638a116e502.mpg</property>
  <property name="meta.media.nb_streams">2</property>
  <property name="meta.media.0.stream.type">video</property>
  <property name="meta.media.0.stream.frame_rate">29.97</property>
  <property name="meta.media.0.stream.sample_aspect_ratio">0</property>
  <property name="meta.media.0.codec.width">640</property>
  <property name="meta.media.0.codec.height">427</property>
  <property name="meta.media.0.codec.rotate">0</property>
  <property name="meta.media.0.codec.frame_rate">29.97</property>
  <property name="meta.media.0.codec.pix_fmt">yuv422p</property>
  <property name="meta.media.0.codec.sample_aspect_ratio">0.889583</property>
  <property name="meta.media.0.codec.colorspace">601</property>
  <property name="meta.media.0.codec.name">mpeg2video</property>
  <property name="meta.media.0.codec.long_name">MPEG-2 video</property>
  <property name="meta.media.0.codec.bit_rate">0</property>
  <property name="meta.media.1.stream.type">audio</property>
  <property name="meta.media.1.codec.sample_fmt">s16p</property>
  <property name="meta.media.1.codec.sample_rate">32000</property>
  <property name="meta.media.1.codec.channels">2</property>
  <property name="meta.media.1.codec.name">mp2</property>
  <property name="meta.media.1.codec.long_name">MP2 (MPEG audio layer 2)</property>
  <property name="meta.media.1.codec.bit_rate">128000</property>
  <property name="seekable">1</property>
  <property name="meta.media.sample_aspect_num">427</property>
  <property name="meta.media.sample_aspect_den">480</property>
  <property name="aspect_ratio">0.889583</property>
  <property name="audio_index">1</property>
  <property name="video_index">0</property>
  <property name="mute_on_pause">1</property>
  <property name="mlt_service">avformat</property>
  <property name="meta.media.2.stream.type">audio</property>
  <property name="meta.media.2.codec.sample_fmt">s16</property>
  <property name="meta.media.2.codec.sample_rate">32000</property>
  <property name="meta.media.2.codec.channels">2</property>
  <property name="meta.media.2.codec.name">pcm_s16le</property>
  <property name="meta.media.2.codec.long_name">PCM signed 16-bit little-endian</property>
  <property name="meta.media.2.codec.bit_rate">1024000</property>
  <property name="kdenlive:folderid">-1</property>
  <property name="meta.media.frame_rate_num">30000</property>
  <property name="meta.media.frame_rate_den">1001</property>
  <property name="meta.media.colorspace">601</property>
  <property name="meta.media.color_trc">2</property>
  <property name="meta.media.width">640</property>
  <property name="meta.media.height">427</property>
  <property name="kdenlive:file_size">13440000</property>
  <property name="kdenlive:file_hash">06a34b2e95789240f8066638a116e502</property>
  <property name="kdenlive:proxy">/home/thoth/.cache/kdenlive/proxy/06a34b2e95789240f8066638a116e502.mpg</property>
  <property name="proxy_out">111</property>
  <property name="kdenlive:originalurl">2001-07-07-beasty/beastiality-066.dv</property>
  <property name="global_feed">1</property>
  <property name="kdenlive:meta.media.nb_streams">3</property>
  <property name="kdenlive:meta.media.0.stream.type">video</property>
  <property name="kdenlive:meta.media.0.stream.frame_rate">29.97</property>
  <property name="kdenlive:meta.media.0.stream.sample_aspect_ratio">0.888889</property>
  <property name="kdenlive:meta.media.0.codec.width">720</property>
  <property name="kdenlive:meta.media.0.codec.height">480</property>
  <property name="kdenlive:meta.media.0.codec.rotate">0</property>
  <property name="kdenlive:meta.media.0.codec.frame_rate">29.97</property>
  <property name="kdenlive:meta.media.0.codec.pix_fmt">yuv411p</property>
  <property name="kdenlive:meta.media.0.codec.sample_aspect_ratio">0.888889</property>
  <property name="kdenlive:meta.media.0.codec.colorspace">601</property>
  <property name="kdenlive:meta.media.0.codec.name">dvvideo</property>
  <property name="kdenlive:meta.media.0.codec.long_name">DV (Digital Video)</property>
  <property name="kdenlive:meta.media.0.codec.bit_rate">25000000</property>
  <property name="kdenlive:meta.media.1.stream.type">audio</property>
  <property name="kdenlive:meta.media.1.codec.sample_fmt">s16</property>
  <property name="kdenlive:meta.media.1.codec.sample_rate">32000</property>
  <property name="kdenlive:meta.media.1.codec.channels">2</property>
  <property name="kdenlive:meta.media.1.codec.name">pcm_s16le</property>
  <property name="kdenlive:meta.media.1.codec.long_name">PCM signed 16-bit little-endian</property>
  <property name="kdenlive:meta.media.1.codec.bit_rate">1024000</property>
  <property name="kdenlive:meta.media.2.stream.type">audio</property>
  <property name="kdenlive:meta.media.2.codec.sample_fmt">s16</property>
  <property name="kdenlive:meta.media.2.codec.sample_rate">32000</property>
  <property name="kdenlive:meta.media.2.codec.channels">2</property>
  <property name="kdenlive:meta.media.2.codec.name">pcm_s16le</property>
  <property name="kdenlive:meta.media.2.codec.long_name">PCM signed 16-bit little-endian</property>
  <property name="kdenlive:meta.media.2.codec.bit_rate">1024000</property>
  <property name="kdenlive:meta.media.sample_aspect_num">8</property>
  <property name="kdenlive:meta.media.sample_aspect_den">9</property>
  <property name="kdenlive:meta.media.frame_rate_num">30000</property>
  <property name="kdenlive:meta.media.frame_rate_den">1001</property>
  <property name="kdenlive:meta.media.colorspace">601</property>
  <property name="kdenlive:meta.media.color_trc">2</property>
  <property name="kdenlive:meta.media.width">720</property>
  <property name="kdenlive:meta.media.height">480</property>
  <property name="meta.media.top_field_first">0</property>
  <property name="meta.media.progressive">1</property>
 </producer>
 <producer id="66" title="Anonymous Submission" out="579" in="0">
  <property name="length">00:00:19;10</property>
  <property name="eof">pause</property>
  <property name="resource">/home/thoth/.cache/kdenlive/proxy/5fec0084afef1fa3f674ba9073c33409.mpg</property>
  <property name="meta.media.nb_streams">2</property>
  <property name="meta.media.0.stream.type">video</property>
  <property name="meta.media.0.stream.frame_rate">29.97</property>
  <property name="meta.media.0.stream.sample_aspect_ratio">0</property>
  <property name="meta.media.0.codec.width">640</property>
  <property name="meta.media.0.codec.height">427</property>
  <property name="meta.media.0.codec.rotate">0</property>
  <property name="meta.media.0.codec.frame_rate">29.97</property>
  <property name="meta.media.0.codec.pix_fmt">yuv422p</property>
  <property name="meta.media.0.codec.sample_aspect_ratio">0.889583</property>
  <property name="meta.media.0.codec.colorspace">601</property>
  <property name="meta.media.0.codec.name">mpeg2video</property>
  <property name="meta.media.0.codec.long_name">MPEG-2 video</property>
  <property name="meta.media.0.codec.bit_rate">0</property>
  <property name="meta.media.1.stream.type">audio</property>
  <property name="meta.media.1.codec.sample_fmt">s16p</property>
  <property name="meta.media.1.codec.sample_rate">32000</property>
  <property name="meta.media.1.codec.channels">2</property>
  <property name="meta.media.1.codec.name">mp2</property>
  <property name="meta.media.1.codec.long_name">MP2 (MPEG audio layer 2)</property>
  <property name="meta.media.1.codec.bit_rate">128000</property>
  <property name="seekable">1</property>
  <property name="meta.media.sample_aspect_num">427</property>
  <property name="meta.media.sample_aspect_den">480</property>
  <property name="aspect_ratio">0.889583</property>
  <property name="audio_index">1</property>
  <property name="video_index">0</property>
  <property name="mute_on_pause">1</property>
  <property name="mlt_service">avformat</property>
  <property name="meta.media.2.stream.type">audio</property>
  <property name="meta.media.2.codec.sample_fmt">s16</property>
  <property name="meta.media.2.codec.sample_rate">32000</property>
  <property name="meta.media.2.codec.channels">2</property>
  <property name="meta.media.2.codec.name">pcm_s16le</property>
  <property name="meta.media.2.codec.long_name">PCM signed 16-bit little-endian</property>
  <property name="meta.media.2.codec.bit_rate">1024000</property>
  <property name="kdenlive:folderid">-1</property>
  <property name="meta.media.frame_rate_num">30000</property>
  <property name="meta.media.frame_rate_den">1001</property>
  <property name="meta.media.colorspace">601</property>
  <property name="meta.media.color_trc">2</property>
  <property name="meta.media.width">640</property>
  <property name="meta.media.height">427</property>
  <property name="kdenlive:file_size">71040000</property>
  <property name="kdenlive:file_hash">5fec0084afef1fa3f674ba9073c33409</property>
  <property name="kdenlive:proxy">/home/thoth/.cache/kdenlive/proxy/5fec0084afef1fa3f674ba9073c33409.mpg</property>
  <property name="proxy_out">591</property>
  <property name="kdenlive:originalurl">2001-07-07-beasty/beastiality-065.dv</property>
  <property name="global_feed">1</property>
  <property name="kdenlive:meta.media.nb_streams">3</property>
  <property name="kdenlive:meta.media.0.stream.type">video</property>
  <property name="kdenlive:meta.media.0.stream.frame_rate">29.97</property>
  <property name="kdenlive:meta.media.0.stream.sample_aspect_ratio">0.888889</property>
  <property name="kdenlive:meta.media.0.codec.width">720</property>
  <property name="kdenlive:meta.media.0.codec.height">480</property>
  <property name="kdenlive:meta.media.0.codec.rotate">0</property>
  <property name="kdenlive:meta.media.0.codec.frame_rate">29.97</property>
  <property name="kdenlive:meta.media.0.codec.pix_fmt">yuv411p</property>
  <property name="kdenlive:meta.media.0.codec.sample_aspect_ratio">0.888889</property>
  <property name="kdenlive:meta.media.0.codec.colorspace">601</property>
  <property name="kdenlive:meta.media.0.codec.name">dvvideo</property>
  <property name="kdenlive:meta.media.0.codec.long_name">DV (Digital Video)</property>
  <property name="kdenlive:meta.media.0.codec.bit_rate">25000000</property>
  <property name="kdenlive:meta.media.1.stream.type">audio</property>
  <property name="kdenlive:meta.media.1.codec.sample_fmt">s16</property>
  <property name="kdenlive:meta.media.1.codec.sample_rate">32000</property>
  <property name="kdenlive:meta.media.1.codec.channels">2</property>
  <property name="kdenlive:meta.media.1.codec.name">pcm_s16le</property>
  <property name="kdenlive:meta.media.1.codec.long_name">PCM signed 16-bit little-endian</property>
  <property name="kdenlive:meta.media.1.codec.bit_rate">1024000</property>
  <property name="kdenlive:meta.media.2.stream.type">audio</property>
  <property name="kdenlive:meta.media.2.codec.sample_fmt">s16</property>
  <property name="kdenlive:meta.media.2.codec.sample_rate">32000</property>
  <property name="kdenlive:meta.media.2.codec.channels">2</property>
  <property name="kdenlive:meta.media.2.codec.name">pcm_s16le</property>
  <property name="kdenlive:meta.media.2.codec.long_name">PCM signed 16-bit little-endian</property>
  <property name="kdenlive:meta.media.2.codec.bit_rate">1024000</property>
  <property name="kdenlive:meta.media.sample_aspect_num">8</property>
  <property name="kdenlive:meta.media.sample_aspect_den">9</property>
  <property name="kdenlive:meta.media.frame_rate_num">30000</property>
  <property name="kdenlive:meta.media.frame_rate_den">1001</property>
  <property name="kdenlive:meta.media.colorspace">601</property>
  <property name="kdenlive:meta.media.color_trc">2</property>
  <property name="kdenlive:meta.media.width">720</property>
  <property name="kdenlive:meta.media.height">480</property>
  <property name="meta.media.top_field_first">0</property>
  <property name="meta.media.progressive">1</property>
  <property name="kdenlive:zone_in">141</property>
  <property name="kdenlive:zone_out">590</property>
 </producer>
 <producer id="68" title="Anonymous Submission" out="622" in="0">
  <property name="length">00:00:20;23</property>
  <property name="eof">pause</property>
  <property name="resource">/home/thoth/.cache/kdenlive/proxy/29fce3e1e21f93e9533455c9dadd825e.mpg</property>
  <property name="meta.media.nb_streams">2</property>
  <property name="meta.media.0.stream.type">video</property>
  <property name="meta.media.0.stream.frame_rate">29.97</property>
  <property name="meta.media.0.stream.sample_aspect_ratio">0</property>
  <property name="meta.media.0.codec.width">640</property>
  <property name="meta.media.0.codec.height">427</property>
  <property name="meta.media.0.codec.rotate">0</property>
  <property name="meta.media.0.codec.frame_rate">29.97</property>
  <property name="meta.media.0.codec.pix_fmt">yuv422p</property>
  <property name="meta.media.0.codec.sample_aspect_ratio">0.889583</property>
  <property name="meta.media.0.codec.colorspace">601</property>
  <property name="meta.media.0.codec.name">mpeg2video</property>
  <property name="meta.media.0.codec.long_name">MPEG-2 video</property>
  <property name="meta.media.0.codec.bit_rate">0</property>
  <property name="meta.media.1.stream.type">audio</property>
  <property name="meta.media.1.codec.sample_fmt">s16p</property>
  <property name="meta.media.1.codec.sample_rate">32000</property>
  <property name="meta.media.1.codec.channels">2</property>
  <property name="meta.media.1.codec.name">mp2</property>
  <property name="meta.media.1.codec.long_name">MP2 (MPEG audio layer 2)</property>
  <property name="meta.media.1.codec.bit_rate">128000</property>
  <property name="seekable">1</property>
  <property name="meta.media.sample_aspect_num">427</property>
  <property name="meta.media.sample_aspect_den">480</property>
  <property name="aspect_ratio">0.889583</property>
  <property name="audio_index">1</property>
  <property name="video_index">0</property>
  <property name="mute_on_pause">1</property>
  <property name="mlt_service">avformat</property>
  <property name="meta.media.2.stream.type">audio</property>
  <property name="meta.media.2.codec.sample_fmt">s16</property>
  <property name="meta.media.2.codec.sample_rate">32000</property>
  <property name="meta.media.2.codec.channels">2</property>
  <property name="meta.media.2.codec.name">pcm_s16le</property>
  <property name="meta.media.2.codec.long_name">PCM signed 16-bit little-endian</property>
  <property name="meta.media.2.codec.bit_rate">1024000</property>
  <property name="meta.attr.timecode.markup">00:02:29;17</property>
  <property name="kdenlive:folderid">-1</property>
  <property name="meta.media.frame_rate_num">30000</property>
  <property name="meta.media.frame_rate_den">1001</property>
  <property name="meta.media.colorspace">601</property>
  <property name="meta.media.color_trc">2</property>
  <property name="meta.media.width">640</property>
  <property name="meta.media.height">427</property>
  <property name="kdenlive:file_size">76200000</property>
  <property name="kdenlive:file_hash">29fce3e1e21f93e9533455c9dadd825e</property>
  <property name="kdenlive:proxy">/home/thoth/.cache/kdenlive/proxy/29fce3e1e21f93e9533455c9dadd825e.mpg</property>
  <property name="proxy_out">634</property>
  <property name="kdenlive:originalurl">2001-07-07-beasty/beastiality-067.dv</property>
  <property name="global_feed">1</property>
  <property name="kdenlive:meta.media.nb_streams">3</property>
  <property name="kdenlive:meta.media.0.stream.type">video</property>
  <property name="kdenlive:meta.media.0.stream.frame_rate">29.97</property>
  <property name="kdenlive:meta.media.0.stream.sample_aspect_ratio">0.888889</property>
  <property name="kdenlive:meta.media.0.codec.width">720</property>
  <property name="kdenlive:meta.media.0.codec.height">480</property>
  <property name="kdenlive:meta.media.0.codec.rotate">0</property>
  <property name="kdenlive:meta.media.0.codec.frame_rate">29.97</property>
  <property name="kdenlive:meta.media.0.codec.pix_fmt">yuv411p</property>
  <property name="kdenlive:meta.media.0.codec.sample_aspect_ratio">0.888889</property>
  <property name="kdenlive:meta.media.0.codec.colorspace">601</property>
  <property name="kdenlive:meta.media.0.codec.name">dvvideo</property>
  <property name="kdenlive:meta.media.0.codec.long_name">DV (Digital Video)</property>
  <property name="kdenlive:meta.media.0.codec.bit_rate">25000000</property>
  <property name="kdenlive:meta.media.1.stream.type">audio</property>
  <property name="kdenlive:meta.media.1.codec.sample_fmt">s16</property>
  <property name="kdenlive:meta.media.1.codec.sample_rate">32000</property>
  <property name="kdenlive:meta.media.1.codec.channels">2</property>
  <property name="kdenlive:meta.media.1.codec.name">pcm_s16le</property>
  <property name="kdenlive:meta.media.1.codec.long_name">PCM signed 16-bit little-endian</property>
  <property name="kdenlive:meta.media.1.codec.bit_rate">1024000</property>
  <property name="kdenlive:meta.media.2.stream.type">audio</property>
  <property name="kdenlive:meta.media.2.codec.sample_fmt">s16</property>
  <property name="kdenlive:meta.media.2.codec.sample_rate">32000</property>
  <property name="kdenlive:meta.media.2.codec.channels">2</property>
  <property name="kdenlive:meta.media.2.codec.name">pcm_s16le</property>
  <property name="kdenlive:meta.media.2.codec.long_name">PCM signed 16-bit little-endian</property>
  <property name="kdenlive:meta.media.2.codec.bit_rate">1024000</property>
  <property name="kdenlive:meta.attr.timecode.markup">00:02:29;17</property>
  <property name="kdenlive:meta.media.sample_aspect_num">8</property>
  <property name="kdenlive:meta.media.sample_aspect_den">9</property>
  <property name="kdenlive:meta.media.frame_rate_num">30000</property>
  <property name="kdenlive:meta.media.frame_rate_den">1001</property>
  <property name="kdenlive:meta.media.colorspace">601</property>
  <property name="kdenlive:meta.media.color_trc">2</property>
  <property name="kdenlive:meta.media.width">720</property>
  <property name="kdenlive:meta.media.height">480</property>
  <property name="meta.media.top_field_first">0</property>
  <property name="meta.media.progressive">1</property>
 </producer>
 <producer id="69" title="Anonymous Submission" out="814" in="0">
  <property name="length">00:00:27;05</property>
  <property name="eof">pause</property>
  <property name="resource">/home/thoth/.cache/kdenlive/proxy/d581c56b2a74b9d66de7aa9191a1133a.mpg</property>
  <property name="meta.media.nb_streams">2</property>
  <property name="meta.media.0.stream.type">video</property>
  <property name="meta.media.0.stream.frame_rate">29.97</property>
  <property name="meta.media.0.stream.sample_aspect_ratio">0</property>
  <property name="meta.media.0.codec.width">640</property>
  <property name="meta.media.0.codec.height">427</property>
  <property name="meta.media.0.codec.rotate">0</property>
  <property name="meta.media.0.codec.frame_rate">29.97</property>
  <property name="meta.media.0.codec.pix_fmt">yuv422p</property>
  <property name="meta.media.0.codec.sample_aspect_ratio">0.889583</property>
  <property name="meta.media.0.codec.colorspace">601</property>
  <property name="meta.media.0.codec.name">mpeg2video</property>
  <property name="meta.media.0.codec.long_name">MPEG-2 video</property>
  <property name="meta.media.0.codec.bit_rate">0</property>
  <property name="meta.media.1.stream.type">audio</property>
  <property name="meta.media.1.codec.sample_fmt">s16p</property>
  <property name="meta.media.1.codec.sample_rate">32000</property>
  <property name="meta.media.1.codec.channels">2</property>
  <property name="meta.media.1.codec.name">mp2</property>
  <property name="meta.media.1.codec.long_name">MP2 (MPEG audio layer 2)</property>
  <property name="meta.media.1.codec.bit_rate">128000</property>
  <property name="seekable">1</property>
  <property name="meta.media.sample_aspect_num">427</property>
  <property name="meta.media.sample_aspect_den">480</property>
  <property name="aspect_ratio">0.889583</property>
  <property name="audio_index">1</property>
  <property name="video_index">0</property>
  <property name="mute_on_pause">1</property>
  <property name="mlt_service">avformat</property>
  <property name="meta.media.2.stream.type">audio</property>
  <property name="meta.media.2.codec.sample_fmt">s16</property>
  <property name="meta.media.2.codec.sample_rate">32000</property>
  <property name="meta.media.2.codec.channels">2</property>
  <property name="meta.media.2.codec.name">pcm_s16le</property>
  <property name="meta.media.2.codec.long_name">PCM signed 16-bit little-endian</property>
  <property name="meta.media.2.codec.bit_rate">1024000</property>
  <property name="meta.attr.timecode.markup">00:02:50;22</property>
  <property name="kdenlive:folderid">-1</property>
  <property name="meta.media.frame_rate_num">30000</property>
  <property name="meta.media.frame_rate_den">1001</property>
  <property name="meta.media.colorspace">601</property>
  <property name="meta.media.color_trc">2</property>
  <property name="meta.media.width">640</property>
  <property name="meta.media.height">427</property>
  <property name="kdenlive:file_size">99240000</property>
  <property name="kdenlive:file_hash">d581c56b2a74b9d66de7aa9191a1133a</property>
  <property name="kdenlive:proxy">/home/thoth/.cache/kdenlive/proxy/d581c56b2a74b9d66de7aa9191a1133a.mpg</property>
  <property name="proxy_out">826</property>
  <property name="kdenlive:originalurl">2001-07-07-beasty/beastiality-068.dv</property>
  <property name="global_feed">1</property>
  <property name="kdenlive:meta.media.nb_streams">3</property>
  <property name="kdenlive:meta.media.0.stream.type">video</property>
  <property name="kdenlive:meta.media.0.stream.frame_rate">29.97</property>
  <property name="kdenlive:meta.media.0.stream.sample_aspect_ratio">0.888889</property>
  <property name="kdenlive:meta.media.0.codec.width">720</property>
  <property name="kdenlive:meta.media.0.codec.height">480</property>
  <property name="kdenlive:meta.media.0.codec.rotate">0</property>
  <property name="kdenlive:meta.media.0.codec.frame_rate">29.97</property>
  <property name="kdenlive:meta.media.0.codec.pix_fmt">yuv411p</property>
  <property name="kdenlive:meta.media.0.codec.sample_aspect_ratio">0.888889</property>
  <property name="kdenlive:meta.media.0.codec.colorspace">601</property>
  <property name="kdenlive:meta.media.0.codec.name">dvvideo</property>
  <property name="kdenlive:meta.media.0.codec.long_name">DV (Digital Video)</property>
  <property name="kdenlive:meta.media.0.codec.bit_rate">25000000</property>
  <property name="kdenlive:meta.media.1.stream.type">audio</property>
  <property name="kdenlive:meta.media.1.codec.sample_fmt">s16</property>
  <property name="kdenlive:meta.media.1.codec.sample_rate">32000</property>
  <property name="kdenlive:meta.media.1.codec.channels">2</property>
  <property name="kdenlive:meta.media.1.codec.name">pcm_s16le</property>
  <property name="kdenlive:meta.media.1.codec.long_name">PCM signed 16-bit little-endian</property>
  <property name="kdenlive:meta.media.1.codec.bit_rate">1024000</property>
  <property name="kdenlive:meta.media.2.stream.type">audio</property>
  <property name="kdenlive:meta.media.2.codec.sample_fmt">s16</property>
  <property name="kdenlive:meta.media.2.codec.sample_rate">32000</property>
  <property name="kdenlive:meta.media.2.codec.channels">2</property>
  <property name="kdenlive:meta.media.2.codec.name">pcm_s16le</property>
  <property name="kdenlive:meta.media.2.codec.long_name">PCM signed 16-bit little-endian</property>
  <property name="kdenlive:meta.media.2.codec.bit_rate">1024000</property>
  <property name="kdenlive:meta.attr.timecode.markup">00:02:50;22</property>
  <property name="kdenlive:meta.media.sample_aspect_num">8</property>
  <property name="kdenlive:meta.media.sample_aspect_den">9</property>
  <property name="kdenlive:meta.media.frame_rate_num">30000</property>
  <property name="kdenlive:meta.media.frame_rate_den">1001</property>
  <property name="kdenlive:meta.media.colorspace">601</property>
  <property name="kdenlive:meta.media.color_trc">2</property>
  <property name="kdenlive:meta.media.width">720</property>
  <property name="kdenlive:meta.media.height">480</property>
  <property name="meta.media.top_field_first">0</property>
  <property name="meta.media.progressive">1</property>
  <property name="kdenlive:zone_in">42</property>
  <property name="kdenlive:zone_out">636</property>
 </producer>
 <producer id="70" title="Anonymous Submission" out="1488" in="0">
  <property name="length">00:00:49;19</property>
  <property name="eof">pause</property>
  <property name="resource">/home/thoth/.cache/kdenlive/proxy/272e985545cd9923e2cf484ef812e786.mpg</property>
  <property name="meta.media.nb_streams">2</property>
  <property name="meta.media.0.stream.type">video</property>
  <property name="meta.media.0.stream.frame_rate">29.97</property>
  <property name="meta.media.0.stream.sample_aspect_ratio">0</property>
  <property name="meta.media.0.codec.width">640</property>
  <property name="meta.media.0.codec.height">427</property>
  <property name="meta.media.0.codec.rotate">0</property>
  <property name="meta.media.0.codec.frame_rate">29.97</property>
  <property name="meta.media.0.codec.pix_fmt">yuv422p</property>
  <property name="meta.media.0.codec.sample_aspect_ratio">0.889583</property>
  <property name="meta.media.0.codec.colorspace">601</property>
  <property name="meta.media.0.codec.name">mpeg2video</property>
  <property name="meta.media.0.codec.long_name">MPEG-2 video</property>
  <property name="meta.media.0.codec.bit_rate">0</property>
  <property name="meta.media.1.stream.type">audio</property>
  <property name="meta.media.1.codec.sample_fmt">s16p</property>
  <property name="meta.media.1.codec.sample_rate">32000</property>
  <property name="meta.media.1.codec.channels">2</property>
  <property name="meta.media.1.codec.name">mp2</property>
  <property name="meta.media.1.codec.long_name">MP2 (MPEG audio layer 2)</property>
  <property name="meta.media.1.codec.bit_rate">128000</property>
  <property name="seekable">1</property>
  <property name="meta.media.sample_aspect_num">427</property>
  <property name="meta.media.sample_aspect_den">480</property>
  <property name="aspect_ratio">0.889583</property>
  <property name="audio_index">1</property>
  <property name="video_index">0</property>
  <property name="mute_on_pause">1</property>
  <property name="mlt_service">avformat</property>
  <property name="meta.media.2.stream.type">audio</property>
  <property name="meta.media.2.codec.sample_fmt">s16</property>
  <property name="meta.media.2.codec.sample_rate">32000</property>
  <property name="meta.media.2.codec.channels">2</property>
  <property name="meta.media.2.codec.name">pcm_s16le</property>
  <property name="meta.media.2.codec.long_name">PCM signed 16-bit little-endian</property>
  <property name="meta.media.2.codec.bit_rate">1024000</property>
  <property name="kdenlive:folderid">-1</property>
  <property name="meta.media.frame_rate_num">30000</property>
  <property name="meta.media.frame_rate_den">1001</property>
  <property name="meta.media.colorspace">601</property>
  <property name="meta.media.color_trc">2</property>
  <property name="meta.media.width">640</property>
  <property name="meta.media.height">427</property>
  <property name="kdenlive:file_size">180120000</property>
  <property name="kdenlive:file_hash">272e985545cd9923e2cf484ef812e786</property>
  <property name="kdenlive:proxy">/home/thoth/.cache/kdenlive/proxy/272e985545cd9923e2cf484ef812e786.mpg</property>
  <property name="proxy_out">1500</property>
  <property name="kdenlive:originalurl">2001-07-07-beasty/beastiality-069.dv</property>
  <property name="global_feed">1</property>
  <property name="kdenlive:meta.media.nb_streams">3</property>
  <property name="kdenlive:meta.media.0.stream.type">video</property>
  <property name="kdenlive:meta.media.0.stream.frame_rate">29.97</property>
  <property name="kdenlive:meta.media.0.stream.sample_aspect_ratio">0.888889</property>
  <property name="kdenlive:meta.media.0.codec.width">720</property>
  <property name="kdenlive:meta.media.0.codec.height">480</property>
  <property name="kdenlive:meta.media.0.codec.rotate">0</property>
  <property name="kdenlive:meta.media.0.codec.frame_rate">29.97</property>
  <property name="kdenlive:meta.media.0.codec.pix_fmt">yuv411p</property>
  <property name="kdenlive:meta.media.0.codec.sample_aspect_ratio">0.888889</property>
  <property name="kdenlive:meta.media.0.codec.colorspace">601</property>
  <property name="kdenlive:meta.media.0.codec.name">dvvideo</property>
  <property name="kdenlive:meta.media.0.codec.long_name">DV (Digital Video)</property>
  <property name="kdenlive:meta.media.0.codec.bit_rate">25000000</property>
  <property name="kdenlive:meta.media.1.stream.type">audio</property>
  <property name="kdenlive:meta.media.1.codec.sample_fmt">s16</property>
  <property name="kdenlive:meta.media.1.codec.sample_rate">32000</property>
  <property name="kdenlive:meta.media.1.codec.channels">2</property>
  <property name="kdenlive:meta.media.1.codec.name">pcm_s16le</property>
  <property name="kdenlive:meta.media.1.codec.long_name">PCM signed 16-bit little-endian</property>
  <property name="kdenlive:meta.media.1.codec.bit_rate">1024000</property>
  <property name="kdenlive:meta.media.2.stream.type">audio</property>
  <property name="kdenlive:meta.media.2.codec.sample_fmt">s16</property>
  <property name="kdenlive:meta.media.2.codec.sample_rate">32000</property>
  <property name="kdenlive:meta.media.2.codec.channels">2</property>
  <property name="kdenlive:meta.media.2.codec.name">pcm_s16le</property>
  <property name="kdenlive:meta.media.2.codec.long_name">PCM signed 16-bit little-endian</property>
  <property name="kdenlive:meta.media.2.codec.bit_rate">1024000</property>
  <property name="kdenlive:meta.media.sample_aspect_num">8</property>
  <property name="kdenlive:meta.media.sample_aspect_den">9</property>
  <property name="kdenlive:meta.media.frame_rate_num">30000</property>
  <property name="kdenlive:meta.media.frame_rate_den">1001</property>
  <property name="kdenlive:meta.media.colorspace">601</property>
  <property name="kdenlive:meta.media.color_trc">2</property>
  <property name="kdenlive:meta.media.width">720</property>
  <property name="kdenlive:meta.media.height">480</property>
  <property name="meta.media.top_field_first">0</property>
  <property name="meta.media.progressive">1</property>
  <property name="kdenlive:zone_in">39</property>
  <property name="kdenlive:zone_out">328</property>
 </producer>
 <producer id="71" title="Anonymous Submission" out="1077" in="0">
  <property name="length">00:00:35;28</property>
  <property name="eof">pause</property>
  <property name="resource">/home/thoth/.cache/kdenlive/proxy/a44c33d2c92e119814c34e55ed86da78.mpg</property>
  <property name="meta.media.nb_streams">2</property>
  <property name="meta.media.0.stream.type">video</property>
  <property name="meta.media.0.stream.frame_rate">29.97</property>
  <property name="meta.media.0.stream.sample_aspect_ratio">0</property>
  <property name="meta.media.0.codec.width">640</property>
  <property name="meta.media.0.codec.height">427</property>
  <property name="meta.media.0.codec.rotate">0</property>
  <property name="meta.media.0.codec.frame_rate">29.97</property>
  <property name="meta.media.0.codec.pix_fmt">yuv422p</property>
  <property name="meta.media.0.codec.sample_aspect_ratio">0.889583</property>
  <property name="meta.media.0.codec.colorspace">601</property>
  <property name="meta.media.0.codec.name">mpeg2video</property>
  <property name="meta.media.0.codec.long_name">MPEG-2 video</property>
  <property name="meta.media.0.codec.bit_rate">0</property>
  <property name="meta.media.1.stream.type">audio</property>
  <property name="meta.media.1.codec.sample_fmt">s16p</property>
  <property name="meta.media.1.codec.sample_rate">32000</property>
  <property name="meta.media.1.codec.channels">2</property>
  <property name="meta.media.1.codec.name">mp2</property>
  <property name="meta.media.1.codec.long_name">MP2 (MPEG audio layer 2)</property>
  <property name="meta.media.1.codec.bit_rate">128000</property>
  <property name="seekable">1</property>
  <property name="meta.media.sample_aspect_num">427</property>
  <property name="meta.media.sample_aspect_den">480</property>
  <property name="aspect_ratio">0.889583</property>
  <property name="audio_index">1</property>
  <property name="video_index">0</property>
  <property name="mute_on_pause">1</property>
  <property name="mlt_service">avformat</property>
  <property name="meta.media.2.stream.type">audio</property>
  <property name="meta.media.2.codec.sample_fmt">s16</property>
  <property name="meta.media.2.codec.sample_rate">32000</property>
  <property name="meta.media.2.codec.channels">2</property>
  <property name="meta.media.2.codec.name">pcm_s16le</property>
  <property name="meta.media.2.codec.long_name">PCM signed 16-bit little-endian</property>
  <property name="meta.media.2.codec.bit_rate">1024000</property>
  <property name="meta.attr.timecode.markup">00:00:37;15</property>
  <property name="kdenlive:folderid">-1</property>
  <property name="meta.media.frame_rate_num">30000</property>
  <property name="meta.media.frame_rate_den">1001</property>
  <property name="meta.media.colorspace">601</property>
  <property name="meta.media.color_trc">2</property>
  <property name="meta.media.width">640</property>
  <property name="meta.media.height">427</property>
  <property name="kdenlive:file_size">130800000</property>
  <property name="kdenlive:file_hash">a44c33d2c92e119814c34e55ed86da78</property>
  <property name="kdenlive:proxy">/home/thoth/.cache/kdenlive/proxy/a44c33d2c92e119814c34e55ed86da78.mpg</property>
  <property name="proxy_out">1089</property>
  <property name="kdenlive:originalurl">2001-07-07-beasty/beastiality-070.dv</property>
  <property name="global_feed">1</property>
  <property name="kdenlive:meta.media.nb_streams">3</property>
  <property name="kdenlive:meta.media.0.stream.type">video</property>
  <property name="kdenlive:meta.media.0.stream.frame_rate">29.97</property>
  <property name="kdenlive:meta.media.0.stream.sample_aspect_ratio">0.888889</property>
  <property name="kdenlive:meta.media.0.codec.width">720</property>
  <property name="kdenlive:meta.media.0.codec.height">480</property>
  <property name="kdenlive:meta.media.0.codec.rotate">0</property>
  <property name="kdenlive:meta.media.0.codec.frame_rate">29.97</property>
  <property name="kdenlive:meta.media.0.codec.pix_fmt">yuv411p</property>
  <property name="kdenlive:meta.media.0.codec.sample_aspect_ratio">0.888889</property>
  <property name="kdenlive:meta.media.0.codec.colorspace">601</property>
  <property name="kdenlive:meta.media.0.codec.name">dvvideo</property>
  <property name="kdenlive:meta.media.0.codec.long_name">DV (Digital Video)</property>
  <property name="kdenlive:meta.media.0.codec.bit_rate">25000000</property>
  <property name="kdenlive:meta.media.1.stream.type">audio</property>
  <property name="kdenlive:meta.media.1.codec.sample_fmt">s16</property>
  <property name="kdenlive:meta.media.1.codec.sample_rate">32000</property>
  <property name="kdenlive:meta.media.1.codec.channels">2</property>
  <property name="kdenlive:meta.media.1.codec.name">pcm_s16le</property>
  <property name="kdenlive:meta.media.1.codec.long_name">PCM signed 16-bit little-endian</property>
  <property name="kdenlive:meta.media.1.codec.bit_rate">1024000</property>
  <property name="kdenlive:meta.media.2.stream.type">audio</property>
  <property name="kdenlive:meta.media.2.codec.sample_fmt">s16</property>
  <property name="kdenlive:meta.media.2.codec.sample_rate">32000</property>
  <property name="kdenlive:meta.media.2.codec.channels">2</property>
  <property name="kdenlive:meta.media.2.codec.name">pcm_s16le</property>
  <property name="kdenlive:meta.media.2.codec.long_name">PCM signed 16-bit little-endian</property>
  <property name="kdenlive:meta.media.2.codec.bit_rate">1024000</property>
  <property name="kdenlive:meta.attr.timecode.markup">00:00:37;15</property>
  <property name="kdenlive:meta.media.sample_aspect_num">8</property>
  <property name="kdenlive:meta.media.sample_aspect_den">9</property>
  <property name="kdenlive:meta.media.frame_rate_num">30000</property>
  <property name="kdenlive:meta.media.frame_rate_den">1001</property>
  <property name="kdenlive:meta.media.colorspace">601</property>
  <property name="kdenlive:meta.media.color_trc">2</property>
  <property name="kdenlive:meta.media.width">720</property>
  <property name="kdenlive:meta.media.height">480</property>
  <property name="meta.media.top_field_first">0</property>
  <property name="meta.media.progressive">1</property>
 </producer>
 <producer id="72" title="Anonymous Submission" out="8725" in="0">
  <property name="length">00:04:51;04</property>
  <property name="eof">pause</property>
  <property name="resource">/home/thoth/.cache/kdenlive/proxy/5ee0ec025e4d6470af63b6e367747a67.mpg</property>
  <property name="meta.media.nb_streams">2</property>
  <property name="meta.media.0.stream.type">video</property>
  <property name="meta.media.0.stream.frame_rate">29.97</property>
  <property name="meta.media.0.stream.sample_aspect_ratio">0</property>
  <property name="meta.media.0.codec.width">640</property>
  <property name="meta.media.0.codec.height">427</property>
  <property name="meta.media.0.codec.rotate">0</property>
  <property name="meta.media.0.codec.frame_rate">29.97</property>
  <property name="meta.media.0.codec.pix_fmt">yuv422p</property>
  <property name="meta.media.0.codec.sample_aspect_ratio">0.889583</property>
  <property name="meta.media.0.codec.colorspace">601</property>
  <property name="meta.media.0.codec.name">mpeg2video</property>
  <property name="meta.media.0.codec.long_name">MPEG-2 video</property>
  <property name="meta.media.0.codec.bit_rate">0</property>
  <property name="meta.media.1.stream.type">audio</property>
  <property name="meta.media.1.codec.sample_fmt">s16p</property>
  <property name="meta.media.1.codec.sample_rate">32000</property>
  <property name="meta.media.1.codec.channels">2</property>
  <property name="meta.media.1.codec.name">mp2</property>
  <property name="meta.media.1.codec.long_name">MP2 (MPEG audio layer 2)</property>
  <property name="meta.media.1.codec.bit_rate">128000</property>
  <property name="seekable">1</property>
  <property name="meta.media.sample_aspect_num">427</property>
  <property name="meta.media.sample_aspect_den">480</property>
  <property name="aspect_ratio">0.889583</property>
  <property name="audio_index">1</property>
  <property name="video_index">0</property>
  <property name="mute_on_pause">1</property>
  <property name="mlt_service">avformat</property>
  <property name="meta.media.2.stream.type">audio</property>
  <property name="meta.media.2.codec.sample_fmt">s16</property>
  <property name="meta.media.2.codec.sample_rate">32000</property>
  <property name="meta.media.2.codec.channels">2</property>
  <property name="meta.media.2.codec.name">pcm_s16le</property>
  <property name="meta.media.2.codec.long_name">PCM signed 16-bit little-endian</property>
  <property name="meta.media.2.codec.bit_rate">1024000</property>
  <property name="meta.attr.timecode.markup">00:00:01;24</property>
  <property name="kdenlive:folderid">-1</property>
  <property name="meta.media.frame_rate_num">30000</property>
  <property name="meta.media.frame_rate_den">1001</property>
  <property name="meta.media.colorspace">601</property>
  <property name="meta.media.color_trc">2</property>
  <property name="meta.media.width">640</property>
  <property name="meta.media.height">427</property>
  <property name="kdenlive:file_size">1048560000</property>
  <property name="kdenlive:file_hash">5ee0ec025e4d6470af63b6e367747a67</property>
  <property name="kdenlive:proxy">/home/thoth/.cache/kdenlive/proxy/5ee0ec025e4d6470af63b6e367747a67.mpg</property>
  <property name="proxy_out">8737</property>
  <property name="kdenlive:originalurl">2001-07-07-beasty/beasty-001.dv</property>
  <property name="global_feed">1</property>
  <property name="kdenlive:meta.media.nb_streams">3</property>
  <property name="kdenlive:meta.media.0.stream.type">video</property>
  <property name="kdenlive:meta.media.0.stream.frame_rate">29.97</property>
  <property name="kdenlive:meta.media.0.stream.sample_aspect_ratio">0.888889</property>
  <property name="kdenlive:meta.media.0.codec.width">720</property>
  <property name="kdenlive:meta.media.0.codec.height">480</property>
  <property name="kdenlive:meta.media.0.codec.rotate">0</property>
  <property name="kdenlive:meta.media.0.codec.frame_rate">29.97</property>
  <property name="kdenlive:meta.media.0.codec.pix_fmt">yuv411p</property>
  <property name="kdenlive:meta.media.0.codec.sample_aspect_ratio">0.888889</property>
  <property name="kdenlive:meta.media.0.codec.colorspace">601</property>
  <property name="kdenlive:meta.media.0.codec.name">dvvideo</property>
  <property name="kdenlive:meta.media.0.codec.long_name">DV (Digital Video)</property>
  <property name="kdenlive:meta.media.0.codec.bit_rate">25000000</property>
  <property name="kdenlive:meta.media.1.stream.type">audio</property>
  <property name="kdenlive:meta.media.1.codec.sample_fmt">s16</property>
  <property name="kdenlive:meta.media.1.codec.sample_rate">32000</property>
  <property name="kdenlive:meta.media.1.codec.channels">2</property>
  <property name="kdenlive:meta.media.1.codec.name">pcm_s16le</property>
  <property name="kdenlive:meta.media.1.codec.long_name">PCM signed 16-bit little-endian</property>
  <property name="kdenlive:meta.media.1.codec.bit_rate">1024000</property>
  <property name="kdenlive:meta.media.2.stream.type">audio</property>
  <property name="kdenlive:meta.media.2.codec.sample_fmt">s16</property>
  <property name="kdenlive:meta.media.2.codec.sample_rate">32000</property>
  <property name="kdenlive:meta.media.2.codec.channels">2</property>
  <property name="kdenlive:meta.media.2.codec.name">pcm_s16le</property>
  <property name="kdenlive:meta.media.2.codec.long_name">PCM signed 16-bit little-endian</property>
  <property name="kdenlive:meta.media.2.codec.bit_rate">1024000</property>
  <property name="kdenlive:meta.attr.timecode.markup">00:00:01;24</property>
  <property name="kdenlive:meta.media.sample_aspect_num">8</property>
  <property name="kdenlive:meta.media.sample_aspect_den">9</property>
  <property name="kdenlive:meta.media.frame_rate_num">30000</property>
  <property name="kdenlive:meta.media.frame_rate_den">1001</property>
  <property name="kdenlive:meta.media.colorspace">601</property>
  <property name="kdenlive:meta.media.color_trc">2</property>
  <property name="kdenlive:meta.media.width">720</property>
  <property name="kdenlive:meta.media.height">480</property>
  <property name="meta.media.top_field_first">0</property>
  <property name="meta.media.progressive">1</property>
 </producer>
 <producer id="74" title="Anonymous Submission" out="1407" in="0">
  <property name="length">00:00:46;28</property>
  <property name="eof">pause</property>
  <property name="resource">/home/thoth/.cache/kdenlive/proxy/5ec4dff6973a4ee74c2c317c96dda4f9.mpg</property>
  <property name="meta.media.nb_streams">2</property>
  <property name="meta.media.0.stream.type">video</property>
  <property name="meta.media.0.stream.frame_rate">29.97</property>
  <property name="meta.media.0.stream.sample_aspect_ratio">0</property>
  <property name="meta.media.0.codec.width">640</property>
  <property name="meta.media.0.codec.height">427</property>
  <property name="meta.media.0.codec.rotate">0</property>
  <property name="meta.media.0.codec.frame_rate">29.97</property>
  <property name="meta.media.0.codec.pix_fmt">yuv422p</property>
  <property name="meta.media.0.codec.sample_aspect_ratio">0.889583</property>
  <property name="meta.media.0.codec.colorspace">601</property>
  <property name="meta.media.0.codec.name">mpeg2video</property>
  <property name="meta.media.0.codec.long_name">MPEG-2 video</property>
  <property name="meta.media.0.codec.bit_rate">0</property>
  <property name="meta.media.1.stream.type">audio</property>
  <property name="meta.media.1.codec.sample_fmt">s16p</property>
  <property name="meta.media.1.codec.sample_rate">32000</property>
  <property name="meta.media.1.codec.channels">2</property>
  <property name="meta.media.1.codec.name">mp2</property>
  <property name="meta.media.1.codec.long_name">MP2 (MPEG audio layer 2)</property>
  <property name="meta.media.1.codec.bit_rate">128000</property>
  <property name="seekable">1</property>
  <property name="meta.media.sample_aspect_num">427</property>
  <property name="meta.media.sample_aspect_den">480</property>
  <property name="aspect_ratio">0.889583</property>
  <property name="audio_index">1</property>
  <property name="video_index">0</property>
  <property name="mute_on_pause">1</property>
  <property name="mlt_service">avformat</property>
  <property name="meta.media.2.stream.type">audio</property>
  <property name="meta.media.2.codec.sample_fmt">s16</property>
  <property name="meta.media.2.codec.sample_rate">32000</property>
  <property name="meta.media.2.codec.channels">2</property>
  <property name="meta.media.2.codec.name">pcm_s16le</property>
  <property name="meta.media.2.codec.long_name">PCM signed 16-bit little-endian</property>
  <property name="meta.media.2.codec.bit_rate">1024000</property>
  <property name="meta.attr.timecode.markup">00:05:24;10</property>
  <property name="kdenlive:folderid">-1</property>
  <property name="meta.media.frame_rate_num">30000</property>
  <property name="meta.media.frame_rate_den">1001</property>
  <property name="meta.media.colorspace">601</property>
  <property name="meta.media.color_trc">2</property>
  <property name="meta.media.width">640</property>
  <property name="meta.media.height">427</property>
  <property name="kdenlive:file_size">170400000</property>
  <property name="kdenlive:file_hash">5ec4dff6973a4ee74c2c317c96dda4f9</property>
  <property name="kdenlive:proxy">/home/thoth/.cache/kdenlive/proxy/5ec4dff6973a4ee74c2c317c96dda4f9.mpg</property>
  <property name="proxy_out">1419</property>
  <property name="kdenlive:originalurl">2001-07-07-beasty/beasty-003.dv</property>
  <property name="global_feed">1</property>
  <property name="kdenlive:meta.media.nb_streams">3</property>
  <property name="kdenlive:meta.media.0.stream.type">video</property>
  <property name="kdenlive:meta.media.0.stream.frame_rate">29.97</property>
  <property name="kdenlive:meta.media.0.stream.sample_aspect_ratio">0.888889</property>
  <property name="kdenlive:meta.media.0.codec.width">720</property>
  <property name="kdenlive:meta.media.0.codec.height">480</property>
  <property name="kdenlive:meta.media.0.codec.rotate">0</property>
  <property name="kdenlive:meta.media.0.codec.frame_rate">29.97</property>
  <property name="kdenlive:meta.media.0.codec.pix_fmt">yuv411p</property>
  <property name="kdenlive:meta.media.0.codec.sample_aspect_ratio">0.888889</property>
  <property name="kdenlive:meta.media.0.codec.colorspace">601</property>
  <property name="kdenlive:meta.media.0.codec.name">dvvideo</property>
  <property name="kdenlive:meta.media.0.codec.long_name">DV (Digital Video)</property>
  <property name="kdenlive:meta.media.0.codec.bit_rate">25000000</property>
  <property name="kdenlive:meta.media.1.stream.type">audio</property>
  <property name="kdenlive:meta.media.1.codec.sample_fmt">s16</property>
  <property name="kdenlive:meta.media.1.codec.sample_rate">32000</property>
  <property name="kdenlive:meta.media.1.codec.channels">2</property>
  <property name="kdenlive:meta.media.1.codec.name">pcm_s16le</property>
  <property name="kdenlive:meta.media.1.codec.long_name">PCM signed 16-bit little-endian</property>
  <property name="kdenlive:meta.media.1.codec.bit_rate">1024000</property>
  <property name="kdenlive:meta.media.2.stream.type">audio</property>
  <property name="kdenlive:meta.media.2.codec.sample_fmt">s16</property>
  <property name="kdenlive:meta.media.2.codec.sample_rate">32000</property>
  <property name="kdenlive:meta.media.2.codec.channels">2</property>
  <property name="kdenlive:meta.media.2.codec.name">pcm_s16le</property>
  <property name="kdenlive:meta.media.2.codec.long_name">PCM signed 16-bit little-endian</property>
  <property name="kdenlive:meta.media.2.codec.bit_rate">1024000</property>
  <property name="kdenlive:meta.attr.timecode.markup">00:05:24;10</property>
  <property name="kdenlive:meta.media.sample_aspect_num">8</property>
  <property name="kdenlive:meta.media.sample_aspect_den">9</property>
  <property name="kdenlive:meta.media.frame_rate_num">30000</property>
  <property name="kdenlive:meta.media.frame_rate_den">1001</property>
  <property name="kdenlive:meta.media.colorspace">601</property>
  <property name="kdenlive:meta.media.color_trc">2</property>
  <property name="kdenlive:meta.media.width">720</property>
  <property name="kdenlive:meta.media.height">480</property>
  <property name="meta.media.top_field_first">0</property>
  <property name="meta.media.progressive">1</property>
  <property name="kdenlive:zone_in">388</property>
  <property name="kdenlive:zone_out">662</property>
 </producer>
 <producer id="75" title="Anonymous Submission" out="152" in="0">
  <property name="length">00:00:05;03</property>
  <property name="eof">pause</property>
  <property name="resource">/home/thoth/.cache/kdenlive/proxy/4569b7238cb567dafe3402b994a70b7b.mpg</property>
  <property name="meta.media.nb_streams">2</property>
  <property name="meta.media.0.stream.type">video</property>
  <property name="meta.media.0.stream.frame_rate">29.97</property>
  <property name="meta.media.0.stream.sample_aspect_ratio">0</property>
  <property name="meta.media.0.codec.width">640</property>
  <property name="meta.media.0.codec.height">427</property>
  <property name="meta.media.0.codec.rotate">0</property>
  <property name="meta.media.0.codec.frame_rate">29.97</property>
  <property name="meta.media.0.codec.pix_fmt">yuv422p</property>
  <property name="meta.media.0.codec.sample_aspect_ratio">0.889583</property>
  <property name="meta.media.0.codec.colorspace">601</property>
  <property name="meta.media.0.codec.name">mpeg2video</property>
  <property name="meta.media.0.codec.long_name">MPEG-2 video</property>
  <property name="meta.media.0.codec.bit_rate">0</property>
  <property name="meta.media.1.stream.type">audio</property>
  <property name="meta.media.1.codec.sample_fmt">s16p</property>
  <property name="meta.media.1.codec.sample_rate">32000</property>
  <property name="meta.media.1.codec.channels">2</property>
  <property name="meta.media.1.codec.name">mp2</property>
  <property name="meta.media.1.codec.long_name">MP2 (MPEG audio layer 2)</property>
  <property name="meta.media.1.codec.bit_rate">128000</property>
  <property name="seekable">1</property>
  <property name="meta.media.sample_aspect_num">427</property>
  <property name="meta.media.sample_aspect_den">480</property>
  <property name="aspect_ratio">0.889583</property>
  <property name="audio_index">1</property>
  <property name="video_index">0</property>
  <property name="mute_on_pause">1</property>
  <property name="mlt_service">avformat</property>
  <property name="meta.media.2.stream.type">audio</property>
  <property name="meta.media.2.codec.sample_fmt">s16</property>
  <property name="meta.media.2.codec.sample_rate">32000</property>
  <property name="meta.media.2.codec.channels">2</property>
  <property name="meta.media.2.codec.name">pcm_s16le</property>
  <property name="meta.media.2.codec.long_name">PCM signed 16-bit little-endian</property>
  <property name="meta.media.2.codec.bit_rate">1024000</property>
  <property name="meta.attr.timecode.markup">00:00:32;12</property>
  <property name="kdenlive:folderid">-1</property>
  <property name="meta.media.frame_rate_num">30000</property>
  <property name="meta.media.frame_rate_den">1001</property>
  <property name="meta.media.colorspace">601</property>
  <property name="meta.media.color_trc">2</property>
  <property name="meta.media.width">640</property>
  <property name="meta.media.height">427</property>
  <property name="kdenlive:file_size">18360000</property>
  <property name="kdenlive:file_hash">4569b7238cb567dafe3402b994a70b7b</property>
  <property name="kdenlive:proxy">/home/thoth/.cache/kdenlive/proxy/4569b7238cb567dafe3402b994a70b7b.mpg</property>
  <property name="proxy_out">152</property>
  <property name="kdenlive:originalurl">2001-07-07-beasty/tuckumentary-001.dv</property>
  <property name="global_feed">1</property>
  <property name="kdenlive:meta.media.nb_streams">3</property>
  <property name="kdenlive:meta.media.0.stream.type">video</property>
  <property name="kdenlive:meta.media.0.stream.frame_rate">29.97</property>
  <property name="kdenlive:meta.media.0.stream.sample_aspect_ratio">0.888889</property>
  <property name="kdenlive:meta.media.0.codec.width">720</property>
  <property name="kdenlive:meta.media.0.codec.height">480</property>
  <property name="kdenlive:meta.media.0.codec.rotate">0</property>
  <property name="kdenlive:meta.media.0.codec.frame_rate">29.97</property>
  <property name="kdenlive:meta.media.0.codec.pix_fmt">yuv411p</property>
  <property name="kdenlive:meta.media.0.codec.sample_aspect_ratio">0.888889</property>
  <property name="kdenlive:meta.media.0.codec.colorspace">601</property>
  <property name="kdenlive:meta.media.0.codec.name">dvvideo</property>
  <property name="kdenlive:meta.media.0.codec.long_name">DV (Digital Video)</property>
  <property name="kdenlive:meta.media.0.codec.bit_rate">25000000</property>
  <property name="kdenlive:meta.media.1.stream.type">audio</property>
  <property name="kdenlive:meta.media.1.codec.sample_fmt">s16</property>
  <property name="kdenlive:meta.media.1.codec.sample_rate">32000</property>
  <property name="kdenlive:meta.media.1.codec.channels">2</property>
  <property name="kdenlive:meta.media.1.codec.name">pcm_s16le</property>
  <property name="kdenlive:meta.media.1.codec.long_name">PCM signed 16-bit little-endian</property>
  <property name="kdenlive:meta.media.1.codec.bit_rate">1024000</property>
  <property name="kdenlive:meta.media.2.stream.type">audio</property>
  <property name="kdenlive:meta.media.2.codec.sample_fmt">s16</property>
  <property name="kdenlive:meta.media.2.codec.sample_rate">32000</property>
  <property name="kdenlive:meta.media.2.codec.channels">2</property>
  <property name="kdenlive:meta.media.2.codec.name">pcm_s16le</property>
  <property name="kdenlive:meta.media.2.codec.long_name">PCM signed 16-bit little-endian</property>
  <property name="kdenlive:meta.media.2.codec.bit_rate">1024000</property>
  <property name="kdenlive:meta.attr.timecode.markup">00:00:32;12</property>
  <property name="kdenlive:meta.media.sample_aspect_num">8</property>
  <property name="kdenlive:meta.media.sample_aspect_den">9</property>
  <property name="kdenlive:meta.media.frame_rate_num">30000</property>
  <property name="kdenlive:meta.media.frame_rate_den">1001</property>
  <property name="kdenlive:meta.media.colorspace">601</property>
  <property name="kdenlive:meta.media.color_trc">2</property>
  <property name="kdenlive:meta.media.width">720</property>
  <property name="kdenlive:meta.media.height">480</property>
  <property name="meta.media.top_field_first">0</property>
  <property name="meta.media.progressive">1</property>
 </producer>
 <producer id="73" title="Anonymous Submission" out="8725" in="0">
  <property name="length">00:04:51;04</property>
  <property name="eof">pause</property>
  <property name="resource">/home/thoth/.cache/kdenlive/proxy/4969030761c359ccaffb65736929dbf7.mpg</property>
  <property name="meta.media.nb_streams">2</property>
  <property name="meta.media.0.stream.type">video</property>
  <property name="meta.media.0.stream.frame_rate">29.97</property>
  <property name="meta.media.0.stream.sample_aspect_ratio">0</property>
  <property name="meta.media.0.codec.width">640</property>
  <property name="meta.media.0.codec.height">427</property>
  <property name="meta.media.0.codec.rotate">0</property>
  <property name="meta.media.0.codec.frame_rate">29.97</property>
  <property name="meta.media.0.codec.pix_fmt">yuv422p</property>
  <property name="meta.media.0.codec.sample_aspect_ratio">0.889583</property>
  <property name="meta.media.0.codec.colorspace">601</property>
  <property name="meta.media.0.codec.name">mpeg2video</property>
  <property name="meta.media.0.codec.long_name">MPEG-2 video</property>
  <property name="meta.media.0.codec.bit_rate">0</property>
  <property name="meta.media.1.stream.type">audio</property>
  <property name="meta.media.1.codec.sample_fmt">s16p</property>
  <property name="meta.media.1.codec.sample_rate">32000</property>
  <property name="meta.media.1.codec.channels">2</property>
  <property name="meta.media.1.codec.name">mp2</property>
  <property name="meta.media.1.codec.long_name">MP2 (MPEG audio layer 2)</property>
  <property name="meta.media.1.codec.bit_rate">128000</property>
  <property name="seekable">1</property>
  <property name="meta.media.sample_aspect_num">427</property>
  <property name="meta.media.sample_aspect_den">480</property>
  <property name="aspect_ratio">0.889583</property>
  <property name="audio_index">1</property>
  <property name="video_index">0</property>
  <property name="mute_on_pause">1</property>
  <property name="mlt_service">avformat</property>
  <property name="meta.media.2.stream.type">audio</property>
  <property name="meta.media.2.codec.sample_fmt">s16</property>
  <property name="meta.media.2.codec.sample_rate">32000</property>
  <property name="meta.media.2.codec.channels">2</property>
  <property name="meta.media.2.codec.name">pcm_s16le</property>
  <property name="meta.media.2.codec.long_name">PCM signed 16-bit little-endian</property>
  <property name="meta.media.2.codec.bit_rate">1024000</property>
  <property name="meta.attr.timecode.markup">00:00:32;22</property>
  <property name="kdenlive:folderid">-1</property>
  <property name="meta.media.frame_rate_num">30000</property>
  <property name="meta.media.frame_rate_den">1001</property>
  <property name="meta.media.colorspace">601</property>
  <property name="meta.media.color_trc">2</property>
  <property name="meta.media.width">640</property>
  <property name="meta.media.height">427</property>
  <property name="kdenlive:file_size">1048560000</property>
  <property name="kdenlive:file_hash">4969030761c359ccaffb65736929dbf7</property>
  <property name="kdenlive:proxy">/home/thoth/.cache/kdenlive/proxy/4969030761c359ccaffb65736929dbf7.mpg</property>
  <property name="proxy_out">8737</property>
  <property name="kdenlive:originalurl">2001-07-07-beasty/beasty-002.dv</property>
  <property name="global_feed">1</property>
  <property name="kdenlive:meta.media.nb_streams">3</property>
  <property name="kdenlive:meta.media.0.stream.type">video</property>
  <property name="kdenlive:meta.media.0.stream.frame_rate">29.97</property>
  <property name="kdenlive:meta.media.0.stream.sample_aspect_ratio">0.888889</property>
  <property name="kdenlive:meta.media.0.codec.width">720</property>
  <property name="kdenlive:meta.media.0.codec.height">480</property>
  <property name="kdenlive:meta.media.0.codec.rotate">0</property>
  <property name="kdenlive:meta.media.0.codec.frame_rate">29.97</property>
  <property name="kdenlive:meta.media.0.codec.pix_fmt">yuv411p</property>
  <property name="kdenlive:meta.media.0.codec.sample_aspect_ratio">0.888889</property>
  <property name="kdenlive:meta.media.0.codec.colorspace">601</property>
  <property name="kdenlive:meta.media.0.codec.name">dvvideo</property>
  <property name="kdenlive:meta.media.0.codec.long_name">DV (Digital Video)</property>
  <property name="kdenlive:meta.media.0.codec.bit_rate">25000000</property>
  <property name="kdenlive:meta.media.1.stream.type">audio</property>
  <property name="kdenlive:meta.media.1.codec.sample_fmt">s16</property>
  <property name="kdenlive:meta.media.1.codec.sample_rate">32000</property>
  <property name="kdenlive:meta.media.1.codec.channels">2</property>
  <property name="kdenlive:meta.media.1.codec.name">pcm_s16le</property>
  <property name="kdenlive:meta.media.1.codec.long_name">PCM signed 16-bit little-endian</property>
  <property name="kdenlive:meta.media.1.codec.bit_rate">1024000</property>
  <property name="kdenlive:meta.media.2.stream.type">audio</property>
  <property name="kdenlive:meta.media.2.codec.sample_fmt">s16</property>
  <property name="kdenlive:meta.media.2.codec.sample_rate">32000</property>
  <property name="kdenlive:meta.media.2.codec.channels">2</property>
  <property name="kdenlive:meta.media.2.codec.name">pcm_s16le</property>
  <property name="kdenlive:meta.media.2.codec.long_name">PCM signed 16-bit little-endian</property>
  <property name="kdenlive:meta.media.2.codec.bit_rate">1024000</property>
  <property name="kdenlive:meta.attr.timecode.markup">00:00:32;22</property>
  <property name="kdenlive:meta.media.sample_aspect_num">8</property>
  <property name="kdenlive:meta.media.sample_aspect_den">9</property>
  <property name="kdenlive:meta.media.frame_rate_num">30000</property>
  <property name="kdenlive:meta.media.frame_rate_den">1001</property>
  <property name="kdenlive:meta.media.colorspace">601</property>
  <property name="kdenlive:meta.media.color_trc">2</property>
  <property name="kdenlive:meta.media.width">720</property>
  <property name="kdenlive:meta.media.height">480</property>
  <property name="meta.media.top_field_first">0</property>
  <property name="meta.media.progressive">1</property>
 </producer>
 <producer id="77" title="Anonymous Submission" out="945" in="0">
  <property name="length">00:00:31;16</property>
  <property name="eof">pause</property>
  <property name="resource">/home/thoth/.cache/kdenlive/proxy/d6cb0264a8b85b59b6b67b139cc441a3.mpg</property>
  <property name="meta.media.nb_streams">2</property>
  <property name="meta.media.0.stream.type">video</property>
  <property name="meta.media.0.stream.frame_rate">29.97</property>
  <property name="meta.media.0.stream.sample_aspect_ratio">0</property>
  <property name="meta.media.0.codec.width">640</property>
  <property name="meta.media.0.codec.height">427</property>
  <property name="meta.media.0.codec.rotate">0</property>
  <property name="meta.media.0.codec.frame_rate">29.97</property>
  <property name="meta.media.0.codec.pix_fmt">yuv422p</property>
  <property name="meta.media.0.codec.sample_aspect_ratio">0.889583</property>
  <property name="meta.media.0.codec.colorspace">601</property>
  <property name="meta.media.0.codec.name">mpeg2video</property>
  <property name="meta.media.0.codec.long_name">MPEG-2 video</property>
  <property name="meta.media.0.codec.bit_rate">0</property>
  <property name="meta.media.1.stream.type">audio</property>
  <property name="meta.media.1.codec.sample_fmt">s16p</property>
  <property name="meta.media.1.codec.sample_rate">32000</property>
  <property name="meta.media.1.codec.channels">2</property>
  <property name="meta.media.1.codec.name">mp2</property>
  <property name="meta.media.1.codec.long_name">MP2 (MPEG audio layer 2)</property>
  <property name="meta.media.1.codec.bit_rate">128000</property>
  <property name="seekable">1</property>
  <property name="meta.media.sample_aspect_num">427</property>
  <property name="meta.media.sample_aspect_den">480</property>
  <property name="aspect_ratio">0.889583</property>
  <property name="audio_index">1</property>
  <property name="video_index">0</property>
  <property name="mute_on_pause">1</property>
  <property name="mlt_service">avformat</property>
  <property name="meta.media.2.stream.type">audio</property>
  <property name="meta.media.2.codec.sample_fmt">s16</property>
  <property name="meta.media.2.codec.sample_rate">32000</property>
  <property name="meta.media.2.codec.channels">2</property>
  <property name="meta.media.2.codec.name">pcm_s16le</property>
  <property name="meta.media.2.codec.long_name">PCM signed 16-bit little-endian</property>
  <property name="meta.media.2.codec.bit_rate">1024000</property>
  <property name="meta.attr.timecode.markup">00:01:51;19</property>
  <property name="kdenlive:folderid">-1</property>
  <property name="meta.media.frame_rate_num">30000</property>
  <property name="meta.media.frame_rate_den">1001</property>
  <property name="meta.media.colorspace">601</property>
  <property name="meta.media.color_trc">2</property>
  <property name="meta.media.width">640</property>
  <property name="meta.media.height">427</property>
  <property name="kdenlive:file_size">114960000</property>
  <property name="kdenlive:file_hash">d6cb0264a8b85b59b6b67b139cc441a3</property>
  <property name="kdenlive:proxy">/home/thoth/.cache/kdenlive/proxy/d6cb0264a8b85b59b6b67b139cc441a3.mpg</property>
  <property name="proxy_out">957</property>
  <property name="kdenlive:originalurl">2001-07-07-beasty/tuckumentary-003.dv</property>
  <property name="global_feed">1</property>
  <property name="kdenlive:meta.media.nb_streams">3</property>
  <property name="kdenlive:meta.media.0.stream.type">video</property>
  <property name="kdenlive:meta.media.0.stream.frame_rate">29.97</property>
  <property name="kdenlive:meta.media.0.stream.sample_aspect_ratio">0.888889</property>
  <property name="kdenlive:meta.media.0.codec.width">720</property>
  <property name="kdenlive:meta.media.0.codec.height">480</property>
  <property name="kdenlive:meta.media.0.codec.rotate">0</property>
  <property name="kdenlive:meta.media.0.codec.frame_rate">29.97</property>
  <property name="kdenlive:meta.media.0.codec.pix_fmt">yuv411p</property>
  <property name="kdenlive:meta.media.0.codec.sample_aspect_ratio">0.888889</property>
  <property name="kdenlive:meta.media.0.codec.colorspace">601</property>
  <property name="kdenlive:meta.media.0.codec.name">dvvideo</property>
  <property name="kdenlive:meta.media.0.codec.long_name">DV (Digital Video)</property>
  <property name="kdenlive:meta.media.0.codec.bit_rate">25000000</property>
  <property name="kdenlive:meta.media.1.stream.type">audio</property>
  <property name="kdenlive:meta.media.1.codec.sample_fmt">s16</property>
  <property name="kdenlive:meta.media.1.codec.sample_rate">32000</property>
  <property name="kdenlive:meta.media.1.codec.channels">2</property>
  <property name="kdenlive:meta.media.1.codec.name">pcm_s16le</property>
  <property name="kdenlive:meta.media.1.codec.long_name">PCM signed 16-bit little-endian</property>
  <property name="kdenlive:meta.media.1.codec.bit_rate">1024000</property>
  <property name="kdenlive:meta.media.2.stream.type">audio</property>
  <property name="kdenlive:meta.media.2.codec.sample_fmt">s16</property>
  <property name="kdenlive:meta.media.2.codec.sample_rate">32000</property>
  <property name="kdenlive:meta.media.2.codec.channels">2</property>
  <property name="kdenlive:meta.media.2.codec.name">pcm_s16le</property>
  <property name="kdenlive:meta.media.2.codec.long_name">PCM signed 16-bit little-endian</property>
  <property name="kdenlive:meta.media.2.codec.bit_rate">1024000</property>
  <property name="kdenlive:meta.attr.timecode.markup">00:01:51;19</property>
  <property name="kdenlive:meta.media.sample_aspect_num">8</property>
  <property name="kdenlive:meta.media.sample_aspect_den">9</property>
  <property name="kdenlive:meta.media.frame_rate_num">30000</property>
  <property name="kdenlive:meta.media.frame_rate_den">1001</property>
  <property name="kdenlive:meta.media.colorspace">601</property>
  <property name="kdenlive:meta.media.color_trc">2</property>
  <property name="kdenlive:meta.media.width">720</property>
  <property name="kdenlive:meta.media.height">480</property>
  <property name="meta.media.top_field_first">0</property>
  <property name="meta.media.progressive">1</property>
  <property name="kdenlive:zone_in">0</property>
  <property name="kdenlive:zone_out">956</property>
 </producer>
 <producer id="76" title="Anonymous Submission" out="2221" in="0">
  <property name="length">00:01:14;04</property>
  <property name="eof">pause</property>
  <property name="resource">/home/thoth/.cache/kdenlive/proxy/48bae6342363633d26c1db8a4956d734.mpg</property>
  <property name="meta.media.nb_streams">2</property>
  <property name="meta.media.0.stream.type">video</property>
  <property name="meta.media.0.stream.frame_rate">29.97</property>
  <property name="meta.media.0.stream.sample_aspect_ratio">0</property>
  <property name="meta.media.0.codec.width">640</property>
  <property name="meta.media.0.codec.height">427</property>
  <property name="meta.media.0.codec.rotate">0</property>
  <property name="meta.media.0.codec.frame_rate">29.97</property>
  <property name="meta.media.0.codec.pix_fmt">yuv422p</property>
  <property name="meta.media.0.codec.sample_aspect_ratio">0.889583</property>
  <property name="meta.media.0.codec.colorspace">601</property>
  <property name="meta.media.0.codec.name">mpeg2video</property>
  <property name="meta.media.0.codec.long_name">MPEG-2 video</property>
  <property name="meta.media.0.codec.bit_rate">0</property>
  <property name="meta.media.1.stream.type">audio</property>
  <property name="meta.media.1.codec.sample_fmt">s16p</property>
  <property name="meta.media.1.codec.sample_rate">32000</property>
  <property name="meta.media.1.codec.channels">2</property>
  <property name="meta.media.1.codec.name">mp2</property>
  <property name="meta.media.1.codec.long_name">MP2 (MPEG audio layer 2)</property>
  <property name="meta.media.1.codec.bit_rate">128000</property>
  <property name="seekable">1</property>
  <property name="meta.media.sample_aspect_num">427</property>
  <property name="meta.media.sample_aspect_den">480</property>
  <property name="aspect_ratio">0.889583</property>
  <property name="audio_index">1</property>
  <property name="video_index">0</property>
  <property name="mute_on_pause">1</property>
  <property name="mlt_service">avformat</property>
  <property name="meta.media.2.stream.type">audio</property>
  <property name="meta.media.2.codec.sample_fmt">s16</property>
  <property name="meta.media.2.codec.sample_rate">32000</property>
  <property name="meta.media.2.codec.channels">2</property>
  <property name="meta.media.2.codec.name">pcm_s16le</property>
  <property name="meta.media.2.codec.long_name">PCM signed 16-bit little-endian</property>
  <property name="meta.media.2.codec.bit_rate">1024000</property>
  <property name="meta.attr.timecode.markup">00:00:37;15</property>
  <property name="kdenlive:folderid">-1</property>
  <property name="meta.media.frame_rate_num">30000</property>
  <property name="meta.media.frame_rate_den">1001</property>
  <property name="meta.media.colorspace">601</property>
  <property name="meta.media.color_trc">2</property>
  <property name="meta.media.width">640</property>
  <property name="meta.media.height">427</property>
  <property name="kdenlive:file_size">266640000</property>
  <property name="kdenlive:file_hash">48bae6342363633d26c1db8a4956d734</property>
  <property name="kdenlive:proxy">/home/thoth/.cache/kdenlive/proxy/48bae6342363633d26c1db8a4956d734.mpg</property>
  <property name="proxy_out">2221</property>
  <property name="kdenlive:originalurl">2001-07-07-beasty/tuckumentary-002.dv</property>
  <property name="global_feed">1</property>
  <property name="kdenlive:meta.media.nb_streams">3</property>
  <property name="kdenlive:meta.media.0.stream.type">video</property>
  <property name="kdenlive:meta.media.0.stream.frame_rate">29.97</property>
  <property name="kdenlive:meta.media.0.stream.sample_aspect_ratio">0.888889</property>
  <property name="kdenlive:meta.media.0.codec.width">720</property>
  <property name="kdenlive:meta.media.0.codec.height">480</property>
  <property name="kdenlive:meta.media.0.codec.rotate">0</property>
  <property name="kdenlive:meta.media.0.codec.frame_rate">29.97</property>
  <property name="kdenlive:meta.media.0.codec.pix_fmt">yuv411p</property>
  <property name="kdenlive:meta.media.0.codec.sample_aspect_ratio">0.888889</property>
  <property name="kdenlive:meta.media.0.codec.colorspace">601</property>
  <property name="kdenlive:meta.media.0.codec.name">dvvideo</property>
  <property name="kdenlive:meta.media.0.codec.long_name">DV (Digital Video)</property>
  <property name="kdenlive:meta.media.0.codec.bit_rate">25000000</property>
  <property name="kdenlive:meta.media.1.stream.type">audio</property>
  <property name="kdenlive:meta.media.1.codec.sample_fmt">s16</property>
  <property name="kdenlive:meta.media.1.codec.sample_rate">32000</property>
  <property name="kdenlive:meta.media.1.codec.channels">2</property>
  <property name="kdenlive:meta.media.1.codec.name">pcm_s16le</property>
  <property name="kdenlive:meta.media.1.codec.long_name">PCM signed 16-bit little-endian</property>
  <property name="kdenlive:meta.media.1.codec.bit_rate">1024000</property>
  <property name="kdenlive:meta.media.2.stream.type">audio</property>
  <property name="kdenlive:meta.media.2.codec.sample_fmt">s16</property>
  <property name="kdenlive:meta.media.2.codec.sample_rate">32000</property>
  <property name="kdenlive:meta.media.2.codec.channels">2</property>
  <property name="kdenlive:meta.media.2.codec.name">pcm_s16le</property>
  <property name="kdenlive:meta.media.2.codec.long_name">PCM signed 16-bit little-endian</property>
  <property name="kdenlive:meta.media.2.codec.bit_rate">1024000</property>
  <property name="kdenlive:meta.attr.timecode.markup">00:00:37;15</property>
  <property name="kdenlive:meta.media.sample_aspect_num">8</property>
  <property name="kdenlive:meta.media.sample_aspect_den">9</property>
  <property name="kdenlive:meta.media.frame_rate_num">30000</property>
  <property name="kdenlive:meta.media.frame_rate_den">1001</property>
  <property name="kdenlive:meta.media.colorspace">601</property>
  <property name="kdenlive:meta.media.color_trc">2</property>
  <property name="kdenlive:meta.media.width">720</property>
  <property name="kdenlive:meta.media.height">480</property>
  <property name="meta.media.top_field_first">0</property>
  <property name="meta.media.progressive">1</property>
 </producer>
 <producer id="78" title="Anonymous Submission" out="12639" in="0">
  <property name="length">00:07:01;29</property>
  <property name="eof">pause</property>
  <property name="resource">assets/mp3/PeeWee-BigAdventure-Overture_BreakfastMachine.mp3</property>
  <property name="audio_index">0</property>
  <property name="video_index">-1</property>
  <property name="mute_on_pause">1</property>
  <property name="mlt_service">avformat-novalidate</property>
  <property name="meta.media.nb_streams">2</property>
  <property name="meta.media.0.stream.type">audio</property>
  <property name="meta.media.0.codec.sample_fmt">s16p</property>
  <property name="meta.media.0.codec.sample_rate">44100</property>
  <property name="meta.media.0.codec.channels">2</property>
  <property name="meta.media.0.codec.name">mp3</property>
  <property name="meta.media.0.codec.long_name">MP3 (MPEG audio layer 3)</property>
  <property name="meta.media.0.codec.bit_rate">256000</property>
  <property name="meta.media.1.stream.type">video</property>
  <property name="meta.media.1.stream.frame_rate">-nan</property>
  <property name="meta.media.1.stream.sample_aspect_ratio">0</property>
  <property name="meta.media.1.codec.width">600</property>
  <property name="meta.media.1.codec.height">600</property>
  <property name="meta.media.1.codec.rotate">0</property>
  <property name="meta.media.1.codec.frame_rate">90000</property>
  <property name="meta.media.1.codec.pix_fmt">yuvj420p</property>
  <property name="meta.media.1.codec.sample_aspect_ratio">1</property>
  <property name="meta.media.1.codec.colorspace">601</property>
  <property name="meta.media.1.codec.name">mjpeg</property>
  <property name="meta.media.1.codec.long_name">MJPEG (Motion JPEG)</property>
  <property name="meta.media.1.codec.bit_rate">0</property>
  <property name="meta.attr.1.stream.comment.markup">Cover (front)</property>
  <property name="meta.attr.title.markup">Pee Wee's Big Adventure - Overture / Breakfast Machine</property>
  <property name="meta.attr.album.markup">Music For A Darkened Theatre Volume One</property>
  <property name="meta.attr.genre.markup">Rock</property>
  <property name="meta.attr.track.markup">1/17</property>
  <property name="meta.attr.artist.markup">Danny Elfman</property>
  <property name="meta.attr.comment.markup">Amazon.com Song ID: 208884220</property>
  <property name="meta.attr.album_artist.markup">Danny Elfman</property>
  <property name="meta.attr.copyright.markup">(c) 1990 UMG Recordings, Inc.</property>
  <property name="meta.attr.disc.markup">1/1</property>
  <property name="meta.attr.publisher.markup">MCA</property>
  <property name="meta.attr.composer.markup">Danny Elfman</property>
  <property name="meta.attr.date.markup">1990</property>
  <property name="seekable">1</property>
  <property name="meta.media.sample_aspect_num">1</property>
  <property name="meta.media.sample_aspect_den">1</property>
  <property name="aspect_ratio">1</property>
  <property name="kdenlive:folderid">-1</property>
  <property name="kdenlive:file_size">13679024</property>
  <property name="kdenlive:file_hash">55443289560cf256906bc7b3fb792d04</property>
  <property name="global_feed">1</property>
 </producer>
 <playlist id="main bin">
  <property name="kdenlive:docproperties.audiotargettrack">3</property>
  <property name="kdenlive:docproperties.decimalPoint">.</property>
  <property name="kdenlive:docproperties.dirtypreviewchunks"/>
  <property name="kdenlive:docproperties.disablepreview">0</property>
  <property name="kdenlive:docproperties.documentid">1489199479336</property>
  <property name="kdenlive:docproperties.enableproxy">1</property>
  <property name="kdenlive:docproperties.generateimageproxy">1</property>
  <property name="kdenlive:docproperties.generateproxy">1</property>
  <property name="kdenlive:docproperties.kdenliveversion">16.12.3</property>
  <property name="kdenlive:docproperties.position">14804</property>
  <property name="kdenlive:docproperties.previewchunks"/>
  <property name="kdenlive:docproperties.previewextension"/>
  <property name="kdenlive:docproperties.previewparameters"/>
  <property name="kdenlive:docproperties.profile">dv_ntsc</property>
  <property name="kdenlive:docproperties.proxyextension">mpg</property>
  <property name="kdenlive:docproperties.proxyimageminsize">1000</property>
  <property name="kdenlive:docproperties.proxyminsize">500</property>
  <property name="kdenlive:docproperties.proxyparams">-vf scale=640:-1 -g 5 -qscale 6 -ab 128k -vcodec mpeg2video -acodec mp2</property>
  <property name="kdenlive:docproperties.version">0.95</property>
  <property name="kdenlive:docproperties.verticalzoom">1</property>
  <property name="kdenlive:docproperties.videotargettrack">4</property>
  <property name="kdenlive:docproperties.zonein">0</property>
  <property name="kdenlive:docproperties.zoneout">100</property>
  <property name="kdenlive:docproperties.zoom">8</property>
  <property name="kdenlive:documentnotes"/>
  <property name="kdenlive:clipgroups"/>
  <property name="kdenlive:docproperties.renderaudioquality">4</property>
  <property name="kdenlive:docproperties.rendercategory">Lossless/HQ</property>
  <property name="kdenlive:docproperties.renderendguide">-1</property>
  <property name="kdenlive:docproperties.renderexportaudio">0</property>
  <property name="kdenlive:docproperties.renderguide">0</property>
  <property name="kdenlive:docproperties.renderplay">0</property>
  <property name="kdenlive:docproperties.renderprofile">H.264 (libx264+aac)</property>
  <property name="kdenlive:docproperties.renderquality">15</property>
  <property name="kdenlive:docproperties.renderratio">1</property>
  <property name="kdenlive:docproperties.renderrescale">1</property>
  <property name="kdenlive:docproperties.renderrescaleheight">480</property>
  <property name="kdenlive:docproperties.renderrescalewidth">720</property>
  <property name="kdenlive:docproperties.renderscanning">0</property>
  <property name="kdenlive:docproperties.renderspeed">1</property>
  <property name="kdenlive:docproperties.renderstartguide">-1</property>
  <property name="kdenlive:docproperties.rendertcoverlay">0</property>
  <property name="kdenlive:docproperties.rendertctype">0</property>
  <property name="kdenlive:docproperties.rendertwopass">0</property>
  <property name="kdenlive:docproperties.renderurl">/tmp/beasty.mp4</property>
  <property name="kdenlive:docproperties.renderzone">0</property>
  <property name="xml_retain">1</property>
  <entry out="110" producer="1" in="0"/>
  <entry out="110" producer="2" in="0"/>
  <entry out="268" producer="3" in="0"/>
  <entry out="1468" producer="4" in="0"/>
  <entry out="724" producer="5" in="0"/>
  <entry out="1764" producer="6" in="0"/>
  <entry out="776" producer="7" in="0"/>
  <entry out="183" producer="9" in="0"/>
  <entry out="1016" producer="8" in="0"/>
  <entry out="362" producer="11" in="0"/>
  <entry out="143" producer="12" in="0"/>
  <entry out="1640" producer="10" in="0"/>
  <entry out="317" producer="13" in="0"/>
  <entry out="944" producer="14" in="0"/>
  <entry out="605" producer="15" in="0"/>
  <entry out="630" producer="16" in="0"/>
  <entry out="259" producer="18" in="0"/>
  <entry out="864" producer="17" in="0"/>
  <entry out="331" producer="19" in="0"/>
  <entry out="351" producer="20" in="0"/>
  <entry out="428" producer="21" in="0"/>
  <entry out="273" producer="22" in="0"/>
  <entry out="412" producer="23" in="0"/>
  <entry out="185" producer="25" in="0"/>
  <entry out="649" producer="24" in="0"/>
  <entry out="163" producer="26" in="0"/>
  <entry out="263" producer="28" in="0"/>
  <entry out="665" producer="27" in="0"/>
  <entry out="577" producer="29" in="0"/>
  <entry out="668" producer="30" in="0"/>
  <entry out="743" producer="31" in="0"/>
  <entry out="268" producer="33" in="0"/>
  <entry out="300" producer="34" in="0"/>
  <entry out="2128" producer="32" in="0"/>
  <entry out="429" producer="35" in="0"/>
  <entry out="432" producer="36" in="0"/>
  <entry out="813" producer="38" in="0"/>
  <entry out="312" producer="39" in="0"/>
  <entry out="3019" producer="37" in="0"/>
  <entry out="429" producer="41" in="0"/>
  <entry out="1034" producer="40" in="0"/>
  <entry out="301" producer="43" in="0"/>
  <entry out="34" producer="44" in="0"/>
  <entry out="803" producer="42" in="0"/>
  <entry out="442" producer="45" in="0"/>
  <entry out="509" producer="46" in="0"/>
  <entry out="768" producer="47" in="0"/>
  <entry out="636" producer="48" in="0"/>
  <entry out="292" producer="49" in="0"/>
  <entry out="177" producer="51" in="0"/>
  <entry out="213" producer="52" in="0"/>
  <entry out="632" producer="50" in="0"/>
  <entry out="74" producer="53" in="0"/>
  <entry out="46" producer="54" in="0"/>
  <entry out="70" producer="55" in="0"/>
  <entry out="560" producer="56" in="0"/>
  <entry out="666" producer="57" in="0"/>
  <entry out="798" producer="58" in="0"/>
  <entry out="847" producer="59" in="0"/>
  <entry out="863" producer="60" in="0"/>
  <entry out="849" producer="61" in="0"/>
  <entry out="79" producer="63" in="0"/>
  <entry out="244" producer="64" in="0"/>
  <entry out="673" producer="62" in="0"/>
  <entry out="282" producer="65" in="0"/>
  <entry out="111" producer="67" in="0"/>
  <entry out="579" producer="66" in="0"/>
  <entry out="622" producer="68" in="0"/>
  <entry out="814" producer="69" in="0"/>
  <entry out="1488" producer="70" in="0"/>
  <entry out="1077" producer="71" in="0"/>
  <entry out="8725" producer="72" in="0"/>
  <entry out="1407" producer="74" in="0"/>
  <entry out="152" producer="75" in="0"/>
  <entry out="8725" producer="73" in="0"/>
  <entry out="945" producer="77" in="0"/>
  <entry out="2221" producer="76" in="0"/>
  <entry out="12639" producer="78" in="0"/>
 </playlist>
 <producer id="black" out="24200" in="0">
  <property name="length">24201</property>
  <property name="eof">pause</property>
  <property name="resource">black</property>
  <property name="aspect_ratio">0</property>
  <property name="mlt_service">colour</property>
  <property name="set.test_audio">0</property>
 </producer>
 <playlist id="black_track">
  <entry out="14804" producer="black" in="0"/>
 </playlist>
 <producer id="78_playlist0" title="Anonymous Submission" out="12639" in="0">
  <property name="length">00:07:01;24</property>
  <property name="eof">pause</property>
  <property name="resource">assets/mp3/PeeWee-BigAdventure-Overture_BreakfastMachine.mp3</property>
  <property name="audio_index">0</property>
  <property name="video_index">-1</property>
  <property name="mute_on_pause">1</property>
  <property name="mlt_service">avformat-novalidate</property>
  <property name="seekable">1</property>
  <property name="aspect_ratio">1</property>
  <property name="kdenlive:folderid">-1</property>
  <property name="kdenlive:file_size">13679024</property>
  <property name="kdenlive:file_hash">55443289560cf256906bc7b3fb792d04</property>
  <property name="global_feed">1</property>
  <property name="xml">was here</property>
  <property name="meta.media.nb_streams">2</property>
  <property name="meta.media.0.stream.type">audio</property>
  <property name="meta.media.0.codec.sample_fmt">s16p</property>
  <property name="meta.media.0.codec.sample_rate">44100</property>
  <property name="meta.media.0.codec.channels">2</property>
  <property name="meta.media.0.codec.name">mp3</property>
  <property name="meta.media.0.codec.long_name">MP3 (MPEG audio layer 3)</property>
  <property name="meta.media.0.codec.bit_rate">256000</property>
  <property name="meta.media.1.stream.type">video</property>
  <property name="meta.media.1.stream.frame_rate">-nan</property>
  <property name="meta.media.1.stream.sample_aspect_ratio">0</property>
  <property name="meta.media.1.codec.width">600</property>
  <property name="meta.media.1.codec.height">600</property>
  <property name="meta.media.1.codec.rotate">0</property>
  <property name="meta.media.1.codec.frame_rate">90000</property>
  <property name="meta.media.1.codec.pix_fmt">yuvj420p</property>
  <property name="meta.media.1.codec.sample_aspect_ratio">1</property>
  <property name="meta.media.1.codec.colorspace">601</property>
  <property name="meta.media.1.codec.name">mjpeg</property>
  <property name="meta.media.1.codec.long_name">MJPEG (Motion JPEG)</property>
  <property name="meta.media.1.codec.bit_rate">0</property>
  <property name="meta.attr.1.stream.comment.markup">Cover (front)</property>
  <property name="meta.attr.title.markup">Pee Wee's Big Adventure - Overture / Breakfast Machine</property>
  <property name="meta.attr.album.markup">Music For A Darkened Theatre Volume One</property>
  <property name="meta.attr.genre.markup">Rock</property>
  <property name="meta.attr.track.markup">1/17</property>
  <property name="meta.attr.artist.markup">Danny Elfman</property>
  <property name="meta.attr.comment.markup">Amazon.com Song ID: 208884220</property>
  <property name="meta.attr.album_artist.markup">Danny Elfman</property>
  <property name="meta.attr.copyright.markup">(c) 1990 UMG Recordings, Inc.</property>
  <property name="meta.attr.disc.markup">1/1</property>
  <property name="meta.attr.publisher.markup">MCA</property>
  <property name="meta.attr.composer.markup">Danny Elfman</property>
  <property name="meta.attr.date.markup">1990</property>
  <property name="meta.media.sample_aspect_num">1</property>
  <property name="meta.media.sample_aspect_den">1</property>
 </producer>
 <playlist id="playlist0">
  <property name="kdenlive:track_name">PeeWee</property>
  <property name="kdenlive:audio_track">1</property>
  <property name="kdenlive:locked_track">0</property>
  <blank length="1547"/>
  <entry out="12639" producer="78_playlist0" in="0"/>
 </playlist>
 <producer id="4_playlist1_audio" title="Anonymous Submission" out="1473" in="0">
  <property name="length">00:00:49;05</property>
  <property name="eof">pause</property>
  <property name="resource">/home/thoth/.cache/kdenlive/proxy/fbe1cb59785942873aa839eeaa42d487.mpg</property>
  <property name="meta.media.nb_streams">2</property>
  <property name="meta.media.0.stream.type">video</property>
  <property name="meta.media.0.stream.frame_rate">29.97</property>
  <property name="meta.media.0.stream.sample_aspect_ratio">0</property>
  <property name="meta.media.0.codec.width">640</property>
  <property name="meta.media.0.codec.height">427</property>
  <property name="meta.media.0.codec.rotate">0</property>
  <property name="meta.media.0.codec.frame_rate">29.97</property>
  <property name="meta.media.0.codec.pix_fmt">yuv422p</property>
  <property name="meta.media.0.codec.sample_aspect_ratio">0.889583</property>
  <property name="meta.media.0.codec.colorspace">601</property>
  <property name="meta.media.0.codec.name">mpeg2video</property>
  <property name="meta.media.0.codec.long_name">MPEG-2 video</property>
  <property name="meta.media.0.codec.bit_rate">0</property>
  <property name="meta.media.1.stream.type">audio</property>
  <property name="meta.media.1.codec.sample_fmt">s16p</property>
  <property name="meta.media.1.codec.sample_rate">32000</property>
  <property name="meta.media.1.codec.channels">2</property>
  <property name="meta.media.1.codec.name">mp2</property>
  <property name="meta.media.1.codec.long_name">MP2 (MPEG audio layer 2)</property>
  <property name="meta.media.1.codec.bit_rate">128000</property>
  <property name="seekable">1</property>
  <property name="meta.media.sample_aspect_num">427</property>
  <property name="meta.media.sample_aspect_den">480</property>
  <property name="aspect_ratio">0.889583</property>
  <property name="audio_index">1</property>
  <property name="video_index">-1</property>
  <property name="mute_on_pause">1</property>
  <property name="mlt_service">avformat</property>
  <property name="kdenlive:folderid">-1</property>
  <property name="kdenlive:file_size">177720000</property>
  <property name="kdenlive:file_hash">fbe1cb59785942873aa839eeaa42d487</property>
  <property name="kdenlive:proxy">/home/thoth/.cache/kdenlive/proxy/fbe1cb59785942873aa839eeaa42d487.mpg</property>
  <property name="proxy_out">1480</property>
  <property name="kdenlive:originalurl">2001-07-07-beasty/beastiality-003.dv</property>
  <property name="global_feed">1</property>
  <property name="kdenlive:meta.media.nb_streams">3</property>
  <property name="kdenlive:meta.media.0.stream.type">video</property>
  <property name="kdenlive:meta.media.0.stream.frame_rate">29.97</property>
  <property name="kdenlive:meta.media.0.stream.sample_aspect_ratio">0.888889</property>
  <property name="kdenlive:meta.media.0.codec.width">720</property>
  <property name="kdenlive:meta.media.0.codec.height">480</property>
  <property name="kdenlive:meta.media.0.codec.rotate">0</property>
  <property name="kdenlive:meta.media.0.codec.frame_rate">29.97</property>
  <property name="kdenlive:meta.media.0.codec.pix_fmt">yuv411p</property>
  <property name="kdenlive:meta.media.0.codec.sample_aspect_ratio">0.888889</property>
  <property name="kdenlive:meta.media.0.codec.colorspace">601</property>
  <property name="kdenlive:meta.media.0.codec.name">dvvideo</property>
  <property name="kdenlive:meta.media.0.codec.long_name">DV (Digital Video)</property>
  <property name="kdenlive:meta.media.0.codec.bit_rate">25000000</property>
  <property name="kdenlive:meta.media.1.stream.type">audio</property>
  <property name="kdenlive:meta.media.1.codec.sample_fmt">s16</property>
  <property name="kdenlive:meta.media.1.codec.sample_rate">32000</property>
  <property name="kdenlive:meta.media.1.codec.channels">2</property>
  <property name="kdenlive:meta.media.1.codec.name">pcm_s16le</property>
  <property name="kdenlive:meta.media.1.codec.long_name">PCM signed 16-bit little-endian</property>
  <property name="kdenlive:meta.media.1.codec.bit_rate">1024000</property>
  <property name="kdenlive:meta.media.2.stream.type">audio</property>
  <property name="kdenlive:meta.media.2.codec.sample_fmt">s16</property>
  <property name="kdenlive:meta.media.2.codec.sample_rate">32000</property>
  <property name="kdenlive:meta.media.2.codec.channels">2</property>
  <property name="kdenlive:meta.media.2.codec.name">pcm_s16le</property>
  <property name="kdenlive:meta.media.2.codec.long_name">PCM signed 16-bit little-endian</property>
  <property name="kdenlive:meta.media.2.codec.bit_rate">1024000</property>
  <property name="kdenlive:meta.attr.timecode.markup">00:02:17;26</property>
  <property name="kdenlive:meta.media.sample_aspect_num">8</property>
  <property name="kdenlive:meta.media.sample_aspect_den">9</property>
  <property name="kdenlive:meta.media.frame_rate_num">30000</property>
  <property name="kdenlive:meta.media.frame_rate_den">1001</property>
  <property name="kdenlive:meta.media.colorspace">601</property>
  <property name="kdenlive:meta.media.color_trc">2</property>
  <property name="kdenlive:meta.media.width">720</property>
  <property name="kdenlive:meta.media.height">480</property>
  <property name="kdenlive:zone_in">156</property>
  <property name="kdenlive:zone_out">333</property>
  <property name="xml">was here</property>
 </producer>
 <producer id="74_playlist1_audio" title="Anonymous Submission" out="1412" in="0">
  <property name="length">00:00:47;04</property>
  <property name="eof">pause</property>
  <property name="resource">/home/thoth/.cache/kdenlive/proxy/5ec4dff6973a4ee74c2c317c96dda4f9.mpg</property>
  <property name="meta.media.nb_streams">2</property>
  <property name="meta.media.0.stream.type">video</property>
  <property name="meta.media.0.stream.frame_rate">29.97</property>
  <property name="meta.media.0.stream.sample_aspect_ratio">0</property>
  <property name="meta.media.0.codec.width">640</property>
  <property name="meta.media.0.codec.height">427</property>
  <property name="meta.media.0.codec.rotate">0</property>
  <property name="meta.media.0.codec.frame_rate">29.97</property>
  <property name="meta.media.0.codec.pix_fmt">yuv422p</property>
  <property name="meta.media.0.codec.sample_aspect_ratio">0.889583</property>
  <property name="meta.media.0.codec.colorspace">601</property>
  <property name="meta.media.0.codec.name">mpeg2video</property>
  <property name="meta.media.0.codec.long_name">MPEG-2 video</property>
  <property name="meta.media.0.codec.bit_rate">0</property>
  <property name="meta.media.1.stream.type">audio</property>
  <property name="meta.media.1.codec.sample_fmt">s16p</property>
  <property name="meta.media.1.codec.sample_rate">32000</property>
  <property name="meta.media.1.codec.channels">2</property>
  <property name="meta.media.1.codec.name">mp2</property>
  <property name="meta.media.1.codec.long_name">MP2 (MPEG audio layer 2)</property>
  <property name="meta.media.1.codec.bit_rate">128000</property>
  <property name="seekable">1</property>
  <property name="meta.media.sample_aspect_num">427</property>
  <property name="meta.media.sample_aspect_den">480</property>
  <property name="aspect_ratio">0.889583</property>
  <property name="audio_index">1</property>
  <property name="video_index">-1</property>
  <property name="mute_on_pause">1</property>
  <property name="mlt_service">avformat</property>
  <property name="kdenlive:folderid">-1</property>
  <property name="kdenlive:file_size">170400000</property>
  <property name="kdenlive:file_hash">5ec4dff6973a4ee74c2c317c96dda4f9</property>
  <property name="kdenlive:proxy">/home/thoth/.cache/kdenlive/proxy/5ec4dff6973a4ee74c2c317c96dda4f9.mpg</property>
  <property name="proxy_out">1419</property>
  <property name="kdenlive:originalurl">2001-07-07-beasty/beasty-003.dv</property>
  <property name="global_feed">1</property>
  <property name="kdenlive:meta.media.nb_streams">3</property>
  <property name="kdenlive:meta.media.0.stream.type">video</property>
  <property name="kdenlive:meta.media.0.stream.frame_rate">29.97</property>
  <property name="kdenlive:meta.media.0.stream.sample_aspect_ratio">0.888889</property>
  <property name="kdenlive:meta.media.0.codec.width">720</property>
  <property name="kdenlive:meta.media.0.codec.height">480</property>
  <property name="kdenlive:meta.media.0.codec.rotate">0</property>
  <property name="kdenlive:meta.media.0.codec.frame_rate">29.97</property>
  <property name="kdenlive:meta.media.0.codec.pix_fmt">yuv411p</property>
  <property name="kdenlive:meta.media.0.codec.sample_aspect_ratio">0.888889</property>
  <property name="kdenlive:meta.media.0.codec.colorspace">601</property>
  <property name="kdenlive:meta.media.0.codec.name">dvvideo</property>
  <property name="kdenlive:meta.media.0.codec.long_name">DV (Digital Video)</property>
  <property name="kdenlive:meta.media.0.codec.bit_rate">25000000</property>
  <property name="kdenlive:meta.media.1.stream.type">audio</property>
  <property name="kdenlive:meta.media.1.codec.sample_fmt">s16</property>
  <property name="kdenlive:meta.media.1.codec.sample_rate">32000</property>
  <property name="kdenlive:meta.media.1.codec.channels">2</property>
  <property name="kdenlive:meta.media.1.codec.name">pcm_s16le</property>
  <property name="kdenlive:meta.media.1.codec.long_name">PCM signed 16-bit little-endian</property>
  <property name="kdenlive:meta.media.1.codec.bit_rate">1024000</property>
  <property name="kdenlive:meta.media.2.stream.type">audio</property>
  <property name="kdenlive:meta.media.2.codec.sample_fmt">s16</property>
  <property name="kdenlive:meta.media.2.codec.sample_rate">32000</property>
  <property name="kdenlive:meta.media.2.codec.channels">2</property>
  <property name="kdenlive:meta.media.2.codec.name">pcm_s16le</property>
  <property name="kdenlive:meta.media.2.codec.long_name">PCM signed 16-bit little-endian</property>
  <property name="kdenlive:meta.media.2.codec.bit_rate">1024000</property>
  <property name="kdenlive:meta.attr.timecode.markup">00:05:24;10</property>
  <property name="kdenlive:meta.media.sample_aspect_num">8</property>
  <property name="kdenlive:meta.media.sample_aspect_den">9</property>
  <property name="kdenlive:meta.media.frame_rate_num">30000</property>
  <property name="kdenlive:meta.media.frame_rate_den">1001</property>
  <property name="kdenlive:meta.media.colorspace">601</property>
  <property name="kdenlive:meta.media.color_trc">2</property>
  <property name="kdenlive:meta.media.width">720</property>
  <property name="kdenlive:meta.media.height">480</property>
  <property name="kdenlive:zone_in">388</property>
  <property name="kdenlive:zone_out">662</property>
  <property name="xml">was here</property>
 </producer>
 <producer id="7_playlist1_audio" title="Anonymous Submission" out="785" in="0">
  <property name="length">00:00:26;07</property>
  <property name="eof">pause</property>
  <property name="resource">/home/thoth/.cache/kdenlive/proxy/90c831858206b068606f47cae5e0bfe8.mpg</property>
  <property name="meta.media.nb_streams">2</property>
  <property name="meta.media.0.stream.type">video</property>
  <property name="meta.media.0.stream.frame_rate">29.97</property>
  <property name="meta.media.0.stream.sample_aspect_ratio">0</property>
  <property name="meta.media.0.codec.width">640</property>
  <property name="meta.media.0.codec.height">427</property>
  <property name="meta.media.0.codec.rotate">0</property>
  <property name="meta.media.0.codec.frame_rate">29.97</property>
  <property name="meta.media.0.codec.pix_fmt">yuv422p</property>
  <property name="meta.media.0.codec.sample_aspect_ratio">0.889583</property>
  <property name="meta.media.0.codec.colorspace">601</property>
  <property name="meta.media.0.codec.name">mpeg2video</property>
  <property name="meta.media.0.codec.long_name">MPEG-2 video</property>
  <property name="meta.media.0.codec.bit_rate">0</property>
  <property name="meta.media.1.stream.type">audio</property>
  <property name="meta.media.1.codec.sample_fmt">s16p</property>
  <property name="meta.media.1.codec.sample_rate">32000</property>
  <property name="meta.media.1.codec.channels">2</property>
  <property name="meta.media.1.codec.name">mp2</property>
  <property name="meta.media.1.codec.long_name">MP2 (MPEG audio layer 2)</property>
  <property name="meta.media.1.codec.bit_rate">128000</property>
  <property name="seekable">1</property>
  <property name="meta.media.sample_aspect_num">427</property>
  <property name="meta.media.sample_aspect_den">480</property>
  <property name="aspect_ratio">0.889583</property>
  <property name="audio_index">1</property>
  <property name="video_index">-1</property>
  <property name="mute_on_pause">1</property>
  <property name="mlt_service">avformat</property>
  <property name="kdenlive:folderid">-1</property>
  <property name="kdenlive:file_size">94680000</property>
  <property name="kdenlive:file_hash">90c831858206b068606f47cae5e0bfe8</property>
  <property name="kdenlive:proxy">/home/thoth/.cache/kdenlive/proxy/90c831858206b068606f47cae5e0bfe8.mpg</property>
  <property name="proxy_out">788</property>
  <property name="kdenlive:originalurl">2001-07-07-beasty/beastiality-006.dv</property>
  <property name="global_feed">1</property>
  <property name="kdenlive:meta.media.nb_streams">3</property>
  <property name="kdenlive:meta.media.0.stream.type">video</property>
  <property name="kdenlive:meta.media.0.stream.frame_rate">29.97</property>
  <property name="kdenlive:meta.media.0.stream.sample_aspect_ratio">0.888889</property>
  <property name="kdenlive:meta.media.0.codec.width">720</property>
  <property name="kdenlive:meta.media.0.codec.height">480</property>
  <property name="kdenlive:meta.media.0.codec.rotate">0</property>
  <property name="kdenlive:meta.media.0.codec.frame_rate">29.97</property>
  <property name="kdenlive:meta.media.0.codec.pix_fmt">yuv411p</property>
  <property name="kdenlive:meta.media.0.codec.sample_aspect_ratio">0.888889</property>
  <property name="kdenlive:meta.media.0.codec.colorspace">601</property>
  <property name="kdenlive:meta.media.0.codec.name">dvvideo</property>
  <property name="kdenlive:meta.media.0.codec.long_name">DV (Digital Video)</property>
  <property name="kdenlive:meta.media.0.codec.bit_rate">25000000</property>
  <property name="kdenlive:meta.media.1.stream.type">audio</property>
  <property name="kdenlive:meta.media.1.codec.sample_fmt">s16</property>
  <property name="kdenlive:meta.media.1.codec.sample_rate">32000</property>
  <property name="kdenlive:meta.media.1.codec.channels">2</property>
  <property name="kdenlive:meta.media.1.codec.name">pcm_s16le</property>
  <property name="kdenlive:meta.media.1.codec.long_name">PCM signed 16-bit little-endian</property>
  <property name="kdenlive:meta.media.1.codec.bit_rate">1024000</property>
  <property name="kdenlive:meta.media.2.stream.type">audio</property>
  <property name="kdenlive:meta.media.2.codec.sample_fmt">s16</property>
  <property name="kdenlive:meta.media.2.codec.sample_rate">32000</property>
  <property name="kdenlive:meta.media.2.codec.channels">2</property>
  <property name="kdenlive:meta.media.2.codec.name">pcm_s16le</property>
  <property name="kdenlive:meta.media.2.codec.long_name">PCM signed 16-bit little-endian</property>
  <property name="kdenlive:meta.media.2.codec.bit_rate">1024000</property>
  <property name="kdenlive:meta.attr.timecode.markup">00:04:31;17</property>
  <property name="kdenlive:meta.media.sample_aspect_num">8</property>
  <property name="kdenlive:meta.media.sample_aspect_den">9</property>
  <property name="kdenlive:meta.media.frame_rate_num">30000</property>
  <property name="kdenlive:meta.media.frame_rate_den">1001</property>
  <property name="kdenlive:meta.media.colorspace">601</property>
  <property name="kdenlive:meta.media.color_trc">2</property>
  <property name="kdenlive:meta.media.width">720</property>
  <property name="kdenlive:meta.media.height">480</property>
  <property name="kdenlive:zone_in">0</property>
  <property name="kdenlive:zone_out">246</property>
  <property name="xml">was here</property>
 </producer>
 <producer id="41_playlist1_audio" title="Anonymous Submission" out="429" in="0">
  <property name="length">00:00:14;10</property>
  <property name="eof">pause</property>
  <property name="resource">/home/thoth/.cache/kdenlive/proxy/9395827deea820ec3ef2dd6672ed5cf7.mpg</property>
  <property name="meta.media.nb_streams">2</property>
  <property name="meta.media.0.stream.type">video</property>
  <property name="meta.media.0.stream.frame_rate">29.97</property>
  <property name="meta.media.0.stream.sample_aspect_ratio">0</property>
  <property name="meta.media.0.codec.width">640</property>
  <property name="meta.media.0.codec.height">427</property>
  <property name="meta.media.0.codec.rotate">0</property>
  <property name="meta.media.0.codec.frame_rate">29.97</property>
  <property name="meta.media.0.codec.pix_fmt">yuv422p</property>
  <property name="meta.media.0.codec.sample_aspect_ratio">0.889583</property>
  <property name="meta.media.0.codec.colorspace">601</property>
  <property name="meta.media.0.codec.name">mpeg2video</property>
  <property name="meta.media.0.codec.long_name">MPEG-2 video</property>
  <property name="meta.media.0.codec.bit_rate">0</property>
  <property name="meta.media.1.stream.type">audio</property>
  <property name="meta.media.1.codec.sample_fmt">s16p</property>
  <property name="meta.media.1.codec.sample_rate">32000</property>
  <property name="meta.media.1.codec.channels">2</property>
  <property name="meta.media.1.codec.name">mp2</property>
  <property name="meta.media.1.codec.long_name">MP2 (MPEG audio layer 2)</property>
  <property name="meta.media.1.codec.bit_rate">128000</property>
  <property name="seekable">1</property>
  <property name="meta.media.sample_aspect_num">427</property>
  <property name="meta.media.sample_aspect_den">480</property>
  <property name="aspect_ratio">0.889583</property>
  <property name="audio_index">1</property>
  <property name="video_index">-1</property>
  <property name="mute_on_pause">1</property>
  <property name="mlt_service">avformat</property>
  <property name="kdenlive:folderid">-1</property>
  <property name="kdenlive:file_size">51600000</property>
  <property name="kdenlive:file_hash">9395827deea820ec3ef2dd6672ed5cf7</property>
  <property name="kdenlive:proxy">/home/thoth/.cache/kdenlive/proxy/9395827deea820ec3ef2dd6672ed5cf7.mpg</property>
  <property name="proxy_out">429</property>
  <property name="kdenlive:originalurl">2001-07-07-beasty/beastiality-024.dv</property>
  <property name="global_feed">1</property>
  <property name="kdenlive:meta.media.nb_streams">3</property>
  <property name="kdenlive:meta.media.0.stream.type">video</property>
  <property name="kdenlive:meta.media.0.stream.frame_rate">29.97</property>
  <property name="kdenlive:meta.media.0.stream.sample_aspect_ratio">0.888889</property>
  <property name="kdenlive:meta.media.0.codec.width">720</property>
  <property name="kdenlive:meta.media.0.codec.height">480</property>
  <property name="kdenlive:meta.media.0.codec.rotate">0</property>
  <property name="kdenlive:meta.media.0.codec.frame_rate">29.97</property>
  <property name="kdenlive:meta.media.0.codec.pix_fmt">yuv411p</property>
  <property name="kdenlive:meta.media.0.codec.sample_aspect_ratio">0.888889</property>
  <property name="kdenlive:meta.media.0.codec.colorspace">601</property>
  <property name="kdenlive:meta.media.0.codec.name">dvvideo</property>
  <property name="kdenlive:meta.media.0.codec.long_name">DV (Digital Video)</property>
  <property name="kdenlive:meta.media.0.codec.bit_rate">25000000</property>
  <property name="kdenlive:meta.media.1.stream.type">audio</property>
  <property name="kdenlive:meta.media.1.codec.sample_fmt">s16</property>
  <property name="kdenlive:meta.media.1.codec.sample_rate">32000</property>
  <property name="kdenlive:meta.media.1.codec.channels">2</property>
  <property name="kdenlive:meta.media.1.codec.name">pcm_s16le</property>
  <property name="kdenlive:meta.media.1.codec.long_name">PCM signed 16-bit little-endian</property>
  <property name="kdenlive:meta.media.1.codec.bit_rate">1024000</property>
  <property name="kdenlive:meta.media.2.stream.type">audio</property>
  <property name="kdenlive:meta.media.2.codec.sample_fmt">s16</property>
  <property name="kdenlive:meta.media.2.codec.sample_rate">32000</property>
  <property name="kdenlive:meta.media.2.codec.channels">2</property>
  <property name="kdenlive:meta.media.2.codec.name">pcm_s16le</property>
  <property name="kdenlive:meta.media.2.codec.long_name">PCM signed 16-bit little-endian</property>
  <property name="kdenlive:meta.media.2.codec.bit_rate">1024000</property>
  <property name="kdenlive:meta.attr.timecode.markup">00:02:00;04</property>
  <property name="kdenlive:meta.media.sample_aspect_num">8</property>
  <property name="kdenlive:meta.media.sample_aspect_den">9</property>
  <property name="kdenlive:meta.media.frame_rate_num">30000</property>
  <property name="kdenlive:meta.media.frame_rate_den">1001</property>
  <property name="kdenlive:meta.media.colorspace">601</property>
  <property name="kdenlive:meta.media.color_trc">2</property>
  <property name="kdenlive:meta.media.width">720</property>
  <property name="kdenlive:meta.media.height">480</property>
  <property name="kdenlive:zone_in">57</property>
  <property name="kdenlive:zone_out">372</property>
  <property name="xml">was here</property>
 </producer>
 <producer id="45_playlist1_audio" title="Anonymous Submission" out="442" in="0">
  <property name="length">00:00:14;23</property>
  <property name="eof">pause</property>
  <property name="resource">/home/thoth/.cache/kdenlive/proxy/0fb1dcd5f30cf447750e82eb13b5c67f.mpg</property>
  <property name="meta.media.nb_streams">2</property>
  <property name="meta.media.0.stream.type">video</property>
  <property name="meta.media.0.stream.frame_rate">29.97</property>
  <property name="meta.media.0.stream.sample_aspect_ratio">0</property>
  <property name="meta.media.0.codec.width">640</property>
  <property name="meta.media.0.codec.height">427</property>
  <property name="meta.media.0.codec.rotate">0</property>
  <property name="meta.media.0.codec.frame_rate">29.97</property>
  <property name="meta.media.0.codec.pix_fmt">yuv422p</property>
  <property name="meta.media.0.codec.sample_aspect_ratio">0.889583</property>
  <property name="meta.media.0.codec.colorspace">601</property>
  <property name="meta.media.0.codec.name">mpeg2video</property>
  <property name="meta.media.0.codec.long_name">MPEG-2 video</property>
  <property name="meta.media.0.codec.bit_rate">0</property>
  <property name="meta.media.1.stream.type">audio</property>
  <property name="meta.media.1.codec.sample_fmt">s16p</property>
  <property name="meta.media.1.codec.sample_rate">32000</property>
  <property name="meta.media.1.codec.channels">2</property>
  <property name="meta.media.1.codec.name">mp2</property>
  <property name="meta.media.1.codec.long_name">MP2 (MPEG audio layer 2)</property>
  <property name="meta.media.1.codec.bit_rate">128000</property>
  <property name="seekable">1</property>
  <property name="meta.media.sample_aspect_num">427</property>
  <property name="meta.media.sample_aspect_den">480</property>
  <property name="aspect_ratio">0.889583</property>
  <property name="audio_index">1</property>
  <property name="video_index">-1</property>
  <property name="mute_on_pause">1</property>
  <property name="mlt_service">avformat</property>
  <property name="kdenlive:folderid">-1</property>
  <property name="kdenlive:file_size">53160000</property>
  <property name="kdenlive:file_hash">0fb1dcd5f30cf447750e82eb13b5c67f</property>
  <property name="kdenlive:proxy">/home/thoth/.cache/kdenlive/proxy/0fb1dcd5f30cf447750e82eb13b5c67f.mpg</property>
  <property name="proxy_out">442</property>
  <property name="kdenlive:originalurl">2001-07-07-beasty/beastiality-028.dv</property>
  <property name="global_feed">1</property>
  <property name="kdenlive:meta.media.nb_streams">3</property>
  <property name="kdenlive:meta.media.0.stream.type">video</property>
  <property name="kdenlive:meta.media.0.stream.frame_rate">29.97</property>
  <property name="kdenlive:meta.media.0.stream.sample_aspect_ratio">0.888889</property>
  <property name="kdenlive:meta.media.0.codec.width">720</property>
  <property name="kdenlive:meta.media.0.codec.height">480</property>
  <property name="kdenlive:meta.media.0.codec.rotate">0</property>
  <property name="kdenlive:meta.media.0.codec.frame_rate">29.97</property>
  <property name="kdenlive:meta.media.0.codec.pix_fmt">yuv411p</property>
  <property name="kdenlive:meta.media.0.codec.sample_aspect_ratio">0.888889</property>
  <property name="kdenlive:meta.media.0.codec.colorspace">601</property>
  <property name="kdenlive:meta.media.0.codec.name">dvvideo</property>
  <property name="kdenlive:meta.media.0.codec.long_name">DV (Digital Video)</property>
  <property name="kdenlive:meta.media.0.codec.bit_rate">25000000</property>
  <property name="kdenlive:meta.media.1.stream.type">audio</property>
  <property name="kdenlive:meta.media.1.codec.sample_fmt">s16</property>
  <property name="kdenlive:meta.media.1.codec.sample_rate">32000</property>
  <property name="kdenlive:meta.media.1.codec.channels">2</property>
  <property name="kdenlive:meta.media.1.codec.name">pcm_s16le</property>
  <property name="kdenlive:meta.media.1.codec.long_name">PCM signed 16-bit little-endian</property>
  <property name="kdenlive:meta.media.1.codec.bit_rate">1024000</property>
  <property name="kdenlive:meta.media.2.stream.type">audio</property>
  <property name="kdenlive:meta.media.2.codec.sample_fmt">s16</property>
  <property name="kdenlive:meta.media.2.codec.sample_rate">32000</property>
  <property name="kdenlive:meta.media.2.codec.channels">2</property>
  <property name="kdenlive:meta.media.2.codec.name">pcm_s16le</property>
  <property name="kdenlive:meta.media.2.codec.long_name">PCM signed 16-bit little-endian</property>
  <property name="kdenlive:meta.media.2.codec.bit_rate">1024000</property>
  <property name="kdenlive:meta.attr.timecode.markup">00:02:52;27</property>
  <property name="kdenlive:meta.media.sample_aspect_num">8</property>
  <property name="kdenlive:meta.media.sample_aspect_den">9</property>
  <property name="kdenlive:meta.media.frame_rate_num">30000</property>
  <property name="kdenlive:meta.media.frame_rate_den">1001</property>
  <property name="kdenlive:meta.media.colorspace">601</property>
  <property name="kdenlive:meta.media.color_trc">2</property>
  <property name="kdenlive:meta.media.width">720</property>
  <property name="kdenlive:meta.media.height">480</property>
  <property name="kdenlive:zone_in">0</property>
  <property name="kdenlive:zone_out">442</property>
  <property name="xml">was here</property>
 </producer>
 <producer id="46_playlist1_audio" title="Anonymous Submission" out="517" in="0">
  <property name="length">00:00:17;09</property>
  <property name="eof">pause</property>
  <property name="resource">/home/thoth/.cache/kdenlive/proxy/ee1e5305a973b6add458f27de7e7a0a8.mpg</property>
  <property name="meta.media.nb_streams">2</property>
  <property name="meta.media.0.stream.type">video</property>
  <property name="meta.media.0.stream.frame_rate">29.97</property>
  <property name="meta.media.0.stream.sample_aspect_ratio">0</property>
  <property name="meta.media.0.codec.width">640</property>
  <property name="meta.media.0.codec.height">427</property>
  <property name="meta.media.0.codec.rotate">0</property>
  <property name="meta.media.0.codec.frame_rate">29.97</property>
  <property name="meta.media.0.codec.pix_fmt">yuv422p</property>
  <property name="meta.media.0.codec.sample_aspect_ratio">0.889583</property>
  <property name="meta.media.0.codec.colorspace">601</property>
  <property name="meta.media.0.codec.name">mpeg2video</property>
  <property name="meta.media.0.codec.long_name">MPEG-2 video</property>
  <property name="meta.media.0.codec.bit_rate">0</property>
  <property name="meta.media.1.stream.type">audio</property>
  <property name="meta.media.1.codec.sample_fmt">s16p</property>
  <property name="meta.media.1.codec.sample_rate">32000</property>
  <property name="meta.media.1.codec.channels">2</property>
  <property name="meta.media.1.codec.name">mp2</property>
  <property name="meta.media.1.codec.long_name">MP2 (MPEG audio layer 2)</property>
  <property name="meta.media.1.codec.bit_rate">128000</property>
  <property name="seekable">1</property>
  <property name="meta.media.sample_aspect_num">427</property>
  <property name="meta.media.sample_aspect_den">480</property>
  <property name="aspect_ratio">0.889583</property>
  <property name="audio_index">1</property>
  <property name="video_index">-1</property>
  <property name="mute_on_pause">1</property>
  <property name="mlt_service">avformat</property>
  <property name="kdenlive:folderid">-1</property>
  <property name="kdenlive:file_size">62640000</property>
  <property name="kdenlive:file_hash">ee1e5305a973b6add458f27de7e7a0a8</property>
  <property name="kdenlive:proxy">/home/thoth/.cache/kdenlive/proxy/ee1e5305a973b6add458f27de7e7a0a8.mpg</property>
  <property name="proxy_out">521</property>
  <property name="kdenlive:originalurl">2001-07-07-beasty/beastiality-029.dv</property>
  <property name="global_feed">1</property>
  <property name="kdenlive:meta.media.nb_streams">3</property>
  <property name="kdenlive:meta.media.0.stream.type">video</property>
  <property name="kdenlive:meta.media.0.stream.frame_rate">29.97</property>
  <property name="kdenlive:meta.media.0.stream.sample_aspect_ratio">0.888889</property>
  <property name="kdenlive:meta.media.0.codec.width">720</property>
  <property name="kdenlive:meta.media.0.codec.height">480</property>
  <property name="kdenlive:meta.media.0.codec.rotate">0</property>
  <property name="kdenlive:meta.media.0.codec.frame_rate">29.97</property>
  <property name="kdenlive:meta.media.0.codec.pix_fmt">yuv411p</property>
  <property name="kdenlive:meta.media.0.codec.sample_aspect_ratio">0.888889</property>
  <property name="kdenlive:meta.media.0.codec.colorspace">601</property>
  <property name="kdenlive:meta.media.0.codec.name">dvvideo</property>
  <property name="kdenlive:meta.media.0.codec.long_name">DV (Digital Video)</property>
  <property name="kdenlive:meta.media.0.codec.bit_rate">25000000</property>
  <property name="kdenlive:meta.media.1.stream.type">audio</property>
  <property name="kdenlive:meta.media.1.codec.sample_fmt">s16</property>
  <property name="kdenlive:meta.media.1.codec.sample_rate">32000</property>
  <property name="kdenlive:meta.media.1.codec.channels">2</property>
  <property name="kdenlive:meta.media.1.codec.name">pcm_s16le</property>
  <property name="kdenlive:meta.media.1.codec.long_name">PCM signed 16-bit little-endian</property>
  <property name="kdenlive:meta.media.1.codec.bit_rate">1024000</property>
  <property name="kdenlive:meta.media.2.stream.type">audio</property>
  <property name="kdenlive:meta.media.2.codec.sample_fmt">s16</property>
  <property name="kdenlive:meta.media.2.codec.sample_rate">32000</property>
  <property name="kdenlive:meta.media.2.codec.channels">2</property>
  <property name="kdenlive:meta.media.2.codec.name">pcm_s16le</property>
  <property name="kdenlive:meta.media.2.codec.long_name">PCM signed 16-bit little-endian</property>
  <property name="kdenlive:meta.media.2.codec.bit_rate">1024000</property>
  <property name="kdenlive:meta.attr.timecode.markup">00:03:07;22</property>
  <property name="kdenlive:meta.media.sample_aspect_num">8</property>
  <property name="kdenlive:meta.media.sample_aspect_den">9</property>
  <property name="kdenlive:meta.media.frame_rate_num">30000</property>
  <property name="kdenlive:meta.media.frame_rate_den">1001</property>
  <property name="kdenlive:meta.media.colorspace">601</property>
  <property name="kdenlive:meta.media.color_trc">2</property>
  <property name="kdenlive:meta.media.width">720</property>
  <property name="kdenlive:meta.media.height">480</property>
  <property name="kdenlive:zone_in">140</property>
  <property name="kdenlive:zone_out">371</property>
  <property name="xml">was here</property>
 </producer>
 <producer id="47_playlist1_audio" title="Anonymous Submission" out="773" in="0">
  <property name="length">00:00:25;25</property>
  <property name="eof">pause</property>
  <property name="resource">/home/thoth/.cache/kdenlive/proxy/98e1356d30b63915a1e12420c11b21e2.mpg</property>
  <property name="meta.media.nb_streams">2</property>
  <property name="meta.media.0.stream.type">video</property>
  <property name="meta.media.0.stream.frame_rate">29.97</property>
  <property name="meta.media.0.stream.sample_aspect_ratio">0</property>
  <property name="meta.media.0.codec.width">640</property>
  <property name="meta.media.0.codec.height">427</property>
  <property name="meta.media.0.codec.rotate">0</property>
  <property name="meta.media.0.codec.frame_rate">29.97</property>
  <property name="meta.media.0.codec.pix_fmt">yuv422p</property>
  <property name="meta.media.0.codec.sample_aspect_ratio">0.889583</property>
  <property name="meta.media.0.codec.colorspace">601</property>
  <property name="meta.media.0.codec.name">mpeg2video</property>
  <property name="meta.media.0.codec.long_name">MPEG-2 video</property>
  <property name="meta.media.0.codec.bit_rate">0</property>
  <property name="meta.media.1.stream.type">audio</property>
  <property name="meta.media.1.codec.sample_fmt">s16p</property>
  <property name="meta.media.1.codec.sample_rate">32000</property>
  <property name="meta.media.1.codec.channels">2</property>
  <property name="meta.media.1.codec.name">mp2</property>
  <property name="meta.media.1.codec.long_name">MP2 (MPEG audio layer 2)</property>
  <property name="meta.media.1.codec.bit_rate">128000</property>
  <property name="seekable">1</property>
  <property name="meta.media.sample_aspect_num">427</property>
  <property name="meta.media.sample_aspect_den">480</property>
  <property name="aspect_ratio">0.889583</property>
  <property name="audio_index">1</property>
  <property name="video_index">-1</property>
  <property name="mute_on_pause">1</property>
  <property name="mlt_service">avformat</property>
  <property name="kdenlive:folderid">-1</property>
  <property name="kdenlive:file_size">93720000</property>
  <property name="kdenlive:file_hash">98e1356d30b63915a1e12420c11b21e2</property>
  <property name="kdenlive:proxy">/home/thoth/.cache/kdenlive/proxy/98e1356d30b63915a1e12420c11b21e2.mpg</property>
  <property name="proxy_out">780</property>
  <property name="kdenlive:originalurl">2001-07-07-beasty/beastiality-030.dv</property>
  <property name="global_feed">1</property>
  <property name="kdenlive:meta.media.nb_streams">3</property>
  <property name="kdenlive:meta.media.0.stream.type">video</property>
  <property name="kdenlive:meta.media.0.stream.frame_rate">29.97</property>
  <property name="kdenlive:meta.media.0.stream.sample_aspect_ratio">0.888889</property>
  <property name="kdenlive:meta.media.0.codec.width">720</property>
  <property name="kdenlive:meta.media.0.codec.height">480</property>
  <property name="kdenlive:meta.media.0.codec.rotate">0</property>
  <property name="kdenlive:meta.media.0.codec.frame_rate">29.97</property>
  <property name="kdenlive:meta.media.0.codec.pix_fmt">yuv411p</property>
  <property name="kdenlive:meta.media.0.codec.sample_aspect_ratio">0.888889</property>
  <property name="kdenlive:meta.media.0.codec.colorspace">601</property>
  <property name="kdenlive:meta.media.0.codec.name">dvvideo</property>
  <property name="kdenlive:meta.media.0.codec.long_name">DV (Digital Video)</property>
  <property name="kdenlive:meta.media.0.codec.bit_rate">25000000</property>
  <property name="kdenlive:meta.media.1.stream.type">audio</property>
  <property name="kdenlive:meta.media.1.codec.sample_fmt">s16</property>
  <property name="kdenlive:meta.media.1.codec.sample_rate">32000</property>
  <property name="kdenlive:meta.media.1.codec.channels">2</property>
  <property name="kdenlive:meta.media.1.codec.name">pcm_s16le</property>
  <property name="kdenlive:meta.media.1.codec.long_name">PCM signed 16-bit little-endian</property>
  <property name="kdenlive:meta.media.1.codec.bit_rate">1024000</property>
  <property name="kdenlive:meta.media.2.stream.type">audio</property>
  <property name="kdenlive:meta.media.2.codec.sample_fmt">s16</property>
  <property name="kdenlive:meta.media.2.codec.sample_rate">32000</property>
  <property name="kdenlive:meta.media.2.codec.channels">2</property>
  <property name="kdenlive:meta.media.2.codec.name">pcm_s16le</property>
  <property name="kdenlive:meta.media.2.codec.long_name">PCM signed 16-bit little-endian</property>
  <property name="kdenlive:meta.media.2.codec.bit_rate">1024000</property>
  <property name="kdenlive:meta.media.sample_aspect_num">8</property>
  <property name="kdenlive:meta.media.sample_aspect_den">9</property>
  <property name="kdenlive:meta.media.frame_rate_num">30000</property>
  <property name="kdenlive:meta.media.frame_rate_den">1001</property>
  <property name="kdenlive:meta.media.colorspace">601</property>
  <property name="kdenlive:meta.media.color_trc">2</property>
  <property name="kdenlive:meta.media.width">720</property>
  <property name="kdenlive:meta.media.height">480</property>
  <property name="kdenlive:zone_in">54</property>
  <property name="kdenlive:zone_out">722</property>
  <property name="xml">was here</property>
 </producer>
 <producer id="49_playlist1_audio" title="Anonymous Submission" out="292" in="0">
  <property name="length">00:00:09;23</property>
  <property name="eof">pause</property>
  <property name="resource">/home/thoth/.cache/kdenlive/proxy/1b381b7ecf3b51629d2c06a8870a04a4.mpg</property>
  <property name="meta.media.nb_streams">2</property>
  <property name="meta.media.0.stream.type">video</property>
  <property name="meta.media.0.stream.frame_rate">29.97</property>
  <property name="meta.media.0.stream.sample_aspect_ratio">0</property>
  <property name="meta.media.0.codec.width">640</property>
  <property name="meta.media.0.codec.height">427</property>
  <property name="meta.media.0.codec.rotate">0</property>
  <property name="meta.media.0.codec.frame_rate">29.97</property>
  <property name="meta.media.0.codec.pix_fmt">yuv422p</property>
  <property name="meta.media.0.codec.sample_aspect_ratio">0.889583</property>
  <property name="meta.media.0.codec.colorspace">601</property>
  <property name="meta.media.0.codec.name">mpeg2video</property>
  <property name="meta.media.0.codec.long_name">MPEG-2 video</property>
  <property name="meta.media.0.codec.bit_rate">0</property>
  <property name="meta.media.1.stream.type">audio</property>
  <property name="meta.media.1.codec.sample_fmt">s16p</property>
  <property name="meta.media.1.codec.sample_rate">32000</property>
  <property name="meta.media.1.codec.channels">2</property>
  <property name="meta.media.1.codec.name">mp2</property>
  <property name="meta.media.1.codec.long_name">MP2 (MPEG audio layer 2)</property>
  <property name="meta.media.1.codec.bit_rate">128000</property>
  <property name="seekable">1</property>
  <property name="meta.media.sample_aspect_num">427</property>
  <property name="meta.media.sample_aspect_den">480</property>
  <property name="aspect_ratio">0.889583</property>
  <property name="audio_index">1</property>
  <property name="video_index">-1</property>
  <property name="mute_on_pause">1</property>
  <property name="mlt_service">avformat</property>
  <property name="kdenlive:folderid">-1</property>
  <property name="kdenlive:file_size">35160000</property>
  <property name="kdenlive:file_hash">1b381b7ecf3b51629d2c06a8870a04a4</property>
  <property name="kdenlive:proxy">/home/thoth/.cache/kdenlive/proxy/1b381b7ecf3b51629d2c06a8870a04a4.mpg</property>
  <property name="proxy_out">292</property>
  <property name="kdenlive:originalurl">2001-07-07-beasty/beastiality-040.dv</property>
  <property name="global_feed">1</property>
  <property name="kdenlive:meta.media.nb_streams">3</property>
  <property name="kdenlive:meta.media.0.stream.type">video</property>
  <property name="kdenlive:meta.media.0.stream.frame_rate">29.97</property>
  <property name="kdenlive:meta.media.0.stream.sample_aspect_ratio">0.888889</property>
  <property name="kdenlive:meta.media.0.codec.width">720</property>
  <property name="kdenlive:meta.media.0.codec.height">480</property>
  <property name="kdenlive:meta.media.0.codec.rotate">0</property>
  <property name="kdenlive:meta.media.0.codec.frame_rate">29.97</property>
  <property name="kdenlive:meta.media.0.codec.pix_fmt">yuv411p</property>
  <property name="kdenlive:meta.media.0.codec.sample_aspect_ratio">0.888889</property>
  <property name="kdenlive:meta.media.0.codec.colorspace">601</property>
  <property name="kdenlive:meta.media.0.codec.name">dvvideo</property>
  <property name="kdenlive:meta.media.0.codec.long_name">DV (Digital Video)</property>
  <property name="kdenlive:meta.media.0.codec.bit_rate">25000000</property>
  <property name="kdenlive:meta.media.1.stream.type">audio</property>
  <property name="kdenlive:meta.media.1.codec.sample_fmt">s16</property>
  <property name="kdenlive:meta.media.1.codec.sample_rate">32000</property>
  <property name="kdenlive:meta.media.1.codec.channels">2</property>
  <property name="kdenlive:meta.media.1.codec.name">pcm_s16le</property>
  <property name="kdenlive:meta.media.1.codec.long_name">PCM signed 16-bit little-endian</property>
  <property name="kdenlive:meta.media.1.codec.bit_rate">1024000</property>
  <property name="kdenlive:meta.media.2.stream.type">audio</property>
  <property name="kdenlive:meta.media.2.codec.sample_fmt">s16</property>
  <property name="kdenlive:meta.media.2.codec.sample_rate">32000</property>
  <property name="kdenlive:meta.media.2.codec.channels">2</property>
  <property name="kdenlive:meta.media.2.codec.name">pcm_s16le</property>
  <property name="kdenlive:meta.media.2.codec.long_name">PCM signed 16-bit little-endian</property>
  <property name="kdenlive:meta.media.2.codec.bit_rate">1024000</property>
  <property name="kdenlive:meta.attr.timecode.markup">00:01:33;29</property>
  <property name="kdenlive:meta.media.sample_aspect_num">8</property>
  <property name="kdenlive:meta.media.sample_aspect_den">9</property>
  <property name="kdenlive:meta.media.frame_rate_num">30000</property>
  <property name="kdenlive:meta.media.frame_rate_den">1001</property>
  <property name="kdenlive:meta.media.colorspace">601</property>
  <property name="kdenlive:meta.media.color_trc">2</property>
  <property name="kdenlive:meta.media.width">720</property>
  <property name="kdenlive:meta.media.height">480</property>
  <property name="kdenlive:zone_in">36</property>
  <property name="kdenlive:zone_out">79</property>
  <property name="xml">was here</property>
 </producer>
 <producer id="29_playlist1_audio" title="Anonymous Submission" out="582" in="0">
  <property name="length">00:00:19;14</property>
  <property name="eof">pause</property>
  <property name="resource">/home/thoth/.cache/kdenlive/proxy/2daef063f3bd965be0dc9dab9225975a.mpg</property>
  <property name="meta.media.nb_streams">2</property>
  <property name="meta.media.0.stream.type">video</property>
  <property name="meta.media.0.stream.frame_rate">29.97</property>
  <property name="meta.media.0.stream.sample_aspect_ratio">0</property>
  <property name="meta.media.0.codec.width">640</property>
  <property name="meta.media.0.codec.height">427</property>
  <property name="meta.media.0.codec.rotate">0</property>
  <property name="meta.media.0.codec.frame_rate">29.97</property>
  <property name="meta.media.0.codec.pix_fmt">yuv422p</property>
  <property name="meta.media.0.codec.sample_aspect_ratio">0.889583</property>
  <property name="meta.media.0.codec.colorspace">601</property>
  <property name="meta.media.0.codec.name">mpeg2video</property>
  <property name="meta.media.0.codec.long_name">MPEG-2 video</property>
  <property name="meta.media.0.codec.bit_rate">0</property>
  <property name="meta.media.1.stream.type">audio</property>
  <property name="meta.media.1.codec.sample_fmt">s16p</property>
  <property name="meta.media.1.codec.sample_rate">32000</property>
  <property name="meta.media.1.codec.channels">2</property>
  <property name="meta.media.1.codec.name">mp2</property>
  <property name="meta.media.1.codec.long_name">MP2 (MPEG audio layer 2)</property>
  <property name="meta.media.1.codec.bit_rate">128000</property>
  <property name="seekable">1</property>
  <property name="meta.media.sample_aspect_num">427</property>
  <property name="meta.media.sample_aspect_den">480</property>
  <property name="aspect_ratio">0.889583</property>
  <property name="audio_index">1</property>
  <property name="video_index">-1</property>
  <property name="mute_on_pause">1</property>
  <property name="mlt_service">avformat</property>
  <property name="kdenlive:folderid">-1</property>
  <property name="kdenlive:file_size">70800000</property>
  <property name="kdenlive:file_hash">2daef063f3bd965be0dc9dab9225975a</property>
  <property name="kdenlive:proxy">/home/thoth/.cache/kdenlive/proxy/2daef063f3bd965be0dc9dab9225975a.mpg</property>
  <property name="proxy_out">589</property>
  <property name="kdenlive:originalurl">2001-07-07-beasty/beastiality-046.dv</property>
  <property name="global_feed">1</property>
  <property name="kdenlive:meta.media.nb_streams">3</property>
  <property name="kdenlive:meta.media.0.stream.type">video</property>
  <property name="kdenlive:meta.media.0.stream.frame_rate">29.97</property>
  <property name="kdenlive:meta.media.0.stream.sample_aspect_ratio">0.888889</property>
  <property name="kdenlive:meta.media.0.codec.width">720</property>
  <property name="kdenlive:meta.media.0.codec.height">480</property>
  <property name="kdenlive:meta.media.0.codec.rotate">0</property>
  <property name="kdenlive:meta.media.0.codec.frame_rate">29.97</property>
  <property name="kdenlive:meta.media.0.codec.pix_fmt">yuv411p</property>
  <property name="kdenlive:meta.media.0.codec.sample_aspect_ratio">0.888889</property>
  <property name="kdenlive:meta.media.0.codec.colorspace">601</property>
  <property name="kdenlive:meta.media.0.codec.name">dvvideo</property>
  <property name="kdenlive:meta.media.0.codec.long_name">DV (Digital Video)</property>
  <property name="kdenlive:meta.media.0.codec.bit_rate">25000000</property>
  <property name="kdenlive:meta.media.1.stream.type">audio</property>
  <property name="kdenlive:meta.media.1.codec.sample_fmt">s16</property>
  <property name="kdenlive:meta.media.1.codec.sample_rate">32000</property>
  <property name="kdenlive:meta.media.1.codec.channels">2</property>
  <property name="kdenlive:meta.media.1.codec.name">pcm_s16le</property>
  <property name="kdenlive:meta.media.1.codec.long_name">PCM signed 16-bit little-endian</property>
  <property name="kdenlive:meta.media.1.codec.bit_rate">1024000</property>
  <property name="kdenlive:meta.media.2.stream.type">audio</property>
  <property name="kdenlive:meta.media.2.codec.sample_fmt">s16</property>
  <property name="kdenlive:meta.media.2.codec.sample_rate">32000</property>
  <property name="kdenlive:meta.media.2.codec.channels">2</property>
  <property name="kdenlive:meta.media.2.codec.name">pcm_s16le</property>
  <property name="kdenlive:meta.media.2.codec.long_name">PCM signed 16-bit little-endian</property>
  <property name="kdenlive:meta.media.2.codec.bit_rate">1024000</property>
  <property name="kdenlive:meta.attr.timecode.markup">00:00:07;19</property>
  <property name="kdenlive:meta.media.sample_aspect_num">8</property>
  <property name="kdenlive:meta.media.sample_aspect_den">9</property>
  <property name="kdenlive:meta.media.frame_rate_num">30000</property>
  <property name="kdenlive:meta.media.frame_rate_den">1001</property>
  <property name="kdenlive:meta.media.colorspace">601</property>
  <property name="kdenlive:meta.media.color_trc">2</property>
  <property name="kdenlive:meta.media.width">720</property>
  <property name="kdenlive:meta.media.height">480</property>
  <property name="kdenlive:zone_in">115</property>
  <property name="kdenlive:zone_out">496</property>
  <property name="xml">was here</property>
 </producer>
 <producer id="32_playlist1_audio" title="Anonymous Submission" out="2128" in="0">
  <property name="length">00:01:11;01</property>
  <property name="eof">pause</property>
  <property name="resource">/home/thoth/.cache/kdenlive/proxy/ea2e46e63f0ea7d0afc0b309d587f5f3.mpg</property>
  <property name="meta.media.nb_streams">2</property>
  <property name="meta.media.0.stream.type">video</property>
  <property name="meta.media.0.stream.frame_rate">29.97</property>
  <property name="meta.media.0.stream.sample_aspect_ratio">0</property>
  <property name="meta.media.0.codec.width">640</property>
  <property name="meta.media.0.codec.height">427</property>
  <property name="meta.media.0.codec.rotate">0</property>
  <property name="meta.media.0.codec.frame_rate">29.97</property>
  <property name="meta.media.0.codec.pix_fmt">yuv422p</property>
  <property name="meta.media.0.codec.sample_aspect_ratio">0.889583</property>
  <property name="meta.media.0.codec.colorspace">601</property>
  <property name="meta.media.0.codec.name">mpeg2video</property>
  <property name="meta.media.0.codec.long_name">MPEG-2 video</property>
  <property name="meta.media.0.codec.bit_rate">0</property>
  <property name="meta.media.1.stream.type">audio</property>
  <property name="meta.media.1.codec.sample_fmt">s16p</property>
  <property name="meta.media.1.codec.sample_rate">32000</property>
  <property name="meta.media.1.codec.channels">2</property>
  <property name="meta.media.1.codec.name">mp2</property>
  <property name="meta.media.1.codec.long_name">MP2 (MPEG audio layer 2)</property>
  <property name="meta.media.1.codec.bit_rate">128000</property>
  <property name="seekable">1</property>
  <property name="meta.media.sample_aspect_num">427</property>
  <property name="meta.media.sample_aspect_den">480</property>
  <property name="aspect_ratio">0.889583</property>
  <property name="audio_index">1</property>
  <property name="video_index">-1</property>
  <property name="mute_on_pause">1</property>
  <property name="mlt_service">avformat</property>
  <property name="kdenlive:folderid">-1</property>
  <property name="kdenlive:file_size">255480000</property>
  <property name="kdenlive:file_hash">ea2e46e63f0ea7d0afc0b309d587f5f3</property>
  <property name="kdenlive:proxy">/home/thoth/.cache/kdenlive/proxy/ea2e46e63f0ea7d0afc0b309d587f5f3.mpg</property>
  <property name="proxy_out">2128</property>
  <property name="kdenlive:originalurl">2001-07-07-beasty/beastiality-049.dv</property>
  <property name="global_feed">1</property>
  <property name="kdenlive:meta.media.nb_streams">3</property>
  <property name="kdenlive:meta.media.0.stream.type">video</property>
  <property name="kdenlive:meta.media.0.stream.frame_rate">29.97</property>
  <property name="kdenlive:meta.media.0.stream.sample_aspect_ratio">0.888889</property>
  <property name="kdenlive:meta.media.0.codec.width">720</property>
  <property name="kdenlive:meta.media.0.codec.height">480</property>
  <property name="kdenlive:meta.media.0.codec.rotate">0</property>
  <property name="kdenlive:meta.media.0.codec.frame_rate">29.97</property>
  <property name="kdenlive:meta.media.0.codec.pix_fmt">yuv411p</property>
  <property name="kdenlive:meta.media.0.codec.sample_aspect_ratio">0.888889</property>
  <property name="kdenlive:meta.media.0.codec.colorspace">601</property>
  <property name="kdenlive:meta.media.0.codec.name">dvvideo</property>
  <property name="kdenlive:meta.media.0.codec.long_name">DV (Digital Video)</property>
  <property name="kdenlive:meta.media.0.codec.bit_rate">25000000</property>
  <property name="kdenlive:meta.media.1.stream.type">audio</property>
  <property name="kdenlive:meta.media.1.codec.sample_fmt">s16</property>
  <property name="kdenlive:meta.media.1.codec.sample_rate">32000</property>
  <property name="kdenlive:meta.media.1.codec.channels">2</property>
  <property name="kdenlive:meta.media.1.codec.name">pcm_s16le</property>
  <property name="kdenlive:meta.media.1.codec.long_name">PCM signed 16-bit little-endian</property>
  <property name="kdenlive:meta.media.1.codec.bit_rate">1024000</property>
  <property name="kdenlive:meta.media.2.stream.type">audio</property>
  <property name="kdenlive:meta.media.2.codec.sample_fmt">s16</property>
  <property name="kdenlive:meta.media.2.codec.sample_rate">32000</property>
  <property name="kdenlive:meta.media.2.codec.channels">2</property>
  <property name="kdenlive:meta.media.2.codec.name">pcm_s16le</property>
  <property name="kdenlive:meta.media.2.codec.long_name">PCM signed 16-bit little-endian</property>
  <property name="kdenlive:meta.media.2.codec.bit_rate">1024000</property>
  <property name="kdenlive:meta.attr.timecode.markup">00:01:15;08</property>
  <property name="kdenlive:meta.media.sample_aspect_num">8</property>
  <property name="kdenlive:meta.media.sample_aspect_den">9</property>
  <property name="kdenlive:meta.media.frame_rate_num">30000</property>
  <property name="kdenlive:meta.media.frame_rate_den">1001</property>
  <property name="kdenlive:meta.media.colorspace">601</property>
  <property name="kdenlive:meta.media.color_trc">2</property>
  <property name="kdenlive:meta.media.width">720</property>
  <property name="kdenlive:meta.media.height">480</property>
  <property name="kdenlive:zone_in">334</property>
  <property name="kdenlive:zone_out">2126</property>
  <property name="xml">was here</property>
 </producer>
 <producer id="52_playlist1_audio" title="Anonymous Submission" out="213" in="0">
  <property name="length">00:00:07;04</property>
  <property name="eof">pause</property>
  <property name="resource">/home/thoth/.cache/kdenlive/proxy/215d0e2b3e77daa336ba2228f1f67e6a.mpg</property>
  <property name="meta.media.nb_streams">2</property>
  <property name="meta.media.0.stream.type">video</property>
  <property name="meta.media.0.stream.frame_rate">29.97</property>
  <property name="meta.media.0.stream.sample_aspect_ratio">0</property>
  <property name="meta.media.0.codec.width">640</property>
  <property name="meta.media.0.codec.height">427</property>
  <property name="meta.media.0.codec.rotate">0</property>
  <property name="meta.media.0.codec.frame_rate">29.97</property>
  <property name="meta.media.0.codec.pix_fmt">yuv422p</property>
  <property name="meta.media.0.codec.sample_aspect_ratio">0.889583</property>
  <property name="meta.media.0.codec.colorspace">601</property>
  <property name="meta.media.0.codec.name">mpeg2video</property>
  <property name="meta.media.0.codec.long_name">MPEG-2 video</property>
  <property name="meta.media.0.codec.bit_rate">0</property>
  <property name="meta.media.1.stream.type">audio</property>
  <property name="meta.media.1.codec.sample_fmt">s16p</property>
  <property name="meta.media.1.codec.sample_rate">32000</property>
  <property name="meta.media.1.codec.channels">2</property>
  <property name="meta.media.1.codec.name">mp2</property>
  <property name="meta.media.1.codec.long_name">MP2 (MPEG audio layer 2)</property>
  <property name="meta.media.1.codec.bit_rate">128000</property>
  <property name="seekable">1</property>
  <property name="meta.media.sample_aspect_num">427</property>
  <property name="meta.media.sample_aspect_den">480</property>
  <property name="aspect_ratio">0.889583</property>
  <property name="audio_index">1</property>
  <property name="video_index">-1</property>
  <property name="mute_on_pause">1</property>
  <property name="mlt_service">avformat</property>
  <property name="kdenlive:folderid">-1</property>
  <property name="kdenlive:file_size">25680000</property>
  <property name="kdenlive:file_hash">215d0e2b3e77daa336ba2228f1f67e6a</property>
  <property name="kdenlive:proxy">/home/thoth/.cache/kdenlive/proxy/215d0e2b3e77daa336ba2228f1f67e6a.mpg</property>
  <property name="proxy_out">213</property>
  <property name="kdenlive:originalurl">2001-07-07-beasty/beastiality-054.dv</property>
  <property name="global_feed">1</property>
  <property name="kdenlive:meta.media.nb_streams">3</property>
  <property name="kdenlive:meta.media.0.stream.type">video</property>
  <property name="kdenlive:meta.media.0.stream.frame_rate">29.97</property>
  <property name="kdenlive:meta.media.0.stream.sample_aspect_ratio">0.888889</property>
  <property name="kdenlive:meta.media.0.codec.width">720</property>
  <property name="kdenlive:meta.media.0.codec.height">480</property>
  <property name="kdenlive:meta.media.0.codec.rotate">0</property>
  <property name="kdenlive:meta.media.0.codec.frame_rate">29.97</property>
  <property name="kdenlive:meta.media.0.codec.pix_fmt">yuv411p</property>
  <property name="kdenlive:meta.media.0.codec.sample_aspect_ratio">0.888889</property>
  <property name="kdenlive:meta.media.0.codec.colorspace">601</property>
  <property name="kdenlive:meta.media.0.codec.name">dvvideo</property>
  <property name="kdenlive:meta.media.0.codec.long_name">DV (Digital Video)</property>
  <property name="kdenlive:meta.media.0.codec.bit_rate">25000000</property>
  <property name="kdenlive:meta.media.1.stream.type">audio</property>
  <property name="kdenlive:meta.media.1.codec.sample_fmt">s16</property>
  <property name="kdenlive:meta.media.1.codec.sample_rate">32000</property>
  <property name="kdenlive:meta.media.1.codec.channels">2</property>
  <property name="kdenlive:meta.media.1.codec.name">pcm_s16le</property>
  <property name="kdenlive:meta.media.1.codec.long_name">PCM signed 16-bit little-endian</property>
  <property name="kdenlive:meta.media.1.codec.bit_rate">1024000</property>
  <property name="kdenlive:meta.media.2.stream.type">audio</property>
  <property name="kdenlive:meta.media.2.codec.sample_fmt">s16</property>
  <property name="kdenlive:meta.media.2.codec.sample_rate">32000</property>
  <property name="kdenlive:meta.media.2.codec.channels">2</property>
  <property name="kdenlive:meta.media.2.codec.name">pcm_s16le</property>
  <property name="kdenlive:meta.media.2.codec.long_name">PCM signed 16-bit little-endian</property>
  <property name="kdenlive:meta.media.2.codec.bit_rate">1024000</property>
  <property name="kdenlive:meta.attr.timecode.markup">00:02:10;05</property>
  <property name="kdenlive:meta.media.sample_aspect_num">8</property>
  <property name="kdenlive:meta.media.sample_aspect_den">9</property>
  <property name="kdenlive:meta.media.frame_rate_num">30000</property>
  <property name="kdenlive:meta.media.frame_rate_den">1001</property>
  <property name="kdenlive:meta.media.colorspace">601</property>
  <property name="kdenlive:meta.media.color_trc">2</property>
  <property name="kdenlive:meta.media.width">720</property>
  <property name="kdenlive:meta.media.height">480</property>
  <property name="xml">was here</property>
 </producer>
 <producer id="59_playlist1_audio" title="Anonymous Submission" out="852" in="0">
  <property name="length">00:00:28;14</property>
  <property name="eof">pause</property>
  <property name="resource">/home/thoth/.cache/kdenlive/proxy/a30bf50fadbcb53eaade6e05f123e8b2.mpg</property>
  <property name="meta.media.nb_streams">2</property>
  <property name="meta.media.0.stream.type">video</property>
  <property name="meta.media.0.stream.frame_rate">29.97</property>
  <property name="meta.media.0.stream.sample_aspect_ratio">0</property>
  <property name="meta.media.0.codec.width">640</property>
  <property name="meta.media.0.codec.height">427</property>
  <property name="meta.media.0.codec.rotate">0</property>
  <property name="meta.media.0.codec.frame_rate">29.97</property>
  <property name="meta.media.0.codec.pix_fmt">yuv422p</property>
  <property name="meta.media.0.codec.sample_aspect_ratio">0.889583</property>
  <property name="meta.media.0.codec.colorspace">601</property>
  <property name="meta.media.0.codec.name">mpeg2video</property>
  <property name="meta.media.0.codec.long_name">MPEG-2 video</property>
  <property name="meta.media.0.codec.bit_rate">0</property>
  <property name="meta.media.1.stream.type">audio</property>
  <property name="meta.media.1.codec.sample_fmt">s16p</property>
  <property name="meta.media.1.codec.sample_rate">32000</property>
  <property name="meta.media.1.codec.channels">2</property>
  <property name="meta.media.1.codec.name">mp2</property>
  <property name="meta.media.1.codec.long_name">MP2 (MPEG audio layer 2)</property>
  <property name="meta.media.1.codec.bit_rate">128000</property>
  <property name="seekable">1</property>
  <property name="meta.media.sample_aspect_num">427</property>
  <property name="meta.media.sample_aspect_den">480</property>
  <property name="aspect_ratio">0.889583</property>
  <property name="audio_index">1</property>
  <property name="video_index">-1</property>
  <property name="mute_on_pause">1</property>
  <property name="mlt_service">avformat</property>
  <property name="kdenlive:folderid">-1</property>
  <property name="kdenlive:file_size">103200000</property>
  <property name="kdenlive:file_hash">a30bf50fadbcb53eaade6e05f123e8b2</property>
  <property name="kdenlive:proxy">/home/thoth/.cache/kdenlive/proxy/a30bf50fadbcb53eaade6e05f123e8b2.mpg</property>
  <property name="proxy_out">859</property>
  <property name="kdenlive:originalurl">2001-07-07-beasty/beastiality-058.dv</property>
  <property name="global_feed">1</property>
  <property name="kdenlive:meta.media.nb_streams">3</property>
  <property name="kdenlive:meta.media.0.stream.type">video</property>
  <property name="kdenlive:meta.media.0.stream.frame_rate">29.97</property>
  <property name="kdenlive:meta.media.0.stream.sample_aspect_ratio">0.888889</property>
  <property name="kdenlive:meta.media.0.codec.width">720</property>
  <property name="kdenlive:meta.media.0.codec.height">480</property>
  <property name="kdenlive:meta.media.0.codec.rotate">0</property>
  <property name="kdenlive:meta.media.0.codec.frame_rate">29.97</property>
  <property name="kdenlive:meta.media.0.codec.pix_fmt">yuv411p</property>
  <property name="kdenlive:meta.media.0.codec.sample_aspect_ratio">0.888889</property>
  <property name="kdenlive:meta.media.0.codec.colorspace">601</property>
  <property name="kdenlive:meta.media.0.codec.name">dvvideo</property>
  <property name="kdenlive:meta.media.0.codec.long_name">DV (Digital Video)</property>
  <property name="kdenlive:meta.media.0.codec.bit_rate">25000000</property>
  <property name="kdenlive:meta.media.1.stream.type">audio</property>
  <property name="kdenlive:meta.media.1.codec.sample_fmt">s16</property>
  <property name="kdenlive:meta.media.1.codec.sample_rate">32000</property>
  <property name="kdenlive:meta.media.1.codec.channels">2</property>
  <property name="kdenlive:meta.media.1.codec.name">pcm_s16le</property>
  <property name="kdenlive:meta.media.1.codec.long_name">PCM signed 16-bit little-endian</property>
  <property name="kdenlive:meta.media.1.codec.bit_rate">1024000</property>
  <property name="kdenlive:meta.media.2.stream.type">audio</property>
  <property name="kdenlive:meta.media.2.codec.sample_fmt">s16</property>
  <property name="kdenlive:meta.media.2.codec.sample_rate">32000</property>
  <property name="kdenlive:meta.media.2.codec.channels">2</property>
  <property name="kdenlive:meta.media.2.codec.name">pcm_s16le</property>
  <property name="kdenlive:meta.media.2.codec.long_name">PCM signed 16-bit little-endian</property>
  <property name="kdenlive:meta.media.2.codec.bit_rate">1024000</property>
  <property name="kdenlive:meta.media.sample_aspect_num">8</property>
  <property name="kdenlive:meta.media.sample_aspect_den">9</property>
  <property name="kdenlive:meta.media.frame_rate_num">30000</property>
  <property name="kdenlive:meta.media.frame_rate_den">1001</property>
  <property name="kdenlive:meta.media.colorspace">601</property>
  <property name="kdenlive:meta.media.color_trc">2</property>
  <property name="kdenlive:meta.media.width">720</property>
  <property name="kdenlive:meta.media.height">480</property>
  <property name="kdenlive:zone_in">206</property>
  <property name="kdenlive:zone_out">665</property>
  <property name="xml">was here</property>
 </producer>
 <producer id="53_playlist1_audio" title="Anonymous Submission" out="74" in="0">
  <property name="length">00:00:02;15</property>
  <property name="eof">pause</property>
  <property name="resource">/home/thoth/.cache/kdenlive/proxy/2380c5b66e662316ad330cd09f2bc444.mpg</property>
  <property name="meta.media.nb_streams">2</property>
  <property name="meta.media.0.stream.type">video</property>
  <property name="meta.media.0.stream.frame_rate">29.97</property>
  <property name="meta.media.0.stream.sample_aspect_ratio">0</property>
  <property name="meta.media.0.codec.width">640</property>
  <property name="meta.media.0.codec.height">427</property>
  <property name="meta.media.0.codec.rotate">0</property>
  <property name="meta.media.0.codec.frame_rate">29.97</property>
  <property name="meta.media.0.codec.pix_fmt">yuv422p</property>
  <property name="meta.media.0.codec.sample_aspect_ratio">0.889583</property>
  <property name="meta.media.0.codec.colorspace">601</property>
  <property name="meta.media.0.codec.name">mpeg2video</property>
  <property name="meta.media.0.codec.long_name">MPEG-2 video</property>
  <property name="meta.media.0.codec.bit_rate">0</property>
  <property name="meta.media.1.stream.type">audio</property>
  <property name="meta.media.1.codec.sample_fmt">s16p</property>
  <property name="meta.media.1.codec.sample_rate">32000</property>
  <property name="meta.media.1.codec.channels">2</property>
  <property name="meta.media.1.codec.name">mp2</property>
  <property name="meta.media.1.codec.long_name">MP2 (MPEG audio layer 2)</property>
  <property name="meta.media.1.codec.bit_rate">128000</property>
  <property name="seekable">1</property>
  <property name="meta.media.sample_aspect_num">427</property>
  <property name="meta.media.sample_aspect_den">480</property>
  <property name="aspect_ratio">0.889583</property>
  <property name="audio_index">1</property>
  <property name="video_index">-1</property>
  <property name="mute_on_pause">1</property>
  <property name="mlt_service">avformat</property>
  <property name="kdenlive:folderid">-1</property>
  <property name="kdenlive:file_size">9000000</property>
  <property name="kdenlive:file_hash">2380c5b66e662316ad330cd09f2bc444</property>
  <property name="kdenlive:proxy">/home/thoth/.cache/kdenlive/proxy/2380c5b66e662316ad330cd09f2bc444.mpg</property>
  <property name="proxy_out">74</property>
  <property name="kdenlive:originalurl">2001-07-07-beasty/beastiality-055.dv</property>
  <property name="global_feed">1</property>
  <property name="kdenlive:meta.media.nb_streams">3</property>
  <property name="kdenlive:meta.media.0.stream.type">video</property>
  <property name="kdenlive:meta.media.0.stream.frame_rate">29.97</property>
  <property name="kdenlive:meta.media.0.stream.sample_aspect_ratio">0.888889</property>
  <property name="kdenlive:meta.media.0.codec.width">720</property>
  <property name="kdenlive:meta.media.0.codec.height">480</property>
  <property name="kdenlive:meta.media.0.codec.rotate">0</property>
  <property name="kdenlive:meta.media.0.codec.frame_rate">29.97</property>
  <property name="kdenlive:meta.media.0.codec.pix_fmt">yuv411p</property>
  <property name="kdenlive:meta.media.0.codec.sample_aspect_ratio">0.888889</property>
  <property name="kdenlive:meta.media.0.codec.colorspace">601</property>
  <property name="kdenlive:meta.media.0.codec.name">dvvideo</property>
  <property name="kdenlive:meta.media.0.codec.long_name">DV (Digital Video)</property>
  <property name="kdenlive:meta.media.0.codec.bit_rate">25000000</property>
  <property name="kdenlive:meta.media.1.stream.type">audio</property>
  <property name="kdenlive:meta.media.1.codec.sample_fmt">s16</property>
  <property name="kdenlive:meta.media.1.codec.sample_rate">32000</property>
  <property name="kdenlive:meta.media.1.codec.channels">2</property>
  <property name="kdenlive:meta.media.1.codec.name">pcm_s16le</property>
  <property name="kdenlive:meta.media.1.codec.long_name">PCM signed 16-bit little-endian</property>
  <property name="kdenlive:meta.media.1.codec.bit_rate">1024000</property>
  <property name="kdenlive:meta.media.2.stream.type">audio</property>
  <property name="kdenlive:meta.media.2.codec.sample_fmt">s16</property>
  <property name="kdenlive:meta.media.2.codec.sample_rate">32000</property>
  <property name="kdenlive:meta.media.2.codec.channels">2</property>
  <property name="kdenlive:meta.media.2.codec.name">pcm_s16le</property>
  <property name="kdenlive:meta.media.2.codec.long_name">PCM signed 16-bit little-endian</property>
  <property name="kdenlive:meta.media.2.codec.bit_rate">1024000</property>
  <property name="kdenlive:meta.attr.timecode.markup">00:02:17;09</property>
  <property name="kdenlive:meta.media.sample_aspect_num">8</property>
  <property name="kdenlive:meta.media.sample_aspect_den">9</property>
  <property name="kdenlive:meta.media.frame_rate_num">30000</property>
  <property name="kdenlive:meta.media.frame_rate_den">1001</property>
  <property name="kdenlive:meta.media.colorspace">601</property>
  <property name="kdenlive:meta.media.color_trc">2</property>
  <property name="kdenlive:meta.media.width">720</property>
  <property name="kdenlive:meta.media.height">480</property>
  <property name="kdenlive:zone_in">1</property>
  <property name="kdenlive:zone_out">14</property>
  <property name="xml">was here</property>
 </producer>
 <producer id="54_playlist1_audio" title="Anonymous Submission" out="46" in="0">
  <property name="length">00:00:01;17</property>
  <property name="eof">pause</property>
  <property name="resource">/home/thoth/.cache/kdenlive/proxy/c29c0ffddce83eea45117c47bf9902d6.mpg</property>
  <property name="meta.media.nb_streams">2</property>
  <property name="meta.media.0.stream.type">video</property>
  <property name="meta.media.0.stream.frame_rate">29.97</property>
  <property name="meta.media.0.stream.sample_aspect_ratio">0</property>
  <property name="meta.media.0.codec.width">640</property>
  <property name="meta.media.0.codec.height">427</property>
  <property name="meta.media.0.codec.rotate">0</property>
  <property name="meta.media.0.codec.frame_rate">29.97</property>
  <property name="meta.media.0.codec.pix_fmt">yuv422p</property>
  <property name="meta.media.0.codec.sample_aspect_ratio">0.889583</property>
  <property name="meta.media.0.codec.colorspace">601</property>
  <property name="meta.media.0.codec.name">mpeg2video</property>
  <property name="meta.media.0.codec.long_name">MPEG-2 video</property>
  <property name="meta.media.0.codec.bit_rate">0</property>
  <property name="meta.media.1.stream.type">audio</property>
  <property name="meta.media.1.codec.sample_fmt">s16p</property>
  <property name="meta.media.1.codec.sample_rate">32000</property>
  <property name="meta.media.1.codec.channels">2</property>
  <property name="meta.media.1.codec.name">mp2</property>
  <property name="meta.media.1.codec.long_name">MP2 (MPEG audio layer 2)</property>
  <property name="meta.media.1.codec.bit_rate">128000</property>
  <property name="seekable">1</property>
  <property name="meta.media.sample_aspect_num">427</property>
  <property name="meta.media.sample_aspect_den">480</property>
  <property name="aspect_ratio">0.889583</property>
  <property name="audio_index">1</property>
  <property name="video_index">-1</property>
  <property name="mute_on_pause">1</property>
  <property name="mlt_service">avformat</property>
  <property name="kdenlive:folderid">-1</property>
  <property name="kdenlive:file_size">5640000</property>
  <property name="kdenlive:file_hash">c29c0ffddce83eea45117c47bf9902d6</property>
  <property name="kdenlive:proxy">/home/thoth/.cache/kdenlive/proxy/c29c0ffddce83eea45117c47bf9902d6.mpg</property>
  <property name="proxy_out">46</property>
  <property name="kdenlive:originalurl">2001-07-07-beasty/beastiality-056.dv</property>
  <property name="global_feed">1</property>
  <property name="kdenlive:meta.media.nb_streams">3</property>
  <property name="kdenlive:meta.media.0.stream.type">video</property>
  <property name="kdenlive:meta.media.0.stream.frame_rate">29.97</property>
  <property name="kdenlive:meta.media.0.stream.sample_aspect_ratio">0.888889</property>
  <property name="kdenlive:meta.media.0.codec.width">720</property>
  <property name="kdenlive:meta.media.0.codec.height">480</property>
  <property name="kdenlive:meta.media.0.codec.rotate">0</property>
  <property name="kdenlive:meta.media.0.codec.frame_rate">29.97</property>
  <property name="kdenlive:meta.media.0.codec.pix_fmt">yuv411p</property>
  <property name="kdenlive:meta.media.0.codec.sample_aspect_ratio">0.888889</property>
  <property name="kdenlive:meta.media.0.codec.colorspace">601</property>
  <property name="kdenlive:meta.media.0.codec.name">dvvideo</property>
  <property name="kdenlive:meta.media.0.codec.long_name">DV (Digital Video)</property>
  <property name="kdenlive:meta.media.0.codec.bit_rate">25000000</property>
  <property name="kdenlive:meta.media.1.stream.type">audio</property>
  <property name="kdenlive:meta.media.1.codec.sample_fmt">s16</property>
  <property name="kdenlive:meta.media.1.codec.sample_rate">32000</property>
  <property name="kdenlive:meta.media.1.codec.channels">2</property>
  <property name="kdenlive:meta.media.1.codec.name">pcm_s16le</property>
  <property name="kdenlive:meta.media.1.codec.long_name">PCM signed 16-bit little-endian</property>
  <property name="kdenlive:meta.media.1.codec.bit_rate">1024000</property>
  <property name="kdenlive:meta.media.2.stream.type">audio</property>
  <property name="kdenlive:meta.media.2.codec.sample_fmt">s16</property>
  <property name="kdenlive:meta.media.2.codec.sample_rate">32000</property>
  <property name="kdenlive:meta.media.2.codec.channels">2</property>
  <property name="kdenlive:meta.media.2.codec.name">pcm_s16le</property>
  <property name="kdenlive:meta.media.2.codec.long_name">PCM signed 16-bit little-endian</property>
  <property name="kdenlive:meta.media.2.codec.bit_rate">1024000</property>
  <property name="kdenlive:meta.attr.timecode.markup">00:02:19;24</property>
  <property name="kdenlive:meta.media.sample_aspect_num">8</property>
  <property name="kdenlive:meta.media.sample_aspect_den">9</property>
  <property name="kdenlive:meta.media.frame_rate_num">30000</property>
  <property name="kdenlive:meta.media.frame_rate_den">1001</property>
  <property name="kdenlive:meta.media.colorspace">601</property>
  <property name="kdenlive:meta.media.color_trc">2</property>
  <property name="kdenlive:meta.media.width">720</property>
  <property name="kdenlive:meta.media.height">480</property>
  <property name="kdenlive:zone_in">1</property>
  <property name="kdenlive:zone_out">28</property>
  <property name="xml">was here</property>
 </producer>
 <producer id="55_playlist1_audio" title="Anonymous Submission" out="70" in="0">
  <property name="length">00:00:02;11</property>
  <property name="eof">pause</property>
  <property name="resource">/home/thoth/.cache/kdenlive/proxy/c37abf73f4a874fde5772a2cefcbcbf0.mpg</property>
  <property name="meta.media.nb_streams">2</property>
  <property name="meta.media.0.stream.type">video</property>
  <property name="meta.media.0.stream.frame_rate">29.97</property>
  <property name="meta.media.0.stream.sample_aspect_ratio">0</property>
  <property name="meta.media.0.codec.width">640</property>
  <property name="meta.media.0.codec.height">427</property>
  <property name="meta.media.0.codec.rotate">0</property>
  <property name="meta.media.0.codec.frame_rate">29.97</property>
  <property name="meta.media.0.codec.pix_fmt">yuv422p</property>
  <property name="meta.media.0.codec.sample_aspect_ratio">0.889583</property>
  <property name="meta.media.0.codec.colorspace">601</property>
  <property name="meta.media.0.codec.name">mpeg2video</property>
  <property name="meta.media.0.codec.long_name">MPEG-2 video</property>
  <property name="meta.media.0.codec.bit_rate">0</property>
  <property name="meta.media.1.stream.type">audio</property>
  <property name="meta.media.1.codec.sample_fmt">s16p</property>
  <property name="meta.media.1.codec.sample_rate">32000</property>
  <property name="meta.media.1.codec.channels">2</property>
  <property name="meta.media.1.codec.name">mp2</property>
  <property name="meta.media.1.codec.long_name">MP2 (MPEG audio layer 2)</property>
  <property name="meta.media.1.codec.bit_rate">128000</property>
  <property name="seekable">1</property>
  <property name="meta.media.sample_aspect_num">427</property>
  <property name="meta.media.sample_aspect_den">480</property>
  <property name="aspect_ratio">0.889583</property>
  <property name="audio_index">1</property>
  <property name="video_index">-1</property>
  <property name="mute_on_pause">1</property>
  <property name="mlt_service">avformat</property>
  <property name="kdenlive:folderid">-1</property>
  <property name="kdenlive:file_size">8520000</property>
  <property name="kdenlive:file_hash">c37abf73f4a874fde5772a2cefcbcbf0</property>
  <property name="kdenlive:proxy">/home/thoth/.cache/kdenlive/proxy/c37abf73f4a874fde5772a2cefcbcbf0.mpg</property>
  <property name="proxy_out">70</property>
  <property name="kdenlive:originalurl">2001-07-07-beasty/beastiality-057.dv</property>
  <property name="global_feed">1</property>
  <property name="kdenlive:meta.media.nb_streams">3</property>
  <property name="kdenlive:meta.media.0.stream.type">video</property>
  <property name="kdenlive:meta.media.0.stream.frame_rate">29.97</property>
  <property name="kdenlive:meta.media.0.stream.sample_aspect_ratio">0.888889</property>
  <property name="kdenlive:meta.media.0.codec.width">720</property>
  <property name="kdenlive:meta.media.0.codec.height">480</property>
  <property name="kdenlive:meta.media.0.codec.rotate">0</property>
  <property name="kdenlive:meta.media.0.codec.frame_rate">29.97</property>
  <property name="kdenlive:meta.media.0.codec.pix_fmt">yuv411p</property>
  <property name="kdenlive:meta.media.0.codec.sample_aspect_ratio">0.888889</property>
  <property name="kdenlive:meta.media.0.codec.colorspace">601</property>
  <property name="kdenlive:meta.media.0.codec.name">dvvideo</property>
  <property name="kdenlive:meta.media.0.codec.long_name">DV (Digital Video)</property>
  <property name="kdenlive:meta.media.0.codec.bit_rate">25000000</property>
  <property name="kdenlive:meta.media.1.stream.type">audio</property>
  <property name="kdenlive:meta.media.1.codec.sample_fmt">s16</property>
  <property name="kdenlive:meta.media.1.codec.sample_rate">32000</property>
  <property name="kdenlive:meta.media.1.codec.channels">2</property>
  <property name="kdenlive:meta.media.1.codec.name">pcm_s16le</property>
  <property name="kdenlive:meta.media.1.codec.long_name">PCM signed 16-bit little-endian</property>
  <property name="kdenlive:meta.media.1.codec.bit_rate">1024000</property>
  <property name="kdenlive:meta.media.2.stream.type">audio</property>
  <property name="kdenlive:meta.media.2.codec.sample_fmt">s16</property>
  <property name="kdenlive:meta.media.2.codec.sample_rate">32000</property>
  <property name="kdenlive:meta.media.2.codec.channels">2</property>
  <property name="kdenlive:meta.media.2.codec.name">pcm_s16le</property>
  <property name="kdenlive:meta.media.2.codec.long_name">PCM signed 16-bit little-endian</property>
  <property name="kdenlive:meta.media.2.codec.bit_rate">1024000</property>
  <property name="kdenlive:meta.attr.timecode.markup">00:02:21;11</property>
  <property name="kdenlive:meta.media.sample_aspect_num">8</property>
  <property name="kdenlive:meta.media.sample_aspect_den">9</property>
  <property name="kdenlive:meta.media.frame_rate_num">30000</property>
  <property name="kdenlive:meta.media.frame_rate_den">1001</property>
  <property name="kdenlive:meta.media.colorspace">601</property>
  <property name="kdenlive:meta.media.color_trc">2</property>
  <property name="kdenlive:meta.media.width">720</property>
  <property name="kdenlive:meta.media.height">480</property>
  <property name="kdenlive:zone_in">0</property>
  <property name="kdenlive:zone_out">27</property>
  <property name="xml">was here</property>
 </producer>
 <playlist id="playlist1">
  <property name="kdenlive:track_name">Audio 2</property>
  <property name="kdenlive:audio_track">1</property>
  <property name="kdenlive:locked_track">0</property>
  <entry out="333" producer="4_playlist1_audio" in="257"/>
  <entry out="662" producer="74_playlist1_audio" in="388"/>
  <entry out="246" producer="7_playlist1_audio" in="0"/>
  <blank length="776"/>
  <entry out="372" producer="41_playlist1_audio" in="57"/>
  <blank length="526"/>
  <entry out="142" producer="45_playlist1_audio" in="0"/>
  <entry out="371" producer="46_playlist1_audio" in="140"/>
  <blank length="249"/>
  <entry out="680" producer="47_playlist1_audio" in="141"/>
  <blank length="851"/>
  <entry out="79" producer="49_playlist1_audio" in="36"/>
  <blank length="2290"/>
  <entry out="299" producer="29_playlist1_audio" in="115"/>
  <blank length="3191"/>
  <entry out="1697" producer="32_playlist1_audio" in="1558"/>
  <blank length="2893"/>
  <entry out="92" producer="52_playlist1_audio" in="0"/>
  <entry out="88" producer="59_playlist1_audio" in="69"/>
  <entry out="14" producer="53_playlist1_audio" in="1"/>
  <entry out="28" producer="54_playlist1_audio" in="1"/>
  <entry out="27" producer="55_playlist1_audio" in="0"/>
 </playlist>
 <producer id="27_playlist2_audio" title="Anonymous Submission" out="670" in="0">
  <property name="length">00:00:22;12</property>
  <property name="eof">pause</property>
  <property name="resource">/home/thoth/.cache/kdenlive/proxy/f2b7bd9d788ecd8e30b1bc5c4940afa0.mpg</property>
  <property name="meta.media.nb_streams">2</property>
  <property name="meta.media.0.stream.type">video</property>
  <property name="meta.media.0.stream.frame_rate">29.97</property>
  <property name="meta.media.0.stream.sample_aspect_ratio">0</property>
  <property name="meta.media.0.codec.width">640</property>
  <property name="meta.media.0.codec.height">427</property>
  <property name="meta.media.0.codec.rotate">0</property>
  <property name="meta.media.0.codec.frame_rate">29.97</property>
  <property name="meta.media.0.codec.pix_fmt">yuv422p</property>
  <property name="meta.media.0.codec.sample_aspect_ratio">0.889583</property>
  <property name="meta.media.0.codec.colorspace">601</property>
  <property name="meta.media.0.codec.name">mpeg2video</property>
  <property name="meta.media.0.codec.long_name">MPEG-2 video</property>
  <property name="meta.media.0.codec.bit_rate">0</property>
  <property name="meta.media.1.stream.type">audio</property>
  <property name="meta.media.1.codec.sample_fmt">s16p</property>
  <property name="meta.media.1.codec.sample_rate">32000</property>
  <property name="meta.media.1.codec.channels">2</property>
  <property name="meta.media.1.codec.name">mp2</property>
  <property name="meta.media.1.codec.long_name">MP2 (MPEG audio layer 2)</property>
  <property name="meta.media.1.codec.bit_rate">128000</property>
  <property name="seekable">1</property>
  <property name="meta.media.sample_aspect_num">427</property>
  <property name="meta.media.sample_aspect_den">480</property>
  <property name="aspect_ratio">0.889583</property>
  <property name="audio_index">1</property>
  <property name="video_index">-1</property>
  <property name="mute_on_pause">1</property>
  <property name="mlt_service">avformat</property>
  <property name="kdenlive:folderid">-1</property>
  <property name="kdenlive:file_size">81360000</property>
  <property name="kdenlive:file_hash">f2b7bd9d788ecd8e30b1bc5c4940afa0</property>
  <property name="kdenlive:proxy">/home/thoth/.cache/kdenlive/proxy/f2b7bd9d788ecd8e30b1bc5c4940afa0.mpg</property>
  <property name="proxy_out">677</property>
  <property name="kdenlive:originalurl">2001-07-07-beasty/beastiality-033.dv</property>
  <property name="global_feed">1</property>
  <property name="kdenlive:meta.media.nb_streams">3</property>
  <property name="kdenlive:meta.media.0.stream.type">video</property>
  <property name="kdenlive:meta.media.0.stream.frame_rate">29.97</property>
  <property name="kdenlive:meta.media.0.stream.sample_aspect_ratio">0.888889</property>
  <property name="kdenlive:meta.media.0.codec.width">720</property>
  <property name="kdenlive:meta.media.0.codec.height">480</property>
  <property name="kdenlive:meta.media.0.codec.rotate">0</property>
  <property name="kdenlive:meta.media.0.codec.frame_rate">29.97</property>
  <property name="kdenlive:meta.media.0.codec.pix_fmt">yuv411p</property>
  <property name="kdenlive:meta.media.0.codec.sample_aspect_ratio">0.888889</property>
  <property name="kdenlive:meta.media.0.codec.colorspace">601</property>
  <property name="kdenlive:meta.media.0.codec.name">dvvideo</property>
  <property name="kdenlive:meta.media.0.codec.long_name">DV (Digital Video)</property>
  <property name="kdenlive:meta.media.0.codec.bit_rate">25000000</property>
  <property name="kdenlive:meta.media.1.stream.type">audio</property>
  <property name="kdenlive:meta.media.1.codec.sample_fmt">s16</property>
  <property name="kdenlive:meta.media.1.codec.sample_rate">32000</property>
  <property name="kdenlive:meta.media.1.codec.channels">2</property>
  <property name="kdenlive:meta.media.1.codec.name">pcm_s16le</property>
  <property name="kdenlive:meta.media.1.codec.long_name">PCM signed 16-bit little-endian</property>
  <property name="kdenlive:meta.media.1.codec.bit_rate">1024000</property>
  <property name="kdenlive:meta.media.2.stream.type">audio</property>
  <property name="kdenlive:meta.media.2.codec.sample_fmt">s16</property>
  <property name="kdenlive:meta.media.2.codec.sample_rate">32000</property>
  <property name="kdenlive:meta.media.2.codec.channels">2</property>
  <property name="kdenlive:meta.media.2.codec.name">pcm_s16le</property>
  <property name="kdenlive:meta.media.2.codec.long_name">PCM signed 16-bit little-endian</property>
  <property name="kdenlive:meta.media.2.codec.bit_rate">1024000</property>
  <property name="kdenlive:meta.attr.timecode.markup">00:04:02;27</property>
  <property name="kdenlive:meta.media.sample_aspect_num">8</property>
  <property name="kdenlive:meta.media.sample_aspect_den">9</property>
  <property name="kdenlive:meta.media.frame_rate_num">30000</property>
  <property name="kdenlive:meta.media.frame_rate_den">1001</property>
  <property name="kdenlive:meta.media.colorspace">601</property>
  <property name="kdenlive:meta.media.color_trc">2</property>
  <property name="kdenlive:meta.media.width">720</property>
  <property name="kdenlive:meta.media.height">480</property>
  <property name="kdenlive:zone_in">263</property>
  <property name="kdenlive:zone_out">625</property>
  <property name="xml">was here</property>
 </producer>
 <producer id="34_playlist2_audio" title="Anonymous Submission" out="300" in="0">
  <property name="length">00:00:10;01</property>
  <property name="eof">pause</property>
  <property name="resource">/home/thoth/.cache/kdenlive/proxy/74a68ddbb94279ffccf914435063a5cb.mpg</property>
  <property name="meta.media.nb_streams">2</property>
  <property name="meta.media.0.stream.type">video</property>
  <property name="meta.media.0.stream.frame_rate">29.97</property>
  <property name="meta.media.0.stream.sample_aspect_ratio">0</property>
  <property name="meta.media.0.codec.width">640</property>
  <property name="meta.media.0.codec.height">427</property>
  <property name="meta.media.0.codec.rotate">0</property>
  <property name="meta.media.0.codec.frame_rate">29.97</property>
  <property name="meta.media.0.codec.pix_fmt">yuv422p</property>
  <property name="meta.media.0.codec.sample_aspect_ratio">0.889583</property>
  <property name="meta.media.0.codec.colorspace">601</property>
  <property name="meta.media.0.codec.name">mpeg2video</property>
  <property name="meta.media.0.codec.long_name">MPEG-2 video</property>
  <property name="meta.media.0.codec.bit_rate">0</property>
  <property name="meta.media.1.stream.type">audio</property>
  <property name="meta.media.1.codec.sample_fmt">s16p</property>
  <property name="meta.media.1.codec.sample_rate">32000</property>
  <property name="meta.media.1.codec.channels">2</property>
  <property name="meta.media.1.codec.name">mp2</property>
  <property name="meta.media.1.codec.long_name">MP2 (MPEG audio layer 2)</property>
  <property name="meta.media.1.codec.bit_rate">128000</property>
  <property name="seekable">1</property>
  <property name="meta.media.sample_aspect_num">427</property>
  <property name="meta.media.sample_aspect_den">480</property>
  <property name="aspect_ratio">0.889583</property>
  <property name="audio_index">1</property>
  <property name="video_index">-1</property>
  <property name="mute_on_pause">1</property>
  <property name="mlt_service">avformat</property>
  <property name="kdenlive:folderid">-1</property>
  <property name="kdenlive:file_size">36120000</property>
  <property name="kdenlive:file_hash">74a68ddbb94279ffccf914435063a5cb</property>
  <property name="kdenlive:proxy">/home/thoth/.cache/kdenlive/proxy/74a68ddbb94279ffccf914435063a5cb.mpg</property>
  <property name="proxy_out">300</property>
  <property name="kdenlive:originalurl">2001-07-07-beasty/beastiality-036.dv</property>
  <property name="global_feed">1</property>
  <property name="kdenlive:meta.media.nb_streams">3</property>
  <property name="kdenlive:meta.media.0.stream.type">video</property>
  <property name="kdenlive:meta.media.0.stream.frame_rate">29.97</property>
  <property name="kdenlive:meta.media.0.stream.sample_aspect_ratio">0.888889</property>
  <property name="kdenlive:meta.media.0.codec.width">720</property>
  <property name="kdenlive:meta.media.0.codec.height">480</property>
  <property name="kdenlive:meta.media.0.codec.rotate">0</property>
  <property name="kdenlive:meta.media.0.codec.frame_rate">29.97</property>
  <property name="kdenlive:meta.media.0.codec.pix_fmt">yuv411p</property>
  <property name="kdenlive:meta.media.0.codec.sample_aspect_ratio">0.888889</property>
  <property name="kdenlive:meta.media.0.codec.colorspace">601</property>
  <property name="kdenlive:meta.media.0.codec.name">dvvideo</property>
  <property name="kdenlive:meta.media.0.codec.long_name">DV (Digital Video)</property>
  <property name="kdenlive:meta.media.0.codec.bit_rate">25000000</property>
  <property name="kdenlive:meta.media.1.stream.type">audio</property>
  <property name="kdenlive:meta.media.1.codec.sample_fmt">s16</property>
  <property name="kdenlive:meta.media.1.codec.sample_rate">32000</property>
  <property name="kdenlive:meta.media.1.codec.channels">2</property>
  <property name="kdenlive:meta.media.1.codec.name">pcm_s16le</property>
  <property name="kdenlive:meta.media.1.codec.long_name">PCM signed 16-bit little-endian</property>
  <property name="kdenlive:meta.media.1.codec.bit_rate">1024000</property>
  <property name="kdenlive:meta.media.2.stream.type">audio</property>
  <property name="kdenlive:meta.media.2.codec.sample_fmt">s16</property>
  <property name="kdenlive:meta.media.2.codec.sample_rate">32000</property>
  <property name="kdenlive:meta.media.2.codec.channels">2</property>
  <property name="kdenlive:meta.media.2.codec.name">pcm_s16le</property>
  <property name="kdenlive:meta.media.2.codec.long_name">PCM signed 16-bit little-endian</property>
  <property name="kdenlive:meta.media.2.codec.bit_rate">1024000</property>
  <property name="kdenlive:meta.attr.timecode.markup">00:00:33;14</property>
  <property name="kdenlive:meta.media.sample_aspect_num">8</property>
  <property name="kdenlive:meta.media.sample_aspect_den">9</property>
  <property name="kdenlive:meta.media.frame_rate_num">30000</property>
  <property name="kdenlive:meta.media.frame_rate_den">1001</property>
  <property name="kdenlive:meta.media.colorspace">601</property>
  <property name="kdenlive:meta.media.color_trc">2</property>
  <property name="kdenlive:meta.media.width">720</property>
  <property name="kdenlive:meta.media.height">480</property>
  <property name="kdenlive:zone_in">0</property>
  <property name="kdenlive:zone_out">264</property>
  <property name="xml">was here</property>
 </producer>
 <producer id="56_playlist2_audio" title="Anonymous Submission" out="567" in="0">
  <property name="length">00:00:18;29</property>
  <property name="eof">pause</property>
  <property name="resource">/home/thoth/.cache/kdenlive/proxy/a447e008df1cc1544bff0cde207f27d5.mpg</property>
  <property name="meta.media.nb_streams">2</property>
  <property name="meta.media.0.stream.type">video</property>
  <property name="meta.media.0.stream.frame_rate">29.97</property>
  <property name="meta.media.0.stream.sample_aspect_ratio">0</property>
  <property name="meta.media.0.codec.width">640</property>
  <property name="meta.media.0.codec.height">427</property>
  <property name="meta.media.0.codec.rotate">0</property>
  <property name="meta.media.0.codec.frame_rate">29.97</property>
  <property name="meta.media.0.codec.pix_fmt">yuv422p</property>
  <property name="meta.media.0.codec.sample_aspect_ratio">0.889583</property>
  <property name="meta.media.0.codec.colorspace">601</property>
  <property name="meta.media.0.codec.name">mpeg2video</property>
  <property name="meta.media.0.codec.long_name">MPEG-2 video</property>
  <property name="meta.media.0.codec.bit_rate">0</property>
  <property name="meta.media.1.stream.type">audio</property>
  <property name="meta.media.1.codec.sample_fmt">s16p</property>
  <property name="meta.media.1.codec.sample_rate">32000</property>
  <property name="meta.media.1.codec.channels">2</property>
  <property name="meta.media.1.codec.name">mp2</property>
  <property name="meta.media.1.codec.long_name">MP2 (MPEG audio layer 2)</property>
  <property name="meta.media.1.codec.bit_rate">128000</property>
  <property name="seekable">1</property>
  <property name="meta.media.sample_aspect_num">427</property>
  <property name="meta.media.sample_aspect_den">480</property>
  <property name="aspect_ratio">0.889583</property>
  <property name="audio_index">1</property>
  <property name="video_index">-1</property>
  <property name="mute_on_pause">1</property>
  <property name="mlt_service">avformat</property>
  <property name="kdenlive:folderid">-1</property>
  <property name="kdenlive:file_size">68760000</property>
  <property name="kdenlive:file_hash">a447e008df1cc1544bff0cde207f27d5</property>
  <property name="kdenlive:proxy">/home/thoth/.cache/kdenlive/proxy/a447e008df1cc1544bff0cde207f27d5.mpg</property>
  <property name="proxy_out">572</property>
  <property name="kdenlive:originalurl">2001-07-07-beasty/beastiality-043.dv</property>
  <property name="global_feed">1</property>
  <property name="kdenlive:meta.media.nb_streams">3</property>
  <property name="kdenlive:meta.media.0.stream.type">video</property>
  <property name="kdenlive:meta.media.0.stream.frame_rate">29.97</property>
  <property name="kdenlive:meta.media.0.stream.sample_aspect_ratio">0.888889</property>
  <property name="kdenlive:meta.media.0.codec.width">720</property>
  <property name="kdenlive:meta.media.0.codec.height">480</property>
  <property name="kdenlive:meta.media.0.codec.rotate">0</property>
  <property name="kdenlive:meta.media.0.codec.frame_rate">29.97</property>
  <property name="kdenlive:meta.media.0.codec.pix_fmt">yuv411p</property>
  <property name="kdenlive:meta.media.0.codec.sample_aspect_ratio">0.888889</property>
  <property name="kdenlive:meta.media.0.codec.colorspace">601</property>
  <property name="kdenlive:meta.media.0.codec.name">dvvideo</property>
  <property name="kdenlive:meta.media.0.codec.long_name">DV (Digital Video)</property>
  <property name="kdenlive:meta.media.0.codec.bit_rate">25000000</property>
  <property name="kdenlive:meta.media.1.stream.type">audio</property>
  <property name="kdenlive:meta.media.1.codec.sample_fmt">s16</property>
  <property name="kdenlive:meta.media.1.codec.sample_rate">32000</property>
  <property name="kdenlive:meta.media.1.codec.channels">2</property>
  <property name="kdenlive:meta.media.1.codec.name">pcm_s16le</property>
  <property name="kdenlive:meta.media.1.codec.long_name">PCM signed 16-bit little-endian</property>
  <property name="kdenlive:meta.media.1.codec.bit_rate">1024000</property>
  <property name="kdenlive:meta.media.2.stream.type">audio</property>
  <property name="kdenlive:meta.media.2.codec.sample_fmt">s16</property>
  <property name="kdenlive:meta.media.2.codec.sample_rate">32000</property>
  <property name="kdenlive:meta.media.2.codec.channels">2</property>
  <property name="kdenlive:meta.media.2.codec.name">pcm_s16le</property>
  <property name="kdenlive:meta.media.2.codec.long_name">PCM signed 16-bit little-endian</property>
  <property name="kdenlive:meta.media.2.codec.bit_rate">1024000</property>
  <property name="kdenlive:meta.attr.timecode.markup">00:02:11;00</property>
  <property name="kdenlive:meta.media.sample_aspect_num">8</property>
  <property name="kdenlive:meta.media.sample_aspect_den">9</property>
  <property name="kdenlive:meta.media.frame_rate_num">30000</property>
  <property name="kdenlive:meta.media.frame_rate_den">1001</property>
  <property name="kdenlive:meta.media.colorspace">601</property>
  <property name="kdenlive:meta.media.color_trc">2</property>
  <property name="kdenlive:meta.media.width">720</property>
  <property name="kdenlive:meta.media.height">480</property>
  <property name="kdenlive:zone_in">137</property>
  <property name="kdenlive:zone_out">568</property>
  <property name="xml">was here</property>
 </producer>
 <producer id="58_playlist2_audio" title="Anonymous Submission" out="803" in="0">
  <property name="length">00:00:26;25</property>
  <property name="eof">pause</property>
  <property name="resource">/home/thoth/.cache/kdenlive/proxy/05b1d4c4e1b8e60e754e8e7a4226b740.mpg</property>
  <property name="meta.media.nb_streams">2</property>
  <property name="meta.media.0.stream.type">video</property>
  <property name="meta.media.0.stream.frame_rate">29.97</property>
  <property name="meta.media.0.stream.sample_aspect_ratio">0</property>
  <property name="meta.media.0.codec.width">640</property>
  <property name="meta.media.0.codec.height">427</property>
  <property name="meta.media.0.codec.rotate">0</property>
  <property name="meta.media.0.codec.frame_rate">29.97</property>
  <property name="meta.media.0.codec.pix_fmt">yuv422p</property>
  <property name="meta.media.0.codec.sample_aspect_ratio">0.889583</property>
  <property name="meta.media.0.codec.colorspace">601</property>
  <property name="meta.media.0.codec.name">mpeg2video</property>
  <property name="meta.media.0.codec.long_name">MPEG-2 video</property>
  <property name="meta.media.0.codec.bit_rate">0</property>
  <property name="meta.media.1.stream.type">audio</property>
  <property name="meta.media.1.codec.sample_fmt">s16p</property>
  <property name="meta.media.1.codec.sample_rate">32000</property>
  <property name="meta.media.1.codec.channels">2</property>
  <property name="meta.media.1.codec.name">mp2</property>
  <property name="meta.media.1.codec.long_name">MP2 (MPEG audio layer 2)</property>
  <property name="meta.media.1.codec.bit_rate">128000</property>
  <property name="seekable">1</property>
  <property name="meta.media.sample_aspect_num">427</property>
  <property name="meta.media.sample_aspect_den">480</property>
  <property name="aspect_ratio">0.889583</property>
  <property name="audio_index">1</property>
  <property name="video_index">-1</property>
  <property name="mute_on_pause">1</property>
  <property name="mlt_service">avformat</property>
  <property name="kdenlive:folderid">-1</property>
  <property name="kdenlive:file_size">97320000</property>
  <property name="kdenlive:file_hash">05b1d4c4e1b8e60e754e8e7a4226b740</property>
  <property name="kdenlive:proxy">/home/thoth/.cache/kdenlive/proxy/05b1d4c4e1b8e60e754e8e7a4226b740.mpg</property>
  <property name="proxy_out">810</property>
  <property name="kdenlive:originalurl">2001-07-07-beasty/beastiality-045.dv</property>
  <property name="global_feed">1</property>
  <property name="kdenlive:meta.media.nb_streams">3</property>
  <property name="kdenlive:meta.media.0.stream.type">video</property>
  <property name="kdenlive:meta.media.0.stream.frame_rate">29.97</property>
  <property name="kdenlive:meta.media.0.stream.sample_aspect_ratio">0.888889</property>
  <property name="kdenlive:meta.media.0.codec.width">720</property>
  <property name="kdenlive:meta.media.0.codec.height">480</property>
  <property name="kdenlive:meta.media.0.codec.rotate">0</property>
  <property name="kdenlive:meta.media.0.codec.frame_rate">29.97</property>
  <property name="kdenlive:meta.media.0.codec.pix_fmt">yuv411p</property>
  <property name="kdenlive:meta.media.0.codec.sample_aspect_ratio">0.888889</property>
  <property name="kdenlive:meta.media.0.codec.colorspace">601</property>
  <property name="kdenlive:meta.media.0.codec.name">dvvideo</property>
  <property name="kdenlive:meta.media.0.codec.long_name">DV (Digital Video)</property>
  <property name="kdenlive:meta.media.0.codec.bit_rate">25000000</property>
  <property name="kdenlive:meta.media.1.stream.type">audio</property>
  <property name="kdenlive:meta.media.1.codec.sample_fmt">s16</property>
  <property name="kdenlive:meta.media.1.codec.sample_rate">32000</property>
  <property name="kdenlive:meta.media.1.codec.channels">2</property>
  <property name="kdenlive:meta.media.1.codec.name">pcm_s16le</property>
  <property name="kdenlive:meta.media.1.codec.long_name">PCM signed 16-bit little-endian</property>
  <property name="kdenlive:meta.media.1.codec.bit_rate">1024000</property>
  <property name="kdenlive:meta.media.2.stream.type">audio</property>
  <property name="kdenlive:meta.media.2.codec.sample_fmt">s16</property>
  <property name="kdenlive:meta.media.2.codec.sample_rate">32000</property>
  <property name="kdenlive:meta.media.2.codec.channels">2</property>
  <property name="kdenlive:meta.media.2.codec.name">pcm_s16le</property>
  <property name="kdenlive:meta.media.2.codec.long_name">PCM signed 16-bit little-endian</property>
  <property name="kdenlive:meta.media.2.codec.bit_rate">1024000</property>
  <property name="kdenlive:meta.attr.timecode.markup">00:02:52;29</property>
  <property name="kdenlive:meta.media.sample_aspect_num">8</property>
  <property name="kdenlive:meta.media.sample_aspect_den">9</property>
  <property name="kdenlive:meta.media.frame_rate_num">30000</property>
  <property name="kdenlive:meta.media.frame_rate_den">1001</property>
  <property name="kdenlive:meta.media.colorspace">601</property>
  <property name="kdenlive:meta.media.color_trc">2</property>
  <property name="kdenlive:meta.media.width">720</property>
  <property name="kdenlive:meta.media.height">480</property>
  <property name="kdenlive:zone_in">585</property>
  <property name="kdenlive:zone_out">773</property>
  <property name="xml">was here</property>
 </producer>
 <producer id="30_playlist2_audio" title="Anonymous Submission" out="673" in="0">
  <property name="length">00:00:22;15</property>
  <property name="eof">pause</property>
  <property name="resource">/home/thoth/.cache/kdenlive/proxy/e95cbe0f89c6428749f25bdfb4d5966f.mpg</property>
  <property name="meta.media.nb_streams">2</property>
  <property name="meta.media.0.stream.type">video</property>
  <property name="meta.media.0.stream.frame_rate">29.97</property>
  <property name="meta.media.0.stream.sample_aspect_ratio">0</property>
  <property name="meta.media.0.codec.width">640</property>
  <property name="meta.media.0.codec.height">427</property>
  <property name="meta.media.0.codec.rotate">0</property>
  <property name="meta.media.0.codec.frame_rate">29.97</property>
  <property name="meta.media.0.codec.pix_fmt">yuv422p</property>
  <property name="meta.media.0.codec.sample_aspect_ratio">0.889583</property>
  <property name="meta.media.0.codec.colorspace">601</property>
  <property name="meta.media.0.codec.name">mpeg2video</property>
  <property name="meta.media.0.codec.long_name">MPEG-2 video</property>
  <property name="meta.media.0.codec.bit_rate">0</property>
  <property name="meta.media.1.stream.type">audio</property>
  <property name="meta.media.1.codec.sample_fmt">s16p</property>
  <property name="meta.media.1.codec.sample_rate">32000</property>
  <property name="meta.media.1.codec.channels">2</property>
  <property name="meta.media.1.codec.name">mp2</property>
  <property name="meta.media.1.codec.long_name">MP2 (MPEG audio layer 2)</property>
  <property name="meta.media.1.codec.bit_rate">128000</property>
  <property name="seekable">1</property>
  <property name="meta.media.sample_aspect_num">427</property>
  <property name="meta.media.sample_aspect_den">480</property>
  <property name="aspect_ratio">0.889583</property>
  <property name="audio_index">1</property>
  <property name="video_index">-1</property>
  <property name="mute_on_pause">1</property>
  <property name="mlt_service">avformat</property>
  <property name="kdenlive:folderid">-1</property>
  <property name="kdenlive:file_size">81720000</property>
  <property name="kdenlive:file_hash">e95cbe0f89c6428749f25bdfb4d5966f</property>
  <property name="kdenlive:proxy">/home/thoth/.cache/kdenlive/proxy/e95cbe0f89c6428749f25bdfb4d5966f.mpg</property>
  <property name="proxy_out">680</property>
  <property name="kdenlive:originalurl">2001-07-07-beasty/beastiality-047.dv</property>
  <property name="global_feed">1</property>
  <property name="kdenlive:meta.media.nb_streams">3</property>
  <property name="kdenlive:meta.media.0.stream.type">video</property>
  <property name="kdenlive:meta.media.0.stream.frame_rate">29.97</property>
  <property name="kdenlive:meta.media.0.stream.sample_aspect_ratio">0.888889</property>
  <property name="kdenlive:meta.media.0.codec.width">720</property>
  <property name="kdenlive:meta.media.0.codec.height">480</property>
  <property name="kdenlive:meta.media.0.codec.rotate">0</property>
  <property name="kdenlive:meta.media.0.codec.frame_rate">29.97</property>
  <property name="kdenlive:meta.media.0.codec.pix_fmt">yuv411p</property>
  <property name="kdenlive:meta.media.0.codec.sample_aspect_ratio">0.888889</property>
  <property name="kdenlive:meta.media.0.codec.colorspace">601</property>
  <property name="kdenlive:meta.media.0.codec.name">dvvideo</property>
  <property name="kdenlive:meta.media.0.codec.long_name">DV (Digital Video)</property>
  <property name="kdenlive:meta.media.0.codec.bit_rate">25000000</property>
  <property name="kdenlive:meta.media.1.stream.type">audio</property>
  <property name="kdenlive:meta.media.1.codec.sample_fmt">s16</property>
  <property name="kdenlive:meta.media.1.codec.sample_rate">32000</property>
  <property name="kdenlive:meta.media.1.codec.channels">2</property>
  <property name="kdenlive:meta.media.1.codec.name">pcm_s16le</property>
  <property name="kdenlive:meta.media.1.codec.long_name">PCM signed 16-bit little-endian</property>
  <property name="kdenlive:meta.media.1.codec.bit_rate">1024000</property>
  <property name="kdenlive:meta.media.2.stream.type">audio</property>
  <property name="kdenlive:meta.media.2.codec.sample_fmt">s16</property>
  <property name="kdenlive:meta.media.2.codec.sample_rate">32000</property>
  <property name="kdenlive:meta.media.2.codec.channels">2</property>
  <property name="kdenlive:meta.media.2.codec.name">pcm_s16le</property>
  <property name="kdenlive:meta.media.2.codec.long_name">PCM signed 16-bit little-endian</property>
  <property name="kdenlive:meta.media.2.codec.bit_rate">1024000</property>
  <property name="kdenlive:meta.attr.timecode.markup">00:00:27;09</property>
  <property name="kdenlive:meta.media.sample_aspect_num">8</property>
  <property name="kdenlive:meta.media.sample_aspect_den">9</property>
  <property name="kdenlive:meta.media.frame_rate_num">30000</property>
  <property name="kdenlive:meta.media.frame_rate_den">1001</property>
  <property name="kdenlive:meta.media.colorspace">601</property>
  <property name="kdenlive:meta.media.color_trc">2</property>
  <property name="kdenlive:meta.media.width">720</property>
  <property name="kdenlive:meta.media.height">480</property>
  <property name="kdenlive:zone_in">242</property>
  <property name="kdenlive:zone_out">469</property>
  <property name="xml">was here</property>
 </producer>
 <producer id="31_playlist2_audio" title="Anonymous Submission" out="748" in="0">
  <property name="length">00:00:25;00</property>
  <property name="eof">pause</property>
  <property name="resource">/home/thoth/.cache/kdenlive/proxy/3e8a96f0497fce4f365a64a06b3b3784.mpg</property>
  <property name="meta.media.nb_streams">2</property>
  <property name="meta.media.0.stream.type">video</property>
  <property name="meta.media.0.stream.frame_rate">29.97</property>
  <property name="meta.media.0.stream.sample_aspect_ratio">0</property>
  <property name="meta.media.0.codec.width">640</property>
  <property name="meta.media.0.codec.height">427</property>
  <property name="meta.media.0.codec.rotate">0</property>
  <property name="meta.media.0.codec.frame_rate">29.97</property>
  <property name="meta.media.0.codec.pix_fmt">yuv422p</property>
  <property name="meta.media.0.codec.sample_aspect_ratio">0.889583</property>
  <property name="meta.media.0.codec.colorspace">601</property>
  <property name="meta.media.0.codec.name">mpeg2video</property>
  <property name="meta.media.0.codec.long_name">MPEG-2 video</property>
  <property name="meta.media.0.codec.bit_rate">0</property>
  <property name="meta.media.1.stream.type">audio</property>
  <property name="meta.media.1.codec.sample_fmt">s16p</property>
  <property name="meta.media.1.codec.sample_rate">32000</property>
  <property name="meta.media.1.codec.channels">2</property>
  <property name="meta.media.1.codec.name">mp2</property>
  <property name="meta.media.1.codec.long_name">MP2 (MPEG audio layer 2)</property>
  <property name="meta.media.1.codec.bit_rate">128000</property>
  <property name="seekable">1</property>
  <property name="meta.media.sample_aspect_num">427</property>
  <property name="meta.media.sample_aspect_den">480</property>
  <property name="aspect_ratio">0.889583</property>
  <property name="audio_index">1</property>
  <property name="video_index">-1</property>
  <property name="mute_on_pause">1</property>
  <property name="mlt_service">avformat</property>
  <property name="kdenlive:folderid">-1</property>
  <property name="kdenlive:file_size">90720000</property>
  <property name="kdenlive:file_hash">3e8a96f0497fce4f365a64a06b3b3784</property>
  <property name="kdenlive:proxy">/home/thoth/.cache/kdenlive/proxy/3e8a96f0497fce4f365a64a06b3b3784.mpg</property>
  <property name="proxy_out">755</property>
  <property name="kdenlive:originalurl">2001-07-07-beasty/beastiality-048.dv</property>
  <property name="global_feed">1</property>
  <property name="kdenlive:meta.media.nb_streams">3</property>
  <property name="kdenlive:meta.media.0.stream.type">video</property>
  <property name="kdenlive:meta.media.0.stream.frame_rate">29.97</property>
  <property name="kdenlive:meta.media.0.stream.sample_aspect_ratio">0.888889</property>
  <property name="kdenlive:meta.media.0.codec.width">720</property>
  <property name="kdenlive:meta.media.0.codec.height">480</property>
  <property name="kdenlive:meta.media.0.codec.rotate">0</property>
  <property name="kdenlive:meta.media.0.codec.frame_rate">29.97</property>
  <property name="kdenlive:meta.media.0.codec.pix_fmt">yuv411p</property>
  <property name="kdenlive:meta.media.0.codec.sample_aspect_ratio">0.888889</property>
  <property name="kdenlive:meta.media.0.codec.colorspace">601</property>
  <property name="kdenlive:meta.media.0.codec.name">dvvideo</property>
  <property name="kdenlive:meta.media.0.codec.long_name">DV (Digital Video)</property>
  <property name="kdenlive:meta.media.0.codec.bit_rate">25000000</property>
  <property name="kdenlive:meta.media.1.stream.type">audio</property>
  <property name="kdenlive:meta.media.1.codec.sample_fmt">s16</property>
  <property name="kdenlive:meta.media.1.codec.sample_rate">32000</property>
  <property name="kdenlive:meta.media.1.codec.channels">2</property>
  <property name="kdenlive:meta.media.1.codec.name">pcm_s16le</property>
  <property name="kdenlive:meta.media.1.codec.long_name">PCM signed 16-bit little-endian</property>
  <property name="kdenlive:meta.media.1.codec.bit_rate">1024000</property>
  <property name="kdenlive:meta.media.2.stream.type">audio</property>
  <property name="kdenlive:meta.media.2.codec.sample_fmt">s16</property>
  <property name="kdenlive:meta.media.2.codec.sample_rate">32000</property>
  <property name="kdenlive:meta.media.2.codec.channels">2</property>
  <property name="kdenlive:meta.media.2.codec.name">pcm_s16le</property>
  <property name="kdenlive:meta.media.2.codec.long_name">PCM signed 16-bit little-endian</property>
  <property name="kdenlive:meta.media.2.codec.bit_rate">1024000</property>
  <property name="kdenlive:meta.attr.timecode.markup">00:00:50;00</property>
  <property name="kdenlive:meta.media.sample_aspect_num">8</property>
  <property name="kdenlive:meta.media.sample_aspect_den">9</property>
  <property name="kdenlive:meta.media.frame_rate_num">30000</property>
  <property name="kdenlive:meta.media.frame_rate_den">1001</property>
  <property name="kdenlive:meta.media.colorspace">601</property>
  <property name="kdenlive:meta.media.color_trc">2</property>
  <property name="kdenlive:meta.media.width">720</property>
  <property name="kdenlive:meta.media.height">480</property>
  <property name="kdenlive:zone_in">0</property>
  <property name="kdenlive:zone_out">667</property>
  <property name="xml">was here</property>
 </producer>
 <producer id="32_playlist2_audio" title="Anonymous Submission" out="2128" in="0">
  <property name="length">00:01:11;01</property>
  <property name="eof">pause</property>
  <property name="resource">/home/thoth/.cache/kdenlive/proxy/ea2e46e63f0ea7d0afc0b309d587f5f3.mpg</property>
  <property name="meta.media.nb_streams">2</property>
  <property name="meta.media.0.stream.type">video</property>
  <property name="meta.media.0.stream.frame_rate">29.97</property>
  <property name="meta.media.0.stream.sample_aspect_ratio">0</property>
  <property name="meta.media.0.codec.width">640</property>
  <property name="meta.media.0.codec.height">427</property>
  <property name="meta.media.0.codec.rotate">0</property>
  <property name="meta.media.0.codec.frame_rate">29.97</property>
  <property name="meta.media.0.codec.pix_fmt">yuv422p</property>
  <property name="meta.media.0.codec.sample_aspect_ratio">0.889583</property>
  <property name="meta.media.0.codec.colorspace">601</property>
  <property name="meta.media.0.codec.name">mpeg2video</property>
  <property name="meta.media.0.codec.long_name">MPEG-2 video</property>
  <property name="meta.media.0.codec.bit_rate">0</property>
  <property name="meta.media.1.stream.type">audio</property>
  <property name="meta.media.1.codec.sample_fmt">s16p</property>
  <property name="meta.media.1.codec.sample_rate">32000</property>
  <property name="meta.media.1.codec.channels">2</property>
  <property name="meta.media.1.codec.name">mp2</property>
  <property name="meta.media.1.codec.long_name">MP2 (MPEG audio layer 2)</property>
  <property name="meta.media.1.codec.bit_rate">128000</property>
  <property name="seekable">1</property>
  <property name="meta.media.sample_aspect_num">427</property>
  <property name="meta.media.sample_aspect_den">480</property>
  <property name="aspect_ratio">0.889583</property>
  <property name="audio_index">1</property>
  <property name="video_index">-1</property>
  <property name="mute_on_pause">1</property>
  <property name="mlt_service">avformat</property>
  <property name="kdenlive:folderid">-1</property>
  <property name="kdenlive:file_size">255480000</property>
  <property name="kdenlive:file_hash">ea2e46e63f0ea7d0afc0b309d587f5f3</property>
  <property name="kdenlive:proxy">/home/thoth/.cache/kdenlive/proxy/ea2e46e63f0ea7d0afc0b309d587f5f3.mpg</property>
  <property name="proxy_out">2128</property>
  <property name="kdenlive:originalurl">2001-07-07-beasty/beastiality-049.dv</property>
  <property name="global_feed">1</property>
  <property name="kdenlive:meta.media.nb_streams">3</property>
  <property name="kdenlive:meta.media.0.stream.type">video</property>
  <property name="kdenlive:meta.media.0.stream.frame_rate">29.97</property>
  <property name="kdenlive:meta.media.0.stream.sample_aspect_ratio">0.888889</property>
  <property name="kdenlive:meta.media.0.codec.width">720</property>
  <property name="kdenlive:meta.media.0.codec.height">480</property>
  <property name="kdenlive:meta.media.0.codec.rotate">0</property>
  <property name="kdenlive:meta.media.0.codec.frame_rate">29.97</property>
  <property name="kdenlive:meta.media.0.codec.pix_fmt">yuv411p</property>
  <property name="kdenlive:meta.media.0.codec.sample_aspect_ratio">0.888889</property>
  <property name="kdenlive:meta.media.0.codec.colorspace">601</property>
  <property name="kdenlive:meta.media.0.codec.name">dvvideo</property>
  <property name="kdenlive:meta.media.0.codec.long_name">DV (Digital Video)</property>
  <property name="kdenlive:meta.media.0.codec.bit_rate">25000000</property>
  <property name="kdenlive:meta.media.1.stream.type">audio</property>
  <property name="kdenlive:meta.media.1.codec.sample_fmt">s16</property>
  <property name="kdenlive:meta.media.1.codec.sample_rate">32000</property>
  <property name="kdenlive:meta.media.1.codec.channels">2</property>
  <property name="kdenlive:meta.media.1.codec.name">pcm_s16le</property>
  <property name="kdenlive:meta.media.1.codec.long_name">PCM signed 16-bit little-endian</property>
  <property name="kdenlive:meta.media.1.codec.bit_rate">1024000</property>
  <property name="kdenlive:meta.media.2.stream.type">audio</property>
  <property name="kdenlive:meta.media.2.codec.sample_fmt">s16</property>
  <property name="kdenlive:meta.media.2.codec.sample_rate">32000</property>
  <property name="kdenlive:meta.media.2.codec.channels">2</property>
  <property name="kdenlive:meta.media.2.codec.name">pcm_s16le</property>
  <property name="kdenlive:meta.media.2.codec.long_name">PCM signed 16-bit little-endian</property>
  <property name="kdenlive:meta.media.2.codec.bit_rate">1024000</property>
  <property name="kdenlive:meta.attr.timecode.markup">00:01:15;08</property>
  <property name="kdenlive:meta.media.sample_aspect_num">8</property>
  <property name="kdenlive:meta.media.sample_aspect_den">9</property>
  <property name="kdenlive:meta.media.frame_rate_num">30000</property>
  <property name="kdenlive:meta.media.frame_rate_den">1001</property>
  <property name="kdenlive:meta.media.colorspace">601</property>
  <property name="kdenlive:meta.media.color_trc">2</property>
  <property name="kdenlive:meta.media.width">720</property>
  <property name="kdenlive:meta.media.height">480</property>
  <property name="kdenlive:zone_in">334</property>
  <property name="kdenlive:zone_out">2126</property>
  <property name="xml">was here</property>
 </producer>
 <producer id="37_playlist2_audio" title="Anonymous Submission" out="3024" in="0">
  <property name="length">00:01:40;28</property>
  <property name="eof">pause</property>
  <property name="resource">/home/thoth/.cache/kdenlive/proxy/b41e37119c20e5f71afc0df657fe641c.mpg</property>
  <property name="meta.media.nb_streams">2</property>
  <property name="meta.media.0.stream.type">video</property>
  <property name="meta.media.0.stream.frame_rate">29.97</property>
  <property name="meta.media.0.stream.sample_aspect_ratio">0</property>
  <property name="meta.media.0.codec.width">640</property>
  <property name="meta.media.0.codec.height">427</property>
  <property name="meta.media.0.codec.rotate">0</property>
  <property name="meta.media.0.codec.frame_rate">29.97</property>
  <property name="meta.media.0.codec.pix_fmt">yuv422p</property>
  <property name="meta.media.0.codec.sample_aspect_ratio">0.889583</property>
  <property name="meta.media.0.codec.colorspace">601</property>
  <property name="meta.media.0.codec.name">mpeg2video</property>
  <property name="meta.media.0.codec.long_name">MPEG-2 video</property>
  <property name="meta.media.0.codec.bit_rate">0</property>
  <property name="meta.media.1.stream.type">audio</property>
  <property name="meta.media.1.codec.sample_fmt">s16p</property>
  <property name="meta.media.1.codec.sample_rate">32000</property>
  <property name="meta.media.1.codec.channels">2</property>
  <property name="meta.media.1.codec.name">mp2</property>
  <property name="meta.media.1.codec.long_name">MP2 (MPEG audio layer 2)</property>
  <property name="meta.media.1.codec.bit_rate">128000</property>
  <property name="seekable">1</property>
  <property name="meta.media.sample_aspect_num">427</property>
  <property name="meta.media.sample_aspect_den">480</property>
  <property name="aspect_ratio">0.889583</property>
  <property name="audio_index">1</property>
  <property name="video_index">-1</property>
  <property name="mute_on_pause">1</property>
  <property name="mlt_service">avformat</property>
  <property name="kdenlive:folderid">-1</property>
  <property name="kdenlive:file_size">363840000</property>
  <property name="kdenlive:file_hash">b41e37119c20e5f71afc0df657fe641c</property>
  <property name="kdenlive:proxy">/home/thoth/.cache/kdenlive/proxy/b41e37119c20e5f71afc0df657fe641c.mpg</property>
  <property name="proxy_out">3031</property>
  <property name="kdenlive:originalurl">2001-07-07-beasty/beastiality-050.dv</property>
  <property name="global_feed">1</property>
  <property name="kdenlive:meta.media.nb_streams">3</property>
  <property name="kdenlive:meta.media.0.stream.type">video</property>
  <property name="kdenlive:meta.media.0.stream.frame_rate">29.97</property>
  <property name="kdenlive:meta.media.0.stream.sample_aspect_ratio">0.888889</property>
  <property name="kdenlive:meta.media.0.codec.width">720</property>
  <property name="kdenlive:meta.media.0.codec.height">480</property>
  <property name="kdenlive:meta.media.0.codec.rotate">0</property>
  <property name="kdenlive:meta.media.0.codec.frame_rate">29.97</property>
  <property name="kdenlive:meta.media.0.codec.pix_fmt">yuv411p</property>
  <property name="kdenlive:meta.media.0.codec.sample_aspect_ratio">0.888889</property>
  <property name="kdenlive:meta.media.0.codec.colorspace">601</property>
  <property name="kdenlive:meta.media.0.codec.name">dvvideo</property>
  <property name="kdenlive:meta.media.0.codec.long_name">DV (Digital Video)</property>
  <property name="kdenlive:meta.media.0.codec.bit_rate">25000000</property>
  <property name="kdenlive:meta.media.1.stream.type">audio</property>
  <property name="kdenlive:meta.media.1.codec.sample_fmt">s16</property>
  <property name="kdenlive:meta.media.1.codec.sample_rate">32000</property>
  <property name="kdenlive:meta.media.1.codec.channels">2</property>
  <property name="kdenlive:meta.media.1.codec.name">pcm_s16le</property>
  <property name="kdenlive:meta.media.1.codec.long_name">PCM signed 16-bit little-endian</property>
  <property name="kdenlive:meta.media.1.codec.bit_rate">1024000</property>
  <property name="kdenlive:meta.media.2.stream.type">audio</property>
  <property name="kdenlive:meta.media.2.codec.sample_fmt">s16</property>
  <property name="kdenlive:meta.media.2.codec.sample_rate">32000</property>
  <property name="kdenlive:meta.media.2.codec.channels">2</property>
  <property name="kdenlive:meta.media.2.codec.name">pcm_s16le</property>
  <property name="kdenlive:meta.media.2.codec.long_name">PCM signed 16-bit little-endian</property>
  <property name="kdenlive:meta.media.2.codec.bit_rate">1024000</property>
  <property name="kdenlive:meta.media.sample_aspect_num">8</property>
  <property name="kdenlive:meta.media.sample_aspect_den">9</property>
  <property name="kdenlive:meta.media.frame_rate_num">30000</property>
  <property name="kdenlive:meta.media.frame_rate_den">1001</property>
  <property name="kdenlive:meta.media.colorspace">601</property>
  <property name="kdenlive:meta.media.color_trc">2</property>
  <property name="kdenlive:meta.media.width">720</property>
  <property name="kdenlive:meta.media.height">480</property>
  <property name="kdenlive:zone_in">2845</property>
  <property name="kdenlive:zone_out">2997</property>
  <property name="xml">was here</property>
 </producer>
 <producer id="69_playlist2_audio" title="Anonymous Submission" out="821" in="0">
  <property name="length">00:00:27;13</property>
  <property name="eof">pause</property>
  <property name="resource">/home/thoth/.cache/kdenlive/proxy/d581c56b2a74b9d66de7aa9191a1133a.mpg</property>
  <property name="meta.media.nb_streams">2</property>
  <property name="meta.media.0.stream.type">video</property>
  <property name="meta.media.0.stream.frame_rate">29.97</property>
  <property name="meta.media.0.stream.sample_aspect_ratio">0</property>
  <property name="meta.media.0.codec.width">640</property>
  <property name="meta.media.0.codec.height">427</property>
  <property name="meta.media.0.codec.rotate">0</property>
  <property name="meta.media.0.codec.frame_rate">29.97</property>
  <property name="meta.media.0.codec.pix_fmt">yuv422p</property>
  <property name="meta.media.0.codec.sample_aspect_ratio">0.889583</property>
  <property name="meta.media.0.codec.colorspace">601</property>
  <property name="meta.media.0.codec.name">mpeg2video</property>
  <property name="meta.media.0.codec.long_name">MPEG-2 video</property>
  <property name="meta.media.0.codec.bit_rate">0</property>
  <property name="meta.media.1.stream.type">audio</property>
  <property name="meta.media.1.codec.sample_fmt">s16p</property>
  <property name="meta.media.1.codec.sample_rate">32000</property>
  <property name="meta.media.1.codec.channels">2</property>
  <property name="meta.media.1.codec.name">mp2</property>
  <property name="meta.media.1.codec.long_name">MP2 (MPEG audio layer 2)</property>
  <property name="meta.media.1.codec.bit_rate">128000</property>
  <property name="seekable">1</property>
  <property name="meta.media.sample_aspect_num">427</property>
  <property name="meta.media.sample_aspect_den">480</property>
  <property name="aspect_ratio">0.889583</property>
  <property name="audio_index">1</property>
  <property name="video_index">-1</property>
  <property name="mute_on_pause">1</property>
  <property name="mlt_service">avformat</property>
  <property name="kdenlive:folderid">-1</property>
  <property name="kdenlive:file_size">99240000</property>
  <property name="kdenlive:file_hash">d581c56b2a74b9d66de7aa9191a1133a</property>
  <property name="kdenlive:proxy">/home/thoth/.cache/kdenlive/proxy/d581c56b2a74b9d66de7aa9191a1133a.mpg</property>
  <property name="proxy_out">826</property>
  <property name="kdenlive:originalurl">2001-07-07-beasty/beastiality-068.dv</property>
  <property name="global_feed">1</property>
  <property name="kdenlive:meta.media.nb_streams">3</property>
  <property name="kdenlive:meta.media.0.stream.type">video</property>
  <property name="kdenlive:meta.media.0.stream.frame_rate">29.97</property>
  <property name="kdenlive:meta.media.0.stream.sample_aspect_ratio">0.888889</property>
  <property name="kdenlive:meta.media.0.codec.width">720</property>
  <property name="kdenlive:meta.media.0.codec.height">480</property>
  <property name="kdenlive:meta.media.0.codec.rotate">0</property>
  <property name="kdenlive:meta.media.0.codec.frame_rate">29.97</property>
  <property name="kdenlive:meta.media.0.codec.pix_fmt">yuv411p</property>
  <property name="kdenlive:meta.media.0.codec.sample_aspect_ratio">0.888889</property>
  <property name="kdenlive:meta.media.0.codec.colorspace">601</property>
  <property name="kdenlive:meta.media.0.codec.name">dvvideo</property>
  <property name="kdenlive:meta.media.0.codec.long_name">DV (Digital Video)</property>
  <property name="kdenlive:meta.media.0.codec.bit_rate">25000000</property>
  <property name="kdenlive:meta.media.1.stream.type">audio</property>
  <property name="kdenlive:meta.media.1.codec.sample_fmt">s16</property>
  <property name="kdenlive:meta.media.1.codec.sample_rate">32000</property>
  <property name="kdenlive:meta.media.1.codec.channels">2</property>
  <property name="kdenlive:meta.media.1.codec.name">pcm_s16le</property>
  <property name="kdenlive:meta.media.1.codec.long_name">PCM signed 16-bit little-endian</property>
  <property name="kdenlive:meta.media.1.codec.bit_rate">1024000</property>
  <property name="kdenlive:meta.media.2.stream.type">audio</property>
  <property name="kdenlive:meta.media.2.codec.sample_fmt">s16</property>
  <property name="kdenlive:meta.media.2.codec.sample_rate">32000</property>
  <property name="kdenlive:meta.media.2.codec.channels">2</property>
  <property name="kdenlive:meta.media.2.codec.name">pcm_s16le</property>
  <property name="kdenlive:meta.media.2.codec.long_name">PCM signed 16-bit little-endian</property>
  <property name="kdenlive:meta.media.2.codec.bit_rate">1024000</property>
  <property name="kdenlive:meta.attr.timecode.markup">00:02:50;22</property>
  <property name="kdenlive:meta.media.sample_aspect_num">8</property>
  <property name="kdenlive:meta.media.sample_aspect_den">9</property>
  <property name="kdenlive:meta.media.frame_rate_num">30000</property>
  <property name="kdenlive:meta.media.frame_rate_den">1001</property>
  <property name="kdenlive:meta.media.colorspace">601</property>
  <property name="kdenlive:meta.media.color_trc">2</property>
  <property name="kdenlive:meta.media.width">720</property>
  <property name="kdenlive:meta.media.height">480</property>
  <property name="kdenlive:zone_in">42</property>
  <property name="kdenlive:zone_out">636</property>
  <property name="xml">was here</property>
 </producer>
 <producer id="70_playlist2_audio" title="Anonymous Submission" out="1490" in="0">
  <property name="length">00:00:49;22</property>
  <property name="eof">pause</property>
  <property name="resource">/home/thoth/.cache/kdenlive/proxy/272e985545cd9923e2cf484ef812e786.mpg</property>
  <property name="meta.media.nb_streams">2</property>
  <property name="meta.media.0.stream.type">video</property>
  <property name="meta.media.0.stream.frame_rate">29.97</property>
  <property name="meta.media.0.stream.sample_aspect_ratio">0</property>
  <property name="meta.media.0.codec.width">640</property>
  <property name="meta.media.0.codec.height">427</property>
  <property name="meta.media.0.codec.rotate">0</property>
  <property name="meta.media.0.codec.frame_rate">29.97</property>
  <property name="meta.media.0.codec.pix_fmt">yuv422p</property>
  <property name="meta.media.0.codec.sample_aspect_ratio">0.889583</property>
  <property name="meta.media.0.codec.colorspace">601</property>
  <property name="meta.media.0.codec.name">mpeg2video</property>
  <property name="meta.media.0.codec.long_name">MPEG-2 video</property>
  <property name="meta.media.0.codec.bit_rate">0</property>
  <property name="meta.media.1.stream.type">audio</property>
  <property name="meta.media.1.codec.sample_fmt">s16p</property>
  <property name="meta.media.1.codec.sample_rate">32000</property>
  <property name="meta.media.1.codec.channels">2</property>
  <property name="meta.media.1.codec.name">mp2</property>
  <property name="meta.media.1.codec.long_name">MP2 (MPEG audio layer 2)</property>
  <property name="meta.media.1.codec.bit_rate">128000</property>
  <property name="seekable">1</property>
  <property name="meta.media.sample_aspect_num">427</property>
  <property name="meta.media.sample_aspect_den">480</property>
  <property name="aspect_ratio">0.889583</property>
  <property name="audio_index">1</property>
  <property name="video_index">-1</property>
  <property name="mute_on_pause">1</property>
  <property name="mlt_service">avformat</property>
  <property name="kdenlive:folderid">-1</property>
  <property name="kdenlive:file_size">180120000</property>
  <property name="kdenlive:file_hash">272e985545cd9923e2cf484ef812e786</property>
  <property name="kdenlive:proxy">/home/thoth/.cache/kdenlive/proxy/272e985545cd9923e2cf484ef812e786.mpg</property>
  <property name="proxy_out">1500</property>
  <property name="kdenlive:originalurl">2001-07-07-beasty/beastiality-069.dv</property>
  <property name="global_feed">1</property>
  <property name="kdenlive:meta.media.nb_streams">3</property>
  <property name="kdenlive:meta.media.0.stream.type">video</property>
  <property name="kdenlive:meta.media.0.stream.frame_rate">29.97</property>
  <property name="kdenlive:meta.media.0.stream.sample_aspect_ratio">0.888889</property>
  <property name="kdenlive:meta.media.0.codec.width">720</property>
  <property name="kdenlive:meta.media.0.codec.height">480</property>
  <property name="kdenlive:meta.media.0.codec.rotate">0</property>
  <property name="kdenlive:meta.media.0.codec.frame_rate">29.97</property>
  <property name="kdenlive:meta.media.0.codec.pix_fmt">yuv411p</property>
  <property name="kdenlive:meta.media.0.codec.sample_aspect_ratio">0.888889</property>
  <property name="kdenlive:meta.media.0.codec.colorspace">601</property>
  <property name="kdenlive:meta.media.0.codec.name">dvvideo</property>
  <property name="kdenlive:meta.media.0.codec.long_name">DV (Digital Video)</property>
  <property name="kdenlive:meta.media.0.codec.bit_rate">25000000</property>
  <property name="kdenlive:meta.media.1.stream.type">audio</property>
  <property name="kdenlive:meta.media.1.codec.sample_fmt">s16</property>
  <property name="kdenlive:meta.media.1.codec.sample_rate">32000</property>
  <property name="kdenlive:meta.media.1.codec.channels">2</property>
  <property name="kdenlive:meta.media.1.codec.name">pcm_s16le</property>
  <property name="kdenlive:meta.media.1.codec.long_name">PCM signed 16-bit little-endian</property>
  <property name="kdenlive:meta.media.1.codec.bit_rate">1024000</property>
  <property name="kdenlive:meta.media.2.stream.type">audio</property>
  <property name="kdenlive:meta.media.2.codec.sample_fmt">s16</property>
  <property name="kdenlive:meta.media.2.codec.sample_rate">32000</property>
  <property name="kdenlive:meta.media.2.codec.channels">2</property>
  <property name="kdenlive:meta.media.2.codec.name">pcm_s16le</property>
  <property name="kdenlive:meta.media.2.codec.long_name">PCM signed 16-bit little-endian</property>
  <property name="kdenlive:meta.media.2.codec.bit_rate">1024000</property>
  <property name="kdenlive:meta.media.sample_aspect_num">8</property>
  <property name="kdenlive:meta.media.sample_aspect_den">9</property>
  <property name="kdenlive:meta.media.frame_rate_num">30000</property>
  <property name="kdenlive:meta.media.frame_rate_den">1001</property>
  <property name="kdenlive:meta.media.colorspace">601</property>
  <property name="kdenlive:meta.media.color_trc">2</property>
  <property name="kdenlive:meta.media.width">720</property>
  <property name="kdenlive:meta.media.height">480</property>
  <property name="kdenlive:zone_in">39</property>
  <property name="kdenlive:zone_out">328</property>
  <property name="xml">was here</property>
 </producer>
 <playlist id="playlist2">
  <property name="kdenlive:track_name">Audio 1</property>
  <property name="kdenlive:audio_track">1</property>
  <property name="kdenlive:locked_track">0</property>
  <blank length="3382"/>
  <entry out="625" producer="27_playlist2_audio" in="366">
   <filter id="volume">
    <property name="window">75</property>
    <property name="max_gain">20dB</property>
    <property name="level">263=0;362=0;366=-26.6667;371=-60;575=-60;599=0;625=0</property>
    <property name="mlt_service">volume</property>
    <property name="kdenlive_id">volume</property>
    <property name="tag">volume</property>
    <property name="kdenlive_ix">1</property>
    <property name="kdenlive_info"/>
    <property name="disable"/>
   </filter>
  </entry>
  <blank length="273"/>
  <entry out="132" producer="34_playlist2_audio" in="0">
   <filter id="filter0">
    <property name="window">75</property>
    <property name="max_gain">20dB</property>
    <property name="level">0=0;132=0</property>
    <property name="mlt_service">volume</property>
    <property name="kdenlive_id">volume</property>
    <property name="tag">volume</property>
    <property name="kdenlive_ix">1</property>
    <property name="kdenlive_info"/>
    <property name="disable"/>
   </filter>
  </entry>
  <blank length="73"/>
  <entry out="264" producer="34_playlist2_audio" in="133">
   <filter id="filter1">
    <property name="window">75</property>
    <property name="max_gain">20dB</property>
    <property name="level">0=0;133=0;210=0;226=-60;264=-60</property>
    <property name="mlt_service">volume</property>
    <property name="kdenlive_id">volume</property>
    <property name="tag">volume</property>
    <property name="kdenlive_ix">1</property>
    <property name="kdenlive_info"/>
    <property name="disable"/>
   </filter>
  </entry>
  <blank length="1693"/>
  <entry out="567" producer="56_playlist2_audio" in="323">
   <filter id="filter2">
    <property name="window">75</property>
    <property name="max_gain">20dB</property>
    <property name="level">323=0;404=-0.869565;414=-60;427=-60;448=12;513=12;544=0</property>
    <property name="mlt_service">volume</property>
    <property name="kdenlive_id">volume</property>
    <property name="tag">volume</property>
    <property name="kdenlive_ix">1</property>
    <property name="kdenlive_info"/>
    <property name="disable"/>
   </filter>
  </entry>
  <blank length="73"/>
  <entry out="537" producer="58_playlist2_audio" in="425">
   <filter id="filter3">
    <property name="window">75</property>
    <property name="max_gain">20dB</property>
    <property name="level">425=-5;439=12</property>
    <property name="mlt_service">volume</property>
    <property name="kdenlive_id">volume</property>
    <property name="tag">volume</property>
    <property name="kdenlive_ix">1</property>
    <property name="kdenlive_info"/>
   </filter>
  </entry>
  <entry out="773" producer="58_playlist2_audio" in="585">
   <filter id="filter4">
    <property name="window">75</property>
    <property name="max_gain">20dB</property>
    <property name="level">585=-60;601=0</property>
    <property name="mlt_service">volume</property>
    <property name="kdenlive_id">volume</property>
    <property name="tag">volume</property>
    <property name="kdenlive_ix">1</property>
    <property name="kdenlive_info"/>
   </filter>
  </entry>
  <blank length="421"/>
  <entry out="469" producer="30_playlist2_audio" in="242">
   <filter id="filter5">
    <property name="window">75</property>
    <property name="max_gain">20dB</property>
    <property name="level">242=0;371=0;395=-60</property>
    <property name="mlt_service">volume</property>
    <property name="kdenlive_id">volume</property>
    <property name="tag">volume</property>
    <property name="kdenlive_ix">1</property>
    <property name="kdenlive_info"/>
   </filter>
  </entry>
  <blank length="270"/>
  <entry out="667" producer="31_playlist2_audio" in="272">
   <filter id="filter6">
    <property name="window">75</property>
    <property name="max_gain">20dB</property>
    <property name="level">272=0;373=0;383=-60;427=-60;435=0</property>
    <property name="mlt_service">volume</property>
    <property name="kdenlive_id">volume</property>
    <property name="tag">volume</property>
    <property name="kdenlive_ix">1</property>
    <property name="kdenlive_info"/>
   </filter>
  </entry>
  <blank length="1004"/>
  <entry out="1421" producer="32_playlist2_audio" in="1064">
   <filter id="filter7">
    <property name="window">75</property>
    <property name="max_gain">20dB</property>
    <property name="level">1064=0;1080=0;1109=-60;1173=-60;1180=0;1385=0;1399=-60</property>
    <property name="mlt_service">volume</property>
    <property name="kdenlive_id">volume</property>
    <property name="tag">volume</property>
    <property name="kdenlive_ix">1</property>
    <property name="kdenlive_info"/>
   </filter>
  </entry>
  <entry out="560" producer="37_playlist2_audio" in="274">
   <filter id="filter8">
    <property name="window">75</property>
    <property name="max_gain">20dB</property>
    <property name="level">274=0;305=0;307=-60;331=-60;333=0;380=-6.08696;381=-60;390=-60;396=-0.869565;548=-0.869565;555=-60</property>
    <property name="mlt_service">volume</property>
    <property name="kdenlive_id">volume</property>
    <property name="tag">volume</property>
    <property name="kdenlive_ix">1</property>
    <property name="kdenlive_info"/>
    <property name="disable"/>
   </filter>
  </entry>
  <entry out="1557" producer="32_playlist2_audio" in="1422">
   <filter id="filter9">
    <property name="window">75</property>
    <property name="max_gain">20dB</property>
    <property name="level">1422=-60;1471=-60;1473=0;1511=0;1512=-60;1542=-54.7826;1546=0.869565</property>
    <property name="mlt_service">volume</property>
    <property name="kdenlive_id">volume</property>
    <property name="tag">volume</property>
    <property name="kdenlive_ix">1</property>
    <property name="kdenlive_info"/>
    <property name="disable"/>
   </filter>
  </entry>
  <entry out="836" producer="37_playlist2_audio" in="561">
   <filter id="filter10">
    <property name="window">75</property>
    <property name="max_gain">20dB</property>
    <property name="level">561=0;809=0;819=-60</property>
    <property name="mlt_service">volume</property>
    <property name="kdenlive_id">volume</property>
    <property name="tag">volume</property>
    <property name="kdenlive_ix">1</property>
    <property name="kdenlive_info"/>
   </filter>
  </entry>
  <blank length="140"/>
  <entry out="1303" producer="37_playlist2_audio" in="1022">
   <filter id="filter11">
    <property name="window">75</property>
    <property name="max_gain">20dB</property>
    <property name="level">1022=-60;1087=-60;1094=0</property>
    <property name="mlt_service">volume</property>
    <property name="kdenlive_id">volume</property>
    <property name="tag">volume</property>
    <property name="kdenlive_ix">1</property>
    <property name="kdenlive_info"/>
   </filter>
  </entry>
  <entry out="1931" producer="32_playlist2_audio" in="1698">
   <filter id="filter12">
    <property name="window">75</property>
    <property name="max_gain">20dB</property>
    <property name="level">1698=-60;1810=-60;1824=0</property>
    <property name="mlt_service">volume</property>
    <property name="kdenlive_id">volume</property>
    <property name="tag">volume</property>
    <property name="kdenlive_ix">1</property>
    <property name="kdenlive_info"/>
   </filter>
  </entry>
  <entry out="2128" producer="32_playlist2_audio" in="1932">
   <filter id="filter13">
    <property name="window">75</property>
    <property name="max_gain">20dB</property>
    <property name="level">1932=0;2127=0.869565;2128=-28.6957</property>
    <property name="mlt_service">volume</property>
    <property name="kdenlive_id">volume</property>
    <property name="tag">volume</property>
    <property name="kdenlive_ix">1</property>
    <property name="kdenlive_info"/>
   </filter>
  </entry>
  <entry out="2844" producer="37_playlist2_audio" in="1418">
   <filter id="filter14">
    <property name="window">75</property>
    <property name="max_gain">20dB</property>
    <property name="level">1418=0;1491=0;1498=-60;1553=-60;1570=-60;2094=-60;2125=0;2239=-0.869565;2244=-60;2396=-60;2406=-0.869565;2564=-0.869565;2586=-60;2677=-60;2686=-5</property>
    <property name="mlt_service">volume</property>
    <property name="kdenlive_id">volume</property>
    <property name="tag">volume</property>
    <property name="kdenlive_ix">1</property>
    <property name="kdenlive_info"/>
    <property name="disable"/>
   </filter>
  </entry>
  <blank length="1708"/>
  <entry out="636" producer="69_playlist2_audio" in="165">
   <filter id="filter15">
    <property name="window">75</property>
    <property name="max_gain">20dB</property>
    <property name="level">92=-60;107=0;148=0;165=0;563=0;565=-60;636=-60</property>
    <property name="mlt_service">volume</property>
    <property name="kdenlive_id">volume</property>
    <property name="tag">volume</property>
    <property name="kdenlive_ix">1</property>
    <property name="kdenlive_info"/>
    <property name="disable"/>
   </filter>
  </entry>
  <blank length="112"/>
  <entry out="328" producer="70_playlist2_audio" in="39">
   <filter id="filter16">
    <property name="window">75</property>
    <property name="max_gain">20dB</property>
    <property name="level">62=-0.869565;172=32.1739;217=30.4348;328=-60</property>
    <property name="mlt_service">volume</property>
    <property name="kdenlive_id">volume</property>
    <property name="tag">volume</property>
    <property name="kdenlive_ix">1</property>
    <property name="kdenlive_info"/>
   </filter>
  </entry>
 </playlist>
 <producer id="4_video" title="Anonymous Submission" out="1473" in="0">
  <property name="length">00:00:49;05</property>
  <property name="eof">pause</property>
  <property name="resource">/home/thoth/.cache/kdenlive/proxy/fbe1cb59785942873aa839eeaa42d487.mpg</property>
  <property name="meta.media.nb_streams">2</property>
  <property name="meta.media.0.stream.type">video</property>
  <property name="meta.media.0.stream.frame_rate">29.97</property>
  <property name="meta.media.0.stream.sample_aspect_ratio">0</property>
  <property name="meta.media.0.codec.width">640</property>
  <property name="meta.media.0.codec.height">427</property>
  <property name="meta.media.0.codec.rotate">0</property>
  <property name="meta.media.0.codec.frame_rate">29.97</property>
  <property name="meta.media.0.codec.pix_fmt">yuv422p</property>
  <property name="meta.media.0.codec.sample_aspect_ratio">0.889583</property>
  <property name="meta.media.0.codec.colorspace">601</property>
  <property name="meta.media.0.codec.name">mpeg2video</property>
  <property name="meta.media.0.codec.long_name">MPEG-2 video</property>
  <property name="meta.media.0.codec.bit_rate">0</property>
  <property name="meta.media.1.stream.type">audio</property>
  <property name="meta.media.1.codec.sample_fmt">s16p</property>
  <property name="meta.media.1.codec.sample_rate">32000</property>
  <property name="meta.media.1.codec.channels">2</property>
  <property name="meta.media.1.codec.name">mp2</property>
  <property name="meta.media.1.codec.long_name">MP2 (MPEG audio layer 2)</property>
  <property name="meta.media.1.codec.bit_rate">128000</property>
  <property name="seekable">1</property>
  <property name="meta.media.sample_aspect_num">427</property>
  <property name="meta.media.sample_aspect_den">480</property>
  <property name="aspect_ratio">0.889583</property>
  <property name="audio_index">-1</property>
  <property name="video_index">0</property>
  <property name="mute_on_pause">1</property>
  <property name="mlt_service">avformat</property>
  <property name="kdenlive:folderid">-1</property>
  <property name="kdenlive:file_size">177720000</property>
  <property name="kdenlive:file_hash">fbe1cb59785942873aa839eeaa42d487</property>
  <property name="kdenlive:proxy">/home/thoth/.cache/kdenlive/proxy/fbe1cb59785942873aa839eeaa42d487.mpg</property>
  <property name="proxy_out">1480</property>
  <property name="kdenlive:originalurl">2001-07-07-beasty/beastiality-003.dv</property>
  <property name="global_feed">1</property>
  <property name="kdenlive:meta.media.nb_streams">3</property>
  <property name="kdenlive:meta.media.0.stream.type">video</property>
  <property name="kdenlive:meta.media.0.stream.frame_rate">29.97</property>
  <property name="kdenlive:meta.media.0.stream.sample_aspect_ratio">0.888889</property>
  <property name="kdenlive:meta.media.0.codec.width">720</property>
  <property name="kdenlive:meta.media.0.codec.height">480</property>
  <property name="kdenlive:meta.media.0.codec.rotate">0</property>
  <property name="kdenlive:meta.media.0.codec.frame_rate">29.97</property>
  <property name="kdenlive:meta.media.0.codec.pix_fmt">yuv411p</property>
  <property name="kdenlive:meta.media.0.codec.sample_aspect_ratio">0.888889</property>
  <property name="kdenlive:meta.media.0.codec.colorspace">601</property>
  <property name="kdenlive:meta.media.0.codec.name">dvvideo</property>
  <property name="kdenlive:meta.media.0.codec.long_name">DV (Digital Video)</property>
  <property name="kdenlive:meta.media.0.codec.bit_rate">25000000</property>
  <property name="kdenlive:meta.media.1.stream.type">audio</property>
  <property name="kdenlive:meta.media.1.codec.sample_fmt">s16</property>
  <property name="kdenlive:meta.media.1.codec.sample_rate">32000</property>
  <property name="kdenlive:meta.media.1.codec.channels">2</property>
  <property name="kdenlive:meta.media.1.codec.name">pcm_s16le</property>
  <property name="kdenlive:meta.media.1.codec.long_name">PCM signed 16-bit little-endian</property>
  <property name="kdenlive:meta.media.1.codec.bit_rate">1024000</property>
  <property name="kdenlive:meta.media.2.stream.type">audio</property>
  <property name="kdenlive:meta.media.2.codec.sample_fmt">s16</property>
  <property name="kdenlive:meta.media.2.codec.sample_rate">32000</property>
  <property name="kdenlive:meta.media.2.codec.channels">2</property>
  <property name="kdenlive:meta.media.2.codec.name">pcm_s16le</property>
  <property name="kdenlive:meta.media.2.codec.long_name">PCM signed 16-bit little-endian</property>
  <property name="kdenlive:meta.media.2.codec.bit_rate">1024000</property>
  <property name="kdenlive:meta.attr.timecode.markup">00:02:17;26</property>
  <property name="kdenlive:meta.media.sample_aspect_num">8</property>
  <property name="kdenlive:meta.media.sample_aspect_den">9</property>
  <property name="kdenlive:meta.media.frame_rate_num">30000</property>
  <property name="kdenlive:meta.media.frame_rate_den">1001</property>
  <property name="kdenlive:meta.media.colorspace">601</property>
  <property name="kdenlive:meta.media.color_trc">2</property>
  <property name="kdenlive:meta.media.width">720</property>
  <property name="kdenlive:meta.media.height">480</property>
  <property name="kdenlive:zone_in">156</property>
  <property name="kdenlive:zone_out">333</property>
  <property name="xml">was here</property>
  <property name="meta.media.frame_rate_num">30000</property>
  <property name="meta.media.frame_rate_den">1001</property>
  <property name="meta.media.colorspace">601</property>
  <property name="meta.media.color_trc">2</property>
  <property name="meta.media.width">640</property>
  <property name="meta.media.height">427</property>
  <property name="meta.media.top_field_first">0</property>
  <property name="meta.media.progressive">1</property>
 </producer>
 <producer id="74_video" title="Anonymous Submission" out="1412" in="0">
  <property name="length">00:00:47;04</property>
  <property name="eof">pause</property>
  <property name="resource">/home/thoth/.cache/kdenlive/proxy/5ec4dff6973a4ee74c2c317c96dda4f9.mpg</property>
  <property name="meta.media.nb_streams">2</property>
  <property name="meta.media.0.stream.type">video</property>
  <property name="meta.media.0.stream.frame_rate">29.97</property>
  <property name="meta.media.0.stream.sample_aspect_ratio">0</property>
  <property name="meta.media.0.codec.width">640</property>
  <property name="meta.media.0.codec.height">427</property>
  <property name="meta.media.0.codec.rotate">0</property>
  <property name="meta.media.0.codec.frame_rate">29.97</property>
  <property name="meta.media.0.codec.pix_fmt">yuv422p</property>
  <property name="meta.media.0.codec.sample_aspect_ratio">0.889583</property>
  <property name="meta.media.0.codec.colorspace">601</property>
  <property name="meta.media.0.codec.name">mpeg2video</property>
  <property name="meta.media.0.codec.long_name">MPEG-2 video</property>
  <property name="meta.media.0.codec.bit_rate">0</property>
  <property name="meta.media.1.stream.type">audio</property>
  <property name="meta.media.1.codec.sample_fmt">s16p</property>
  <property name="meta.media.1.codec.sample_rate">32000</property>
  <property name="meta.media.1.codec.channels">2</property>
  <property name="meta.media.1.codec.name">mp2</property>
  <property name="meta.media.1.codec.long_name">MP2 (MPEG audio layer 2)</property>
  <property name="meta.media.1.codec.bit_rate">128000</property>
  <property name="seekable">1</property>
  <property name="meta.media.sample_aspect_num">427</property>
  <property name="meta.media.sample_aspect_den">480</property>
  <property name="aspect_ratio">0.889583</property>
  <property name="audio_index">-1</property>
  <property name="video_index">0</property>
  <property name="mute_on_pause">1</property>
  <property name="mlt_service">avformat</property>
  <property name="kdenlive:folderid">-1</property>
  <property name="kdenlive:file_size">170400000</property>
  <property name="kdenlive:file_hash">5ec4dff6973a4ee74c2c317c96dda4f9</property>
  <property name="kdenlive:proxy">/home/thoth/.cache/kdenlive/proxy/5ec4dff6973a4ee74c2c317c96dda4f9.mpg</property>
  <property name="proxy_out">1419</property>
  <property name="kdenlive:originalurl">2001-07-07-beasty/beasty-003.dv</property>
  <property name="global_feed">1</property>
  <property name="kdenlive:meta.media.nb_streams">3</property>
  <property name="kdenlive:meta.media.0.stream.type">video</property>
  <property name="kdenlive:meta.media.0.stream.frame_rate">29.97</property>
  <property name="kdenlive:meta.media.0.stream.sample_aspect_ratio">0.888889</property>
  <property name="kdenlive:meta.media.0.codec.width">720</property>
  <property name="kdenlive:meta.media.0.codec.height">480</property>
  <property name="kdenlive:meta.media.0.codec.rotate">0</property>
  <property name="kdenlive:meta.media.0.codec.frame_rate">29.97</property>
  <property name="kdenlive:meta.media.0.codec.pix_fmt">yuv411p</property>
  <property name="kdenlive:meta.media.0.codec.sample_aspect_ratio">0.888889</property>
  <property name="kdenlive:meta.media.0.codec.colorspace">601</property>
  <property name="kdenlive:meta.media.0.codec.name">dvvideo</property>
  <property name="kdenlive:meta.media.0.codec.long_name">DV (Digital Video)</property>
  <property name="kdenlive:meta.media.0.codec.bit_rate">25000000</property>
  <property name="kdenlive:meta.media.1.stream.type">audio</property>
  <property name="kdenlive:meta.media.1.codec.sample_fmt">s16</property>
  <property name="kdenlive:meta.media.1.codec.sample_rate">32000</property>
  <property name="kdenlive:meta.media.1.codec.channels">2</property>
  <property name="kdenlive:meta.media.1.codec.name">pcm_s16le</property>
  <property name="kdenlive:meta.media.1.codec.long_name">PCM signed 16-bit little-endian</property>
  <property name="kdenlive:meta.media.1.codec.bit_rate">1024000</property>
  <property name="kdenlive:meta.media.2.stream.type">audio</property>
  <property name="kdenlive:meta.media.2.codec.sample_fmt">s16</property>
  <property name="kdenlive:meta.media.2.codec.sample_rate">32000</property>
  <property name="kdenlive:meta.media.2.codec.channels">2</property>
  <property name="kdenlive:meta.media.2.codec.name">pcm_s16le</property>
  <property name="kdenlive:meta.media.2.codec.long_name">PCM signed 16-bit little-endian</property>
  <property name="kdenlive:meta.media.2.codec.bit_rate">1024000</property>
  <property name="kdenlive:meta.attr.timecode.markup">00:05:24;10</property>
  <property name="kdenlive:meta.media.sample_aspect_num">8</property>
  <property name="kdenlive:meta.media.sample_aspect_den">9</property>
  <property name="kdenlive:meta.media.frame_rate_num">30000</property>
  <property name="kdenlive:meta.media.frame_rate_den">1001</property>
  <property name="kdenlive:meta.media.colorspace">601</property>
  <property name="kdenlive:meta.media.color_trc">2</property>
  <property name="kdenlive:meta.media.width">720</property>
  <property name="kdenlive:meta.media.height">480</property>
  <property name="kdenlive:zone_in">388</property>
  <property name="kdenlive:zone_out">662</property>
  <property name="xml">was here</property>
  <property name="meta.media.frame_rate_num">30000</property>
  <property name="meta.media.frame_rate_den">1001</property>
  <property name="meta.media.colorspace">601</property>
  <property name="meta.media.color_trc">2</property>
  <property name="meta.media.width">640</property>
  <property name="meta.media.height">427</property>
  <property name="meta.media.top_field_first">0</property>
  <property name="meta.media.progressive">1</property>
 </producer>
 <producer id="7_video" title="Anonymous Submission" out="785" in="0">
  <property name="length">00:00:26;07</property>
  <property name="eof">pause</property>
  <property name="resource">/home/thoth/.cache/kdenlive/proxy/90c831858206b068606f47cae5e0bfe8.mpg</property>
  <property name="meta.media.nb_streams">2</property>
  <property name="meta.media.0.stream.type">video</property>
  <property name="meta.media.0.stream.frame_rate">29.97</property>
  <property name="meta.media.0.stream.sample_aspect_ratio">0</property>
  <property name="meta.media.0.codec.width">640</property>
  <property name="meta.media.0.codec.height">427</property>
  <property name="meta.media.0.codec.rotate">0</property>
  <property name="meta.media.0.codec.frame_rate">29.97</property>
  <property name="meta.media.0.codec.pix_fmt">yuv422p</property>
  <property name="meta.media.0.codec.sample_aspect_ratio">0.889583</property>
  <property name="meta.media.0.codec.colorspace">601</property>
  <property name="meta.media.0.codec.name">mpeg2video</property>
  <property name="meta.media.0.codec.long_name">MPEG-2 video</property>
  <property name="meta.media.0.codec.bit_rate">0</property>
  <property name="meta.media.1.stream.type">audio</property>
  <property name="meta.media.1.codec.sample_fmt">s16p</property>
  <property name="meta.media.1.codec.sample_rate">32000</property>
  <property name="meta.media.1.codec.channels">2</property>
  <property name="meta.media.1.codec.name">mp2</property>
  <property name="meta.media.1.codec.long_name">MP2 (MPEG audio layer 2)</property>
  <property name="meta.media.1.codec.bit_rate">128000</property>
  <property name="seekable">1</property>
  <property name="meta.media.sample_aspect_num">427</property>
  <property name="meta.media.sample_aspect_den">480</property>
  <property name="aspect_ratio">0.889583</property>
  <property name="audio_index">-1</property>
  <property name="video_index">0</property>
  <property name="mute_on_pause">1</property>
  <property name="mlt_service">avformat</property>
  <property name="kdenlive:folderid">-1</property>
  <property name="kdenlive:file_size">94680000</property>
  <property name="kdenlive:file_hash">90c831858206b068606f47cae5e0bfe8</property>
  <property name="kdenlive:proxy">/home/thoth/.cache/kdenlive/proxy/90c831858206b068606f47cae5e0bfe8.mpg</property>
  <property name="proxy_out">788</property>
  <property name="kdenlive:originalurl">2001-07-07-beasty/beastiality-006.dv</property>
  <property name="global_feed">1</property>
  <property name="kdenlive:meta.media.nb_streams">3</property>
  <property name="kdenlive:meta.media.0.stream.type">video</property>
  <property name="kdenlive:meta.media.0.stream.frame_rate">29.97</property>
  <property name="kdenlive:meta.media.0.stream.sample_aspect_ratio">0.888889</property>
  <property name="kdenlive:meta.media.0.codec.width">720</property>
  <property name="kdenlive:meta.media.0.codec.height">480</property>
  <property name="kdenlive:meta.media.0.codec.rotate">0</property>
  <property name="kdenlive:meta.media.0.codec.frame_rate">29.97</property>
  <property name="kdenlive:meta.media.0.codec.pix_fmt">yuv411p</property>
  <property name="kdenlive:meta.media.0.codec.sample_aspect_ratio">0.888889</property>
  <property name="kdenlive:meta.media.0.codec.colorspace">601</property>
  <property name="kdenlive:meta.media.0.codec.name">dvvideo</property>
  <property name="kdenlive:meta.media.0.codec.long_name">DV (Digital Video)</property>
  <property name="kdenlive:meta.media.0.codec.bit_rate">25000000</property>
  <property name="kdenlive:meta.media.1.stream.type">audio</property>
  <property name="kdenlive:meta.media.1.codec.sample_fmt">s16</property>
  <property name="kdenlive:meta.media.1.codec.sample_rate">32000</property>
  <property name="kdenlive:meta.media.1.codec.channels">2</property>
  <property name="kdenlive:meta.media.1.codec.name">pcm_s16le</property>
  <property name="kdenlive:meta.media.1.codec.long_name">PCM signed 16-bit little-endian</property>
  <property name="kdenlive:meta.media.1.codec.bit_rate">1024000</property>
  <property name="kdenlive:meta.media.2.stream.type">audio</property>
  <property name="kdenlive:meta.media.2.codec.sample_fmt">s16</property>
  <property name="kdenlive:meta.media.2.codec.sample_rate">32000</property>
  <property name="kdenlive:meta.media.2.codec.channels">2</property>
  <property name="kdenlive:meta.media.2.codec.name">pcm_s16le</property>
  <property name="kdenlive:meta.media.2.codec.long_name">PCM signed 16-bit little-endian</property>
  <property name="kdenlive:meta.media.2.codec.bit_rate">1024000</property>
  <property name="kdenlive:meta.attr.timecode.markup">00:04:31;17</property>
  <property name="kdenlive:meta.media.sample_aspect_num">8</property>
  <property name="kdenlive:meta.media.sample_aspect_den">9</property>
  <property name="kdenlive:meta.media.frame_rate_num">30000</property>
  <property name="kdenlive:meta.media.frame_rate_den">1001</property>
  <property name="kdenlive:meta.media.colorspace">601</property>
  <property name="kdenlive:meta.media.color_trc">2</property>
  <property name="kdenlive:meta.media.width">720</property>
  <property name="kdenlive:meta.media.height">480</property>
  <property name="kdenlive:zone_in">0</property>
  <property name="kdenlive:zone_out">246</property>
  <property name="xml">was here</property>
  <property name="meta.media.frame_rate_num">30000</property>
  <property name="meta.media.frame_rate_den">1001</property>
  <property name="meta.media.colorspace">601</property>
  <property name="meta.media.color_trc">2</property>
  <property name="meta.media.width">640</property>
  <property name="meta.media.height">427</property>
  <property name="meta.media.top_field_first">0</property>
  <property name="meta.media.progressive">1</property>
 </producer>
 <producer id="23_playlist3" title="Anonymous Submission" out="412" in="0">
  <property name="length">00:00:13;23</property>
  <property name="eof">pause</property>
  <property name="resource">/home/thoth/.cache/kdenlive/proxy/799b970efad9feb73445c485cc644134.mpg</property>
  <property name="meta.media.nb_streams">2</property>
  <property name="meta.media.0.stream.type">video</property>
  <property name="meta.media.0.stream.frame_rate">29.97</property>
  <property name="meta.media.0.stream.sample_aspect_ratio">0</property>
  <property name="meta.media.0.codec.width">640</property>
  <property name="meta.media.0.codec.height">427</property>
  <property name="meta.media.0.codec.rotate">0</property>
  <property name="meta.media.0.codec.frame_rate">29.97</property>
  <property name="meta.media.0.codec.pix_fmt">yuv422p</property>
  <property name="meta.media.0.codec.sample_aspect_ratio">0.889583</property>
  <property name="meta.media.0.codec.colorspace">601</property>
  <property name="meta.media.0.codec.name">mpeg2video</property>
  <property name="meta.media.0.codec.long_name">MPEG-2 video</property>
  <property name="meta.media.0.codec.bit_rate">0</property>
  <property name="meta.media.1.stream.type">audio</property>
  <property name="meta.media.1.codec.sample_fmt">s16p</property>
  <property name="meta.media.1.codec.sample_rate">32000</property>
  <property name="meta.media.1.codec.channels">2</property>
  <property name="meta.media.1.codec.name">mp2</property>
  <property name="meta.media.1.codec.long_name">MP2 (MPEG audio layer 2)</property>
  <property name="meta.media.1.codec.bit_rate">128000</property>
  <property name="seekable">1</property>
  <property name="meta.media.sample_aspect_num">427</property>
  <property name="meta.media.sample_aspect_den">480</property>
  <property name="aspect_ratio">0.889583</property>
  <property name="audio_index">1</property>
  <property name="video_index">0</property>
  <property name="mute_on_pause">1</property>
  <property name="mlt_service">avformat</property>
  <property name="kdenlive:folderid">-1</property>
  <property name="kdenlive:file_size">49560000</property>
  <property name="kdenlive:file_hash">799b970efad9feb73445c485cc644134</property>
  <property name="kdenlive:proxy">/home/thoth/.cache/kdenlive/proxy/799b970efad9feb73445c485cc644134.mpg</property>
  <property name="proxy_out">412</property>
  <property name="kdenlive:originalurl">2001-07-07-beasty/beastiality-022.dv</property>
  <property name="global_feed">1</property>
  <property name="kdenlive:meta.media.nb_streams">3</property>
  <property name="kdenlive:meta.media.0.stream.type">video</property>
  <property name="kdenlive:meta.media.0.stream.frame_rate">29.97</property>
  <property name="kdenlive:meta.media.0.stream.sample_aspect_ratio">0.888889</property>
  <property name="kdenlive:meta.media.0.codec.width">720</property>
  <property name="kdenlive:meta.media.0.codec.height">480</property>
  <property name="kdenlive:meta.media.0.codec.rotate">0</property>
  <property name="kdenlive:meta.media.0.codec.frame_rate">29.97</property>
  <property name="kdenlive:meta.media.0.codec.pix_fmt">yuv411p</property>
  <property name="kdenlive:meta.media.0.codec.sample_aspect_ratio">0.888889</property>
  <property name="kdenlive:meta.media.0.codec.colorspace">601</property>
  <property name="kdenlive:meta.media.0.codec.name">dvvideo</property>
  <property name="kdenlive:meta.media.0.codec.long_name">DV (Digital Video)</property>
  <property name="kdenlive:meta.media.0.codec.bit_rate">25000000</property>
  <property name="kdenlive:meta.media.1.stream.type">audio</property>
  <property name="kdenlive:meta.media.1.codec.sample_fmt">s16</property>
  <property name="kdenlive:meta.media.1.codec.sample_rate">32000</property>
  <property name="kdenlive:meta.media.1.codec.channels">2</property>
  <property name="kdenlive:meta.media.1.codec.name">pcm_s16le</property>
  <property name="kdenlive:meta.media.1.codec.long_name">PCM signed 16-bit little-endian</property>
  <property name="kdenlive:meta.media.1.codec.bit_rate">1024000</property>
  <property name="kdenlive:meta.media.2.stream.type">audio</property>
  <property name="kdenlive:meta.media.2.codec.sample_fmt">s16</property>
  <property name="kdenlive:meta.media.2.codec.sample_rate">32000</property>
  <property name="kdenlive:meta.media.2.codec.channels">2</property>
  <property name="kdenlive:meta.media.2.codec.name">pcm_s16le</property>
  <property name="kdenlive:meta.media.2.codec.long_name">PCM signed 16-bit little-endian</property>
  <property name="kdenlive:meta.media.2.codec.bit_rate">1024000</property>
  <property name="kdenlive:meta.attr.timecode.markup">00:01:24;07</property>
  <property name="kdenlive:meta.media.sample_aspect_num">8</property>
  <property name="kdenlive:meta.media.sample_aspect_den">9</property>
  <property name="kdenlive:meta.media.frame_rate_num">30000</property>
  <property name="kdenlive:meta.media.frame_rate_den">1001</property>
  <property name="kdenlive:meta.media.colorspace">601</property>
  <property name="kdenlive:meta.media.color_trc">2</property>
  <property name="kdenlive:meta.media.width">720</property>
  <property name="kdenlive:meta.media.height">480</property>
  <property name="kdenlive:zone_in">49</property>
  <property name="kdenlive:zone_out">382</property>
  <property name="xml">was here</property>
  <property name="meta.media.frame_rate_num">30000</property>
  <property name="meta.media.frame_rate_den">1001</property>
  <property name="meta.media.colorspace">601</property>
  <property name="meta.media.color_trc">2</property>
  <property name="meta.media.width">640</property>
  <property name="meta.media.height">427</property>
  <property name="meta.media.top_field_first">0</property>
  <property name="meta.media.progressive">1</property>
 </producer>
 <producer id="17_playlist3" title="Anonymous Submission" out="873" in="0">
  <property name="length">00:00:29;05</property>
  <property name="eof">pause</property>
  <property name="resource">/home/thoth/.cache/kdenlive/proxy/4d19181ede84fe2995f7ea50b354f310.mpg</property>
  <property name="meta.media.nb_streams">2</property>
  <property name="meta.media.0.stream.type">video</property>
  <property name="meta.media.0.stream.frame_rate">29.97</property>
  <property name="meta.media.0.stream.sample_aspect_ratio">0</property>
  <property name="meta.media.0.codec.width">640</property>
  <property name="meta.media.0.codec.height">427</property>
  <property name="meta.media.0.codec.rotate">0</property>
  <property name="meta.media.0.codec.frame_rate">29.97</property>
  <property name="meta.media.0.codec.pix_fmt">yuv422p</property>
  <property name="meta.media.0.codec.sample_aspect_ratio">0.889583</property>
  <property name="meta.media.0.codec.colorspace">601</property>
  <property name="meta.media.0.codec.name">mpeg2video</property>
  <property name="meta.media.0.codec.long_name">MPEG-2 video</property>
  <property name="meta.media.0.codec.bit_rate">0</property>
  <property name="meta.media.1.stream.type">audio</property>
  <property name="meta.media.1.codec.sample_fmt">s16p</property>
  <property name="meta.media.1.codec.sample_rate">32000</property>
  <property name="meta.media.1.codec.channels">2</property>
  <property name="meta.media.1.codec.name">mp2</property>
  <property name="meta.media.1.codec.long_name">MP2 (MPEG audio layer 2)</property>
  <property name="meta.media.1.codec.bit_rate">128000</property>
  <property name="seekable">1</property>
  <property name="meta.media.sample_aspect_num">427</property>
  <property name="meta.media.sample_aspect_den">480</property>
  <property name="aspect_ratio">0.889583</property>
  <property name="audio_index">1</property>
  <property name="video_index">0</property>
  <property name="mute_on_pause">1</property>
  <property name="mlt_service">avformat</property>
  <property name="kdenlive:folderid">-1</property>
  <property name="kdenlive:file_size">105240000</property>
  <property name="kdenlive:file_hash">4d19181ede84fe2995f7ea50b354f310</property>
  <property name="kdenlive:proxy">/home/thoth/.cache/kdenlive/proxy/4d19181ede84fe2995f7ea50b354f310.mpg</property>
  <property name="proxy_out">876</property>
  <property name="kdenlive:originalurl">2001-07-07-beasty/beastiality-016.dv</property>
  <property name="global_feed">1</property>
  <property name="kdenlive:meta.media.nb_streams">3</property>
  <property name="kdenlive:meta.media.0.stream.type">video</property>
  <property name="kdenlive:meta.media.0.stream.frame_rate">29.97</property>
  <property name="kdenlive:meta.media.0.stream.sample_aspect_ratio">0.888889</property>
  <property name="kdenlive:meta.media.0.codec.width">720</property>
  <property name="kdenlive:meta.media.0.codec.height">480</property>
  <property name="kdenlive:meta.media.0.codec.rotate">0</property>
  <property name="kdenlive:meta.media.0.codec.frame_rate">29.97</property>
  <property name="kdenlive:meta.media.0.codec.pix_fmt">yuv411p</property>
  <property name="kdenlive:meta.media.0.codec.sample_aspect_ratio">0.888889</property>
  <property name="kdenlive:meta.media.0.codec.colorspace">601</property>
  <property name="kdenlive:meta.media.0.codec.name">dvvideo</property>
  <property name="kdenlive:meta.media.0.codec.long_name">DV (Digital Video)</property>
  <property name="kdenlive:meta.media.0.codec.bit_rate">25000000</property>
  <property name="kdenlive:meta.media.1.stream.type">audio</property>
  <property name="kdenlive:meta.media.1.codec.sample_fmt">s16</property>
  <property name="kdenlive:meta.media.1.codec.sample_rate">32000</property>
  <property name="kdenlive:meta.media.1.codec.channels">2</property>
  <property name="kdenlive:meta.media.1.codec.name">pcm_s16le</property>
  <property name="kdenlive:meta.media.1.codec.long_name">PCM signed 16-bit little-endian</property>
  <property name="kdenlive:meta.media.1.codec.bit_rate">1024000</property>
  <property name="kdenlive:meta.media.2.stream.type">audio</property>
  <property name="kdenlive:meta.media.2.codec.sample_fmt">s16</property>
  <property name="kdenlive:meta.media.2.codec.sample_rate">32000</property>
  <property name="kdenlive:meta.media.2.codec.channels">2</property>
  <property name="kdenlive:meta.media.2.codec.name">pcm_s16le</property>
  <property name="kdenlive:meta.media.2.codec.long_name">PCM signed 16-bit little-endian</property>
  <property name="kdenlive:meta.media.2.codec.bit_rate">1024000</property>
  <property name="kdenlive:meta.attr.timecode.markup">00:00:00;01</property>
  <property name="kdenlive:meta.media.sample_aspect_num">8</property>
  <property name="kdenlive:meta.media.sample_aspect_den">9</property>
  <property name="kdenlive:meta.media.frame_rate_num">30000</property>
  <property name="kdenlive:meta.media.frame_rate_den">1001</property>
  <property name="kdenlive:meta.media.colorspace">601</property>
  <property name="kdenlive:meta.media.color_trc">2</property>
  <property name="kdenlive:meta.media.width">720</property>
  <property name="kdenlive:meta.media.height">480</property>
  <property name="kdenlive:zone_in">91</property>
  <property name="kdenlive:zone_out">160</property>
  <property name="xml">was here</property>
  <property name="meta.media.frame_rate_num">30000</property>
  <property name="meta.media.frame_rate_den">1001</property>
  <property name="meta.media.colorspace">601</property>
  <property name="meta.media.color_trc">2</property>
  <property name="meta.media.width">640</property>
  <property name="meta.media.height">427</property>
  <property name="meta.media.top_field_first">0</property>
  <property name="meta.media.progressive">1</property>
 </producer>
 <producer id="16_playlist3" title="Anonymous Submission" out="639" in="0">
  <property name="length">00:00:21;11</property>
  <property name="eof">pause</property>
  <property name="resource">/home/thoth/.cache/kdenlive/proxy/dca8681250870726ee45faaf5bdf89de.mpg</property>
  <property name="meta.media.nb_streams">2</property>
  <property name="meta.media.0.stream.type">video</property>
  <property name="meta.media.0.stream.frame_rate">29.97</property>
  <property name="meta.media.0.stream.sample_aspect_ratio">0</property>
  <property name="meta.media.0.codec.width">640</property>
  <property name="meta.media.0.codec.height">427</property>
  <property name="meta.media.0.codec.rotate">0</property>
  <property name="meta.media.0.codec.frame_rate">29.97</property>
  <property name="meta.media.0.codec.pix_fmt">yuv422p</property>
  <property name="meta.media.0.codec.sample_aspect_ratio">0.889583</property>
  <property name="meta.media.0.codec.colorspace">601</property>
  <property name="meta.media.0.codec.name">mpeg2video</property>
  <property name="meta.media.0.codec.long_name">MPEG-2 video</property>
  <property name="meta.media.0.codec.bit_rate">0</property>
  <property name="meta.media.1.stream.type">audio</property>
  <property name="meta.media.1.codec.sample_fmt">s16p</property>
  <property name="meta.media.1.codec.sample_rate">32000</property>
  <property name="meta.media.1.codec.channels">2</property>
  <property name="meta.media.1.codec.name">mp2</property>
  <property name="meta.media.1.codec.long_name">MP2 (MPEG audio layer 2)</property>
  <property name="meta.media.1.codec.bit_rate">128000</property>
  <property name="seekable">1</property>
  <property name="meta.media.sample_aspect_num">427</property>
  <property name="meta.media.sample_aspect_den">480</property>
  <property name="aspect_ratio">0.889583</property>
  <property name="audio_index">1</property>
  <property name="video_index">0</property>
  <property name="mute_on_pause">1</property>
  <property name="mlt_service">avformat</property>
  <property name="kdenlive:folderid">-1</property>
  <property name="kdenlive:file_size">77160000</property>
  <property name="kdenlive:file_hash">dca8681250870726ee45faaf5bdf89de</property>
  <property name="kdenlive:proxy">/home/thoth/.cache/kdenlive/proxy/dca8681250870726ee45faaf5bdf89de.mpg</property>
  <property name="proxy_out">642</property>
  <property name="kdenlive:originalurl">2001-07-07-beasty/beastiality-015.dv</property>
  <property name="global_feed">1</property>
  <property name="kdenlive:meta.media.nb_streams">3</property>
  <property name="kdenlive:meta.media.0.stream.type">video</property>
  <property name="kdenlive:meta.media.0.stream.frame_rate">29.97</property>
  <property name="kdenlive:meta.media.0.stream.sample_aspect_ratio">0.888889</property>
  <property name="kdenlive:meta.media.0.codec.width">720</property>
  <property name="kdenlive:meta.media.0.codec.height">480</property>
  <property name="kdenlive:meta.media.0.codec.rotate">0</property>
  <property name="kdenlive:meta.media.0.codec.frame_rate">29.97</property>
  <property name="kdenlive:meta.media.0.codec.pix_fmt">yuv411p</property>
  <property name="kdenlive:meta.media.0.codec.sample_aspect_ratio">0.888889</property>
  <property name="kdenlive:meta.media.0.codec.colorspace">601</property>
  <property name="kdenlive:meta.media.0.codec.name">dvvideo</property>
  <property name="kdenlive:meta.media.0.codec.long_name">DV (Digital Video)</property>
  <property name="kdenlive:meta.media.0.codec.bit_rate">25000000</property>
  <property name="kdenlive:meta.media.1.stream.type">audio</property>
  <property name="kdenlive:meta.media.1.codec.sample_fmt">s16</property>
  <property name="kdenlive:meta.media.1.codec.sample_rate">32000</property>
  <property name="kdenlive:meta.media.1.codec.channels">2</property>
  <property name="kdenlive:meta.media.1.codec.name">pcm_s16le</property>
  <property name="kdenlive:meta.media.1.codec.long_name">PCM signed 16-bit little-endian</property>
  <property name="kdenlive:meta.media.1.codec.bit_rate">1024000</property>
  <property name="kdenlive:meta.media.2.stream.type">audio</property>
  <property name="kdenlive:meta.media.2.codec.sample_fmt">s16</property>
  <property name="kdenlive:meta.media.2.codec.sample_rate">32000</property>
  <property name="kdenlive:meta.media.2.codec.channels">2</property>
  <property name="kdenlive:meta.media.2.codec.name">pcm_s16le</property>
  <property name="kdenlive:meta.media.2.codec.long_name">PCM signed 16-bit little-endian</property>
  <property name="kdenlive:meta.media.2.codec.bit_rate">1024000</property>
  <property name="kdenlive:meta.attr.timecode.markup">00:00:36;21</property>
  <property name="kdenlive:meta.media.sample_aspect_num">8</property>
  <property name="kdenlive:meta.media.sample_aspect_den">9</property>
  <property name="kdenlive:meta.media.frame_rate_num">30000</property>
  <property name="kdenlive:meta.media.frame_rate_den">1001</property>
  <property name="kdenlive:meta.media.colorspace">601</property>
  <property name="kdenlive:meta.media.color_trc">2</property>
  <property name="kdenlive:meta.media.width">720</property>
  <property name="kdenlive:meta.media.height">480</property>
  <property name="kdenlive:zone_in">97</property>
  <property name="kdenlive:zone_out">312</property>
  <property name="xml">was here</property>
  <property name="meta.media.frame_rate_num">30000</property>
  <property name="meta.media.frame_rate_den">1001</property>
  <property name="meta.media.colorspace">601</property>
  <property name="meta.media.color_trc">2</property>
  <property name="meta.media.width">640</property>
  <property name="meta.media.height">427</property>
  <property name="meta.media.top_field_first">0</property>
  <property name="meta.media.progressive">1</property>
 </producer>
 <producer id="24_playlist3" title="Anonymous Submission" out="657" in="0">
  <property name="length">00:00:21;29</property>
  <property name="eof">pause</property>
  <property name="resource">/home/thoth/.cache/kdenlive/proxy/ea17850f2ffb694f06ff1385a14d190b.mpg</property>
  <property name="meta.media.nb_streams">2</property>
  <property name="meta.media.0.stream.type">video</property>
  <property name="meta.media.0.stream.frame_rate">29.97</property>
  <property name="meta.media.0.stream.sample_aspect_ratio">0</property>
  <property name="meta.media.0.codec.width">640</property>
  <property name="meta.media.0.codec.height">427</property>
  <property name="meta.media.0.codec.rotate">0</property>
  <property name="meta.media.0.codec.frame_rate">29.97</property>
  <property name="meta.media.0.codec.pix_fmt">yuv422p</property>
  <property name="meta.media.0.codec.sample_aspect_ratio">0.889583</property>
  <property name="meta.media.0.codec.colorspace">601</property>
  <property name="meta.media.0.codec.name">mpeg2video</property>
  <property name="meta.media.0.codec.long_name">MPEG-2 video</property>
  <property name="meta.media.0.codec.bit_rate">0</property>
  <property name="meta.media.1.stream.type">audio</property>
  <property name="meta.media.1.codec.sample_fmt">s16p</property>
  <property name="meta.media.1.codec.sample_rate">32000</property>
  <property name="meta.media.1.codec.channels">2</property>
  <property name="meta.media.1.codec.name">mp2</property>
  <property name="meta.media.1.codec.long_name">MP2 (MPEG audio layer 2)</property>
  <property name="meta.media.1.codec.bit_rate">128000</property>
  <property name="seekable">1</property>
  <property name="meta.media.sample_aspect_num">427</property>
  <property name="meta.media.sample_aspect_den">480</property>
  <property name="aspect_ratio">0.889583</property>
  <property name="audio_index">1</property>
  <property name="video_index">0</property>
  <property name="mute_on_pause">1</property>
  <property name="mlt_service">avformat</property>
  <property name="kdenlive:folderid">-1</property>
  <property name="kdenlive:file_size">79440000</property>
  <property name="kdenlive:file_hash">ea17850f2ffb694f06ff1385a14d190b</property>
  <property name="kdenlive:proxy">/home/thoth/.cache/kdenlive/proxy/ea17850f2ffb694f06ff1385a14d190b.mpg</property>
  <property name="proxy_out">661</property>
  <property name="kdenlive:originalurl">2001-07-07-beasty/beastiality-023.dv</property>
  <property name="global_feed">1</property>
  <property name="kdenlive:meta.media.nb_streams">3</property>
  <property name="kdenlive:meta.media.0.stream.type">video</property>
  <property name="kdenlive:meta.media.0.stream.frame_rate">29.97</property>
  <property name="kdenlive:meta.media.0.stream.sample_aspect_ratio">0.888889</property>
  <property name="kdenlive:meta.media.0.codec.width">720</property>
  <property name="kdenlive:meta.media.0.codec.height">480</property>
  <property name="kdenlive:meta.media.0.codec.rotate">0</property>
  <property name="kdenlive:meta.media.0.codec.frame_rate">29.97</property>
  <property name="kdenlive:meta.media.0.codec.pix_fmt">yuv411p</property>
  <property name="kdenlive:meta.media.0.codec.sample_aspect_ratio">0.888889</property>
  <property name="kdenlive:meta.media.0.codec.colorspace">601</property>
  <property name="kdenlive:meta.media.0.codec.name">dvvideo</property>
  <property name="kdenlive:meta.media.0.codec.long_name">DV (Digital Video)</property>
  <property name="kdenlive:meta.media.0.codec.bit_rate">25000000</property>
  <property name="kdenlive:meta.media.1.stream.type">audio</property>
  <property name="kdenlive:meta.media.1.codec.sample_fmt">s16</property>
  <property name="kdenlive:meta.media.1.codec.sample_rate">32000</property>
  <property name="kdenlive:meta.media.1.codec.channels">2</property>
  <property name="kdenlive:meta.media.1.codec.name">pcm_s16le</property>
  <property name="kdenlive:meta.media.1.codec.long_name">PCM signed 16-bit little-endian</property>
  <property name="kdenlive:meta.media.1.codec.bit_rate">1024000</property>
  <property name="kdenlive:meta.media.2.stream.type">audio</property>
  <property name="kdenlive:meta.media.2.codec.sample_fmt">s16</property>
  <property name="kdenlive:meta.media.2.codec.sample_rate">32000</property>
  <property name="kdenlive:meta.media.2.codec.channels">2</property>
  <property name="kdenlive:meta.media.2.codec.name">pcm_s16le</property>
  <property name="kdenlive:meta.media.2.codec.long_name">PCM signed 16-bit little-endian</property>
  <property name="kdenlive:meta.media.2.codec.bit_rate">1024000</property>
  <property name="kdenlive:meta.attr.timecode.markup">00:01:38;00</property>
  <property name="kdenlive:meta.media.sample_aspect_num">8</property>
  <property name="kdenlive:meta.media.sample_aspect_den">9</property>
  <property name="kdenlive:meta.media.frame_rate_num">30000</property>
  <property name="kdenlive:meta.media.frame_rate_den">1001</property>
  <property name="kdenlive:meta.media.colorspace">601</property>
  <property name="kdenlive:meta.media.color_trc">2</property>
  <property name="kdenlive:meta.media.width">720</property>
  <property name="kdenlive:meta.media.height">480</property>
  <property name="kdenlive:zone_in">67</property>
  <property name="kdenlive:zone_out">163</property>
  <property name="xml">was here</property>
  <property name="meta.media.frame_rate_num">30000</property>
  <property name="meta.media.frame_rate_den">1001</property>
  <property name="meta.media.colorspace">601</property>
  <property name="meta.media.color_trc">2</property>
  <property name="meta.media.width">640</property>
  <property name="meta.media.height">427</property>
  <property name="meta.media.top_field_first">0</property>
  <property name="meta.media.progressive">1</property>
 </producer>
 <producer id="19_playlist3" title="Anonymous Submission" out="331" in="0">
  <property name="length">00:00:11;02</property>
  <property name="eof">pause</property>
  <property name="resource">/home/thoth/.cache/kdenlive/proxy/dfb7a151993fde9ef5c28b62f0c79894.mpg</property>
  <property name="meta.media.nb_streams">2</property>
  <property name="meta.media.0.stream.type">video</property>
  <property name="meta.media.0.stream.frame_rate">29.97</property>
  <property name="meta.media.0.stream.sample_aspect_ratio">0</property>
  <property name="meta.media.0.codec.width">640</property>
  <property name="meta.media.0.codec.height">427</property>
  <property name="meta.media.0.codec.rotate">0</property>
  <property name="meta.media.0.codec.frame_rate">29.97</property>
  <property name="meta.media.0.codec.pix_fmt">yuv422p</property>
  <property name="meta.media.0.codec.sample_aspect_ratio">0.889583</property>
  <property name="meta.media.0.codec.colorspace">601</property>
  <property name="meta.media.0.codec.name">mpeg2video</property>
  <property name="meta.media.0.codec.long_name">MPEG-2 video</property>
  <property name="meta.media.0.codec.bit_rate">0</property>
  <property name="meta.media.1.stream.type">audio</property>
  <property name="meta.media.1.codec.sample_fmt">s16p</property>
  <property name="meta.media.1.codec.sample_rate">32000</property>
  <property name="meta.media.1.codec.channels">2</property>
  <property name="meta.media.1.codec.name">mp2</property>
  <property name="meta.media.1.codec.long_name">MP2 (MPEG audio layer 2)</property>
  <property name="meta.media.1.codec.bit_rate">128000</property>
  <property name="seekable">1</property>
  <property name="meta.media.sample_aspect_num">427</property>
  <property name="meta.media.sample_aspect_den">480</property>
  <property name="aspect_ratio">0.889583</property>
  <property name="audio_index">1</property>
  <property name="video_index">0</property>
  <property name="mute_on_pause">1</property>
  <property name="mlt_service">avformat</property>
  <property name="kdenlive:folderid">-1</property>
  <property name="kdenlive:file_size">39840000</property>
  <property name="kdenlive:file_hash">dfb7a151993fde9ef5c28b62f0c79894</property>
  <property name="kdenlive:proxy">/home/thoth/.cache/kdenlive/proxy/dfb7a151993fde9ef5c28b62f0c79894.mpg</property>
  <property name="proxy_out">331</property>
  <property name="kdenlive:originalurl">2001-07-07-beasty/beastiality-018.dv</property>
  <property name="global_feed">1</property>
  <property name="kdenlive:meta.media.nb_streams">3</property>
  <property name="kdenlive:meta.media.0.stream.type">video</property>
  <property name="kdenlive:meta.media.0.stream.frame_rate">29.97</property>
  <property name="kdenlive:meta.media.0.stream.sample_aspect_ratio">0.888889</property>
  <property name="kdenlive:meta.media.0.codec.width">720</property>
  <property name="kdenlive:meta.media.0.codec.height">480</property>
  <property name="kdenlive:meta.media.0.codec.rotate">0</property>
  <property name="kdenlive:meta.media.0.codec.frame_rate">29.97</property>
  <property name="kdenlive:meta.media.0.codec.pix_fmt">yuv411p</property>
  <property name="kdenlive:meta.media.0.codec.sample_aspect_ratio">0.888889</property>
  <property name="kdenlive:meta.media.0.codec.colorspace">601</property>
  <property name="kdenlive:meta.media.0.codec.name">dvvideo</property>
  <property name="kdenlive:meta.media.0.codec.long_name">DV (Digital Video)</property>
  <property name="kdenlive:meta.media.0.codec.bit_rate">25000000</property>
  <property name="kdenlive:meta.media.1.stream.type">audio</property>
  <property name="kdenlive:meta.media.1.codec.sample_fmt">s16</property>
  <property name="kdenlive:meta.media.1.codec.sample_rate">32000</property>
  <property name="kdenlive:meta.media.1.codec.channels">2</property>
  <property name="kdenlive:meta.media.1.codec.name">pcm_s16le</property>
  <property name="kdenlive:meta.media.1.codec.long_name">PCM signed 16-bit little-endian</property>
  <property name="kdenlive:meta.media.1.codec.bit_rate">1024000</property>
  <property name="kdenlive:meta.media.2.stream.type">audio</property>
  <property name="kdenlive:meta.media.2.codec.sample_fmt">s16</property>
  <property name="kdenlive:meta.media.2.codec.sample_rate">32000</property>
  <property name="kdenlive:meta.media.2.codec.channels">2</property>
  <property name="kdenlive:meta.media.2.codec.name">pcm_s16le</property>
  <property name="kdenlive:meta.media.2.codec.long_name">PCM signed 16-bit little-endian</property>
  <property name="kdenlive:meta.media.2.codec.bit_rate">1024000</property>
  <property name="kdenlive:meta.attr.timecode.markup">00:00:37;28</property>
  <property name="kdenlive:meta.media.sample_aspect_num">8</property>
  <property name="kdenlive:meta.media.sample_aspect_den">9</property>
  <property name="kdenlive:meta.media.frame_rate_num">30000</property>
  <property name="kdenlive:meta.media.frame_rate_den">1001</property>
  <property name="kdenlive:meta.media.colorspace">601</property>
  <property name="kdenlive:meta.media.color_trc">2</property>
  <property name="kdenlive:meta.media.width">720</property>
  <property name="kdenlive:meta.media.height">480</property>
  <property name="kdenlive:zone_in">28</property>
  <property name="kdenlive:zone_out">126</property>
  <property name="xml">was here</property>
  <property name="meta.media.frame_rate_num">30000</property>
  <property name="meta.media.frame_rate_den">1001</property>
  <property name="meta.media.colorspace">601</property>
  <property name="meta.media.color_trc">2</property>
  <property name="meta.media.width">640</property>
  <property name="meta.media.height">427</property>
  <property name="meta.media.top_field_first">0</property>
  <property name="meta.media.progressive">1</property>
 </producer>
 <producer id="22_playlist3" title="Anonymous Submission" out="273" in="0">
  <property name="length">00:00:09;04</property>
  <property name="eof">pause</property>
  <property name="resource">/home/thoth/.cache/kdenlive/proxy/662c55859006b60157216fd97c52b6b9.mpg</property>
  <property name="meta.media.nb_streams">2</property>
  <property name="meta.media.0.stream.type">video</property>
  <property name="meta.media.0.stream.frame_rate">29.97</property>
  <property name="meta.media.0.stream.sample_aspect_ratio">0</property>
  <property name="meta.media.0.codec.width">640</property>
  <property name="meta.media.0.codec.height">427</property>
  <property name="meta.media.0.codec.rotate">0</property>
  <property name="meta.media.0.codec.frame_rate">29.97</property>
  <property name="meta.media.0.codec.pix_fmt">yuv422p</property>
  <property name="meta.media.0.codec.sample_aspect_ratio">0.889583</property>
  <property name="meta.media.0.codec.colorspace">601</property>
  <property name="meta.media.0.codec.name">mpeg2video</property>
  <property name="meta.media.0.codec.long_name">MPEG-2 video</property>
  <property name="meta.media.0.codec.bit_rate">0</property>
  <property name="meta.media.1.stream.type">audio</property>
  <property name="meta.media.1.codec.sample_fmt">s16p</property>
  <property name="meta.media.1.codec.sample_rate">32000</property>
  <property name="meta.media.1.codec.channels">2</property>
  <property name="meta.media.1.codec.name">mp2</property>
  <property name="meta.media.1.codec.long_name">MP2 (MPEG audio layer 2)</property>
  <property name="meta.media.1.codec.bit_rate">128000</property>
  <property name="seekable">1</property>
  <property name="meta.media.sample_aspect_num">427</property>
  <property name="meta.media.sample_aspect_den">480</property>
  <property name="aspect_ratio">0.889583</property>
  <property name="audio_index">1</property>
  <property name="video_index">0</property>
  <property name="mute_on_pause">1</property>
  <property name="mlt_service">avformat</property>
  <property name="kdenlive:folderid">-1</property>
  <property name="kdenlive:file_size">32880000</property>
  <property name="kdenlive:file_hash">662c55859006b60157216fd97c52b6b9</property>
  <property name="kdenlive:proxy">/home/thoth/.cache/kdenlive/proxy/662c55859006b60157216fd97c52b6b9.mpg</property>
  <property name="proxy_out">273</property>
  <property name="kdenlive:originalurl">2001-07-07-beasty/beastiality-021.dv</property>
  <property name="global_feed">1</property>
  <property name="kdenlive:meta.media.nb_streams">3</property>
  <property name="kdenlive:meta.media.0.stream.type">video</property>
  <property name="kdenlive:meta.media.0.stream.frame_rate">29.97</property>
  <property name="kdenlive:meta.media.0.stream.sample_aspect_ratio">0.888889</property>
  <property name="kdenlive:meta.media.0.codec.width">720</property>
  <property name="kdenlive:meta.media.0.codec.height">480</property>
  <property name="kdenlive:meta.media.0.codec.rotate">0</property>
  <property name="kdenlive:meta.media.0.codec.frame_rate">29.97</property>
  <property name="kdenlive:meta.media.0.codec.pix_fmt">yuv411p</property>
  <property name="kdenlive:meta.media.0.codec.sample_aspect_ratio">0.888889</property>
  <property name="kdenlive:meta.media.0.codec.colorspace">601</property>
  <property name="kdenlive:meta.media.0.codec.name">dvvideo</property>
  <property name="kdenlive:meta.media.0.codec.long_name">DV (Digital Video)</property>
  <property name="kdenlive:meta.media.0.codec.bit_rate">25000000</property>
  <property name="kdenlive:meta.media.1.stream.type">audio</property>
  <property name="kdenlive:meta.media.1.codec.sample_fmt">s16</property>
  <property name="kdenlive:meta.media.1.codec.sample_rate">32000</property>
  <property name="kdenlive:meta.media.1.codec.channels">2</property>
  <property name="kdenlive:meta.media.1.codec.name">pcm_s16le</property>
  <property name="kdenlive:meta.media.1.codec.long_name">PCM signed 16-bit little-endian</property>
  <property name="kdenlive:meta.media.1.codec.bit_rate">1024000</property>
  <property name="kdenlive:meta.media.2.stream.type">audio</property>
  <property name="kdenlive:meta.media.2.codec.sample_fmt">s16</property>
  <property name="kdenlive:meta.media.2.codec.sample_rate">32000</property>
  <property name="kdenlive:meta.media.2.codec.channels">2</property>
  <property name="kdenlive:meta.media.2.codec.name">pcm_s16le</property>
  <property name="kdenlive:meta.media.2.codec.long_name">PCM signed 16-bit little-endian</property>
  <property name="kdenlive:meta.media.2.codec.bit_rate">1024000</property>
  <property name="kdenlive:meta.attr.timecode.markup">00:01:15;03</property>
  <property name="kdenlive:meta.media.sample_aspect_num">8</property>
  <property name="kdenlive:meta.media.sample_aspect_den">9</property>
  <property name="kdenlive:meta.media.frame_rate_num">30000</property>
  <property name="kdenlive:meta.media.frame_rate_den">1001</property>
  <property name="kdenlive:meta.media.colorspace">601</property>
  <property name="kdenlive:meta.media.color_trc">2</property>
  <property name="kdenlive:meta.media.width">720</property>
  <property name="kdenlive:meta.media.height">480</property>
  <property name="kdenlive:zone_in">31</property>
  <property name="kdenlive:zone_out">111</property>
  <property name="xml">was here</property>
  <property name="meta.media.frame_rate_num">30000</property>
  <property name="meta.media.frame_rate_den">1001</property>
  <property name="meta.media.colorspace">601</property>
  <property name="meta.media.color_trc">2</property>
  <property name="meta.media.width">640</property>
  <property name="meta.media.height">427</property>
  <property name="meta.media.top_field_first">0</property>
  <property name="meta.media.progressive">1</property>
 </producer>
 <producer id="41_video" title="Anonymous Submission" out="429" in="0">
  <property name="length">00:00:14;10</property>
  <property name="eof">pause</property>
  <property name="resource">/home/thoth/.cache/kdenlive/proxy/9395827deea820ec3ef2dd6672ed5cf7.mpg</property>
  <property name="meta.media.nb_streams">2</property>
  <property name="meta.media.0.stream.type">video</property>
  <property name="meta.media.0.stream.frame_rate">29.97</property>
  <property name="meta.media.0.stream.sample_aspect_ratio">0</property>
  <property name="meta.media.0.codec.width">640</property>
  <property name="meta.media.0.codec.height">427</property>
  <property name="meta.media.0.codec.rotate">0</property>
  <property name="meta.media.0.codec.frame_rate">29.97</property>
  <property name="meta.media.0.codec.pix_fmt">yuv422p</property>
  <property name="meta.media.0.codec.sample_aspect_ratio">0.889583</property>
  <property name="meta.media.0.codec.colorspace">601</property>
  <property name="meta.media.0.codec.name">mpeg2video</property>
  <property name="meta.media.0.codec.long_name">MPEG-2 video</property>
  <property name="meta.media.0.codec.bit_rate">0</property>
  <property name="meta.media.1.stream.type">audio</property>
  <property name="meta.media.1.codec.sample_fmt">s16p</property>
  <property name="meta.media.1.codec.sample_rate">32000</property>
  <property name="meta.media.1.codec.channels">2</property>
  <property name="meta.media.1.codec.name">mp2</property>
  <property name="meta.media.1.codec.long_name">MP2 (MPEG audio layer 2)</property>
  <property name="meta.media.1.codec.bit_rate">128000</property>
  <property name="seekable">1</property>
  <property name="meta.media.sample_aspect_num">427</property>
  <property name="meta.media.sample_aspect_den">480</property>
  <property name="aspect_ratio">0.889583</property>
  <property name="audio_index">-1</property>
  <property name="video_index">0</property>
  <property name="mute_on_pause">1</property>
  <property name="mlt_service">avformat</property>
  <property name="kdenlive:folderid">-1</property>
  <property name="kdenlive:file_size">51600000</property>
  <property name="kdenlive:file_hash">9395827deea820ec3ef2dd6672ed5cf7</property>
  <property name="kdenlive:proxy">/home/thoth/.cache/kdenlive/proxy/9395827deea820ec3ef2dd6672ed5cf7.mpg</property>
  <property name="proxy_out">429</property>
  <property name="kdenlive:originalurl">2001-07-07-beasty/beastiality-024.dv</property>
  <property name="global_feed">1</property>
  <property name="kdenlive:meta.media.nb_streams">3</property>
  <property name="kdenlive:meta.media.0.stream.type">video</property>
  <property name="kdenlive:meta.media.0.stream.frame_rate">29.97</property>
  <property name="kdenlive:meta.media.0.stream.sample_aspect_ratio">0.888889</property>
  <property name="kdenlive:meta.media.0.codec.width">720</property>
  <property name="kdenlive:meta.media.0.codec.height">480</property>
  <property name="kdenlive:meta.media.0.codec.rotate">0</property>
  <property name="kdenlive:meta.media.0.codec.frame_rate">29.97</property>
  <property name="kdenlive:meta.media.0.codec.pix_fmt">yuv411p</property>
  <property name="kdenlive:meta.media.0.codec.sample_aspect_ratio">0.888889</property>
  <property name="kdenlive:meta.media.0.codec.colorspace">601</property>
  <property name="kdenlive:meta.media.0.codec.name">dvvideo</property>
  <property name="kdenlive:meta.media.0.codec.long_name">DV (Digital Video)</property>
  <property name="kdenlive:meta.media.0.codec.bit_rate">25000000</property>
  <property name="kdenlive:meta.media.1.stream.type">audio</property>
  <property name="kdenlive:meta.media.1.codec.sample_fmt">s16</property>
  <property name="kdenlive:meta.media.1.codec.sample_rate">32000</property>
  <property name="kdenlive:meta.media.1.codec.channels">2</property>
  <property name="kdenlive:meta.media.1.codec.name">pcm_s16le</property>
  <property name="kdenlive:meta.media.1.codec.long_name">PCM signed 16-bit little-endian</property>
  <property name="kdenlive:meta.media.1.codec.bit_rate">1024000</property>
  <property name="kdenlive:meta.media.2.stream.type">audio</property>
  <property name="kdenlive:meta.media.2.codec.sample_fmt">s16</property>
  <property name="kdenlive:meta.media.2.codec.sample_rate">32000</property>
  <property name="kdenlive:meta.media.2.codec.channels">2</property>
  <property name="kdenlive:meta.media.2.codec.name">pcm_s16le</property>
  <property name="kdenlive:meta.media.2.codec.long_name">PCM signed 16-bit little-endian</property>
  <property name="kdenlive:meta.media.2.codec.bit_rate">1024000</property>
  <property name="kdenlive:meta.attr.timecode.markup">00:02:00;04</property>
  <property name="kdenlive:meta.media.sample_aspect_num">8</property>
  <property name="kdenlive:meta.media.sample_aspect_den">9</property>
  <property name="kdenlive:meta.media.frame_rate_num">30000</property>
  <property name="kdenlive:meta.media.frame_rate_den">1001</property>
  <property name="kdenlive:meta.media.colorspace">601</property>
  <property name="kdenlive:meta.media.color_trc">2</property>
  <property name="kdenlive:meta.media.width">720</property>
  <property name="kdenlive:meta.media.height">480</property>
  <property name="kdenlive:zone_in">57</property>
  <property name="kdenlive:zone_out">372</property>
  <property name="xml">was here</property>
  <property name="meta.media.frame_rate_num">30000</property>
  <property name="meta.media.frame_rate_den">1001</property>
  <property name="meta.media.colorspace">601</property>
  <property name="meta.media.color_trc">2</property>
  <property name="meta.media.width">640</property>
  <property name="meta.media.height">427</property>
  <property name="meta.media.top_field_first">0</property>
  <property name="meta.media.progressive">1</property>
 </producer>
 <producer id="42_playlist3" title="Anonymous Submission" out="811" in="0">
  <property name="length">00:00:27;03</property>
  <property name="eof">pause</property>
  <property name="resource">/home/thoth/.cache/kdenlive/proxy/6ac32dfeb53cad68fee1db27074df36b.mpg</property>
  <property name="meta.media.nb_streams">2</property>
  <property name="meta.media.0.stream.type">video</property>
  <property name="meta.media.0.stream.frame_rate">29.97</property>
  <property name="meta.media.0.stream.sample_aspect_ratio">0</property>
  <property name="meta.media.0.codec.width">640</property>
  <property name="meta.media.0.codec.height">427</property>
  <property name="meta.media.0.codec.rotate">0</property>
  <property name="meta.media.0.codec.frame_rate">29.97</property>
  <property name="meta.media.0.codec.pix_fmt">yuv422p</property>
  <property name="meta.media.0.codec.sample_aspect_ratio">0.889583</property>
  <property name="meta.media.0.codec.colorspace">601</property>
  <property name="meta.media.0.codec.name">mpeg2video</property>
  <property name="meta.media.0.codec.long_name">MPEG-2 video</property>
  <property name="meta.media.0.codec.bit_rate">0</property>
  <property name="meta.media.1.stream.type">audio</property>
  <property name="meta.media.1.codec.sample_fmt">s16p</property>
  <property name="meta.media.1.codec.sample_rate">32000</property>
  <property name="meta.media.1.codec.channels">2</property>
  <property name="meta.media.1.codec.name">mp2</property>
  <property name="meta.media.1.codec.long_name">MP2 (MPEG audio layer 2)</property>
  <property name="meta.media.1.codec.bit_rate">128000</property>
  <property name="seekable">1</property>
  <property name="meta.media.sample_aspect_num">427</property>
  <property name="meta.media.sample_aspect_den">480</property>
  <property name="aspect_ratio">0.889583</property>
  <property name="audio_index">1</property>
  <property name="video_index">0</property>
  <property name="mute_on_pause">1</property>
  <property name="mlt_service">avformat</property>
  <property name="kdenlive:folderid">-1</property>
  <property name="kdenlive:file_size">97920000</property>
  <property name="kdenlive:file_hash">6ac32dfeb53cad68fee1db27074df36b</property>
  <property name="kdenlive:proxy">/home/thoth/.cache/kdenlive/proxy/6ac32dfeb53cad68fee1db27074df36b.mpg</property>
  <property name="proxy_out">815</property>
  <property name="kdenlive:originalurl">2001-07-07-beasty/beastiality-025.dv</property>
  <property name="global_feed">1</property>
  <property name="kdenlive:meta.media.nb_streams">3</property>
  <property name="kdenlive:meta.media.0.stream.type">video</property>
  <property name="kdenlive:meta.media.0.stream.frame_rate">29.97</property>
  <property name="kdenlive:meta.media.0.stream.sample_aspect_ratio">0.888889</property>
  <property name="kdenlive:meta.media.0.codec.width">720</property>
  <property name="kdenlive:meta.media.0.codec.height">480</property>
  <property name="kdenlive:meta.media.0.codec.rotate">0</property>
  <property name="kdenlive:meta.media.0.codec.frame_rate">29.97</property>
  <property name="kdenlive:meta.media.0.codec.pix_fmt">yuv411p</property>
  <property name="kdenlive:meta.media.0.codec.sample_aspect_ratio">0.888889</property>
  <property name="kdenlive:meta.media.0.codec.colorspace">601</property>
  <property name="kdenlive:meta.media.0.codec.name">dvvideo</property>
  <property name="kdenlive:meta.media.0.codec.long_name">DV (Digital Video)</property>
  <property name="kdenlive:meta.media.0.codec.bit_rate">25000000</property>
  <property name="kdenlive:meta.media.1.stream.type">audio</property>
  <property name="kdenlive:meta.media.1.codec.sample_fmt">s16</property>
  <property name="kdenlive:meta.media.1.codec.sample_rate">32000</property>
  <property name="kdenlive:meta.media.1.codec.channels">2</property>
  <property name="kdenlive:meta.media.1.codec.name">pcm_s16le</property>
  <property name="kdenlive:meta.media.1.codec.long_name">PCM signed 16-bit little-endian</property>
  <property name="kdenlive:meta.media.1.codec.bit_rate">1024000</property>
  <property name="kdenlive:meta.media.2.stream.type">audio</property>
  <property name="kdenlive:meta.media.2.codec.sample_fmt">s16</property>
  <property name="kdenlive:meta.media.2.codec.sample_rate">32000</property>
  <property name="kdenlive:meta.media.2.codec.channels">2</property>
  <property name="kdenlive:meta.media.2.codec.name">pcm_s16le</property>
  <property name="kdenlive:meta.media.2.codec.long_name">PCM signed 16-bit little-endian</property>
  <property name="kdenlive:meta.media.2.codec.bit_rate">1024000</property>
  <property name="kdenlive:meta.attr.timecode.markup">00:02:14;14</property>
  <property name="kdenlive:meta.media.sample_aspect_num">8</property>
  <property name="kdenlive:meta.media.sample_aspect_den">9</property>
  <property name="kdenlive:meta.media.frame_rate_num">30000</property>
  <property name="kdenlive:meta.media.frame_rate_den">1001</property>
  <property name="kdenlive:meta.media.colorspace">601</property>
  <property name="kdenlive:meta.media.color_trc">2</property>
  <property name="kdenlive:meta.media.width">720</property>
  <property name="kdenlive:meta.media.height">480</property>
  <property name="kdenlive:zone_in">0</property>
  <property name="kdenlive:zone_out">512</property>
  <property name="xml">was here</property>
  <property name="meta.media.frame_rate_num">30000</property>
  <property name="meta.media.frame_rate_den">1001</property>
  <property name="meta.media.colorspace">601</property>
  <property name="meta.media.color_trc">2</property>
  <property name="meta.media.width">640</property>
  <property name="meta.media.height">427</property>
  <property name="meta.media.top_field_first">0</property>
  <property name="meta.media.progressive">1</property>
 </producer>
 <producer id="43_playlist3" title="Anonymous Submission" out="301" in="0">
  <property name="length">00:00:10;02</property>
  <property name="eof">pause</property>
  <property name="resource">/home/thoth/.cache/kdenlive/proxy/e3260923695ef569089fddfadf32167d.mpg</property>
  <property name="meta.media.nb_streams">2</property>
  <property name="meta.media.0.stream.type">video</property>
  <property name="meta.media.0.stream.frame_rate">29.97</property>
  <property name="meta.media.0.stream.sample_aspect_ratio">0</property>
  <property name="meta.media.0.codec.width">640</property>
  <property name="meta.media.0.codec.height">427</property>
  <property name="meta.media.0.codec.rotate">0</property>
  <property name="meta.media.0.codec.frame_rate">29.97</property>
  <property name="meta.media.0.codec.pix_fmt">yuv422p</property>
  <property name="meta.media.0.codec.sample_aspect_ratio">0.889583</property>
  <property name="meta.media.0.codec.colorspace">601</property>
  <property name="meta.media.0.codec.name">mpeg2video</property>
  <property name="meta.media.0.codec.long_name">MPEG-2 video</property>
  <property name="meta.media.0.codec.bit_rate">0</property>
  <property name="meta.media.1.stream.type">audio</property>
  <property name="meta.media.1.codec.sample_fmt">s16p</property>
  <property name="meta.media.1.codec.sample_rate">32000</property>
  <property name="meta.media.1.codec.channels">2</property>
  <property name="meta.media.1.codec.name">mp2</property>
  <property name="meta.media.1.codec.long_name">MP2 (MPEG audio layer 2)</property>
  <property name="meta.media.1.codec.bit_rate">128000</property>
  <property name="seekable">1</property>
  <property name="meta.media.sample_aspect_num">427</property>
  <property name="meta.media.sample_aspect_den">480</property>
  <property name="aspect_ratio">0.889583</property>
  <property name="audio_index">1</property>
  <property name="video_index">0</property>
  <property name="mute_on_pause">1</property>
  <property name="mlt_service">avformat</property>
  <property name="kdenlive:folderid">-1</property>
  <property name="kdenlive:file_size">36240000</property>
  <property name="kdenlive:file_hash">e3260923695ef569089fddfadf32167d</property>
  <property name="kdenlive:proxy">/home/thoth/.cache/kdenlive/proxy/e3260923695ef569089fddfadf32167d.mpg</property>
  <property name="proxy_out">301</property>
  <property name="kdenlive:originalurl">2001-07-07-beasty/beastiality-026.dv</property>
  <property name="global_feed">1</property>
  <property name="kdenlive:meta.media.nb_streams">3</property>
  <property name="kdenlive:meta.media.0.stream.type">video</property>
  <property name="kdenlive:meta.media.0.stream.frame_rate">29.97</property>
  <property name="kdenlive:meta.media.0.stream.sample_aspect_ratio">0.888889</property>
  <property name="kdenlive:meta.media.0.codec.width">720</property>
  <property name="kdenlive:meta.media.0.codec.height">480</property>
  <property name="kdenlive:meta.media.0.codec.rotate">0</property>
  <property name="kdenlive:meta.media.0.codec.frame_rate">29.97</property>
  <property name="kdenlive:meta.media.0.codec.pix_fmt">yuv411p</property>
  <property name="kdenlive:meta.media.0.codec.sample_aspect_ratio">0.888889</property>
  <property name="kdenlive:meta.media.0.codec.colorspace">601</property>
  <property name="kdenlive:meta.media.0.codec.name">dvvideo</property>
  <property name="kdenlive:meta.media.0.codec.long_name">DV (Digital Video)</property>
  <property name="kdenlive:meta.media.0.codec.bit_rate">25000000</property>
  <property name="kdenlive:meta.media.1.stream.type">audio</property>
  <property name="kdenlive:meta.media.1.codec.sample_fmt">s16</property>
  <property name="kdenlive:meta.media.1.codec.sample_rate">32000</property>
  <property name="kdenlive:meta.media.1.codec.channels">2</property>
  <property name="kdenlive:meta.media.1.codec.name">pcm_s16le</property>
  <property name="kdenlive:meta.media.1.codec.long_name">PCM signed 16-bit little-endian</property>
  <property name="kdenlive:meta.media.1.codec.bit_rate">1024000</property>
  <property name="kdenlive:meta.media.2.stream.type">audio</property>
  <property name="kdenlive:meta.media.2.codec.sample_fmt">s16</property>
  <property name="kdenlive:meta.media.2.codec.sample_rate">32000</property>
  <property name="kdenlive:meta.media.2.codec.channels">2</property>
  <property name="kdenlive:meta.media.2.codec.name">pcm_s16le</property>
  <property name="kdenlive:meta.media.2.codec.long_name">PCM signed 16-bit little-endian</property>
  <property name="kdenlive:meta.media.2.codec.bit_rate">1024000</property>
  <property name="kdenlive:meta.attr.timecode.markup">00:02:41;20</property>
  <property name="kdenlive:meta.media.sample_aspect_num">8</property>
  <property name="kdenlive:meta.media.sample_aspect_den">9</property>
  <property name="kdenlive:meta.media.frame_rate_num">30000</property>
  <property name="kdenlive:meta.media.frame_rate_den">1001</property>
  <property name="kdenlive:meta.media.colorspace">601</property>
  <property name="kdenlive:meta.media.color_trc">2</property>
  <property name="kdenlive:meta.media.width">720</property>
  <property name="kdenlive:meta.media.height">480</property>
  <property name="kdenlive:zone_in">92</property>
  <property name="kdenlive:zone_out">231</property>
  <property name="xml">was here</property>
  <property name="meta.media.frame_rate_num">30000</property>
  <property name="meta.media.frame_rate_den">1001</property>
  <property name="meta.media.colorspace">601</property>
  <property name="meta.media.color_trc">2</property>
  <property name="meta.media.width">640</property>
  <property name="meta.media.height">427</property>
  <property name="meta.media.top_field_first">0</property>
  <property name="meta.media.progressive">1</property>
 </producer>
 <producer id="45_video" title="Anonymous Submission" out="442" in="0">
  <property name="length">00:00:14;23</property>
  <property name="eof">pause</property>
  <property name="resource">/home/thoth/.cache/kdenlive/proxy/0fb1dcd5f30cf447750e82eb13b5c67f.mpg</property>
  <property name="meta.media.nb_streams">2</property>
  <property name="meta.media.0.stream.type">video</property>
  <property name="meta.media.0.stream.frame_rate">29.97</property>
  <property name="meta.media.0.stream.sample_aspect_ratio">0</property>
  <property name="meta.media.0.codec.width">640</property>
  <property name="meta.media.0.codec.height">427</property>
  <property name="meta.media.0.codec.rotate">0</property>
  <property name="meta.media.0.codec.frame_rate">29.97</property>
  <property name="meta.media.0.codec.pix_fmt">yuv422p</property>
  <property name="meta.media.0.codec.sample_aspect_ratio">0.889583</property>
  <property name="meta.media.0.codec.colorspace">601</property>
  <property name="meta.media.0.codec.name">mpeg2video</property>
  <property name="meta.media.0.codec.long_name">MPEG-2 video</property>
  <property name="meta.media.0.codec.bit_rate">0</property>
  <property name="meta.media.1.stream.type">audio</property>
  <property name="meta.media.1.codec.sample_fmt">s16p</property>
  <property name="meta.media.1.codec.sample_rate">32000</property>
  <property name="meta.media.1.codec.channels">2</property>
  <property name="meta.media.1.codec.name">mp2</property>
  <property name="meta.media.1.codec.long_name">MP2 (MPEG audio layer 2)</property>
  <property name="meta.media.1.codec.bit_rate">128000</property>
  <property name="seekable">1</property>
  <property name="meta.media.sample_aspect_num">427</property>
  <property name="meta.media.sample_aspect_den">480</property>
  <property name="aspect_ratio">0.889583</property>
  <property name="audio_index">-1</property>
  <property name="video_index">0</property>
  <property name="mute_on_pause">1</property>
  <property name="mlt_service">avformat</property>
  <property name="kdenlive:folderid">-1</property>
  <property name="kdenlive:file_size">53160000</property>
  <property name="kdenlive:file_hash">0fb1dcd5f30cf447750e82eb13b5c67f</property>
  <property name="kdenlive:proxy">/home/thoth/.cache/kdenlive/proxy/0fb1dcd5f30cf447750e82eb13b5c67f.mpg</property>
  <property name="proxy_out">442</property>
  <property name="kdenlive:originalurl">2001-07-07-beasty/beastiality-028.dv</property>
  <property name="global_feed">1</property>
  <property name="kdenlive:meta.media.nb_streams">3</property>
  <property name="kdenlive:meta.media.0.stream.type">video</property>
  <property name="kdenlive:meta.media.0.stream.frame_rate">29.97</property>
  <property name="kdenlive:meta.media.0.stream.sample_aspect_ratio">0.888889</property>
  <property name="kdenlive:meta.media.0.codec.width">720</property>
  <property name="kdenlive:meta.media.0.codec.height">480</property>
  <property name="kdenlive:meta.media.0.codec.rotate">0</property>
  <property name="kdenlive:meta.media.0.codec.frame_rate">29.97</property>
  <property name="kdenlive:meta.media.0.codec.pix_fmt">yuv411p</property>
  <property name="kdenlive:meta.media.0.codec.sample_aspect_ratio">0.888889</property>
  <property name="kdenlive:meta.media.0.codec.colorspace">601</property>
  <property name="kdenlive:meta.media.0.codec.name">dvvideo</property>
  <property name="kdenlive:meta.media.0.codec.long_name">DV (Digital Video)</property>
  <property name="kdenlive:meta.media.0.codec.bit_rate">25000000</property>
  <property name="kdenlive:meta.media.1.stream.type">audio</property>
  <property name="kdenlive:meta.media.1.codec.sample_fmt">s16</property>
  <property name="kdenlive:meta.media.1.codec.sample_rate">32000</property>
  <property name="kdenlive:meta.media.1.codec.channels">2</property>
  <property name="kdenlive:meta.media.1.codec.name">pcm_s16le</property>
  <property name="kdenlive:meta.media.1.codec.long_name">PCM signed 16-bit little-endian</property>
  <property name="kdenlive:meta.media.1.codec.bit_rate">1024000</property>
  <property name="kdenlive:meta.media.2.stream.type">audio</property>
  <property name="kdenlive:meta.media.2.codec.sample_fmt">s16</property>
  <property name="kdenlive:meta.media.2.codec.sample_rate">32000</property>
  <property name="kdenlive:meta.media.2.codec.channels">2</property>
  <property name="kdenlive:meta.media.2.codec.name">pcm_s16le</property>
  <property name="kdenlive:meta.media.2.codec.long_name">PCM signed 16-bit little-endian</property>
  <property name="kdenlive:meta.media.2.codec.bit_rate">1024000</property>
  <property name="kdenlive:meta.attr.timecode.markup">00:02:52;27</property>
  <property name="kdenlive:meta.media.sample_aspect_num">8</property>
  <property name="kdenlive:meta.media.sample_aspect_den">9</property>
  <property name="kdenlive:meta.media.frame_rate_num">30000</property>
  <property name="kdenlive:meta.media.frame_rate_den">1001</property>
  <property name="kdenlive:meta.media.colorspace">601</property>
  <property name="kdenlive:meta.media.color_trc">2</property>
  <property name="kdenlive:meta.media.width">720</property>
  <property name="kdenlive:meta.media.height">480</property>
  <property name="kdenlive:zone_in">0</property>
  <property name="kdenlive:zone_out">442</property>
  <property name="xml">was here</property>
  <property name="meta.media.frame_rate_num">30000</property>
  <property name="meta.media.frame_rate_den">1001</property>
  <property name="meta.media.colorspace">601</property>
  <property name="meta.media.color_trc">2</property>
  <property name="meta.media.width">640</property>
  <property name="meta.media.height">427</property>
  <property name="meta.media.top_field_first">0</property>
  <property name="meta.media.progressive">1</property>
 </producer>
 <producer id="46_video" title="Anonymous Submission" out="517" in="0">
  <property name="length">00:00:17;09</property>
  <property name="eof">pause</property>
  <property name="resource">/home/thoth/.cache/kdenlive/proxy/ee1e5305a973b6add458f27de7e7a0a8.mpg</property>
  <property name="meta.media.nb_streams">2</property>
  <property name="meta.media.0.stream.type">video</property>
  <property name="meta.media.0.stream.frame_rate">29.97</property>
  <property name="meta.media.0.stream.sample_aspect_ratio">0</property>
  <property name="meta.media.0.codec.width">640</property>
  <property name="meta.media.0.codec.height">427</property>
  <property name="meta.media.0.codec.rotate">0</property>
  <property name="meta.media.0.codec.frame_rate">29.97</property>
  <property name="meta.media.0.codec.pix_fmt">yuv422p</property>
  <property name="meta.media.0.codec.sample_aspect_ratio">0.889583</property>
  <property name="meta.media.0.codec.colorspace">601</property>
  <property name="meta.media.0.codec.name">mpeg2video</property>
  <property name="meta.media.0.codec.long_name">MPEG-2 video</property>
  <property name="meta.media.0.codec.bit_rate">0</property>
  <property name="meta.media.1.stream.type">audio</property>
  <property name="meta.media.1.codec.sample_fmt">s16p</property>
  <property name="meta.media.1.codec.sample_rate">32000</property>
  <property name="meta.media.1.codec.channels">2</property>
  <property name="meta.media.1.codec.name">mp2</property>
  <property name="meta.media.1.codec.long_name">MP2 (MPEG audio layer 2)</property>
  <property name="meta.media.1.codec.bit_rate">128000</property>
  <property name="seekable">1</property>
  <property name="meta.media.sample_aspect_num">427</property>
  <property name="meta.media.sample_aspect_den">480</property>
  <property name="aspect_ratio">0.889583</property>
  <property name="audio_index">-1</property>
  <property name="video_index">0</property>
  <property name="mute_on_pause">1</property>
  <property name="mlt_service">avformat</property>
  <property name="kdenlive:folderid">-1</property>
  <property name="kdenlive:file_size">62640000</property>
  <property name="kdenlive:file_hash">ee1e5305a973b6add458f27de7e7a0a8</property>
  <property name="kdenlive:proxy">/home/thoth/.cache/kdenlive/proxy/ee1e5305a973b6add458f27de7e7a0a8.mpg</property>
  <property name="proxy_out">521</property>
  <property name="kdenlive:originalurl">2001-07-07-beasty/beastiality-029.dv</property>
  <property name="global_feed">1</property>
  <property name="kdenlive:meta.media.nb_streams">3</property>
  <property name="kdenlive:meta.media.0.stream.type">video</property>
  <property name="kdenlive:meta.media.0.stream.frame_rate">29.97</property>
  <property name="kdenlive:meta.media.0.stream.sample_aspect_ratio">0.888889</property>
  <property name="kdenlive:meta.media.0.codec.width">720</property>
  <property name="kdenlive:meta.media.0.codec.height">480</property>
  <property name="kdenlive:meta.media.0.codec.rotate">0</property>
  <property name="kdenlive:meta.media.0.codec.frame_rate">29.97</property>
  <property name="kdenlive:meta.media.0.codec.pix_fmt">yuv411p</property>
  <property name="kdenlive:meta.media.0.codec.sample_aspect_ratio">0.888889</property>
  <property name="kdenlive:meta.media.0.codec.colorspace">601</property>
  <property name="kdenlive:meta.media.0.codec.name">dvvideo</property>
  <property name="kdenlive:meta.media.0.codec.long_name">DV (Digital Video)</property>
  <property name="kdenlive:meta.media.0.codec.bit_rate">25000000</property>
  <property name="kdenlive:meta.media.1.stream.type">audio</property>
  <property name="kdenlive:meta.media.1.codec.sample_fmt">s16</property>
  <property name="kdenlive:meta.media.1.codec.sample_rate">32000</property>
  <property name="kdenlive:meta.media.1.codec.channels">2</property>
  <property name="kdenlive:meta.media.1.codec.name">pcm_s16le</property>
  <property name="kdenlive:meta.media.1.codec.long_name">PCM signed 16-bit little-endian</property>
  <property name="kdenlive:meta.media.1.codec.bit_rate">1024000</property>
  <property name="kdenlive:meta.media.2.stream.type">audio</property>
  <property name="kdenlive:meta.media.2.codec.sample_fmt">s16</property>
  <property name="kdenlive:meta.media.2.codec.sample_rate">32000</property>
  <property name="kdenlive:meta.media.2.codec.channels">2</property>
  <property name="kdenlive:meta.media.2.codec.name">pcm_s16le</property>
  <property name="kdenlive:meta.media.2.codec.long_name">PCM signed 16-bit little-endian</property>
  <property name="kdenlive:meta.media.2.codec.bit_rate">1024000</property>
  <property name="kdenlive:meta.attr.timecode.markup">00:03:07;22</property>
  <property name="kdenlive:meta.media.sample_aspect_num">8</property>
  <property name="kdenlive:meta.media.sample_aspect_den">9</property>
  <property name="kdenlive:meta.media.frame_rate_num">30000</property>
  <property name="kdenlive:meta.media.frame_rate_den">1001</property>
  <property name="kdenlive:meta.media.colorspace">601</property>
  <property name="kdenlive:meta.media.color_trc">2</property>
  <property name="kdenlive:meta.media.width">720</property>
  <property name="kdenlive:meta.media.height">480</property>
  <property name="kdenlive:zone_in">140</property>
  <property name="kdenlive:zone_out">371</property>
  <property name="xml">was here</property>
  <property name="meta.media.frame_rate_num">30000</property>
  <property name="meta.media.frame_rate_den">1001</property>
  <property name="meta.media.colorspace">601</property>
  <property name="meta.media.color_trc">2</property>
  <property name="meta.media.width">640</property>
  <property name="meta.media.height">427</property>
  <property name="meta.media.top_field_first">0</property>
  <property name="meta.media.progressive">1</property>
 </producer>
 <producer id="45_playlist3" title="Anonymous Submission" out="442" in="0">
  <property name="length">00:00:14;23</property>
  <property name="eof">pause</property>
  <property name="resource">/home/thoth/.cache/kdenlive/proxy/0fb1dcd5f30cf447750e82eb13b5c67f.mpg</property>
  <property name="meta.media.nb_streams">2</property>
  <property name="meta.media.0.stream.type">video</property>
  <property name="meta.media.0.stream.frame_rate">29.97</property>
  <property name="meta.media.0.stream.sample_aspect_ratio">0</property>
  <property name="meta.media.0.codec.width">640</property>
  <property name="meta.media.0.codec.height">427</property>
  <property name="meta.media.0.codec.rotate">0</property>
  <property name="meta.media.0.codec.frame_rate">29.97</property>
  <property name="meta.media.0.codec.pix_fmt">yuv422p</property>
  <property name="meta.media.0.codec.sample_aspect_ratio">0.889583</property>
  <property name="meta.media.0.codec.colorspace">601</property>
  <property name="meta.media.0.codec.name">mpeg2video</property>
  <property name="meta.media.0.codec.long_name">MPEG-2 video</property>
  <property name="meta.media.0.codec.bit_rate">0</property>
  <property name="meta.media.1.stream.type">audio</property>
  <property name="meta.media.1.codec.sample_fmt">s16p</property>
  <property name="meta.media.1.codec.sample_rate">32000</property>
  <property name="meta.media.1.codec.channels">2</property>
  <property name="meta.media.1.codec.name">mp2</property>
  <property name="meta.media.1.codec.long_name">MP2 (MPEG audio layer 2)</property>
  <property name="meta.media.1.codec.bit_rate">128000</property>
  <property name="seekable">1</property>
  <property name="meta.media.sample_aspect_num">427</property>
  <property name="meta.media.sample_aspect_den">480</property>
  <property name="aspect_ratio">0.889583</property>
  <property name="audio_index">1</property>
  <property name="video_index">0</property>
  <property name="mute_on_pause">1</property>
  <property name="mlt_service">avformat</property>
  <property name="kdenlive:folderid">-1</property>
  <property name="kdenlive:file_size">53160000</property>
  <property name="kdenlive:file_hash">0fb1dcd5f30cf447750e82eb13b5c67f</property>
  <property name="kdenlive:proxy">/home/thoth/.cache/kdenlive/proxy/0fb1dcd5f30cf447750e82eb13b5c67f.mpg</property>
  <property name="proxy_out">442</property>
  <property name="kdenlive:originalurl">2001-07-07-beasty/beastiality-028.dv</property>
  <property name="global_feed">1</property>
  <property name="kdenlive:meta.media.nb_streams">3</property>
  <property name="kdenlive:meta.media.0.stream.type">video</property>
  <property name="kdenlive:meta.media.0.stream.frame_rate">29.97</property>
  <property name="kdenlive:meta.media.0.stream.sample_aspect_ratio">0.888889</property>
  <property name="kdenlive:meta.media.0.codec.width">720</property>
  <property name="kdenlive:meta.media.0.codec.height">480</property>
  <property name="kdenlive:meta.media.0.codec.rotate">0</property>
  <property name="kdenlive:meta.media.0.codec.frame_rate">29.97</property>
  <property name="kdenlive:meta.media.0.codec.pix_fmt">yuv411p</property>
  <property name="kdenlive:meta.media.0.codec.sample_aspect_ratio">0.888889</property>
  <property name="kdenlive:meta.media.0.codec.colorspace">601</property>
  <property name="kdenlive:meta.media.0.codec.name">dvvideo</property>
  <property name="kdenlive:meta.media.0.codec.long_name">DV (Digital Video)</property>
  <property name="kdenlive:meta.media.0.codec.bit_rate">25000000</property>
  <property name="kdenlive:meta.media.1.stream.type">audio</property>
  <property name="kdenlive:meta.media.1.codec.sample_fmt">s16</property>
  <property name="kdenlive:meta.media.1.codec.sample_rate">32000</property>
  <property name="kdenlive:meta.media.1.codec.channels">2</property>
  <property name="kdenlive:meta.media.1.codec.name">pcm_s16le</property>
  <property name="kdenlive:meta.media.1.codec.long_name">PCM signed 16-bit little-endian</property>
  <property name="kdenlive:meta.media.1.codec.bit_rate">1024000</property>
  <property name="kdenlive:meta.media.2.stream.type">audio</property>
  <property name="kdenlive:meta.media.2.codec.sample_fmt">s16</property>
  <property name="kdenlive:meta.media.2.codec.sample_rate">32000</property>
  <property name="kdenlive:meta.media.2.codec.channels">2</property>
  <property name="kdenlive:meta.media.2.codec.name">pcm_s16le</property>
  <property name="kdenlive:meta.media.2.codec.long_name">PCM signed 16-bit little-endian</property>
  <property name="kdenlive:meta.media.2.codec.bit_rate">1024000</property>
  <property name="kdenlive:meta.attr.timecode.markup">00:02:52;27</property>
  <property name="kdenlive:meta.media.sample_aspect_num">8</property>
  <property name="kdenlive:meta.media.sample_aspect_den">9</property>
  <property name="kdenlive:meta.media.frame_rate_num">30000</property>
  <property name="kdenlive:meta.media.frame_rate_den">1001</property>
  <property name="kdenlive:meta.media.colorspace">601</property>
  <property name="kdenlive:meta.media.color_trc">2</property>
  <property name="kdenlive:meta.media.width">720</property>
  <property name="kdenlive:meta.media.height">480</property>
  <property name="kdenlive:zone_in">0</property>
  <property name="kdenlive:zone_out">442</property>
  <property name="xml">was here</property>
  <property name="meta.media.frame_rate_num">30000</property>
  <property name="meta.media.frame_rate_den">1001</property>
  <property name="meta.media.colorspace">601</property>
  <property name="meta.media.color_trc">2</property>
  <property name="meta.media.width">640</property>
  <property name="meta.media.height">427</property>
  <property name="meta.media.top_field_first">0</property>
  <property name="meta.media.progressive">1</property>
 </producer>
 <producer id="47_playlist3" title="Anonymous Submission" out="776" in="0">
  <property name="length">00:00:25;28</property>
  <property name="eof">pause</property>
  <property name="resource">/home/thoth/.cache/kdenlive/proxy/98e1356d30b63915a1e12420c11b21e2.mpg</property>
  <property name="meta.media.nb_streams">2</property>
  <property name="meta.media.0.stream.type">video</property>
  <property name="meta.media.0.stream.frame_rate">29.97</property>
  <property name="meta.media.0.stream.sample_aspect_ratio">0</property>
  <property name="meta.media.0.codec.width">640</property>
  <property name="meta.media.0.codec.height">427</property>
  <property name="meta.media.0.codec.rotate">0</property>
  <property name="meta.media.0.codec.frame_rate">29.97</property>
  <property name="meta.media.0.codec.pix_fmt">yuv422p</property>
  <property name="meta.media.0.codec.sample_aspect_ratio">0.889583</property>
  <property name="meta.media.0.codec.colorspace">601</property>
  <property name="meta.media.0.codec.name">mpeg2video</property>
  <property name="meta.media.0.codec.long_name">MPEG-2 video</property>
  <property name="meta.media.0.codec.bit_rate">0</property>
  <property name="meta.media.1.stream.type">audio</property>
  <property name="meta.media.1.codec.sample_fmt">s16p</property>
  <property name="meta.media.1.codec.sample_rate">32000</property>
  <property name="meta.media.1.codec.channels">2</property>
  <property name="meta.media.1.codec.name">mp2</property>
  <property name="meta.media.1.codec.long_name">MP2 (MPEG audio layer 2)</property>
  <property name="meta.media.1.codec.bit_rate">128000</property>
  <property name="seekable">1</property>
  <property name="meta.media.sample_aspect_num">427</property>
  <property name="meta.media.sample_aspect_den">480</property>
  <property name="aspect_ratio">0.889583</property>
  <property name="audio_index">1</property>
  <property name="video_index">0</property>
  <property name="mute_on_pause">1</property>
  <property name="mlt_service">avformat</property>
  <property name="kdenlive:folderid">-1</property>
  <property name="kdenlive:file_size">93720000</property>
  <property name="kdenlive:file_hash">98e1356d30b63915a1e12420c11b21e2</property>
  <property name="kdenlive:proxy">/home/thoth/.cache/kdenlive/proxy/98e1356d30b63915a1e12420c11b21e2.mpg</property>
  <property name="proxy_out">780</property>
  <property name="kdenlive:originalurl">2001-07-07-beasty/beastiality-030.dv</property>
  <property name="global_feed">1</property>
  <property name="kdenlive:meta.media.nb_streams">3</property>
  <property name="kdenlive:meta.media.0.stream.type">video</property>
  <property name="kdenlive:meta.media.0.stream.frame_rate">29.97</property>
  <property name="kdenlive:meta.media.0.stream.sample_aspect_ratio">0.888889</property>
  <property name="kdenlive:meta.media.0.codec.width">720</property>
  <property name="kdenlive:meta.media.0.codec.height">480</property>
  <property name="kdenlive:meta.media.0.codec.rotate">0</property>
  <property name="kdenlive:meta.media.0.codec.frame_rate">29.97</property>
  <property name="kdenlive:meta.media.0.codec.pix_fmt">yuv411p</property>
  <property name="kdenlive:meta.media.0.codec.sample_aspect_ratio">0.888889</property>
  <property name="kdenlive:meta.media.0.codec.colorspace">601</property>
  <property name="kdenlive:meta.media.0.codec.name">dvvideo</property>
  <property name="kdenlive:meta.media.0.codec.long_name">DV (Digital Video)</property>
  <property name="kdenlive:meta.media.0.codec.bit_rate">25000000</property>
  <property name="kdenlive:meta.media.1.stream.type">audio</property>
  <property name="kdenlive:meta.media.1.codec.sample_fmt">s16</property>
  <property name="kdenlive:meta.media.1.codec.sample_rate">32000</property>
  <property name="kdenlive:meta.media.1.codec.channels">2</property>
  <property name="kdenlive:meta.media.1.codec.name">pcm_s16le</property>
  <property name="kdenlive:meta.media.1.codec.long_name">PCM signed 16-bit little-endian</property>
  <property name="kdenlive:meta.media.1.codec.bit_rate">1024000</property>
  <property name="kdenlive:meta.media.2.stream.type">audio</property>
  <property name="kdenlive:meta.media.2.codec.sample_fmt">s16</property>
  <property name="kdenlive:meta.media.2.codec.sample_rate">32000</property>
  <property name="kdenlive:meta.media.2.codec.channels">2</property>
  <property name="kdenlive:meta.media.2.codec.name">pcm_s16le</property>
  <property name="kdenlive:meta.media.2.codec.long_name">PCM signed 16-bit little-endian</property>
  <property name="kdenlive:meta.media.2.codec.bit_rate">1024000</property>
  <property name="kdenlive:meta.media.sample_aspect_num">8</property>
  <property name="kdenlive:meta.media.sample_aspect_den">9</property>
  <property name="kdenlive:meta.media.frame_rate_num">30000</property>
  <property name="kdenlive:meta.media.frame_rate_den">1001</property>
  <property name="kdenlive:meta.media.colorspace">601</property>
  <property name="kdenlive:meta.media.color_trc">2</property>
  <property name="kdenlive:meta.media.width">720</property>
  <property name="kdenlive:meta.media.height">480</property>
  <property name="kdenlive:zone_in">54</property>
  <property name="kdenlive:zone_out">722</property>
  <property name="xml">was here</property>
  <property name="meta.media.frame_rate_num">30000</property>
  <property name="meta.media.frame_rate_den">1001</property>
  <property name="meta.media.colorspace">601</property>
  <property name="meta.media.color_trc">2</property>
  <property name="meta.media.width">640</property>
  <property name="meta.media.height">427</property>
  <property name="meta.media.top_field_first">0</property>
  <property name="meta.media.progressive">1</property>
 </producer>
 <producer id="26_playlist3" title="Anonymous Submission" out="163" in="0">
  <property name="length">00:00:05;14</property>
  <property name="eof">pause</property>
  <property name="resource">/home/thoth/.cache/kdenlive/proxy/0c1dc1c099e3a96b622dca97b4aec978.mpg</property>
  <property name="meta.media.nb_streams">2</property>
  <property name="meta.media.0.stream.type">video</property>
  <property name="meta.media.0.stream.frame_rate">29.97</property>
  <property name="meta.media.0.stream.sample_aspect_ratio">0</property>
  <property name="meta.media.0.codec.width">640</property>
  <property name="meta.media.0.codec.height">427</property>
  <property name="meta.media.0.codec.rotate">0</property>
  <property name="meta.media.0.codec.frame_rate">29.97</property>
  <property name="meta.media.0.codec.pix_fmt">yuv422p</property>
  <property name="meta.media.0.codec.sample_aspect_ratio">0.889583</property>
  <property name="meta.media.0.codec.colorspace">601</property>
  <property name="meta.media.0.codec.name">mpeg2video</property>
  <property name="meta.media.0.codec.long_name">MPEG-2 video</property>
  <property name="meta.media.0.codec.bit_rate">0</property>
  <property name="meta.media.1.stream.type">audio</property>
  <property name="meta.media.1.codec.sample_fmt">s16p</property>
  <property name="meta.media.1.codec.sample_rate">32000</property>
  <property name="meta.media.1.codec.channels">2</property>
  <property name="meta.media.1.codec.name">mp2</property>
  <property name="meta.media.1.codec.long_name">MP2 (MPEG audio layer 2)</property>
  <property name="meta.media.1.codec.bit_rate">128000</property>
  <property name="seekable">1</property>
  <property name="meta.media.sample_aspect_num">427</property>
  <property name="meta.media.sample_aspect_den">480</property>
  <property name="aspect_ratio">0.889583</property>
  <property name="audio_index">1</property>
  <property name="video_index">0</property>
  <property name="mute_on_pause">1</property>
  <property name="mlt_service">avformat</property>
  <property name="kdenlive:folderid">-1</property>
  <property name="kdenlive:file_size">19680000</property>
  <property name="kdenlive:file_hash">0c1dc1c099e3a96b622dca97b4aec978</property>
  <property name="kdenlive:proxy">/home/thoth/.cache/kdenlive/proxy/0c1dc1c099e3a96b622dca97b4aec978.mpg</property>
  <property name="proxy_out">163</property>
  <property name="kdenlive:originalurl">2001-07-07-beasty/beastiality-032.dv</property>
  <property name="global_feed">1</property>
  <property name="kdenlive:meta.media.nb_streams">3</property>
  <property name="kdenlive:meta.media.0.stream.type">video</property>
  <property name="kdenlive:meta.media.0.stream.frame_rate">29.97</property>
  <property name="kdenlive:meta.media.0.stream.sample_aspect_ratio">0.888889</property>
  <property name="kdenlive:meta.media.0.codec.width">720</property>
  <property name="kdenlive:meta.media.0.codec.height">480</property>
  <property name="kdenlive:meta.media.0.codec.rotate">0</property>
  <property name="kdenlive:meta.media.0.codec.frame_rate">29.97</property>
  <property name="kdenlive:meta.media.0.codec.pix_fmt">yuv411p</property>
  <property name="kdenlive:meta.media.0.codec.sample_aspect_ratio">0.888889</property>
  <property name="kdenlive:meta.media.0.codec.colorspace">601</property>
  <property name="kdenlive:meta.media.0.codec.name">dvvideo</property>
  <property name="kdenlive:meta.media.0.codec.long_name">DV (Digital Video)</property>
  <property name="kdenlive:meta.media.0.codec.bit_rate">25000000</property>
  <property name="kdenlive:meta.media.1.stream.type">audio</property>
  <property name="kdenlive:meta.media.1.codec.sample_fmt">s16</property>
  <property name="kdenlive:meta.media.1.codec.sample_rate">32000</property>
  <property name="kdenlive:meta.media.1.codec.channels">2</property>
  <property name="kdenlive:meta.media.1.codec.name">pcm_s16le</property>
  <property name="kdenlive:meta.media.1.codec.long_name">PCM signed 16-bit little-endian</property>
  <property name="kdenlive:meta.media.1.codec.bit_rate">1024000</property>
  <property name="kdenlive:meta.media.2.stream.type">audio</property>
  <property name="kdenlive:meta.media.2.codec.sample_fmt">s16</property>
  <property name="kdenlive:meta.media.2.codec.sample_rate">32000</property>
  <property name="kdenlive:meta.media.2.codec.channels">2</property>
  <property name="kdenlive:meta.media.2.codec.name">pcm_s16le</property>
  <property name="kdenlive:meta.media.2.codec.long_name">PCM signed 16-bit little-endian</property>
  <property name="kdenlive:meta.media.2.codec.bit_rate">1024000</property>
  <property name="kdenlive:meta.attr.timecode.markup">00:03:57;11</property>
  <property name="kdenlive:meta.media.sample_aspect_num">8</property>
  <property name="kdenlive:meta.media.sample_aspect_den">9</property>
  <property name="kdenlive:meta.media.frame_rate_num">30000</property>
  <property name="kdenlive:meta.media.frame_rate_den">1001</property>
  <property name="kdenlive:meta.media.colorspace">601</property>
  <property name="kdenlive:meta.media.color_trc">2</property>
  <property name="kdenlive:meta.media.width">720</property>
  <property name="kdenlive:meta.media.height">480</property>
  <property name="kdenlive:zone_in">78</property>
  <property name="kdenlive:zone_out">163</property>
  <property name="xml">was here</property>
  <property name="meta.media.frame_rate_num">30000</property>
  <property name="meta.media.frame_rate_den">1001</property>
  <property name="meta.media.colorspace">601</property>
  <property name="meta.media.color_trc">2</property>
  <property name="meta.media.width">640</property>
  <property name="meta.media.height">427</property>
  <property name="meta.media.top_field_first">0</property>
  <property name="meta.media.progressive">1</property>
 </producer>
 <producer id="27_playlist3" title="Anonymous Submission" out="672" in="0">
  <property name="length">00:00:22;14</property>
  <property name="eof">pause</property>
  <property name="resource">/home/thoth/.cache/kdenlive/proxy/f2b7bd9d788ecd8e30b1bc5c4940afa0.mpg</property>
  <property name="meta.media.nb_streams">2</property>
  <property name="meta.media.0.stream.type">video</property>
  <property name="meta.media.0.stream.frame_rate">29.97</property>
  <property name="meta.media.0.stream.sample_aspect_ratio">0</property>
  <property name="meta.media.0.codec.width">640</property>
  <property name="meta.media.0.codec.height">427</property>
  <property name="meta.media.0.codec.rotate">0</property>
  <property name="meta.media.0.codec.frame_rate">29.97</property>
  <property name="meta.media.0.codec.pix_fmt">yuv422p</property>
  <property name="meta.media.0.codec.sample_aspect_ratio">0.889583</property>
  <property name="meta.media.0.codec.colorspace">601</property>
  <property name="meta.media.0.codec.name">mpeg2video</property>
  <property name="meta.media.0.codec.long_name">MPEG-2 video</property>
  <property name="meta.media.0.codec.bit_rate">0</property>
  <property name="meta.media.1.stream.type">audio</property>
  <property name="meta.media.1.codec.sample_fmt">s16p</property>
  <property name="meta.media.1.codec.sample_rate">32000</property>
  <property name="meta.media.1.codec.channels">2</property>
  <property name="meta.media.1.codec.name">mp2</property>
  <property name="meta.media.1.codec.long_name">MP2 (MPEG audio layer 2)</property>
  <property name="meta.media.1.codec.bit_rate">128000</property>
  <property name="seekable">1</property>
  <property name="meta.media.sample_aspect_num">427</property>
  <property name="meta.media.sample_aspect_den">480</property>
  <property name="aspect_ratio">0.889583</property>
  <property name="audio_index">1</property>
  <property name="video_index">0</property>
  <property name="mute_on_pause">1</property>
  <property name="mlt_service">avformat</property>
  <property name="kdenlive:folderid">-1</property>
  <property name="kdenlive:file_size">81360000</property>
  <property name="kdenlive:file_hash">f2b7bd9d788ecd8e30b1bc5c4940afa0</property>
  <property name="kdenlive:proxy">/home/thoth/.cache/kdenlive/proxy/f2b7bd9d788ecd8e30b1bc5c4940afa0.mpg</property>
  <property name="proxy_out">677</property>
  <property name="kdenlive:originalurl">2001-07-07-beasty/beastiality-033.dv</property>
  <property name="global_feed">1</property>
  <property name="kdenlive:meta.media.nb_streams">3</property>
  <property name="kdenlive:meta.media.0.stream.type">video</property>
  <property name="kdenlive:meta.media.0.stream.frame_rate">29.97</property>
  <property name="kdenlive:meta.media.0.stream.sample_aspect_ratio">0.888889</property>
  <property name="kdenlive:meta.media.0.codec.width">720</property>
  <property name="kdenlive:meta.media.0.codec.height">480</property>
  <property name="kdenlive:meta.media.0.codec.rotate">0</property>
  <property name="kdenlive:meta.media.0.codec.frame_rate">29.97</property>
  <property name="kdenlive:meta.media.0.codec.pix_fmt">yuv411p</property>
  <property name="kdenlive:meta.media.0.codec.sample_aspect_ratio">0.888889</property>
  <property name="kdenlive:meta.media.0.codec.colorspace">601</property>
  <property name="kdenlive:meta.media.0.codec.name">dvvideo</property>
  <property name="kdenlive:meta.media.0.codec.long_name">DV (Digital Video)</property>
  <property name="kdenlive:meta.media.0.codec.bit_rate">25000000</property>
  <property name="kdenlive:meta.media.1.stream.type">audio</property>
  <property name="kdenlive:meta.media.1.codec.sample_fmt">s16</property>
  <property name="kdenlive:meta.media.1.codec.sample_rate">32000</property>
  <property name="kdenlive:meta.media.1.codec.channels">2</property>
  <property name="kdenlive:meta.media.1.codec.name">pcm_s16le</property>
  <property name="kdenlive:meta.media.1.codec.long_name">PCM signed 16-bit little-endian</property>
  <property name="kdenlive:meta.media.1.codec.bit_rate">1024000</property>
  <property name="kdenlive:meta.media.2.stream.type">audio</property>
  <property name="kdenlive:meta.media.2.codec.sample_fmt">s16</property>
  <property name="kdenlive:meta.media.2.codec.sample_rate">32000</property>
  <property name="kdenlive:meta.media.2.codec.channels">2</property>
  <property name="kdenlive:meta.media.2.codec.name">pcm_s16le</property>
  <property name="kdenlive:meta.media.2.codec.long_name">PCM signed 16-bit little-endian</property>
  <property name="kdenlive:meta.media.2.codec.bit_rate">1024000</property>
  <property name="kdenlive:meta.attr.timecode.markup">00:04:02;27</property>
  <property name="kdenlive:meta.media.sample_aspect_num">8</property>
  <property name="kdenlive:meta.media.sample_aspect_den">9</property>
  <property name="kdenlive:meta.media.frame_rate_num">30000</property>
  <property name="kdenlive:meta.media.frame_rate_den">1001</property>
  <property name="kdenlive:meta.media.colorspace">601</property>
  <property name="kdenlive:meta.media.color_trc">2</property>
  <property name="kdenlive:meta.media.width">720</property>
  <property name="kdenlive:meta.media.height">480</property>
  <property name="kdenlive:zone_in">67</property>
  <property name="kdenlive:zone_out">110</property>
  <property name="xml">was here</property>
  <property name="meta.media.frame_rate_num">30000</property>
  <property name="meta.media.frame_rate_den">1001</property>
  <property name="meta.media.colorspace">601</property>
  <property name="meta.media.color_trc">2</property>
  <property name="meta.media.width">640</property>
  <property name="meta.media.height">427</property>
  <property name="meta.media.top_field_first">0</property>
  <property name="meta.media.progressive">1</property>
 </producer>
 <producer id="47_video" title="Anonymous Submission" out="773" in="0">
  <property name="length">00:00:25;25</property>
  <property name="eof">pause</property>
  <property name="resource">/home/thoth/.cache/kdenlive/proxy/98e1356d30b63915a1e12420c11b21e2.mpg</property>
  <property name="meta.media.nb_streams">2</property>
  <property name="meta.media.0.stream.type">video</property>
  <property name="meta.media.0.stream.frame_rate">29.97</property>
  <property name="meta.media.0.stream.sample_aspect_ratio">0</property>
  <property name="meta.media.0.codec.width">640</property>
  <property name="meta.media.0.codec.height">427</property>
  <property name="meta.media.0.codec.rotate">0</property>
  <property name="meta.media.0.codec.frame_rate">29.97</property>
  <property name="meta.media.0.codec.pix_fmt">yuv422p</property>
  <property name="meta.media.0.codec.sample_aspect_ratio">0.889583</property>
  <property name="meta.media.0.codec.colorspace">601</property>
  <property name="meta.media.0.codec.name">mpeg2video</property>
  <property name="meta.media.0.codec.long_name">MPEG-2 video</property>
  <property name="meta.media.0.codec.bit_rate">0</property>
  <property name="meta.media.1.stream.type">audio</property>
  <property name="meta.media.1.codec.sample_fmt">s16p</property>
  <property name="meta.media.1.codec.sample_rate">32000</property>
  <property name="meta.media.1.codec.channels">2</property>
  <property name="meta.media.1.codec.name">mp2</property>
  <property name="meta.media.1.codec.long_name">MP2 (MPEG audio layer 2)</property>
  <property name="meta.media.1.codec.bit_rate">128000</property>
  <property name="seekable">1</property>
  <property name="meta.media.sample_aspect_num">427</property>
  <property name="meta.media.sample_aspect_den">480</property>
  <property name="aspect_ratio">0.889583</property>
  <property name="audio_index">-1</property>
  <property name="video_index">0</property>
  <property name="mute_on_pause">1</property>
  <property name="mlt_service">avformat</property>
  <property name="kdenlive:folderid">-1</property>
  <property name="kdenlive:file_size">93720000</property>
  <property name="kdenlive:file_hash">98e1356d30b63915a1e12420c11b21e2</property>
  <property name="kdenlive:proxy">/home/thoth/.cache/kdenlive/proxy/98e1356d30b63915a1e12420c11b21e2.mpg</property>
  <property name="proxy_out">780</property>
  <property name="kdenlive:originalurl">2001-07-07-beasty/beastiality-030.dv</property>
  <property name="global_feed">1</property>
  <property name="kdenlive:meta.media.nb_streams">3</property>
  <property name="kdenlive:meta.media.0.stream.type">video</property>
  <property name="kdenlive:meta.media.0.stream.frame_rate">29.97</property>
  <property name="kdenlive:meta.media.0.stream.sample_aspect_ratio">0.888889</property>
  <property name="kdenlive:meta.media.0.codec.width">720</property>
  <property name="kdenlive:meta.media.0.codec.height">480</property>
  <property name="kdenlive:meta.media.0.codec.rotate">0</property>
  <property name="kdenlive:meta.media.0.codec.frame_rate">29.97</property>
  <property name="kdenlive:meta.media.0.codec.pix_fmt">yuv411p</property>
  <property name="kdenlive:meta.media.0.codec.sample_aspect_ratio">0.888889</property>
  <property name="kdenlive:meta.media.0.codec.colorspace">601</property>
  <property name="kdenlive:meta.media.0.codec.name">dvvideo</property>
  <property name="kdenlive:meta.media.0.codec.long_name">DV (Digital Video)</property>
  <property name="kdenlive:meta.media.0.codec.bit_rate">25000000</property>
  <property name="kdenlive:meta.media.1.stream.type">audio</property>
  <property name="kdenlive:meta.media.1.codec.sample_fmt">s16</property>
  <property name="kdenlive:meta.media.1.codec.sample_rate">32000</property>
  <property name="kdenlive:meta.media.1.codec.channels">2</property>
  <property name="kdenlive:meta.media.1.codec.name">pcm_s16le</property>
  <property name="kdenlive:meta.media.1.codec.long_name">PCM signed 16-bit little-endian</property>
  <property name="kdenlive:meta.media.1.codec.bit_rate">1024000</property>
  <property name="kdenlive:meta.media.2.stream.type">audio</property>
  <property name="kdenlive:meta.media.2.codec.sample_fmt">s16</property>
  <property name="kdenlive:meta.media.2.codec.sample_rate">32000</property>
  <property name="kdenlive:meta.media.2.codec.channels">2</property>
  <property name="kdenlive:meta.media.2.codec.name">pcm_s16le</property>
  <property name="kdenlive:meta.media.2.codec.long_name">PCM signed 16-bit little-endian</property>
  <property name="kdenlive:meta.media.2.codec.bit_rate">1024000</property>
  <property name="kdenlive:meta.media.sample_aspect_num">8</property>
  <property name="kdenlive:meta.media.sample_aspect_den">9</property>
  <property name="kdenlive:meta.media.frame_rate_num">30000</property>
  <property name="kdenlive:meta.media.frame_rate_den">1001</property>
  <property name="kdenlive:meta.media.colorspace">601</property>
  <property name="kdenlive:meta.media.color_trc">2</property>
  <property name="kdenlive:meta.media.width">720</property>
  <property name="kdenlive:meta.media.height">480</property>
  <property name="kdenlive:zone_in">54</property>
  <property name="kdenlive:zone_out">722</property>
  <property name="xml">was here</property>
  <property name="meta.media.frame_rate_num">30000</property>
  <property name="meta.media.frame_rate_den">1001</property>
  <property name="meta.media.colorspace">601</property>
  <property name="meta.media.color_trc">2</property>
  <property name="meta.media.width">640</property>
  <property name="meta.media.height">427</property>
  <property name="meta.media.top_field_first">0</property>
  <property name="meta.media.progressive">1</property>
 </producer>
 <producer id="27_video" title="Anonymous Submission" out="670" in="0">
  <property name="length">00:00:22;12</property>
  <property name="eof">pause</property>
  <property name="resource">/home/thoth/.cache/kdenlive/proxy/f2b7bd9d788ecd8e30b1bc5c4940afa0.mpg</property>
  <property name="meta.media.nb_streams">2</property>
  <property name="meta.media.0.stream.type">video</property>
  <property name="meta.media.0.stream.frame_rate">29.97</property>
  <property name="meta.media.0.stream.sample_aspect_ratio">0</property>
  <property name="meta.media.0.codec.width">640</property>
  <property name="meta.media.0.codec.height">427</property>
  <property name="meta.media.0.codec.rotate">0</property>
  <property name="meta.media.0.codec.frame_rate">29.97</property>
  <property name="meta.media.0.codec.pix_fmt">yuv422p</property>
  <property name="meta.media.0.codec.sample_aspect_ratio">0.889583</property>
  <property name="meta.media.0.codec.colorspace">601</property>
  <property name="meta.media.0.codec.name">mpeg2video</property>
  <property name="meta.media.0.codec.long_name">MPEG-2 video</property>
  <property name="meta.media.0.codec.bit_rate">0</property>
  <property name="meta.media.1.stream.type">audio</property>
  <property name="meta.media.1.codec.sample_fmt">s16p</property>
  <property name="meta.media.1.codec.sample_rate">32000</property>
  <property name="meta.media.1.codec.channels">2</property>
  <property name="meta.media.1.codec.name">mp2</property>
  <property name="meta.media.1.codec.long_name">MP2 (MPEG audio layer 2)</property>
  <property name="meta.media.1.codec.bit_rate">128000</property>
  <property name="seekable">1</property>
  <property name="meta.media.sample_aspect_num">427</property>
  <property name="meta.media.sample_aspect_den">480</property>
  <property name="aspect_ratio">0.889583</property>
  <property name="audio_index">-1</property>
  <property name="video_index">0</property>
  <property name="mute_on_pause">1</property>
  <property name="mlt_service">avformat</property>
  <property name="kdenlive:folderid">-1</property>
  <property name="kdenlive:file_size">81360000</property>
  <property name="kdenlive:file_hash">f2b7bd9d788ecd8e30b1bc5c4940afa0</property>
  <property name="kdenlive:proxy">/home/thoth/.cache/kdenlive/proxy/f2b7bd9d788ecd8e30b1bc5c4940afa0.mpg</property>
  <property name="proxy_out">677</property>
  <property name="kdenlive:originalurl">2001-07-07-beasty/beastiality-033.dv</property>
  <property name="global_feed">1</property>
  <property name="kdenlive:meta.media.nb_streams">3</property>
  <property name="kdenlive:meta.media.0.stream.type">video</property>
  <property name="kdenlive:meta.media.0.stream.frame_rate">29.97</property>
  <property name="kdenlive:meta.media.0.stream.sample_aspect_ratio">0.888889</property>
  <property name="kdenlive:meta.media.0.codec.width">720</property>
  <property name="kdenlive:meta.media.0.codec.height">480</property>
  <property name="kdenlive:meta.media.0.codec.rotate">0</property>
  <property name="kdenlive:meta.media.0.codec.frame_rate">29.97</property>
  <property name="kdenlive:meta.media.0.codec.pix_fmt">yuv411p</property>
  <property name="kdenlive:meta.media.0.codec.sample_aspect_ratio">0.888889</property>
  <property name="kdenlive:meta.media.0.codec.colorspace">601</property>
  <property name="kdenlive:meta.media.0.codec.name">dvvideo</property>
  <property name="kdenlive:meta.media.0.codec.long_name">DV (Digital Video)</property>
  <property name="kdenlive:meta.media.0.codec.bit_rate">25000000</property>
  <property name="kdenlive:meta.media.1.stream.type">audio</property>
  <property name="kdenlive:meta.media.1.codec.sample_fmt">s16</property>
  <property name="kdenlive:meta.media.1.codec.sample_rate">32000</property>
  <property name="kdenlive:meta.media.1.codec.channels">2</property>
  <property name="kdenlive:meta.media.1.codec.name">pcm_s16le</property>
  <property name="kdenlive:meta.media.1.codec.long_name">PCM signed 16-bit little-endian</property>
  <property name="kdenlive:meta.media.1.codec.bit_rate">1024000</property>
  <property name="kdenlive:meta.media.2.stream.type">audio</property>
  <property name="kdenlive:meta.media.2.codec.sample_fmt">s16</property>
  <property name="kdenlive:meta.media.2.codec.sample_rate">32000</property>
  <property name="kdenlive:meta.media.2.codec.channels">2</property>
  <property name="kdenlive:meta.media.2.codec.name">pcm_s16le</property>
  <property name="kdenlive:meta.media.2.codec.long_name">PCM signed 16-bit little-endian</property>
  <property name="kdenlive:meta.media.2.codec.bit_rate">1024000</property>
  <property name="kdenlive:meta.attr.timecode.markup">00:04:02;27</property>
  <property name="kdenlive:meta.media.sample_aspect_num">8</property>
  <property name="kdenlive:meta.media.sample_aspect_den">9</property>
  <property name="kdenlive:meta.media.frame_rate_num">30000</property>
  <property name="kdenlive:meta.media.frame_rate_den">1001</property>
  <property name="kdenlive:meta.media.colorspace">601</property>
  <property name="kdenlive:meta.media.color_trc">2</property>
  <property name="kdenlive:meta.media.width">720</property>
  <property name="kdenlive:meta.media.height">480</property>
  <property name="kdenlive:zone_in">263</property>
  <property name="kdenlive:zone_out">625</property>
  <property name="xml">was here</property>
  <property name="meta.media.frame_rate_num">30000</property>
  <property name="meta.media.frame_rate_den">1001</property>
  <property name="meta.media.colorspace">601</property>
  <property name="meta.media.color_trc">2</property>
  <property name="meta.media.width">640</property>
  <property name="meta.media.height">427</property>
  <property name="meta.media.top_field_first">0</property>
  <property name="meta.media.progressive">1</property>
 </producer>
 <producer id="28_playlist3" title="Anonymous Submission" out="263" in="0">
  <property name="length">00:00:08;24</property>
  <property name="eof">pause</property>
  <property name="resource">/home/thoth/.cache/kdenlive/proxy/61ac5b82e70946bf5228db1235ecc5c0.mpg</property>
  <property name="meta.media.nb_streams">2</property>
  <property name="meta.media.0.stream.type">video</property>
  <property name="meta.media.0.stream.frame_rate">29.97</property>
  <property name="meta.media.0.stream.sample_aspect_ratio">0</property>
  <property name="meta.media.0.codec.width">640</property>
  <property name="meta.media.0.codec.height">427</property>
  <property name="meta.media.0.codec.rotate">0</property>
  <property name="meta.media.0.codec.frame_rate">29.97</property>
  <property name="meta.media.0.codec.pix_fmt">yuv422p</property>
  <property name="meta.media.0.codec.sample_aspect_ratio">0.889583</property>
  <property name="meta.media.0.codec.colorspace">601</property>
  <property name="meta.media.0.codec.name">mpeg2video</property>
  <property name="meta.media.0.codec.long_name">MPEG-2 video</property>
  <property name="meta.media.0.codec.bit_rate">0</property>
  <property name="meta.media.1.stream.type">audio</property>
  <property name="meta.media.1.codec.sample_fmt">s16p</property>
  <property name="meta.media.1.codec.sample_rate">32000</property>
  <property name="meta.media.1.codec.channels">2</property>
  <property name="meta.media.1.codec.name">mp2</property>
  <property name="meta.media.1.codec.long_name">MP2 (MPEG audio layer 2)</property>
  <property name="meta.media.1.codec.bit_rate">128000</property>
  <property name="seekable">1</property>
  <property name="meta.media.sample_aspect_num">427</property>
  <property name="meta.media.sample_aspect_den">480</property>
  <property name="aspect_ratio">0.889583</property>
  <property name="audio_index">1</property>
  <property name="video_index">0</property>
  <property name="mute_on_pause">1</property>
  <property name="mlt_service">avformat</property>
  <property name="kdenlive:folderid">-1</property>
  <property name="kdenlive:file_size">31680000</property>
  <property name="kdenlive:file_hash">61ac5b82e70946bf5228db1235ecc5c0</property>
  <property name="kdenlive:proxy">/home/thoth/.cache/kdenlive/proxy/61ac5b82e70946bf5228db1235ecc5c0.mpg</property>
  <property name="proxy_out">263</property>
  <property name="kdenlive:originalurl">2001-07-07-beasty/beastiality-034.dv</property>
  <property name="global_feed">1</property>
  <property name="kdenlive:meta.media.nb_streams">3</property>
  <property name="kdenlive:meta.media.0.stream.type">video</property>
  <property name="kdenlive:meta.media.0.stream.frame_rate">29.97</property>
  <property name="kdenlive:meta.media.0.stream.sample_aspect_ratio">0.888889</property>
  <property name="kdenlive:meta.media.0.codec.width">720</property>
  <property name="kdenlive:meta.media.0.codec.height">480</property>
  <property name="kdenlive:meta.media.0.codec.rotate">0</property>
  <property name="kdenlive:meta.media.0.codec.frame_rate">29.97</property>
  <property name="kdenlive:meta.media.0.codec.pix_fmt">yuv411p</property>
  <property name="kdenlive:meta.media.0.codec.sample_aspect_ratio">0.888889</property>
  <property name="kdenlive:meta.media.0.codec.colorspace">601</property>
  <property name="kdenlive:meta.media.0.codec.name">dvvideo</property>
  <property name="kdenlive:meta.media.0.codec.long_name">DV (Digital Video)</property>
  <property name="kdenlive:meta.media.0.codec.bit_rate">25000000</property>
  <property name="kdenlive:meta.media.1.stream.type">audio</property>
  <property name="kdenlive:meta.media.1.codec.sample_fmt">s16</property>
  <property name="kdenlive:meta.media.1.codec.sample_rate">32000</property>
  <property name="kdenlive:meta.media.1.codec.channels">2</property>
  <property name="kdenlive:meta.media.1.codec.name">pcm_s16le</property>
  <property name="kdenlive:meta.media.1.codec.long_name">PCM signed 16-bit little-endian</property>
  <property name="kdenlive:meta.media.1.codec.bit_rate">1024000</property>
  <property name="kdenlive:meta.media.2.stream.type">audio</property>
  <property name="kdenlive:meta.media.2.codec.sample_fmt">s16</property>
  <property name="kdenlive:meta.media.2.codec.sample_rate">32000</property>
  <property name="kdenlive:meta.media.2.codec.channels">2</property>
  <property name="kdenlive:meta.media.2.codec.name">pcm_s16le</property>
  <property name="kdenlive:meta.media.2.codec.long_name">PCM signed 16-bit little-endian</property>
  <property name="kdenlive:meta.media.2.codec.bit_rate">1024000</property>
  <property name="kdenlive:meta.attr.timecode.markup">00:00:15;21</property>
  <property name="kdenlive:meta.media.sample_aspect_num">8</property>
  <property name="kdenlive:meta.media.sample_aspect_den">9</property>
  <property name="kdenlive:meta.media.frame_rate_num">30000</property>
  <property name="kdenlive:meta.media.frame_rate_den">1001</property>
  <property name="kdenlive:meta.media.colorspace">601</property>
  <property name="kdenlive:meta.media.color_trc">2</property>
  <property name="kdenlive:meta.media.width">720</property>
  <property name="kdenlive:meta.media.height">480</property>
  <property name="kdenlive:zone_in">60</property>
  <property name="kdenlive:zone_out">168</property>
  <property name="xml">was here</property>
  <property name="meta.media.frame_rate_num">30000</property>
  <property name="meta.media.frame_rate_den">1001</property>
  <property name="meta.media.colorspace">601</property>
  <property name="meta.media.color_trc">2</property>
  <property name="meta.media.width">640</property>
  <property name="meta.media.height">427</property>
  <property name="meta.media.top_field_first">0</property>
  <property name="meta.media.progressive">1</property>
 </producer>
 <producer id="33_playlist3" title="Anonymous Submission" out="268" in="0">
  <property name="length">00:00:08;29</property>
  <property name="eof">pause</property>
  <property name="resource">/home/thoth/.cache/kdenlive/proxy/8071d1d0f0e590faa7cfa353189f609f.mpg</property>
  <property name="meta.media.nb_streams">2</property>
  <property name="meta.media.0.stream.type">video</property>
  <property name="meta.media.0.stream.frame_rate">29.97</property>
  <property name="meta.media.0.stream.sample_aspect_ratio">0</property>
  <property name="meta.media.0.codec.width">640</property>
  <property name="meta.media.0.codec.height">427</property>
  <property name="meta.media.0.codec.rotate">0</property>
  <property name="meta.media.0.codec.frame_rate">29.97</property>
  <property name="meta.media.0.codec.pix_fmt">yuv422p</property>
  <property name="meta.media.0.codec.sample_aspect_ratio">0.889583</property>
  <property name="meta.media.0.codec.colorspace">601</property>
  <property name="meta.media.0.codec.name">mpeg2video</property>
  <property name="meta.media.0.codec.long_name">MPEG-2 video</property>
  <property name="meta.media.0.codec.bit_rate">0</property>
  <property name="meta.media.1.stream.type">audio</property>
  <property name="meta.media.1.codec.sample_fmt">s16p</property>
  <property name="meta.media.1.codec.sample_rate">32000</property>
  <property name="meta.media.1.codec.channels">2</property>
  <property name="meta.media.1.codec.name">mp2</property>
  <property name="meta.media.1.codec.long_name">MP2 (MPEG audio layer 2)</property>
  <property name="meta.media.1.codec.bit_rate">128000</property>
  <property name="seekable">1</property>
  <property name="meta.media.sample_aspect_num">427</property>
  <property name="meta.media.sample_aspect_den">480</property>
  <property name="aspect_ratio">0.889583</property>
  <property name="audio_index">1</property>
  <property name="video_index">0</property>
  <property name="mute_on_pause">1</property>
  <property name="mlt_service">avformat</property>
  <property name="kdenlive:folderid">-1</property>
  <property name="kdenlive:file_size">32280000</property>
  <property name="kdenlive:file_hash">8071d1d0f0e590faa7cfa353189f609f</property>
  <property name="kdenlive:proxy">/home/thoth/.cache/kdenlive/proxy/8071d1d0f0e590faa7cfa353189f609f.mpg</property>
  <property name="proxy_out">268</property>
  <property name="kdenlive:originalurl">2001-07-07-beasty/beastiality-035.dv</property>
  <property name="global_feed">1</property>
  <property name="kdenlive:meta.media.nb_streams">3</property>
  <property name="kdenlive:meta.media.0.stream.type">video</property>
  <property name="kdenlive:meta.media.0.stream.frame_rate">29.97</property>
  <property name="kdenlive:meta.media.0.stream.sample_aspect_ratio">0.888889</property>
  <property name="kdenlive:meta.media.0.codec.width">720</property>
  <property name="kdenlive:meta.media.0.codec.height">480</property>
  <property name="kdenlive:meta.media.0.codec.rotate">0</property>
  <property name="kdenlive:meta.media.0.codec.frame_rate">29.97</property>
  <property name="kdenlive:meta.media.0.codec.pix_fmt">yuv411p</property>
  <property name="kdenlive:meta.media.0.codec.sample_aspect_ratio">0.888889</property>
  <property name="kdenlive:meta.media.0.codec.colorspace">601</property>
  <property name="kdenlive:meta.media.0.codec.name">dvvideo</property>
  <property name="kdenlive:meta.media.0.codec.long_name">DV (Digital Video)</property>
  <property name="kdenlive:meta.media.0.codec.bit_rate">25000000</property>
  <property name="kdenlive:meta.media.1.stream.type">audio</property>
  <property name="kdenlive:meta.media.1.codec.sample_fmt">s16</property>
  <property name="kdenlive:meta.media.1.codec.sample_rate">32000</property>
  <property name="kdenlive:meta.media.1.codec.channels">2</property>
  <property name="kdenlive:meta.media.1.codec.name">pcm_s16le</property>
  <property name="kdenlive:meta.media.1.codec.long_name">PCM signed 16-bit little-endian</property>
  <property name="kdenlive:meta.media.1.codec.bit_rate">1024000</property>
  <property name="kdenlive:meta.media.2.stream.type">audio</property>
  <property name="kdenlive:meta.media.2.codec.sample_fmt">s16</property>
  <property name="kdenlive:meta.media.2.codec.sample_rate">32000</property>
  <property name="kdenlive:meta.media.2.codec.channels">2</property>
  <property name="kdenlive:meta.media.2.codec.name">pcm_s16le</property>
  <property name="kdenlive:meta.media.2.codec.long_name">PCM signed 16-bit little-endian</property>
  <property name="kdenlive:meta.media.2.codec.bit_rate">1024000</property>
  <property name="kdenlive:meta.attr.timecode.markup">00:00:24;15</property>
  <property name="kdenlive:meta.media.sample_aspect_num">8</property>
  <property name="kdenlive:meta.media.sample_aspect_den">9</property>
  <property name="kdenlive:meta.media.frame_rate_num">30000</property>
  <property name="kdenlive:meta.media.frame_rate_den">1001</property>
  <property name="kdenlive:meta.media.colorspace">601</property>
  <property name="kdenlive:meta.media.color_trc">2</property>
  <property name="kdenlive:meta.media.width">720</property>
  <property name="kdenlive:meta.media.height">480</property>
  <property name="kdenlive:zone_in">64</property>
  <property name="kdenlive:zone_out">227</property>
  <property name="xml">was here</property>
  <property name="meta.media.frame_rate_num">30000</property>
  <property name="meta.media.frame_rate_den">1001</property>
  <property name="meta.media.colorspace">601</property>
  <property name="meta.media.color_trc">2</property>
  <property name="meta.media.width">640</property>
  <property name="meta.media.height">427</property>
  <property name="meta.media.top_field_first">0</property>
  <property name="meta.media.progressive">1</property>
 </producer>
 <producer id="34_video" title="Anonymous Submission" out="300" in="0">
  <property name="length">00:00:10;01</property>
  <property name="eof">pause</property>
  <property name="resource">/home/thoth/.cache/kdenlive/proxy/74a68ddbb94279ffccf914435063a5cb.mpg</property>
  <property name="meta.media.nb_streams">2</property>
  <property name="meta.media.0.stream.type">video</property>
  <property name="meta.media.0.stream.frame_rate">29.97</property>
  <property name="meta.media.0.stream.sample_aspect_ratio">0</property>
  <property name="meta.media.0.codec.width">640</property>
  <property name="meta.media.0.codec.height">427</property>
  <property name="meta.media.0.codec.rotate">0</property>
  <property name="meta.media.0.codec.frame_rate">29.97</property>
  <property name="meta.media.0.codec.pix_fmt">yuv422p</property>
  <property name="meta.media.0.codec.sample_aspect_ratio">0.889583</property>
  <property name="meta.media.0.codec.colorspace">601</property>
  <property name="meta.media.0.codec.name">mpeg2video</property>
  <property name="meta.media.0.codec.long_name">MPEG-2 video</property>
  <property name="meta.media.0.codec.bit_rate">0</property>
  <property name="meta.media.1.stream.type">audio</property>
  <property name="meta.media.1.codec.sample_fmt">s16p</property>
  <property name="meta.media.1.codec.sample_rate">32000</property>
  <property name="meta.media.1.codec.channels">2</property>
  <property name="meta.media.1.codec.name">mp2</property>
  <property name="meta.media.1.codec.long_name">MP2 (MPEG audio layer 2)</property>
  <property name="meta.media.1.codec.bit_rate">128000</property>
  <property name="seekable">1</property>
  <property name="meta.media.sample_aspect_num">427</property>
  <property name="meta.media.sample_aspect_den">480</property>
  <property name="aspect_ratio">0.889583</property>
  <property name="audio_index">-1</property>
  <property name="video_index">0</property>
  <property name="mute_on_pause">1</property>
  <property name="mlt_service">avformat</property>
  <property name="kdenlive:folderid">-1</property>
  <property name="kdenlive:file_size">36120000</property>
  <property name="kdenlive:file_hash">74a68ddbb94279ffccf914435063a5cb</property>
  <property name="kdenlive:proxy">/home/thoth/.cache/kdenlive/proxy/74a68ddbb94279ffccf914435063a5cb.mpg</property>
  <property name="proxy_out">300</property>
  <property name="kdenlive:originalurl">2001-07-07-beasty/beastiality-036.dv</property>
  <property name="global_feed">1</property>
  <property name="kdenlive:meta.media.nb_streams">3</property>
  <property name="kdenlive:meta.media.0.stream.type">video</property>
  <property name="kdenlive:meta.media.0.stream.frame_rate">29.97</property>
  <property name="kdenlive:meta.media.0.stream.sample_aspect_ratio">0.888889</property>
  <property name="kdenlive:meta.media.0.codec.width">720</property>
  <property name="kdenlive:meta.media.0.codec.height">480</property>
  <property name="kdenlive:meta.media.0.codec.rotate">0</property>
  <property name="kdenlive:meta.media.0.codec.frame_rate">29.97</property>
  <property name="kdenlive:meta.media.0.codec.pix_fmt">yuv411p</property>
  <property name="kdenlive:meta.media.0.codec.sample_aspect_ratio">0.888889</property>
  <property name="kdenlive:meta.media.0.codec.colorspace">601</property>
  <property name="kdenlive:meta.media.0.codec.name">dvvideo</property>
  <property name="kdenlive:meta.media.0.codec.long_name">DV (Digital Video)</property>
  <property name="kdenlive:meta.media.0.codec.bit_rate">25000000</property>
  <property name="kdenlive:meta.media.1.stream.type">audio</property>
  <property name="kdenlive:meta.media.1.codec.sample_fmt">s16</property>
  <property name="kdenlive:meta.media.1.codec.sample_rate">32000</property>
  <property name="kdenlive:meta.media.1.codec.channels">2</property>
  <property name="kdenlive:meta.media.1.codec.name">pcm_s16le</property>
  <property name="kdenlive:meta.media.1.codec.long_name">PCM signed 16-bit little-endian</property>
  <property name="kdenlive:meta.media.1.codec.bit_rate">1024000</property>
  <property name="kdenlive:meta.media.2.stream.type">audio</property>
  <property name="kdenlive:meta.media.2.codec.sample_fmt">s16</property>
  <property name="kdenlive:meta.media.2.codec.sample_rate">32000</property>
  <property name="kdenlive:meta.media.2.codec.channels">2</property>
  <property name="kdenlive:meta.media.2.codec.name">pcm_s16le</property>
  <property name="kdenlive:meta.media.2.codec.long_name">PCM signed 16-bit little-endian</property>
  <property name="kdenlive:meta.media.2.codec.bit_rate">1024000</property>
  <property name="kdenlive:meta.attr.timecode.markup">00:00:33;14</property>
  <property name="kdenlive:meta.media.sample_aspect_num">8</property>
  <property name="kdenlive:meta.media.sample_aspect_den">9</property>
  <property name="kdenlive:meta.media.frame_rate_num">30000</property>
  <property name="kdenlive:meta.media.frame_rate_den">1001</property>
  <property name="kdenlive:meta.media.colorspace">601</property>
  <property name="kdenlive:meta.media.color_trc">2</property>
  <property name="kdenlive:meta.media.width">720</property>
  <property name="kdenlive:meta.media.height">480</property>
  <property name="kdenlive:zone_in">0</property>
  <property name="kdenlive:zone_out">264</property>
  <property name="xml">was here</property>
  <property name="meta.media.frame_rate_num">30000</property>
  <property name="meta.media.frame_rate_den">1001</property>
  <property name="meta.media.colorspace">601</property>
  <property name="meta.media.color_trc">2</property>
  <property name="meta.media.width">640</property>
  <property name="meta.media.height">427</property>
  <property name="meta.media.top_field_first">0</property>
  <property name="meta.media.progressive">1</property>
 </producer>
 <producer id="48_playlist3" title="Anonymous Submission" out="643" in="0">
  <property name="length">00:00:21;15</property>
  <property name="eof">pause</property>
  <property name="resource">/home/thoth/.cache/kdenlive/proxy/ee982c035828d614c73504d40df4f32b.mpg</property>
  <property name="meta.media.nb_streams">2</property>
  <property name="meta.media.0.stream.type">video</property>
  <property name="meta.media.0.stream.frame_rate">29.97</property>
  <property name="meta.media.0.stream.sample_aspect_ratio">0</property>
  <property name="meta.media.0.codec.width">640</property>
  <property name="meta.media.0.codec.height">427</property>
  <property name="meta.media.0.codec.rotate">0</property>
  <property name="meta.media.0.codec.frame_rate">29.97</property>
  <property name="meta.media.0.codec.pix_fmt">yuv422p</property>
  <property name="meta.media.0.codec.sample_aspect_ratio">0.889583</property>
  <property name="meta.media.0.codec.colorspace">601</property>
  <property name="meta.media.0.codec.name">mpeg2video</property>
  <property name="meta.media.0.codec.long_name">MPEG-2 video</property>
  <property name="meta.media.0.codec.bit_rate">0</property>
  <property name="meta.media.1.stream.type">audio</property>
  <property name="meta.media.1.codec.sample_fmt">s16p</property>
  <property name="meta.media.1.codec.sample_rate">32000</property>
  <property name="meta.media.1.codec.channels">2</property>
  <property name="meta.media.1.codec.name">mp2</property>
  <property name="meta.media.1.codec.long_name">MP2 (MPEG audio layer 2)</property>
  <property name="meta.media.1.codec.bit_rate">128000</property>
  <property name="seekable">1</property>
  <property name="meta.media.sample_aspect_num">427</property>
  <property name="meta.media.sample_aspect_den">480</property>
  <property name="aspect_ratio">0.889583</property>
  <property name="audio_index">1</property>
  <property name="video_index">0</property>
  <property name="mute_on_pause">1</property>
  <property name="mlt_service">avformat</property>
  <property name="kdenlive:folderid">-1</property>
  <property name="kdenlive:file_size">77880000</property>
  <property name="kdenlive:file_hash">ee982c035828d614c73504d40df4f32b</property>
  <property name="kdenlive:proxy">/home/thoth/.cache/kdenlive/proxy/ee982c035828d614c73504d40df4f32b.mpg</property>
  <property name="proxy_out">648</property>
  <property name="kdenlive:originalurl">2001-07-07-beasty/beastiality-039.dv</property>
  <property name="global_feed">1</property>
  <property name="kdenlive:meta.media.nb_streams">3</property>
  <property name="kdenlive:meta.media.0.stream.type">video</property>
  <property name="kdenlive:meta.media.0.stream.frame_rate">29.97</property>
  <property name="kdenlive:meta.media.0.stream.sample_aspect_ratio">0.888889</property>
  <property name="kdenlive:meta.media.0.codec.width">720</property>
  <property name="kdenlive:meta.media.0.codec.height">480</property>
  <property name="kdenlive:meta.media.0.codec.rotate">0</property>
  <property name="kdenlive:meta.media.0.codec.frame_rate">29.97</property>
  <property name="kdenlive:meta.media.0.codec.pix_fmt">yuv411p</property>
  <property name="kdenlive:meta.media.0.codec.sample_aspect_ratio">0.888889</property>
  <property name="kdenlive:meta.media.0.codec.colorspace">601</property>
  <property name="kdenlive:meta.media.0.codec.name">dvvideo</property>
  <property name="kdenlive:meta.media.0.codec.long_name">DV (Digital Video)</property>
  <property name="kdenlive:meta.media.0.codec.bit_rate">25000000</property>
  <property name="kdenlive:meta.media.1.stream.type">audio</property>
  <property name="kdenlive:meta.media.1.codec.sample_fmt">s16</property>
  <property name="kdenlive:meta.media.1.codec.sample_rate">32000</property>
  <property name="kdenlive:meta.media.1.codec.channels">2</property>
  <property name="kdenlive:meta.media.1.codec.name">pcm_s16le</property>
  <property name="kdenlive:meta.media.1.codec.long_name">PCM signed 16-bit little-endian</property>
  <property name="kdenlive:meta.media.1.codec.bit_rate">1024000</property>
  <property name="kdenlive:meta.media.2.stream.type">audio</property>
  <property name="kdenlive:meta.media.2.codec.sample_fmt">s16</property>
  <property name="kdenlive:meta.media.2.codec.sample_rate">32000</property>
  <property name="kdenlive:meta.media.2.codec.channels">2</property>
  <property name="kdenlive:meta.media.2.codec.name">pcm_s16le</property>
  <property name="kdenlive:meta.media.2.codec.long_name">PCM signed 16-bit little-endian</property>
  <property name="kdenlive:meta.media.2.codec.bit_rate">1024000</property>
  <property name="kdenlive:meta.attr.timecode.markup">00:01:12;10</property>
  <property name="kdenlive:meta.media.sample_aspect_num">8</property>
  <property name="kdenlive:meta.media.sample_aspect_den">9</property>
  <property name="kdenlive:meta.media.frame_rate_num">30000</property>
  <property name="kdenlive:meta.media.frame_rate_den">1001</property>
  <property name="kdenlive:meta.media.colorspace">601</property>
  <property name="kdenlive:meta.media.color_trc">2</property>
  <property name="kdenlive:meta.media.width">720</property>
  <property name="kdenlive:meta.media.height">480</property>
  <property name="kdenlive:zone_in">0</property>
  <property name="kdenlive:zone_out">644</property>
  <property name="xml">was here</property>
  <property name="meta.media.frame_rate_num">30000</property>
  <property name="meta.media.frame_rate_den">1001</property>
  <property name="meta.media.colorspace">601</property>
  <property name="meta.media.color_trc">2</property>
  <property name="meta.media.width">640</property>
  <property name="meta.media.height">427</property>
  <property name="meta.media.top_field_first">0</property>
  <property name="meta.media.progressive">1</property>
 </producer>
 <producer id="36_playlist3" title="Anonymous Submission" out="432" in="0">
  <property name="length">00:00:14;13</property>
  <property name="eof">pause</property>
  <property name="resource">/home/thoth/.cache/kdenlive/proxy/ac0abce9f10d7aabfb2d3c321ecdcbda.mpg</property>
  <property name="meta.media.nb_streams">2</property>
  <property name="meta.media.0.stream.type">video</property>
  <property name="meta.media.0.stream.frame_rate">29.97</property>
  <property name="meta.media.0.stream.sample_aspect_ratio">0</property>
  <property name="meta.media.0.codec.width">640</property>
  <property name="meta.media.0.codec.height">427</property>
  <property name="meta.media.0.codec.rotate">0</property>
  <property name="meta.media.0.codec.frame_rate">29.97</property>
  <property name="meta.media.0.codec.pix_fmt">yuv422p</property>
  <property name="meta.media.0.codec.sample_aspect_ratio">0.889583</property>
  <property name="meta.media.0.codec.colorspace">601</property>
  <property name="meta.media.0.codec.name">mpeg2video</property>
  <property name="meta.media.0.codec.long_name">MPEG-2 video</property>
  <property name="meta.media.0.codec.bit_rate">0</property>
  <property name="meta.media.1.stream.type">audio</property>
  <property name="meta.media.1.codec.sample_fmt">s16p</property>
  <property name="meta.media.1.codec.sample_rate">32000</property>
  <property name="meta.media.1.codec.channels">2</property>
  <property name="meta.media.1.codec.name">mp2</property>
  <property name="meta.media.1.codec.long_name">MP2 (MPEG audio layer 2)</property>
  <property name="meta.media.1.codec.bit_rate">128000</property>
  <property name="seekable">1</property>
  <property name="meta.media.sample_aspect_num">427</property>
  <property name="meta.media.sample_aspect_den">480</property>
  <property name="aspect_ratio">0.889583</property>
  <property name="audio_index">1</property>
  <property name="video_index">0</property>
  <property name="mute_on_pause">1</property>
  <property name="mlt_service">avformat</property>
  <property name="kdenlive:folderid">-1</property>
  <property name="kdenlive:file_size">51960000</property>
  <property name="kdenlive:file_hash">ac0abce9f10d7aabfb2d3c321ecdcbda</property>
  <property name="kdenlive:proxy">/home/thoth/.cache/kdenlive/proxy/ac0abce9f10d7aabfb2d3c321ecdcbda.mpg</property>
  <property name="proxy_out">432</property>
  <property name="kdenlive:originalurl">2001-07-07-beasty/beastiality-038.dv</property>
  <property name="global_feed">1</property>
  <property name="kdenlive:meta.media.nb_streams">3</property>
  <property name="kdenlive:meta.media.0.stream.type">video</property>
  <property name="kdenlive:meta.media.0.stream.frame_rate">29.97</property>
  <property name="kdenlive:meta.media.0.stream.sample_aspect_ratio">0.888889</property>
  <property name="kdenlive:meta.media.0.codec.width">720</property>
  <property name="kdenlive:meta.media.0.codec.height">480</property>
  <property name="kdenlive:meta.media.0.codec.rotate">0</property>
  <property name="kdenlive:meta.media.0.codec.frame_rate">29.97</property>
  <property name="kdenlive:meta.media.0.codec.pix_fmt">yuv411p</property>
  <property name="kdenlive:meta.media.0.codec.sample_aspect_ratio">0.888889</property>
  <property name="kdenlive:meta.media.0.codec.colorspace">601</property>
  <property name="kdenlive:meta.media.0.codec.name">dvvideo</property>
  <property name="kdenlive:meta.media.0.codec.long_name">DV (Digital Video)</property>
  <property name="kdenlive:meta.media.0.codec.bit_rate">25000000</property>
  <property name="kdenlive:meta.media.1.stream.type">audio</property>
  <property name="kdenlive:meta.media.1.codec.sample_fmt">s16</property>
  <property name="kdenlive:meta.media.1.codec.sample_rate">32000</property>
  <property name="kdenlive:meta.media.1.codec.channels">2</property>
  <property name="kdenlive:meta.media.1.codec.name">pcm_s16le</property>
  <property name="kdenlive:meta.media.1.codec.long_name">PCM signed 16-bit little-endian</property>
  <property name="kdenlive:meta.media.1.codec.bit_rate">1024000</property>
  <property name="kdenlive:meta.media.2.stream.type">audio</property>
  <property name="kdenlive:meta.media.2.codec.sample_fmt">s16</property>
  <property name="kdenlive:meta.media.2.codec.sample_rate">32000</property>
  <property name="kdenlive:meta.media.2.codec.channels">2</property>
  <property name="kdenlive:meta.media.2.codec.name">pcm_s16le</property>
  <property name="kdenlive:meta.media.2.codec.long_name">PCM signed 16-bit little-endian</property>
  <property name="kdenlive:meta.media.2.codec.bit_rate">1024000</property>
  <property name="kdenlive:meta.media.sample_aspect_num">8</property>
  <property name="kdenlive:meta.media.sample_aspect_den">9</property>
  <property name="kdenlive:meta.media.frame_rate_num">30000</property>
  <property name="kdenlive:meta.media.frame_rate_den">1001</property>
  <property name="kdenlive:meta.media.colorspace">601</property>
  <property name="kdenlive:meta.media.color_trc">2</property>
  <property name="kdenlive:meta.media.width">720</property>
  <property name="kdenlive:meta.media.height">480</property>
  <property name="kdenlive:zone_in">37</property>
  <property name="kdenlive:zone_out">432</property>
  <property name="xml">was here</property>
  <property name="meta.media.frame_rate_num">30000</property>
  <property name="meta.media.frame_rate_den">1001</property>
  <property name="meta.media.colorspace">601</property>
  <property name="meta.media.color_trc">2</property>
  <property name="meta.media.width">640</property>
  <property name="meta.media.height">427</property>
  <property name="meta.media.top_field_first">0</property>
  <property name="meta.media.progressive">1</property>
 </producer>
 <producer id="50_playlist3" title="Anonymous Submission" out="639" in="0">
  <property name="length">00:00:21;11</property>
  <property name="eof">pause</property>
  <property name="resource">/home/thoth/.cache/kdenlive/proxy/cdc1ba5a6074de5d8df57cfcd6568c3d.mpg</property>
  <property name="meta.media.nb_streams">2</property>
  <property name="meta.media.0.stream.type">video</property>
  <property name="meta.media.0.stream.frame_rate">29.97</property>
  <property name="meta.media.0.stream.sample_aspect_ratio">0</property>
  <property name="meta.media.0.codec.width">640</property>
  <property name="meta.media.0.codec.height">427</property>
  <property name="meta.media.0.codec.rotate">0</property>
  <property name="meta.media.0.codec.frame_rate">29.97</property>
  <property name="meta.media.0.codec.pix_fmt">yuv422p</property>
  <property name="meta.media.0.codec.sample_aspect_ratio">0.889583</property>
  <property name="meta.media.0.codec.colorspace">601</property>
  <property name="meta.media.0.codec.name">mpeg2video</property>
  <property name="meta.media.0.codec.long_name">MPEG-2 video</property>
  <property name="meta.media.0.codec.bit_rate">0</property>
  <property name="meta.media.1.stream.type">audio</property>
  <property name="meta.media.1.codec.sample_fmt">s16p</property>
  <property name="meta.media.1.codec.sample_rate">32000</property>
  <property name="meta.media.1.codec.channels">2</property>
  <property name="meta.media.1.codec.name">mp2</property>
  <property name="meta.media.1.codec.long_name">MP2 (MPEG audio layer 2)</property>
  <property name="meta.media.1.codec.bit_rate">128000</property>
  <property name="seekable">1</property>
  <property name="meta.media.sample_aspect_num">427</property>
  <property name="meta.media.sample_aspect_den">480</property>
  <property name="aspect_ratio">0.889583</property>
  <property name="audio_index">1</property>
  <property name="video_index">0</property>
  <property name="mute_on_pause">1</property>
  <property name="mlt_service">avformat</property>
  <property name="kdenlive:folderid">-1</property>
  <property name="kdenlive:file_size">77400000</property>
  <property name="kdenlive:file_hash">cdc1ba5a6074de5d8df57cfcd6568c3d</property>
  <property name="kdenlive:proxy">/home/thoth/.cache/kdenlive/proxy/cdc1ba5a6074de5d8df57cfcd6568c3d.mpg</property>
  <property name="proxy_out">644</property>
  <property name="kdenlive:originalurl">2001-07-07-beasty/beastiality-041.dv</property>
  <property name="global_feed">1</property>
  <property name="kdenlive:meta.media.nb_streams">3</property>
  <property name="kdenlive:meta.media.0.stream.type">video</property>
  <property name="kdenlive:meta.media.0.stream.frame_rate">29.97</property>
  <property name="kdenlive:meta.media.0.stream.sample_aspect_ratio">0.888889</property>
  <property name="kdenlive:meta.media.0.codec.width">720</property>
  <property name="kdenlive:meta.media.0.codec.height">480</property>
  <property name="kdenlive:meta.media.0.codec.rotate">0</property>
  <property name="kdenlive:meta.media.0.codec.frame_rate">29.97</property>
  <property name="kdenlive:meta.media.0.codec.pix_fmt">yuv411p</property>
  <property name="kdenlive:meta.media.0.codec.sample_aspect_ratio">0.888889</property>
  <property name="kdenlive:meta.media.0.codec.colorspace">601</property>
  <property name="kdenlive:meta.media.0.codec.name">dvvideo</property>
  <property name="kdenlive:meta.media.0.codec.long_name">DV (Digital Video)</property>
  <property name="kdenlive:meta.media.0.codec.bit_rate">25000000</property>
  <property name="kdenlive:meta.media.1.stream.type">audio</property>
  <property name="kdenlive:meta.media.1.codec.sample_fmt">s16</property>
  <property name="kdenlive:meta.media.1.codec.sample_rate">32000</property>
  <property name="kdenlive:meta.media.1.codec.channels">2</property>
  <property name="kdenlive:meta.media.1.codec.name">pcm_s16le</property>
  <property name="kdenlive:meta.media.1.codec.long_name">PCM signed 16-bit little-endian</property>
  <property name="kdenlive:meta.media.1.codec.bit_rate">1024000</property>
  <property name="kdenlive:meta.media.2.stream.type">audio</property>
  <property name="kdenlive:meta.media.2.codec.sample_fmt">s16</property>
  <property name="kdenlive:meta.media.2.codec.sample_rate">32000</property>
  <property name="kdenlive:meta.media.2.codec.channels">2</property>
  <property name="kdenlive:meta.media.2.codec.name">pcm_s16le</property>
  <property name="kdenlive:meta.media.2.codec.long_name">PCM signed 16-bit little-endian</property>
  <property name="kdenlive:meta.media.2.codec.bit_rate">1024000</property>
  <property name="kdenlive:meta.attr.timecode.markup">00:01:43;22</property>
  <property name="kdenlive:meta.media.sample_aspect_num">8</property>
  <property name="kdenlive:meta.media.sample_aspect_den">9</property>
  <property name="kdenlive:meta.media.frame_rate_num">30000</property>
  <property name="kdenlive:meta.media.frame_rate_den">1001</property>
  <property name="kdenlive:meta.media.colorspace">601</property>
  <property name="kdenlive:meta.media.color_trc">2</property>
  <property name="kdenlive:meta.media.width">720</property>
  <property name="kdenlive:meta.media.height">480</property>
  <property name="kdenlive:zone_in">69</property>
  <property name="kdenlive:zone_out">640</property>
  <property name="xml">was here</property>
  <property name="meta.media.frame_rate_num">30000</property>
  <property name="meta.media.frame_rate_den">1001</property>
  <property name="meta.media.colorspace">601</property>
  <property name="meta.media.color_trc">2</property>
  <property name="meta.media.width">640</property>
  <property name="meta.media.height">427</property>
  <property name="meta.media.top_field_first">0</property>
  <property name="meta.media.progressive">1</property>
 </producer>
 <producer id="56_playlist3" title="Anonymous Submission" out="567" in="0">
  <property name="length">00:00:18;29</property>
  <property name="eof">pause</property>
  <property name="resource">/home/thoth/.cache/kdenlive/proxy/a447e008df1cc1544bff0cde207f27d5.mpg</property>
  <property name="meta.media.nb_streams">2</property>
  <property name="meta.media.0.stream.type">video</property>
  <property name="meta.media.0.stream.frame_rate">29.97</property>
  <property name="meta.media.0.stream.sample_aspect_ratio">0</property>
  <property name="meta.media.0.codec.width">640</property>
  <property name="meta.media.0.codec.height">427</property>
  <property name="meta.media.0.codec.rotate">0</property>
  <property name="meta.media.0.codec.frame_rate">29.97</property>
  <property name="meta.media.0.codec.pix_fmt">yuv422p</property>
  <property name="meta.media.0.codec.sample_aspect_ratio">0.889583</property>
  <property name="meta.media.0.codec.colorspace">601</property>
  <property name="meta.media.0.codec.name">mpeg2video</property>
  <property name="meta.media.0.codec.long_name">MPEG-2 video</property>
  <property name="meta.media.0.codec.bit_rate">0</property>
  <property name="meta.media.1.stream.type">audio</property>
  <property name="meta.media.1.codec.sample_fmt">s16p</property>
  <property name="meta.media.1.codec.sample_rate">32000</property>
  <property name="meta.media.1.codec.channels">2</property>
  <property name="meta.media.1.codec.name">mp2</property>
  <property name="meta.media.1.codec.long_name">MP2 (MPEG audio layer 2)</property>
  <property name="meta.media.1.codec.bit_rate">128000</property>
  <property name="seekable">1</property>
  <property name="meta.media.sample_aspect_num">427</property>
  <property name="meta.media.sample_aspect_den">480</property>
  <property name="aspect_ratio">0.889583</property>
  <property name="audio_index">1</property>
  <property name="video_index">0</property>
  <property name="mute_on_pause">1</property>
  <property name="mlt_service">avformat</property>
  <property name="kdenlive:folderid">-1</property>
  <property name="kdenlive:file_size">68760000</property>
  <property name="kdenlive:file_hash">a447e008df1cc1544bff0cde207f27d5</property>
  <property name="kdenlive:proxy">/home/thoth/.cache/kdenlive/proxy/a447e008df1cc1544bff0cde207f27d5.mpg</property>
  <property name="proxy_out">572</property>
  <property name="kdenlive:originalurl">2001-07-07-beasty/beastiality-043.dv</property>
  <property name="global_feed">1</property>
  <property name="kdenlive:meta.media.nb_streams">3</property>
  <property name="kdenlive:meta.media.0.stream.type">video</property>
  <property name="kdenlive:meta.media.0.stream.frame_rate">29.97</property>
  <property name="kdenlive:meta.media.0.stream.sample_aspect_ratio">0.888889</property>
  <property name="kdenlive:meta.media.0.codec.width">720</property>
  <property name="kdenlive:meta.media.0.codec.height">480</property>
  <property name="kdenlive:meta.media.0.codec.rotate">0</property>
  <property name="kdenlive:meta.media.0.codec.frame_rate">29.97</property>
  <property name="kdenlive:meta.media.0.codec.pix_fmt">yuv411p</property>
  <property name="kdenlive:meta.media.0.codec.sample_aspect_ratio">0.888889</property>
  <property name="kdenlive:meta.media.0.codec.colorspace">601</property>
  <property name="kdenlive:meta.media.0.codec.name">dvvideo</property>
  <property name="kdenlive:meta.media.0.codec.long_name">DV (Digital Video)</property>
  <property name="kdenlive:meta.media.0.codec.bit_rate">25000000</property>
  <property name="kdenlive:meta.media.1.stream.type">audio</property>
  <property name="kdenlive:meta.media.1.codec.sample_fmt">s16</property>
  <property name="kdenlive:meta.media.1.codec.sample_rate">32000</property>
  <property name="kdenlive:meta.media.1.codec.channels">2</property>
  <property name="kdenlive:meta.media.1.codec.name">pcm_s16le</property>
  <property name="kdenlive:meta.media.1.codec.long_name">PCM signed 16-bit little-endian</property>
  <property name="kdenlive:meta.media.1.codec.bit_rate">1024000</property>
  <property name="kdenlive:meta.media.2.stream.type">audio</property>
  <property name="kdenlive:meta.media.2.codec.sample_fmt">s16</property>
  <property name="kdenlive:meta.media.2.codec.sample_rate">32000</property>
  <property name="kdenlive:meta.media.2.codec.channels">2</property>
  <property name="kdenlive:meta.media.2.codec.name">pcm_s16le</property>
  <property name="kdenlive:meta.media.2.codec.long_name">PCM signed 16-bit little-endian</property>
  <property name="kdenlive:meta.media.2.codec.bit_rate">1024000</property>
  <property name="kdenlive:meta.attr.timecode.markup">00:02:11;00</property>
  <property name="kdenlive:meta.media.sample_aspect_num">8</property>
  <property name="kdenlive:meta.media.sample_aspect_den">9</property>
  <property name="kdenlive:meta.media.frame_rate_num">30000</property>
  <property name="kdenlive:meta.media.frame_rate_den">1001</property>
  <property name="kdenlive:meta.media.colorspace">601</property>
  <property name="kdenlive:meta.media.color_trc">2</property>
  <property name="kdenlive:meta.media.width">720</property>
  <property name="kdenlive:meta.media.height">480</property>
  <property name="kdenlive:zone_in">137</property>
  <property name="kdenlive:zone_out">568</property>
  <property name="xml">was here</property>
  <property name="meta.media.frame_rate_num">30000</property>
  <property name="meta.media.frame_rate_den">1001</property>
  <property name="meta.media.colorspace">601</property>
  <property name="meta.media.color_trc">2</property>
  <property name="meta.media.width">640</property>
  <property name="meta.media.height">427</property>
  <property name="meta.media.top_field_first">0</property>
  <property name="meta.media.progressive">1</property>
 </producer>
 <producer id="57_playlist3" title="Anonymous Submission" out="673" in="0">
  <property name="length">00:00:22;15</property>
  <property name="eof">pause</property>
  <property name="resource">/home/thoth/.cache/kdenlive/proxy/3ef1751279e5db73d05d2f3981c95864.mpg</property>
  <property name="meta.media.nb_streams">2</property>
  <property name="meta.media.0.stream.type">video</property>
  <property name="meta.media.0.stream.frame_rate">29.97</property>
  <property name="meta.media.0.stream.sample_aspect_ratio">0</property>
  <property name="meta.media.0.codec.width">640</property>
  <property name="meta.media.0.codec.height">427</property>
  <property name="meta.media.0.codec.rotate">0</property>
  <property name="meta.media.0.codec.frame_rate">29.97</property>
  <property name="meta.media.0.codec.pix_fmt">yuv422p</property>
  <property name="meta.media.0.codec.sample_aspect_ratio">0.889583</property>
  <property name="meta.media.0.codec.colorspace">601</property>
  <property name="meta.media.0.codec.name">mpeg2video</property>
  <property name="meta.media.0.codec.long_name">MPEG-2 video</property>
  <property name="meta.media.0.codec.bit_rate">0</property>
  <property name="meta.media.1.stream.type">audio</property>
  <property name="meta.media.1.codec.sample_fmt">s16p</property>
  <property name="meta.media.1.codec.sample_rate">32000</property>
  <property name="meta.media.1.codec.channels">2</property>
  <property name="meta.media.1.codec.name">mp2</property>
  <property name="meta.media.1.codec.long_name">MP2 (MPEG audio layer 2)</property>
  <property name="meta.media.1.codec.bit_rate">128000</property>
  <property name="seekable">1</property>
  <property name="meta.media.sample_aspect_num">427</property>
  <property name="meta.media.sample_aspect_den">480</property>
  <property name="aspect_ratio">0.889583</property>
  <property name="audio_index">1</property>
  <property name="video_index">0</property>
  <property name="mute_on_pause">1</property>
  <property name="mlt_service">avformat</property>
  <property name="kdenlive:folderid">-1</property>
  <property name="kdenlive:file_size">81480000</property>
  <property name="kdenlive:file_hash">3ef1751279e5db73d05d2f3981c95864</property>
  <property name="kdenlive:proxy">/home/thoth/.cache/kdenlive/proxy/3ef1751279e5db73d05d2f3981c95864.mpg</property>
  <property name="proxy_out">678</property>
  <property name="kdenlive:originalurl">2001-07-07-beasty/beastiality-044.dv</property>
  <property name="global_feed">1</property>
  <property name="kdenlive:meta.media.nb_streams">3</property>
  <property name="kdenlive:meta.media.0.stream.type">video</property>
  <property name="kdenlive:meta.media.0.stream.frame_rate">29.97</property>
  <property name="kdenlive:meta.media.0.stream.sample_aspect_ratio">0.888889</property>
  <property name="kdenlive:meta.media.0.codec.width">720</property>
  <property name="kdenlive:meta.media.0.codec.height">480</property>
  <property name="kdenlive:meta.media.0.codec.rotate">0</property>
  <property name="kdenlive:meta.media.0.codec.frame_rate">29.97</property>
  <property name="kdenlive:meta.media.0.codec.pix_fmt">yuv411p</property>
  <property name="kdenlive:meta.media.0.codec.sample_aspect_ratio">0.888889</property>
  <property name="kdenlive:meta.media.0.codec.colorspace">601</property>
  <property name="kdenlive:meta.media.0.codec.name">dvvideo</property>
  <property name="kdenlive:meta.media.0.codec.long_name">DV (Digital Video)</property>
  <property name="kdenlive:meta.media.0.codec.bit_rate">25000000</property>
  <property name="kdenlive:meta.media.1.stream.type">audio</property>
  <property name="kdenlive:meta.media.1.codec.sample_fmt">s16</property>
  <property name="kdenlive:meta.media.1.codec.sample_rate">32000</property>
  <property name="kdenlive:meta.media.1.codec.channels">2</property>
  <property name="kdenlive:meta.media.1.codec.name">pcm_s16le</property>
  <property name="kdenlive:meta.media.1.codec.long_name">PCM signed 16-bit little-endian</property>
  <property name="kdenlive:meta.media.1.codec.bit_rate">1024000</property>
  <property name="kdenlive:meta.media.2.stream.type">audio</property>
  <property name="kdenlive:meta.media.2.codec.sample_fmt">s16</property>
  <property name="kdenlive:meta.media.2.codec.sample_rate">32000</property>
  <property name="kdenlive:meta.media.2.codec.channels">2</property>
  <property name="kdenlive:meta.media.2.codec.name">pcm_s16le</property>
  <property name="kdenlive:meta.media.2.codec.long_name">PCM signed 16-bit little-endian</property>
  <property name="kdenlive:meta.media.2.codec.bit_rate">1024000</property>
  <property name="kdenlive:meta.attr.timecode.markup">00:02:30;10</property>
  <property name="kdenlive:meta.media.sample_aspect_num">8</property>
  <property name="kdenlive:meta.media.sample_aspect_den">9</property>
  <property name="kdenlive:meta.media.frame_rate_num">30000</property>
  <property name="kdenlive:meta.media.frame_rate_den">1001</property>
  <property name="kdenlive:meta.media.colorspace">601</property>
  <property name="kdenlive:meta.media.color_trc">2</property>
  <property name="kdenlive:meta.media.width">720</property>
  <property name="kdenlive:meta.media.height">480</property>
  <property name="kdenlive:zone_in">140</property>
  <property name="kdenlive:zone_out">423</property>
  <property name="xml">was here</property>
  <property name="meta.media.frame_rate_num">30000</property>
  <property name="meta.media.frame_rate_den">1001</property>
  <property name="meta.media.colorspace">601</property>
  <property name="meta.media.color_trc">2</property>
  <property name="meta.media.width">640</property>
  <property name="meta.media.height">427</property>
  <property name="meta.media.top_field_first">0</property>
  <property name="meta.media.progressive">1</property>
 </producer>
 <producer id="56_video" title="Anonymous Submission" out="567" in="0">
  <property name="length">00:00:18;29</property>
  <property name="eof">pause</property>
  <property name="resource">/home/thoth/.cache/kdenlive/proxy/a447e008df1cc1544bff0cde207f27d5.mpg</property>
  <property name="meta.media.nb_streams">2</property>
  <property name="meta.media.0.stream.type">video</property>
  <property name="meta.media.0.stream.frame_rate">29.97</property>
  <property name="meta.media.0.stream.sample_aspect_ratio">0</property>
  <property name="meta.media.0.codec.width">640</property>
  <property name="meta.media.0.codec.height">427</property>
  <property name="meta.media.0.codec.rotate">0</property>
  <property name="meta.media.0.codec.frame_rate">29.97</property>
  <property name="meta.media.0.codec.pix_fmt">yuv422p</property>
  <property name="meta.media.0.codec.sample_aspect_ratio">0.889583</property>
  <property name="meta.media.0.codec.colorspace">601</property>
  <property name="meta.media.0.codec.name">mpeg2video</property>
  <property name="meta.media.0.codec.long_name">MPEG-2 video</property>
  <property name="meta.media.0.codec.bit_rate">0</property>
  <property name="meta.media.1.stream.type">audio</property>
  <property name="meta.media.1.codec.sample_fmt">s16p</property>
  <property name="meta.media.1.codec.sample_rate">32000</property>
  <property name="meta.media.1.codec.channels">2</property>
  <property name="meta.media.1.codec.name">mp2</property>
  <property name="meta.media.1.codec.long_name">MP2 (MPEG audio layer 2)</property>
  <property name="meta.media.1.codec.bit_rate">128000</property>
  <property name="seekable">1</property>
  <property name="meta.media.sample_aspect_num">427</property>
  <property name="meta.media.sample_aspect_den">480</property>
  <property name="aspect_ratio">0.889583</property>
  <property name="audio_index">-1</property>
  <property name="video_index">0</property>
  <property name="mute_on_pause">1</property>
  <property name="mlt_service">avformat</property>
  <property name="kdenlive:folderid">-1</property>
  <property name="kdenlive:file_size">68760000</property>
  <property name="kdenlive:file_hash">a447e008df1cc1544bff0cde207f27d5</property>
  <property name="kdenlive:proxy">/home/thoth/.cache/kdenlive/proxy/a447e008df1cc1544bff0cde207f27d5.mpg</property>
  <property name="proxy_out">572</property>
  <property name="kdenlive:originalurl">2001-07-07-beasty/beastiality-043.dv</property>
  <property name="global_feed">1</property>
  <property name="kdenlive:meta.media.nb_streams">3</property>
  <property name="kdenlive:meta.media.0.stream.type">video</property>
  <property name="kdenlive:meta.media.0.stream.frame_rate">29.97</property>
  <property name="kdenlive:meta.media.0.stream.sample_aspect_ratio">0.888889</property>
  <property name="kdenlive:meta.media.0.codec.width">720</property>
  <property name="kdenlive:meta.media.0.codec.height">480</property>
  <property name="kdenlive:meta.media.0.codec.rotate">0</property>
  <property name="kdenlive:meta.media.0.codec.frame_rate">29.97</property>
  <property name="kdenlive:meta.media.0.codec.pix_fmt">yuv411p</property>
  <property name="kdenlive:meta.media.0.codec.sample_aspect_ratio">0.888889</property>
  <property name="kdenlive:meta.media.0.codec.colorspace">601</property>
  <property name="kdenlive:meta.media.0.codec.name">dvvideo</property>
  <property name="kdenlive:meta.media.0.codec.long_name">DV (Digital Video)</property>
  <property name="kdenlive:meta.media.0.codec.bit_rate">25000000</property>
  <property name="kdenlive:meta.media.1.stream.type">audio</property>
  <property name="kdenlive:meta.media.1.codec.sample_fmt">s16</property>
  <property name="kdenlive:meta.media.1.codec.sample_rate">32000</property>
  <property name="kdenlive:meta.media.1.codec.channels">2</property>
  <property name="kdenlive:meta.media.1.codec.name">pcm_s16le</property>
  <property name="kdenlive:meta.media.1.codec.long_name">PCM signed 16-bit little-endian</property>
  <property name="kdenlive:meta.media.1.codec.bit_rate">1024000</property>
  <property name="kdenlive:meta.media.2.stream.type">audio</property>
  <property name="kdenlive:meta.media.2.codec.sample_fmt">s16</property>
  <property name="kdenlive:meta.media.2.codec.sample_rate">32000</property>
  <property name="kdenlive:meta.media.2.codec.channels">2</property>
  <property name="kdenlive:meta.media.2.codec.name">pcm_s16le</property>
  <property name="kdenlive:meta.media.2.codec.long_name">PCM signed 16-bit little-endian</property>
  <property name="kdenlive:meta.media.2.codec.bit_rate">1024000</property>
  <property name="kdenlive:meta.attr.timecode.markup">00:02:11;00</property>
  <property name="kdenlive:meta.media.sample_aspect_num">8</property>
  <property name="kdenlive:meta.media.sample_aspect_den">9</property>
  <property name="kdenlive:meta.media.frame_rate_num">30000</property>
  <property name="kdenlive:meta.media.frame_rate_den">1001</property>
  <property name="kdenlive:meta.media.colorspace">601</property>
  <property name="kdenlive:meta.media.color_trc">2</property>
  <property name="kdenlive:meta.media.width">720</property>
  <property name="kdenlive:meta.media.height">480</property>
  <property name="kdenlive:zone_in">137</property>
  <property name="kdenlive:zone_out">568</property>
  <property name="xml">was here</property>
  <property name="meta.media.frame_rate_num">30000</property>
  <property name="meta.media.frame_rate_den">1001</property>
  <property name="meta.media.colorspace">601</property>
  <property name="meta.media.color_trc">2</property>
  <property name="meta.media.width">640</property>
  <property name="meta.media.height">427</property>
  <property name="meta.media.top_field_first">0</property>
  <property name="meta.media.progressive">1</property>
 </producer>
 <producer id="58_video" title="Anonymous Submission" out="803" in="0">
  <property name="length">00:00:26;25</property>
  <property name="eof">pause</property>
  <property name="resource">/home/thoth/.cache/kdenlive/proxy/05b1d4c4e1b8e60e754e8e7a4226b740.mpg</property>
  <property name="meta.media.nb_streams">2</property>
  <property name="meta.media.0.stream.type">video</property>
  <property name="meta.media.0.stream.frame_rate">29.97</property>
  <property name="meta.media.0.stream.sample_aspect_ratio">0</property>
  <property name="meta.media.0.codec.width">640</property>
  <property name="meta.media.0.codec.height">427</property>
  <property name="meta.media.0.codec.rotate">0</property>
  <property name="meta.media.0.codec.frame_rate">29.97</property>
  <property name="meta.media.0.codec.pix_fmt">yuv422p</property>
  <property name="meta.media.0.codec.sample_aspect_ratio">0.889583</property>
  <property name="meta.media.0.codec.colorspace">601</property>
  <property name="meta.media.0.codec.name">mpeg2video</property>
  <property name="meta.media.0.codec.long_name">MPEG-2 video</property>
  <property name="meta.media.0.codec.bit_rate">0</property>
  <property name="meta.media.1.stream.type">audio</property>
  <property name="meta.media.1.codec.sample_fmt">s16p</property>
  <property name="meta.media.1.codec.sample_rate">32000</property>
  <property name="meta.media.1.codec.channels">2</property>
  <property name="meta.media.1.codec.name">mp2</property>
  <property name="meta.media.1.codec.long_name">MP2 (MPEG audio layer 2)</property>
  <property name="meta.media.1.codec.bit_rate">128000</property>
  <property name="seekable">1</property>
  <property name="meta.media.sample_aspect_num">427</property>
  <property name="meta.media.sample_aspect_den">480</property>
  <property name="aspect_ratio">0.889583</property>
  <property name="audio_index">-1</property>
  <property name="video_index">0</property>
  <property name="mute_on_pause">1</property>
  <property name="mlt_service">avformat</property>
  <property name="kdenlive:folderid">-1</property>
  <property name="kdenlive:file_size">97320000</property>
  <property name="kdenlive:file_hash">05b1d4c4e1b8e60e754e8e7a4226b740</property>
  <property name="kdenlive:proxy">/home/thoth/.cache/kdenlive/proxy/05b1d4c4e1b8e60e754e8e7a4226b740.mpg</property>
  <property name="proxy_out">810</property>
  <property name="kdenlive:originalurl">2001-07-07-beasty/beastiality-045.dv</property>
  <property name="global_feed">1</property>
  <property name="kdenlive:meta.media.nb_streams">3</property>
  <property name="kdenlive:meta.media.0.stream.type">video</property>
  <property name="kdenlive:meta.media.0.stream.frame_rate">29.97</property>
  <property name="kdenlive:meta.media.0.stream.sample_aspect_ratio">0.888889</property>
  <property name="kdenlive:meta.media.0.codec.width">720</property>
  <property name="kdenlive:meta.media.0.codec.height">480</property>
  <property name="kdenlive:meta.media.0.codec.rotate">0</property>
  <property name="kdenlive:meta.media.0.codec.frame_rate">29.97</property>
  <property name="kdenlive:meta.media.0.codec.pix_fmt">yuv411p</property>
  <property name="kdenlive:meta.media.0.codec.sample_aspect_ratio">0.888889</property>
  <property name="kdenlive:meta.media.0.codec.colorspace">601</property>
  <property name="kdenlive:meta.media.0.codec.name">dvvideo</property>
  <property name="kdenlive:meta.media.0.codec.long_name">DV (Digital Video)</property>
  <property name="kdenlive:meta.media.0.codec.bit_rate">25000000</property>
  <property name="kdenlive:meta.media.1.stream.type">audio</property>
  <property name="kdenlive:meta.media.1.codec.sample_fmt">s16</property>
  <property name="kdenlive:meta.media.1.codec.sample_rate">32000</property>
  <property name="kdenlive:meta.media.1.codec.channels">2</property>
  <property name="kdenlive:meta.media.1.codec.name">pcm_s16le</property>
  <property name="kdenlive:meta.media.1.codec.long_name">PCM signed 16-bit little-endian</property>
  <property name="kdenlive:meta.media.1.codec.bit_rate">1024000</property>
  <property name="kdenlive:meta.media.2.stream.type">audio</property>
  <property name="kdenlive:meta.media.2.codec.sample_fmt">s16</property>
  <property name="kdenlive:meta.media.2.codec.sample_rate">32000</property>
  <property name="kdenlive:meta.media.2.codec.channels">2</property>
  <property name="kdenlive:meta.media.2.codec.name">pcm_s16le</property>
  <property name="kdenlive:meta.media.2.codec.long_name">PCM signed 16-bit little-endian</property>
  <property name="kdenlive:meta.media.2.codec.bit_rate">1024000</property>
  <property name="kdenlive:meta.attr.timecode.markup">00:02:52;29</property>
  <property name="kdenlive:meta.media.sample_aspect_num">8</property>
  <property name="kdenlive:meta.media.sample_aspect_den">9</property>
  <property name="kdenlive:meta.media.frame_rate_num">30000</property>
  <property name="kdenlive:meta.media.frame_rate_den">1001</property>
  <property name="kdenlive:meta.media.colorspace">601</property>
  <property name="kdenlive:meta.media.color_trc">2</property>
  <property name="kdenlive:meta.media.width">720</property>
  <property name="kdenlive:meta.media.height">480</property>
  <property name="kdenlive:zone_in">585</property>
  <property name="kdenlive:zone_out">773</property>
  <property name="xml">was here</property>
  <property name="meta.media.frame_rate_num">30000</property>
  <property name="meta.media.frame_rate_den">1001</property>
  <property name="meta.media.colorspace">601</property>
  <property name="meta.media.color_trc">2</property>
  <property name="meta.media.width">640</property>
  <property name="meta.media.height">427</property>
  <property name="meta.media.top_field_first">0</property>
  <property name="meta.media.progressive">1</property>
 </producer>
 <producer id="29_video" title="Anonymous Submission" out="582" in="0">
  <property name="length">00:00:19;14</property>
  <property name="eof">pause</property>
  <property name="resource">/home/thoth/.cache/kdenlive/proxy/2daef063f3bd965be0dc9dab9225975a.mpg</property>
  <property name="meta.media.nb_streams">2</property>
  <property name="meta.media.0.stream.type">video</property>
  <property name="meta.media.0.stream.frame_rate">29.97</property>
  <property name="meta.media.0.stream.sample_aspect_ratio">0</property>
  <property name="meta.media.0.codec.width">640</property>
  <property name="meta.media.0.codec.height">427</property>
  <property name="meta.media.0.codec.rotate">0</property>
  <property name="meta.media.0.codec.frame_rate">29.97</property>
  <property name="meta.media.0.codec.pix_fmt">yuv422p</property>
  <property name="meta.media.0.codec.sample_aspect_ratio">0.889583</property>
  <property name="meta.media.0.codec.colorspace">601</property>
  <property name="meta.media.0.codec.name">mpeg2video</property>
  <property name="meta.media.0.codec.long_name">MPEG-2 video</property>
  <property name="meta.media.0.codec.bit_rate">0</property>
  <property name="meta.media.1.stream.type">audio</property>
  <property name="meta.media.1.codec.sample_fmt">s16p</property>
  <property name="meta.media.1.codec.sample_rate">32000</property>
  <property name="meta.media.1.codec.channels">2</property>
  <property name="meta.media.1.codec.name">mp2</property>
  <property name="meta.media.1.codec.long_name">MP2 (MPEG audio layer 2)</property>
  <property name="meta.media.1.codec.bit_rate">128000</property>
  <property name="seekable">1</property>
  <property name="meta.media.sample_aspect_num">427</property>
  <property name="meta.media.sample_aspect_den">480</property>
  <property name="aspect_ratio">0.889583</property>
  <property name="audio_index">-1</property>
  <property name="video_index">0</property>
  <property name="mute_on_pause">1</property>
  <property name="mlt_service">avformat</property>
  <property name="kdenlive:folderid">-1</property>
  <property name="kdenlive:file_size">70800000</property>
  <property name="kdenlive:file_hash">2daef063f3bd965be0dc9dab9225975a</property>
  <property name="kdenlive:proxy">/home/thoth/.cache/kdenlive/proxy/2daef063f3bd965be0dc9dab9225975a.mpg</property>
  <property name="proxy_out">589</property>
  <property name="kdenlive:originalurl">2001-07-07-beasty/beastiality-046.dv</property>
  <property name="global_feed">1</property>
  <property name="kdenlive:meta.media.nb_streams">3</property>
  <property name="kdenlive:meta.media.0.stream.type">video</property>
  <property name="kdenlive:meta.media.0.stream.frame_rate">29.97</property>
  <property name="kdenlive:meta.media.0.stream.sample_aspect_ratio">0.888889</property>
  <property name="kdenlive:meta.media.0.codec.width">720</property>
  <property name="kdenlive:meta.media.0.codec.height">480</property>
  <property name="kdenlive:meta.media.0.codec.rotate">0</property>
  <property name="kdenlive:meta.media.0.codec.frame_rate">29.97</property>
  <property name="kdenlive:meta.media.0.codec.pix_fmt">yuv411p</property>
  <property name="kdenlive:meta.media.0.codec.sample_aspect_ratio">0.888889</property>
  <property name="kdenlive:meta.media.0.codec.colorspace">601</property>
  <property name="kdenlive:meta.media.0.codec.name">dvvideo</property>
  <property name="kdenlive:meta.media.0.codec.long_name">DV (Digital Video)</property>
  <property name="kdenlive:meta.media.0.codec.bit_rate">25000000</property>
  <property name="kdenlive:meta.media.1.stream.type">audio</property>
  <property name="kdenlive:meta.media.1.codec.sample_fmt">s16</property>
  <property name="kdenlive:meta.media.1.codec.sample_rate">32000</property>
  <property name="kdenlive:meta.media.1.codec.channels">2</property>
  <property name="kdenlive:meta.media.1.codec.name">pcm_s16le</property>
  <property name="kdenlive:meta.media.1.codec.long_name">PCM signed 16-bit little-endian</property>
  <property name="kdenlive:meta.media.1.codec.bit_rate">1024000</property>
  <property name="kdenlive:meta.media.2.stream.type">audio</property>
  <property name="kdenlive:meta.media.2.codec.sample_fmt">s16</property>
  <property name="kdenlive:meta.media.2.codec.sample_rate">32000</property>
  <property name="kdenlive:meta.media.2.codec.channels">2</property>
  <property name="kdenlive:meta.media.2.codec.name">pcm_s16le</property>
  <property name="kdenlive:meta.media.2.codec.long_name">PCM signed 16-bit little-endian</property>
  <property name="kdenlive:meta.media.2.codec.bit_rate">1024000</property>
  <property name="kdenlive:meta.attr.timecode.markup">00:00:07;19</property>
  <property name="kdenlive:meta.media.sample_aspect_num">8</property>
  <property name="kdenlive:meta.media.sample_aspect_den">9</property>
  <property name="kdenlive:meta.media.frame_rate_num">30000</property>
  <property name="kdenlive:meta.media.frame_rate_den">1001</property>
  <property name="kdenlive:meta.media.colorspace">601</property>
  <property name="kdenlive:meta.media.color_trc">2</property>
  <property name="kdenlive:meta.media.width">720</property>
  <property name="kdenlive:meta.media.height">480</property>
  <property name="kdenlive:zone_in">115</property>
  <property name="kdenlive:zone_out">496</property>
  <property name="xml">was here</property>
  <property name="meta.media.frame_rate_num">30000</property>
  <property name="meta.media.frame_rate_den">1001</property>
  <property name="meta.media.colorspace">601</property>
  <property name="meta.media.color_trc">2</property>
  <property name="meta.media.width">640</property>
  <property name="meta.media.height">427</property>
  <property name="meta.media.top_field_first">0</property>
  <property name="meta.media.progressive">1</property>
 </producer>
 <producer id="30_playlist3" title="Anonymous Submission" out="675" in="0">
  <property name="length">00:00:22;17</property>
  <property name="eof">pause</property>
  <property name="resource">/home/thoth/.cache/kdenlive/proxy/e95cbe0f89c6428749f25bdfb4d5966f.mpg</property>
  <property name="meta.media.nb_streams">2</property>
  <property name="meta.media.0.stream.type">video</property>
  <property name="meta.media.0.stream.frame_rate">29.97</property>
  <property name="meta.media.0.stream.sample_aspect_ratio">0</property>
  <property name="meta.media.0.codec.width">640</property>
  <property name="meta.media.0.codec.height">427</property>
  <property name="meta.media.0.codec.rotate">0</property>
  <property name="meta.media.0.codec.frame_rate">29.97</property>
  <property name="meta.media.0.codec.pix_fmt">yuv422p</property>
  <property name="meta.media.0.codec.sample_aspect_ratio">0.889583</property>
  <property name="meta.media.0.codec.colorspace">601</property>
  <property name="meta.media.0.codec.name">mpeg2video</property>
  <property name="meta.media.0.codec.long_name">MPEG-2 video</property>
  <property name="meta.media.0.codec.bit_rate">0</property>
  <property name="meta.media.1.stream.type">audio</property>
  <property name="meta.media.1.codec.sample_fmt">s16p</property>
  <property name="meta.media.1.codec.sample_rate">32000</property>
  <property name="meta.media.1.codec.channels">2</property>
  <property name="meta.media.1.codec.name">mp2</property>
  <property name="meta.media.1.codec.long_name">MP2 (MPEG audio layer 2)</property>
  <property name="meta.media.1.codec.bit_rate">128000</property>
  <property name="seekable">1</property>
  <property name="meta.media.sample_aspect_num">427</property>
  <property name="meta.media.sample_aspect_den">480</property>
  <property name="aspect_ratio">0.889583</property>
  <property name="audio_index">1</property>
  <property name="video_index">0</property>
  <property name="mute_on_pause">1</property>
  <property name="mlt_service">avformat</property>
  <property name="kdenlive:folderid">-1</property>
  <property name="kdenlive:file_size">81720000</property>
  <property name="kdenlive:file_hash">e95cbe0f89c6428749f25bdfb4d5966f</property>
  <property name="kdenlive:proxy">/home/thoth/.cache/kdenlive/proxy/e95cbe0f89c6428749f25bdfb4d5966f.mpg</property>
  <property name="proxy_out">680</property>
  <property name="kdenlive:originalurl">2001-07-07-beasty/beastiality-047.dv</property>
  <property name="global_feed">1</property>
  <property name="kdenlive:meta.media.nb_streams">3</property>
  <property name="kdenlive:meta.media.0.stream.type">video</property>
  <property name="kdenlive:meta.media.0.stream.frame_rate">29.97</property>
  <property name="kdenlive:meta.media.0.stream.sample_aspect_ratio">0.888889</property>
  <property name="kdenlive:meta.media.0.codec.width">720</property>
  <property name="kdenlive:meta.media.0.codec.height">480</property>
  <property name="kdenlive:meta.media.0.codec.rotate">0</property>
  <property name="kdenlive:meta.media.0.codec.frame_rate">29.97</property>
  <property name="kdenlive:meta.media.0.codec.pix_fmt">yuv411p</property>
  <property name="kdenlive:meta.media.0.codec.sample_aspect_ratio">0.888889</property>
  <property name="kdenlive:meta.media.0.codec.colorspace">601</property>
  <property name="kdenlive:meta.media.0.codec.name">dvvideo</property>
  <property name="kdenlive:meta.media.0.codec.long_name">DV (Digital Video)</property>
  <property name="kdenlive:meta.media.0.codec.bit_rate">25000000</property>
  <property name="kdenlive:meta.media.1.stream.type">audio</property>
  <property name="kdenlive:meta.media.1.codec.sample_fmt">s16</property>
  <property name="kdenlive:meta.media.1.codec.sample_rate">32000</property>
  <property name="kdenlive:meta.media.1.codec.channels">2</property>
  <property name="kdenlive:meta.media.1.codec.name">pcm_s16le</property>
  <property name="kdenlive:meta.media.1.codec.long_name">PCM signed 16-bit little-endian</property>
  <property name="kdenlive:meta.media.1.codec.bit_rate">1024000</property>
  <property name="kdenlive:meta.media.2.stream.type">audio</property>
  <property name="kdenlive:meta.media.2.codec.sample_fmt">s16</property>
  <property name="kdenlive:meta.media.2.codec.sample_rate">32000</property>
  <property name="kdenlive:meta.media.2.codec.channels">2</property>
  <property name="kdenlive:meta.media.2.codec.name">pcm_s16le</property>
  <property name="kdenlive:meta.media.2.codec.long_name">PCM signed 16-bit little-endian</property>
  <property name="kdenlive:meta.media.2.codec.bit_rate">1024000</property>
  <property name="kdenlive:meta.attr.timecode.markup">00:00:27;09</property>
  <property name="kdenlive:meta.media.sample_aspect_num">8</property>
  <property name="kdenlive:meta.media.sample_aspect_den">9</property>
  <property name="kdenlive:meta.media.frame_rate_num">30000</property>
  <property name="kdenlive:meta.media.frame_rate_den">1001</property>
  <property name="kdenlive:meta.media.colorspace">601</property>
  <property name="kdenlive:meta.media.color_trc">2</property>
  <property name="kdenlive:meta.media.width">720</property>
  <property name="kdenlive:meta.media.height">480</property>
  <property name="kdenlive:zone_in">153</property>
  <property name="kdenlive:zone_out">206</property>
  <property name="xml">was here</property>
  <property name="meta.media.frame_rate_num">30000</property>
  <property name="meta.media.frame_rate_den">1001</property>
  <property name="meta.media.colorspace">601</property>
  <property name="meta.media.color_trc">2</property>
  <property name="meta.media.width">640</property>
  <property name="meta.media.height">427</property>
  <property name="meta.media.top_field_first">0</property>
  <property name="meta.media.progressive">1</property>
 </producer>
 <producer id="29_playlist3" title="Anonymous Submission" out="584" in="0">
  <property name="length">00:00:19;16</property>
  <property name="eof">pause</property>
  <property name="resource">/home/thoth/.cache/kdenlive/proxy/2daef063f3bd965be0dc9dab9225975a.mpg</property>
  <property name="meta.media.nb_streams">2</property>
  <property name="meta.media.0.stream.type">video</property>
  <property name="meta.media.0.stream.frame_rate">29.97</property>
  <property name="meta.media.0.stream.sample_aspect_ratio">0</property>
  <property name="meta.media.0.codec.width">640</property>
  <property name="meta.media.0.codec.height">427</property>
  <property name="meta.media.0.codec.rotate">0</property>
  <property name="meta.media.0.codec.frame_rate">29.97</property>
  <property name="meta.media.0.codec.pix_fmt">yuv422p</property>
  <property name="meta.media.0.codec.sample_aspect_ratio">0.889583</property>
  <property name="meta.media.0.codec.colorspace">601</property>
  <property name="meta.media.0.codec.name">mpeg2video</property>
  <property name="meta.media.0.codec.long_name">MPEG-2 video</property>
  <property name="meta.media.0.codec.bit_rate">0</property>
  <property name="meta.media.1.stream.type">audio</property>
  <property name="meta.media.1.codec.sample_fmt">s16p</property>
  <property name="meta.media.1.codec.sample_rate">32000</property>
  <property name="meta.media.1.codec.channels">2</property>
  <property name="meta.media.1.codec.name">mp2</property>
  <property name="meta.media.1.codec.long_name">MP2 (MPEG audio layer 2)</property>
  <property name="meta.media.1.codec.bit_rate">128000</property>
  <property name="seekable">1</property>
  <property name="meta.media.sample_aspect_num">427</property>
  <property name="meta.media.sample_aspect_den">480</property>
  <property name="aspect_ratio">0.889583</property>
  <property name="audio_index">1</property>
  <property name="video_index">0</property>
  <property name="mute_on_pause">1</property>
  <property name="mlt_service">avformat</property>
  <property name="kdenlive:folderid">-1</property>
  <property name="kdenlive:file_size">70800000</property>
  <property name="kdenlive:file_hash">2daef063f3bd965be0dc9dab9225975a</property>
  <property name="kdenlive:proxy">/home/thoth/.cache/kdenlive/proxy/2daef063f3bd965be0dc9dab9225975a.mpg</property>
  <property name="proxy_out">589</property>
  <property name="kdenlive:originalurl">2001-07-07-beasty/beastiality-046.dv</property>
  <property name="global_feed">1</property>
  <property name="kdenlive:meta.media.nb_streams">3</property>
  <property name="kdenlive:meta.media.0.stream.type">video</property>
  <property name="kdenlive:meta.media.0.stream.frame_rate">29.97</property>
  <property name="kdenlive:meta.media.0.stream.sample_aspect_ratio">0.888889</property>
  <property name="kdenlive:meta.media.0.codec.width">720</property>
  <property name="kdenlive:meta.media.0.codec.height">480</property>
  <property name="kdenlive:meta.media.0.codec.rotate">0</property>
  <property name="kdenlive:meta.media.0.codec.frame_rate">29.97</property>
  <property name="kdenlive:meta.media.0.codec.pix_fmt">yuv411p</property>
  <property name="kdenlive:meta.media.0.codec.sample_aspect_ratio">0.888889</property>
  <property name="kdenlive:meta.media.0.codec.colorspace">601</property>
  <property name="kdenlive:meta.media.0.codec.name">dvvideo</property>
  <property name="kdenlive:meta.media.0.codec.long_name">DV (Digital Video)</property>
  <property name="kdenlive:meta.media.0.codec.bit_rate">25000000</property>
  <property name="kdenlive:meta.media.1.stream.type">audio</property>
  <property name="kdenlive:meta.media.1.codec.sample_fmt">s16</property>
  <property name="kdenlive:meta.media.1.codec.sample_rate">32000</property>
  <property name="kdenlive:meta.media.1.codec.channels">2</property>
  <property name="kdenlive:meta.media.1.codec.name">pcm_s16le</property>
  <property name="kdenlive:meta.media.1.codec.long_name">PCM signed 16-bit little-endian</property>
  <property name="kdenlive:meta.media.1.codec.bit_rate">1024000</property>
  <property name="kdenlive:meta.media.2.stream.type">audio</property>
  <property name="kdenlive:meta.media.2.codec.sample_fmt">s16</property>
  <property name="kdenlive:meta.media.2.codec.sample_rate">32000</property>
  <property name="kdenlive:meta.media.2.codec.channels">2</property>
  <property name="kdenlive:meta.media.2.codec.name">pcm_s16le</property>
  <property name="kdenlive:meta.media.2.codec.long_name">PCM signed 16-bit little-endian</property>
  <property name="kdenlive:meta.media.2.codec.bit_rate">1024000</property>
  <property name="kdenlive:meta.attr.timecode.markup">00:00:07;19</property>
  <property name="kdenlive:meta.media.sample_aspect_num">8</property>
  <property name="kdenlive:meta.media.sample_aspect_den">9</property>
  <property name="kdenlive:meta.media.frame_rate_num">30000</property>
  <property name="kdenlive:meta.media.frame_rate_den">1001</property>
  <property name="kdenlive:meta.media.colorspace">601</property>
  <property name="kdenlive:meta.media.color_trc">2</property>
  <property name="kdenlive:meta.media.width">720</property>
  <property name="kdenlive:meta.media.height">480</property>
  <property name="kdenlive:zone_in">115</property>
  <property name="kdenlive:zone_out">496</property>
  <property name="xml">was here</property>
  <property name="meta.media.frame_rate_num">30000</property>
  <property name="meta.media.frame_rate_den">1001</property>
  <property name="meta.media.colorspace">601</property>
  <property name="meta.media.color_trc">2</property>
  <property name="meta.media.width">640</property>
  <property name="meta.media.height">427</property>
  <property name="meta.media.top_field_first">0</property>
  <property name="meta.media.progressive">1</property>
 </producer>
 <producer id="30_video" title="Anonymous Submission" out="673" in="0">
  <property name="length">00:00:22;15</property>
  <property name="eof">pause</property>
  <property name="resource">/home/thoth/.cache/kdenlive/proxy/e95cbe0f89c6428749f25bdfb4d5966f.mpg</property>
  <property name="meta.media.nb_streams">2</property>
  <property name="meta.media.0.stream.type">video</property>
  <property name="meta.media.0.stream.frame_rate">29.97</property>
  <property name="meta.media.0.stream.sample_aspect_ratio">0</property>
  <property name="meta.media.0.codec.width">640</property>
  <property name="meta.media.0.codec.height">427</property>
  <property name="meta.media.0.codec.rotate">0</property>
  <property name="meta.media.0.codec.frame_rate">29.97</property>
  <property name="meta.media.0.codec.pix_fmt">yuv422p</property>
  <property name="meta.media.0.codec.sample_aspect_ratio">0.889583</property>
  <property name="meta.media.0.codec.colorspace">601</property>
  <property name="meta.media.0.codec.name">mpeg2video</property>
  <property name="meta.media.0.codec.long_name">MPEG-2 video</property>
  <property name="meta.media.0.codec.bit_rate">0</property>
  <property name="meta.media.1.stream.type">audio</property>
  <property name="meta.media.1.codec.sample_fmt">s16p</property>
  <property name="meta.media.1.codec.sample_rate">32000</property>
  <property name="meta.media.1.codec.channels">2</property>
  <property name="meta.media.1.codec.name">mp2</property>
  <property name="meta.media.1.codec.long_name">MP2 (MPEG audio layer 2)</property>
  <property name="meta.media.1.codec.bit_rate">128000</property>
  <property name="seekable">1</property>
  <property name="meta.media.sample_aspect_num">427</property>
  <property name="meta.media.sample_aspect_den">480</property>
  <property name="aspect_ratio">0.889583</property>
  <property name="audio_index">-1</property>
  <property name="video_index">0</property>
  <property name="mute_on_pause">1</property>
  <property name="mlt_service">avformat</property>
  <property name="kdenlive:folderid">-1</property>
  <property name="kdenlive:file_size">81720000</property>
  <property name="kdenlive:file_hash">e95cbe0f89c6428749f25bdfb4d5966f</property>
  <property name="kdenlive:proxy">/home/thoth/.cache/kdenlive/proxy/e95cbe0f89c6428749f25bdfb4d5966f.mpg</property>
  <property name="proxy_out">680</property>
  <property name="kdenlive:originalurl">2001-07-07-beasty/beastiality-047.dv</property>
  <property name="global_feed">1</property>
  <property name="kdenlive:meta.media.nb_streams">3</property>
  <property name="kdenlive:meta.media.0.stream.type">video</property>
  <property name="kdenlive:meta.media.0.stream.frame_rate">29.97</property>
  <property name="kdenlive:meta.media.0.stream.sample_aspect_ratio">0.888889</property>
  <property name="kdenlive:meta.media.0.codec.width">720</property>
  <property name="kdenlive:meta.media.0.codec.height">480</property>
  <property name="kdenlive:meta.media.0.codec.rotate">0</property>
  <property name="kdenlive:meta.media.0.codec.frame_rate">29.97</property>
  <property name="kdenlive:meta.media.0.codec.pix_fmt">yuv411p</property>
  <property name="kdenlive:meta.media.0.codec.sample_aspect_ratio">0.888889</property>
  <property name="kdenlive:meta.media.0.codec.colorspace">601</property>
  <property name="kdenlive:meta.media.0.codec.name">dvvideo</property>
  <property name="kdenlive:meta.media.0.codec.long_name">DV (Digital Video)</property>
  <property name="kdenlive:meta.media.0.codec.bit_rate">25000000</property>
  <property name="kdenlive:meta.media.1.stream.type">audio</property>
  <property name="kdenlive:meta.media.1.codec.sample_fmt">s16</property>
  <property name="kdenlive:meta.media.1.codec.sample_rate">32000</property>
  <property name="kdenlive:meta.media.1.codec.channels">2</property>
  <property name="kdenlive:meta.media.1.codec.name">pcm_s16le</property>
  <property name="kdenlive:meta.media.1.codec.long_name">PCM signed 16-bit little-endian</property>
  <property name="kdenlive:meta.media.1.codec.bit_rate">1024000</property>
  <property name="kdenlive:meta.media.2.stream.type">audio</property>
  <property name="kdenlive:meta.media.2.codec.sample_fmt">s16</property>
  <property name="kdenlive:meta.media.2.codec.sample_rate">32000</property>
  <property name="kdenlive:meta.media.2.codec.channels">2</property>
  <property name="kdenlive:meta.media.2.codec.name">pcm_s16le</property>
  <property name="kdenlive:meta.media.2.codec.long_name">PCM signed 16-bit little-endian</property>
  <property name="kdenlive:meta.media.2.codec.bit_rate">1024000</property>
  <property name="kdenlive:meta.attr.timecode.markup">00:00:27;09</property>
  <property name="kdenlive:meta.media.sample_aspect_num">8</property>
  <property name="kdenlive:meta.media.sample_aspect_den">9</property>
  <property name="kdenlive:meta.media.frame_rate_num">30000</property>
  <property name="kdenlive:meta.media.frame_rate_den">1001</property>
  <property name="kdenlive:meta.media.colorspace">601</property>
  <property name="kdenlive:meta.media.color_trc">2</property>
  <property name="kdenlive:meta.media.width">720</property>
  <property name="kdenlive:meta.media.height">480</property>
  <property name="kdenlive:zone_in">242</property>
  <property name="kdenlive:zone_out">469</property>
  <property name="xml">was here</property>
  <property name="meta.media.frame_rate_num">30000</property>
  <property name="meta.media.frame_rate_den">1001</property>
  <property name="meta.media.colorspace">601</property>
  <property name="meta.media.color_trc">2</property>
  <property name="meta.media.width">640</property>
  <property name="meta.media.height">427</property>
  <property name="meta.media.top_field_first">0</property>
  <property name="meta.media.progressive">1</property>
 </producer>
 <producer id="31_playlist3" title="Anonymous Submission" out="750" in="0">
  <property name="length">00:00:25;02</property>
  <property name="eof">pause</property>
  <property name="resource">/home/thoth/.cache/kdenlive/proxy/3e8a96f0497fce4f365a64a06b3b3784.mpg</property>
  <property name="meta.media.nb_streams">2</property>
  <property name="meta.media.0.stream.type">video</property>
  <property name="meta.media.0.stream.frame_rate">29.97</property>
  <property name="meta.media.0.stream.sample_aspect_ratio">0</property>
  <property name="meta.media.0.codec.width">640</property>
  <property name="meta.media.0.codec.height">427</property>
  <property name="meta.media.0.codec.rotate">0</property>
  <property name="meta.media.0.codec.frame_rate">29.97</property>
  <property name="meta.media.0.codec.pix_fmt">yuv422p</property>
  <property name="meta.media.0.codec.sample_aspect_ratio">0.889583</property>
  <property name="meta.media.0.codec.colorspace">601</property>
  <property name="meta.media.0.codec.name">mpeg2video</property>
  <property name="meta.media.0.codec.long_name">MPEG-2 video</property>
  <property name="meta.media.0.codec.bit_rate">0</property>
  <property name="meta.media.1.stream.type">audio</property>
  <property name="meta.media.1.codec.sample_fmt">s16p</property>
  <property name="meta.media.1.codec.sample_rate">32000</property>
  <property name="meta.media.1.codec.channels">2</property>
  <property name="meta.media.1.codec.name">mp2</property>
  <property name="meta.media.1.codec.long_name">MP2 (MPEG audio layer 2)</property>
  <property name="meta.media.1.codec.bit_rate">128000</property>
  <property name="seekable">1</property>
  <property name="meta.media.sample_aspect_num">427</property>
  <property name="meta.media.sample_aspect_den">480</property>
  <property name="aspect_ratio">0.889583</property>
  <property name="audio_index">1</property>
  <property name="video_index">0</property>
  <property name="mute_on_pause">1</property>
  <property name="mlt_service">avformat</property>
  <property name="kdenlive:folderid">-1</property>
  <property name="kdenlive:file_size">90720000</property>
  <property name="kdenlive:file_hash">3e8a96f0497fce4f365a64a06b3b3784</property>
  <property name="kdenlive:proxy">/home/thoth/.cache/kdenlive/proxy/3e8a96f0497fce4f365a64a06b3b3784.mpg</property>
  <property name="proxy_out">755</property>
  <property name="kdenlive:originalurl">2001-07-07-beasty/beastiality-048.dv</property>
  <property name="global_feed">1</property>
  <property name="kdenlive:meta.media.nb_streams">3</property>
  <property name="kdenlive:meta.media.0.stream.type">video</property>
  <property name="kdenlive:meta.media.0.stream.frame_rate">29.97</property>
  <property name="kdenlive:meta.media.0.stream.sample_aspect_ratio">0.888889</property>
  <property name="kdenlive:meta.media.0.codec.width">720</property>
  <property name="kdenlive:meta.media.0.codec.height">480</property>
  <property name="kdenlive:meta.media.0.codec.rotate">0</property>
  <property name="kdenlive:meta.media.0.codec.frame_rate">29.97</property>
  <property name="kdenlive:meta.media.0.codec.pix_fmt">yuv411p</property>
  <property name="kdenlive:meta.media.0.codec.sample_aspect_ratio">0.888889</property>
  <property name="kdenlive:meta.media.0.codec.colorspace">601</property>
  <property name="kdenlive:meta.media.0.codec.name">dvvideo</property>
  <property name="kdenlive:meta.media.0.codec.long_name">DV (Digital Video)</property>
  <property name="kdenlive:meta.media.0.codec.bit_rate">25000000</property>
  <property name="kdenlive:meta.media.1.stream.type">audio</property>
  <property name="kdenlive:meta.media.1.codec.sample_fmt">s16</property>
  <property name="kdenlive:meta.media.1.codec.sample_rate">32000</property>
  <property name="kdenlive:meta.media.1.codec.channels">2</property>
  <property name="kdenlive:meta.media.1.codec.name">pcm_s16le</property>
  <property name="kdenlive:meta.media.1.codec.long_name">PCM signed 16-bit little-endian</property>
  <property name="kdenlive:meta.media.1.codec.bit_rate">1024000</property>
  <property name="kdenlive:meta.media.2.stream.type">audio</property>
  <property name="kdenlive:meta.media.2.codec.sample_fmt">s16</property>
  <property name="kdenlive:meta.media.2.codec.sample_rate">32000</property>
  <property name="kdenlive:meta.media.2.codec.channels">2</property>
  <property name="kdenlive:meta.media.2.codec.name">pcm_s16le</property>
  <property name="kdenlive:meta.media.2.codec.long_name">PCM signed 16-bit little-endian</property>
  <property name="kdenlive:meta.media.2.codec.bit_rate">1024000</property>
  <property name="kdenlive:meta.attr.timecode.markup">00:00:50;00</property>
  <property name="kdenlive:meta.media.sample_aspect_num">8</property>
  <property name="kdenlive:meta.media.sample_aspect_den">9</property>
  <property name="kdenlive:meta.media.frame_rate_num">30000</property>
  <property name="kdenlive:meta.media.frame_rate_den">1001</property>
  <property name="kdenlive:meta.media.colorspace">601</property>
  <property name="kdenlive:meta.media.color_trc">2</property>
  <property name="kdenlive:meta.media.width">720</property>
  <property name="kdenlive:meta.media.height">480</property>
  <property name="kdenlive:zone_in">0</property>
  <property name="kdenlive:zone_out">667</property>
  <property name="xml">was here</property>
  <property name="meta.media.frame_rate_num">30000</property>
  <property name="meta.media.frame_rate_den">1001</property>
  <property name="meta.media.colorspace">601</property>
  <property name="meta.media.color_trc">2</property>
  <property name="meta.media.width">640</property>
  <property name="meta.media.height">427</property>
  <property name="meta.media.top_field_first">0</property>
  <property name="meta.media.progressive">1</property>
 </producer>
 <producer id="31_video" title="Anonymous Submission" out="748" in="0">
  <property name="length">00:00:25;00</property>
  <property name="eof">pause</property>
  <property name="resource">/home/thoth/.cache/kdenlive/proxy/3e8a96f0497fce4f365a64a06b3b3784.mpg</property>
  <property name="meta.media.nb_streams">2</property>
  <property name="meta.media.0.stream.type">video</property>
  <property name="meta.media.0.stream.frame_rate">29.97</property>
  <property name="meta.media.0.stream.sample_aspect_ratio">0</property>
  <property name="meta.media.0.codec.width">640</property>
  <property name="meta.media.0.codec.height">427</property>
  <property name="meta.media.0.codec.rotate">0</property>
  <property name="meta.media.0.codec.frame_rate">29.97</property>
  <property name="meta.media.0.codec.pix_fmt">yuv422p</property>
  <property name="meta.media.0.codec.sample_aspect_ratio">0.889583</property>
  <property name="meta.media.0.codec.colorspace">601</property>
  <property name="meta.media.0.codec.name">mpeg2video</property>
  <property name="meta.media.0.codec.long_name">MPEG-2 video</property>
  <property name="meta.media.0.codec.bit_rate">0</property>
  <property name="meta.media.1.stream.type">audio</property>
  <property name="meta.media.1.codec.sample_fmt">s16p</property>
  <property name="meta.media.1.codec.sample_rate">32000</property>
  <property name="meta.media.1.codec.channels">2</property>
  <property name="meta.media.1.codec.name">mp2</property>
  <property name="meta.media.1.codec.long_name">MP2 (MPEG audio layer 2)</property>
  <property name="meta.media.1.codec.bit_rate">128000</property>
  <property name="seekable">1</property>
  <property name="meta.media.sample_aspect_num">427</property>
  <property name="meta.media.sample_aspect_den">480</property>
  <property name="aspect_ratio">0.889583</property>
  <property name="audio_index">-1</property>
  <property name="video_index">0</property>
  <property name="mute_on_pause">1</property>
  <property name="mlt_service">avformat</property>
  <property name="kdenlive:folderid">-1</property>
  <property name="kdenlive:file_size">90720000</property>
  <property name="kdenlive:file_hash">3e8a96f0497fce4f365a64a06b3b3784</property>
  <property name="kdenlive:proxy">/home/thoth/.cache/kdenlive/proxy/3e8a96f0497fce4f365a64a06b3b3784.mpg</property>
  <property name="proxy_out">755</property>
  <property name="kdenlive:originalurl">2001-07-07-beasty/beastiality-048.dv</property>
  <property name="global_feed">1</property>
  <property name="kdenlive:meta.media.nb_streams">3</property>
  <property name="kdenlive:meta.media.0.stream.type">video</property>
  <property name="kdenlive:meta.media.0.stream.frame_rate">29.97</property>
  <property name="kdenlive:meta.media.0.stream.sample_aspect_ratio">0.888889</property>
  <property name="kdenlive:meta.media.0.codec.width">720</property>
  <property name="kdenlive:meta.media.0.codec.height">480</property>
  <property name="kdenlive:meta.media.0.codec.rotate">0</property>
  <property name="kdenlive:meta.media.0.codec.frame_rate">29.97</property>
  <property name="kdenlive:meta.media.0.codec.pix_fmt">yuv411p</property>
  <property name="kdenlive:meta.media.0.codec.sample_aspect_ratio">0.888889</property>
  <property name="kdenlive:meta.media.0.codec.colorspace">601</property>
  <property name="kdenlive:meta.media.0.codec.name">dvvideo</property>
  <property name="kdenlive:meta.media.0.codec.long_name">DV (Digital Video)</property>
  <property name="kdenlive:meta.media.0.codec.bit_rate">25000000</property>
  <property name="kdenlive:meta.media.1.stream.type">audio</property>
  <property name="kdenlive:meta.media.1.codec.sample_fmt">s16</property>
  <property name="kdenlive:meta.media.1.codec.sample_rate">32000</property>
  <property name="kdenlive:meta.media.1.codec.channels">2</property>
  <property name="kdenlive:meta.media.1.codec.name">pcm_s16le</property>
  <property name="kdenlive:meta.media.1.codec.long_name">PCM signed 16-bit little-endian</property>
  <property name="kdenlive:meta.media.1.codec.bit_rate">1024000</property>
  <property name="kdenlive:meta.media.2.stream.type">audio</property>
  <property name="kdenlive:meta.media.2.codec.sample_fmt">s16</property>
  <property name="kdenlive:meta.media.2.codec.sample_rate">32000</property>
  <property name="kdenlive:meta.media.2.codec.channels">2</property>
  <property name="kdenlive:meta.media.2.codec.name">pcm_s16le</property>
  <property name="kdenlive:meta.media.2.codec.long_name">PCM signed 16-bit little-endian</property>
  <property name="kdenlive:meta.media.2.codec.bit_rate">1024000</property>
  <property name="kdenlive:meta.attr.timecode.markup">00:00:50;00</property>
  <property name="kdenlive:meta.media.sample_aspect_num">8</property>
  <property name="kdenlive:meta.media.sample_aspect_den">9</property>
  <property name="kdenlive:meta.media.frame_rate_num">30000</property>
  <property name="kdenlive:meta.media.frame_rate_den">1001</property>
  <property name="kdenlive:meta.media.colorspace">601</property>
  <property name="kdenlive:meta.media.color_trc">2</property>
  <property name="kdenlive:meta.media.width">720</property>
  <property name="kdenlive:meta.media.height">480</property>
  <property name="kdenlive:zone_in">0</property>
  <property name="kdenlive:zone_out">667</property>
  <property name="xml">was here</property>
  <property name="meta.media.frame_rate_num">30000</property>
  <property name="meta.media.frame_rate_den">1001</property>
  <property name="meta.media.colorspace">601</property>
  <property name="meta.media.color_trc">2</property>
  <property name="meta.media.width">640</property>
  <property name="meta.media.height">427</property>
  <property name="meta.media.top_field_first">0</property>
  <property name="meta.media.progressive">1</property>
 </producer>
 <producer id="32_playlist3" title="Anonymous Submission" out="2128" in="0">
  <property name="length">00:01:11;01</property>
  <property name="eof">pause</property>
  <property name="resource">/home/thoth/.cache/kdenlive/proxy/ea2e46e63f0ea7d0afc0b309d587f5f3.mpg</property>
  <property name="meta.media.nb_streams">2</property>
  <property name="meta.media.0.stream.type">video</property>
  <property name="meta.media.0.stream.frame_rate">29.97</property>
  <property name="meta.media.0.stream.sample_aspect_ratio">0</property>
  <property name="meta.media.0.codec.width">640</property>
  <property name="meta.media.0.codec.height">427</property>
  <property name="meta.media.0.codec.rotate">0</property>
  <property name="meta.media.0.codec.frame_rate">29.97</property>
  <property name="meta.media.0.codec.pix_fmt">yuv422p</property>
  <property name="meta.media.0.codec.sample_aspect_ratio">0.889583</property>
  <property name="meta.media.0.codec.colorspace">601</property>
  <property name="meta.media.0.codec.name">mpeg2video</property>
  <property name="meta.media.0.codec.long_name">MPEG-2 video</property>
  <property name="meta.media.0.codec.bit_rate">0</property>
  <property name="meta.media.1.stream.type">audio</property>
  <property name="meta.media.1.codec.sample_fmt">s16p</property>
  <property name="meta.media.1.codec.sample_rate">32000</property>
  <property name="meta.media.1.codec.channels">2</property>
  <property name="meta.media.1.codec.name">mp2</property>
  <property name="meta.media.1.codec.long_name">MP2 (MPEG audio layer 2)</property>
  <property name="meta.media.1.codec.bit_rate">128000</property>
  <property name="seekable">1</property>
  <property name="meta.media.sample_aspect_num">427</property>
  <property name="meta.media.sample_aspect_den">480</property>
  <property name="aspect_ratio">0.889583</property>
  <property name="audio_index">1</property>
  <property name="video_index">0</property>
  <property name="mute_on_pause">1</property>
  <property name="mlt_service">avformat</property>
  <property name="kdenlive:folderid">-1</property>
  <property name="kdenlive:file_size">255480000</property>
  <property name="kdenlive:file_hash">ea2e46e63f0ea7d0afc0b309d587f5f3</property>
  <property name="kdenlive:proxy">/home/thoth/.cache/kdenlive/proxy/ea2e46e63f0ea7d0afc0b309d587f5f3.mpg</property>
  <property name="proxy_out">2128</property>
  <property name="kdenlive:originalurl">2001-07-07-beasty/beastiality-049.dv</property>
  <property name="global_feed">1</property>
  <property name="kdenlive:meta.media.nb_streams">3</property>
  <property name="kdenlive:meta.media.0.stream.type">video</property>
  <property name="kdenlive:meta.media.0.stream.frame_rate">29.97</property>
  <property name="kdenlive:meta.media.0.stream.sample_aspect_ratio">0.888889</property>
  <property name="kdenlive:meta.media.0.codec.width">720</property>
  <property name="kdenlive:meta.media.0.codec.height">480</property>
  <property name="kdenlive:meta.media.0.codec.rotate">0</property>
  <property name="kdenlive:meta.media.0.codec.frame_rate">29.97</property>
  <property name="kdenlive:meta.media.0.codec.pix_fmt">yuv411p</property>
  <property name="kdenlive:meta.media.0.codec.sample_aspect_ratio">0.888889</property>
  <property name="kdenlive:meta.media.0.codec.colorspace">601</property>
  <property name="kdenlive:meta.media.0.codec.name">dvvideo</property>
  <property name="kdenlive:meta.media.0.codec.long_name">DV (Digital Video)</property>
  <property name="kdenlive:meta.media.0.codec.bit_rate">25000000</property>
  <property name="kdenlive:meta.media.1.stream.type">audio</property>
  <property name="kdenlive:meta.media.1.codec.sample_fmt">s16</property>
  <property name="kdenlive:meta.media.1.codec.sample_rate">32000</property>
  <property name="kdenlive:meta.media.1.codec.channels">2</property>
  <property name="kdenlive:meta.media.1.codec.name">pcm_s16le</property>
  <property name="kdenlive:meta.media.1.codec.long_name">PCM signed 16-bit little-endian</property>
  <property name="kdenlive:meta.media.1.codec.bit_rate">1024000</property>
  <property name="kdenlive:meta.media.2.stream.type">audio</property>
  <property name="kdenlive:meta.media.2.codec.sample_fmt">s16</property>
  <property name="kdenlive:meta.media.2.codec.sample_rate">32000</property>
  <property name="kdenlive:meta.media.2.codec.channels">2</property>
  <property name="kdenlive:meta.media.2.codec.name">pcm_s16le</property>
  <property name="kdenlive:meta.media.2.codec.long_name">PCM signed 16-bit little-endian</property>
  <property name="kdenlive:meta.media.2.codec.bit_rate">1024000</property>
  <property name="kdenlive:meta.attr.timecode.markup">00:01:15;08</property>
  <property name="kdenlive:meta.media.sample_aspect_num">8</property>
  <property name="kdenlive:meta.media.sample_aspect_den">9</property>
  <property name="kdenlive:meta.media.frame_rate_num">30000</property>
  <property name="kdenlive:meta.media.frame_rate_den">1001</property>
  <property name="kdenlive:meta.media.colorspace">601</property>
  <property name="kdenlive:meta.media.color_trc">2</property>
  <property name="kdenlive:meta.media.width">720</property>
  <property name="kdenlive:meta.media.height">480</property>
  <property name="kdenlive:zone_in">334</property>
  <property name="kdenlive:zone_out">2126</property>
  <property name="xml">was here</property>
  <property name="meta.media.frame_rate_num">30000</property>
  <property name="meta.media.frame_rate_den">1001</property>
  <property name="meta.media.colorspace">601</property>
  <property name="meta.media.color_trc">2</property>
  <property name="meta.media.width">640</property>
  <property name="meta.media.height">427</property>
  <property name="meta.media.top_field_first">0</property>
  <property name="meta.media.progressive">1</property>
 </producer>
 <producer id="37_playlist3" title="Anonymous Submission" out="3026" in="0">
  <property name="length">00:01:41;00</property>
  <property name="eof">pause</property>
  <property name="resource">/home/thoth/.cache/kdenlive/proxy/b41e37119c20e5f71afc0df657fe641c.mpg</property>
  <property name="meta.media.nb_streams">2</property>
  <property name="meta.media.0.stream.type">video</property>
  <property name="meta.media.0.stream.frame_rate">29.97</property>
  <property name="meta.media.0.stream.sample_aspect_ratio">0</property>
  <property name="meta.media.0.codec.width">640</property>
  <property name="meta.media.0.codec.height">427</property>
  <property name="meta.media.0.codec.rotate">0</property>
  <property name="meta.media.0.codec.frame_rate">29.97</property>
  <property name="meta.media.0.codec.pix_fmt">yuv422p</property>
  <property name="meta.media.0.codec.sample_aspect_ratio">0.889583</property>
  <property name="meta.media.0.codec.colorspace">601</property>
  <property name="meta.media.0.codec.name">mpeg2video</property>
  <property name="meta.media.0.codec.long_name">MPEG-2 video</property>
  <property name="meta.media.0.codec.bit_rate">0</property>
  <property name="meta.media.1.stream.type">audio</property>
  <property name="meta.media.1.codec.sample_fmt">s16p</property>
  <property name="meta.media.1.codec.sample_rate">32000</property>
  <property name="meta.media.1.codec.channels">2</property>
  <property name="meta.media.1.codec.name">mp2</property>
  <property name="meta.media.1.codec.long_name">MP2 (MPEG audio layer 2)</property>
  <property name="meta.media.1.codec.bit_rate">128000</property>
  <property name="seekable">1</property>
  <property name="meta.media.sample_aspect_num">427</property>
  <property name="meta.media.sample_aspect_den">480</property>
  <property name="aspect_ratio">0.889583</property>
  <property name="audio_index">1</property>
  <property name="video_index">0</property>
  <property name="mute_on_pause">1</property>
  <property name="mlt_service">avformat</property>
  <property name="kdenlive:folderid">-1</property>
  <property name="kdenlive:file_size">363840000</property>
  <property name="kdenlive:file_hash">b41e37119c20e5f71afc0df657fe641c</property>
  <property name="kdenlive:proxy">/home/thoth/.cache/kdenlive/proxy/b41e37119c20e5f71afc0df657fe641c.mpg</property>
  <property name="proxy_out">3031</property>
  <property name="kdenlive:originalurl">2001-07-07-beasty/beastiality-050.dv</property>
  <property name="global_feed">1</property>
  <property name="kdenlive:meta.media.nb_streams">3</property>
  <property name="kdenlive:meta.media.0.stream.type">video</property>
  <property name="kdenlive:meta.media.0.stream.frame_rate">29.97</property>
  <property name="kdenlive:meta.media.0.stream.sample_aspect_ratio">0.888889</property>
  <property name="kdenlive:meta.media.0.codec.width">720</property>
  <property name="kdenlive:meta.media.0.codec.height">480</property>
  <property name="kdenlive:meta.media.0.codec.rotate">0</property>
  <property name="kdenlive:meta.media.0.codec.frame_rate">29.97</property>
  <property name="kdenlive:meta.media.0.codec.pix_fmt">yuv411p</property>
  <property name="kdenlive:meta.media.0.codec.sample_aspect_ratio">0.888889</property>
  <property name="kdenlive:meta.media.0.codec.colorspace">601</property>
  <property name="kdenlive:meta.media.0.codec.name">dvvideo</property>
  <property name="kdenlive:meta.media.0.codec.long_name">DV (Digital Video)</property>
  <property name="kdenlive:meta.media.0.codec.bit_rate">25000000</property>
  <property name="kdenlive:meta.media.1.stream.type">audio</property>
  <property name="kdenlive:meta.media.1.codec.sample_fmt">s16</property>
  <property name="kdenlive:meta.media.1.codec.sample_rate">32000</property>
  <property name="kdenlive:meta.media.1.codec.channels">2</property>
  <property name="kdenlive:meta.media.1.codec.name">pcm_s16le</property>
  <property name="kdenlive:meta.media.1.codec.long_name">PCM signed 16-bit little-endian</property>
  <property name="kdenlive:meta.media.1.codec.bit_rate">1024000</property>
  <property name="kdenlive:meta.media.2.stream.type">audio</property>
  <property name="kdenlive:meta.media.2.codec.sample_fmt">s16</property>
  <property name="kdenlive:meta.media.2.codec.sample_rate">32000</property>
  <property name="kdenlive:meta.media.2.codec.channels">2</property>
  <property name="kdenlive:meta.media.2.codec.name">pcm_s16le</property>
  <property name="kdenlive:meta.media.2.codec.long_name">PCM signed 16-bit little-endian</property>
  <property name="kdenlive:meta.media.2.codec.bit_rate">1024000</property>
  <property name="kdenlive:meta.media.sample_aspect_num">8</property>
  <property name="kdenlive:meta.media.sample_aspect_den">9</property>
  <property name="kdenlive:meta.media.frame_rate_num">30000</property>
  <property name="kdenlive:meta.media.frame_rate_den">1001</property>
  <property name="kdenlive:meta.media.colorspace">601</property>
  <property name="kdenlive:meta.media.color_trc">2</property>
  <property name="kdenlive:meta.media.width">720</property>
  <property name="kdenlive:meta.media.height">480</property>
  <property name="kdenlive:zone_in">0</property>
  <property name="kdenlive:zone_out">1303</property>
  <property name="xml">was here</property>
  <property name="meta.media.frame_rate_num">30000</property>
  <property name="meta.media.frame_rate_den">1001</property>
  <property name="meta.media.colorspace">601</property>
  <property name="meta.media.color_trc">2</property>
  <property name="meta.media.width">640</property>
  <property name="meta.media.height">427</property>
  <property name="meta.media.top_field_first">0</property>
  <property name="meta.media.progressive">1</property>
 </producer>
 <producer id="32_video" title="Anonymous Submission" out="2128" in="0">
  <property name="length">00:01:11;01</property>
  <property name="eof">pause</property>
  <property name="resource">/home/thoth/.cache/kdenlive/proxy/ea2e46e63f0ea7d0afc0b309d587f5f3.mpg</property>
  <property name="meta.media.nb_streams">2</property>
  <property name="meta.media.0.stream.type">video</property>
  <property name="meta.media.0.stream.frame_rate">29.97</property>
  <property name="meta.media.0.stream.sample_aspect_ratio">0</property>
  <property name="meta.media.0.codec.width">640</property>
  <property name="meta.media.0.codec.height">427</property>
  <property name="meta.media.0.codec.rotate">0</property>
  <property name="meta.media.0.codec.frame_rate">29.97</property>
  <property name="meta.media.0.codec.pix_fmt">yuv422p</property>
  <property name="meta.media.0.codec.sample_aspect_ratio">0.889583</property>
  <property name="meta.media.0.codec.colorspace">601</property>
  <property name="meta.media.0.codec.name">mpeg2video</property>
  <property name="meta.media.0.codec.long_name">MPEG-2 video</property>
  <property name="meta.media.0.codec.bit_rate">0</property>
  <property name="meta.media.1.stream.type">audio</property>
  <property name="meta.media.1.codec.sample_fmt">s16p</property>
  <property name="meta.media.1.codec.sample_rate">32000</property>
  <property name="meta.media.1.codec.channels">2</property>
  <property name="meta.media.1.codec.name">mp2</property>
  <property name="meta.media.1.codec.long_name">MP2 (MPEG audio layer 2)</property>
  <property name="meta.media.1.codec.bit_rate">128000</property>
  <property name="seekable">1</property>
  <property name="meta.media.sample_aspect_num">427</property>
  <property name="meta.media.sample_aspect_den">480</property>
  <property name="aspect_ratio">0.889583</property>
  <property name="audio_index">-1</property>
  <property name="video_index">0</property>
  <property name="mute_on_pause">1</property>
  <property name="mlt_service">avformat</property>
  <property name="kdenlive:folderid">-1</property>
  <property name="kdenlive:file_size">255480000</property>
  <property name="kdenlive:file_hash">ea2e46e63f0ea7d0afc0b309d587f5f3</property>
  <property name="kdenlive:proxy">/home/thoth/.cache/kdenlive/proxy/ea2e46e63f0ea7d0afc0b309d587f5f3.mpg</property>
  <property name="proxy_out">2128</property>
  <property name="kdenlive:originalurl">2001-07-07-beasty/beastiality-049.dv</property>
  <property name="global_feed">1</property>
  <property name="kdenlive:meta.media.nb_streams">3</property>
  <property name="kdenlive:meta.media.0.stream.type">video</property>
  <property name="kdenlive:meta.media.0.stream.frame_rate">29.97</property>
  <property name="kdenlive:meta.media.0.stream.sample_aspect_ratio">0.888889</property>
  <property name="kdenlive:meta.media.0.codec.width">720</property>
  <property name="kdenlive:meta.media.0.codec.height">480</property>
  <property name="kdenlive:meta.media.0.codec.rotate">0</property>
  <property name="kdenlive:meta.media.0.codec.frame_rate">29.97</property>
  <property name="kdenlive:meta.media.0.codec.pix_fmt">yuv411p</property>
  <property name="kdenlive:meta.media.0.codec.sample_aspect_ratio">0.888889</property>
  <property name="kdenlive:meta.media.0.codec.colorspace">601</property>
  <property name="kdenlive:meta.media.0.codec.name">dvvideo</property>
  <property name="kdenlive:meta.media.0.codec.long_name">DV (Digital Video)</property>
  <property name="kdenlive:meta.media.0.codec.bit_rate">25000000</property>
  <property name="kdenlive:meta.media.1.stream.type">audio</property>
  <property name="kdenlive:meta.media.1.codec.sample_fmt">s16</property>
  <property name="kdenlive:meta.media.1.codec.sample_rate">32000</property>
  <property name="kdenlive:meta.media.1.codec.channels">2</property>
  <property name="kdenlive:meta.media.1.codec.name">pcm_s16le</property>
  <property name="kdenlive:meta.media.1.codec.long_name">PCM signed 16-bit little-endian</property>
  <property name="kdenlive:meta.media.1.codec.bit_rate">1024000</property>
  <property name="kdenlive:meta.media.2.stream.type">audio</property>
  <property name="kdenlive:meta.media.2.codec.sample_fmt">s16</property>
  <property name="kdenlive:meta.media.2.codec.sample_rate">32000</property>
  <property name="kdenlive:meta.media.2.codec.channels">2</property>
  <property name="kdenlive:meta.media.2.codec.name">pcm_s16le</property>
  <property name="kdenlive:meta.media.2.codec.long_name">PCM signed 16-bit little-endian</property>
  <property name="kdenlive:meta.media.2.codec.bit_rate">1024000</property>
  <property name="kdenlive:meta.attr.timecode.markup">00:01:15;08</property>
  <property name="kdenlive:meta.media.sample_aspect_num">8</property>
  <property name="kdenlive:meta.media.sample_aspect_den">9</property>
  <property name="kdenlive:meta.media.frame_rate_num">30000</property>
  <property name="kdenlive:meta.media.frame_rate_den">1001</property>
  <property name="kdenlive:meta.media.colorspace">601</property>
  <property name="kdenlive:meta.media.color_trc">2</property>
  <property name="kdenlive:meta.media.width">720</property>
  <property name="kdenlive:meta.media.height">480</property>
  <property name="kdenlive:zone_in">334</property>
  <property name="kdenlive:zone_out">2126</property>
  <property name="xml">was here</property>
  <property name="meta.media.frame_rate_num">30000</property>
  <property name="meta.media.frame_rate_den">1001</property>
  <property name="meta.media.colorspace">601</property>
  <property name="meta.media.color_trc">2</property>
  <property name="meta.media.width">640</property>
  <property name="meta.media.height">427</property>
  <property name="meta.media.top_field_first">0</property>
  <property name="meta.media.progressive">1</property>
 </producer>
 <producer id="37_video" title="Anonymous Submission" out="3024" in="0">
  <property name="length">00:01:40;28</property>
  <property name="eof">pause</property>
  <property name="resource">/home/thoth/.cache/kdenlive/proxy/b41e37119c20e5f71afc0df657fe641c.mpg</property>
  <property name="meta.media.nb_streams">2</property>
  <property name="meta.media.0.stream.type">video</property>
  <property name="meta.media.0.stream.frame_rate">29.97</property>
  <property name="meta.media.0.stream.sample_aspect_ratio">0</property>
  <property name="meta.media.0.codec.width">640</property>
  <property name="meta.media.0.codec.height">427</property>
  <property name="meta.media.0.codec.rotate">0</property>
  <property name="meta.media.0.codec.frame_rate">29.97</property>
  <property name="meta.media.0.codec.pix_fmt">yuv422p</property>
  <property name="meta.media.0.codec.sample_aspect_ratio">0.889583</property>
  <property name="meta.media.0.codec.colorspace">601</property>
  <property name="meta.media.0.codec.name">mpeg2video</property>
  <property name="meta.media.0.codec.long_name">MPEG-2 video</property>
  <property name="meta.media.0.codec.bit_rate">0</property>
  <property name="meta.media.1.stream.type">audio</property>
  <property name="meta.media.1.codec.sample_fmt">s16p</property>
  <property name="meta.media.1.codec.sample_rate">32000</property>
  <property name="meta.media.1.codec.channels">2</property>
  <property name="meta.media.1.codec.name">mp2</property>
  <property name="meta.media.1.codec.long_name">MP2 (MPEG audio layer 2)</property>
  <property name="meta.media.1.codec.bit_rate">128000</property>
  <property name="seekable">1</property>
  <property name="meta.media.sample_aspect_num">427</property>
  <property name="meta.media.sample_aspect_den">480</property>
  <property name="aspect_ratio">0.889583</property>
  <property name="audio_index">-1</property>
  <property name="video_index">0</property>
  <property name="mute_on_pause">1</property>
  <property name="mlt_service">avformat</property>
  <property name="kdenlive:folderid">-1</property>
  <property name="kdenlive:file_size">363840000</property>
  <property name="kdenlive:file_hash">b41e37119c20e5f71afc0df657fe641c</property>
  <property name="kdenlive:proxy">/home/thoth/.cache/kdenlive/proxy/b41e37119c20e5f71afc0df657fe641c.mpg</property>
  <property name="proxy_out">3031</property>
  <property name="kdenlive:originalurl">2001-07-07-beasty/beastiality-050.dv</property>
  <property name="global_feed">1</property>
  <property name="kdenlive:meta.media.nb_streams">3</property>
  <property name="kdenlive:meta.media.0.stream.type">video</property>
  <property name="kdenlive:meta.media.0.stream.frame_rate">29.97</property>
  <property name="kdenlive:meta.media.0.stream.sample_aspect_ratio">0.888889</property>
  <property name="kdenlive:meta.media.0.codec.width">720</property>
  <property name="kdenlive:meta.media.0.codec.height">480</property>
  <property name="kdenlive:meta.media.0.codec.rotate">0</property>
  <property name="kdenlive:meta.media.0.codec.frame_rate">29.97</property>
  <property name="kdenlive:meta.media.0.codec.pix_fmt">yuv411p</property>
  <property name="kdenlive:meta.media.0.codec.sample_aspect_ratio">0.888889</property>
  <property name="kdenlive:meta.media.0.codec.colorspace">601</property>
  <property name="kdenlive:meta.media.0.codec.name">dvvideo</property>
  <property name="kdenlive:meta.media.0.codec.long_name">DV (Digital Video)</property>
  <property name="kdenlive:meta.media.0.codec.bit_rate">25000000</property>
  <property name="kdenlive:meta.media.1.stream.type">audio</property>
  <property name="kdenlive:meta.media.1.codec.sample_fmt">s16</property>
  <property name="kdenlive:meta.media.1.codec.sample_rate">32000</property>
  <property name="kdenlive:meta.media.1.codec.channels">2</property>
  <property name="kdenlive:meta.media.1.codec.name">pcm_s16le</property>
  <property name="kdenlive:meta.media.1.codec.long_name">PCM signed 16-bit little-endian</property>
  <property name="kdenlive:meta.media.1.codec.bit_rate">1024000</property>
  <property name="kdenlive:meta.media.2.stream.type">audio</property>
  <property name="kdenlive:meta.media.2.codec.sample_fmt">s16</property>
  <property name="kdenlive:meta.media.2.codec.sample_rate">32000</property>
  <property name="kdenlive:meta.media.2.codec.channels">2</property>
  <property name="kdenlive:meta.media.2.codec.name">pcm_s16le</property>
  <property name="kdenlive:meta.media.2.codec.long_name">PCM signed 16-bit little-endian</property>
  <property name="kdenlive:meta.media.2.codec.bit_rate">1024000</property>
  <property name="kdenlive:meta.media.sample_aspect_num">8</property>
  <property name="kdenlive:meta.media.sample_aspect_den">9</property>
  <property name="kdenlive:meta.media.frame_rate_num">30000</property>
  <property name="kdenlive:meta.media.frame_rate_den">1001</property>
  <property name="kdenlive:meta.media.colorspace">601</property>
  <property name="kdenlive:meta.media.color_trc">2</property>
  <property name="kdenlive:meta.media.width">720</property>
  <property name="kdenlive:meta.media.height">480</property>
  <property name="kdenlive:zone_in">2845</property>
  <property name="kdenlive:zone_out">2997</property>
  <property name="xml">was here</property>
  <property name="meta.media.frame_rate_num">30000</property>
  <property name="meta.media.frame_rate_den">1001</property>
  <property name="meta.media.colorspace">601</property>
  <property name="meta.media.color_trc">2</property>
  <property name="meta.media.width">640</property>
  <property name="meta.media.height">427</property>
  <property name="meta.media.top_field_first">0</property>
  <property name="meta.media.progressive">1</property>
 </producer>
 <producer id="40_playlist3" title="Anonymous Submission" out="1041" in="0">
  <property name="length">00:00:34;23</property>
  <property name="eof">pause</property>
  <property name="resource">/home/thoth/.cache/kdenlive/proxy/b90441e52b65266c39eba5434152283d.mpg</property>
  <property name="meta.media.nb_streams">2</property>
  <property name="meta.media.0.stream.type">video</property>
  <property name="meta.media.0.stream.frame_rate">29.97</property>
  <property name="meta.media.0.stream.sample_aspect_ratio">0</property>
  <property name="meta.media.0.codec.width">640</property>
  <property name="meta.media.0.codec.height">427</property>
  <property name="meta.media.0.codec.rotate">0</property>
  <property name="meta.media.0.codec.frame_rate">29.97</property>
  <property name="meta.media.0.codec.pix_fmt">yuv422p</property>
  <property name="meta.media.0.codec.sample_aspect_ratio">0.889583</property>
  <property name="meta.media.0.codec.colorspace">601</property>
  <property name="meta.media.0.codec.name">mpeg2video</property>
  <property name="meta.media.0.codec.long_name">MPEG-2 video</property>
  <property name="meta.media.0.codec.bit_rate">0</property>
  <property name="meta.media.1.stream.type">audio</property>
  <property name="meta.media.1.codec.sample_fmt">s16p</property>
  <property name="meta.media.1.codec.sample_rate">32000</property>
  <property name="meta.media.1.codec.channels">2</property>
  <property name="meta.media.1.codec.name">mp2</property>
  <property name="meta.media.1.codec.long_name">MP2 (MPEG audio layer 2)</property>
  <property name="meta.media.1.codec.bit_rate">128000</property>
  <property name="seekable">1</property>
  <property name="meta.media.sample_aspect_num">427</property>
  <property name="meta.media.sample_aspect_den">480</property>
  <property name="aspect_ratio">0.889583</property>
  <property name="audio_index">1</property>
  <property name="video_index">0</property>
  <property name="mute_on_pause">1</property>
  <property name="mlt_service">avformat</property>
  <property name="kdenlive:folderid">-1</property>
  <property name="kdenlive:file_size">125640000</property>
  <property name="kdenlive:file_hash">b90441e52b65266c39eba5434152283d</property>
  <property name="kdenlive:proxy">/home/thoth/.cache/kdenlive/proxy/b90441e52b65266c39eba5434152283d.mpg</property>
  <property name="proxy_out">1046</property>
  <property name="kdenlive:originalurl">2001-07-07-beasty/beastiality-053.dv</property>
  <property name="global_feed">1</property>
  <property name="kdenlive:meta.media.nb_streams">3</property>
  <property name="kdenlive:meta.media.0.stream.type">video</property>
  <property name="kdenlive:meta.media.0.stream.frame_rate">29.97</property>
  <property name="kdenlive:meta.media.0.stream.sample_aspect_ratio">0.888889</property>
  <property name="kdenlive:meta.media.0.codec.width">720</property>
  <property name="kdenlive:meta.media.0.codec.height">480</property>
  <property name="kdenlive:meta.media.0.codec.rotate">0</property>
  <property name="kdenlive:meta.media.0.codec.frame_rate">29.97</property>
  <property name="kdenlive:meta.media.0.codec.pix_fmt">yuv411p</property>
  <property name="kdenlive:meta.media.0.codec.sample_aspect_ratio">0.888889</property>
  <property name="kdenlive:meta.media.0.codec.colorspace">601</property>
  <property name="kdenlive:meta.media.0.codec.name">dvvideo</property>
  <property name="kdenlive:meta.media.0.codec.long_name">DV (Digital Video)</property>
  <property name="kdenlive:meta.media.0.codec.bit_rate">25000000</property>
  <property name="kdenlive:meta.media.1.stream.type">audio</property>
  <property name="kdenlive:meta.media.1.codec.sample_fmt">s16</property>
  <property name="kdenlive:meta.media.1.codec.sample_rate">32000</property>
  <property name="kdenlive:meta.media.1.codec.channels">2</property>
  <property name="kdenlive:meta.media.1.codec.name">pcm_s16le</property>
  <property name="kdenlive:meta.media.1.codec.long_name">PCM signed 16-bit little-endian</property>
  <property name="kdenlive:meta.media.1.codec.bit_rate">1024000</property>
  <property name="kdenlive:meta.media.2.stream.type">audio</property>
  <property name="kdenlive:meta.media.2.codec.sample_fmt">s16</property>
  <property name="kdenlive:meta.media.2.codec.sample_rate">32000</property>
  <property name="kdenlive:meta.media.2.codec.channels">2</property>
  <property name="kdenlive:meta.media.2.codec.name">pcm_s16le</property>
  <property name="kdenlive:meta.media.2.codec.long_name">PCM signed 16-bit little-endian</property>
  <property name="kdenlive:meta.media.2.codec.bit_rate">1024000</property>
  <property name="kdenlive:meta.attr.timecode.markup">00:01:35;06</property>
  <property name="kdenlive:meta.media.sample_aspect_num">8</property>
  <property name="kdenlive:meta.media.sample_aspect_den">9</property>
  <property name="kdenlive:meta.media.frame_rate_num">30000</property>
  <property name="kdenlive:meta.media.frame_rate_den">1001</property>
  <property name="kdenlive:meta.media.colorspace">601</property>
  <property name="kdenlive:meta.media.color_trc">2</property>
  <property name="kdenlive:meta.media.width">720</property>
  <property name="kdenlive:meta.media.height">480</property>
  <property name="kdenlive:zone_in">0</property>
  <property name="kdenlive:zone_out">160</property>
  <property name="xml">was here</property>
  <property name="meta.media.frame_rate_num">30000</property>
  <property name="meta.media.frame_rate_den">1001</property>
  <property name="meta.media.colorspace">601</property>
  <property name="meta.media.color_trc">2</property>
  <property name="meta.media.width">640</property>
  <property name="meta.media.height">427</property>
  <property name="meta.media.top_field_first">0</property>
  <property name="meta.media.progressive">1</property>
 </producer>
 <producer id="38_playlist3" title="Anonymous Submission" out="820" in="0">
  <property name="length">00:00:27;12</property>
  <property name="eof">pause</property>
  <property name="resource">/home/thoth/.cache/kdenlive/proxy/c9569318960f231206885dcfc873080e.mpg</property>
  <property name="meta.media.nb_streams">2</property>
  <property name="meta.media.0.stream.type">video</property>
  <property name="meta.media.0.stream.frame_rate">29.97</property>
  <property name="meta.media.0.stream.sample_aspect_ratio">0</property>
  <property name="meta.media.0.codec.width">640</property>
  <property name="meta.media.0.codec.height">427</property>
  <property name="meta.media.0.codec.rotate">0</property>
  <property name="meta.media.0.codec.frame_rate">29.97</property>
  <property name="meta.media.0.codec.pix_fmt">yuv422p</property>
  <property name="meta.media.0.codec.sample_aspect_ratio">0.889583</property>
  <property name="meta.media.0.codec.colorspace">601</property>
  <property name="meta.media.0.codec.name">mpeg2video</property>
  <property name="meta.media.0.codec.long_name">MPEG-2 video</property>
  <property name="meta.media.0.codec.bit_rate">0</property>
  <property name="meta.media.1.stream.type">audio</property>
  <property name="meta.media.1.codec.sample_fmt">s16p</property>
  <property name="meta.media.1.codec.sample_rate">32000</property>
  <property name="meta.media.1.codec.channels">2</property>
  <property name="meta.media.1.codec.name">mp2</property>
  <property name="meta.media.1.codec.long_name">MP2 (MPEG audio layer 2)</property>
  <property name="meta.media.1.codec.bit_rate">128000</property>
  <property name="seekable">1</property>
  <property name="meta.media.sample_aspect_num">427</property>
  <property name="meta.media.sample_aspect_den">480</property>
  <property name="aspect_ratio">0.889583</property>
  <property name="audio_index">1</property>
  <property name="video_index">0</property>
  <property name="mute_on_pause">1</property>
  <property name="mlt_service">avformat</property>
  <property name="kdenlive:folderid">-1</property>
  <property name="kdenlive:file_size">99120000</property>
  <property name="kdenlive:file_hash">c9569318960f231206885dcfc873080e</property>
  <property name="kdenlive:proxy">/home/thoth/.cache/kdenlive/proxy/c9569318960f231206885dcfc873080e.mpg</property>
  <property name="proxy_out">825</property>
  <property name="kdenlive:originalurl">2001-07-07-beasty/beastiality-051.dv</property>
  <property name="global_feed">1</property>
  <property name="kdenlive:meta.media.nb_streams">3</property>
  <property name="kdenlive:meta.media.0.stream.type">video</property>
  <property name="kdenlive:meta.media.0.stream.frame_rate">29.97</property>
  <property name="kdenlive:meta.media.0.stream.sample_aspect_ratio">0.888889</property>
  <property name="kdenlive:meta.media.0.codec.width">720</property>
  <property name="kdenlive:meta.media.0.codec.height">480</property>
  <property name="kdenlive:meta.media.0.codec.rotate">0</property>
  <property name="kdenlive:meta.media.0.codec.frame_rate">29.97</property>
  <property name="kdenlive:meta.media.0.codec.pix_fmt">yuv411p</property>
  <property name="kdenlive:meta.media.0.codec.sample_aspect_ratio">0.888889</property>
  <property name="kdenlive:meta.media.0.codec.colorspace">601</property>
  <property name="kdenlive:meta.media.0.codec.name">dvvideo</property>
  <property name="kdenlive:meta.media.0.codec.long_name">DV (Digital Video)</property>
  <property name="kdenlive:meta.media.0.codec.bit_rate">25000000</property>
  <property name="kdenlive:meta.media.1.stream.type">audio</property>
  <property name="kdenlive:meta.media.1.codec.sample_fmt">s16</property>
  <property name="kdenlive:meta.media.1.codec.sample_rate">32000</property>
  <property name="kdenlive:meta.media.1.codec.channels">2</property>
  <property name="kdenlive:meta.media.1.codec.name">pcm_s16le</property>
  <property name="kdenlive:meta.media.1.codec.long_name">PCM signed 16-bit little-endian</property>
  <property name="kdenlive:meta.media.1.codec.bit_rate">1024000</property>
  <property name="kdenlive:meta.media.2.stream.type">audio</property>
  <property name="kdenlive:meta.media.2.codec.sample_fmt">s16</property>
  <property name="kdenlive:meta.media.2.codec.sample_rate">32000</property>
  <property name="kdenlive:meta.media.2.codec.channels">2</property>
  <property name="kdenlive:meta.media.2.codec.name">pcm_s16le</property>
  <property name="kdenlive:meta.media.2.codec.long_name">PCM signed 16-bit little-endian</property>
  <property name="kdenlive:meta.media.2.codec.bit_rate">1024000</property>
  <property name="kdenlive:meta.attr.timecode.markup">00:00:57;05</property>
  <property name="kdenlive:meta.media.sample_aspect_num">8</property>
  <property name="kdenlive:meta.media.sample_aspect_den">9</property>
  <property name="kdenlive:meta.media.frame_rate_num">30000</property>
  <property name="kdenlive:meta.media.frame_rate_den">1001</property>
  <property name="kdenlive:meta.media.colorspace">601</property>
  <property name="kdenlive:meta.media.color_trc">2</property>
  <property name="kdenlive:meta.media.width">720</property>
  <property name="kdenlive:meta.media.height">480</property>
  <property name="kdenlive:zone_in">0</property>
  <property name="kdenlive:zone_out">126</property>
  <property name="xml">was here</property>
  <property name="meta.media.frame_rate_num">30000</property>
  <property name="meta.media.frame_rate_den">1001</property>
  <property name="meta.media.colorspace">601</property>
  <property name="meta.media.color_trc">2</property>
  <property name="meta.media.width">640</property>
  <property name="meta.media.height">427</property>
  <property name="meta.media.top_field_first">0</property>
  <property name="meta.media.progressive">1</property>
 </producer>
 <producer id="39_playlist3" title="Anonymous Submission" out="312" in="0">
  <property name="length">00:00:10;13</property>
  <property name="eof">pause</property>
  <property name="resource">/home/thoth/.cache/kdenlive/proxy/ab60cca5571b57feacb79f43a07fa38f.mpg</property>
  <property name="meta.media.nb_streams">2</property>
  <property name="meta.media.0.stream.type">video</property>
  <property name="meta.media.0.stream.frame_rate">29.97</property>
  <property name="meta.media.0.stream.sample_aspect_ratio">0</property>
  <property name="meta.media.0.codec.width">640</property>
  <property name="meta.media.0.codec.height">427</property>
  <property name="meta.media.0.codec.rotate">0</property>
  <property name="meta.media.0.codec.frame_rate">29.97</property>
  <property name="meta.media.0.codec.pix_fmt">yuv422p</property>
  <property name="meta.media.0.codec.sample_aspect_ratio">0.889583</property>
  <property name="meta.media.0.codec.colorspace">601</property>
  <property name="meta.media.0.codec.name">mpeg2video</property>
  <property name="meta.media.0.codec.long_name">MPEG-2 video</property>
  <property name="meta.media.0.codec.bit_rate">0</property>
  <property name="meta.media.1.stream.type">audio</property>
  <property name="meta.media.1.codec.sample_fmt">s16p</property>
  <property name="meta.media.1.codec.sample_rate">32000</property>
  <property name="meta.media.1.codec.channels">2</property>
  <property name="meta.media.1.codec.name">mp2</property>
  <property name="meta.media.1.codec.long_name">MP2 (MPEG audio layer 2)</property>
  <property name="meta.media.1.codec.bit_rate">128000</property>
  <property name="seekable">1</property>
  <property name="meta.media.sample_aspect_num">427</property>
  <property name="meta.media.sample_aspect_den">480</property>
  <property name="aspect_ratio">0.889583</property>
  <property name="audio_index">1</property>
  <property name="video_index">0</property>
  <property name="mute_on_pause">1</property>
  <property name="mlt_service">avformat</property>
  <property name="kdenlive:folderid">-1</property>
  <property name="kdenlive:file_size">37560000</property>
  <property name="kdenlive:file_hash">ab60cca5571b57feacb79f43a07fa38f</property>
  <property name="kdenlive:proxy">/home/thoth/.cache/kdenlive/proxy/ab60cca5571b57feacb79f43a07fa38f.mpg</property>
  <property name="proxy_out">312</property>
  <property name="kdenlive:originalurl">2001-07-07-beasty/beastiality-052.dv</property>
  <property name="global_feed">1</property>
  <property name="kdenlive:meta.media.nb_streams">3</property>
  <property name="kdenlive:meta.media.0.stream.type">video</property>
  <property name="kdenlive:meta.media.0.stream.frame_rate">29.97</property>
  <property name="kdenlive:meta.media.0.stream.sample_aspect_ratio">0.888889</property>
  <property name="kdenlive:meta.media.0.codec.width">720</property>
  <property name="kdenlive:meta.media.0.codec.height">480</property>
  <property name="kdenlive:meta.media.0.codec.rotate">0</property>
  <property name="kdenlive:meta.media.0.codec.frame_rate">29.97</property>
  <property name="kdenlive:meta.media.0.codec.pix_fmt">yuv411p</property>
  <property name="kdenlive:meta.media.0.codec.sample_aspect_ratio">0.888889</property>
  <property name="kdenlive:meta.media.0.codec.colorspace">601</property>
  <property name="kdenlive:meta.media.0.codec.name">dvvideo</property>
  <property name="kdenlive:meta.media.0.codec.long_name">DV (Digital Video)</property>
  <property name="kdenlive:meta.media.0.codec.bit_rate">25000000</property>
  <property name="kdenlive:meta.media.1.stream.type">audio</property>
  <property name="kdenlive:meta.media.1.codec.sample_fmt">s16</property>
  <property name="kdenlive:meta.media.1.codec.sample_rate">32000</property>
  <property name="kdenlive:meta.media.1.codec.channels">2</property>
  <property name="kdenlive:meta.media.1.codec.name">pcm_s16le</property>
  <property name="kdenlive:meta.media.1.codec.long_name">PCM signed 16-bit little-endian</property>
  <property name="kdenlive:meta.media.1.codec.bit_rate">1024000</property>
  <property name="kdenlive:meta.media.2.stream.type">audio</property>
  <property name="kdenlive:meta.media.2.codec.sample_fmt">s16</property>
  <property name="kdenlive:meta.media.2.codec.sample_rate">32000</property>
  <property name="kdenlive:meta.media.2.codec.channels">2</property>
  <property name="kdenlive:meta.media.2.codec.name">pcm_s16le</property>
  <property name="kdenlive:meta.media.2.codec.long_name">PCM signed 16-bit little-endian</property>
  <property name="kdenlive:meta.media.2.codec.bit_rate">1024000</property>
  <property name="kdenlive:meta.attr.timecode.markup">00:01:24;23</property>
  <property name="kdenlive:meta.media.sample_aspect_num">8</property>
  <property name="kdenlive:meta.media.sample_aspect_den">9</property>
  <property name="kdenlive:meta.media.frame_rate_num">30000</property>
  <property name="kdenlive:meta.media.frame_rate_den">1001</property>
  <property name="kdenlive:meta.media.colorspace">601</property>
  <property name="kdenlive:meta.media.color_trc">2</property>
  <property name="kdenlive:meta.media.width">720</property>
  <property name="kdenlive:meta.media.height">480</property>
  <property name="kdenlive:zone_in">11</property>
  <property name="kdenlive:zone_out">197</property>
  <property name="xml">was here</property>
  <property name="meta.media.frame_rate_num">30000</property>
  <property name="meta.media.frame_rate_den">1001</property>
  <property name="meta.media.colorspace">601</property>
  <property name="meta.media.color_trc">2</property>
  <property name="meta.media.width">640</property>
  <property name="meta.media.height">427</property>
  <property name="meta.media.top_field_first">0</property>
  <property name="meta.media.progressive">1</property>
 </producer>
 <producer id="59_playlist3" title="Anonymous Submission" out="854" in="0">
  <property name="length">00:00:28;16</property>
  <property name="eof">pause</property>
  <property name="resource">/home/thoth/.cache/kdenlive/proxy/a30bf50fadbcb53eaade6e05f123e8b2.mpg</property>
  <property name="meta.media.nb_streams">2</property>
  <property name="meta.media.0.stream.type">video</property>
  <property name="meta.media.0.stream.frame_rate">29.97</property>
  <property name="meta.media.0.stream.sample_aspect_ratio">0</property>
  <property name="meta.media.0.codec.width">640</property>
  <property name="meta.media.0.codec.height">427</property>
  <property name="meta.media.0.codec.rotate">0</property>
  <property name="meta.media.0.codec.frame_rate">29.97</property>
  <property name="meta.media.0.codec.pix_fmt">yuv422p</property>
  <property name="meta.media.0.codec.sample_aspect_ratio">0.889583</property>
  <property name="meta.media.0.codec.colorspace">601</property>
  <property name="meta.media.0.codec.name">mpeg2video</property>
  <property name="meta.media.0.codec.long_name">MPEG-2 video</property>
  <property name="meta.media.0.codec.bit_rate">0</property>
  <property name="meta.media.1.stream.type">audio</property>
  <property name="meta.media.1.codec.sample_fmt">s16p</property>
  <property name="meta.media.1.codec.sample_rate">32000</property>
  <property name="meta.media.1.codec.channels">2</property>
  <property name="meta.media.1.codec.name">mp2</property>
  <property name="meta.media.1.codec.long_name">MP2 (MPEG audio layer 2)</property>
  <property name="meta.media.1.codec.bit_rate">128000</property>
  <property name="seekable">1</property>
  <property name="meta.media.sample_aspect_num">427</property>
  <property name="meta.media.sample_aspect_den">480</property>
  <property name="aspect_ratio">0.889583</property>
  <property name="audio_index">1</property>
  <property name="video_index">0</property>
  <property name="mute_on_pause">1</property>
  <property name="mlt_service">avformat</property>
  <property name="kdenlive:folderid">-1</property>
  <property name="kdenlive:file_size">103200000</property>
  <property name="kdenlive:file_hash">a30bf50fadbcb53eaade6e05f123e8b2</property>
  <property name="kdenlive:proxy">/home/thoth/.cache/kdenlive/proxy/a30bf50fadbcb53eaade6e05f123e8b2.mpg</property>
  <property name="proxy_out">859</property>
  <property name="kdenlive:originalurl">2001-07-07-beasty/beastiality-058.dv</property>
  <property name="global_feed">1</property>
  <property name="kdenlive:meta.media.nb_streams">3</property>
  <property name="kdenlive:meta.media.0.stream.type">video</property>
  <property name="kdenlive:meta.media.0.stream.frame_rate">29.97</property>
  <property name="kdenlive:meta.media.0.stream.sample_aspect_ratio">0.888889</property>
  <property name="kdenlive:meta.media.0.codec.width">720</property>
  <property name="kdenlive:meta.media.0.codec.height">480</property>
  <property name="kdenlive:meta.media.0.codec.rotate">0</property>
  <property name="kdenlive:meta.media.0.codec.frame_rate">29.97</property>
  <property name="kdenlive:meta.media.0.codec.pix_fmt">yuv411p</property>
  <property name="kdenlive:meta.media.0.codec.sample_aspect_ratio">0.888889</property>
  <property name="kdenlive:meta.media.0.codec.colorspace">601</property>
  <property name="kdenlive:meta.media.0.codec.name">dvvideo</property>
  <property name="kdenlive:meta.media.0.codec.long_name">DV (Digital Video)</property>
  <property name="kdenlive:meta.media.0.codec.bit_rate">25000000</property>
  <property name="kdenlive:meta.media.1.stream.type">audio</property>
  <property name="kdenlive:meta.media.1.codec.sample_fmt">s16</property>
  <property name="kdenlive:meta.media.1.codec.sample_rate">32000</property>
  <property name="kdenlive:meta.media.1.codec.channels">2</property>
  <property name="kdenlive:meta.media.1.codec.name">pcm_s16le</property>
  <property name="kdenlive:meta.media.1.codec.long_name">PCM signed 16-bit little-endian</property>
  <property name="kdenlive:meta.media.1.codec.bit_rate">1024000</property>
  <property name="kdenlive:meta.media.2.stream.type">audio</property>
  <property name="kdenlive:meta.media.2.codec.sample_fmt">s16</property>
  <property name="kdenlive:meta.media.2.codec.sample_rate">32000</property>
  <property name="kdenlive:meta.media.2.codec.channels">2</property>
  <property name="kdenlive:meta.media.2.codec.name">pcm_s16le</property>
  <property name="kdenlive:meta.media.2.codec.long_name">PCM signed 16-bit little-endian</property>
  <property name="kdenlive:meta.media.2.codec.bit_rate">1024000</property>
  <property name="kdenlive:meta.media.sample_aspect_num">8</property>
  <property name="kdenlive:meta.media.sample_aspect_den">9</property>
  <property name="kdenlive:meta.media.frame_rate_num">30000</property>
  <property name="kdenlive:meta.media.frame_rate_den">1001</property>
  <property name="kdenlive:meta.media.colorspace">601</property>
  <property name="kdenlive:meta.media.color_trc">2</property>
  <property name="kdenlive:meta.media.width">720</property>
  <property name="kdenlive:meta.media.height">480</property>
  <property name="kdenlive:zone_in">166</property>
  <property name="kdenlive:zone_out">242</property>
  <property name="xml">was here</property>
  <property name="meta.media.frame_rate_num">30000</property>
  <property name="meta.media.frame_rate_den">1001</property>
  <property name="meta.media.colorspace">601</property>
  <property name="meta.media.color_trc">2</property>
  <property name="meta.media.width">640</property>
  <property name="meta.media.height">427</property>
  <property name="meta.media.top_field_first">0</property>
  <property name="meta.media.progressive">1</property>
 </producer>
 <producer id="52_video" title="Anonymous Submission" out="213" in="0">
  <property name="length">00:00:07;04</property>
  <property name="eof">pause</property>
  <property name="resource">/home/thoth/.cache/kdenlive/proxy/215d0e2b3e77daa336ba2228f1f67e6a.mpg</property>
  <property name="meta.media.nb_streams">2</property>
  <property name="meta.media.0.stream.type">video</property>
  <property name="meta.media.0.stream.frame_rate">29.97</property>
  <property name="meta.media.0.stream.sample_aspect_ratio">0</property>
  <property name="meta.media.0.codec.width">640</property>
  <property name="meta.media.0.codec.height">427</property>
  <property name="meta.media.0.codec.rotate">0</property>
  <property name="meta.media.0.codec.frame_rate">29.97</property>
  <property name="meta.media.0.codec.pix_fmt">yuv422p</property>
  <property name="meta.media.0.codec.sample_aspect_ratio">0.889583</property>
  <property name="meta.media.0.codec.colorspace">601</property>
  <property name="meta.media.0.codec.name">mpeg2video</property>
  <property name="meta.media.0.codec.long_name">MPEG-2 video</property>
  <property name="meta.media.0.codec.bit_rate">0</property>
  <property name="meta.media.1.stream.type">audio</property>
  <property name="meta.media.1.codec.sample_fmt">s16p</property>
  <property name="meta.media.1.codec.sample_rate">32000</property>
  <property name="meta.media.1.codec.channels">2</property>
  <property name="meta.media.1.codec.name">mp2</property>
  <property name="meta.media.1.codec.long_name">MP2 (MPEG audio layer 2)</property>
  <property name="meta.media.1.codec.bit_rate">128000</property>
  <property name="seekable">1</property>
  <property name="meta.media.sample_aspect_num">427</property>
  <property name="meta.media.sample_aspect_den">480</property>
  <property name="aspect_ratio">0.889583</property>
  <property name="audio_index">-1</property>
  <property name="video_index">0</property>
  <property name="mute_on_pause">1</property>
  <property name="mlt_service">avformat</property>
  <property name="kdenlive:folderid">-1</property>
  <property name="kdenlive:file_size">25680000</property>
  <property name="kdenlive:file_hash">215d0e2b3e77daa336ba2228f1f67e6a</property>
  <property name="kdenlive:proxy">/home/thoth/.cache/kdenlive/proxy/215d0e2b3e77daa336ba2228f1f67e6a.mpg</property>
  <property name="proxy_out">213</property>
  <property name="kdenlive:originalurl">2001-07-07-beasty/beastiality-054.dv</property>
  <property name="global_feed">1</property>
  <property name="kdenlive:meta.media.nb_streams">3</property>
  <property name="kdenlive:meta.media.0.stream.type">video</property>
  <property name="kdenlive:meta.media.0.stream.frame_rate">29.97</property>
  <property name="kdenlive:meta.media.0.stream.sample_aspect_ratio">0.888889</property>
  <property name="kdenlive:meta.media.0.codec.width">720</property>
  <property name="kdenlive:meta.media.0.codec.height">480</property>
  <property name="kdenlive:meta.media.0.codec.rotate">0</property>
  <property name="kdenlive:meta.media.0.codec.frame_rate">29.97</property>
  <property name="kdenlive:meta.media.0.codec.pix_fmt">yuv411p</property>
  <property name="kdenlive:meta.media.0.codec.sample_aspect_ratio">0.888889</property>
  <property name="kdenlive:meta.media.0.codec.colorspace">601</property>
  <property name="kdenlive:meta.media.0.codec.name">dvvideo</property>
  <property name="kdenlive:meta.media.0.codec.long_name">DV (Digital Video)</property>
  <property name="kdenlive:meta.media.0.codec.bit_rate">25000000</property>
  <property name="kdenlive:meta.media.1.stream.type">audio</property>
  <property name="kdenlive:meta.media.1.codec.sample_fmt">s16</property>
  <property name="kdenlive:meta.media.1.codec.sample_rate">32000</property>
  <property name="kdenlive:meta.media.1.codec.channels">2</property>
  <property name="kdenlive:meta.media.1.codec.name">pcm_s16le</property>
  <property name="kdenlive:meta.media.1.codec.long_name">PCM signed 16-bit little-endian</property>
  <property name="kdenlive:meta.media.1.codec.bit_rate">1024000</property>
  <property name="kdenlive:meta.media.2.stream.type">audio</property>
  <property name="kdenlive:meta.media.2.codec.sample_fmt">s16</property>
  <property name="kdenlive:meta.media.2.codec.sample_rate">32000</property>
  <property name="kdenlive:meta.media.2.codec.channels">2</property>
  <property name="kdenlive:meta.media.2.codec.name">pcm_s16le</property>
  <property name="kdenlive:meta.media.2.codec.long_name">PCM signed 16-bit little-endian</property>
  <property name="kdenlive:meta.media.2.codec.bit_rate">1024000</property>
  <property name="kdenlive:meta.attr.timecode.markup">00:02:10;05</property>
  <property name="kdenlive:meta.media.sample_aspect_num">8</property>
  <property name="kdenlive:meta.media.sample_aspect_den">9</property>
  <property name="kdenlive:meta.media.frame_rate_num">30000</property>
  <property name="kdenlive:meta.media.frame_rate_den">1001</property>
  <property name="kdenlive:meta.media.colorspace">601</property>
  <property name="kdenlive:meta.media.color_trc">2</property>
  <property name="kdenlive:meta.media.width">720</property>
  <property name="kdenlive:meta.media.height">480</property>
  <property name="xml">was here</property>
  <property name="meta.media.frame_rate_num">30000</property>
  <property name="meta.media.frame_rate_den">1001</property>
  <property name="meta.media.colorspace">601</property>
  <property name="meta.media.color_trc">2</property>
  <property name="meta.media.width">640</property>
  <property name="meta.media.height">427</property>
  <property name="meta.media.top_field_first">0</property>
  <property name="meta.media.progressive">1</property>
 </producer>
 <producer id="59_video" title="Anonymous Submission" out="852" in="0">
  <property name="length">00:00:28;14</property>
  <property name="eof">pause</property>
  <property name="resource">/home/thoth/.cache/kdenlive/proxy/a30bf50fadbcb53eaade6e05f123e8b2.mpg</property>
  <property name="meta.media.nb_streams">2</property>
  <property name="meta.media.0.stream.type">video</property>
  <property name="meta.media.0.stream.frame_rate">29.97</property>
  <property name="meta.media.0.stream.sample_aspect_ratio">0</property>
  <property name="meta.media.0.codec.width">640</property>
  <property name="meta.media.0.codec.height">427</property>
  <property name="meta.media.0.codec.rotate">0</property>
  <property name="meta.media.0.codec.frame_rate">29.97</property>
  <property name="meta.media.0.codec.pix_fmt">yuv422p</property>
  <property name="meta.media.0.codec.sample_aspect_ratio">0.889583</property>
  <property name="meta.media.0.codec.colorspace">601</property>
  <property name="meta.media.0.codec.name">mpeg2video</property>
  <property name="meta.media.0.codec.long_name">MPEG-2 video</property>
  <property name="meta.media.0.codec.bit_rate">0</property>
  <property name="meta.media.1.stream.type">audio</property>
  <property name="meta.media.1.codec.sample_fmt">s16p</property>
  <property name="meta.media.1.codec.sample_rate">32000</property>
  <property name="meta.media.1.codec.channels">2</property>
  <property name="meta.media.1.codec.name">mp2</property>
  <property name="meta.media.1.codec.long_name">MP2 (MPEG audio layer 2)</property>
  <property name="meta.media.1.codec.bit_rate">128000</property>
  <property name="seekable">1</property>
  <property name="meta.media.sample_aspect_num">427</property>
  <property name="meta.media.sample_aspect_den">480</property>
  <property name="aspect_ratio">0.889583</property>
  <property name="audio_index">-1</property>
  <property name="video_index">0</property>
  <property name="mute_on_pause">1</property>
  <property name="mlt_service">avformat</property>
  <property name="kdenlive:folderid">-1</property>
  <property name="kdenlive:file_size">103200000</property>
  <property name="kdenlive:file_hash">a30bf50fadbcb53eaade6e05f123e8b2</property>
  <property name="kdenlive:proxy">/home/thoth/.cache/kdenlive/proxy/a30bf50fadbcb53eaade6e05f123e8b2.mpg</property>
  <property name="proxy_out">859</property>
  <property name="kdenlive:originalurl">2001-07-07-beasty/beastiality-058.dv</property>
  <property name="global_feed">1</property>
  <property name="kdenlive:meta.media.nb_streams">3</property>
  <property name="kdenlive:meta.media.0.stream.type">video</property>
  <property name="kdenlive:meta.media.0.stream.frame_rate">29.97</property>
  <property name="kdenlive:meta.media.0.stream.sample_aspect_ratio">0.888889</property>
  <property name="kdenlive:meta.media.0.codec.width">720</property>
  <property name="kdenlive:meta.media.0.codec.height">480</property>
  <property name="kdenlive:meta.media.0.codec.rotate">0</property>
  <property name="kdenlive:meta.media.0.codec.frame_rate">29.97</property>
  <property name="kdenlive:meta.media.0.codec.pix_fmt">yuv411p</property>
  <property name="kdenlive:meta.media.0.codec.sample_aspect_ratio">0.888889</property>
  <property name="kdenlive:meta.media.0.codec.colorspace">601</property>
  <property name="kdenlive:meta.media.0.codec.name">dvvideo</property>
  <property name="kdenlive:meta.media.0.codec.long_name">DV (Digital Video)</property>
  <property name="kdenlive:meta.media.0.codec.bit_rate">25000000</property>
  <property name="kdenlive:meta.media.1.stream.type">audio</property>
  <property name="kdenlive:meta.media.1.codec.sample_fmt">s16</property>
  <property name="kdenlive:meta.media.1.codec.sample_rate">32000</property>
  <property name="kdenlive:meta.media.1.codec.channels">2</property>
  <property name="kdenlive:meta.media.1.codec.name">pcm_s16le</property>
  <property name="kdenlive:meta.media.1.codec.long_name">PCM signed 16-bit little-endian</property>
  <property name="kdenlive:meta.media.1.codec.bit_rate">1024000</property>
  <property name="kdenlive:meta.media.2.stream.type">audio</property>
  <property name="kdenlive:meta.media.2.codec.sample_fmt">s16</property>
  <property name="kdenlive:meta.media.2.codec.sample_rate">32000</property>
  <property name="kdenlive:meta.media.2.codec.channels">2</property>
  <property name="kdenlive:meta.media.2.codec.name">pcm_s16le</property>
  <property name="kdenlive:meta.media.2.codec.long_name">PCM signed 16-bit little-endian</property>
  <property name="kdenlive:meta.media.2.codec.bit_rate">1024000</property>
  <property name="kdenlive:meta.media.sample_aspect_num">8</property>
  <property name="kdenlive:meta.media.sample_aspect_den">9</property>
  <property name="kdenlive:meta.media.frame_rate_num">30000</property>
  <property name="kdenlive:meta.media.frame_rate_den">1001</property>
  <property name="kdenlive:meta.media.colorspace">601</property>
  <property name="kdenlive:meta.media.color_trc">2</property>
  <property name="kdenlive:meta.media.width">720</property>
  <property name="kdenlive:meta.media.height">480</property>
  <property name="kdenlive:zone_in">206</property>
  <property name="kdenlive:zone_out">665</property>
  <property name="xml">was here</property>
  <property name="meta.media.frame_rate_num">30000</property>
  <property name="meta.media.frame_rate_den">1001</property>
  <property name="meta.media.colorspace">601</property>
  <property name="meta.media.color_trc">2</property>
  <property name="meta.media.width">640</property>
  <property name="meta.media.height">427</property>
  <property name="meta.media.top_field_first">0</property>
  <property name="meta.media.progressive">1</property>
 </producer>
 <producer id="53_video" title="Anonymous Submission" out="74" in="0">
  <property name="length">00:00:02;15</property>
  <property name="eof">pause</property>
  <property name="resource">/home/thoth/.cache/kdenlive/proxy/2380c5b66e662316ad330cd09f2bc444.mpg</property>
  <property name="meta.media.nb_streams">2</property>
  <property name="meta.media.0.stream.type">video</property>
  <property name="meta.media.0.stream.frame_rate">29.97</property>
  <property name="meta.media.0.stream.sample_aspect_ratio">0</property>
  <property name="meta.media.0.codec.width">640</property>
  <property name="meta.media.0.codec.height">427</property>
  <property name="meta.media.0.codec.rotate">0</property>
  <property name="meta.media.0.codec.frame_rate">29.97</property>
  <property name="meta.media.0.codec.pix_fmt">yuv422p</property>
  <property name="meta.media.0.codec.sample_aspect_ratio">0.889583</property>
  <property name="meta.media.0.codec.colorspace">601</property>
  <property name="meta.media.0.codec.name">mpeg2video</property>
  <property name="meta.media.0.codec.long_name">MPEG-2 video</property>
  <property name="meta.media.0.codec.bit_rate">0</property>
  <property name="meta.media.1.stream.type">audio</property>
  <property name="meta.media.1.codec.sample_fmt">s16p</property>
  <property name="meta.media.1.codec.sample_rate">32000</property>
  <property name="meta.media.1.codec.channels">2</property>
  <property name="meta.media.1.codec.name">mp2</property>
  <property name="meta.media.1.codec.long_name">MP2 (MPEG audio layer 2)</property>
  <property name="meta.media.1.codec.bit_rate">128000</property>
  <property name="seekable">1</property>
  <property name="meta.media.sample_aspect_num">427</property>
  <property name="meta.media.sample_aspect_den">480</property>
  <property name="aspect_ratio">0.889583</property>
  <property name="audio_index">-1</property>
  <property name="video_index">0</property>
  <property name="mute_on_pause">1</property>
  <property name="mlt_service">avformat</property>
  <property name="kdenlive:folderid">-1</property>
  <property name="kdenlive:file_size">9000000</property>
  <property name="kdenlive:file_hash">2380c5b66e662316ad330cd09f2bc444</property>
  <property name="kdenlive:proxy">/home/thoth/.cache/kdenlive/proxy/2380c5b66e662316ad330cd09f2bc444.mpg</property>
  <property name="proxy_out">74</property>
  <property name="kdenlive:originalurl">2001-07-07-beasty/beastiality-055.dv</property>
  <property name="global_feed">1</property>
  <property name="kdenlive:meta.media.nb_streams">3</property>
  <property name="kdenlive:meta.media.0.stream.type">video</property>
  <property name="kdenlive:meta.media.0.stream.frame_rate">29.97</property>
  <property name="kdenlive:meta.media.0.stream.sample_aspect_ratio">0.888889</property>
  <property name="kdenlive:meta.media.0.codec.width">720</property>
  <property name="kdenlive:meta.media.0.codec.height">480</property>
  <property name="kdenlive:meta.media.0.codec.rotate">0</property>
  <property name="kdenlive:meta.media.0.codec.frame_rate">29.97</property>
  <property name="kdenlive:meta.media.0.codec.pix_fmt">yuv411p</property>
  <property name="kdenlive:meta.media.0.codec.sample_aspect_ratio">0.888889</property>
  <property name="kdenlive:meta.media.0.codec.colorspace">601</property>
  <property name="kdenlive:meta.media.0.codec.name">dvvideo</property>
  <property name="kdenlive:meta.media.0.codec.long_name">DV (Digital Video)</property>
  <property name="kdenlive:meta.media.0.codec.bit_rate">25000000</property>
  <property name="kdenlive:meta.media.1.stream.type">audio</property>
  <property name="kdenlive:meta.media.1.codec.sample_fmt">s16</property>
  <property name="kdenlive:meta.media.1.codec.sample_rate">32000</property>
  <property name="kdenlive:meta.media.1.codec.channels">2</property>
  <property name="kdenlive:meta.media.1.codec.name">pcm_s16le</property>
  <property name="kdenlive:meta.media.1.codec.long_name">PCM signed 16-bit little-endian</property>
  <property name="kdenlive:meta.media.1.codec.bit_rate">1024000</property>
  <property name="kdenlive:meta.media.2.stream.type">audio</property>
  <property name="kdenlive:meta.media.2.codec.sample_fmt">s16</property>
  <property name="kdenlive:meta.media.2.codec.sample_rate">32000</property>
  <property name="kdenlive:meta.media.2.codec.channels">2</property>
  <property name="kdenlive:meta.media.2.codec.name">pcm_s16le</property>
  <property name="kdenlive:meta.media.2.codec.long_name">PCM signed 16-bit little-endian</property>
  <property name="kdenlive:meta.media.2.codec.bit_rate">1024000</property>
  <property name="kdenlive:meta.attr.timecode.markup">00:02:17;09</property>
  <property name="kdenlive:meta.media.sample_aspect_num">8</property>
  <property name="kdenlive:meta.media.sample_aspect_den">9</property>
  <property name="kdenlive:meta.media.frame_rate_num">30000</property>
  <property name="kdenlive:meta.media.frame_rate_den">1001</property>
  <property name="kdenlive:meta.media.colorspace">601</property>
  <property name="kdenlive:meta.media.color_trc">2</property>
  <property name="kdenlive:meta.media.width">720</property>
  <property name="kdenlive:meta.media.height">480</property>
  <property name="kdenlive:zone_in">1</property>
  <property name="kdenlive:zone_out">14</property>
  <property name="xml">was here</property>
  <property name="meta.media.frame_rate_num">30000</property>
  <property name="meta.media.frame_rate_den">1001</property>
  <property name="meta.media.colorspace">601</property>
  <property name="meta.media.color_trc">2</property>
  <property name="meta.media.width">640</property>
  <property name="meta.media.height">427</property>
  <property name="meta.media.top_field_first">0</property>
  <property name="meta.media.progressive">1</property>
 </producer>
 <producer id="54_video" title="Anonymous Submission" out="46" in="0">
  <property name="length">00:00:01;17</property>
  <property name="eof">pause</property>
  <property name="resource">/home/thoth/.cache/kdenlive/proxy/c29c0ffddce83eea45117c47bf9902d6.mpg</property>
  <property name="meta.media.nb_streams">2</property>
  <property name="meta.media.0.stream.type">video</property>
  <property name="meta.media.0.stream.frame_rate">29.97</property>
  <property name="meta.media.0.stream.sample_aspect_ratio">0</property>
  <property name="meta.media.0.codec.width">640</property>
  <property name="meta.media.0.codec.height">427</property>
  <property name="meta.media.0.codec.rotate">0</property>
  <property name="meta.media.0.codec.frame_rate">29.97</property>
  <property name="meta.media.0.codec.pix_fmt">yuv422p</property>
  <property name="meta.media.0.codec.sample_aspect_ratio">0.889583</property>
  <property name="meta.media.0.codec.colorspace">601</property>
  <property name="meta.media.0.codec.name">mpeg2video</property>
  <property name="meta.media.0.codec.long_name">MPEG-2 video</property>
  <property name="meta.media.0.codec.bit_rate">0</property>
  <property name="meta.media.1.stream.type">audio</property>
  <property name="meta.media.1.codec.sample_fmt">s16p</property>
  <property name="meta.media.1.codec.sample_rate">32000</property>
  <property name="meta.media.1.codec.channels">2</property>
  <property name="meta.media.1.codec.name">mp2</property>
  <property name="meta.media.1.codec.long_name">MP2 (MPEG audio layer 2)</property>
  <property name="meta.media.1.codec.bit_rate">128000</property>
  <property name="seekable">1</property>
  <property name="meta.media.sample_aspect_num">427</property>
  <property name="meta.media.sample_aspect_den">480</property>
  <property name="aspect_ratio">0.889583</property>
  <property name="audio_index">-1</property>
  <property name="video_index">0</property>
  <property name="mute_on_pause">1</property>
  <property name="mlt_service">avformat</property>
  <property name="kdenlive:folderid">-1</property>
  <property name="kdenlive:file_size">5640000</property>
  <property name="kdenlive:file_hash">c29c0ffddce83eea45117c47bf9902d6</property>
  <property name="kdenlive:proxy">/home/thoth/.cache/kdenlive/proxy/c29c0ffddce83eea45117c47bf9902d6.mpg</property>
  <property name="proxy_out">46</property>
  <property name="kdenlive:originalurl">2001-07-07-beasty/beastiality-056.dv</property>
  <property name="global_feed">1</property>
  <property name="kdenlive:meta.media.nb_streams">3</property>
  <property name="kdenlive:meta.media.0.stream.type">video</property>
  <property name="kdenlive:meta.media.0.stream.frame_rate">29.97</property>
  <property name="kdenlive:meta.media.0.stream.sample_aspect_ratio">0.888889</property>
  <property name="kdenlive:meta.media.0.codec.width">720</property>
  <property name="kdenlive:meta.media.0.codec.height">480</property>
  <property name="kdenlive:meta.media.0.codec.rotate">0</property>
  <property name="kdenlive:meta.media.0.codec.frame_rate">29.97</property>
  <property name="kdenlive:meta.media.0.codec.pix_fmt">yuv411p</property>
  <property name="kdenlive:meta.media.0.codec.sample_aspect_ratio">0.888889</property>
  <property name="kdenlive:meta.media.0.codec.colorspace">601</property>
  <property name="kdenlive:meta.media.0.codec.name">dvvideo</property>
  <property name="kdenlive:meta.media.0.codec.long_name">DV (Digital Video)</property>
  <property name="kdenlive:meta.media.0.codec.bit_rate">25000000</property>
  <property name="kdenlive:meta.media.1.stream.type">audio</property>
  <property name="kdenlive:meta.media.1.codec.sample_fmt">s16</property>
  <property name="kdenlive:meta.media.1.codec.sample_rate">32000</property>
  <property name="kdenlive:meta.media.1.codec.channels">2</property>
  <property name="kdenlive:meta.media.1.codec.name">pcm_s16le</property>
  <property name="kdenlive:meta.media.1.codec.long_name">PCM signed 16-bit little-endian</property>
  <property name="kdenlive:meta.media.1.codec.bit_rate">1024000</property>
  <property name="kdenlive:meta.media.2.stream.type">audio</property>
  <property name="kdenlive:meta.media.2.codec.sample_fmt">s16</property>
  <property name="kdenlive:meta.media.2.codec.sample_rate">32000</property>
  <property name="kdenlive:meta.media.2.codec.channels">2</property>
  <property name="kdenlive:meta.media.2.codec.name">pcm_s16le</property>
  <property name="kdenlive:meta.media.2.codec.long_name">PCM signed 16-bit little-endian</property>
  <property name="kdenlive:meta.media.2.codec.bit_rate">1024000</property>
  <property name="kdenlive:meta.attr.timecode.markup">00:02:19;24</property>
  <property name="kdenlive:meta.media.sample_aspect_num">8</property>
  <property name="kdenlive:meta.media.sample_aspect_den">9</property>
  <property name="kdenlive:meta.media.frame_rate_num">30000</property>
  <property name="kdenlive:meta.media.frame_rate_den">1001</property>
  <property name="kdenlive:meta.media.colorspace">601</property>
  <property name="kdenlive:meta.media.color_trc">2</property>
  <property name="kdenlive:meta.media.width">720</property>
  <property name="kdenlive:meta.media.height">480</property>
  <property name="kdenlive:zone_in">1</property>
  <property name="kdenlive:zone_out">28</property>
  <property name="xml">was here</property>
  <property name="meta.media.frame_rate_num">30000</property>
  <property name="meta.media.frame_rate_den">1001</property>
  <property name="meta.media.colorspace">601</property>
  <property name="meta.media.color_trc">2</property>
  <property name="meta.media.width">640</property>
  <property name="meta.media.height">427</property>
  <property name="meta.media.top_field_first">0</property>
  <property name="meta.media.progressive">1</property>
 </producer>
 <producer id="55_video" title="Anonymous Submission" out="70" in="0">
  <property name="length">00:00:02;11</property>
  <property name="eof">pause</property>
  <property name="resource">/home/thoth/.cache/kdenlive/proxy/c37abf73f4a874fde5772a2cefcbcbf0.mpg</property>
  <property name="meta.media.nb_streams">2</property>
  <property name="meta.media.0.stream.type">video</property>
  <property name="meta.media.0.stream.frame_rate">29.97</property>
  <property name="meta.media.0.stream.sample_aspect_ratio">0</property>
  <property name="meta.media.0.codec.width">640</property>
  <property name="meta.media.0.codec.height">427</property>
  <property name="meta.media.0.codec.rotate">0</property>
  <property name="meta.media.0.codec.frame_rate">29.97</property>
  <property name="meta.media.0.codec.pix_fmt">yuv422p</property>
  <property name="meta.media.0.codec.sample_aspect_ratio">0.889583</property>
  <property name="meta.media.0.codec.colorspace">601</property>
  <property name="meta.media.0.codec.name">mpeg2video</property>
  <property name="meta.media.0.codec.long_name">MPEG-2 video</property>
  <property name="meta.media.0.codec.bit_rate">0</property>
  <property name="meta.media.1.stream.type">audio</property>
  <property name="meta.media.1.codec.sample_fmt">s16p</property>
  <property name="meta.media.1.codec.sample_rate">32000</property>
  <property name="meta.media.1.codec.channels">2</property>
  <property name="meta.media.1.codec.name">mp2</property>
  <property name="meta.media.1.codec.long_name">MP2 (MPEG audio layer 2)</property>
  <property name="meta.media.1.codec.bit_rate">128000</property>
  <property name="seekable">1</property>
  <property name="meta.media.sample_aspect_num">427</property>
  <property name="meta.media.sample_aspect_den">480</property>
  <property name="aspect_ratio">0.889583</property>
  <property name="audio_index">-1</property>
  <property name="video_index">0</property>
  <property name="mute_on_pause">1</property>
  <property name="mlt_service">avformat</property>
  <property name="kdenlive:folderid">-1</property>
  <property name="kdenlive:file_size">8520000</property>
  <property name="kdenlive:file_hash">c37abf73f4a874fde5772a2cefcbcbf0</property>
  <property name="kdenlive:proxy">/home/thoth/.cache/kdenlive/proxy/c37abf73f4a874fde5772a2cefcbcbf0.mpg</property>
  <property name="proxy_out">70</property>
  <property name="kdenlive:originalurl">2001-07-07-beasty/beastiality-057.dv</property>
  <property name="global_feed">1</property>
  <property name="kdenlive:meta.media.nb_streams">3</property>
  <property name="kdenlive:meta.media.0.stream.type">video</property>
  <property name="kdenlive:meta.media.0.stream.frame_rate">29.97</property>
  <property name="kdenlive:meta.media.0.stream.sample_aspect_ratio">0.888889</property>
  <property name="kdenlive:meta.media.0.codec.width">720</property>
  <property name="kdenlive:meta.media.0.codec.height">480</property>
  <property name="kdenlive:meta.media.0.codec.rotate">0</property>
  <property name="kdenlive:meta.media.0.codec.frame_rate">29.97</property>
  <property name="kdenlive:meta.media.0.codec.pix_fmt">yuv411p</property>
  <property name="kdenlive:meta.media.0.codec.sample_aspect_ratio">0.888889</property>
  <property name="kdenlive:meta.media.0.codec.colorspace">601</property>
  <property name="kdenlive:meta.media.0.codec.name">dvvideo</property>
  <property name="kdenlive:meta.media.0.codec.long_name">DV (Digital Video)</property>
  <property name="kdenlive:meta.media.0.codec.bit_rate">25000000</property>
  <property name="kdenlive:meta.media.1.stream.type">audio</property>
  <property name="kdenlive:meta.media.1.codec.sample_fmt">s16</property>
  <property name="kdenlive:meta.media.1.codec.sample_rate">32000</property>
  <property name="kdenlive:meta.media.1.codec.channels">2</property>
  <property name="kdenlive:meta.media.1.codec.name">pcm_s16le</property>
  <property name="kdenlive:meta.media.1.codec.long_name">PCM signed 16-bit little-endian</property>
  <property name="kdenlive:meta.media.1.codec.bit_rate">1024000</property>
  <property name="kdenlive:meta.media.2.stream.type">audio</property>
  <property name="kdenlive:meta.media.2.codec.sample_fmt">s16</property>
  <property name="kdenlive:meta.media.2.codec.sample_rate">32000</property>
  <property name="kdenlive:meta.media.2.codec.channels">2</property>
  <property name="kdenlive:meta.media.2.codec.name">pcm_s16le</property>
  <property name="kdenlive:meta.media.2.codec.long_name">PCM signed 16-bit little-endian</property>
  <property name="kdenlive:meta.media.2.codec.bit_rate">1024000</property>
  <property name="kdenlive:meta.attr.timecode.markup">00:02:21;11</property>
  <property name="kdenlive:meta.media.sample_aspect_num">8</property>
  <property name="kdenlive:meta.media.sample_aspect_den">9</property>
  <property name="kdenlive:meta.media.frame_rate_num">30000</property>
  <property name="kdenlive:meta.media.frame_rate_den">1001</property>
  <property name="kdenlive:meta.media.colorspace">601</property>
  <property name="kdenlive:meta.media.color_trc">2</property>
  <property name="kdenlive:meta.media.width">720</property>
  <property name="kdenlive:meta.media.height">480</property>
  <property name="kdenlive:zone_in">0</property>
  <property name="kdenlive:zone_out">27</property>
  <property name="xml">was here</property>
  <property name="meta.media.frame_rate_num">30000</property>
  <property name="meta.media.frame_rate_den">1001</property>
  <property name="meta.media.colorspace">601</property>
  <property name="meta.media.color_trc">2</property>
  <property name="meta.media.width">640</property>
  <property name="meta.media.height">427</property>
  <property name="meta.media.top_field_first">0</property>
  <property name="meta.media.progressive">1</property>
 </producer>
 <producer id="62_playlist3" title="Anonymous Submission" out="680" in="0">
  <property name="length">00:00:22;22</property>
  <property name="eof">pause</property>
  <property name="resource">/home/thoth/.cache/kdenlive/proxy/40d3c7c3c5f202ec44192604fb10e3f5.mpg</property>
  <property name="meta.media.nb_streams">2</property>
  <property name="meta.media.0.stream.type">video</property>
  <property name="meta.media.0.stream.frame_rate">29.97</property>
  <property name="meta.media.0.stream.sample_aspect_ratio">0</property>
  <property name="meta.media.0.codec.width">640</property>
  <property name="meta.media.0.codec.height">427</property>
  <property name="meta.media.0.codec.rotate">0</property>
  <property name="meta.media.0.codec.frame_rate">29.97</property>
  <property name="meta.media.0.codec.pix_fmt">yuv422p</property>
  <property name="meta.media.0.codec.sample_aspect_ratio">0.889583</property>
  <property name="meta.media.0.codec.colorspace">601</property>
  <property name="meta.media.0.codec.name">mpeg2video</property>
  <property name="meta.media.0.codec.long_name">MPEG-2 video</property>
  <property name="meta.media.0.codec.bit_rate">0</property>
  <property name="meta.media.1.stream.type">audio</property>
  <property name="meta.media.1.codec.sample_fmt">s16p</property>
  <property name="meta.media.1.codec.sample_rate">32000</property>
  <property name="meta.media.1.codec.channels">2</property>
  <property name="meta.media.1.codec.name">mp2</property>
  <property name="meta.media.1.codec.long_name">MP2 (MPEG audio layer 2)</property>
  <property name="meta.media.1.codec.bit_rate">128000</property>
  <property name="seekable">1</property>
  <property name="meta.media.sample_aspect_num">427</property>
  <property name="meta.media.sample_aspect_den">480</property>
  <property name="aspect_ratio">0.889583</property>
  <property name="audio_index">1</property>
  <property name="video_index">0</property>
  <property name="mute_on_pause">1</property>
  <property name="mlt_service">avformat</property>
  <property name="kdenlive:folderid">-1</property>
  <property name="kdenlive:file_size">82320000</property>
  <property name="kdenlive:file_hash">40d3c7c3c5f202ec44192604fb10e3f5</property>
  <property name="kdenlive:proxy">/home/thoth/.cache/kdenlive/proxy/40d3c7c3c5f202ec44192604fb10e3f5.mpg</property>
  <property name="proxy_out">685</property>
  <property name="kdenlive:originalurl">2001-07-07-beasty/beastiality-061.dv</property>
  <property name="global_feed">1</property>
  <property name="kdenlive:meta.media.nb_streams">3</property>
  <property name="kdenlive:meta.media.0.stream.type">video</property>
  <property name="kdenlive:meta.media.0.stream.frame_rate">29.97</property>
  <property name="kdenlive:meta.media.0.stream.sample_aspect_ratio">0.888889</property>
  <property name="kdenlive:meta.media.0.codec.width">720</property>
  <property name="kdenlive:meta.media.0.codec.height">480</property>
  <property name="kdenlive:meta.media.0.codec.rotate">0</property>
  <property name="kdenlive:meta.media.0.codec.frame_rate">29.97</property>
  <property name="kdenlive:meta.media.0.codec.pix_fmt">yuv411p</property>
  <property name="kdenlive:meta.media.0.codec.sample_aspect_ratio">0.888889</property>
  <property name="kdenlive:meta.media.0.codec.colorspace">601</property>
  <property name="kdenlive:meta.media.0.codec.name">dvvideo</property>
  <property name="kdenlive:meta.media.0.codec.long_name">DV (Digital Video)</property>
  <property name="kdenlive:meta.media.0.codec.bit_rate">25000000</property>
  <property name="kdenlive:meta.media.1.stream.type">audio</property>
  <property name="kdenlive:meta.media.1.codec.sample_fmt">s16</property>
  <property name="kdenlive:meta.media.1.codec.sample_rate">32000</property>
  <property name="kdenlive:meta.media.1.codec.channels">2</property>
  <property name="kdenlive:meta.media.1.codec.name">pcm_s16le</property>
  <property name="kdenlive:meta.media.1.codec.long_name">PCM signed 16-bit little-endian</property>
  <property name="kdenlive:meta.media.1.codec.bit_rate">1024000</property>
  <property name="kdenlive:meta.media.2.stream.type">audio</property>
  <property name="kdenlive:meta.media.2.codec.sample_fmt">s16</property>
  <property name="kdenlive:meta.media.2.codec.sample_rate">32000</property>
  <property name="kdenlive:meta.media.2.codec.channels">2</property>
  <property name="kdenlive:meta.media.2.codec.name">pcm_s16le</property>
  <property name="kdenlive:meta.media.2.codec.long_name">PCM signed 16-bit little-endian</property>
  <property name="kdenlive:meta.media.2.codec.bit_rate">1024000</property>
  <property name="kdenlive:meta.media.sample_aspect_num">8</property>
  <property name="kdenlive:meta.media.sample_aspect_den">9</property>
  <property name="kdenlive:meta.media.frame_rate_num">30000</property>
  <property name="kdenlive:meta.media.frame_rate_den">1001</property>
  <property name="kdenlive:meta.media.colorspace">601</property>
  <property name="kdenlive:meta.media.color_trc">2</property>
  <property name="kdenlive:meta.media.width">720</property>
  <property name="kdenlive:meta.media.height">480</property>
  <property name="kdenlive:zone_in">103</property>
  <property name="kdenlive:zone_out">310</property>
  <property name="xml">was here</property>
  <property name="meta.media.frame_rate_num">30000</property>
  <property name="meta.media.frame_rate_den">1001</property>
  <property name="meta.media.colorspace">601</property>
  <property name="meta.media.color_trc">2</property>
  <property name="meta.media.width">640</property>
  <property name="meta.media.height">427</property>
  <property name="meta.media.top_field_first">0</property>
  <property name="meta.media.progressive">1</property>
 </producer>
 <producer id="64_playlist3" title="Anonymous Submission" out="244" in="0">
  <property name="length">00:00:08;05</property>
  <property name="eof">pause</property>
  <property name="resource">/home/thoth/.cache/kdenlive/proxy/291f63a7c05301a3b78d30a9cbac600d.mpg</property>
  <property name="meta.media.nb_streams">2</property>
  <property name="meta.media.0.stream.type">video</property>
  <property name="meta.media.0.stream.frame_rate">29.97</property>
  <property name="meta.media.0.stream.sample_aspect_ratio">0</property>
  <property name="meta.media.0.codec.width">640</property>
  <property name="meta.media.0.codec.height">427</property>
  <property name="meta.media.0.codec.rotate">0</property>
  <property name="meta.media.0.codec.frame_rate">29.97</property>
  <property name="meta.media.0.codec.pix_fmt">yuv422p</property>
  <property name="meta.media.0.codec.sample_aspect_ratio">0.889583</property>
  <property name="meta.media.0.codec.colorspace">601</property>
  <property name="meta.media.0.codec.name">mpeg2video</property>
  <property name="meta.media.0.codec.long_name">MPEG-2 video</property>
  <property name="meta.media.0.codec.bit_rate">0</property>
  <property name="meta.media.1.stream.type">audio</property>
  <property name="meta.media.1.codec.sample_fmt">s16p</property>
  <property name="meta.media.1.codec.sample_rate">32000</property>
  <property name="meta.media.1.codec.channels">2</property>
  <property name="meta.media.1.codec.name">mp2</property>
  <property name="meta.media.1.codec.long_name">MP2 (MPEG audio layer 2)</property>
  <property name="meta.media.1.codec.bit_rate">128000</property>
  <property name="seekable">1</property>
  <property name="meta.media.sample_aspect_num">427</property>
  <property name="meta.media.sample_aspect_den">480</property>
  <property name="aspect_ratio">0.889583</property>
  <property name="audio_index">1</property>
  <property name="video_index">0</property>
  <property name="mute_on_pause">1</property>
  <property name="mlt_service">avformat</property>
  <property name="kdenlive:folderid">-1</property>
  <property name="kdenlive:file_size">29400000</property>
  <property name="kdenlive:file_hash">291f63a7c05301a3b78d30a9cbac600d</property>
  <property name="kdenlive:proxy">/home/thoth/.cache/kdenlive/proxy/291f63a7c05301a3b78d30a9cbac600d.mpg</property>
  <property name="proxy_out">244</property>
  <property name="kdenlive:originalurl">2001-07-07-beasty/beastiality-063.dv</property>
  <property name="global_feed">1</property>
  <property name="kdenlive:meta.media.nb_streams">3</property>
  <property name="kdenlive:meta.media.0.stream.type">video</property>
  <property name="kdenlive:meta.media.0.stream.frame_rate">29.97</property>
  <property name="kdenlive:meta.media.0.stream.sample_aspect_ratio">0.888889</property>
  <property name="kdenlive:meta.media.0.codec.width">720</property>
  <property name="kdenlive:meta.media.0.codec.height">480</property>
  <property name="kdenlive:meta.media.0.codec.rotate">0</property>
  <property name="kdenlive:meta.media.0.codec.frame_rate">29.97</property>
  <property name="kdenlive:meta.media.0.codec.pix_fmt">yuv411p</property>
  <property name="kdenlive:meta.media.0.codec.sample_aspect_ratio">0.888889</property>
  <property name="kdenlive:meta.media.0.codec.colorspace">601</property>
  <property name="kdenlive:meta.media.0.codec.name">dvvideo</property>
  <property name="kdenlive:meta.media.0.codec.long_name">DV (Digital Video)</property>
  <property name="kdenlive:meta.media.0.codec.bit_rate">25000000</property>
  <property name="kdenlive:meta.media.1.stream.type">audio</property>
  <property name="kdenlive:meta.media.1.codec.sample_fmt">s16</property>
  <property name="kdenlive:meta.media.1.codec.sample_rate">32000</property>
  <property name="kdenlive:meta.media.1.codec.channels">2</property>
  <property name="kdenlive:meta.media.1.codec.name">pcm_s16le</property>
  <property name="kdenlive:meta.media.1.codec.long_name">PCM signed 16-bit little-endian</property>
  <property name="kdenlive:meta.media.1.codec.bit_rate">1024000</property>
  <property name="kdenlive:meta.media.2.stream.type">audio</property>
  <property name="kdenlive:meta.media.2.codec.sample_fmt">s16</property>
  <property name="kdenlive:meta.media.2.codec.sample_rate">32000</property>
  <property name="kdenlive:meta.media.2.codec.channels">2</property>
  <property name="kdenlive:meta.media.2.codec.name">pcm_s16le</property>
  <property name="kdenlive:meta.media.2.codec.long_name">PCM signed 16-bit little-endian</property>
  <property name="kdenlive:meta.media.2.codec.bit_rate">1024000</property>
  <property name="kdenlive:meta.attr.timecode.markup">00:01:48;13</property>
  <property name="kdenlive:meta.media.sample_aspect_num">8</property>
  <property name="kdenlive:meta.media.sample_aspect_den">9</property>
  <property name="kdenlive:meta.media.frame_rate_num">30000</property>
  <property name="kdenlive:meta.media.frame_rate_den">1001</property>
  <property name="kdenlive:meta.media.colorspace">601</property>
  <property name="kdenlive:meta.media.color_trc">2</property>
  <property name="kdenlive:meta.media.width">720</property>
  <property name="kdenlive:meta.media.height">480</property>
  <property name="kdenlive:zone_in">104</property>
  <property name="kdenlive:zone_out">147</property>
  <property name="xml">was here</property>
  <property name="meta.media.frame_rate_num">30000</property>
  <property name="meta.media.frame_rate_den">1001</property>
  <property name="meta.media.colorspace">601</property>
  <property name="meta.media.color_trc">2</property>
  <property name="meta.media.width">640</property>
  <property name="meta.media.height">427</property>
  <property name="meta.media.top_field_first">0</property>
  <property name="meta.media.progressive">1</property>
 </producer>
 <producer id="69_video" title="Anonymous Submission" out="823" in="0">
  <property name="length">00:00:27;15</property>
  <property name="eof">pause</property>
  <property name="resource">/home/thoth/.cache/kdenlive/proxy/d581c56b2a74b9d66de7aa9191a1133a.mpg</property>
  <property name="meta.media.nb_streams">2</property>
  <property name="meta.media.0.stream.type">video</property>
  <property name="meta.media.0.stream.frame_rate">29.97</property>
  <property name="meta.media.0.stream.sample_aspect_ratio">0</property>
  <property name="meta.media.0.codec.width">640</property>
  <property name="meta.media.0.codec.height">427</property>
  <property name="meta.media.0.codec.rotate">0</property>
  <property name="meta.media.0.codec.frame_rate">29.97</property>
  <property name="meta.media.0.codec.pix_fmt">yuv422p</property>
  <property name="meta.media.0.codec.sample_aspect_ratio">0.889583</property>
  <property name="meta.media.0.codec.colorspace">601</property>
  <property name="meta.media.0.codec.name">mpeg2video</property>
  <property name="meta.media.0.codec.long_name">MPEG-2 video</property>
  <property name="meta.media.0.codec.bit_rate">0</property>
  <property name="meta.media.1.stream.type">audio</property>
  <property name="meta.media.1.codec.sample_fmt">s16p</property>
  <property name="meta.media.1.codec.sample_rate">32000</property>
  <property name="meta.media.1.codec.channels">2</property>
  <property name="meta.media.1.codec.name">mp2</property>
  <property name="meta.media.1.codec.long_name">MP2 (MPEG audio layer 2)</property>
  <property name="meta.media.1.codec.bit_rate">128000</property>
  <property name="seekable">1</property>
  <property name="meta.media.sample_aspect_num">427</property>
  <property name="meta.media.sample_aspect_den">480</property>
  <property name="aspect_ratio">0.889583</property>
  <property name="audio_index">-1</property>
  <property name="video_index">0</property>
  <property name="mute_on_pause">1</property>
  <property name="mlt_service">avformat</property>
  <property name="kdenlive:folderid">-1</property>
  <property name="kdenlive:file_size">99240000</property>
  <property name="kdenlive:file_hash">d581c56b2a74b9d66de7aa9191a1133a</property>
  <property name="kdenlive:proxy">/home/thoth/.cache/kdenlive/proxy/d581c56b2a74b9d66de7aa9191a1133a.mpg</property>
  <property name="proxy_out">826</property>
  <property name="kdenlive:originalurl">2001-07-07-beasty/beastiality-068.dv</property>
  <property name="global_feed">1</property>
  <property name="kdenlive:meta.media.nb_streams">3</property>
  <property name="kdenlive:meta.media.0.stream.type">video</property>
  <property name="kdenlive:meta.media.0.stream.frame_rate">29.97</property>
  <property name="kdenlive:meta.media.0.stream.sample_aspect_ratio">0.888889</property>
  <property name="kdenlive:meta.media.0.codec.width">720</property>
  <property name="kdenlive:meta.media.0.codec.height">480</property>
  <property name="kdenlive:meta.media.0.codec.rotate">0</property>
  <property name="kdenlive:meta.media.0.codec.frame_rate">29.97</property>
  <property name="kdenlive:meta.media.0.codec.pix_fmt">yuv411p</property>
  <property name="kdenlive:meta.media.0.codec.sample_aspect_ratio">0.888889</property>
  <property name="kdenlive:meta.media.0.codec.colorspace">601</property>
  <property name="kdenlive:meta.media.0.codec.name">dvvideo</property>
  <property name="kdenlive:meta.media.0.codec.long_name">DV (Digital Video)</property>
  <property name="kdenlive:meta.media.0.codec.bit_rate">25000000</property>
  <property name="kdenlive:meta.media.1.stream.type">audio</property>
  <property name="kdenlive:meta.media.1.codec.sample_fmt">s16</property>
  <property name="kdenlive:meta.media.1.codec.sample_rate">32000</property>
  <property name="kdenlive:meta.media.1.codec.channels">2</property>
  <property name="kdenlive:meta.media.1.codec.name">pcm_s16le</property>
  <property name="kdenlive:meta.media.1.codec.long_name">PCM signed 16-bit little-endian</property>
  <property name="kdenlive:meta.media.1.codec.bit_rate">1024000</property>
  <property name="kdenlive:meta.media.2.stream.type">audio</property>
  <property name="kdenlive:meta.media.2.codec.sample_fmt">s16</property>
  <property name="kdenlive:meta.media.2.codec.sample_rate">32000</property>
  <property name="kdenlive:meta.media.2.codec.channels">2</property>
  <property name="kdenlive:meta.media.2.codec.name">pcm_s16le</property>
  <property name="kdenlive:meta.media.2.codec.long_name">PCM signed 16-bit little-endian</property>
  <property name="kdenlive:meta.media.2.codec.bit_rate">1024000</property>
  <property name="kdenlive:meta.attr.timecode.markup">00:02:50;22</property>
  <property name="kdenlive:meta.media.sample_aspect_num">8</property>
  <property name="kdenlive:meta.media.sample_aspect_den">9</property>
  <property name="kdenlive:meta.media.frame_rate_num">30000</property>
  <property name="kdenlive:meta.media.frame_rate_den">1001</property>
  <property name="kdenlive:meta.media.colorspace">601</property>
  <property name="kdenlive:meta.media.color_trc">2</property>
  <property name="kdenlive:meta.media.width">720</property>
  <property name="kdenlive:meta.media.height">480</property>
  <property name="kdenlive:zone_in">42</property>
  <property name="kdenlive:zone_out">636</property>
  <property name="xml">was here</property>
  <property name="meta.media.frame_rate_num">30000</property>
  <property name="meta.media.frame_rate_den">1001</property>
  <property name="meta.media.colorspace">601</property>
  <property name="meta.media.color_trc">2</property>
  <property name="meta.media.width">640</property>
  <property name="meta.media.height">427</property>
  <property name="meta.media.top_field_first">0</property>
  <property name="meta.media.progressive">1</property>
 </producer>
 <producer id="67_playlist3" title="Anonymous Submission" out="111" in="0">
  <property name="length">00:00:03;22</property>
  <property name="eof">pause</property>
  <property name="resource">/home/thoth/.cache/kdenlive/proxy/06a34b2e95789240f8066638a116e502.mpg</property>
  <property name="meta.media.nb_streams">2</property>
  <property name="meta.media.0.stream.type">video</property>
  <property name="meta.media.0.stream.frame_rate">29.97</property>
  <property name="meta.media.0.stream.sample_aspect_ratio">0</property>
  <property name="meta.media.0.codec.width">640</property>
  <property name="meta.media.0.codec.height">427</property>
  <property name="meta.media.0.codec.rotate">0</property>
  <property name="meta.media.0.codec.frame_rate">29.97</property>
  <property name="meta.media.0.codec.pix_fmt">yuv422p</property>
  <property name="meta.media.0.codec.sample_aspect_ratio">0.889583</property>
  <property name="meta.media.0.codec.colorspace">601</property>
  <property name="meta.media.0.codec.name">mpeg2video</property>
  <property name="meta.media.0.codec.long_name">MPEG-2 video</property>
  <property name="meta.media.0.codec.bit_rate">0</property>
  <property name="meta.media.1.stream.type">audio</property>
  <property name="meta.media.1.codec.sample_fmt">s16p</property>
  <property name="meta.media.1.codec.sample_rate">32000</property>
  <property name="meta.media.1.codec.channels">2</property>
  <property name="meta.media.1.codec.name">mp2</property>
  <property name="meta.media.1.codec.long_name">MP2 (MPEG audio layer 2)</property>
  <property name="meta.media.1.codec.bit_rate">128000</property>
  <property name="seekable">1</property>
  <property name="meta.media.sample_aspect_num">427</property>
  <property name="meta.media.sample_aspect_den">480</property>
  <property name="aspect_ratio">0.889583</property>
  <property name="audio_index">1</property>
  <property name="video_index">0</property>
  <property name="mute_on_pause">1</property>
  <property name="mlt_service">avformat</property>
  <property name="kdenlive:folderid">-1</property>
  <property name="kdenlive:file_size">13440000</property>
  <property name="kdenlive:file_hash">06a34b2e95789240f8066638a116e502</property>
  <property name="kdenlive:proxy">/home/thoth/.cache/kdenlive/proxy/06a34b2e95789240f8066638a116e502.mpg</property>
  <property name="proxy_out">111</property>
  <property name="kdenlive:originalurl">2001-07-07-beasty/beastiality-066.dv</property>
  <property name="global_feed">1</property>
  <property name="kdenlive:meta.media.nb_streams">3</property>
  <property name="kdenlive:meta.media.0.stream.type">video</property>
  <property name="kdenlive:meta.media.0.stream.frame_rate">29.97</property>
  <property name="kdenlive:meta.media.0.stream.sample_aspect_ratio">0.888889</property>
  <property name="kdenlive:meta.media.0.codec.width">720</property>
  <property name="kdenlive:meta.media.0.codec.height">480</property>
  <property name="kdenlive:meta.media.0.codec.rotate">0</property>
  <property name="kdenlive:meta.media.0.codec.frame_rate">29.97</property>
  <property name="kdenlive:meta.media.0.codec.pix_fmt">yuv411p</property>
  <property name="kdenlive:meta.media.0.codec.sample_aspect_ratio">0.888889</property>
  <property name="kdenlive:meta.media.0.codec.colorspace">601</property>
  <property name="kdenlive:meta.media.0.codec.name">dvvideo</property>
  <property name="kdenlive:meta.media.0.codec.long_name">DV (Digital Video)</property>
  <property name="kdenlive:meta.media.0.codec.bit_rate">25000000</property>
  <property name="kdenlive:meta.media.1.stream.type">audio</property>
  <property name="kdenlive:meta.media.1.codec.sample_fmt">s16</property>
  <property name="kdenlive:meta.media.1.codec.sample_rate">32000</property>
  <property name="kdenlive:meta.media.1.codec.channels">2</property>
  <property name="kdenlive:meta.media.1.codec.name">pcm_s16le</property>
  <property name="kdenlive:meta.media.1.codec.long_name">PCM signed 16-bit little-endian</property>
  <property name="kdenlive:meta.media.1.codec.bit_rate">1024000</property>
  <property name="kdenlive:meta.media.2.stream.type">audio</property>
  <property name="kdenlive:meta.media.2.codec.sample_fmt">s16</property>
  <property name="kdenlive:meta.media.2.codec.sample_rate">32000</property>
  <property name="kdenlive:meta.media.2.codec.channels">2</property>
  <property name="kdenlive:meta.media.2.codec.name">pcm_s16le</property>
  <property name="kdenlive:meta.media.2.codec.long_name">PCM signed 16-bit little-endian</property>
  <property name="kdenlive:meta.media.2.codec.bit_rate">1024000</property>
  <property name="kdenlive:meta.media.sample_aspect_num">8</property>
  <property name="kdenlive:meta.media.sample_aspect_den">9</property>
  <property name="kdenlive:meta.media.frame_rate_num">30000</property>
  <property name="kdenlive:meta.media.frame_rate_den">1001</property>
  <property name="kdenlive:meta.media.colorspace">601</property>
  <property name="kdenlive:meta.media.color_trc">2</property>
  <property name="kdenlive:meta.media.width">720</property>
  <property name="kdenlive:meta.media.height">480</property>
  <property name="xml">was here</property>
  <property name="meta.media.frame_rate_num">30000</property>
  <property name="meta.media.frame_rate_den">1001</property>
  <property name="meta.media.colorspace">601</property>
  <property name="meta.media.color_trc">2</property>
  <property name="meta.media.width">640</property>
  <property name="meta.media.height">427</property>
  <property name="meta.media.top_field_first">0</property>
  <property name="meta.media.progressive">1</property>
 </producer>
 <producer id="70_video" title="Anonymous Submission" out="1490" in="0">
  <property name="length">00:00:49;22</property>
  <property name="eof">pause</property>
  <property name="resource">/home/thoth/.cache/kdenlive/proxy/272e985545cd9923e2cf484ef812e786.mpg</property>
  <property name="meta.media.nb_streams">2</property>
  <property name="meta.media.0.stream.type">video</property>
  <property name="meta.media.0.stream.frame_rate">29.97</property>
  <property name="meta.media.0.stream.sample_aspect_ratio">0</property>
  <property name="meta.media.0.codec.width">640</property>
  <property name="meta.media.0.codec.height">427</property>
  <property name="meta.media.0.codec.rotate">0</property>
  <property name="meta.media.0.codec.frame_rate">29.97</property>
  <property name="meta.media.0.codec.pix_fmt">yuv422p</property>
  <property name="meta.media.0.codec.sample_aspect_ratio">0.889583</property>
  <property name="meta.media.0.codec.colorspace">601</property>
  <property name="meta.media.0.codec.name">mpeg2video</property>
  <property name="meta.media.0.codec.long_name">MPEG-2 video</property>
  <property name="meta.media.0.codec.bit_rate">0</property>
  <property name="meta.media.1.stream.type">audio</property>
  <property name="meta.media.1.codec.sample_fmt">s16p</property>
  <property name="meta.media.1.codec.sample_rate">32000</property>
  <property name="meta.media.1.codec.channels">2</property>
  <property name="meta.media.1.codec.name">mp2</property>
  <property name="meta.media.1.codec.long_name">MP2 (MPEG audio layer 2)</property>
  <property name="meta.media.1.codec.bit_rate">128000</property>
  <property name="seekable">1</property>
  <property name="meta.media.sample_aspect_num">427</property>
  <property name="meta.media.sample_aspect_den">480</property>
  <property name="aspect_ratio">0.889583</property>
  <property name="audio_index">-1</property>
  <property name="video_index">0</property>
  <property name="mute_on_pause">1</property>
  <property name="mlt_service">avformat</property>
  <property name="kdenlive:folderid">-1</property>
  <property name="kdenlive:file_size">180120000</property>
  <property name="kdenlive:file_hash">272e985545cd9923e2cf484ef812e786</property>
  <property name="kdenlive:proxy">/home/thoth/.cache/kdenlive/proxy/272e985545cd9923e2cf484ef812e786.mpg</property>
  <property name="proxy_out">1500</property>
  <property name="kdenlive:originalurl">2001-07-07-beasty/beastiality-069.dv</property>
  <property name="global_feed">1</property>
  <property name="kdenlive:meta.media.nb_streams">3</property>
  <property name="kdenlive:meta.media.0.stream.type">video</property>
  <property name="kdenlive:meta.media.0.stream.frame_rate">29.97</property>
  <property name="kdenlive:meta.media.0.stream.sample_aspect_ratio">0.888889</property>
  <property name="kdenlive:meta.media.0.codec.width">720</property>
  <property name="kdenlive:meta.media.0.codec.height">480</property>
  <property name="kdenlive:meta.media.0.codec.rotate">0</property>
  <property name="kdenlive:meta.media.0.codec.frame_rate">29.97</property>
  <property name="kdenlive:meta.media.0.codec.pix_fmt">yuv411p</property>
  <property name="kdenlive:meta.media.0.codec.sample_aspect_ratio">0.888889</property>
  <property name="kdenlive:meta.media.0.codec.colorspace">601</property>
  <property name="kdenlive:meta.media.0.codec.name">dvvideo</property>
  <property name="kdenlive:meta.media.0.codec.long_name">DV (Digital Video)</property>
  <property name="kdenlive:meta.media.0.codec.bit_rate">25000000</property>
  <property name="kdenlive:meta.media.1.stream.type">audio</property>
  <property name="kdenlive:meta.media.1.codec.sample_fmt">s16</property>
  <property name="kdenlive:meta.media.1.codec.sample_rate">32000</property>
  <property name="kdenlive:meta.media.1.codec.channels">2</property>
  <property name="kdenlive:meta.media.1.codec.name">pcm_s16le</property>
  <property name="kdenlive:meta.media.1.codec.long_name">PCM signed 16-bit little-endian</property>
  <property name="kdenlive:meta.media.1.codec.bit_rate">1024000</property>
  <property name="kdenlive:meta.media.2.stream.type">audio</property>
  <property name="kdenlive:meta.media.2.codec.sample_fmt">s16</property>
  <property name="kdenlive:meta.media.2.codec.sample_rate">32000</property>
  <property name="kdenlive:meta.media.2.codec.channels">2</property>
  <property name="kdenlive:meta.media.2.codec.name">pcm_s16le</property>
  <property name="kdenlive:meta.media.2.codec.long_name">PCM signed 16-bit little-endian</property>
  <property name="kdenlive:meta.media.2.codec.bit_rate">1024000</property>
  <property name="kdenlive:meta.media.sample_aspect_num">8</property>
  <property name="kdenlive:meta.media.sample_aspect_den">9</property>
  <property name="kdenlive:meta.media.frame_rate_num">30000</property>
  <property name="kdenlive:meta.media.frame_rate_den">1001</property>
  <property name="kdenlive:meta.media.colorspace">601</property>
  <property name="kdenlive:meta.media.color_trc">2</property>
  <property name="kdenlive:meta.media.width">720</property>
  <property name="kdenlive:meta.media.height">480</property>
  <property name="kdenlive:zone_in">39</property>
  <property name="kdenlive:zone_out">328</property>
  <property name="xml">was here</property>
  <property name="meta.media.frame_rate_num">30000</property>
  <property name="meta.media.frame_rate_den">1001</property>
  <property name="meta.media.colorspace">601</property>
  <property name="meta.media.color_trc">2</property>
  <property name="meta.media.width">640</property>
  <property name="meta.media.height">427</property>
  <property name="meta.media.top_field_first">0</property>
  <property name="meta.media.progressive">1</property>
 </producer>
 <playlist id="playlist3">
  <property name="kdenlive:track_name">Video 1</property>
  <property name="kdenlive:locked_track">0</property>
  <entry out="333" producer="4_video" in="257"/>
  <entry out="662" producer="74_video" in="388"/>
  <entry out="246" producer="7_video" in="0"/>
  <entry out="350" producer="23_playlist3" in="49">
   <filter id="filter17">
    <property name="window">75</property>
    <property name="max_gain">20dB</property>
    <property name="level">49=0;182=0;191=-60;233=-60;249=0;350=0</property>
    <property name="mlt_service">volume</property>
    <property name="kdenlive_id">volume</property>
    <property name="tag">volume</property>
    <property name="kdenlive_ix">1</property>
    <property name="kdenlive_info"/>
    <property name="disable"/>
   </filter>
  </entry>
  <entry out="160" producer="17_playlist3" in="127"/>
  <entry out="172" producer="16_playlist3" in="108"/>
  <entry out="163" producer="24_playlist3" in="67"/>
  <entry out="126" producer="19_playlist3" in="28">
   <filter id="filter18">
    <property name="window">75</property>
    <property name="max_gain">20dB</property>
    <property name="level">31=-60;54=0</property>
    <property name="mlt_service">volume</property>
    <property name="kdenlive_id">volume</property>
    <property name="tag">volume</property>
    <property name="kdenlive_ix">1</property>
    <property name="kdenlive_info"/>
   </filter>
  </entry>
  <entry out="111" producer="22_playlist3" in="31"/>
  <entry out="355" producer="24_playlist3" in="303"/>
  <entry out="312" producer="16_playlist3" in="268"/>
  <entry out="372" producer="41_video" in="57"/>
  <entry out="512" producer="42_playlist3" in="127">
   <filter id="filter19">
    <property name="window">75</property>
    <property name="max_gain">20dB</property>
    <property name="level">127=0;328=0;347=-60;388=-60;404=0</property>
    <property name="mlt_service">volume</property>
    <property name="kdenlive_id">volume</property>
    <property name="tag">volume</property>
    <property name="kdenlive_ix">1</property>
    <property name="kdenlive_info"/>
   </filter>
  </entry>
  <entry out="231" producer="43_playlist3" in="92"/>
  <entry out="142" producer="45_video" in="0"/>
  <entry out="371" producer="46_video" in="140"/>
  <entry out="442" producer="45_playlist3" in="380"/>
  <entry out="140" producer="47_playlist3" in="54"/>
  <entry out="132" producer="26_playlist3" in="78"/>
  <entry out="110" producer="27_playlist3" in="67"/>
  <entry out="681" producer="47_video" in="141"/>
  <entry out="625" producer="27_video" in="366"/>
  <entry out="168" producer="28_playlist3" in="60"/>
  <entry out="227" producer="33_playlist3" in="64"/>
  <entry out="132" producer="34_video" in="0"/>
  <blank length="73"/>
  <entry out="264" producer="34_video" in="133"/>
  <entry out="254" producer="48_playlist3" in="0"/>
  <entry out="338" producer="36_playlist3" in="37">
   <filter id="filter20">
    <property name="window">75</property>
    <property name="max_gain">20dB</property>
    <property name="level">37=0;96=0;111=-60;323=-60;338=-30</property>
    <property name="mlt_service">volume</property>
    <property name="kdenlive_id">volume</property>
    <property name="tag">volume</property>
    <property name="kdenlive_ix">1</property>
    <property name="kdenlive_info"/>
    <property name="disable"/>
   </filter>
  </entry>
  <entry out="393" producer="50_playlist3" in="69"/>
  <blank length="137"/>
  <entry out="639" producer="50_playlist3" in="394"/>
  <blank length="16"/>
  <entry out="157" producer="56_playlist3" in="137"/>
  <entry out="161" producer="57_playlist3" in="140"/>
  <entry out="183" producer="56_playlist3" in="158"/>
  <entry out="186" producer="57_playlist3" in="162"/>
  <entry out="206" producer="56_playlist3" in="184"/>
  <entry out="209" producer="57_playlist3" in="187"/>
  <entry out="229" producer="56_playlist3" in="207"/>
  <entry out="323" producer="57_playlist3" in="268"/>
  <entry out="322" producer="56_playlist3" in="230"/>
  <entry out="423" producer="57_playlist3" in="324"/>
  <entry out="567" producer="56_video" in="323"/>
  <entry out="495" producer="57_playlist3" in="423"/>
  <entry out="537" producer="58_video" in="425"/>
  <entry out="773" producer="58_video" in="585"/>
  <entry out="299" producer="29_video" in="115"/>
  <entry out="206" producer="30_playlist3" in="153"/>
  <entry out="496" producer="29_playlist3" in="315"/>
  <entry out="469" producer="30_video" in="242"/>
  <entry out="271" producer="31_playlist3" in="23"/>
  <blank length="21"/>
  <entry out="667" producer="31_video" in="272"/>
  <entry out="763" producer="32_playlist3" in="334"/>
  <entry out="1063" producer="32_playlist3" in="764"/>
  <entry out="273" producer="37_playlist3" in="0"/>
  <entry out="1421" producer="32_video" in="1064"/>
  <entry out="560" producer="37_video" in="274"/>
  <entry out="1557" producer="32_video" in="1422"/>
  <entry out="836" producer="37_video" in="561"/>
  <entry out="1697" producer="32_video" in="1558"/>
  <entry out="1303" producer="37_video" in="1022"/>
  <entry out="1931" producer="32_video" in="1698"/>
  <entry out="2128" producer="32_video" in="1932"/>
  <entry out="2844" producer="37_video" in="1418"/>
  <entry out="160" producer="40_playlist3" in="0"/>
  <entry out="2997" producer="37_playlist3" in="2845"/>
  <entry out="126" producer="38_playlist3" in="0"/>
  <entry out="197" producer="39_playlist3" in="11"/>
  <entry out="242" producer="59_playlist3" in="118"/>
  <entry out="92" producer="52_video" in="0"/>
  <entry out="88" producer="59_video" in="69"/>
  <entry out="14" producer="53_video" in="1"/>
  <entry out="28" producer="54_video" in="1"/>
  <entry out="27" producer="55_video" in="0"/>
  <entry out="593" producer="59_playlist3" in="206"/>
  <entry out="317" producer="62_playlist3" in="103"/>
  <entry out="147" producer="64_playlist3" in="104"/>
  <entry out="459" producer="62_playlist3" in="335"/>
  <entry out="636" producer="69_video" in="165"/>
  <entry out="111" producer="67_playlist3" in="0"/>
  <entry out="328" producer="70_video" in="39"/>
 </playlist>
 <producer id="35_playlist4" title="Anonymous Submission" out="429" in="0">
  <property name="length">00:00:14;10</property>
  <property name="eof">pause</property>
  <property name="resource">/home/thoth/.cache/kdenlive/proxy/584f57d072a4b53ab049bbb67def6c30.mpg</property>
  <property name="meta.media.nb_streams">2</property>
  <property name="meta.media.0.stream.type">video</property>
  <property name="meta.media.0.stream.frame_rate">29.97</property>
  <property name="meta.media.0.stream.sample_aspect_ratio">0</property>
  <property name="meta.media.0.codec.width">640</property>
  <property name="meta.media.0.codec.height">427</property>
  <property name="meta.media.0.codec.rotate">0</property>
  <property name="meta.media.0.codec.frame_rate">29.97</property>
  <property name="meta.media.0.codec.pix_fmt">yuv422p</property>
  <property name="meta.media.0.codec.sample_aspect_ratio">0.889583</property>
  <property name="meta.media.0.codec.colorspace">601</property>
  <property name="meta.media.0.codec.name">mpeg2video</property>
  <property name="meta.media.0.codec.long_name">MPEG-2 video</property>
  <property name="meta.media.0.codec.bit_rate">0</property>
  <property name="meta.media.1.stream.type">audio</property>
  <property name="meta.media.1.codec.sample_fmt">s16p</property>
  <property name="meta.media.1.codec.sample_rate">32000</property>
  <property name="meta.media.1.codec.channels">2</property>
  <property name="meta.media.1.codec.name">mp2</property>
  <property name="meta.media.1.codec.long_name">MP2 (MPEG audio layer 2)</property>
  <property name="meta.media.1.codec.bit_rate">128000</property>
  <property name="seekable">1</property>
  <property name="meta.media.sample_aspect_num">427</property>
  <property name="meta.media.sample_aspect_den">480</property>
  <property name="aspect_ratio">0.889583</property>
  <property name="audio_index">1</property>
  <property name="video_index">0</property>
  <property name="mute_on_pause">1</property>
  <property name="mlt_service">avformat</property>
  <property name="kdenlive:folderid">-1</property>
  <property name="kdenlive:file_size">51600000</property>
  <property name="kdenlive:file_hash">584f57d072a4b53ab049bbb67def6c30</property>
  <property name="kdenlive:proxy">/home/thoth/.cache/kdenlive/proxy/584f57d072a4b53ab049bbb67def6c30.mpg</property>
  <property name="proxy_out">429</property>
  <property name="kdenlive:originalurl">2001-07-07-beasty/beastiality-037.dv</property>
  <property name="global_feed">1</property>
  <property name="kdenlive:meta.media.nb_streams">3</property>
  <property name="kdenlive:meta.media.0.stream.type">video</property>
  <property name="kdenlive:meta.media.0.stream.frame_rate">29.97</property>
  <property name="kdenlive:meta.media.0.stream.sample_aspect_ratio">0.888889</property>
  <property name="kdenlive:meta.media.0.codec.width">720</property>
  <property name="kdenlive:meta.media.0.codec.height">480</property>
  <property name="kdenlive:meta.media.0.codec.rotate">0</property>
  <property name="kdenlive:meta.media.0.codec.frame_rate">29.97</property>
  <property name="kdenlive:meta.media.0.codec.pix_fmt">yuv411p</property>
  <property name="kdenlive:meta.media.0.codec.sample_aspect_ratio">0.888889</property>
  <property name="kdenlive:meta.media.0.codec.colorspace">601</property>
  <property name="kdenlive:meta.media.0.codec.name">dvvideo</property>
  <property name="kdenlive:meta.media.0.codec.long_name">DV (Digital Video)</property>
  <property name="kdenlive:meta.media.0.codec.bit_rate">25000000</property>
  <property name="kdenlive:meta.media.1.stream.type">audio</property>
  <property name="kdenlive:meta.media.1.codec.sample_fmt">s16</property>
  <property name="kdenlive:meta.media.1.codec.sample_rate">32000</property>
  <property name="kdenlive:meta.media.1.codec.channels">2</property>
  <property name="kdenlive:meta.media.1.codec.name">pcm_s16le</property>
  <property name="kdenlive:meta.media.1.codec.long_name">PCM signed 16-bit little-endian</property>
  <property name="kdenlive:meta.media.1.codec.bit_rate">1024000</property>
  <property name="kdenlive:meta.media.2.stream.type">audio</property>
  <property name="kdenlive:meta.media.2.codec.sample_fmt">s16</property>
  <property name="kdenlive:meta.media.2.codec.sample_rate">32000</property>
  <property name="kdenlive:meta.media.2.codec.channels">2</property>
  <property name="kdenlive:meta.media.2.codec.name">pcm_s16le</property>
  <property name="kdenlive:meta.media.2.codec.long_name">PCM signed 16-bit little-endian</property>
  <property name="kdenlive:meta.media.2.codec.bit_rate">1024000</property>
  <property name="kdenlive:meta.attr.timecode.markup">00:00:43;15</property>
  <property name="kdenlive:meta.media.sample_aspect_num">8</property>
  <property name="kdenlive:meta.media.sample_aspect_den">9</property>
  <property name="kdenlive:meta.media.frame_rate_num">30000</property>
  <property name="kdenlive:meta.media.frame_rate_den">1001</property>
  <property name="kdenlive:meta.media.colorspace">601</property>
  <property name="kdenlive:meta.media.color_trc">2</property>
  <property name="kdenlive:meta.media.width">720</property>
  <property name="kdenlive:meta.media.height">480</property>
  <property name="kdenlive:zone_in">63</property>
  <property name="kdenlive:zone_out">362</property>
  <property name="xml">was here</property>
  <property name="meta.media.frame_rate_num">30000</property>
  <property name="meta.media.frame_rate_den">1001</property>
  <property name="meta.media.colorspace">601</property>
  <property name="meta.media.color_trc">2</property>
  <property name="meta.media.width">640</property>
  <property name="meta.media.height">427</property>
  <property name="meta.media.top_field_first">0</property>
  <property name="meta.media.progressive">1</property>
 </producer>
 <producer id="49_video" title="Anonymous Submission" out="292" in="0">
  <property name="length">00:00:09;23</property>
  <property name="eof">pause</property>
  <property name="resource">/home/thoth/.cache/kdenlive/proxy/1b381b7ecf3b51629d2c06a8870a04a4.mpg</property>
  <property name="meta.media.nb_streams">2</property>
  <property name="meta.media.0.stream.type">video</property>
  <property name="meta.media.0.stream.frame_rate">29.97</property>
  <property name="meta.media.0.stream.sample_aspect_ratio">0</property>
  <property name="meta.media.0.codec.width">640</property>
  <property name="meta.media.0.codec.height">427</property>
  <property name="meta.media.0.codec.rotate">0</property>
  <property name="meta.media.0.codec.frame_rate">29.97</property>
  <property name="meta.media.0.codec.pix_fmt">yuv422p</property>
  <property name="meta.media.0.codec.sample_aspect_ratio">0.889583</property>
  <property name="meta.media.0.codec.colorspace">601</property>
  <property name="meta.media.0.codec.name">mpeg2video</property>
  <property name="meta.media.0.codec.long_name">MPEG-2 video</property>
  <property name="meta.media.0.codec.bit_rate">0</property>
  <property name="meta.media.1.stream.type">audio</property>
  <property name="meta.media.1.codec.sample_fmt">s16p</property>
  <property name="meta.media.1.codec.sample_rate">32000</property>
  <property name="meta.media.1.codec.channels">2</property>
  <property name="meta.media.1.codec.name">mp2</property>
  <property name="meta.media.1.codec.long_name">MP2 (MPEG audio layer 2)</property>
  <property name="meta.media.1.codec.bit_rate">128000</property>
  <property name="seekable">1</property>
  <property name="meta.media.sample_aspect_num">427</property>
  <property name="meta.media.sample_aspect_den">480</property>
  <property name="aspect_ratio">0.889583</property>
  <property name="audio_index">-1</property>
  <property name="video_index">0</property>
  <property name="mute_on_pause">1</property>
  <property name="mlt_service">avformat</property>
  <property name="kdenlive:folderid">-1</property>
  <property name="kdenlive:file_size">35160000</property>
  <property name="kdenlive:file_hash">1b381b7ecf3b51629d2c06a8870a04a4</property>
  <property name="kdenlive:proxy">/home/thoth/.cache/kdenlive/proxy/1b381b7ecf3b51629d2c06a8870a04a4.mpg</property>
  <property name="proxy_out">292</property>
  <property name="kdenlive:originalurl">2001-07-07-beasty/beastiality-040.dv</property>
  <property name="global_feed">1</property>
  <property name="kdenlive:meta.media.nb_streams">3</property>
  <property name="kdenlive:meta.media.0.stream.type">video</property>
  <property name="kdenlive:meta.media.0.stream.frame_rate">29.97</property>
  <property name="kdenlive:meta.media.0.stream.sample_aspect_ratio">0.888889</property>
  <property name="kdenlive:meta.media.0.codec.width">720</property>
  <property name="kdenlive:meta.media.0.codec.height">480</property>
  <property name="kdenlive:meta.media.0.codec.rotate">0</property>
  <property name="kdenlive:meta.media.0.codec.frame_rate">29.97</property>
  <property name="kdenlive:meta.media.0.codec.pix_fmt">yuv411p</property>
  <property name="kdenlive:meta.media.0.codec.sample_aspect_ratio">0.888889</property>
  <property name="kdenlive:meta.media.0.codec.colorspace">601</property>
  <property name="kdenlive:meta.media.0.codec.name">dvvideo</property>
  <property name="kdenlive:meta.media.0.codec.long_name">DV (Digital Video)</property>
  <property name="kdenlive:meta.media.0.codec.bit_rate">25000000</property>
  <property name="kdenlive:meta.media.1.stream.type">audio</property>
  <property name="kdenlive:meta.media.1.codec.sample_fmt">s16</property>
  <property name="kdenlive:meta.media.1.codec.sample_rate">32000</property>
  <property name="kdenlive:meta.media.1.codec.channels">2</property>
  <property name="kdenlive:meta.media.1.codec.name">pcm_s16le</property>
  <property name="kdenlive:meta.media.1.codec.long_name">PCM signed 16-bit little-endian</property>
  <property name="kdenlive:meta.media.1.codec.bit_rate">1024000</property>
  <property name="kdenlive:meta.media.2.stream.type">audio</property>
  <property name="kdenlive:meta.media.2.codec.sample_fmt">s16</property>
  <property name="kdenlive:meta.media.2.codec.sample_rate">32000</property>
  <property name="kdenlive:meta.media.2.codec.channels">2</property>
  <property name="kdenlive:meta.media.2.codec.name">pcm_s16le</property>
  <property name="kdenlive:meta.media.2.codec.long_name">PCM signed 16-bit little-endian</property>
  <property name="kdenlive:meta.media.2.codec.bit_rate">1024000</property>
  <property name="kdenlive:meta.attr.timecode.markup">00:01:33;29</property>
  <property name="kdenlive:meta.media.sample_aspect_num">8</property>
  <property name="kdenlive:meta.media.sample_aspect_den">9</property>
  <property name="kdenlive:meta.media.frame_rate_num">30000</property>
  <property name="kdenlive:meta.media.frame_rate_den">1001</property>
  <property name="kdenlive:meta.media.colorspace">601</property>
  <property name="kdenlive:meta.media.color_trc">2</property>
  <property name="kdenlive:meta.media.width">720</property>
  <property name="kdenlive:meta.media.height">480</property>
  <property name="kdenlive:zone_in">36</property>
  <property name="kdenlive:zone_out">79</property>
  <property name="xml">was here</property>
  <property name="meta.media.frame_rate_num">30000</property>
  <property name="meta.media.frame_rate_den">1001</property>
  <property name="meta.media.colorspace">601</property>
  <property name="meta.media.color_trc">2</property>
  <property name="meta.media.width">640</property>
  <property name="meta.media.height">427</property>
  <property name="meta.media.top_field_first">0</property>
  <property name="meta.media.progressive">1</property>
 </producer>
 <producer id="49_playlist4" title="Anonymous Submission" out="292" in="0">
  <property name="length">00:00:09;23</property>
  <property name="eof">pause</property>
  <property name="resource">/home/thoth/.cache/kdenlive/proxy/1b381b7ecf3b51629d2c06a8870a04a4.mpg</property>
  <property name="meta.media.nb_streams">2</property>
  <property name="meta.media.0.stream.type">video</property>
  <property name="meta.media.0.stream.frame_rate">29.97</property>
  <property name="meta.media.0.stream.sample_aspect_ratio">0</property>
  <property name="meta.media.0.codec.width">640</property>
  <property name="meta.media.0.codec.height">427</property>
  <property name="meta.media.0.codec.rotate">0</property>
  <property name="meta.media.0.codec.frame_rate">29.97</property>
  <property name="meta.media.0.codec.pix_fmt">yuv422p</property>
  <property name="meta.media.0.codec.sample_aspect_ratio">0.889583</property>
  <property name="meta.media.0.codec.colorspace">601</property>
  <property name="meta.media.0.codec.name">mpeg2video</property>
  <property name="meta.media.0.codec.long_name">MPEG-2 video</property>
  <property name="meta.media.0.codec.bit_rate">0</property>
  <property name="meta.media.1.stream.type">audio</property>
  <property name="meta.media.1.codec.sample_fmt">s16p</property>
  <property name="meta.media.1.codec.sample_rate">32000</property>
  <property name="meta.media.1.codec.channels">2</property>
  <property name="meta.media.1.codec.name">mp2</property>
  <property name="meta.media.1.codec.long_name">MP2 (MPEG audio layer 2)</property>
  <property name="meta.media.1.codec.bit_rate">128000</property>
  <property name="seekable">1</property>
  <property name="meta.media.sample_aspect_num">427</property>
  <property name="meta.media.sample_aspect_den">480</property>
  <property name="aspect_ratio">0.889583</property>
  <property name="audio_index">1</property>
  <property name="video_index">0</property>
  <property name="mute_on_pause">1</property>
  <property name="mlt_service">avformat</property>
  <property name="kdenlive:folderid">-1</property>
  <property name="kdenlive:file_size">35160000</property>
  <property name="kdenlive:file_hash">1b381b7ecf3b51629d2c06a8870a04a4</property>
  <property name="kdenlive:proxy">/home/thoth/.cache/kdenlive/proxy/1b381b7ecf3b51629d2c06a8870a04a4.mpg</property>
  <property name="proxy_out">292</property>
  <property name="kdenlive:originalurl">2001-07-07-beasty/beastiality-040.dv</property>
  <property name="global_feed">1</property>
  <property name="kdenlive:meta.media.nb_streams">3</property>
  <property name="kdenlive:meta.media.0.stream.type">video</property>
  <property name="kdenlive:meta.media.0.stream.frame_rate">29.97</property>
  <property name="kdenlive:meta.media.0.stream.sample_aspect_ratio">0.888889</property>
  <property name="kdenlive:meta.media.0.codec.width">720</property>
  <property name="kdenlive:meta.media.0.codec.height">480</property>
  <property name="kdenlive:meta.media.0.codec.rotate">0</property>
  <property name="kdenlive:meta.media.0.codec.frame_rate">29.97</property>
  <property name="kdenlive:meta.media.0.codec.pix_fmt">yuv411p</property>
  <property name="kdenlive:meta.media.0.codec.sample_aspect_ratio">0.888889</property>
  <property name="kdenlive:meta.media.0.codec.colorspace">601</property>
  <property name="kdenlive:meta.media.0.codec.name">dvvideo</property>
  <property name="kdenlive:meta.media.0.codec.long_name">DV (Digital Video)</property>
  <property name="kdenlive:meta.media.0.codec.bit_rate">25000000</property>
  <property name="kdenlive:meta.media.1.stream.type">audio</property>
  <property name="kdenlive:meta.media.1.codec.sample_fmt">s16</property>
  <property name="kdenlive:meta.media.1.codec.sample_rate">32000</property>
  <property name="kdenlive:meta.media.1.codec.channels">2</property>
  <property name="kdenlive:meta.media.1.codec.name">pcm_s16le</property>
  <property name="kdenlive:meta.media.1.codec.long_name">PCM signed 16-bit little-endian</property>
  <property name="kdenlive:meta.media.1.codec.bit_rate">1024000</property>
  <property name="kdenlive:meta.media.2.stream.type">audio</property>
  <property name="kdenlive:meta.media.2.codec.sample_fmt">s16</property>
  <property name="kdenlive:meta.media.2.codec.sample_rate">32000</property>
  <property name="kdenlive:meta.media.2.codec.channels">2</property>
  <property name="kdenlive:meta.media.2.codec.name">pcm_s16le</property>
  <property name="kdenlive:meta.media.2.codec.long_name">PCM signed 16-bit little-endian</property>
  <property name="kdenlive:meta.media.2.codec.bit_rate">1024000</property>
  <property name="kdenlive:meta.attr.timecode.markup">00:01:33;29</property>
  <property name="kdenlive:meta.media.sample_aspect_num">8</property>
  <property name="kdenlive:meta.media.sample_aspect_den">9</property>
  <property name="kdenlive:meta.media.frame_rate_num">30000</property>
  <property name="kdenlive:meta.media.frame_rate_den">1001</property>
  <property name="kdenlive:meta.media.colorspace">601</property>
  <property name="kdenlive:meta.media.color_trc">2</property>
  <property name="kdenlive:meta.media.width">720</property>
  <property name="kdenlive:meta.media.height">480</property>
  <property name="kdenlive:zone_in">65</property>
  <property name="kdenlive:zone_out">204</property>
  <property name="xml">was here</property>
  <property name="meta.media.frame_rate_num">30000</property>
  <property name="meta.media.frame_rate_den">1001</property>
  <property name="meta.media.colorspace">601</property>
  <property name="meta.media.color_trc">2</property>
  <property name="meta.media.width">640</property>
  <property name="meta.media.height">427</property>
  <property name="meta.media.top_field_first">0</property>
  <property name="meta.media.progressive">1</property>
 </producer>
 <producer id="51_playlist4" title="Anonymous Submission" out="177" in="0">
  <property name="length">00:00:05;28</property>
  <property name="eof">pause</property>
  <property name="resource">/home/thoth/.cache/kdenlive/proxy/e6653abd77448d6d723e605b30621441.mpg</property>
  <property name="meta.media.nb_streams">2</property>
  <property name="meta.media.0.stream.type">video</property>
  <property name="meta.media.0.stream.frame_rate">29.97</property>
  <property name="meta.media.0.stream.sample_aspect_ratio">0</property>
  <property name="meta.media.0.codec.width">640</property>
  <property name="meta.media.0.codec.height">427</property>
  <property name="meta.media.0.codec.rotate">0</property>
  <property name="meta.media.0.codec.frame_rate">29.97</property>
  <property name="meta.media.0.codec.pix_fmt">yuv422p</property>
  <property name="meta.media.0.codec.sample_aspect_ratio">0.889583</property>
  <property name="meta.media.0.codec.colorspace">601</property>
  <property name="meta.media.0.codec.name">mpeg2video</property>
  <property name="meta.media.0.codec.long_name">MPEG-2 video</property>
  <property name="meta.media.0.codec.bit_rate">0</property>
  <property name="meta.media.1.stream.type">audio</property>
  <property name="meta.media.1.codec.sample_fmt">s16p</property>
  <property name="meta.media.1.codec.sample_rate">32000</property>
  <property name="meta.media.1.codec.channels">2</property>
  <property name="meta.media.1.codec.name">mp2</property>
  <property name="meta.media.1.codec.long_name">MP2 (MPEG audio layer 2)</property>
  <property name="meta.media.1.codec.bit_rate">128000</property>
  <property name="seekable">1</property>
  <property name="meta.media.sample_aspect_num">427</property>
  <property name="meta.media.sample_aspect_den">480</property>
  <property name="aspect_ratio">0.889583</property>
  <property name="audio_index">1</property>
  <property name="video_index">0</property>
  <property name="mute_on_pause">1</property>
  <property name="mlt_service">avformat</property>
  <property name="kdenlive:folderid">-1</property>
  <property name="kdenlive:file_size">21360000</property>
  <property name="kdenlive:file_hash">e6653abd77448d6d723e605b30621441</property>
  <property name="kdenlive:proxy">/home/thoth/.cache/kdenlive/proxy/e6653abd77448d6d723e605b30621441.mpg</property>
  <property name="proxy_out">177</property>
  <property name="kdenlive:originalurl">2001-07-07-beasty/beastiality-042.dv</property>
  <property name="global_feed">1</property>
  <property name="kdenlive:meta.media.nb_streams">3</property>
  <property name="kdenlive:meta.media.0.stream.type">video</property>
  <property name="kdenlive:meta.media.0.stream.frame_rate">29.97</property>
  <property name="kdenlive:meta.media.0.stream.sample_aspect_ratio">0.888889</property>
  <property name="kdenlive:meta.media.0.codec.width">720</property>
  <property name="kdenlive:meta.media.0.codec.height">480</property>
  <property name="kdenlive:meta.media.0.codec.rotate">0</property>
  <property name="kdenlive:meta.media.0.codec.frame_rate">29.97</property>
  <property name="kdenlive:meta.media.0.codec.pix_fmt">yuv411p</property>
  <property name="kdenlive:meta.media.0.codec.sample_aspect_ratio">0.888889</property>
  <property name="kdenlive:meta.media.0.codec.colorspace">601</property>
  <property name="kdenlive:meta.media.0.codec.name">dvvideo</property>
  <property name="kdenlive:meta.media.0.codec.long_name">DV (Digital Video)</property>
  <property name="kdenlive:meta.media.0.codec.bit_rate">25000000</property>
  <property name="kdenlive:meta.media.1.stream.type">audio</property>
  <property name="kdenlive:meta.media.1.codec.sample_fmt">s16</property>
  <property name="kdenlive:meta.media.1.codec.sample_rate">32000</property>
  <property name="kdenlive:meta.media.1.codec.channels">2</property>
  <property name="kdenlive:meta.media.1.codec.name">pcm_s16le</property>
  <property name="kdenlive:meta.media.1.codec.long_name">PCM signed 16-bit little-endian</property>
  <property name="kdenlive:meta.media.1.codec.bit_rate">1024000</property>
  <property name="kdenlive:meta.media.2.stream.type">audio</property>
  <property name="kdenlive:meta.media.2.codec.sample_fmt">s16</property>
  <property name="kdenlive:meta.media.2.codec.sample_rate">32000</property>
  <property name="kdenlive:meta.media.2.codec.channels">2</property>
  <property name="kdenlive:meta.media.2.codec.name">pcm_s16le</property>
  <property name="kdenlive:meta.media.2.codec.long_name">PCM signed 16-bit little-endian</property>
  <property name="kdenlive:meta.media.2.codec.bit_rate">1024000</property>
  <property name="kdenlive:meta.attr.timecode.markup">00:02:05;09</property>
  <property name="kdenlive:meta.media.sample_aspect_num">8</property>
  <property name="kdenlive:meta.media.sample_aspect_den">9</property>
  <property name="kdenlive:meta.media.frame_rate_num">30000</property>
  <property name="kdenlive:meta.media.frame_rate_den">1001</property>
  <property name="kdenlive:meta.media.colorspace">601</property>
  <property name="kdenlive:meta.media.color_trc">2</property>
  <property name="kdenlive:meta.media.width">720</property>
  <property name="kdenlive:meta.media.height">480</property>
  <property name="kdenlive:zone_in">0</property>
  <property name="kdenlive:zone_out">136</property>
  <property name="xml">was here</property>
  <property name="meta.media.frame_rate_num">30000</property>
  <property name="meta.media.frame_rate_den">1001</property>
  <property name="meta.media.colorspace">601</property>
  <property name="meta.media.color_trc">2</property>
  <property name="meta.media.width">640</property>
  <property name="meta.media.height">427</property>
  <property name="meta.media.top_field_first">0</property>
  <property name="meta.media.progressive">1</property>
 </producer>
 <producer id="48_playlist4" title="Anonymous Submission" out="639" in="0">
  <property name="length">00:00:21;11</property>
  <property name="eof">pause</property>
  <property name="resource">/home/thoth/.cache/kdenlive/proxy/ee982c035828d614c73504d40df4f32b.mpg</property>
  <property name="meta.media.nb_streams">2</property>
  <property name="meta.media.0.stream.type">video</property>
  <property name="meta.media.0.stream.frame_rate">29.97</property>
  <property name="meta.media.0.stream.sample_aspect_ratio">0</property>
  <property name="meta.media.0.codec.width">640</property>
  <property name="meta.media.0.codec.height">427</property>
  <property name="meta.media.0.codec.rotate">0</property>
  <property name="meta.media.0.codec.frame_rate">29.97</property>
  <property name="meta.media.0.codec.pix_fmt">yuv422p</property>
  <property name="meta.media.0.codec.sample_aspect_ratio">0.889583</property>
  <property name="meta.media.0.codec.colorspace">601</property>
  <property name="meta.media.0.codec.name">mpeg2video</property>
  <property name="meta.media.0.codec.long_name">MPEG-2 video</property>
  <property name="meta.media.0.codec.bit_rate">0</property>
  <property name="meta.media.1.stream.type">audio</property>
  <property name="meta.media.1.codec.sample_fmt">s16p</property>
  <property name="meta.media.1.codec.sample_rate">32000</property>
  <property name="meta.media.1.codec.channels">2</property>
  <property name="meta.media.1.codec.name">mp2</property>
  <property name="meta.media.1.codec.long_name">MP2 (MPEG audio layer 2)</property>
  <property name="meta.media.1.codec.bit_rate">128000</property>
  <property name="seekable">1</property>
  <property name="meta.media.sample_aspect_num">427</property>
  <property name="meta.media.sample_aspect_den">480</property>
  <property name="aspect_ratio">0.889583</property>
  <property name="audio_index">1</property>
  <property name="video_index">0</property>
  <property name="mute_on_pause">1</property>
  <property name="mlt_service">avformat</property>
  <property name="kdenlive:folderid">-1</property>
  <property name="kdenlive:file_size">77880000</property>
  <property name="kdenlive:file_hash">ee982c035828d614c73504d40df4f32b</property>
  <property name="kdenlive:proxy">/home/thoth/.cache/kdenlive/proxy/ee982c035828d614c73504d40df4f32b.mpg</property>
  <property name="proxy_out">648</property>
  <property name="kdenlive:originalurl">2001-07-07-beasty/beastiality-039.dv</property>
  <property name="global_feed">1</property>
  <property name="kdenlive:meta.media.nb_streams">3</property>
  <property name="kdenlive:meta.media.0.stream.type">video</property>
  <property name="kdenlive:meta.media.0.stream.frame_rate">29.97</property>
  <property name="kdenlive:meta.media.0.stream.sample_aspect_ratio">0.888889</property>
  <property name="kdenlive:meta.media.0.codec.width">720</property>
  <property name="kdenlive:meta.media.0.codec.height">480</property>
  <property name="kdenlive:meta.media.0.codec.rotate">0</property>
  <property name="kdenlive:meta.media.0.codec.frame_rate">29.97</property>
  <property name="kdenlive:meta.media.0.codec.pix_fmt">yuv411p</property>
  <property name="kdenlive:meta.media.0.codec.sample_aspect_ratio">0.888889</property>
  <property name="kdenlive:meta.media.0.codec.colorspace">601</property>
  <property name="kdenlive:meta.media.0.codec.name">dvvideo</property>
  <property name="kdenlive:meta.media.0.codec.long_name">DV (Digital Video)</property>
  <property name="kdenlive:meta.media.0.codec.bit_rate">25000000</property>
  <property name="kdenlive:meta.media.1.stream.type">audio</property>
  <property name="kdenlive:meta.media.1.codec.sample_fmt">s16</property>
  <property name="kdenlive:meta.media.1.codec.sample_rate">32000</property>
  <property name="kdenlive:meta.media.1.codec.channels">2</property>
  <property name="kdenlive:meta.media.1.codec.name">pcm_s16le</property>
  <property name="kdenlive:meta.media.1.codec.long_name">PCM signed 16-bit little-endian</property>
  <property name="kdenlive:meta.media.1.codec.bit_rate">1024000</property>
  <property name="kdenlive:meta.media.2.stream.type">audio</property>
  <property name="kdenlive:meta.media.2.codec.sample_fmt">s16</property>
  <property name="kdenlive:meta.media.2.codec.sample_rate">32000</property>
  <property name="kdenlive:meta.media.2.codec.channels">2</property>
  <property name="kdenlive:meta.media.2.codec.name">pcm_s16le</property>
  <property name="kdenlive:meta.media.2.codec.long_name">PCM signed 16-bit little-endian</property>
  <property name="kdenlive:meta.media.2.codec.bit_rate">1024000</property>
  <property name="kdenlive:meta.attr.timecode.markup">00:01:12;10</property>
  <property name="kdenlive:meta.media.sample_aspect_num">8</property>
  <property name="kdenlive:meta.media.sample_aspect_den">9</property>
  <property name="kdenlive:meta.media.frame_rate_num">30000</property>
  <property name="kdenlive:meta.media.frame_rate_den">1001</property>
  <property name="kdenlive:meta.media.colorspace">601</property>
  <property name="kdenlive:meta.media.color_trc">2</property>
  <property name="kdenlive:meta.media.width">720</property>
  <property name="kdenlive:meta.media.height">480</property>
  <property name="kdenlive:zone_in">424</property>
  <property name="kdenlive:zone_out">539</property>
  <property name="xml">was here</property>
  <property name="meta.media.frame_rate_num">30000</property>
  <property name="meta.media.frame_rate_den">1001</property>
  <property name="meta.media.colorspace">601</property>
  <property name="meta.media.color_trc">2</property>
  <property name="meta.media.width">640</property>
  <property name="meta.media.height">427</property>
  <property name="meta.media.top_field_first">0</property>
  <property name="meta.media.progressive">1</property>
 </producer>
 <producer id="32_playlist4" title="Anonymous Submission" out="2128" in="0">
  <property name="length">00:01:11;01</property>
  <property name="eof">pause</property>
  <property name="resource">/home/thoth/.cache/kdenlive/proxy/ea2e46e63f0ea7d0afc0b309d587f5f3.mpg</property>
  <property name="meta.media.nb_streams">2</property>
  <property name="meta.media.0.stream.type">video</property>
  <property name="meta.media.0.stream.frame_rate">29.97</property>
  <property name="meta.media.0.stream.sample_aspect_ratio">0</property>
  <property name="meta.media.0.codec.width">640</property>
  <property name="meta.media.0.codec.height">427</property>
  <property name="meta.media.0.codec.rotate">0</property>
  <property name="meta.media.0.codec.frame_rate">29.97</property>
  <property name="meta.media.0.codec.pix_fmt">yuv422p</property>
  <property name="meta.media.0.codec.sample_aspect_ratio">0.889583</property>
  <property name="meta.media.0.codec.colorspace">601</property>
  <property name="meta.media.0.codec.name">mpeg2video</property>
  <property name="meta.media.0.codec.long_name">MPEG-2 video</property>
  <property name="meta.media.0.codec.bit_rate">0</property>
  <property name="meta.media.1.stream.type">audio</property>
  <property name="meta.media.1.codec.sample_fmt">s16p</property>
  <property name="meta.media.1.codec.sample_rate">32000</property>
  <property name="meta.media.1.codec.channels">2</property>
  <property name="meta.media.1.codec.name">mp2</property>
  <property name="meta.media.1.codec.long_name">MP2 (MPEG audio layer 2)</property>
  <property name="meta.media.1.codec.bit_rate">128000</property>
  <property name="seekable">1</property>
  <property name="meta.media.sample_aspect_num">427</property>
  <property name="meta.media.sample_aspect_den">480</property>
  <property name="aspect_ratio">0.889583</property>
  <property name="audio_index">1</property>
  <property name="video_index">0</property>
  <property name="mute_on_pause">1</property>
  <property name="mlt_service">avformat</property>
  <property name="kdenlive:folderid">-1</property>
  <property name="kdenlive:file_size">255480000</property>
  <property name="kdenlive:file_hash">ea2e46e63f0ea7d0afc0b309d587f5f3</property>
  <property name="kdenlive:proxy">/home/thoth/.cache/kdenlive/proxy/ea2e46e63f0ea7d0afc0b309d587f5f3.mpg</property>
  <property name="proxy_out">2128</property>
  <property name="kdenlive:originalurl">2001-07-07-beasty/beastiality-049.dv</property>
  <property name="global_feed">1</property>
  <property name="kdenlive:meta.media.nb_streams">3</property>
  <property name="kdenlive:meta.media.0.stream.type">video</property>
  <property name="kdenlive:meta.media.0.stream.frame_rate">29.97</property>
  <property name="kdenlive:meta.media.0.stream.sample_aspect_ratio">0.888889</property>
  <property name="kdenlive:meta.media.0.codec.width">720</property>
  <property name="kdenlive:meta.media.0.codec.height">480</property>
  <property name="kdenlive:meta.media.0.codec.rotate">0</property>
  <property name="kdenlive:meta.media.0.codec.frame_rate">29.97</property>
  <property name="kdenlive:meta.media.0.codec.pix_fmt">yuv411p</property>
  <property name="kdenlive:meta.media.0.codec.sample_aspect_ratio">0.888889</property>
  <property name="kdenlive:meta.media.0.codec.colorspace">601</property>
  <property name="kdenlive:meta.media.0.codec.name">dvvideo</property>
  <property name="kdenlive:meta.media.0.codec.long_name">DV (Digital Video)</property>
  <property name="kdenlive:meta.media.0.codec.bit_rate">25000000</property>
  <property name="kdenlive:meta.media.1.stream.type">audio</property>
  <property name="kdenlive:meta.media.1.codec.sample_fmt">s16</property>
  <property name="kdenlive:meta.media.1.codec.sample_rate">32000</property>
  <property name="kdenlive:meta.media.1.codec.channels">2</property>
  <property name="kdenlive:meta.media.1.codec.name">pcm_s16le</property>
  <property name="kdenlive:meta.media.1.codec.long_name">PCM signed 16-bit little-endian</property>
  <property name="kdenlive:meta.media.1.codec.bit_rate">1024000</property>
  <property name="kdenlive:meta.media.2.stream.type">audio</property>
  <property name="kdenlive:meta.media.2.codec.sample_fmt">s16</property>
  <property name="kdenlive:meta.media.2.codec.sample_rate">32000</property>
  <property name="kdenlive:meta.media.2.codec.channels">2</property>
  <property name="kdenlive:meta.media.2.codec.name">pcm_s16le</property>
  <property name="kdenlive:meta.media.2.codec.long_name">PCM signed 16-bit little-endian</property>
  <property name="kdenlive:meta.media.2.codec.bit_rate">1024000</property>
  <property name="kdenlive:meta.attr.timecode.markup">00:01:15;08</property>
  <property name="kdenlive:meta.media.sample_aspect_num">8</property>
  <property name="kdenlive:meta.media.sample_aspect_den">9</property>
  <property name="kdenlive:meta.media.frame_rate_num">30000</property>
  <property name="kdenlive:meta.media.frame_rate_den">1001</property>
  <property name="kdenlive:meta.media.colorspace">601</property>
  <property name="kdenlive:meta.media.color_trc">2</property>
  <property name="kdenlive:meta.media.width">720</property>
  <property name="kdenlive:meta.media.height">480</property>
  <property name="kdenlive:zone_in">30</property>
  <property name="kdenlive:zone_out">111</property>
  <property name="xml">was here</property>
  <property name="meta.media.frame_rate_num">30000</property>
  <property name="meta.media.frame_rate_den">1001</property>
  <property name="meta.media.colorspace">601</property>
  <property name="meta.media.color_trc">2</property>
  <property name="meta.media.width">640</property>
  <property name="meta.media.height">427</property>
  <property name="meta.media.top_field_first">0</property>
  <property name="meta.media.progressive">1</property>
 </producer>
 <playlist id="playlist4">
  <property name="kdenlive:track_name">Video 2</property>
  <property name="kdenlive:locked_track">0</property>
  <blank length="3935"/>
  <entry out="292" producer="35_playlist4" in="63"/>
  <blank length="67"/>
  <entry out="79" producer="49_video" in="36"/>
  <blank length="206"/>
  <entry out="173" producer="49_playlist4" in="39"/>
  <blank length="518"/>
  <entry out="136" producer="51_playlist4" in="0"/>
  <blank length="146"/>
  <entry out="539" producer="48_playlist4" in="424"/>
  <blank length="1893"/>
  <entry out="111" producer="32_playlist4" in="52"/>
 </playlist>
 <playlist id="playlist5">
  <property name="kdenlive:track_name">Video 3</property>
  <property name="kdenlive:locked_track">0</property>
 </playlist>
 <tractor id="maintractor" title="Anonymous Submission" global_feed="1" out="14804" in="0">
  <track producer="black_track"/>
  <track producer="playlist0" hide="video"/>
  <track producer="playlist1" hide="both"/>
  <track producer="playlist2" hide="video"/>
  <track producer="playlist3"/>
  <track producer="playlist4"/>
  <track producer="playlist5"/>
  <transition id="transition0">
   <property name="a_track">0</property>
   <property name="b_track">1</property>
   <property name="mlt_service">mix</property>
   <property name="always_active">1</property>
   <property name="combine">1</property>
   <property name="internal_added">237</property>
  </transition>
  <transition id="transition1">
   <property name="a_track">0</property>
   <property name="b_track">2</property>
   <property name="mlt_service">mix</property>
   <property name="always_active">1</property>
   <property name="combine">1</property>
   <property name="internal_added">237</property>
  </transition>
  <transition id="transition2">
   <property name="a_track">0</property>
   <property name="b_track">3</property>
   <property name="mlt_service">mix</property>
   <property name="always_active">1</property>
   <property name="combine">1</property>
   <property name="internal_added">237</property>
  </transition>
  <transition id="transition3">
   <property name="a_track">0</property>
   <property name="b_track">4</property>
   <property name="mlt_service">mix</property>
   <property name="always_active">1</property>
   <property name="combine">1</property>
   <property name="internal_added">237</property>
  </transition>
  <transition id="transition4">
   <property name="a_track">0</property>
   <property name="b_track">5</property>
   <property name="mlt_service">mix</property>
   <property name="always_active">1</property>
   <property name="combine">1</property>
   <property name="internal_added">237</property>
  </transition>
  <transition id="transition5">
   <property name="a_track">0</property>
   <property name="b_track">6</property>
   <property name="mlt_service">mix</property>
   <property name="always_active">1</property>
   <property name="combine">1</property>
   <property name="internal_added">237</property>
  </transition>
  <transition id="transition6">
   <property name="a_track">0</property>
   <property name="b_track">4</property>
   <property name="mlt_service">movit.overlay</property>
   <property name="always_active">1</property>
   <property name="internal_added">237</property>
  </transition>
  <transition id="transition7">
   <property name="a_track">0</property>
   <property name="b_track">5</property>
   <property name="mlt_service">movit.overlay</property>
   <property name="always_active">1</property>
   <property name="internal_added">237</property>
  </transition>
  <transition id="transition8">
   <property name="a_track">0</property>
   <property name="b_track">6</property>
   <property name="mlt_service">movit.overlay</property>
   <property name="always_active">1</property>
   <property name="internal_added">237</property>
  </transition>
 </tractor>
</mlt>
